<?xml version="1.0" encoding="UTF-8" standalone="no"?>
<svg
   xmlns:dc="http://purl.org/dc/elements/1.1/"
   xmlns:cc="http://creativecommons.org/ns#"
   xmlns:rdf="http://www.w3.org/1999/02/22-rdf-syntax-ns#"
   xmlns:svg="http://www.w3.org/2000/svg"
   xmlns="http://www.w3.org/2000/svg"
   version="1.1"
   id="svg2"
   xml:space="preserve"
   width="285.33334"
   height="164"
   viewBox="0 0 285.33334 164"><metadata
     id="metadata8"><rdf:RDF><cc:Work
         rdf:about=""><dc:format>image/svg+xml</dc:format><dc:type
           rdf:resource="http://purl.org/dc/dcmitype/StillImage" /></cc:Work></rdf:RDF></metadata><defs
     id="defs6" /><g
     id="g10"
     transform="matrix(1.3333333,0,0,-1.3333333,0,164)"><g
       id="g12"
       transform="scale(0.1)"><path
         d="M 5.62891,46.0938 H 2027.09"
         style="fill:none;stroke:#231f20;stroke-width:7.5;stroke-linecap:butt;stroke-linejoin:miter;stroke-miterlimit:4;stroke-dasharray:none;stroke-opacity:1"
         id="path14" /><g
         id="g16"
         transform="scale(10)"><text
           transform="matrix(1,0,0,-1,2.84531,115.172)"
           style="font-style:italic;font-variant:normal;font-size:8px;font-family:'Times New Roman';-inkscape-font-specification:Times-Italic;writing-mode:lr-tb;fill:#231f20;fill-opacity:1;fill-rule:nonzero;stroke:none"
           id="text20"><tspan
             x="0"
             y="0"
             id="tspan18">y</tspan></text></g><path
         d="M 46.2148,1072.83 V 7.39453"
         style="fill:none;stroke:#231f20;stroke-width:7.5;stroke-linecap:butt;stroke-linejoin:miter;stroke-miterlimit:4;stroke-dasharray:none;stroke-opacity:1"
         id="path22" /><path
         d="m 46.0586,1123.75 c 0,0 1.6133,-35.29 17.6367,-70 0.4492,-0.97 -17.6367,11.13 -17.6367,11.13 0,0 -17.4219,-11.31 -17.3242,-11.13 16.6015,34.71 17.3242,70 17.3242,70"
         style="fill:#231f20;fill-opacity:1;fill-rule:nonzero;stroke:none"
         id="path24" /><g
         id="g26"
         transform="scale(10)"><text
           transform="matrix(1,0,0,-1,209.99,2.33711)"
           style="font-style:italic;font-variant:normal;font-size:8px;font-family:'Times New Roman';-inkscape-font-specification:Times-Italic;writing-mode:lr-tb;fill:#231f20;fill-opacity:1;fill-rule:nonzero;stroke:none"
           id="text30"><tspan
             x="0"
             y="0"
             id="tspan28">x</tspan></text></g><path
         d="m 2074.1,46.543 c 0,0 -35.29,-1.6016 -70,-17.6367 -0.96,-0.4493 11.13,17.6484 11.13,17.6484 0,0 -11.3,17.4101 -11.13,17.3242 34.71,-16.6133 70,-17.3359 70,-17.3359"
         style="fill:#231f20;fill-opacity:1;fill-rule:nonzero;stroke:none"
         id="path32" /><path
         d="m 1537.54,526.438 c 0,0 28.05,-21.497 47.36,-54.485 0.55,-0.918 0.96,20.84 0.96,20.84 0,0 19.22,7.82 19.04,7.852 -37.99,6.21 -67.36,25.793 -67.36,25.793"
         style="fill:#231f20;fill-opacity:1;fill-rule:nonzero;stroke:none"
         id="path34" /><path
         d="M 1731.19,392.82 1576.7,498.777"
         style="fill:none;stroke:#231f20;stroke-width:5;stroke-linecap:butt;stroke-linejoin:miter;stroke-miterlimit:4;stroke-dasharray:none;stroke-opacity:1"
         id="path36" /><path
         d="m 925.297,243.645 c -85,50 -151.551,119.785 -265.234,73.621 C 586.703,287.488 522.656,238.613 450.277,204.59 368.02,165.93 245.18,109.902 165.039,188.523 c -67.1171,65.852 -1.305,221.399 63.887,270.122 104.012,77.734 272.328,41.785 394.605,39.734 -94.609,55.215 -245.625,146.523 -182,270.266 44.067,85.679 188.391,60.398 263.766,21.367 50.617,-26.211 145.644,-191.953 196.242,-121.496 46.328,64.531 -26.562,150.156 77.527,191.242 113.534,44.805 313.294,-67.121 416.244,-117.09 58.77,-28.52 192.7,-90.598 166.21,-175.254 -28.84,-92.269 -173.92,-95.637 -251.23,-88.75 -46.7,4.149 -239.78,80.762 -220.24,-20.285 18.75,-96.953 214.5,-122.813 285.24,-154.617 62.31,-28.02 226.43,-115.137 105,-184.004 -109.98,-62.383 -303.63,17.051 -411.11,52.793 -61.87,20.574 -88.883,41.094 -143.883,71.094 v 0"
         style="fill:#cceffc;fill-opacity:1;fill-rule:nonzero;stroke:none"
         id="path38" /><path
         d="m 925.297,243.645 c -85,50 -151.551,119.785 -265.234,73.621 C 586.703,287.488 522.656,238.613 450.277,204.59 368.02,165.93 245.18,109.902 165.039,188.523 c -67.1171,65.852 -1.305,221.399 63.887,270.122 104.012,77.734 272.328,41.785 394.605,39.734 -94.609,55.215 -245.625,146.523 -182,270.266 44.067,85.679 188.391,60.398 263.766,21.367 50.617,-26.211 145.644,-191.953 196.242,-121.496 46.328,64.531 -26.562,150.156 77.527,191.242 113.534,44.805 313.294,-67.121 416.244,-117.09 58.77,-28.52 192.7,-90.598 166.21,-175.254 -28.84,-92.269 -173.92,-95.637 -251.23,-88.75 -46.7,4.149 -239.78,80.762 -220.24,-20.285 18.75,-96.953 214.5,-122.813 285.24,-154.617 62.31,-28.02 226.43,-115.137 105,-184.004 -109.98,-62.383 -303.63,17.051 -411.11,52.793 -61.87,20.574 -88.883,41.094 -143.883,71.094 z"
         style="fill:none;stroke:#80d6f7;stroke-width:10;stroke-linecap:butt;stroke-linejoin:miter;stroke-miterlimit:4;stroke-dasharray:none;stroke-opacity:1"
         id="path40" /><g
         id="g42"
         transform="scale(10)"><text
           transform="matrix(1,0,0,-1,73.0961,45.6145)"
           style="font-variant:normal;font-weight:normal;font-size:8px;font-family:'Times New Roman';-inkscape-font-specification:Times-Roman;writing-mode:lr-tb;fill:#231f20;fill-opacity:1;fill-rule:nonzero;stroke:none"
           id="text50"><tspan
             x="0 2.664 6.664 8.8879995 12.44 15.104 17.327999 21.327999"
             y="0"
             id="tspan44">Interior</tspan><tspan
             x="59.4664 64.354401 68.354401 70.5784 74.130402 76.794403 79.018402 83.018402"
             y="-39.125"
             id="tspan46">Exterior</tspan><tspan
             x="101.9664 107.3024 111.3024 115.3024 119.3024 123.3024 126.8544 129.5184"
             y="9.875"
             id="tspan48">Boundary</tspan></text></g></g></g></svg>
