<?xml version="1.0" encoding="UTF-8" standalone="no"?>
<svg
   xmlns:dc="http://purl.org/dc/elements/1.1/"
   xmlns:cc="http://creativecommons.org/ns#"
   xmlns:rdf="http://www.w3.org/1999/02/22-rdf-syntax-ns#"
   xmlns:svg="http://www.w3.org/2000/svg"
   xmlns="http://www.w3.org/2000/svg"
   version="1.1"
   id="svg2"
   xml:space="preserve"
   width="469.33334"
   height="138.66667"
   viewBox="0 0 469.33334 138.66667"><metadata
     id="metadata8"><rdf:RDF><cc:Work
         rdf:about=""><dc:format>image/svg+xml</dc:format><dc:type
           rdf:resource="http://purl.org/dc/dcmitype/StillImage" /></cc:Work></rdf:RDF></metadata><defs
     id="defs6" /><g
     id="g10"
     transform="matrix(1.3333333,0,0,-1.3333333,0,138.66667)"><g
       id="g12"
       transform="scale(0.1)"><g
         id="g14"
         transform="scale(10)"><text
           transform="matrix(1,0,0,-1,35.0738,2.40664)"
           style="font-variant:normal;font-weight:normal;font-size:8px;font-family:'Times New Roman';-inkscape-font-specification:Times-Roman;writing-mode:lr-tb;fill:#231f20;fill-opacity:1;fill-rule:nonzero;stroke:none"
           id="text18"><tspan
             x="0 2.664 6.2160001"
             y="0"
             id="tspan16">(a)</tspan></text></g><path
         d="m 2074.59,355.41 200.99,370.879"
         style="fill:none;stroke:#80d6f7;stroke-width:7.5;stroke-linecap:butt;stroke-linejoin:miter;stroke-miterlimit:4;stroke-dasharray:none;stroke-opacity:1"
         id="path20" /><path
         d="m 2160.7,448.75 c 21.91,-23.086 33.63,-54.961 29.88,-92.461 -5.97,-59.707 -57.5,-101.492 -120,-101.492 -50,0 -89.81,48.992 -89.81,101.113 0,52.528 47.31,84.266 94.89,84.266 42.04,0 71.97,-42.117 67.41,-83.906 -3.64,-33.438 -33.68,-57.579 -67.12,-53.934 -26.74,2.91 -46.06,26.953 -43.15,53.699 2.33,21.399 21.56,36.848 42.96,34.524 17.12,-1.868 29.49,-17.258 27.62,-34.375"
         style="fill:none;stroke:#bfeafb;stroke-width:5;stroke-linecap:butt;stroke-linejoin:miter;stroke-miterlimit:4;stroke-dasharray:none;stroke-opacity:1"
         id="path22" /><path
         d="m 1838.08,355.293 h 851.88"
         style="fill:none;stroke:#231f20;stroke-width:7.5;stroke-linecap:butt;stroke-linejoin:miter;stroke-miterlimit:4;stroke-dasharray:none;stroke-opacity:1"
         id="path24" /><g
         id="g26"
         transform="scale(10)"><text
           transform="matrix(1,0,0,-1,205.636,92.0156)"
           style="font-style:italic;font-variant:normal;font-size:8px;font-family:'Times New Roman';-inkscape-font-specification:Times-Italic;writing-mode:lr-tb;fill:#231f20;fill-opacity:1;fill-rule:nonzero;stroke:none"
           id="text34"><tspan
             x="0"
             y="0"
             id="tspan28">y</tspan><tspan
             x="11.5"
             y="32"
             id="tspan30">r</tspan><tspan
             x="69.422302"
             y="58.6758"
             id="tspan32">x</tspan></text></g><path
         d="M 2074.13,850.602 V 110.508"
         style="fill:none;stroke:#231f20;stroke-width:7.5;stroke-linecap:butt;stroke-linejoin:miter;stroke-miterlimit:4;stroke-dasharray:none;stroke-opacity:1"
         id="path36" /><path
         d="m 2737.56,355.742 c 0,0 -35.29,-1.601 -70,-17.637 -0.96,-0.449 11.13,17.649 11.13,17.649 0,0 -11.31,17.41 -11.13,17.324 34.71,-16.613 70,-17.336 70,-17.336"
         style="fill:#231f20;fill-opacity:1;fill-rule:nonzero;stroke:none"
         id="path38" /><path
         d="m 2141.35,470.098 c 0,0 16.49,-22.969 23.61,-52.715 0.21,-0.82 5.56,15.742 5.56,15.742 0,0 16.55,1.523 16.4,1.594 -27.62,13.562 -45.57,35.379 -45.57,35.379"
         style="fill:#bfeafb;fill-opacity:1;fill-rule:nonzero;stroke:none"
         id="path40" /><path
         d="m 2073.97,892.184 c 0,0 1.61,-35.293 17.64,-70 0.44,-0.969 -17.65,11.121 -17.65,11.121 0,0 -17.41,-11.297 -17.32,-11.121 16.61,34.707 17.33,70 17.33,70"
         style="fill:#231f20;fill-opacity:1;fill-rule:nonzero;stroke:none"
         id="path42" /><path
         d="m 2093.29,773.434 c 0,-9.664 -7.84,-17.5 -17.5,-17.5 -9.66,0 -17.5,7.836 -17.5,17.5 0,9.664 7.84,17.5 17.5,17.5 9.66,0 17.5,-7.836 17.5,-17.5"
         style="fill:#231f20;fill-opacity:1;fill-rule:nonzero;stroke:none"
         id="path44" /><path
         d="m 2320.96,774.492 c 0,-9.664 -7.84,-17.5 -17.5,-17.5 -9.66,0 -17.5,7.836 -17.5,17.5 0,9.664 7.84,17.5 17.5,17.5 9.66,0 17.5,-7.836 17.5,-17.5"
         style="fill:#231f20;fill-opacity:1;fill-rule:nonzero;stroke:none"
         id="path46" /><path
         d="m 2320.88,355.996 c 0,-9.668 -7.84,-17.5 -17.5,-17.5 -9.65,0 -17.5,7.832 -17.5,17.5 0,9.66 7.85,17.5 17.5,17.5 9.66,0 17.5,-7.84 17.5,-17.5"
         style="fill:#231f20;fill-opacity:1;fill-rule:nonzero;stroke:none"
         id="path48" /><path
         d="m 2073.75,774.473 h 230 v -420"
         style="fill:none;stroke:#231f20;stroke-width:5;stroke-linecap:butt;stroke-linejoin:miter;stroke-miterlimit:4;stroke-dasharray:17.5, 25;stroke-dashoffset:0;stroke-opacity:1"
         id="path50" /><path
         d="m 2294.18,757.551 c 0,0 -12.84,-25.176 -15.43,-55.664 -0.06,-0.84 -7.87,14.715 -7.87,14.715 0,0 -16.57,-0.965 -16.44,-0.879 25.27,17.57 39.74,41.828 39.74,41.828"
         style="fill:#80d6f7;fill-opacity:1;fill-rule:nonzero;stroke:none"
         id="path52" /><g
         id="g54"
         transform="scale(10)"><text
           transform="matrix(1,0,0,-1,223.308,26.3789)"
           style="font-variant:normal;font-weight:normal;font-size:8px;font-family:'Times New Roman';-inkscape-font-specification:Times-Roman;writing-mode:lr-tb;fill:#231f20;fill-opacity:1;fill-rule:nonzero;stroke:none"
           id="text58"><tspan
             x="0"
             y="0"
             id="tspan56">(</tspan></text><text
           transform="matrix(1,0,0,-1,225.97206,26.3789)"
           style="font-style:italic;font-variant:normal;font-size:8px;font-family:'Times New Roman';-inkscape-font-specification:Times-Italic;writing-mode:lr-tb;fill:#231f20;fill-opacity:1;fill-rule:nonzero;stroke:none"
           id="text62"><tspan
             x="0"
             y="0"
             id="tspan60">x</tspan></text><text
           transform="matrix(1,0,0,-1,229.52401,26.3789)"
           style="font-variant:normal;font-weight:normal;font-size:8px;font-family:'Times New Roman';-inkscape-font-specification:Times-Roman;writing-mode:lr-tb;fill:#231f20;fill-opacity:1;fill-rule:nonzero;stroke:none"
           id="text68"><tspan
             x="0 2 4 8"
             y="0"
             id="tspan64">, 0)</tspan><tspan
             x="-42.216 -39.551998 -35.551998 -33.551998"
             y="-48.75"
             id="tspan66">(0, </tspan></text><text
           transform="matrix(1,0,0,-1,197.97211,75.1289)"
           style="font-style:italic;font-variant:normal;font-size:8px;font-family:'Times New Roman';-inkscape-font-specification:Times-Italic;writing-mode:lr-tb;fill:#231f20;fill-opacity:1;fill-rule:nonzero;stroke:none"
           id="text72"><tspan
             x="0"
             y="0"
             id="tspan70">y</tspan></text><text
           transform="matrix(1,0,0,-1,201.52406,75.1289)"
           style="font-variant:normal;font-weight:normal;font-size:8px;font-family:'Times New Roman';-inkscape-font-specification:Times-Roman;writing-mode:lr-tb;fill:#231f20;fill-opacity:1;fill-rule:nonzero;stroke:none"
           id="text76"><tspan
             x="0"
             y="0"
             id="tspan74">)</tspan></text><text
           transform="matrix(1,0,0,-1,229.01356,81.70898)"
           style="font-style:italic;font-variant:normal;font-size:8px;font-family:'Times New Roman';-inkscape-font-specification:Times-Italic;writing-mode:lr-tb;fill:#231f20;fill-opacity:1;fill-rule:nonzero;stroke:none"
           id="text80"><tspan
             x="0"
             y="0"
             id="tspan78">z</tspan></text><text
           transform="matrix(1,0,0,-1,234.12567,81.70898)"
           style="font-variant:normal;font-weight:normal;font-size:8px;font-family:'Times New Roman';-inkscape-font-specification:Times-Roman;writing-mode:lr-tb;fill:#231f20;fill-opacity:1;fill-rule:nonzero;stroke:none"
           id="text84"><tspan
             x="0 4.5120001 6.5120001"
             y="0"
             id="tspan82">= (</tspan></text><text
           transform="matrix(1,0,0,-1,243.30187,81.70898)"
           style="font-style:italic;font-variant:normal;font-size:8px;font-family:'Times New Roman';-inkscape-font-specification:Times-Italic;writing-mode:lr-tb;fill:#231f20;fill-opacity:1;fill-rule:nonzero;stroke:none"
           id="text88"><tspan
             x="0"
             y="0"
             id="tspan86">x</tspan></text><text
           transform="matrix(1,0,0,-1,246.85382,81.70898)"
           style="font-variant:normal;font-weight:normal;font-size:8px;font-family:'Times New Roman';-inkscape-font-specification:Times-Roman;writing-mode:lr-tb;fill:#231f20;fill-opacity:1;fill-rule:nonzero;stroke:none"
           id="text92"><tspan
             x="0 2"
             y="0"
             id="tspan90">, </tspan></text><text
           transform="matrix(1,0,0,-1,250.85382,81.70898)"
           style="font-style:italic;font-variant:normal;font-size:8px;font-family:'Times New Roman';-inkscape-font-specification:Times-Italic;writing-mode:lr-tb;fill:#231f20;fill-opacity:1;fill-rule:nonzero;stroke:none"
           id="text96"><tspan
             x="0"
             y="0"
             id="tspan94">y</tspan></text><text
           transform="matrix(1,0,0,-1,254.40577,81.70898)"
           style="font-variant:normal;font-weight:normal;font-size:8px;font-family:'Times New Roman';-inkscape-font-specification:Times-Roman;writing-mode:lr-tb;fill:#231f20;fill-opacity:1;fill-rule:nonzero;stroke:none"
           id="text100"><tspan
             x="0 2.664 4.664 9.1759996"
             y="0"
             id="tspan98">) = </tspan></text><text
           transform="matrix(1,0,0,-1,265.58197,81.70898)"
           style="font-style:italic;font-variant:normal;font-size:8px;font-family:'Times New Roman';-inkscape-font-specification:Times-Italic;writing-mode:lr-tb;fill:#231f20;fill-opacity:1;fill-rule:nonzero;stroke:none"
           id="text104"><tspan
             x="0"
             y="0"
             id="tspan102">x</tspan></text><text
           transform="matrix(1,0,0,-1,271.13392,81.70898)"
           style="font-variant:normal;font-weight:normal;font-size:8px;font-family:'Times New Roman';-inkscape-font-specification:Times-Roman;writing-mode:lr-tb;fill:#231f20;fill-opacity:1;fill-rule:nonzero;stroke:none"
           id="text108"><tspan
             x="0 4.5120001"
             y="0"
             id="tspan106">+ </tspan></text><text
           transform="matrix(1,0,0,-1,277.64603,81.70898)"
           style="font-style:italic;font-variant:normal;font-size:8px;font-family:'Times New Roman';-inkscape-font-specification:Times-Italic;writing-mode:lr-tb;fill:#231f20;fill-opacity:1;fill-rule:nonzero;stroke:none"
           id="text112"><tspan
             x="0 2.224 5.776"
             y="0"
             id="tspan110">iy</tspan></text><text
           transform="matrix(1,0,0,-1,234.21363,72.20898)"
           style="font-variant:normal;font-weight:normal;font-size:8px;font-family:'Times New Roman';-inkscape-font-specification:Times-Roman;writing-mode:lr-tb;fill:#231f20;fill-opacity:1;fill-rule:nonzero;stroke:none"
           id="text116"><tspan
             x="0 5.3120961"
             y="0"
             id="tspan114">=(</tspan></text><text
           transform="matrix(1,0,0,-1,242.18983,72.20898)"
           style="font-style:italic;font-variant:normal;font-size:8px;font-family:'Times New Roman';-inkscape-font-specification:Times-Italic;writing-mode:lr-tb;fill:#231f20;fill-opacity:1;fill-rule:nonzero;stroke:none"
           id="text120"><tspan
             x="0 3.112"
             y="0"
             id="tspan118">r </tspan></text><text
           transform="matrix(1,0,0,-1,247.30194,72.20898)"
           style="font-variant:normal;font-weight:normal;font-size:8px;font-family:'Times New Roman';-inkscape-font-specification:Times-Roman;writing-mode:lr-tb;fill:#231f20;fill-opacity:1;fill-rule:nonzero;stroke:none"
           id="text124"><tspan
             x="0 3.552 7.552 10.664 16.664 18.664"
             y="0"
             id="tspan122">cos , </tspan></text><text
           transform="matrix(1,0,0,-1,267.96604,72.20898)"
           style="font-style:italic;font-variant:normal;font-size:8px;font-family:'Times New Roman';-inkscape-font-specification:Times-Italic;writing-mode:lr-tb;fill:#231f20;fill-opacity:1;fill-rule:nonzero;stroke:none"
           id="text128"><tspan
             x="0 3.112"
             y="0"
             id="tspan126">r </tspan></text><text
           transform="matrix(1,0,0,-1,273.07815,72.20898)"
           style="font-variant:normal;font-weight:normal;font-size:8px;font-family:'Times New Roman';-inkscape-font-specification:Times-Roman;writing-mode:lr-tb;fill:#231f20;fill-opacity:1;fill-rule:nonzero;stroke:none"
           id="text132"><tspan
             x="0 3.112 5.336 9.3360004"
             y="0"
             id="tspan130">sin </tspan></text><text
           transform="matrix(1,0,0,-1,288.41405,72.20898)"
           style="font-variant:normal;font-weight:normal;font-size:8px;font-family:'Times New Roman';-inkscape-font-specification:Times-Roman;writing-mode:lr-tb;fill:#231f20;fill-opacity:1;fill-rule:nonzero;stroke:none"
           id="text136"><tspan
             x="0 2.664 4.664 9.1759996"
             y="0"
             id="tspan134">) = </tspan></text><text
           transform="matrix(1,0,0,-1,299.59025,72.20898)"
           style="font-style:italic;font-variant:normal;font-size:8px;font-family:'Times New Roman';-inkscape-font-specification:Times-Italic;writing-mode:lr-tb;fill:#231f20;fill-opacity:1;fill-rule:nonzero;stroke:none"
           id="text140"><tspan
             x="0"
             y="0"
             id="tspan138">r</tspan></text><text
           transform="matrix(1,0,0,-1,303.10236,72.20898)"
           style="font-variant:normal;font-weight:normal;font-size:8px;font-family:'Times New Roman';-inkscape-font-specification:Times-Roman;writing-mode:lr-tb;fill:#231f20;fill-opacity:1;fill-rule:nonzero;stroke:none"
           id="text144"><tspan
             x="0 2.664 6.2160001 10.216 13.328 19.327999 23.84"
             y="0"
             id="tspan142">(cos + </tspan></text><text
           transform="matrix(1,0,0,-1,328.94256,72.20898)"
           style="font-style:italic;font-variant:normal;font-size:8px;font-family:'Times New Roman';-inkscape-font-specification:Times-Italic;writing-mode:lr-tb;fill:#231f20;fill-opacity:1;fill-rule:nonzero;stroke:none"
           id="text148"><tspan
             x="0 2.224"
             y="0"
             id="tspan146">i </tspan></text><text
           transform="matrix(1,0,0,-1,333.16639,72.20898)"
           style="font-variant:normal;font-weight:normal;font-size:8px;font-family:'Times New Roman';-inkscape-font-specification:Times-Roman;writing-mode:lr-tb;fill:#231f20;fill-opacity:1;fill-rule:nonzero;stroke:none"
           id="text152"><tspan
             x="0 3.112 5.336 9.3360004 15.336"
             y="0"
             id="tspan150">sin )</tspan></text><text
           transform="matrix(0.9823434,0,-0.18708675,-0.98222741,219.625,40.8516)"
           style="font-variant:normal;font-weight:normal;font-size:7.99999px;font-family:Symbol;-inkscape-font-specification:Symbol;writing-mode:lr-tb;fill:#231f20;fill-opacity:1;fill-rule:nonzero;stroke:none"
           id="text156"><tspan
             x="0 4.167994"
             y="0"
             id="tspan154">θ </tspan></text><text
           transform="matrix(0.982412,0,-0.187108,-0.982339,259.125,71.9762)"
           style="font-variant:normal;font-weight:normal;font-size:7.99995px;font-family:Symbol;-inkscape-font-specification:Symbol;writing-mode:lr-tb;fill:#231f20;fill-opacity:1;fill-rule:nonzero;stroke:none"
           id="text160"><tspan
             x="0 4.1679745 24.940247 29.108221"
             y="0"
             id="tspan158">θ θ </tspan></text><text
           transform="matrix(0.98234329,0,-0.1870873,-0.9822303,344.125,71.9762)"
           style="font-variant:normal;font-weight:normal;font-size:7.99997px;font-family:Symbol;-inkscape-font-specification:Symbol;writing-mode:lr-tb;fill:#231f20;fill-opacity:1;fill-rule:nonzero;stroke:none"
           id="text164"><tspan
             x="0 4.1679821 -27.231001 -23.063019"
             y="0"
             id="tspan162">θ θ </tspan></text><text
           transform="matrix(1,0,0,-1,231.532,2.40547)"
           style="font-variant:normal;font-weight:normal;font-size:8px;font-family:'Times New Roman';-inkscape-font-specification:Times-Roman;writing-mode:lr-tb;fill:#231f20;fill-opacity:1;fill-rule:nonzero;stroke:none"
           id="text168"><tspan
             x="0 2.664 6.664"
             y="0"
             id="tspan166">(b)</tspan></text></g><path
         d="M 208.23,700.883 H 451.793 V 379.926"
         style="fill:none;stroke:#231f20;stroke-width:5;stroke-linecap:butt;stroke-linejoin:miter;stroke-miterlimit:4;stroke-dasharray:40, 30;stroke-dashoffset:0;stroke-opacity:1"
         id="path170" /><path
         d="m 214.395,359.914 c 0,0 203.378,291.414 203.378,291.41"
         style="fill:none;stroke:#80d6f7;stroke-width:7.5;stroke-linecap:butt;stroke-linejoin:miter;stroke-miterlimit:4;stroke-dasharray:none;stroke-opacity:1"
         id="path172" /><path
         d="m 334.492,362.074 c 0,27.332 -8.652,52.633 -23.375,73.324"
         style="fill:none;stroke:#a6e2f9;stroke-width:5;stroke-linecap:butt;stroke-linejoin:miter;stroke-miterlimit:4;stroke-dasharray:none;stroke-opacity:1"
         id="path174" /><path
         d="M 207.82,360.371 H 731.07"
         style="fill:none;stroke:#231f20;stroke-width:7.5;stroke-linecap:butt;stroke-linejoin:miter;stroke-miterlimit:4;stroke-dasharray:none;stroke-opacity:1"
         id="path176" /><g
         id="g178"
         transform="scale(10)"><text
           transform="matrix(1,0,0,-1,18.9469,96.2406)"
           style="font-style:italic;font-variant:normal;font-size:8px;font-family:'Times New Roman';-inkscape-font-specification:Times-Italic;writing-mode:lr-tb;fill:#231f20;fill-opacity:1;fill-rule:nonzero;stroke:none"
           id="text184"><tspan
             x="0"
             y="0"
             id="tspan180">y</tspan><tspan
             x="60.5"
             y="62.476601"
             id="tspan182">x</tspan></text></g><path
         d="M 207.23,883.512 V 358.746"
         style="fill:none;stroke:#231f20;stroke-width:7.5;stroke-linecap:butt;stroke-linejoin:miter;stroke-miterlimit:4;stroke-dasharray:none;stroke-opacity:1"
         id="path186" /><path
         d="m 778.668,360.82 c 0,0 -35.293,-1.609 -70,-17.636 -0.969,-0.45 11.121,17.64 11.121,17.64 0,0 -11.297,17.414 -11.121,17.324 34.707,-16.605 70,-17.328 70,-17.328"
         style="fill:#231f20;fill-opacity:1;fill-rule:nonzero;stroke:none"
         id="path188" /><path
         d="m 442.906,683.988 c 0,0 -15.273,-23.777 -20.871,-53.843 -0.156,-0.829 -6.375,15.425 -6.375,15.425 0,0 -16.582,0.684 -16.457,0.762 26.906,14.969 43.703,37.656 43.703,37.656"
         style="fill:#80d6f7;fill-opacity:1;fill-rule:nonzero;stroke:none"
         id="path190" /><path
         d="m 207.074,934.434 c 0,0 1.614,-35.293 17.637,-70 0.449,-0.965 -17.641,11.125 -17.641,11.125 0,0 -17.414,-11.301 -17.324,-11.125 16.606,34.707 17.328,70 17.328,70"
         style="fill:#231f20;fill-opacity:1;fill-rule:nonzero;stroke:none"
         id="path192" /><path
         d="m 291.711,464.922 c 0,0 16.559,-22.902 42.508,-39.09 0.722,-0.449 -16.68,-0.301 -16.68,-0.301 0,0 -6.687,-15.199 -6.699,-15.043 -4.129,30.508 -19.129,54.434 -19.129,54.434"
         style="fill:#a6e2f9;fill-opacity:1;fill-rule:nonzero;stroke:none"
         id="path194" /><path
         d="m 468.109,705.145 c 3.489,-9.008 -0.996,-19.145 -10,-22.629 -9.023,-3.477 -19.148,1.004 -22.636,10.015 -3.496,9.016 0.996,19.153 10,22.629 9.015,3.488 19.152,-0.988 22.636,-10.015"
         style="fill:#80d6f7;fill-opacity:1;fill-rule:nonzero;stroke:none"
         id="path196" /><path
         d="m 468.109,369.914 c 3.489,-9.012 -0.996,-19.148 -10,-22.633 -9.023,-3.476 -19.148,1.004 -22.636,10.016 -3.496,9.016 0.996,19.152 10,22.629 9.015,3.488 19.152,-0.988 22.636,-10.012"
         style="fill:#000000;fill-opacity:1;fill-rule:nonzero;stroke:none"
         id="path198" /><path
         d="m 224.551,707.191 c 3.484,-9.007 -0.996,-19.144 -10,-22.628 -9.024,-3.477 -19.153,1.003 -22.637,10.011 -3.496,9.02 0.996,19.156 10,22.633 9.016,3.484 19.149,-0.992 22.637,-10.016"
         style="fill:#000000;fill-opacity:1;fill-rule:nonzero;stroke:none"
         id="path200" /><g
         id="g202"
         transform="scale(10)"><text
           transform="matrix(1,0,0,-1,44.0738,74.8215)"
           style="font-style:italic;font-variant:normal;font-size:8px;font-family:'Times New Roman';-inkscape-font-specification:Times-Italic;writing-mode:lr-tb;fill:#231f20;fill-opacity:1;fill-rule:nonzero;stroke:none"
           id="text206"><tspan
             x="0"
             y="0"
             id="tspan204">z</tspan></text><text
           transform="matrix(1,0,0,-1,49.18591,74.8215)"
           style="font-variant:normal;font-weight:normal;font-size:8px;font-family:'Times New Roman';-inkscape-font-specification:Times-Roman;writing-mode:lr-tb;fill:#231f20;fill-opacity:1;fill-rule:nonzero;stroke:none"
           id="text210"><tspan
             x="0 4.5120001 6.5120001"
             y="0"
             id="tspan208">= (</tspan></text><text
           transform="matrix(1,0,0,-1,58.36211,74.8215)"
           style="font-style:italic;font-variant:normal;font-size:8px;font-family:'Times New Roman';-inkscape-font-specification:Times-Italic;writing-mode:lr-tb;fill:#231f20;fill-opacity:1;fill-rule:nonzero;stroke:none"
           id="text214"><tspan
             x="0"
             y="0"
             id="tspan212">x</tspan></text><text
           transform="matrix(1,0,0,-1,61.91406,74.8215)"
           style="font-variant:normal;font-weight:normal;font-size:8px;font-family:'Times New Roman';-inkscape-font-specification:Times-Roman;writing-mode:lr-tb;fill:#231f20;fill-opacity:1;fill-rule:nonzero;stroke:none"
           id="text218"><tspan
             x="0 2"
             y="0"
             id="tspan216">, </tspan></text><text
           transform="matrix(1,0,0,-1,65.91406,74.8215)"
           style="font-style:italic;font-variant:normal;font-size:8px;font-family:'Times New Roman';-inkscape-font-specification:Times-Italic;writing-mode:lr-tb;fill:#231f20;fill-opacity:1;fill-rule:nonzero;stroke:none"
           id="text222"><tspan
             x="0"
             y="0"
             id="tspan220">y</tspan></text><text
           transform="matrix(1,0,0,-1,69.46601,74.8215)"
           style="font-variant:normal;font-weight:normal;font-size:8px;font-family:'Times New Roman';-inkscape-font-specification:Times-Roman;writing-mode:lr-tb;fill:#231f20;fill-opacity:1;fill-rule:nonzero;stroke:none"
           id="text226"><tspan
             x="0 2.664 4.664 9.1759996"
             y="0"
             id="tspan224">) = </tspan></text><text
           transform="matrix(1,0,0,-1,80.64221,74.8215)"
           style="font-style:italic;font-variant:normal;font-size:8px;font-family:'Times New Roman';-inkscape-font-specification:Times-Italic;writing-mode:lr-tb;fill:#231f20;fill-opacity:1;fill-rule:nonzero;stroke:none"
           id="text230"><tspan
             x="0"
             y="0"
             id="tspan228">x</tspan></text><text
           transform="matrix(1,0,0,-1,86.19416,74.8215)"
           style="font-variant:normal;font-weight:normal;font-size:8px;font-family:'Times New Roman';-inkscape-font-specification:Times-Roman;writing-mode:lr-tb;fill:#231f20;fill-opacity:1;fill-rule:nonzero;stroke:none"
           id="text234"><tspan
             x="0 4.5120001"
             y="0"
             id="tspan232">+ </tspan></text><text
           transform="matrix(1,0,0,-1,92.70627,74.8215)"
           style="font-style:italic;font-variant:normal;font-size:8px;font-family:'Times New Roman';-inkscape-font-specification:Times-Italic;writing-mode:lr-tb;fill:#231f20;fill-opacity:1;fill-rule:nonzero;stroke:none"
           id="text238"><tspan
             x="0 2.224 5.776"
             y="0"
             id="tspan236">iy</tspan></text><text
           transform="matrix(1,0,0,-1,49.27387,65.3215)"
           style="font-variant:normal;font-weight:normal;font-size:8px;font-family:'Times New Roman';-inkscape-font-specification:Times-Roman;writing-mode:lr-tb;fill:#231f20;fill-opacity:1;fill-rule:nonzero;stroke:none"
           id="text242"><tspan
             x="0 5.3121119"
             y="0"
             id="tspan240">=(</tspan></text><text
           transform="matrix(1,0,0,-1,57.25007,65.3215)"
           style="font-style:italic;font-variant:normal;font-size:8px;font-family:'Times New Roman';-inkscape-font-specification:Times-Italic;writing-mode:lr-tb;fill:#231f20;fill-opacity:1;fill-rule:nonzero;stroke:none"
           id="text246"><tspan
             x="0 3.112"
             y="0"
             id="tspan244">r </tspan></text><text
           transform="matrix(1,0,0,-1,62.36218,65.3215)"
           style="font-variant:normal;font-weight:normal;font-size:8px;font-family:'Times New Roman';-inkscape-font-specification:Times-Roman;writing-mode:lr-tb;fill:#231f20;fill-opacity:1;fill-rule:nonzero;stroke:none"
           id="text250"><tspan
             x="0 3.552 7.552 10.664 16.664 18.664"
             y="0"
             id="tspan248">cos , </tspan></text><text
           transform="matrix(1,0,0,-1,83.02628,65.3215)"
           style="font-style:italic;font-variant:normal;font-size:8px;font-family:'Times New Roman';-inkscape-font-specification:Times-Italic;writing-mode:lr-tb;fill:#231f20;fill-opacity:1;fill-rule:nonzero;stroke:none"
           id="text254"><tspan
             x="0 3.112"
             y="0"
             id="tspan252">r </tspan></text><text
           transform="matrix(1,0,0,-1,88.13839,65.3215)"
           style="font-variant:normal;font-weight:normal;font-size:8px;font-family:'Times New Roman';-inkscape-font-specification:Times-Roman;writing-mode:lr-tb;fill:#231f20;fill-opacity:1;fill-rule:nonzero;stroke:none"
           id="text258"><tspan
             x="0 3.112 5.336 9.3360004 15.336 18 20 24.511999"
             y="0"
             id="tspan256">sin ) = </tspan></text><text
           transform="matrix(1,0,0,-1,114.65049,65.3215)"
           style="font-style:italic;font-variant:normal;font-size:8px;font-family:'Times New Roman';-inkscape-font-specification:Times-Italic;writing-mode:lr-tb;fill:#231f20;fill-opacity:1;fill-rule:nonzero;stroke:none"
           id="text262"><tspan
             x="0"
             y="0"
             id="tspan260">r</tspan></text><text
           transform="matrix(1,0,0,-1,118.1626,65.3215)"
           style="font-variant:normal;font-weight:normal;font-size:8px;font-family:'Times New Roman';-inkscape-font-specification:Times-Roman;writing-mode:lr-tb;fill:#231f20;fill-opacity:1;fill-rule:nonzero;stroke:none"
           id="text266"><tspan
             x="0 2.664 6.2160001 10.216 13.328"
             y="0"
             id="tspan264">(cos </tspan></text><text
           transform="matrix(1,0,0,-1,139.4907,65.3215)"
           style="font-variant:normal;font-weight:normal;font-size:8px;font-family:'Times New Roman';-inkscape-font-specification:Times-Roman;writing-mode:lr-tb;fill:#231f20;fill-opacity:1;fill-rule:nonzero;stroke:none"
           id="text270"><tspan
             x="0 4.5120001"
             y="0"
             id="tspan268">+ </tspan></text><text
           transform="matrix(1,0,0,-1,146.00281,65.3215)"
           style="font-style:italic;font-variant:normal;font-size:8px;font-family:'Times New Roman';-inkscape-font-specification:Times-Italic;writing-mode:lr-tb;fill:#231f20;fill-opacity:1;fill-rule:nonzero;stroke:none"
           id="text274"><tspan
             x="0 2.224"
             y="0"
             id="tspan272">i </tspan></text><text
           transform="matrix(1,0,0,-1,150.22664,65.3215)"
           style="font-variant:normal;font-weight:normal;font-size:8px;font-family:'Times New Roman';-inkscape-font-specification:Times-Roman;writing-mode:lr-tb;fill:#231f20;fill-opacity:1;fill-rule:nonzero;stroke:none"
           id="text278"><tspan
             x="0 3.112 5.336 9.3360004 15.336"
             y="0"
             id="tspan276">sin )</tspan></text><text
           transform="matrix(1,0,0,-1,0.47464,67.41798)"
           style="font-style:italic;font-variant:normal;font-size:8px;font-family:'Times New Roman';-inkscape-font-specification:Times-Italic;writing-mode:lr-tb;fill:#231f20;fill-opacity:1;fill-rule:nonzero;stroke:none"
           id="text282"><tspan
             x="0"
             y="0"
             id="tspan280">(</tspan></text><text
           transform="matrix(1,0,0,-1,3.1387,67.41798)"
           style="font-variant:normal;font-weight:normal;font-size:8px;font-family:'Times New Roman';-inkscape-font-specification:Times-Roman;writing-mode:lr-tb;fill:#231f20;fill-opacity:1;fill-rule:nonzero;stroke:none"
           id="text286"><tspan
             x="0 4 6"
             y="0"
             id="tspan284">0, </tspan></text><text
           transform="matrix(1,0,0,-1,11.1387,67.41798)"
           style="font-style:italic;font-variant:normal;font-size:8px;font-family:'Times New Roman';-inkscape-font-specification:Times-Italic;writing-mode:lr-tb;fill:#231f20;fill-opacity:1;fill-rule:nonzero;stroke:none"
           id="text292"><tspan
             x="0 3.552"
             y="0"
             id="tspan288">y)</tspan><tspan
             x="25.943399 28.607401 32.159401 34.159401"
             y="39.0746"
             id="tspan290">(x, </tspan></text><text
           transform="matrix(1,0,0,-1,47.2981,28.34338)"
           style="font-variant:normal;font-weight:normal;font-size:8px;font-family:'Times New Roman';-inkscape-font-specification:Times-Roman;writing-mode:lr-tb;fill:#231f20;fill-opacity:1;fill-rule:nonzero;stroke:none"
           id="text296"><tspan
             x="0"
             y="0"
             id="tspan294">0</tspan></text><text
           transform="matrix(1,0,0,-1,51.2981,28.34338)"
           style="font-style:italic;font-variant:normal;font-size:8px;font-family:'Times New Roman';-inkscape-font-specification:Times-Italic;writing-mode:lr-tb;fill:#231f20;fill-opacity:1;fill-rule:nonzero;stroke:none"
           id="text300"><tspan
             x="0"
             y="0"
             id="tspan298">)</tspan></text><text
           transform="matrix(0.9823434,0,-0.18708675,-0.98222741,33.9488,41.541)"
           style="font-variant:normal;font-weight:normal;font-size:7.99999px;font-family:Symbol;-inkscape-font-specification:Symbol;writing-mode:lr-tb;fill:#231f20;fill-opacity:1;fill-rule:nonzero;stroke:none"
           id="text304"><tspan
             x="0 4.167994"
             y="0"
             id="tspan302">θ </tspan></text><text
           transform="matrix(0.98234329,0,-0.1870873,-0.9822303,74.7258,65.0398)"
           style="font-variant:normal;font-weight:normal;font-size:7.99997px;font-family:Symbol;-inkscape-font-specification:Symbol;writing-mode:lr-tb;fill:#231f20;fill-opacity:1;fill-rule:nonzero;stroke:none"
           id="text308"><tspan
             x="0 4.1679821 24.489334 28.657316 87.557861 91.725838 59.27758 63.445564"
             y="0"
             id="tspan306">θ θ θ θ </tspan></text><text
           transform="matrix(1,0,0,-1,25.5313,49.8613)"
           style="font-style:italic;font-variant:normal;font-size:8px;font-family:'Times New Roman';-inkscape-font-specification:Times-Italic;writing-mode:lr-tb;fill:#231f20;fill-opacity:1;fill-rule:nonzero;stroke:none"
           id="text312"><tspan
             x="0"
             y="0"
             id="tspan310">r</tspan></text></g></g></g></svg>
