<?xml version="1.0" encoding="UTF-8" standalone="no"?>
<svg
   xmlns:dc="http://purl.org/dc/elements/1.1/"
   xmlns:cc="http://creativecommons.org/ns#"
   xmlns:rdf="http://www.w3.org/1999/02/22-rdf-syntax-ns#"
   xmlns:svg="http://www.w3.org/2000/svg"
   xmlns="http://www.w3.org/2000/svg"
   version="1.1"
   id="svg2"
   xml:space="preserve"
   width="176"
   height="160"
   viewBox="0 0 176 160"><metadata
     id="metadata8"><rdf:RDF><cc:Work
         rdf:about=""><dc:format>image/svg+xml</dc:format><dc:type
           rdf:resource="http://purl.org/dc/dcmitype/StillImage" /></cc:Work></rdf:RDF></metadata><defs
     id="defs6" /><g
     id="g10"
     transform="matrix(1.3333333,0,0,-1.3333333,0,160)"><g
       id="g12"
       transform="scale(0.1)"><g
         id="g14"
         transform="scale(10)"><text
           transform="matrix(1,0,0,-1,100.027,10.6703)"
           style="font-style:italic;font-variant:normal;font-size:8px;font-family:'Times New Roman';-inkscape-font-specification:Times-Italic;writing-mode:lr-tb;fill:#231f20;fill-opacity:1;fill-rule:nonzero;stroke:none"
           id="text18"><tspan
             x="0"
             y="0"
             id="tspan16">z</tspan></text><text
           transform="matrix(1,0,0,-1,103.53911,13.6703)"
           style="font-variant:normal;font-weight:normal;font-size:5px;font-family:'Times New Roman';-inkscape-font-specification:Times-Roman;writing-mode:lr-tb;fill:#231f20;fill-opacity:1;fill-rule:nonzero;stroke:none"
           id="text22"><tspan
             x="0"
             y="0"
             id="tspan20">–</tspan></text><text
           transform="matrix(1,0,0,-1,106.03911,13.6703)"
           style="font-variant:normal;font-weight:normal;font-size:6px;font-family:'Times New Roman';-inkscape-font-specification:Times-Roman;writing-mode:lr-tb;fill:#231f20;fill-opacity:1;fill-rule:nonzero;stroke:none"
           id="text26"><tspan
             x="0"
             y="0"
             id="tspan24">1</tspan></text><text
           transform="matrix(1,0,0,-1,72.44891,75.8359)"
           style="font-style:italic;font-variant:normal;font-size:8px;font-family:'Times New Roman';-inkscape-font-specification:Times-Italic;writing-mode:lr-tb;fill:#231f20;fill-opacity:1;fill-rule:nonzero;stroke:none"
           id="text32"><tspan
             x="0"
             y="0"
             id="tspan28">z</tspan><tspan
             x="-18.330099"
             y="-36.6422"
             id="tspan30">y</tspan></text></g><path
         d="M 561.676,547.93 737.188,705.746"
         style="fill:none;stroke:#80d6f7;stroke-width:7.5;stroke-linecap:butt;stroke-linejoin:miter;stroke-miterlimit:4;stroke-dasharray:none;stroke-opacity:1"
         id="path34" /><path
         d="m 767.676,735.285 c 0,0 -19.668,-20.301 -31.113,-48.664 -0.293,-0.797 -3.184,16.371 -3.184,16.371 0,0 -16.133,3.949 -15.996,3.988 29.336,9.368 50.293,28.305 50.293,28.305"
         style="fill:#80d6f7;fill-opacity:1;fill-rule:nonzero;stroke:none"
         id="path36" /><path
         d="m 864.531,213.863 c 0,0 19.258,20.7 30.098,49.293 0.293,0.801 3.535,-16.301 3.535,-16.301 0,0 16.211,-3.625 16.074,-3.664 -29.14,-9.964 -49.707,-29.328 -49.707,-29.328"
         style="fill:#a6e2f9;fill-opacity:1;fill-rule:nonzero;stroke:none"
         id="path38" /><path
         d="m 688.699,657.613 c 0,0 15.715,-23.508 41.035,-40.644 0.715,-0.469 -16.668,0.312 -16.668,0.312 0,0 -7.265,-14.933 -7.265,-14.785 -2.988,30.633 -17.102,55.117 -17.102,55.117"
         style="fill:#a6e2f9;fill-opacity:1;fill-rule:nonzero;stroke:none"
         id="path40" /><path
         d="m 558.801,1096.81 c 0,0 1.609,-35.29 17.637,-70 0.449,-0.97 -17.637,11.12 -17.637,11.12 0,0 -17.422,-11.3 -17.324,-11.12 16.597,34.71 17.324,70 17.324,70"
         style="fill:#231f20;fill-opacity:1;fill-rule:nonzero;stroke:none"
         id="path42" /><path
         d="m 798.828,747.949 c 0,-9.664 -7.844,-17.5 -17.5,-17.5 -9.668,0 -17.5,7.836 -17.5,17.5 0,9.664 7.832,17.5 17.5,17.5 9.656,0 17.5,-7.836 17.5,-17.5"
         style="fill:#80d6f7;fill-opacity:1;fill-rule:nonzero;stroke:none"
         id="path44" /><path
         d="M 557.008,545.723 714.824,370.207"
         style="fill:none;stroke:#80d6f7;stroke-width:7.5;stroke-linecap:butt;stroke-linejoin:miter;stroke-miterlimit:4;stroke-dasharray:none;stroke-opacity:1"
         id="path46" /><path
         d="m 744.355,339.727 c 0,0 -20.292,19.668 -48.652,31.105 -0.801,0.301 16.367,3.191 16.367,3.191 0,0 3.946,16.122 3.985,15.989 9.375,-29.328 28.3,-50.285 28.3,-50.285"
         style="fill:#80d6f7;fill-opacity:1;fill-rule:nonzero;stroke:none"
         id="path48" /><path
         d="m 757.031,308.57 c -9.668,0 -17.5,7.84 -17.5,17.5 0,9.668 7.832,17.5 17.5,17.5 9.657,0 17.5,-7.832 17.5,-17.5 0,-9.66 -7.843,-17.5 -17.5,-17.5"
         style="fill:#80d6f7;fill-opacity:1;fill-rule:nonzero;stroke:none"
         id="path50" /><path
         d="M 765.793,314.57 923.613,139.055"
         style="fill:none;stroke:#80d6f7;stroke-width:7.5;stroke-linecap:butt;stroke-linejoin:miter;stroke-miterlimit:4;stroke-dasharray:none;stroke-opacity:1"
         id="path52" /><path
         d="m 953.145,108.574 c 0,0 -20.293,19.668 -48.665,31.106 -0.789,0.3 16.379,3.191 16.379,3.191 0,0 3.946,16.125 3.985,15.984 9.367,-29.324 28.301,-50.281 28.301,-50.281"
         style="fill:#80d6f7;fill-opacity:1;fill-rule:nonzero;stroke:none"
         id="path54" /><path
         d="m 965.813,77.418 c -9.661,0 -17.5,7.8398 -17.5,17.5 0,9.668 7.839,17.5 17.5,17.5 9.656,0 17.5,-7.832 17.5,-17.5 0,-9.6602 -7.844,-17.5 -17.5,-17.5"
         style="fill:#80d6f7;fill-opacity:1;fill-rule:nonzero;stroke:none"
         id="path56" /><g
         id="g58"
         transform="scale(10)"><text
           transform="matrix(1,0,0,-1,128.119,52.5016)"
           style="font-style:italic;font-variant:normal;font-size:8px;font-family:'Times New Roman';-inkscape-font-specification:Times-Italic;writing-mode:lr-tb;fill:#231f20;fill-opacity:1;fill-rule:nonzero;stroke:none"
           id="text62"><tspan
             x="0"
             y="0"
             id="tspan60">x</tspan></text></g><path
         d="m 1255.39,548.191 c 0,0 -35.29,-1.609 -70,-17.632 -0.96,-0.454 11.13,17.64 11.13,17.64 0,0 -11.31,17.41 -11.13,17.324 34.71,-16.605 70,-17.332 70,-17.332"
         style="fill:#231f20;fill-opacity:1;fill-rule:nonzero;stroke:none"
         id="path64" /><g
         id="g66"
         transform="scale(10)"><text
           transform="matrix(1,0,0,-1,99.9758,33.7813)"
           style="font-variant:normal;font-weight:normal;font-size:8px;font-family:'Times New Roman';-inkscape-font-specification:Times-Roman;writing-mode:lr-tb;fill:#231f20;fill-opacity:1;fill-rule:nonzero;stroke:none"
           id="text70"><tspan
             x="0"
             y="0"
             id="tspan68">–</tspan></text><text
           transform="matrix(1,0,0,-1,103.9758,33.7813)"
           style="font-variant:normal;font-weight:normal;font-size:8px;font-family:Symbol;-inkscape-font-specification:Symbol;writing-mode:lr-tb;fill:#231f20;fill-opacity:1;fill-rule:nonzero;stroke:none"
           id="text74"><tspan
             x="0"
             y="0"
             id="tspan72"></tspan></text></g><path
         d="m 918.371,549.039 c 0,-198.824 -161.183,-360 -360,-360 -198.824,0 -360,161.176 -360,360 0,198.82 161.176,360 360,360 198.817,0 360,-161.18 360,-360 z"
         style="fill:none;stroke:#80d6f7;stroke-width:5;stroke-linecap:butt;stroke-linejoin:miter;stroke-miterlimit:4;stroke-dasharray:none;stroke-opacity:1"
         id="path76" /><path
         d="m 710.906,629.313 c 12.617,-23.961 19.758,-51.25 19.758,-80.211"
         style="fill:none;stroke:#a6e2f9;stroke-width:5;stroke-linecap:butt;stroke-linejoin:miter;stroke-miterlimit:4;stroke-dasharray:none;stroke-opacity:1"
         id="path78" /><path
         d="m 306.496,275.66 c 0,0 -15.711,-23.508 -41.035,-40.644 -0.715,-0.469 16.672,0.312 16.672,0.312 0,0 7.258,-14.933 7.262,-14.785 2.988,30.633 17.101,55.117 17.101,55.117"
         style="fill:#231f20;fill-opacity:1;fill-rule:nonzero;stroke:none"
         id="path80" /><path
         d="m 284.289,247.359 c -12.617,-23.961 -19.762,-51.25 -19.762,-80.211"
         style="fill:none;stroke:#231f20;stroke-width:5;stroke-linecap:butt;stroke-linejoin:miter;stroke-miterlimit:4;stroke-dasharray:none;stroke-opacity:1"
         id="path82" /><path
         d="m 878.418,226.516 c 84.18,82.031 136.932,196.14 138.532,322.582"
         style="fill:none;stroke:#a6e2f9;stroke-width:5;stroke-linecap:butt;stroke-linejoin:miter;stroke-miterlimit:4;stroke-dasharray:none;stroke-opacity:1"
         id="path84" /><g
         id="g86"
         transform="scale(10)"><text
           transform="matrix(1,0,0,-1,0.895313,9.14023)"
           style="font-variant:normal;font-weight:normal;font-size:8px;font-family:'Times New Roman';-inkscape-font-specification:Times-Roman;writing-mode:lr-tb;fill:#231f20;fill-opacity:1;fill-rule:nonzero;stroke:none"
           id="text90"><tspan
             x="0 4.888 8.8879995 12.44 14.44 18.440001 22.440001 24.664 26.888 28.888 32.439999 34.664001 37.327999 40.880001 43.104"
             y="0"
             id="tspan88">The unit circle</tspan></text><text
           transform="matrix(1,0,0,-1,78.919913,34.32223)"
           style="font-style:italic;font-variant:normal;font-size:8px;font-family:'Times New Roman';-inkscape-font-specification:Times-Italic;writing-mode:lr-tb;fill:#231f20;fill-opacity:1;fill-rule:nonzero;stroke:none"
           id="text94"><tspan
             x="0"
             y="0"
             id="tspan92">z</tspan></text><text
           transform="matrix(1,0,0,-1,79.337101,38.40387)"
           style="font-variant:normal;font-weight:normal;font-size:5px;font-family:'Times New Roman';-inkscape-font-specification:Times-Roman;writing-mode:lr-tb;fill:#231f20;fill-opacity:1;fill-rule:nonzero;stroke:none"
           id="text98"><tspan
             x="0 2.5"
             y="0"
             id="tspan96">–</tspan></text><text
           transform="matrix(1,0,0,-1,58.587101,94.15387)"
           style="font-style:italic;font-variant:normal;font-size:8px;font-family:'Times New Roman';-inkscape-font-specification:Times-Italic;writing-mode:lr-tb;fill:#231f20;fill-opacity:1;fill-rule:nonzero;stroke:none"
           id="text102"><tspan
             x="0"
             y="0"
             id="tspan100">i</tspan></text><text
           transform="matrix(1,0,0,-1,62.810931,94.15387)"
           style="font-variant:normal;font-weight:normal;font-size:8px;font-family:'Times New Roman';-inkscape-font-specification:Times-Roman;writing-mode:lr-tb;fill:#231f20;fill-opacity:1;fill-rule:nonzero;stroke:none"
           id="text108"><tspan
             x="0 4.5120001 6.5120001 9.1759996 13.176 15.176 17.176001 21.176001"
             y="0"
             id="tspan104">= (0, 1)</tspan><tspan
             x="29.776199 33.776199 35.776199 40.2882 42.2882 44.952202 48.952202 50.952202 52.952202 56.952202"
             y="35.25"
             id="tspan106">1 = (1, 0)</tspan></text></g><path
         d="M 53.3672,547.746 H 1208.37"
         style="fill:none;stroke:#231f20;stroke-width:7.5;stroke-linecap:butt;stroke-linejoin:miter;stroke-miterlimit:4;stroke-dasharray:none;stroke-opacity:1"
         id="path110" /><path
         d="m 59.1055,547.746 12.3203,-20.269 -0.6875,-0.461 -33.0469,13.129 c -11.5156,2.531 -23.0273,5.066 -34.54296,7.601 11.51566,2.531 23.02736,5.063 34.54296,7.602 l 33.0469,13.125 0.6875,-0.348 -12.3203,-20.379"
         style="fill:#231f20;fill-opacity:1;fill-rule:nonzero;stroke:none"
         id="path112" /><path
         d="M 558.957,1045.88 V 59.0391"
         style="fill:none;stroke:#231f20;stroke-width:7.5;stroke-linecap:butt;stroke-linejoin:miter;stroke-miterlimit:4;stroke-dasharray:none;stroke-opacity:1"
         id="path114" /><path
         d="m 558.957,64.7734 20.266,12.3204 0.461,-0.6875 -13.129,-33.0469 C 564.023,31.8477 561.488,20.332 558.957,8.81641 556.422,20.332 553.891,31.8477 551.355,43.3594 l -13.128,33.0469 0.347,0.6875 20.383,-12.3204"
         style="fill:#231f20;fill-opacity:1;fill-rule:nonzero;stroke:none"
         id="path116" /><g
         id="g118"
         transform="scale(10)"><text
           transform="matrix(0.9823434,0,-0.18708675,-0.98222741,104.528,32.3762)"
           style="font-variant:normal;font-weight:normal;font-size:7.99999px;font-family:Symbol;-inkscape-font-specification:Symbol;writing-mode:lr-tb;fill:#231f20;fill-opacity:1;fill-rule:nonzero;stroke:none"
           id="text124"><tspan
             x="0 4.167994"
             y="0"
             id="tspan120">θ </tspan><tspan
             x="-34.344303 -30.176308"
             y="-27.99758"
             id="tspan122">θ </tspan></text></g><path
         d="m 577.445,909.711 c 0,-9.66 -7.84,-17.5 -17.5,-17.5 -9.668,0 -17.5,7.84 -17.5,17.5 0,9.664 7.832,17.5 17.5,17.5 9.66,0 17.5,-7.836 17.5,-17.5"
         style="fill:#80d6f7;fill-opacity:1;fill-rule:nonzero;stroke:none"
         id="path126" /><path
         d="m 935.352,546.832 c 0,-9.664 -7.832,-17.5 -17.5,-17.5 -9.668,0 -17.5,7.836 -17.5,17.5 0,9.664 7.832,17.5 17.5,17.5 9.668,0 17.5,-7.836 17.5,-17.5"
         style="fill:#80d6f7;fill-opacity:1;fill-rule:nonzero;stroke:none"
         id="path128" /></g></g></svg>
