<?xml version="1.0" encoding="UTF-8" standalone="no"?>
<svg
   xmlns:dc="http://purl.org/dc/elements/1.1/"
   xmlns:cc="http://creativecommons.org/ns#"
   xmlns:rdf="http://www.w3.org/1999/02/22-rdf-syntax-ns#"
   xmlns:svg="http://www.w3.org/2000/svg"
   xmlns="http://www.w3.org/2000/svg"
   version="1.1"
   id="svg2"
   xml:space="preserve"
   width="292"
   height="134.66667"
   viewBox="0 0 292 134.66667"><metadata
     id="metadata8"><rdf:RDF><cc:Work
         rdf:about=""><dc:format>image/svg+xml</dc:format><dc:type
           rdf:resource="http://purl.org/dc/dcmitype/StillImage" /></cc:Work></rdf:RDF></metadata><defs
     id="defs6" /><g
     id="g10"
     transform="matrix(1.3333333,0,0,-1.3333333,0,134.66667)"><g
       id="g12"
       transform="scale(0.1)"><path
         d="M 212.152,452.219 C 373.98,175.027 670.813,4.60156 991.781,4.60156 1313.74,4.60156 1611.34,176.063 1772.8,454.621"
         style="fill:none;stroke:#4dc6f4;stroke-width:7.5;stroke-linecap:butt;stroke-linejoin:miter;stroke-miterlimit:4;stroke-dasharray:10, 10;stroke-dashoffset:0;stroke-opacity:1"
         id="path14" /><path
         d="m 254.184,184.031 c 0.011,0.688 0.015,1.391 0.015,2.074 0,35.836 -12.523,70.543 -35.41,98.125"
         style="fill:none;stroke:#000000;stroke-width:5;stroke-linecap:butt;stroke-linejoin:miter;stroke-miterlimit:10;stroke-dasharray:none;stroke-opacity:1"
         id="path16" /><path
         d="M 2104.23,183.996 H 1531 L 991,904 451,183.996 h 1080"
         style="fill:none;stroke:#000000;stroke-width:7.5;stroke-linecap:butt;stroke-linejoin:round;stroke-miterlimit:10;stroke-dasharray:none;stroke-opacity:1"
         id="path18" /><path
         d="M 451,183.996 H 91 L 991,904"
         style="fill:none;stroke:#000000;stroke-width:7.5;stroke-linecap:butt;stroke-linejoin:miter;stroke-miterlimit:10;stroke-dasharray:none;stroke-opacity:1"
         id="path20" /><path
         d="m 1548.5,183.984 c 0,-9.66 -7.84,-17.488 -17.5,-17.488 -9.67,0 -17.5,7.828 -17.5,17.488 0,9.661 7.83,17.5 17.5,17.5 9.66,0 17.5,-7.839 17.5,-17.5"
         style="fill:#4dc6f4;fill-opacity:1;fill-rule:nonzero;stroke:none"
         id="path22" /><path
         d="m 468.5,183.984 c 0,-9.66 -7.832,-17.488 -17.5,-17.488 -9.668,0 -17.5,7.828 -17.5,17.488 0,9.661 7.832,17.5 17.5,17.5 9.668,0 17.5,-7.839 17.5,-17.5"
         style="fill:#4dc6f4;fill-opacity:1;fill-rule:nonzero;stroke:none"
         id="path24" /><path
         d="m 313.676,259.211 -9.196,-25.344 c 0.641,-3.84 1.758,-6.074 3.278,-7.597 0.801,-0.723 2.883,-2.793 5.355,-0.325 1.684,1.684 1.766,4.243 1.922,5.285 h 1.442 l -0.164,-4.714 c -0.079,-1.528 -0.879,-4.641 -3.036,-6.399 -2.16,-1.758 -3.918,-1.121 -5.355,0.235 -1.922,1.836 -3.199,4.636 -5.117,9.836 -1.36,-2.317 -3.121,-7.833 -10.239,-10.161 -3.675,-1.187 -7.593,-2.066 -12.871,0.246 -2.957,1.36 -5.199,3.282 -6.797,5.997 -2.078,3.593 -3.679,8.957 -2.476,17.91 0.801,5.84 2.957,10 8.715,13.918 2.48,1.675 7.195,2.554 10.551,1.992 3.757,-0.637 6.796,-3.195 8.636,-6.235 1.52,-2.554 2.637,-5.757 3.039,-8.875 h 0.16 l 5.118,14.231 z m -14.391,-21.106 c -0.558,3.997 -1.437,10.235 -3.519,13.594 -1.278,2.078 -3.438,4.153 -5.754,4.871 -4.719,1.36 -6.16,0 -7.918,-2.234 -1.996,-2.559 -2.957,-5.996 -3.52,-10.234 -0.554,-4.395 -0.238,-8.875 0.563,-13.348 0.398,-2.324 1.199,-4.883 3.121,-6.797 1.758,-1.769 2.797,-2.246 4.953,-2.402 1.359,-0.078 3.199,0.633 4.957,2.156 1.602,1.355 3.762,5.273 4.719,7.832 l 2.398,6.562"
         style="fill:#231f20;fill-opacity:1;fill-rule:nonzero;stroke:none"
         id="path26" /><g
         id="g28"
         transform="scale(10)"><text
           transform="matrix(1,0,0,-1,0.48125,16.0715)"
           style="font-style:italic;font-variant:normal;font-size:8px;font-family:'Times New Roman';-inkscape-font-specification:Times-Italic;writing-mode:lr-tb;fill:#231f20;fill-opacity:1;fill-rule:nonzero;stroke:none"
           id="text40"><tspan
             x="0"
             y="0"
             id="tspan30">B</tspan><tspan
             x="42.066799 150.0188"
             y="8.7871103"
             id="tspan32">EF</tspan><tspan
             x="96.175003"
             y="-77.328491"
             id="tspan34">A</tspan><tspan
             x="40.642601 75.76252 132.1438"
             y="-33.499989"
             id="tspan36">abb</tspan><tspan
             x="212.6786"
             y="9.9999997e-06"
             id="tspan38">C</tspan></text></g></g></g></svg>
