<?xml version="1.0" encoding="UTF-8" standalone="no"?>
<svg
   xmlns:dc="http://purl.org/dc/elements/1.1/"
   xmlns:cc="http://creativecommons.org/ns#"
   xmlns:rdf="http://www.w3.org/1999/02/22-rdf-syntax-ns#"
   xmlns:svg="http://www.w3.org/2000/svg"
   xmlns="http://www.w3.org/2000/svg"
   version="1.1"
   id="svg2"
   xml:space="preserve"
   width="393.33334"
   height="126.66667"
   viewBox="0 0 393.33334 126.66667"><metadata
     id="metadata8"><rdf:RDF><cc:Work
         rdf:about=""><dc:format>image/svg+xml</dc:format><dc:type
           rdf:resource="http://purl.org/dc/dcmitype/StillImage" /></cc:Work></rdf:RDF></metadata><defs
     id="defs6" /><g
     id="g10"
     transform="matrix(1.3333333,0,0,-1.3333333,0,126.66667)"><g
       id="g12"
       transform="scale(0.1)"><path
         d="M 2283.68,124.063 H 1170.45"
         style="fill:none;stroke:#000000;stroke-width:7.5;stroke-linecap:butt;stroke-linejoin:miter;stroke-miterlimit:10;stroke-dasharray:none;stroke-opacity:1"
         id="path14" /><path
         d="m 2283.68,124.063 h 450"
         style="fill:none;stroke:#4dc6f4;stroke-width:7.5;stroke-linecap:butt;stroke-linejoin:miter;stroke-miterlimit:10;stroke-dasharray:9, 18;stroke-dashoffset:18;stroke-opacity:1"
         id="path16" /><path
         d="M 0.453125,124.063 H 270.453"
         style="fill:none;stroke:#4dc6f4;stroke-width:7.5;stroke-linecap:butt;stroke-linejoin:miter;stroke-miterlimit:10;stroke-dasharray:9, 18;stroke-dashoffset:18;stroke-opacity:1"
         id="path18" /><path
         d="m 2733.68,124.063 c 0,0 -35.29,-1.622 -70,-17.637 -0.97,-0.449 11.12,17.637 11.12,17.637 0,0 -11.29,17.421 -11.12,17.324 34.71,-16.602 70,-17.324 70,-17.324"
         style="fill:#4dc6f4;fill-opacity:1;fill-rule:nonzero;stroke:none"
         id="path20" /><path
         d="m 559.684,127.676 c 0.019,1.387 0.027,2.754 0.027,4.121 0,63.73 -22.539,125.391 -63.637,174.101"
         style="fill:none;stroke:#000000;stroke-width:5;stroke-linecap:butt;stroke-linejoin:miter;stroke-miterlimit:10;stroke-dasharray:none;stroke-opacity:1"
         id="path22" /><path
         d="m 620.867,664.055 c 77.821,-239.016 300.621,-400.793 551.983,-400.793 251.37,0 474.16,161.777 551.99,400.793"
         style="fill:none;stroke:#4dc6f4;stroke-width:7.5;stroke-linecap:butt;stroke-linejoin:miter;stroke-miterlimit:10;stroke-dasharray:9, 18;stroke-dashoffset:18;stroke-opacity:1"
         id="path24" /><path
         d="m 1530.64,485.891 c 0,-199.946 -161.26,-362.2 -359.98,-362.2 -198.726,0 -360.008,162.254 -360.008,362.2 0,199.949 161.282,362.207 360.008,362.207 198.72,0 359.98,-162.258 359.98,-362.207 z"
         style="fill:none;stroke:#000000;stroke-width:7.5;stroke-linecap:butt;stroke-linejoin:miter;stroke-miterlimit:10;stroke-dasharray:none;stroke-opacity:1"
         id="path26" /><path
         d="M 1170.45,844.07 824.254,382.07 270.453,124.063"
         style="fill:none;stroke:#000000;stroke-width:7.5;stroke-linecap:butt;stroke-linejoin:miter;stroke-miterlimit:10;stroke-dasharray:none;stroke-opacity:1"
         id="path28" /><path
         d="m 1170.45,844.07 345,-462 L 270.453,124.063"
         style="fill:none;stroke:#4dc6f4;stroke-width:7.5;stroke-linecap:butt;stroke-linejoin:miter;stroke-miterlimit:4;stroke-dasharray:45, 15;stroke-dashoffset:0;stroke-opacity:1"
         id="path30" /><path
         d="M 1170.45,844.07 V 124.063 H 270.453 L 1170.45,844.07 Z"
         style="fill:none;stroke:#000000;stroke-width:7.5;stroke-linecap:butt;stroke-linejoin:miter;stroke-miterlimit:10;stroke-dasharray:none;stroke-opacity:1"
         id="path32" /><g
         id="g34"
         transform="scale(10)"><text
           transform="matrix(1,0,0,-1,18.427,14.4063)"
           style="font-style:italic;font-variant:normal;font-size:8px;font-family:'Times New Roman';-inkscape-font-specification:Times-Italic;writing-mode:lr-tb;fill:#000000;fill-opacity:1;fill-rule:nonzero;stroke:none"
           id="text52"><tspan
             x="0"
             y="0"
             id="tspan36">B</tspan><tspan
             x="95.7621"
             y="12.4199"
             id="tspan38">D</tspan><tspan
             x="96.378899"
             y="-72.960197"
             id="tspan40">A</tspan><tspan
             x="59.409397"
             y="-12.6922"
             id="tspan42">E</tspan><tspan
             x="51.877365"
             y="-40.102699"
             id="tspan44">a</tspan><tspan
             x="82.371063 101.86603 122.35235"
             y="-41.092545"
             id="tspan46">bcb</tspan><tspan
             x="212.67807"
             y="5.6000001e-05"
             id="tspan48">C</tspan><tspan
             x="257.24136"
             y="3.734436"
             id="tspan50">x</tspan></text><text
           transform="matrix(1,0,0,-1,279.22032,10.671864)"
           style="font-variant:normal;font-weight:normal;font-size:8px;font-family:'Times New Roman';-inkscape-font-specification:Times-Roman;writing-mode:lr-tb;fill:#000000;fill-opacity:1;fill-rule:nonzero;stroke:none"
           id="text56"><tspan
             x="0 2.664 6.2160001 10.216 12.44"
             y="0"
             id="tspan54">-axis</tspan></text><text
           transform="matrix(1,0,0,-1,149.86832,27.098464)"
           style="font-style:italic;font-variant:normal;font-size:8px;font-family:'Times New Roman';-inkscape-font-specification:Times-Italic;writing-mode:lr-tb;fill:#000000;fill-opacity:1;fill-rule:nonzero;stroke:none"
           id="text60"><tspan
             x="0"
             y="0"
             id="tspan58">F</tspan></text></g><path
         d="m 1187.95,124.063 c 0,-9.661 -7.83,-17.493 -17.5,-17.493 -9.66,0 -17.5,7.832 -17.5,17.493 0,9.66 7.84,17.5 17.5,17.5 9.67,0 17.5,-7.84 17.5,-17.5"
         style="fill:#4dc6f4;fill-opacity:1;fill-rule:nonzero;stroke:none"
         id="path62" /><path
         d="m 1532.95,382.07 c 0,-9.656 -7.83,-17.488 -17.5,-17.488 -9.67,0 -17.5,7.832 -17.5,17.488 0,9.66 7.83,17.5 17.5,17.5 9.67,0 17.5,-7.84 17.5,-17.5"
         style="fill:#4dc6f4;fill-opacity:1;fill-rule:nonzero;stroke:none"
         id="path64" /><path
         d="m 841.754,382.07 c 0,-9.656 -7.832,-17.488 -17.5,-17.488 -9.668,0 -17.5,7.832 -17.5,17.488 0,9.66 7.832,17.5 17.5,17.5 9.668,0 17.5,-7.84 17.5,-17.5"
         style="fill:#4dc6f4;fill-opacity:1;fill-rule:nonzero;stroke:none"
         id="path66" /><g
         id="g68"
         transform="scale(10)"><text
           transform="matrix(1,0,0,-1,56.4941,21.577)"
           style="font-variant:normal;font-weight:normal;font-size:8px;font-family:WWDOC01;-inkscape-font-specification:WWDOC01;writing-mode:lr-tb;fill:#000000;fill-opacity:1;fill-rule:nonzero;stroke:none"
           id="text72"><tspan
             x="0"
             y="0"
             id="tspan70">a</tspan></text></g></g></g></svg>
