<?xml version="1.0" encoding="UTF-8" standalone="no"?>
<svg
   xmlns:dc="http://purl.org/dc/elements/1.1/"
   xmlns:cc="http://creativecommons.org/ns#"
   xmlns:rdf="http://www.w3.org/1999/02/22-rdf-syntax-ns#"
   xmlns:svg="http://www.w3.org/2000/svg"
   xmlns="http://www.w3.org/2000/svg"
   version="1.1"
   id="svg2"
   xml:space="preserve"
   width="244"
   height="148"
   viewBox="0 0 244 148"><metadata
     id="metadata8"><rdf:RDF><cc:Work
         rdf:about=""><dc:format>image/svg+xml</dc:format><dc:type
           rdf:resource="http://purl.org/dc/dcmitype/StillImage" /></cc:Work></rdf:RDF></metadata><defs
     id="defs6" /><g
     id="g10"
     transform="matrix(1.3333333,0,0,-1.3333333,0,148)"><g
       id="g12"
       transform="scale(0.1)"><path
         d="M 51.2734,41.5625 H 1716.27"
         style="fill:none;stroke:#231f20;stroke-width:7.5;stroke-linecap:butt;stroke-linejoin:miter;stroke-miterlimit:4;stroke-dasharray:none;stroke-opacity:1"
         id="path14" /><path
         d="M 57.0117,41.5625 69.332,21.2891 68.6445,20.8398 35.5977,33.9648 C 24.082,36.4961 12.5664,39.0234 1.05469,41.5625 12.5664,44.1016 24.082,46.6211 35.5977,49.1602 L 68.6445,62.2852 69.332,61.9414 57.0117,41.5625"
         style="fill:#231f20;fill-opacity:1;fill-rule:nonzero;stroke:none"
         id="path16" /><g
         id="g18"
         transform="scale(10)"><text
           transform="matrix(1,0,0,-1,3.37852,77.5039)"
           style="font-style:italic;font-variant:normal;font-size:8px;font-family:'Times New Roman';-inkscape-font-specification:Times-Italic;writing-mode:lr-tb;fill:#231f20;fill-opacity:1;fill-rule:nonzero;stroke:none"
           id="text22"><tspan
             x="0"
             y="0"
             id="tspan20">z</tspan></text><text
           transform="matrix(1,0,0,-1,6.49063,75.5039)"
           style="font-variant:normal;font-weight:normal;font-size:6px;font-family:'Times New Roman';-inkscape-font-specification:Times-Roman;writing-mode:lr-tb;fill:#231f20;fill-opacity:1;fill-rule:nonzero;stroke:none"
           id="text26"><tspan
             x="0"
             y="0"
             id="tspan24">3</tspan></text><text
           transform="matrix(1,0,0,-1,11.49063,77.5039)"
           style="font-variant:normal;font-weight:normal;font-size:8px;font-family:'Times New Roman';-inkscape-font-specification:Times-Roman;writing-mode:lr-tb;fill:#231f20;fill-opacity:1;fill-rule:nonzero;stroke:none"
           id="text30"><tspan
             x="0 4.5120001"
             y="0"
             id="tspan28">= </tspan></text><text
           transform="matrix(1,0,0,-1,19.25274,77.5039)"
           style="font-style:italic;font-variant:normal;font-size:8px;font-family:'Times New Roman';-inkscape-font-specification:Times-Italic;writing-mode:lr-tb;fill:#231f20;fill-opacity:1;fill-rule:nonzero;stroke:none"
           id="text34"><tspan
             x="0"
             y="0"
             id="tspan32">z</tspan></text><text
           transform="matrix(1,0,0,-1,22.36485,75.5039)"
           style="font-variant:normal;font-weight:normal;font-size:6px;font-family:'Times New Roman';-inkscape-font-specification:Times-Roman;writing-mode:lr-tb;fill:#231f20;fill-opacity:1;fill-rule:nonzero;stroke:none"
           id="text38"><tspan
             x="0"
             y="0"
             id="tspan36">1</tspan></text><text
           transform="matrix(1,0,0,-1,25.36485,77.5039)"
           style="font-style:italic;font-variant:normal;font-size:8px;font-family:'Times New Roman';-inkscape-font-specification:Times-Italic;writing-mode:lr-tb;fill:#231f20;fill-opacity:1;fill-rule:nonzero;stroke:none"
           id="text42"><tspan
             x="0"
             y="0"
             id="tspan40">z</tspan></text><text
           transform="matrix(1,0,0,-1,28.47696,75.5039)"
           style="font-variant:normal;font-weight:normal;font-size:6px;font-family:'Times New Roman';-inkscape-font-specification:Times-Roman;writing-mode:lr-tb;fill:#231f20;fill-opacity:1;fill-rule:nonzero;stroke:none"
           id="text46"><tspan
             x="0"
             y="0"
             id="tspan44">2</tspan></text><text
           transform="matrix(1,0,0,-1,124.71096,60.8375)"
           style="font-variant:normal;font-weight:normal;font-size:6px;font-family:'Times New Roman';-inkscape-font-specification:Times-Roman;writing-mode:lr-tb;fill:#231f20;fill-opacity:1;fill-rule:nonzero;stroke:none"
           id="text50"><tspan
             x="0"
             y="0"
             id="tspan48">3</tspan></text><text
           transform="matrix(1,0,0,-1,129.71096,62.8375)"
           style="font-variant:normal;font-weight:normal;font-size:8px;font-family:'Times New Roman';-inkscape-font-specification:Times-Roman;writing-mode:lr-tb;fill:#231f20;fill-opacity:1;fill-rule:nonzero;stroke:none"
           id="text54"><tspan
             x="0 4.5120001"
             y="0"
             id="tspan52">= </tspan></text><text
           transform="matrix(1,0,0,-1,140.22306,60.8375)"
           style="font-variant:normal;font-weight:normal;font-size:6px;font-family:'Times New Roman';-inkscape-font-specification:Times-Roman;writing-mode:lr-tb;fill:#231f20;fill-opacity:1;fill-rule:nonzero;stroke:none"
           id="text58"><tspan
             x="0"
             y="0"
             id="tspan56">1</tspan></text><text
           transform="matrix(1,0,0,-1,145.22306,62.8375)"
           style="font-variant:normal;font-weight:normal;font-size:8px;font-family:'Times New Roman';-inkscape-font-specification:Times-Roman;writing-mode:lr-tb;fill:#231f20;fill-opacity:1;fill-rule:nonzero;stroke:none"
           id="text62"><tspan
             x="0 4.5120001"
             y="0"
             id="tspan60">+ </tspan></text><text
           transform="matrix(1,0,0,-1,155.73516,60.8375)"
           style="font-variant:normal;font-weight:normal;font-size:6px;font-family:'Times New Roman';-inkscape-font-specification:Times-Roman;writing-mode:lr-tb;fill:#231f20;fill-opacity:1;fill-rule:nonzero;stroke:none"
           id="text66"><tspan
             x="0"
             y="0"
             id="tspan64">2</tspan></text><text
           transform="matrix(1,0,0,-1,31.71116,38.5039)"
           style="font-style:italic;font-variant:normal;font-size:8px;font-family:'Times New Roman';-inkscape-font-specification:Times-Italic;writing-mode:lr-tb;fill:#231f20;fill-opacity:1;fill-rule:nonzero;stroke:none"
           id="text70"><tspan
             x="0"
             y="0"
             id="tspan68">r</tspan></text><text
           transform="matrix(1,0,0,-1,34.82327,36.5039)"
           style="font-variant:normal;font-weight:normal;font-size:6px;font-family:'Times New Roman';-inkscape-font-specification:Times-Roman;writing-mode:lr-tb;fill:#231f20;fill-opacity:1;fill-rule:nonzero;stroke:none"
           id="text74"><tspan
             x="0"
             y="0"
             id="tspan72">3</tspan></text><text
           transform="matrix(1,0,0,-1,39.82327,38.5039)"
           style="font-variant:normal;font-weight:normal;font-size:8px;font-family:'Times New Roman';-inkscape-font-specification:Times-Roman;writing-mode:lr-tb;fill:#231f20;fill-opacity:1;fill-rule:nonzero;stroke:none"
           id="text78"><tspan
             x="0 4.5120001"
             y="0"
             id="tspan76">= </tspan></text><text
           transform="matrix(1,0,0,-1,46.33538,38.5039)"
           style="font-style:italic;font-variant:normal;font-size:8px;font-family:'Times New Roman';-inkscape-font-specification:Times-Italic;writing-mode:lr-tb;fill:#231f20;fill-opacity:1;fill-rule:nonzero;stroke:none"
           id="text82"><tspan
             x="0"
             y="0"
             id="tspan80">r</tspan></text><text
           transform="matrix(1,0,0,-1,49.44749,36.5039)"
           style="font-variant:normal;font-weight:normal;font-size:6px;font-family:'Times New Roman';-inkscape-font-specification:Times-Roman;writing-mode:lr-tb;fill:#231f20;fill-opacity:1;fill-rule:nonzero;stroke:none"
           id="text86"><tspan
             x="0"
             y="0"
             id="tspan84">1</tspan></text><text
           transform="matrix(1,0,0,-1,52.44749,38.5039)"
           style="font-style:italic;font-variant:normal;font-size:8px;font-family:'Times New Roman';-inkscape-font-specification:Times-Italic;writing-mode:lr-tb;fill:#231f20;fill-opacity:1;fill-rule:nonzero;stroke:none"
           id="text90"><tspan
             x="0"
             y="0"
             id="tspan88">r</tspan></text><text
           transform="matrix(1,0,0,-1,55.5596,36.5039)"
           style="font-variant:normal;font-weight:normal;font-size:6px;font-family:'Times New Roman';-inkscape-font-specification:Times-Roman;writing-mode:lr-tb;fill:#231f20;fill-opacity:1;fill-rule:nonzero;stroke:none"
           id="text94"><tspan
             x="0"
             y="0"
             id="tspan92">2</tspan></text><text
           transform="matrix(1,0,0,-1,107.2108,54.0039)"
           style="font-style:italic;font-variant:normal;font-size:8px;font-family:'Times New Roman';-inkscape-font-specification:Times-Italic;writing-mode:lr-tb;fill:#231f20;fill-opacity:1;fill-rule:nonzero;stroke:none"
           id="text98"><tspan
             x="0"
             y="0"
             id="tspan96">z</tspan></text><text
           transform="matrix(1,0,0,-1,110.32291,52.0039)"
           style="font-variant:normal;font-weight:normal;font-size:6px;font-family:'Times New Roman';-inkscape-font-specification:Times-Roman;writing-mode:lr-tb;fill:#231f20;fill-opacity:1;fill-rule:nonzero;stroke:none"
           id="text102"><tspan
             x="0"
             y="0"
             id="tspan100">2</tspan></text><text
           transform="matrix(1,0,0,-1,109.2108,19.0039)"
           style="font-style:italic;font-variant:normal;font-size:8px;font-family:'Times New Roman';-inkscape-font-specification:Times-Italic;writing-mode:lr-tb;fill:#231f20;fill-opacity:1;fill-rule:nonzero;stroke:none"
           id="text106"><tspan
             x="0"
             y="0"
             id="tspan104">z</tspan></text><text
           transform="matrix(1,0,0,-1,112.32291,17.0039)"
           style="font-variant:normal;font-weight:normal;font-size:6px;font-family:'Times New Roman';-inkscape-font-specification:Times-Roman;writing-mode:lr-tb;fill:#231f20;fill-opacity:1;fill-rule:nonzero;stroke:none"
           id="text110"><tspan
             x="0"
             y="0"
             id="tspan108">1</tspan></text><text
           transform="matrix(1,0,0,-1,90.71121,42.0039)"
           style="font-style:italic;font-variant:normal;font-size:8px;font-family:'Times New Roman';-inkscape-font-specification:Times-Italic;writing-mode:lr-tb;fill:#231f20;fill-opacity:1;fill-rule:nonzero;stroke:none"
           id="text114"><tspan
             x="0"
             y="0"
             id="tspan112">r</tspan></text><text
           transform="matrix(1,0,0,-1,93.82332,40.0039)"
           style="font-variant:normal;font-weight:normal;font-size:6px;font-family:'Times New Roman';-inkscape-font-specification:Times-Roman;writing-mode:lr-tb;fill:#231f20;fill-opacity:1;fill-rule:nonzero;stroke:none"
           id="text118"><tspan
             x="0"
             y="0"
             id="tspan116">2</tspan></text><text
           transform="matrix(1,0,0,-1,95.21121,18.5039)"
           style="font-style:italic;font-variant:normal;font-size:8px;font-family:'Times New Roman';-inkscape-font-specification:Times-Italic;writing-mode:lr-tb;fill:#231f20;fill-opacity:1;fill-rule:nonzero;stroke:none"
           id="text122"><tspan
             x="0"
             y="0"
             id="tspan120">r</tspan></text><text
           transform="matrix(1,0,0,-1,98.32332,16.5039)"
           style="font-variant:normal;font-weight:normal;font-size:6px;font-family:'Times New Roman';-inkscape-font-specification:Times-Roman;writing-mode:lr-tb;fill:#231f20;fill-opacity:1;fill-rule:nonzero;stroke:none"
           id="text126"><tspan
             x="0"
             y="0"
             id="tspan124">1</tspan></text><text
           transform="matrix(1,0,0,-1,85.90962,103.3598)"
           style="font-style:italic;font-variant:normal;font-size:8px;font-family:'Times New Roman';-inkscape-font-specification:Times-Italic;writing-mode:lr-tb;fill:#231f20;fill-opacity:1;fill-rule:nonzero;stroke:none"
           id="text130"><tspan
             x="0"
             y="0"
             id="tspan128">y</tspan></text></g><path
         d="M 876.859,954.703 V 0.839844"
         style="fill:none;stroke:#231f20;stroke-width:7.5;stroke-linecap:butt;stroke-linejoin:miter;stroke-miterlimit:4;stroke-dasharray:none;stroke-opacity:1"
         id="path132" /><path
         d="m 878.02,42.6758 129.57,90.2932"
         style="fill:none;stroke:#80d6f7;stroke-width:10;stroke-linecap:butt;stroke-linejoin:miter;stroke-miterlimit:4;stroke-dasharray:none;stroke-opacity:1"
         id="path134" /><path
         d="m 1041.22,156.426 c 0,0 -22.42,-17.207 -37.88,-43.606 -0.41,-0.73 -0.76,16.672 -0.76,16.672 0,0 -15.373,6.262 -15.236,6.278 30.386,4.984 53.876,20.656 53.876,20.656"
         style="fill:#80d6f7;fill-opacity:1;fill-rule:nonzero;stroke:none"
         id="path136" /><path
         d="M 878.5,44.6875 1010.37,492.605"
         style="fill:none;stroke:#80d6f7;stroke-width:10;stroke-linecap:butt;stroke-linejoin:miter;stroke-miterlimit:4;stroke-dasharray:none;stroke-opacity:1"
         id="path138" /><path
         d="m 1021.78,531.996 c 0,0 -6.62,-27.48 -2.01,-57.719 0.13,-0.839 -11.1,12.481 -11.1,12.481 0,0 -15.881,-4.805 -15.783,-4.707 20.473,22.984 28.893,49.945 28.893,49.945"
         style="fill:#80d6f7;fill-opacity:1;fill-rule:nonzero;stroke:none"
         id="path140" /><path
         d="m 992.652,121.133 c 0,0 5.727,-13.457 30.008,-32.0705 0.67,-0.5078 -14.75,1.8555 -14.75,1.8555 0,0 -6.99,-11.2969 -6.98,-11.1602 -1.168,30.7622 -8.278,41.3752 -8.278,41.3752"
         style="fill:#bfeafb;fill-opacity:1;fill-rule:nonzero;stroke:none"
         id="path142" /><path
         d="m 996.086,432.234 c 0,0 13.414,-5.816 43.824,-2.586 0.85,0.086 -11.96,-8.808 -11.96,-8.808 0,0 2.71,-13.008 2.62,-12.91 -22.02,21.504 -34.484,24.304 -34.484,24.304"
         style="fill:#bfeafb;fill-opacity:1;fill-rule:nonzero;stroke:none"
         id="path144" /><path
         d="m 498.695,584.906 c 0,0 12.539,7.516 27.629,34.114 0.418,0.746 0.196,-14.848 0.196,-14.848 0,0 12.156,-5.371 12.019,-5.387 -30.312,-5.387 -39.844,-13.879 -39.844,-13.879"
         style="fill:#bfeafb;fill-opacity:1;fill-rule:nonzero;stroke:none"
         id="path146" /><path
         d="M 878.281,44.2188 383.727,739.02"
         style="fill:none;stroke:#80d6f7;stroke-width:10;stroke-linecap:butt;stroke-linejoin:miter;stroke-miterlimit:4;stroke-dasharray:none;stroke-opacity:1"
         id="path148" /><path
         d="m 359.605,771.918 c 0,0 17.364,-22.324 43.856,-37.605 0.734,-0.411 -16.668,-0.86 -16.668,-0.86 0,0 -6.145,-15.426 -6.184,-15.277 -5.164,30.344 -21.004,53.742 -21.004,53.742"
         style="fill:#80d6f7;fill-opacity:1;fill-rule:nonzero;stroke:none"
         id="path150" /><path
         d="m 876.703,1005.63 c 0,0 1.613,-35.298 17.637,-70.005 0.449,-0.969 -17.637,11.125 -17.637,11.125 0,0 -17.422,-11.301 -17.324,-11.125 16.601,34.707 17.324,70.005 17.324,70.005"
         style="fill:#231f20;fill-opacity:1;fill-rule:nonzero;stroke:none"
         id="path152" /><path
         d="m 363.832,787.203 c 0,-9.664 -7.832,-17.5 -17.5,-17.5 -9.668,0 -17.5,7.836 -17.5,17.5 0,9.66 7.832,17.5 17.5,17.5 9.668,0 17.5,-7.84 17.5,-17.5"
         style="fill:#80d6f7;fill-opacity:1;fill-rule:nonzero;stroke:none"
         id="path154" /><path
         d="m 1044.47,550.172 c 0,-9.664 -7.83,-17.5 -17.5,-17.5 -9.67,0 -17.5,7.836 -17.5,17.5 0,9.664 7.83,17.5 17.5,17.5 9.67,0 17.5,-7.836 17.5,-17.5"
         style="fill:#80d6f7;fill-opacity:1;fill-rule:nonzero;stroke:none"
         id="path156" /><path
         d="m 1074.47,167.207 c 0,-9.668 -7.83,-17.5 -17.5,-17.5 -9.67,0 -17.5,7.832 -17.5,17.5 0,9.656 7.83,17.5 17.5,17.5 9.67,0 17.5,-7.844 17.5,-17.5"
         style="fill:#80d6f7;fill-opacity:1;fill-rule:nonzero;stroke:none"
         id="path158" /><path
         d="m 996.813,62.2852 v -40"
         style="fill:none;stroke:#231f20;stroke-width:5;stroke-linecap:butt;stroke-linejoin:miter;stroke-miterlimit:4;stroke-dasharray:none;stroke-opacity:1"
         id="path160" /><path
         d="m 1113.55,62.2852 v -40"
         style="fill:none;stroke:#231f20;stroke-width:5;stroke-linecap:butt;stroke-linejoin:miter;stroke-miterlimit:4;stroke-dasharray:none;stroke-opacity:1"
         id="path162" /><path
         d="m 1230.31,62.2852 v -40"
         style="fill:none;stroke:#231f20;stroke-width:5;stroke-linecap:butt;stroke-linejoin:miter;stroke-miterlimit:4;stroke-dasharray:none;stroke-opacity:1"
         id="path164" /><path
         d="m 1347.07,62.2852 v -40"
         style="fill:none;stroke:#231f20;stroke-width:5;stroke-linecap:butt;stroke-linejoin:miter;stroke-miterlimit:4;stroke-dasharray:none;stroke-opacity:1"
         id="path166" /><g
         id="g168"
         transform="scale(10)"><text
           transform="matrix(1,0,0,-1,178.91,1.88281)"
           style="font-style:italic;font-variant:normal;font-size:8px;font-family:'Times New Roman';-inkscape-font-specification:Times-Italic;writing-mode:lr-tb;fill:#231f20;fill-opacity:1;fill-rule:nonzero;stroke:none"
           id="text172"><tspan
             x="0"
             y="0"
             id="tspan170">x</tspan></text></g><path
         d="m 1763.3,42.0117 c 0,0 -35.29,-1.6133 -70,-17.6367 -0.98,-0.4492 11.11,17.6367 11.11,17.6367 0,0 -11.28,17.4219 -11.11,17.3242 34.71,-16.6015 70,-17.3242 70,-17.3242"
         style="fill:#231f20;fill-opacity:1;fill-rule:nonzero;stroke:none"
         id="path174" /><path
         d="m 1346.62,62.2852 v -40"
         style="fill:none;stroke:#231f20;stroke-width:5;stroke-linecap:butt;stroke-linejoin:miter;stroke-miterlimit:4;stroke-dasharray:none;stroke-opacity:1"
         id="path176" /><path
         d="m 1463.4,62.2852 v -40"
         style="fill:none;stroke:#231f20;stroke-width:5;stroke-linecap:butt;stroke-linejoin:miter;stroke-miterlimit:4;stroke-dasharray:none;stroke-opacity:1"
         id="path178" /><path
         d="m 1580.14,62.2852 v -40"
         style="fill:none;stroke:#231f20;stroke-width:5;stroke-linecap:butt;stroke-linejoin:miter;stroke-miterlimit:4;stroke-dasharray:none;stroke-opacity:1"
         id="path180" /><path
         d="m 856.852,163.398 h 40"
         style="fill:none;stroke:#231f20;stroke-width:5;stroke-linecap:butt;stroke-linejoin:miter;stroke-miterlimit:4;stroke-dasharray:none;stroke-opacity:1"
         id="path182" /><path
         d="m 856.852,280.137 h 40"
         style="fill:none;stroke:#231f20;stroke-width:5;stroke-linecap:butt;stroke-linejoin:miter;stroke-miterlimit:4;stroke-dasharray:none;stroke-opacity:1"
         id="path184" /><path
         d="m 856.852,396.895 h 40"
         style="fill:none;stroke:#231f20;stroke-width:5;stroke-linecap:butt;stroke-linejoin:miter;stroke-miterlimit:4;stroke-dasharray:none;stroke-opacity:1"
         id="path186" /><path
         d="m 856.852,513.648 h 40"
         style="fill:none;stroke:#231f20;stroke-width:5;stroke-linecap:butt;stroke-linejoin:miter;stroke-miterlimit:4;stroke-dasharray:none;stroke-opacity:1"
         id="path188" /><path
         d="m 856.852,513.207 h 40"
         style="fill:none;stroke:#231f20;stroke-width:5;stroke-linecap:butt;stroke-linejoin:miter;stroke-miterlimit:4;stroke-dasharray:none;stroke-opacity:1"
         id="path190" /><path
         d="m 856.852,629.977 h 40"
         style="fill:none;stroke:#231f20;stroke-width:5;stroke-linecap:butt;stroke-linejoin:miter;stroke-miterlimit:4;stroke-dasharray:none;stroke-opacity:1"
         id="path192" /><path
         d="m 856.852,746.723 h 40"
         style="fill:none;stroke:#231f20;stroke-width:5;stroke-linecap:butt;stroke-linejoin:miter;stroke-miterlimit:4;stroke-dasharray:none;stroke-opacity:1"
         id="path194" /><path
         d="m 856.852,861.723 h 40"
         style="fill:none;stroke:#231f20;stroke-width:5;stroke-linecap:butt;stroke-linejoin:miter;stroke-miterlimit:4;stroke-dasharray:none;stroke-opacity:1"
         id="path196" /><path
         d="m 176.813,62.2852 v -40"
         style="fill:none;stroke:#231f20;stroke-width:5;stroke-linecap:butt;stroke-linejoin:miter;stroke-miterlimit:4;stroke-dasharray:none;stroke-opacity:1"
         id="path198" /><path
         d="m 293.551,62.2852 v -40"
         style="fill:none;stroke:#231f20;stroke-width:5;stroke-linecap:butt;stroke-linejoin:miter;stroke-miterlimit:4;stroke-dasharray:none;stroke-opacity:1"
         id="path200" /><path
         d="m 410.316,62.2852 v -40"
         style="fill:none;stroke:#231f20;stroke-width:5;stroke-linecap:butt;stroke-linejoin:miter;stroke-miterlimit:4;stroke-dasharray:none;stroke-opacity:1"
         id="path202" /><path
         d="m 527.066,62.2852 v -40"
         style="fill:none;stroke:#231f20;stroke-width:5;stroke-linecap:butt;stroke-linejoin:miter;stroke-miterlimit:4;stroke-dasharray:none;stroke-opacity:1"
         id="path204" /><path
         d="m 526.625,62.2852 v -40"
         style="fill:none;stroke:#231f20;stroke-width:5;stroke-linecap:butt;stroke-linejoin:miter;stroke-miterlimit:4;stroke-dasharray:none;stroke-opacity:1"
         id="path206" /><path
         d="m 643.395,62.2852 v -40"
         style="fill:none;stroke:#231f20;stroke-width:5;stroke-linecap:butt;stroke-linejoin:miter;stroke-miterlimit:4;stroke-dasharray:none;stroke-opacity:1"
         id="path208" /><path
         d="m 760.141,62.2852 v -40"
         style="fill:none;stroke:#231f20;stroke-width:5;stroke-linecap:butt;stroke-linejoin:miter;stroke-miterlimit:4;stroke-dasharray:none;stroke-opacity:1"
         id="path210" /><path
         d="m 1016.27,41.8164 c 0,19.3555 -3.13,37.9688 -8.93,55.3711"
         style="fill:none;stroke:#bfeafb;stroke-width:5;stroke-linecap:butt;stroke-linejoin:miter;stroke-miterlimit:4;stroke-dasharray:none;stroke-opacity:1"
         id="path212" /><path
         d="m 1276.27,41.4844 c 0,167.7536 -101.99,318.0666 -247.34,379.5506"
         style="fill:none;stroke:#bfeafb;stroke-width:5;stroke-linecap:butt;stroke-linejoin:miter;stroke-miterlimit:4;stroke-dasharray:none;stroke-opacity:1"
         id="path214" /><path
         d="m 1526.27,47.8516 c 0,361.7574 -293.24,655.0034 -654.997,655.0034 -124.496,0 -247.562,-38.031 -346.664,-98.335"
         style="fill:none;stroke:#bfeafb;stroke-width:5;stroke-linecap:butt;stroke-linejoin:miter;stroke-miterlimit:4;stroke-dasharray:none;stroke-opacity:1"
         id="path216" /><g
         id="g218"
         transform="scale(10)"><text
           transform="matrix(0.9823434,0,-0.18708675,-0.98222741,103.402,7.50781)"
           style="font-variant:normal;font-weight:normal;font-size:7.99999px;font-family:Symbol;-inkscape-font-specification:Symbol;writing-mode:lr-tb;fill:#231f20;fill-opacity:1;fill-rule:nonzero;stroke:none"
           id="text222"><tspan
             x="0"
             y="0"
             id="tspan220">θ</tspan></text><text
           transform="matrix(0.982377,0,0,-1,108.128,5.61914)"
           style="font-variant:normal;font-weight:normal;font-size:6px;font-family:'Times New Roman';-inkscape-font-specification:Times-Roman;writing-mode:lr-tb;fill:#231f20;fill-opacity:1;fill-rule:nonzero;stroke:none"
           id="text226"><tspan
             x="0"
             y="0"
             id="tspan224">1</tspan></text><text
           transform="matrix(0.9823434,0,-0.18708675,-0.98222741,121.736,26.8418)"
           style="font-variant:normal;font-weight:normal;font-size:7.99999px;font-family:Symbol;-inkscape-font-specification:Symbol;writing-mode:lr-tb;fill:#231f20;fill-opacity:1;fill-rule:nonzero;stroke:none"
           id="text230"><tspan
             x="0 4.167994"
             y="0"
             id="tspan228">θ </tspan></text><text
           transform="matrix(1,0,0,-1,126.044,24.952)"
           style="font-variant:normal;font-weight:normal;font-size:6px;font-family:'Times New Roman';-inkscape-font-specification:Times-Roman;writing-mode:lr-tb;fill:#231f20;fill-opacity:1;fill-rule:nonzero;stroke:none"
           id="text234"><tspan
             x="0"
             y="0"
             id="tspan232">2</tspan></text><text
           transform="matrix(0.982412,0,-0.187108,-0.982339,120.402,62.5078)"
           style="font-variant:normal;font-weight:normal;font-size:7.99995px;font-family:Symbol;-inkscape-font-specification:Symbol;writing-mode:lr-tb;fill:#231f20;fill-opacity:1;fill-rule:nonzero;stroke:none"
           id="text238"><tspan
             x="0 4.1679745 15.269506 19.437481 30.878931 35.046906"
             y="0"
             id="tspan236">θ θ θ </tspan></text></g></g></g></svg>
