<?xml version="1.0" encoding="UTF-8" standalone="no"?>
<svg
   xmlns:dc="http://purl.org/dc/elements/1.1/"
   xmlns:cc="http://creativecommons.org/ns#"
   xmlns:rdf="http://www.w3.org/1999/02/22-rdf-syntax-ns#"
   xmlns:svg="http://www.w3.org/2000/svg"
   xmlns="http://www.w3.org/2000/svg"
   version="1.1"
   id="svg2"
   xml:space="preserve"
   width="356"
   height="164"
   viewBox="0 0 356 164"><metadata
     id="metadata8"><rdf:RDF><cc:Work
         rdf:about=""><dc:format>image/svg+xml</dc:format><dc:type
           rdf:resource="http://purl.org/dc/dcmitype/StillImage" /></cc:Work></rdf:RDF></metadata><defs
     id="defs6" /><g
     id="g10"
     transform="matrix(1.3333333,0,0,-1.3333333,0,164)"><g
       id="g12"
       transform="scale(0.1)"><path
         d="m 1460.84,110.16 h 1100.4"
         style="fill:none;stroke:#000000;stroke-width:7.5;stroke-linecap:round;stroke-linejoin:round;stroke-miterlimit:4;stroke-dasharray:none;stroke-opacity:1"
         id="path14" /><path
         d="M 1580.14,17.5 V 1073.49"
         style="fill:none;stroke:#000000;stroke-width:7.5;stroke-linecap:round;stroke-linejoin:round;stroke-miterlimit:4;stroke-dasharray:none;stroke-opacity:1"
         id="path16" /><path
         d="m 1203.33,526.664 h 201.04"
         style="fill:none;stroke:#000000;stroke-width:10;stroke-linecap:round;stroke-linejoin:round;stroke-miterlimit:4;stroke-dasharray:none;stroke-opacity:1"
         id="path18" /><g
         id="g20"
         transform="scale(10)"><text
           transform="matrix(1,0,0,-1,120.666,58.332)"
           style="font-style:italic;font-variant:normal;font-size:8px;font-family:'Times New Roman';-inkscape-font-specification:Times-Italic;writing-mode:lr-tb;fill:#000000;fill-opacity:1;fill-rule:nonzero;stroke:none"
           id="text24"><tspan
             x="0 5.336 7.336 12.736 14.736 16.959999"
             y="0"
             id="tspan22">w = f </tspan></text><text
           transform="matrix(1,0,0,-1,139.6262,58.332)"
           style="font-variant:normal;font-weight:normal;font-size:8px;font-family:'Times New Roman';-inkscape-font-specification:Times-Roman;writing-mode:lr-tb;fill:#000000;fill-opacity:1;fill-rule:nonzero;stroke:none"
           id="text28"><tspan
             x="0"
             y="0"
             id="tspan26">(</tspan></text><text
           transform="matrix(1,0,0,-1,142.29026,58.332)"
           style="font-style:italic;font-variant:normal;font-size:8px;font-family:'Times New Roman';-inkscape-font-specification:Times-Italic;writing-mode:lr-tb;fill:#000000;fill-opacity:1;fill-rule:nonzero;stroke:none"
           id="text32"><tspan
             x="0"
             y="0"
             id="tspan30">z</tspan></text><text
           transform="matrix(1,0,0,-1,145.40237,58.332)"
           style="font-variant:normal;font-weight:normal;font-size:8px;font-family:'Times New Roman';-inkscape-font-specification:Times-Roman;writing-mode:lr-tb;fill:#000000;fill-opacity:1;fill-rule:nonzero;stroke:none"
           id="text36"><tspan
             x="0"
             y="0"
             id="tspan34">)</tspan></text><text
           transform="matrix(1,0,0,-1,156.49807,115.2875)"
           style="font-style:italic;font-variant:normal;font-size:8px;font-family:'Times New Roman';-inkscape-font-specification:Times-Italic;writing-mode:lr-tb;fill:#000000;fill-opacity:1;fill-rule:nonzero;stroke:none"
           id="text42"><tspan
             x="0"
             y="0"
             id="tspan38">v</tspan><tspan
             x="105.669"
             y="106.454"
             id="tspan40">u</tspan></text></g><path
         d="M 7.5,110.16 H 1092.91"
         style="fill:none;stroke:#000000;stroke-width:7.5;stroke-linecap:round;stroke-linejoin:round;stroke-miterlimit:4;stroke-dasharray:none;stroke-opacity:1"
         id="path44" /><path
         d="M 126.813,17.5 V 1073.49"
         style="fill:none;stroke:#000000;stroke-width:7.5;stroke-linecap:round;stroke-linejoin:round;stroke-miterlimit:4;stroke-dasharray:none;stroke-opacity:1"
         id="path46" /><g
         id="g48"
         transform="scale(10)"><text
           transform="matrix(1,0,0,-1,11.1648,115.288)"
           style="font-style:italic;font-variant:normal;font-size:8px;font-family:'Times New Roman';-inkscape-font-specification:Times-Italic;writing-mode:lr-tb;fill:#000000;fill-opacity:1;fill-rule:nonzero;stroke:none"
           id="text54"><tspan
             x="0"
             y="0"
             id="tspan50">y</tspan><tspan
             x="104.669"
             y="106.454"
             id="tspan52">x</tspan></text></g><path
         d="M 1867.89,5.74219 C 2195,715 2320,790 2480,830"
         style="fill:none;stroke:#80d6f7;stroke-width:10;stroke-linecap:round;stroke-linejoin:round;stroke-miterlimit:4;stroke-dasharray:none;stroke-opacity:1"
         id="path56" /><path
         d="m 2352.85,782.25 22.67,-6.973 -0.2,-0.8 -33.42,-12.141 c -10.3,-5.754 -20.59,-11.496 -30.88,-17.258 6.93,9.543 13.86,19.082 20.78,28.613 l 15.98,31.778 0.74,0.191 4.33,-23.41"
         style="fill:#80d6f7;fill-opacity:1;fill-rule:nonzero;stroke:none"
         id="path58" /><path
         d="m 2308.23,480.473 -3.15,-23.504 -0.82,0.062 -17.47,30.973 c -7.37,9.215 -14.72,18.422 -22.1,27.625 10.54,-5.27 21.09,-10.527 31.64,-15.793 l 33.96,-10.539 0.32,-0.707 -22.38,-8.117"
         style="fill:#80d6f7;fill-opacity:1;fill-rule:nonzero;stroke:none"
         id="path60" /><path
         d="m 2525.36,358.262 3.96,-23.379 -0.8,-0.188 -25.88,24.399 c -9.77,6.609 -19.53,13.219 -29.3,19.824 11.64,-1.906 23.27,-3.801 34.9,-5.699 l 35.56,0.011 0.51,-0.585 -18.95,-14.383"
         style="fill:#80d6f7;fill-opacity:1;fill-rule:nonzero;stroke:none"
         id="path62" /><path
         d="m 1897.4,71.0938 23.55,2.9218 0.14,-0.8164 -25.5,-24.7695 c -7.04,-9.4609 -14.09,-18.9258 -21.11,-28.4024 2.41,11.5508 4.82,23.0938 7.23,34.625 l 1.56,35.5274 0.61,0.4961 13.52,-19.582"
         style="fill:#80d6f7;fill-opacity:1;fill-rule:nonzero;stroke:none"
         id="path64" /><path
         d="m 2011.11,303.633 23.62,2.219 0.13,-0.829 -26.25,-23.992 c -7.31,-9.242 -14.63,-18.496 -21.93,-27.75 2.75,11.465 5.5,22.93 8.26,34.395 l 2.62,35.465 0.62,0.468 12.93,-19.976"
         style="fill:#80d6f7;fill-opacity:1;fill-rule:nonzero;stroke:none"
         id="path66" /><path
         d="M 1775,1040 C 2250,460 2430,370 2595,345"
         style="fill:none;stroke:#80d6f7;stroke-width:10;stroke-linecap:round;stroke-linejoin:round;stroke-miterlimit:4;stroke-dasharray:none;stroke-opacity:1"
         id="path68" /><path
         d="m 1882.3,180.613 295.77,408.024"
         style="fill:none;stroke:#40c1f3;stroke-width:10;stroke-linecap:round;stroke-linejoin:round;stroke-miterlimit:4;stroke-dasharray:none;stroke-opacity:1"
         id="path70" /><path
         d="m 1892.51,191.406 23.53,-3.054 -0.06,-0.817 -30.91,-17.597 c -9.19,-7.403 -18.36,-14.805 -27.53,-22.219 5.22,10.582 10.44,21.148 15.66,31.711 l 10.41,34.011 0.7,0.325 8.2,-22.36"
         style="fill:#40c1f3;fill-opacity:1;fill-rule:nonzero;stroke:none"
         id="path72" /><path
         d="M 1740.61,917.707 2178.64,591.926"
         style="fill:none;stroke:#40c1f3;stroke-width:10;stroke-linecap:round;stroke-linejoin:round;stroke-miterlimit:4;stroke-dasharray:none;stroke-opacity:1"
         id="path74" /><path
         d="m 1751.41,907.492 -3.06,-23.527 -0.81,0.058 -17.6,30.911 c -7.4,9.183 -14.81,18.359 -22.22,27.527 10.58,-5.219 21.15,-10.441 31.71,-15.664 l 34.01,-10.402 0.33,-0.704 -22.36,-8.199"
         style="fill:#40c1f3;fill-opacity:1;fill-rule:nonzero;stroke:none"
         id="path76" /><path
         d="m 1897.86,891.848 -7.81,-22.407 -0.79,0.227 -10.9,33.863 c -5.36,10.504 -10.73,21 -16.11,31.489 9.29,-7.274 18.57,-14.551 27.83,-21.829 l 31.17,-17.144 0.17,-0.754 -23.56,-3.445"
         style="fill:#80d6f7;fill-opacity:1;fill-rule:nonzero;stroke:none"
         id="path78" /><path
         d="m 2196.9,587.676 c 0,-11.043 -8.95,-20 -20,-20 -11.04,0 -20,8.957 -20,20 0,11.047 8.96,20 20,20 11.05,0 20,-8.953 20,-20"
         style="fill:#80d6f7;fill-opacity:1;fill-rule:nonzero;stroke:none"
         id="path80" /><path
         d="m 1910.6,300.102 -0.08,15.816 0.54,0.02 14.39,-18.836 c 5.71,-5.403 11.42,-10.801 17.14,-16.204 -7.45,2.508 -14.9,5.008 -22.35,7.508 l -23.4,3.84 -0.28,0.442 14.04,7.414"
         style="fill:#000000;fill-opacity:1;fill-rule:nonzero;stroke:none"
         id="path82" /><path
         d="m 615.051,816.07 0.496,-15.812 -0.535,-0.028 -14.899,18.438 c -5.843,5.242 -11.715,10.488 -17.57,15.73 7.523,-2.304 15.023,-4.609 22.555,-6.906 l 23.488,-3.195 0.293,-0.442 -13.828,-7.785"
         style="fill:#000000;fill-opacity:1;fill-rule:nonzero;stroke:none"
         id="path84" /><g
         id="g86"
         transform="scale(10)"><text
           transform="matrix(1,0,0,-1,88.8336,69.3336)"
           style="font-style:italic;font-variant:normal;font-size:8px;font-family:'Times New Roman';-inkscape-font-specification:Times-Italic;writing-mode:lr-tb;fill:#000000;fill-opacity:1;fill-rule:nonzero;stroke:none"
           id="text90"><tspan
             x="0"
             y="0"
             id="tspan88">C</tspan></text><text
           transform="matrix(1,0,0,-1,94.16954,67.3336)"
           style="font-variant:normal;font-weight:normal;font-size:6px;font-family:'Times New Roman';-inkscape-font-specification:Times-Roman;writing-mode:lr-tb;fill:#000000;fill-opacity:1;fill-rule:nonzero;stroke:none"
           id="text94"><tspan
             x="0"
             y="0"
             id="tspan92">1</tspan></text><text
           transform="matrix(1,0,0,-1,39.16724,91.6672)"
           style="font-style:italic;font-variant:normal;font-size:8px;font-family:'Times New Roman';-inkscape-font-specification:Times-Italic;writing-mode:lr-tb;fill:#000000;fill-opacity:1;fill-rule:nonzero;stroke:none"
           id="text98"><tspan
             x="0"
             y="0"
             id="tspan96">C</tspan></text><text
           transform="matrix(1,0,0,-1,44.50318,89.6672)"
           style="font-variant:normal;font-weight:normal;font-size:6px;font-family:'Times New Roman';-inkscape-font-specification:Times-Roman;writing-mode:lr-tb;fill:#000000;fill-opacity:1;fill-rule:nonzero;stroke:none"
           id="text102"><tspan
             x="0"
             y="0"
             id="tspan100">2</tspan></text><text
           transform="matrix(1,0,0,-1,188.16718,97.16642)"
           style="font-style:italic;font-variant:normal;font-size:8px;font-family:'Times New Roman';-inkscape-font-specification:Times-Italic;writing-mode:lr-tb;fill:#000000;fill-opacity:1;fill-rule:nonzero;stroke:none"
           id="text106"><tspan
             x="0"
             y="0"
             id="tspan104">K</tspan></text><text
           transform="matrix(1,0,0,-1,193.50312,95.16642)"
           style="font-variant:normal;font-weight:normal;font-size:6px;font-family:'Times New Roman';-inkscape-font-specification:Times-Roman;writing-mode:lr-tb;fill:#000000;fill-opacity:1;fill-rule:nonzero;stroke:none"
           id="text110"><tspan
             x="0"
             y="0"
             id="tspan108">1</tspan></text><text
           transform="matrix(1,0,0,-1,198.50039,16.00002)"
           style="font-style:italic;font-variant:normal;font-size:8px;font-family:'Times New Roman';-inkscape-font-specification:Times-Italic;writing-mode:lr-tb;fill:#000000;fill-opacity:1;fill-rule:nonzero;stroke:none"
           id="text114"><tspan
             x="0"
             y="0"
             id="tspan112">K</tspan></text><text
           transform="matrix(1,0,0,-1,203.83633,14.00002)"
           style="font-variant:normal;font-weight:normal;font-size:6px;font-family:'Times New Roman';-inkscape-font-specification:Times-Roman;writing-mode:lr-tb;fill:#000000;fill-opacity:1;fill-rule:nonzero;stroke:none"
           id="text118"><tspan
             x="0"
             y="0"
             id="tspan116">2</tspan></text><text
           transform="matrix(1,0,0,-1,160.83363,94.83362)"
           style="font-variant:normal;font-weight:normal;font-size:8px;font-family:'Times New Roman';-inkscape-font-specification:Times-Roman;writing-mode:lr-tb;fill:#000000;fill-opacity:1;fill-rule:nonzero;stroke:none"
           id="text122"><tspan
             x="0"
             y="0"
             id="tspan120">T</tspan></text><text
           transform="matrix(1,0,0,-1,165.72152,92.83362)"
           style="font-variant:normal;font-weight:normal;font-size:6px;font-family:'Times New Roman';-inkscape-font-specification:Times-Roman;writing-mode:lr-tb;fill:#000000;fill-opacity:1;fill-rule:nonzero;stroke:none"
           id="text126"><tspan
             x="0"
             y="0"
             id="tspan124">1</tspan></text><text
           transform="matrix(1,0,0,-1,166.92152,96.83362)"
           style="font-variant:normal;font-weight:normal;font-size:8px;font-family:'Times New Roman';-inkscape-font-specification:Times-Roman;writing-mode:lr-tb;fill:#000000;fill-opacity:1;fill-rule:nonzero;stroke:none"
           id="text132"><tspan
             x="0"
             y="0"
             id="tspan128">*</tspan><tspan
             x="8.2456999"
             y="78"
             id="tspan130">T</tspan></text><text
           transform="matrix(1,0,0,-1,180.05511,16.83362)"
           style="font-variant:normal;font-weight:normal;font-size:6px;font-family:'Times New Roman';-inkscape-font-specification:Times-Roman;writing-mode:lr-tb;fill:#000000;fill-opacity:1;fill-rule:nonzero;stroke:none"
           id="text136"><tspan
             x="0"
             y="0"
             id="tspan134">2</tspan></text><text
           transform="matrix(1,0,0,-1,181.25511,20.83362)"
           style="font-variant:normal;font-weight:normal;font-size:8px;font-family:'Times New Roman';-inkscape-font-specification:Times-Roman;writing-mode:lr-tb;fill:#000000;fill-opacity:1;fill-rule:nonzero;stroke:none"
           id="text140"><tspan
             x="0"
             y="0"
             id="tspan138">*</tspan></text><text
           transform="matrix(1,0,0,-1,225.16721,58.33362)"
           style="font-style:italic;font-variant:normal;font-size:8px;font-family:'Times New Roman';-inkscape-font-specification:Times-Italic;writing-mode:lr-tb;fill:#000000;fill-opacity:1;fill-rule:nonzero;stroke:none"
           id="text144"><tspan
             x="0"
             y="0"
             id="tspan142">w</tspan></text><text
           transform="matrix(1,0,0,-1,230.50315,56.33362)"
           style="font-variant:normal;font-weight:normal;font-size:6px;font-family:'Times New Roman';-inkscape-font-specification:Times-Roman;writing-mode:lr-tb;fill:#000000;fill-opacity:1;fill-rule:nonzero;stroke:none"
           id="text148"><tspan
             x="0"
             y="0"
             id="tspan146">0</tspan></text><text
           transform="matrix(1,0,0,-1,235.50315,58.33362)"
           style="font-variant:normal;font-weight:normal;font-size:8px;font-family:'Times New Roman';-inkscape-font-specification:Times-Roman;writing-mode:lr-tb;fill:#000000;fill-opacity:1;fill-rule:nonzero;stroke:none"
           id="text152"><tspan
             x="0 4.5120001"
             y="0"
             id="tspan150">= </tspan></text><text
           transform="matrix(1,0,0,-1,242.01526,58.33362)"
           style="font-style:italic;font-variant:normal;font-size:8px;font-family:'Times New Roman';-inkscape-font-specification:Times-Italic;writing-mode:lr-tb;fill:#000000;fill-opacity:1;fill-rule:nonzero;stroke:none"
           id="text156"><tspan
             x="0 2.224"
             y="0"
             id="tspan154">f </tspan></text><text
           transform="matrix(1,0,0,-1,246.23909,58.33362)"
           style="font-variant:normal;font-weight:normal;font-size:8px;font-family:'Times New Roman';-inkscape-font-specification:Times-Roman;writing-mode:lr-tb;fill:#000000;fill-opacity:1;fill-rule:nonzero;stroke:none"
           id="text160"><tspan
             x="0"
             y="0"
             id="tspan158">(</tspan></text><text
           transform="matrix(1,0,0,-1,248.90315,58.33362)"
           style="font-style:italic;font-variant:normal;font-size:8px;font-family:'Times New Roman';-inkscape-font-specification:Times-Italic;writing-mode:lr-tb;fill:#000000;fill-opacity:1;fill-rule:nonzero;stroke:none"
           id="text164"><tspan
             x="0"
             y="0"
             id="tspan162">z</tspan></text><text
           transform="matrix(1,0,0,-1,252.01526,56.33362)"
           style="font-variant:normal;font-weight:normal;font-size:6px;font-family:'Times New Roman';-inkscape-font-specification:Times-Roman;writing-mode:lr-tb;fill:#000000;fill-opacity:1;fill-rule:nonzero;stroke:none"
           id="text168"><tspan
             x="0"
             y="0"
             id="tspan166">0</tspan></text><text
           transform="matrix(1,0,0,-1,255.01526,58.33362)"
           style="font-variant:normal;font-weight:normal;font-size:8px;font-family:'Times New Roman';-inkscape-font-specification:Times-Roman;writing-mode:lr-tb;fill:#000000;fill-opacity:1;fill-rule:nonzero;stroke:none"
           id="text172"><tspan
             x="0"
             y="0"
             id="tspan170">)</tspan></text><text
           transform="matrix(1,0,0,-1,85.28932,85.94652)"
           style="font-variant:normal;font-weight:normal;font-size:8px;font-family:'Times New Roman';-inkscape-font-specification:Times-Roman;writing-mode:lr-tb;fill:#000000;fill-opacity:1;fill-rule:nonzero;stroke:none"
           id="text176"><tspan
             x="0"
             y="0"
             id="tspan174">T</tspan></text><text
           transform="matrix(1,0,0,-1,90.17721,83.94652)"
           style="font-variant:normal;font-weight:normal;font-size:6px;font-family:'Times New Roman';-inkscape-font-specification:Times-Roman;writing-mode:lr-tb;fill:#000000;fill-opacity:1;fill-rule:nonzero;stroke:none"
           id="text180"><tspan
             x="0"
             y="0"
             id="tspan178">1</tspan></text><text
           transform="matrix(1,0,0,-1,65.95651,98.94652)"
           style="font-variant:normal;font-weight:normal;font-size:8px;font-family:'Times New Roman';-inkscape-font-specification:Times-Roman;writing-mode:lr-tb;fill:#000000;fill-opacity:1;fill-rule:nonzero;stroke:none"
           id="text184"><tspan
             x="0"
             y="0"
             id="tspan182">T</tspan></text><text
           transform="matrix(1,0,0,-1,70.8444,96.94652)"
           style="font-variant:normal;font-weight:normal;font-size:6px;font-family:'Times New Roman';-inkscape-font-specification:Times-Roman;writing-mode:lr-tb;fill:#000000;fill-opacity:1;fill-rule:nonzero;stroke:none"
           id="text188"><tspan
             x="0"
             y="0"
             id="tspan186">2</tspan></text></g><path
         d="m 900.906,792.746 -20.218,12.41 0.402,0.727 35.394,3.414 c 11.407,3 22.809,5.996 34.207,9.004 -9.086,-7.508 -18.171,-15.02 -27.257,-22.531 l -23.411,-26.766 -0.773,-0.008 1.656,23.75"
         style="fill:#80d6f7;fill-opacity:1;fill-rule:nonzero;stroke:none"
         id="path190" /><path
         d="m 697.848,676.68 -21.039,10.957 0.343,0.758 35.071,5.894 c 11.168,3.793 22.328,7.582 33.492,11.387 -8.535,-8.137 -17.078,-16.262 -25.613,-24.395 l -21.469,-28.343 -0.774,-0.067 -0.011,23.809"
         style="fill:#80d6f7;fill-opacity:1;fill-rule:nonzero;stroke:none"
         id="path192" /><path
         d="m 276.469,264.441 -23.531,-3.046 -0.141,0.816 25.391,24.894 c 6.988,9.5 13.98,18.993 20.957,28.504 -2.348,-11.55 -4.704,-23.105 -7.051,-34.656 l -1.391,-35.527 -0.598,-0.5 -13.636,19.515"
         style="fill:#80d6f7;fill-opacity:1;fill-rule:nonzero;stroke:none"
         id="path194" /><path
         d="m 365.902,328.801 -23.445,-3.606 -0.168,0.805 24.789,25.504 c 6.762,9.66 13.527,19.316 20.277,28.984 -2.074,-11.601 -4.152,-23.207 -6.222,-34.812 l -0.547,-35.555 -0.586,-0.508 -14.098,19.188"
         style="fill:#80d6f7;fill-opacity:1;fill-rule:nonzero;stroke:none"
         id="path196" /><path
         d="m 516.477,927.336 -22.059,-8.742 -0.336,0.742 18.477,30.391 c 4.433,10.929 8.867,21.847 13.293,32.785 0.57,-11.782 1.128,-23.551 1.703,-35.328 l 7.394,-34.782 -0.453,-0.625 -18.019,15.559"
         style="fill:#80d6f7;fill-opacity:1;fill-rule:nonzero;stroke:none"
         id="path198" /><path
         d="m 798.074,831.918 -22.937,6.07 0.172,0.813 32.914,13.449 c 10.07,6.152 20.129,12.305 30.175,18.469 -6.543,-9.809 -13.085,-19.614 -19.625,-29.418 l -14.71,-32.379 -0.743,-0.231 -5.246,23.227"
         style="fill:#40c1f3;fill-opacity:1;fill-rule:nonzero;stroke:none"
         id="path200" /><path
         d="M 240,35 C 200,385 569.988,628.523 993.324,840.191"
         style="fill:none;stroke:#80d6f7;stroke-width:10;stroke-linecap:round;stroke-linejoin:round;stroke-miterlimit:4;stroke-dasharray:none;stroke-opacity:1"
         id="path202" /><path
         d="M 293.918,225.234 C 448.258,398.867 485,715 535,1050"
         style="fill:none;stroke:#80d6f7;stroke-width:10;stroke-linecap:round;stroke-linejoin:round;stroke-miterlimit:4;stroke-dasharray:none;stroke-opacity:1"
         id="path204" /><path
         d="M 421.852,469.273 808.105,840.094"
         style="fill:#40c1f3;fill-opacity:1;fill-rule:nonzero;stroke:none"
         id="path206" /><path
         d="M 421.852,469.273 808.105,840.094"
         style="fill:none;stroke:#40c1f3;stroke-width:10;stroke-linecap:round;stroke-linejoin:round;stroke-miterlimit:4;stroke-dasharray:none;stroke-opacity:1"
         id="path208" /><path
         d="m 623.07,953.637 -23.441,-3.645 -0.172,0.809 24.754,25.531 c 6.75,9.676 13.492,19.348 20.227,29.028 -2.055,-11.61 -4.118,-23.219 -6.172,-34.821 l -0.485,-35.562 -0.586,-0.508 -14.125,19.168"
         style="fill:#40c1f3;fill-opacity:1;fill-rule:nonzero;stroke:none"
         id="path210" /><path
         d="M 421.852,467.512 628.98,965.152"
         style="fill:#40c1f3;fill-opacity:1;fill-rule:nonzero;stroke:none"
         id="path212" /><path
         d="M 421.852,467.512 628.98,965.152"
         style="fill:none;stroke:#40c1f3;stroke-width:10;stroke-linecap:round;stroke-linejoin:round;stroke-miterlimit:4;stroke-dasharray:none;stroke-opacity:1"
         id="path214" /><path
         d="m 442.594,468.027 c 0,-11.047 -8.957,-20 -20,-20 -11.047,0 -20,8.953 -20,20 0,11.047 8.953,20 20,20 11.043,0 20,-8.953 20,-20"
         style="fill:#80d6f7;fill-opacity:1;fill-rule:nonzero;stroke:none"
         id="path216" /><g
         id="g218"
         transform="scale(10)"><text
           transform="matrix(1,0,0,-1,45.6656,40.5188)"
           style="font-style:italic;font-variant:normal;font-size:8px;font-family:'Times New Roman';-inkscape-font-specification:Times-Italic;writing-mode:lr-tb;fill:#000000;fill-opacity:1;fill-rule:nonzero;stroke:none"
           id="text222"><tspan
             x="0"
             y="0"
             id="tspan220">z</tspan></text><text
           transform="matrix(1,0,0,-1,48.77771,38.5188)"
           style="font-variant:normal;font-weight:normal;font-size:6px;font-family:'Times New Roman';-inkscape-font-specification:Times-Roman;writing-mode:lr-tb;fill:#000000;fill-opacity:1;fill-rule:nonzero;stroke:none"
           id="text226"><tspan
             x="0"
             y="0"
             id="tspan224">0</tspan></text></g><path
         d="M 707.832,747.758 C 676.137,780.59 638.883,808.02 597.578,828.516"
         style="fill:none;stroke:#000000;stroke-width:5;stroke-linecap:butt;stroke-linejoin:miter;stroke-miterlimit:4;stroke-dasharray:none;stroke-opacity:1"
         id="path228" /><g
         id="g230"
         transform="scale(10)"><text
           transform="matrix(0.973935,0,-0.227211,-0.973846,69.1664,82.6664)"
           style="font-variant:normal;font-weight:normal;font-size:7.99992px;font-family:Symbol;-inkscape-font-specification:Symbol;writing-mode:lr-tb;fill:#000000;fill-opacity:1;fill-rule:nonzero;stroke:none"
           id="text234"><tspan
             x="0"
             y="0"
             id="tspan232">β</tspan></text><text
           transform="matrix(0.973889,0,0,-1,64,82.7273)"
           style="font-variant:normal;font-weight:normal;font-size:7.9996px;font-family:Symbol;-inkscape-font-specification:Symbol;writing-mode:lr-tb;fill:#000000;fill-opacity:1;fill-rule:nonzero;stroke:none"
           id="text238"><tspan
             x="0"
             y="0"
             id="tspan236">∆</tspan></text></g><path
         d="m 1807.14,460.145 c 21.95,-62.18 59.22,-117.133 107.27,-160.317"
         style="fill:none;stroke:#000000;stroke-width:5;stroke-linecap:butt;stroke-linejoin:miter;stroke-miterlimit:4;stroke-dasharray:none;stroke-opacity:1"
         id="path240" /><path
         d="M 1860.66,820.902 C 1813.1,756.262 1785,676.41 1785,590 c 0,-3.34 0.04,-6.668 0.12,-9.988"
         style="fill:none;stroke:#000000;stroke-width:5;stroke-linecap:butt;stroke-linejoin:miter;stroke-miterlimit:4;stroke-dasharray:none;stroke-opacity:1"
         id="path242" /><g
         id="g244"
         transform="scale(10)"><text
           transform="matrix(0.973889,0,-0.227211,-0.973846,167.809,51.1051)"
           style="font-variant:normal;font-weight:normal;font-size:7.99997px;font-family:Symbol;-inkscape-font-specification:Symbol;writing-mode:lr-tb;fill:#000000;fill-opacity:1;fill-rule:nonzero;stroke:none"
           id="text248"><tspan
             x="0"
             y="0"
             id="tspan246">γ</tspan></text><text
           transform="matrix(1,0,0,-1,174.666,50.8332)"
           style="font-variant:normal;font-weight:normal;font-size:8px;font-family:'Times New Roman';-inkscape-font-specification:Times-Roman;writing-mode:lr-tb;fill:#000000;fill-opacity:1;fill-rule:nonzero;stroke:none"
           id="text252"><tspan
             x="0 4.5120001"
             y="0"
             id="tspan250">= </tspan></text><text
           transform="matrix(1,0,0,-1,181.17811,50.8332)"
           style="font-style:italic;font-variant:normal;font-size:8px;font-family:'Times New Roman';-inkscape-font-specification:Times-Italic;writing-mode:lr-tb;fill:#000000;fill-opacity:1;fill-rule:nonzero;stroke:none"
           id="text256"><tspan
             x="0"
             y="0"
             id="tspan254">k</tspan></text><text
           transform="matrix(0.973889,0,0,-1,185.98,50.8332)"
           style="font-variant:normal;font-weight:normal;font-size:7.9996px;font-family:Symbol;-inkscape-font-specification:Symbol;writing-mode:lr-tb;fill:#000000;fill-opacity:1;fill-rule:nonzero;stroke:none"
           id="text260"><tspan
             x="0"
             y="0"
             id="tspan258">∆</tspan></text><text
           transform="matrix(0.973889,0,-0.227211,-0.973846,167.809,50.7633)"
           style="font-variant:normal;font-weight:normal;font-size:7.99997px;font-family:Symbol;-inkscape-font-specification:Symbol;writing-mode:lr-tb;fill:#000000;fill-opacity:1;fill-rule:nonzero;stroke:none"
           id="text264"><tspan
             x="0"
             y="0"
             id="tspan262">γ</tspan></text><text
           transform="matrix(0.973889,0,0,-1,162.834,50.6563)"
           style="font-variant:normal;font-weight:normal;font-size:7.9996px;font-family:Symbol;-inkscape-font-specification:Symbol;writing-mode:lr-tb;fill:#000000;fill-opacity:1;fill-rule:nonzero;stroke:none"
           id="text268"><tspan
             x="0"
             y="0"
             id="tspan266">∆</tspan></text><text
           transform="matrix(0.9724848,0,-0.23296633,-0.99851384,191.666,50.6563)"
           style="font-variant:normal;font-weight:normal;font-size:8.01119px;font-family:Symbol;-inkscape-font-specification:Symbol;writing-mode:lr-tb;fill:#000000;fill-opacity:1;fill-rule:nonzero;stroke:none"
           id="text272"><tspan
             x="0"
             y="0"
             id="tspan270">β</tspan></text></g><path
         d="m 1392.84,528.961 -12.33,20.269 0.69,0.458 33.04,-13.125 c 11.53,-2.536 23.03,-5.067 34.55,-7.602 -11.52,-2.531 -23.02,-5.066 -34.55,-7.598 l -33.04,-13.125 -0.69,0.348 12.33,20.375"
         style="fill:#000000;fill-opacity:1;fill-rule:nonzero;stroke:none"
         id="path274" /><path
         d="m 1083.32,110.422 -12.32,20.266 0.68,0.46 33.05,-13.125 c 11.52,-2.535 23.02,-5.07 34.55,-7.601 -11.53,-2.531 -23.03,-5.067 -34.55,-7.602 l -33.05,-13.1247 -0.68,0.3477 12.32,20.379"
         style="fill:#000000;fill-opacity:1;fill-rule:nonzero;stroke:none"
         id="path276" /><path
         d="m 124.137,1057.66 -20.27,-12.33 -0.461,0.69 13.125,33.04 c 2.535,11.53 5.071,23.03 7.606,34.55 2.527,-11.52 5.062,-23.02 7.597,-34.55 l 13.125,-33.04 -0.347,-0.69 -20.375,12.33"
         style="fill:#000000;fill-opacity:1;fill-rule:nonzero;stroke:none"
         id="path278" /><path
         d="m 2542.94,110.422 -12.33,20.266 0.69,0.46 33.05,-13.125 c 11.52,-2.535 23.03,-5.07 34.54,-7.601 -11.51,-2.531 -23.02,-5.067 -34.54,-7.602 l -33.05,-13.1247 -0.69,0.3477 12.33,20.379"
         style="fill:#000000;fill-opacity:1;fill-rule:nonzero;stroke:none"
         id="path280" /><path
         d="m 1583.75,1057.66 -20.27,-12.33 -0.45,0.69 13.12,33.04 c 2.54,11.53 5.07,23.03 7.6,34.55 2.54,-11.52 5.07,-23.02 7.6,-34.55 l 13.13,-33.04 -0.35,-0.69 -20.38,12.33"
         style="fill:#000000;fill-opacity:1;fill-rule:nonzero;stroke:none"
         id="path282" /></g></g></svg>
