<?xml version="1.0" encoding="UTF-8" standalone="no"?>
<svg
   xmlns:dc="http://purl.org/dc/elements/1.1/"
   xmlns:cc="http://creativecommons.org/ns#"
   xmlns:rdf="http://www.w3.org/1999/02/22-rdf-syntax-ns#"
   xmlns:svg="http://www.w3.org/2000/svg"
   xmlns="http://www.w3.org/2000/svg"
   version="1.1"
   id="svg2"
   xml:space="preserve"
   width="393.33334"
   height="357.33334"
   viewBox="0 0 393.33334 357.33334"><metadata
     id="metadata8"><rdf:RDF><cc:Work
         rdf:about=""><dc:format>image/svg+xml</dc:format><dc:type
           rdf:resource="http://purl.org/dc/dcmitype/StillImage" /></cc:Work></rdf:RDF></metadata><defs
     id="defs6" /><g
     id="g10"
     transform="matrix(1.3333333,0,0,-1.3333333,0,357.33333)"><g
       id="g12"
       transform="scale(0.1)"><path
         d="m 1753.33,687.504 v 508.336 h -600 V 987.418 C 1317.47,985.621 1450,852.066 1450,687.5"
         style="fill:#66cef5;fill-opacity:1;fill-rule:nonzero;stroke:none"
         id="path14" /><path
         d="M 1450,682.5 C 1450,517.934 1317.47,384.379 1153.33,382.582 V 110.836 h 600 v 571.668"
         style="fill:#99def9;fill-opacity:1;fill-rule:nonzero;stroke:none"
         id="path16" /><path
         d="m 1452.5,685 c 0,-165.684 -134.32,-300 -300,-300 v 297.5"
         style="fill:#cceffc;fill-opacity:1;fill-rule:nonzero;stroke:none"
         id="path18" /><path
         d="m 2217.27,1497.7 c -220.92,0 -400,179.09 -400,400 h 400.19"
         style="fill:#99def9;fill-opacity:1;fill-rule:nonzero;stroke:none"
         id="path20" /><path
         d="m 2617.27,1897.7 c 0,220.91 -179.09,400 -400,400 V 1900"
         style="fill:#ffffff;fill-opacity:1;fill-rule:nonzero;stroke:none"
         id="path22" /><path
         d="m 1817.7,1898.53 c 0,220.91 179.09,400 400,400 v -400.19"
         style="fill:#cceffc;fill-opacity:1;fill-rule:nonzero;stroke:none"
         id="path24" /><path
         d="m 2217.7,1493.53 c 220.92,0 400,179.09 400,400 H 2220"
         style="fill:#66cef5;fill-opacity:1;fill-rule:nonzero;stroke:none"
         id="path26" /><path
         d="m 2220.34,1496.16 c -220.91,0 -400,179.09 -400,400"
         style="fill:none;stroke:#231f20;stroke-width:10;stroke-linecap:butt;stroke-linejoin:miter;stroke-miterlimit:4;stroke-dasharray:none;stroke-opacity:1"
         id="path28" /><path
         d="m 2620.34,1897.7 c 0,220.92 -179.09,400 -400,400"
         style="fill:none;stroke:#231f20;stroke-width:10;stroke-linecap:butt;stroke-linejoin:miter;stroke-miterlimit:4;stroke-dasharray:20, 30;stroke-dashoffset:0;stroke-opacity:1"
         id="path30" /><path
         d="m 1817.7,1893.54 c 0,220.91 179.09,399.99 400,399.99"
         style="fill:none;stroke:#231f20;stroke-width:10;stroke-linecap:butt;stroke-linejoin:miter;stroke-miterlimit:4;stroke-dasharray:none;stroke-opacity:1"
         id="path32" /><path
         d="m 2217.7,1493.54 c 220.92,0 400,179.08 400,400"
         style="fill:none;stroke:#231f20;stroke-width:10;stroke-linecap:butt;stroke-linejoin:miter;stroke-miterlimit:4;stroke-dasharray:20, 30;stroke-dashoffset:0;stroke-opacity:1"
         id="path34" /><path
         d="M 673.328,1893.34 H 366.664 v 540 h 306.664 v -540"
         style="fill:#cceffc;fill-opacity:1;fill-rule:nonzero;stroke:none"
         id="path36" /><path
         d="M 979.996,1893.34 H 673.328 v 540 h 306.668 v -540"
         style="fill:#ffffff;fill-opacity:1;fill-rule:nonzero;stroke:none"
         id="path38" /><path
         d="M 673.328,1360 H 366.664 v 540 h 306.664 v -540"
         style="fill:#99def9;fill-opacity:1;fill-rule:nonzero;stroke:none"
         id="path40" /><path
         d="M 979.996,1360 H 673.328 v 540 h 306.668 v -540"
         style="fill:#66cef5;fill-opacity:1;fill-rule:nonzero;stroke:none"
         id="path42" /><path
         d="m 1329.21,2157.32 h 201.04"
         style="fill:none;stroke:#000000;stroke-width:7.5;stroke-linecap:round;stroke-linejoin:round;stroke-miterlimit:4;stroke-dasharray:none;stroke-opacity:1"
         id="path44" /><g
         id="g46"
         transform="scale(10)"><text
           transform="matrix(1,0,0,-1,132.787,224.032)"
           style="font-style:italic;font-variant:normal;font-size:8px;font-family:'Times New Roman';-inkscape-font-specification:Times-Italic;writing-mode:lr-tb;fill:#000000;fill-opacity:1;fill-rule:nonzero;stroke:none"
           id="text50"><tspan
             x="0 5.336 7.336"
             y="0"
             id="tspan48">w =</tspan></text><text
           transform="matrix(1,0,0,-1,147.5229,224.032)"
           style="font-variant:normal;font-weight:normal;font-size:8px;font-family:'Times New Roman';-inkscape-font-specification:Times-Roman;writing-mode:lr-tb;fill:#000000;fill-opacity:1;fill-rule:nonzero;stroke:none"
           id="text54"><tspan
             x="0 2.224 5.776 9.776"
             y="0"
             id="tspan52">tan </tspan></text><text
           transform="matrix(1,0,0,-1,159.2991,224.032)"
           style="font-style:italic;font-variant:normal;font-size:8px;font-family:'Times New Roman';-inkscape-font-specification:Times-Italic;writing-mode:lr-tb;fill:#000000;fill-opacity:1;fill-rule:nonzero;stroke:none"
           id="text60"><tspan
             x="0 3.112"
             y="0"
             id="tspan56">z </tspan><tspan
             x="48.321899 53.657902 55.657902 61.057899"
             y="137.52299"
             id="tspan58">w = </tspan></text><text
           transform="matrix(1,0,0,-1,220.4257,91.12306)"
           style="font-variant:normal;font-weight:normal;font-size:8px;font-family:Symbol;-inkscape-font-specification:Symbol;writing-mode:lr-tb;fill:#000000;fill-opacity:1;fill-rule:nonzero;stroke:none"
           id="text64"><tspan
             x="0"
             y="0"
             id="tspan62">−</tspan></text><text
           transform="matrix(1,0,0,-1,224.81789,91.12306)"
           style="font-style:italic;font-variant:normal;font-size:8px;font-family:'Times New Roman';-inkscape-font-specification:Times-Italic;writing-mode:lr-tb;fill:#000000;fill-opacity:1;fill-rule:nonzero;stroke:none"
           id="text68"><tspan
             x="0"
             y="0"
             id="tspan66">i</tspan></text><text
           transform="matrix(1,0,0,-1,228.04172,91.12306)"
           style="font-style:italic;font-variant:normal;font-size:8px;font-family:'Times New Roman';-inkscape-font-specification:Times-Italic;writing-mode:lr-tb;fill:#000000;fill-opacity:1;fill-rule:nonzero;stroke:none"
           id="text72"><tspan
             x="0"
             y="0"
             id="tspan70">Z</tspan></text><text
           transform="matrix(1,0,0,-1,234.48977,91.12306)"
           style="font-variant:normal;font-weight:normal;font-size:8px;font-family:'Times New Roman';-inkscape-font-specification:Times-Roman;writing-mode:lr-tb;fill:#000000;fill-opacity:1;fill-rule:nonzero;stroke:none"
           id="text76"><tspan
             x="0 4.5120001"
             y="0"
             id="tspan74">+ </tspan></text><text
           transform="matrix(1,0,0,-1,241.00188,91.12306)"
           style="font-style:italic;font-variant:normal;font-size:8px;font-family:'Times New Roman';-inkscape-font-specification:Times-Italic;writing-mode:lr-tb;fill:#000000;fill-opacity:1;fill-rule:nonzero;stroke:none"
           id="text82"><tspan
             x="0 2.224"
             y="0"
             id="tspan78">i</tspan><tspan
             x="-17.6563"
             y="9.5"
             id="tspan80">Z</tspan></text><text
           transform="matrix(1,0,0,-1,229.79363,81.62306)"
           style="font-variant:normal;font-weight:normal;font-size:8px;font-family:'Times New Roman';-inkscape-font-specification:Times-Roman;writing-mode:lr-tb;fill:#000000;fill-opacity:1;fill-rule:nonzero;stroke:none"
           id="text86"><tspan
             x="0 4.5120001 6.5120001"
             y="0"
             id="tspan84">+ 1</tspan></text></g><path
         d="m 2215,885 h 225"
         style="fill:none;stroke:#000000;stroke-width:5;stroke-linecap:butt;stroke-linejoin:miter;stroke-miterlimit:4;stroke-dasharray:none;stroke-opacity:1"
         id="path88" /><g
         id="g90"
         transform="scale(10)"><text
           transform="matrix(1,0,0,-1,4.95469,175.842)"
           style="font-style:italic;font-variant:normal;font-size:8px;font-family:'Times New Roman';-inkscape-font-specification:Times-Italic;writing-mode:lr-tb;fill:#000000;fill-opacity:1;fill-rule:nonzero;stroke:none"
           id="text94"><tspan
             x="0"
             y="0"
             id="tspan92">z</tspan></text><text
           transform="matrix(1,0,0,-1,8.0668,173.842)"
           style="font-variant:normal;font-weight:normal;font-size:6px;font-family:'Times New Roman';-inkscape-font-specification:Times-Roman;writing-mode:lr-tb;fill:#000000;fill-opacity:1;fill-rule:nonzero;stroke:none"
           id="text98"><tspan
             x="0"
             y="0"
             id="tspan96">1</tspan></text><text
           transform="matrix(1,0,0,-1,13.0668,175.842)"
           style="font-style:italic;font-variant:normal;font-size:8px;font-family:'Times New Roman';-inkscape-font-specification:Times-Italic;writing-mode:lr-tb;fill:#000000;fill-opacity:1;fill-rule:nonzero;stroke:none"
           id="text102"><tspan
             x="0 5.4000001"
             y="0"
             id="tspan100">= </tspan></text><text
           transform="matrix(1,0,0,-1,19.9918,180.45567)"
           style="font-variant:normal;font-weight:normal;font-size:8px;font-family:Symbol;-inkscape-font-specification:Symbol;writing-mode:lr-tb;fill:#000000;fill-opacity:1;fill-rule:nonzero;stroke:none"
           id="text106"><tspan
             x="0"
             y="0"
             id="tspan104">−</tspan></text><text
           transform="matrix(0.973889,0,0,-1,24.384,180.455)"
           style="font-variant:normal;font-weight:normal;font-size:7.9996px;font-family:Symbol;-inkscape-font-specification:Symbol;writing-mode:lr-tb;fill:#000000;fill-opacity:1;fill-rule:nonzero;stroke:none"
           id="text110"><tspan
             x="0"
             y="0"
             id="tspan108">π</tspan></text><text
           transform="matrix(1,0,0,-1,28.6609,180.455)"
           style="font-style:italic;font-variant:normal;font-size:8px;font-family:'Times New Roman';-inkscape-font-specification:Times-Italic;writing-mode:lr-tb;fill:#000000;fill-opacity:1;fill-rule:nonzero;stroke:none"
           id="text114"><tspan
             x="0"
             y="0"
             id="tspan112"></tspan></text><text
           transform="matrix(1,0,0,-1,23.32613,170.955)"
           style="font-variant:normal;font-weight:normal;font-size:8px;font-family:'Times New Roman';-inkscape-font-specification:Times-Roman;writing-mode:lr-tb;fill:#000000;fill-opacity:1;fill-rule:nonzero;stroke:none"
           id="text118"><tspan
             x="0"
             y="0"
             id="tspan116">4</tspan></text></g><path
         d="M 193.336,1778.34 H 295.004"
         style="fill:none;stroke:#000000;stroke-width:5;stroke-linecap:butt;stroke-linejoin:miter;stroke-miterlimit:4;stroke-dasharray:none;stroke-opacity:1"
         id="path120" /><g
         id="g122"
         transform="scale(10)"><text
           transform="matrix(1,0,0,-1,103.621,175.842)"
           style="font-style:italic;font-variant:normal;font-size:8px;font-family:'Times New Roman';-inkscape-font-specification:Times-Italic;writing-mode:lr-tb;fill:#000000;fill-opacity:1;fill-rule:nonzero;stroke:none"
           id="text126"><tspan
             x="0"
             y="0"
             id="tspan124">z</tspan></text><text
           transform="matrix(1,0,0,-1,106.73311,173.842)"
           style="font-variant:normal;font-weight:normal;font-size:6px;font-family:'Times New Roman';-inkscape-font-specification:Times-Roman;writing-mode:lr-tb;fill:#000000;fill-opacity:1;fill-rule:nonzero;stroke:none"
           id="text130"><tspan
             x="0"
             y="0"
             id="tspan128">2</tspan></text><text
           transform="matrix(1,0,0,-1,111.73311,175.842)"
           style="font-style:italic;font-variant:normal;font-size:8px;font-family:'Times New Roman';-inkscape-font-specification:Times-Italic;writing-mode:lr-tb;fill:#000000;fill-opacity:1;fill-rule:nonzero;stroke:none"
           id="text134"><tspan
             x="0 5.4000001"
             y="0"
             id="tspan132">= </tspan></text><text
           transform="matrix(0.973889,0,0,-1,119.355,180.455)"
           style="font-variant:normal;font-weight:normal;font-size:7.9996px;font-family:Symbol;-inkscape-font-specification:Symbol;writing-mode:lr-tb;fill:#000000;fill-opacity:1;fill-rule:nonzero;stroke:none"
           id="text138"><tspan
             x="0"
             y="0"
             id="tspan136">π</tspan></text><text
           transform="matrix(1,0,0,-1,123.632,180.455)"
           style="font-style:italic;font-variant:normal;font-size:8px;font-family:'Times New Roman';-inkscape-font-specification:Times-Italic;writing-mode:lr-tb;fill:#000000;fill-opacity:1;fill-rule:nonzero;stroke:none"
           id="text142"><tspan
             x="0"
             y="0"
             id="tspan140"></tspan></text><text
           transform="matrix(1,0,0,-1,120.49372,170.955)"
           style="font-variant:normal;font-weight:normal;font-size:8px;font-family:'Times New Roman';-inkscape-font-specification:Times-Roman;writing-mode:lr-tb;fill:#000000;fill-opacity:1;fill-rule:nonzero;stroke:none"
           id="text146"><tspan
             x="0"
             y="0"
             id="tspan144">4</tspan></text></g><path
         d="m 1180,1778.34 h 76.68"
         style="fill:none;stroke:#000000;stroke-width:5;stroke-linecap:butt;stroke-linejoin:miter;stroke-miterlimit:4;stroke-dasharray:none;stroke-opacity:1"
         id="path148" /><path
         d="m 1523.31,2157.42 -12.33,20.27 0.69,0.46 33.05,-13.13 c 11.52,-2.53 23.03,-5.06 34.55,-7.6 -11.52,-2.53 -23.03,-5.06 -34.55,-7.6 l -33.05,-13.12 -0.69,0.35 12.33,20.37"
         style="fill:#000000;fill-opacity:1;fill-rule:nonzero;stroke:none"
         id="path150" /><path
         d="m 2028.78,960.676 -15.3,-4.035 -0.15,0.527 14.64,18.645 c 3.8,6.875 7.6,13.753 11.41,20.644 -0.57,-7.848 -1.13,-15.68 -1.69,-23.527 l 2.13,-23.61 -0.35,-0.379 -10.69,11.735"
         style="fill:#000000;fill-opacity:1;fill-rule:nonzero;stroke:none"
         id="path152" /><path
         d="m 2028.78,960.676 -15.3,-4.035 -0.15,0.527 14.64,18.645 c 3.8,6.875 7.6,13.753 11.41,20.644 -0.57,-7.848 -1.13,-15.68 -1.69,-23.527 l 2.13,-23.61 -0.35,-0.379 -10.69,11.735"
         style="fill:#000000;fill-opacity:1;fill-rule:nonzero;stroke:none"
         id="path154" /><g
         id="g156"
         transform="scale(10)"><text
           transform="matrix(1,0,0,-1,27.616,83.4602)"
           style="font-style:italic;font-variant:normal;font-size:8px;font-family:'Times New Roman';-inkscape-font-specification:Times-Italic;writing-mode:lr-tb;fill:#000000;fill-opacity:1;fill-rule:nonzero;stroke:none"
           id="text160"><tspan
             x="0 4.448 6.448 11.848"
             y="0"
             id="tspan158">Z = </tspan></text><text
           transform="matrix(1,0,0,-1,41.464,83.4602)"
           style="font-variant:normal;font-weight:normal;font-size:8px;font-family:'Times New Roman';-inkscape-font-specification:Times-Roman;writing-mode:lr-tb;fill:#000000;fill-opacity:1;fill-rule:nonzero;stroke:none"
           id="text164"><tspan
             x="0 3.552 7.552 11.552"
             y="0"
             id="tspan162">exp(</tspan></text><text
           transform="matrix(1,0,0,-1,55.68,83.4602)"
           style="font-style:italic;font-variant:normal;font-size:8px;font-family:'Times New Roman';-inkscape-font-specification:Times-Italic;writing-mode:lr-tb;fill:#000000;fill-opacity:1;fill-rule:nonzero;stroke:none"
           id="text168"><tspan
             x="0"
             y="0"
             id="tspan166">i</tspan></text><text
           transform="matrix(1,0,0,-1,58.90383,83.4602)"
           style="font-style:italic;font-variant:normal;font-size:8px;font-family:'Times New Roman';-inkscape-font-specification:Times-Italic;writing-mode:lr-tb;fill:#000000;fill-opacity:1;fill-rule:nonzero;stroke:none"
           id="text172"><tspan
             x="0"
             y="0"
             id="tspan170">2</tspan></text><text
           transform="matrix(1,0,0,-1,63.90383,83.4602)"
           style="font-style:italic;font-variant:normal;font-size:8px;font-family:'Times New Roman';-inkscape-font-specification:Times-Italic;writing-mode:lr-tb;fill:#000000;fill-opacity:1;fill-rule:nonzero;stroke:none"
           id="text176"><tspan
             x="0"
             y="0"
             id="tspan174">z</tspan></text><text
           transform="matrix(1,0,0,-1,67.01594,83.4602)"
           style="font-variant:normal;font-weight:normal;font-size:8px;font-family:'Times New Roman';-inkscape-font-specification:Times-Roman;writing-mode:lr-tb;fill:#000000;fill-opacity:1;fill-rule:nonzero;stroke:none"
           id="text180"><tspan
             x="0"
             y="0"
             id="tspan178">)</tspan></text></g><path
         d="M 672.09,979.492 C 683.199,912.438 737.344,859.914 805.199,851.254"
         style="fill:none;stroke:#000000;stroke-width:5;stroke-linecap:butt;stroke-linejoin:miter;stroke-miterlimit:4;stroke-dasharray:none;stroke-opacity:1"
         id="path182" /><path
         d="m 2034.57,986.156 c -11.1,-67.054 -65.25,-119.578 -133.11,-128.234"
         style="fill:none;stroke:#000000;stroke-width:5;stroke-linecap:butt;stroke-linejoin:miter;stroke-miterlimit:4;stroke-dasharray:none;stroke-opacity:1"
         id="path184" /><path
         d="m 790.707,854.602 -4.852,15.05 0.516,0.188 19.414,-13.613 c 7.07,-3.418 14.149,-6.836 21.231,-10.266 -7.868,0.144 -15.723,0.277 -23.582,0.41 l -23.457,-3.41 -0.403,0.324 11.133,11.317"
         style="fill:#000000;fill-opacity:1;fill-rule:nonzero;stroke:none"
         id="path186" /><path
         d="M 1603.14,1897.77 H 2836.05"
         style="fill:none;stroke:#000000;stroke-width:7.5;stroke-linecap:round;stroke-linejoin:round;stroke-miterlimit:4;stroke-dasharray:none;stroke-opacity:1"
         id="path188" /><path
         d="M 2217.66,1276.02 V 2526.19"
         style="fill:none;stroke:#000000;stroke-width:7.5;stroke-linecap:round;stroke-linejoin:round;stroke-miterlimit:4;stroke-dasharray:none;stroke-opacity:1"
         id="path190" /><g
         id="g192"
         transform="scale(10)"><text
           transform="matrix(1,0,0,-1,219.99,260.557)"
           style="font-style:italic;font-variant:normal;font-size:8px;font-family:'Times New Roman';-inkscape-font-specification:Times-Italic;writing-mode:lr-tb;fill:#000000;fill-opacity:1;fill-rule:nonzero;stroke:none"
           id="text200"><tspan
             x="0"
             y="0"
             id="tspan194">v</tspan><tspan
             x="70.157799"
             y="73.444901"
             id="tspan196">u</tspan><tspan
             x="44.6562"
             y="81.701927"
             id="tspan198">w</tspan></text><text
           transform="matrix(1,0,0,-1,269.98214,176.85507)"
           style="font-variant:normal;font-weight:normal;font-size:6px;font-family:'Times New Roman';-inkscape-font-specification:Times-Roman;writing-mode:lr-tb;fill:#000000;fill-opacity:1;fill-rule:nonzero;stroke:none"
           id="text204"><tspan
             x="0 3"
             y="0"
             id="tspan202">2 </tspan></text><text
           transform="matrix(1,0,0,-1,274.48214,178.85507)"
           style="font-variant:normal;font-weight:normal;font-size:8px;font-family:'Times New Roman';-inkscape-font-specification:Times-Roman;writing-mode:lr-tb;fill:#000000;fill-opacity:1;fill-rule:nonzero;stroke:none"
           id="text208"><tspan
             x="0 4.5120001 6.5120001"
             y="0"
             id="tspan206">= 1</tspan></text><text
           transform="matrix(1,0,0,-1,153.64614,179.45468)"
           style="font-style:italic;font-variant:normal;font-size:8px;font-family:'Times New Roman';-inkscape-font-specification:Times-Italic;writing-mode:lr-tb;fill:#000000;fill-opacity:1;fill-rule:nonzero;stroke:none"
           id="text212"><tspan
             x="0"
             y="0"
             id="tspan210">w</tspan></text><text
           transform="matrix(1,0,0,-1,158.98208,177.45468)"
           style="font-variant:normal;font-weight:normal;font-size:6px;font-family:'Times New Roman';-inkscape-font-specification:Times-Roman;writing-mode:lr-tb;fill:#000000;fill-opacity:1;fill-rule:nonzero;stroke:none"
           id="text216"><tspan
             x="0 3"
             y="0"
             id="tspan214">1 </tspan></text><text
           transform="matrix(1,0,0,-1,163.48208,179.45468)"
           style="font-variant:normal;font-weight:normal;font-size:8px;font-family:'Times New Roman';-inkscape-font-specification:Times-Roman;writing-mode:lr-tb;fill:#000000;fill-opacity:1;fill-rule:nonzero;stroke:none"
           id="text220"><tspan
             x="0 4.5120001"
             y="0"
             id="tspan218">= </tspan></text><text
           transform="matrix(1,0,0,-1,169.99419,179.45468)"
           style="font-variant:normal;font-weight:normal;font-size:8px;font-family:Symbol;-inkscape-font-specification:Symbol;writing-mode:lr-tb;fill:#000000;fill-opacity:1;fill-rule:nonzero;stroke:none"
           id="text224"><tspan
             x="0"
             y="0"
             id="tspan222">−</tspan></text><text
           transform="matrix(1,0,0,-1,174.38638,179.45468)"
           style="font-variant:normal;font-weight:normal;font-size:8px;font-family:'Times New Roman';-inkscape-font-specification:Times-Roman;writing-mode:lr-tb;fill:#000000;fill-opacity:1;fill-rule:nonzero;stroke:none"
           id="text228"><tspan
             x="0"
             y="0"
             id="tspan226">1</tspan></text></g><path
         d="m 2237.18,1897.7 c 0,-11.05 -8.95,-20 -20,-20 -11.04,0 -20,8.95 -20,20 0,11.04 8.96,20 20,20 11.05,0 20,-8.96 20,-20"
         style="fill:#000000;fill-opacity:1;fill-rule:nonzero;stroke:none"
         id="path230" /><path
         d="m 2637.18,1897.7 c 0,-11.05 -8.95,-20 -20,-20 -11.04,0 -20,8.95 -20,20 0,11.04 8.96,20 20,20 11.05,0 20,-8.96 20,-20"
         style="fill:#000000;fill-opacity:1;fill-rule:nonzero;stroke:none"
         id="path232" /><path
         d="m 1840.71,1897.7 c 0,-11.05 -8.95,-20 -20,-20 -11.04,0 -20,8.95 -20,20 0,11.04 8.96,20 20,20 11.05,0 20,-8.96 20,-20"
         style="fill:#000000;fill-opacity:1;fill-rule:nonzero;stroke:none"
         id="path234" /><path
         d="m 2823.26,1898.29 -12.33,20.27 0.69,0.46 33.04,-13.12 c 11.53,-2.54 23.03,-5.07 34.55,-7.61 -11.52,-2.53 -23.02,-5.06 -34.55,-7.6 l -33.04,-13.12 -0.69,0.35 12.33,20.37"
         style="fill:#000000;fill-opacity:1;fill-rule:nonzero;stroke:none"
         id="path236" /><path
         d="m 1611.49,1898.29 12.32,20.27 -0.68,0.46 -33.05,-13.12 c -11.52,-2.54 -23.03,-5.07 -34.55,-7.61 11.52,-2.53 23.03,-5.06 34.55,-7.6 l 33.05,-13.12 0.68,0.35 -12.32,20.37"
         style="fill:#000000;fill-opacity:1;fill-rule:nonzero;stroke:none"
         id="path238" /><path
         d="m 2215.78,2516.61 -20.27,-12.32 -0.46,0.68 13.13,33.05 c 2.53,11.52 5.07,23.02 7.6,34.55 2.53,-11.53 5.06,-23.03 7.6,-34.55 l 13.12,-33.05 -0.34,-0.68 -20.38,12.32"
         style="fill:#000000;fill-opacity:1;fill-rule:nonzero;stroke:none"
         id="path240" /><path
         d="m 2215.78,1297.43 -20.27,12.33 -0.46,-0.69 13.13,-33.05 c 2.53,-11.52 5.07,-23.02 7.6,-34.54 2.53,11.52 5.06,23.02 7.6,34.54 l 13.12,33.05 -0.34,0.69 -20.38,-12.33"
         style="fill:#000000;fill-opacity:1;fill-rule:nonzero;stroke:none"
         id="path242" /><path
         d="M 56.4688,1897.77 H 1289.38"
         style="fill:none;stroke:#000000;stroke-width:7.5;stroke-linecap:round;stroke-linejoin:round;stroke-miterlimit:4;stroke-dasharray:none;stroke-opacity:1"
         id="path244" /><path
         d="M 670.984,1287.7 V 2526.19"
         style="fill:none;stroke:#000000;stroke-width:7.5;stroke-linecap:round;stroke-linejoin:round;stroke-miterlimit:4;stroke-dasharray:none;stroke-opacity:1"
         id="path246" /><path
         d="M 365.984,1360 V 2426.67"
         style="fill:none;stroke:#231f20;stroke-width:10;stroke-linecap:butt;stroke-linejoin:miter;stroke-miterlimit:4;stroke-dasharray:none;stroke-opacity:1"
         id="path248" /><path
         d="M 979.32,1360 V 2426.67"
         style="fill:none;stroke:#231f20;stroke-width:10;stroke-linecap:butt;stroke-linejoin:miter;stroke-miterlimit:4;stroke-dasharray:20, 30;stroke-dashoffset:0;stroke-opacity:1"
         id="path250" /><g
         id="g252"
         transform="scale(10)"><text
           transform="matrix(1,0,0,-1,65.3227,260.557)"
           style="font-style:italic;font-variant:normal;font-size:8px;font-family:'Times New Roman';-inkscape-font-specification:Times-Italic;writing-mode:lr-tb;fill:#000000;fill-opacity:1;fill-rule:nonzero;stroke:none"
           id="text258"><tspan
             x="0"
             y="0"
             id="tspan254">y</tspan><tspan
             x="69.157799"
             y="73.444901"
             id="tspan256">x</tspan></text></g><path
         d="m 690.512,1897.7 c 0,-11.05 -8.953,-20 -20,-20 -11.043,0 -20,8.95 -20,20 0,11.04 8.957,20 20,20 11.047,0 20,-8.96 20,-20"
         style="fill:#000000;fill-opacity:1;fill-rule:nonzero;stroke:none"
         id="path260" /><path
         d="m 388.043,1897.7 c 0,-11.05 -8.957,-20 -20,-20 -11.047,0 -20,8.95 -20,20 0,11.04 8.953,20 20,20 11.043,0 20,-8.96 20,-20"
         style="fill:#000000;fill-opacity:1;fill-rule:nonzero;stroke:none"
         id="path262" /><path
         d="m 999.313,1897.7 c 0,-11.05 -8.958,-20 -20,-20 -11.047,0 -20,8.95 -20,20 0,11.04 8.953,20 20,20 11.042,0 20,-8.96 20,-20"
         style="fill:#000000;fill-opacity:1;fill-rule:nonzero;stroke:none"
         id="path264" /><path
         d="m 1276.59,1898.29 -12.33,20.27 0.69,0.46 33.04,-13.12 c 11.53,-2.54 23.03,-5.07 34.55,-7.61 -11.52,-2.53 -23.02,-5.06 -34.55,-7.6 l -33.04,-13.12 -0.69,0.35 12.33,20.37"
         style="fill:#000000;fill-opacity:1;fill-rule:nonzero;stroke:none"
         id="path266" /><path
         d="m 64.8203,1898.29 12.3242,20.27 -0.6836,0.46 -33.0468,-13.12 c -11.5235,-2.54 -23.0274,-5.07 -34.55082,-7.61 11.52342,-2.53 23.02732,-5.06 34.55082,-7.6 l 33.0468,-13.12 0.6836,0.35 -12.3242,20.37"
         style="fill:#000000;fill-opacity:1;fill-rule:nonzero;stroke:none"
         id="path268" /><path
         d="m 669.109,2516.61 -20.265,-12.32 -0.461,0.68 13.125,33.05 c 2.535,11.52 5.07,23.02 7.601,34.55 2.532,-11.53 5.067,-23.03 7.602,-34.55 l 13.125,-33.05 -0.348,-0.68 -20.379,12.32"
         style="fill:#000000;fill-opacity:1;fill-rule:nonzero;stroke:none"
         id="path270" /><path
         d="m 669.109,1309.1 -20.265,12.33 -0.461,-0.69 13.125,-33.04 c 2.535,-11.53 5.07,-23.03 7.601,-34.56 2.532,11.53 5.067,23.03 7.602,34.56 l 13.125,33.04 -0.348,0.69 -20.379,-12.33"
         style="fill:#000000;fill-opacity:1;fill-rule:nonzero;stroke:none"
         id="path272" /><path
         d="m 1150.98,686.66 v 592.86"
         style="fill:none;stroke:#231f20;stroke-width:10;stroke-linecap:butt;stroke-linejoin:miter;stroke-miterlimit:4;stroke-dasharray:20, 30;stroke-dashoffset:0;stroke-opacity:1"
         id="path274" /><path
         d="M 1150.98,41.0313 V 686.66"
         style="fill:none;stroke:#231f20;stroke-width:10;stroke-linecap:butt;stroke-linejoin:miter;stroke-miterlimit:4;stroke-dasharray:none;stroke-opacity:1"
         id="path276" /><g
         id="g278"
         transform="scale(10)"><text
           transform="matrix(1,0,0,-1,113.323,135.891)"
           style="font-style:italic;font-variant:normal;font-size:8px;font-family:'Times New Roman';-inkscape-font-specification:Times-Italic;writing-mode:lr-tb;fill:#000000;fill-opacity:1;fill-rule:nonzero;stroke:none"
           id="text282"><tspan
             x="0"
             y="0"
             id="tspan280">Y</tspan></text></g><path
         d="m 1149.11,1269.94 -20.27,-12.32 -0.46,0.68 13.13,33.05 c 2.53,11.52 5.07,23.03 7.6,34.55 2.53,-11.52 5.07,-23.03 7.6,-34.55 l 13.13,-33.05 -0.35,-0.68 -20.38,12.32"
         style="fill:#000000;fill-opacity:1;fill-rule:nonzero;stroke:none"
         id="path284" /><path
         d="m 1149.11,62.4375 -20.27,12.3242 -0.46,-0.6836 13.13,-33.0468 c 2.53,-11.5235 5.07,-23.0274 7.6,-34.55083 2.53,11.52343 5.07,23.02733 7.6,34.55083 l 13.13,33.0468 -0.35,0.6836 -20.38,-12.3242"
         style="fill:#000000;fill-opacity:1;fill-rule:nonzero;stroke:none"
         id="path286" /><g
         id="g288"
         transform="scale(10)"><text
           transform="matrix(1,0,0,-1,87.5586,36.0082)"
           style="font-style:italic;font-variant:normal;font-size:8px;font-family:'Times New Roman';-inkscape-font-specification:Times-Italic;writing-mode:lr-tb;fill:#000000;fill-opacity:1;fill-rule:nonzero;stroke:none"
           id="text292"><tspan
             x="0"
             y="0"
             id="tspan290">Z</tspan></text><text
           transform="matrix(1,0,0,-1,92.00665,34.0082)"
           style="font-variant:normal;font-weight:normal;font-size:6px;font-family:'Times New Roman';-inkscape-font-specification:Times-Roman;writing-mode:lr-tb;fill:#000000;fill-opacity:1;fill-rule:nonzero;stroke:none"
           id="text296"><tspan
             x="0 3"
             y="0"
             id="tspan294">2 </tspan></text><text
           transform="matrix(1,0,0,-1,96.50665,36.0082)"
           style="font-variant:normal;font-weight:normal;font-size:8px;font-family:'Times New Roman';-inkscape-font-specification:Times-Roman;writing-mode:lr-tb;fill:#000000;fill-opacity:1;fill-rule:nonzero;stroke:none"
           id="text300"><tspan
             x="0 4.5120001"
             y="0"
             id="tspan298">= </tspan></text><text
           transform="matrix(1,0,0,-1,103.01876,36.0082)"
           style="font-variant:normal;font-weight:normal;font-size:8px;font-family:Symbol;-inkscape-font-specification:Symbol;writing-mode:lr-tb;fill:#000000;fill-opacity:1;fill-rule:nonzero;stroke:none"
           id="text304"><tspan
             x="0"
             y="0"
             id="tspan302">−</tspan></text><text
           transform="matrix(1,0,0,-1,107.41095,36.0082)"
           style="font-style:italic;font-variant:normal;font-size:8px;font-family:'Times New Roman';-inkscape-font-specification:Times-Italic;writing-mode:lr-tb;fill:#000000;fill-opacity:1;fill-rule:nonzero;stroke:none"
           id="text308"><tspan
             x="0"
             y="0"
             id="tspan306">i</tspan></text></g><path
         d="m 1047.7,682.676 h 824.8"
         style="fill:none;stroke:#000000;stroke-width:7.5;stroke-linecap:round;stroke-linejoin:round;stroke-miterlimit:4;stroke-dasharray:none;stroke-opacity:1"
         id="path310" /><path
         d="m 1852.99,683.203 -12.33,20.274 0.69,0.461 33.04,-13.125 c 11.53,-2.543 23.03,-5.071 34.56,-7.61 -11.53,-2.527 -23.03,-5.058 -34.56,-7.598 l -33.04,-13.125 -0.69,0.352 12.33,20.371"
         style="fill:#000000;fill-opacity:1;fill-rule:nonzero;stroke:none"
         id="path312" /><g
         id="g314"
         transform="scale(10)"><text
           transform="matrix(1,0,0,-1,194.193,65.6035)"
           style="font-style:italic;font-variant:normal;font-size:8px;font-family:'Times New Roman';-inkscape-font-specification:Times-Italic;writing-mode:lr-tb;fill:#000000;fill-opacity:1;fill-rule:nonzero;stroke:none"
           id="text320"><tspan
             x="0"
             y="0"
             id="tspan316">X</tspan><tspan
             x="-102.742"
             y="-29.732401"
             id="tspan318">Z</tspan></text><text
           transform="matrix(1,0,0,-1,95.89905,93.3359)"
           style="font-variant:normal;font-weight:normal;font-size:6px;font-family:'Times New Roman';-inkscape-font-specification:Times-Roman;writing-mode:lr-tb;fill:#000000;fill-opacity:1;fill-rule:nonzero;stroke:none"
           id="text324"><tspan
             x="0"
             y="0"
             id="tspan322">1</tspan></text><text
           transform="matrix(1,0,0,-1,100.89905,95.3359)"
           style="font-variant:normal;font-weight:normal;font-size:8px;font-family:'Times New Roman';-inkscape-font-specification:Times-Roman;writing-mode:lr-tb;fill:#000000;fill-opacity:1;fill-rule:nonzero;stroke:none"
           id="text328"><tspan
             x="0 4.5120001"
             y="0"
             id="tspan326">= </tspan></text><text
           transform="matrix(1,0,0,-1,107.41116,95.3359)"
           style="font-style:italic;font-variant:normal;font-size:8px;font-family:'Times New Roman';-inkscape-font-specification:Times-Italic;writing-mode:lr-tb;fill:#000000;fill-opacity:1;fill-rule:nonzero;stroke:none"
           id="text332"><tspan
             x="0"
             y="0"
             id="tspan330">i</tspan></text></g><path
         d="m 1152.5,985 c 165.68,0 300,-134.316 300,-300 0,-165.684 -134.32,-300 -300,-300"
         style="fill:none;stroke:#000000;stroke-width:7.5;stroke-linecap:round;stroke-linejoin:round;stroke-miterlimit:4;stroke-dasharray:none;stroke-opacity:1"
         id="path334" /><g
         id="g336"
         transform="scale(10)"><text
           transform="matrix(1,0,0,-1,152,95.75)"
           style="font-variant:normal;font-weight:normal;font-size:8px;font-family:'Times New Roman';-inkscape-font-specification:Times-Roman;writing-mode:lr-tb;fill:#231f20;fill-opacity:1;fill-rule:nonzero;stroke:none"
           id="text354"><tspan
             x="0"
             y="0"
             id="tspan338">4</tspan><tspan
             x="0"
             y="61.25"
             id="tspan340">3</tspan><tspan
             x="-26"
             y="41.25"
             id="tspan342">2</tspan><tspan
             x="-26"
             y="17"
             id="tspan344">1</tspan><tspan
             x="85.333 51.333"
             y="-108.333"
             id="tspan346">12</tspan><tspan
             x="-72.167 -101.0006"
             y="-119.6662"
             id="tspan348">12</tspan><tspan
             x="-72.167 -101.0006"
             y="-65.666199"
             id="tspan350">43</tspan><tspan
             x="85.333 51.333"
             y="-74.333389"
             id="tspan352">43</tspan></text></g><path
         d="m 1170,982.5 c 0,-11.043 -8.95,-20 -20,-20 -11.04,0 -20,8.957 -20,20 0,11.047 8.96,20 20,20 11.05,0 20,-8.953 20,-20"
         style="fill:#231f20;fill-opacity:1;fill-rule:nonzero;stroke:none"
         id="path356" /><path
         d="m 1170,385 c 0,-11.043 -8.95,-20 -20,-20 -11.04,0 -20,8.957 -20,20 0,11.047 8.96,20 20,20 11.05,0 20,-8.953 20,-20"
         style="fill:#231f20;fill-opacity:1;fill-rule:nonzero;stroke:none"
         id="path358" /></g></g></svg>
