<?xml version="1.0" encoding="UTF-8" standalone="no"?>
<svg
   xmlns:dc="http://purl.org/dc/elements/1.1/"
   xmlns:cc="http://creativecommons.org/ns#"
   xmlns:rdf="http://www.w3.org/1999/02/22-rdf-syntax-ns#"
   xmlns:svg="http://www.w3.org/2000/svg"
   xmlns="http://www.w3.org/2000/svg"
   version="1.1"
   id="svg2"
   xml:space="preserve"
   width="432"
   height="334.66666"
   viewBox="0 0 432 334.66666"><metadata
     id="metadata8"><rdf:RDF><cc:Work
         rdf:about=""><dc:format>image/svg+xml</dc:format><dc:type
           rdf:resource="http://purl.org/dc/dcmitype/StillImage" /></cc:Work></rdf:RDF></metadata><defs
     id="defs6" /><g
     id="g10"
     transform="matrix(1.3333333,0,0,-1.3333333,0,334.66667)"><g
       id="g12"
       transform="scale(0.1)"><path
         d="m 1697.66,1619.5 58.51,2.7 58.51,3.45 58.51,4.53 58.51,6.05 58.53,8.34 29.24,5.37 29.26,6.45 29.26,7.81 29.24,9.53 29.26,11.79 29.26,14.65 29.25,18.37 29.26,23.16 58.51,65.1 29.27,42.55 29.25,45.2 14.61,20.66 7.33,9.06 7.31,7.86 7.31,6.46 3.65,2.6 3.66,2.17 3.67,1.7 1.82,0.68 1.83,0.56 1.83,0.42 1.83,0.32 1.82,0.19 1.84,0.06 1.83,-0.06 1.82,-0.19 1.84,-0.32 1.82,-0.42 1.83,-0.56 1.83,-0.68 3.66,-1.7 7.31,-4.77 7.31,-6.46 14.64,-16.92 14.61,-20.66 58.52,-87.75 29.25,-36 29.26,-29.1 58.51,-41.53 29.26,-14.65 29.25,-11.79 29.26,-9.53 29.25,-7.81 58.52,-11.82"
         style="fill:none;stroke:#bfeafb;stroke-width:6.385;stroke-linecap:butt;stroke-linejoin:miter;stroke-miterlimit:4;stroke-dasharray:none;stroke-opacity:1"
         id="path14" /><path
         d="m 1697.66,1727.78 58.51,3.78 58.51,4.81 58.51,6.19 58.51,8.13 58.53,10.87 58.5,14.85 58.5,20.61 58.52,28.91 58.51,39.91 58.51,51.11 29.27,27.18 29.25,24.48 14.61,9.89 7.33,4.11 7.31,3.45 7.31,2.77 3.65,1.1 3.66,0.9 3.67,0.71 1.82,0.28 1.83,0.23 1.83,0.18 1.83,0.13 1.82,0.08 1.84,0.02 1.83,-0.02 1.82,-0.08 1.84,-0.13 1.82,-0.18 1.83,-0.23 1.83,-0.28 3.66,-0.71 7.31,-2 7.31,-2.77 14.64,-7.56 14.61,-9.89 58.52,-51.66 58.51,-51.11 58.51,-39.91 58.51,-28.91 58.51,-20.61 58.52,-14.85 58.51,-10.87 58.51,-8.13 58.51,-6.19 58.51,-4.81 58.51,-3.78"
         style="fill:none;stroke:#bfeafb;stroke-width:6.385;stroke-linecap:butt;stroke-linejoin:miter;stroke-miterlimit:4;stroke-dasharray:none;stroke-opacity:1"
         id="path16" /><path
         d="m 1697.66,1835.34 58.51,4.63 58.51,5.79 58.51,7.31 58.51,9.34 58.53,12.13 58.5,15.81 58.5,20.69 58.52,26.66 58.51,32.85 58.51,36.2 29.27,16.94 14.6,7.51 14.65,6.55 14.61,5.39 7.33,2.18 7.31,1.81 7.31,1.43 3.65,0.58 3.66,0.46 3.67,0.36 1.82,0.16 1.83,0.11 1.83,0.1 1.83,0.06 1.82,0.04 1.84,0.02 1.83,-0.02 1.82,-0.04 1.84,-0.06 1.82,-0.1 1.83,-0.11 1.83,-0.16 3.66,-0.36 7.31,-1.04 7.31,-1.43 14.64,-3.99 14.61,-5.39 29.26,-14.06 29.26,-16.94 58.51,-36.2 58.51,-32.85 58.51,-26.66 58.51,-20.69 58.52,-15.81 58.51,-12.13 58.51,-9.34 58.51,-7.31 58.51,-5.79 58.51,-4.63"
         style="fill:none;stroke:#bfeafb;stroke-width:6.385;stroke-linecap:butt;stroke-linejoin:miter;stroke-miterlimit:4;stroke-dasharray:none;stroke-opacity:1"
         id="path18" /><path
         d="m 1697.66,1942.07 58.51,5.2 58.51,6.39 58.51,7.9 58.51,9.83 58.53,12.28 58.5,15.31 58.5,18.92 58.52,22.6 58.51,25.4 58.51,25.23 29.27,10.88 14.6,4.65 14.65,3.97 14.61,3.21 7.33,1.29 7.31,1.06 7.31,0.85 3.65,0.32 3.66,0.28 3.67,0.2 1.82,0.1 1.83,0.06 1.83,0.06 1.83,0.03 1.82,0.02 h 1.84 1.83 l 1.82,-0.02 1.84,-0.03 1.82,-0.06 1.83,-0.06 1.83,-0.1 3.66,-0.2 3.66,-0.28 3.65,-0.32 7.31,-0.85 14.64,-2.35 14.61,-3.21 29.26,-8.62 29.26,-10.88 58.51,-25.23 58.51,-25.4 58.51,-22.6 58.51,-18.92 58.52,-15.31 58.51,-12.28 58.51,-9.83 58.51,-7.9 58.51,-6.39"
         style="fill:none;stroke:#bfeafb;stroke-width:6.385;stroke-linecap:butt;stroke-linejoin:miter;stroke-miterlimit:4;stroke-dasharray:none;stroke-opacity:1"
         id="path20" /><path
         d="m 1697.66,2047.91 58.51,5.53 58.51,6.65 58.51,8.02 58.51,9.72 58.53,11.73 58.5,14.01 58.5,16.4 58.52,18.41 58.51,19.25 58.51,17.76 29.27,7.28 14.6,3.03 14.65,2.56 14.61,2.07 7.33,0.81 7.31,0.67 7.31,0.53 3.65,0.21 3.66,0.17 3.67,0.14 1.82,0.04 1.83,0.05 1.83,0.03 1.83,0.03 1.82,0.01 h 1.84 1.83 l 1.82,-0.01 1.84,-0.03 1.82,-0.03 1.83,-0.05 1.83,-0.04 3.66,-0.14 3.66,-0.17 3.65,-0.21 7.31,-0.53 14.64,-1.48 14.61,-2.07 29.26,-5.59 29.26,-7.28 58.51,-17.76 58.51,-19.25 58.51,-18.41 58.51,-16.4 58.52,-14.01 58.51,-11.73 58.51,-9.72 58.51,-8.02 58.51,-6.65"
         style="fill:none;stroke:#bfeafb;stroke-width:6.385;stroke-linecap:butt;stroke-linejoin:miter;stroke-miterlimit:4;stroke-dasharray:none;stroke-opacity:1"
         id="path22" /><path
         d="m 2399.8,1401.59 v 496.52"
         style="fill:none;stroke:#80d6f7;stroke-width:10;stroke-linecap:butt;stroke-linejoin:miter;stroke-miterlimit:4;stroke-dasharray:none;stroke-opacity:1"
         id="path24" /><g
         id="g26"
         transform="scale(10)"><text
           transform="matrix(1,0,0,-1,13.0934,127.948)"
           style="font-variant:normal;font-weight:normal;font-size:7.6px;font-family:Symbol;-inkscape-font-specification:Symbol;writing-mode:lr-tb;fill:#000000;fill-opacity:1;fill-rule:nonzero;stroke:none"
           id="text30"><tspan
             x="0"
             y="0"
             id="tspan28">−</tspan></text><text
           transform="matrix(1,0,0,-1,17.26567,127.948)"
           style="font-variant:normal;font-weight:normal;font-size:7.6px;font-family:'Times New Roman';-inkscape-font-specification:Times-Roman;writing-mode:lr-tb;fill:#000000;fill-opacity:1;fill-rule:nonzero;stroke:none"
           id="text34"><tspan
             x="0"
             y="0"
             id="tspan32">2</tspan></text><text
           transform="matrix(1,0,0,-1,40.15087,127.948)"
           style="font-variant:normal;font-weight:normal;font-size:7.6px;font-family:Symbol;-inkscape-font-specification:Symbol;writing-mode:lr-tb;fill:#000000;fill-opacity:1;fill-rule:nonzero;stroke:none"
           id="text38"><tspan
             x="0 4.1724"
             y="0"
             id="tspan36">− </tspan></text><text
           transform="matrix(1,0,0,-1,46.22314,127.948)"
           style="font-variant:normal;font-weight:normal;font-size:7.6px;font-family:'Times New Roman';-inkscape-font-specification:Times-Roman;writing-mode:lr-tb;fill:#000000;fill-opacity:1;fill-rule:nonzero;stroke:none"
           id="text42"><tspan
             x="0 52.980434 80.987503"
             y="0"
             id="tspan40">112</tspan></text><text
           transform="matrix(1,0,0,-1,150.38514,137.72456)"
           style="font-style:italic;font-variant:normal;font-size:7.6px;font-family:'Times New Roman';-inkscape-font-specification:Times-Italic;writing-mode:lr-tb;fill:#000000;fill-opacity:1;fill-rule:nonzero;stroke:none"
           id="text46"><tspan
             x="0"
             y="0"
             id="tspan44">x</tspan></text><text
           transform="matrix(1,0,0,-1,68.86364,205.70896)"
           style="font-variant:normal;font-weight:normal;font-size:7.6px;font-family:'Times New Roman';-inkscape-font-specification:Times-Roman;writing-mode:lr-tb;fill:#000000;fill-opacity:1;fill-rule:nonzero;stroke:none"
           id="text50"><tspan
             x="0"
             y="0"
             id="tspan48">1</tspan></text><text
           transform="matrix(1,0,0,-1,73.41091,243.35236)"
           style="font-style:italic;font-variant:normal;font-size:7.6px;font-family:'Times New Roman';-inkscape-font-specification:Times-Italic;writing-mode:lr-tb;fill:#000000;fill-opacity:1;fill-rule:nonzero;stroke:none"
           id="text54"><tspan
             x="0"
             y="0"
             id="tspan52">y</tspan></text></g><path
         d="M 749.949,1367.58 V 2302.3"
         style="fill:none;stroke:#000000;stroke-width:10;stroke-linecap:butt;stroke-linejoin:miter;stroke-miterlimit:4;stroke-dasharray:none;stroke-opacity:1"
         id="path56" /><path
         d="M 49.7617,1528.74 H 1450.14"
         style="fill:none;stroke:#bfeafb;stroke-width:6.367;stroke-linecap:butt;stroke-linejoin:miter;stroke-miterlimit:4;stroke-dasharray:none;stroke-opacity:1"
         id="path58" /><path
         d="M 49.7617,1657.66 H 1450.14"
         style="fill:none;stroke:#bfeafb;stroke-width:6.367;stroke-linecap:butt;stroke-linejoin:miter;stroke-miterlimit:4;stroke-dasharray:none;stroke-opacity:1"
         id="path60" /><path
         d="M 49.7617,1786.6 H 1450.14"
         style="fill:none;stroke:#bfeafb;stroke-width:6.367;stroke-linecap:butt;stroke-linejoin:miter;stroke-miterlimit:4;stroke-dasharray:none;stroke-opacity:1"
         id="path62" /><path
         d="M 49.7617,1915.53 H 1450.14"
         style="fill:none;stroke:#bfeafb;stroke-width:6.367;stroke-linecap:butt;stroke-linejoin:miter;stroke-miterlimit:4;stroke-dasharray:none;stroke-opacity:1"
         id="path64" /><path
         d="M 49.7617,2044.44 H 1450.14"
         style="fill:none;stroke:#bfeafb;stroke-width:6.367;stroke-linecap:butt;stroke-linejoin:miter;stroke-miterlimit:4;stroke-dasharray:none;stroke-opacity:1"
         id="path66" /><path
         d="M 49.7617,2173.38 H 1450.14"
         style="fill:none;stroke:#bfeafb;stroke-width:6.367;stroke-linecap:butt;stroke-linejoin:miter;stroke-miterlimit:4;stroke-dasharray:none;stroke-opacity:1"
         id="path68" /><path
         d="M 749.949,1401.39 V 2302.3"
         style="fill:none;stroke:#000000;stroke-width:7.5;stroke-linecap:butt;stroke-linejoin:miter;stroke-miterlimit:4;stroke-dasharray:none;stroke-opacity:1"
         id="path70" /><path
         d="m 749.949,2296.85 -19.25,-11.71 -0.433,0.66 12.468,31.4 c 2.403,10.94 4.817,21.87 7.215,32.81 2.414,-10.94 4.817,-21.87 7.219,-32.81 l 12.477,-31.4 -0.329,-0.66 -19.367,11.71"
         style="fill:#000000;fill-opacity:1;fill-rule:nonzero;stroke:none"
         id="path72" /><path
         d="M 53.1133,1399.81 H 1446.46"
         style="fill:#000000;fill-opacity:1;fill-rule:nonzero;stroke:none"
         id="path74" /><path
         d="M 53.1133,1399.81 H 1446.46"
         style="fill:none;stroke:#000000;stroke-width:7.5;stroke-linecap:butt;stroke-linejoin:miter;stroke-miterlimit:4;stroke-dasharray:none;stroke-opacity:1"
         id="path76" /><path
         d="m 1441.01,1399.81 -11.71,19.25 0.66,0.44 31.39,-12.47 c 10.94,-2.4 21.87,-4.81 32.81,-7.22 -10.94,-2.4 -21.87,-4.81 -32.81,-7.22 l -31.39,-12.47 -0.66,0.33 11.71,19.36"
         style="fill:#000000;fill-opacity:1;fill-rule:nonzero;stroke:none"
         id="path78" /><path
         d="m 58.5703,1399.81 11.7031,-19.25 -0.6562,-0.44 -31.3945,12.47 c -10.9375,2.41 -21.875,4.81 -32.81254,7.22 10.93754,2.4 21.87504,4.82 32.81254,7.22 l 31.3945,12.47 0.6562,-0.33 -11.7031,-19.36"
         style="fill:#000000;fill-opacity:1;fill-rule:nonzero;stroke:none"
         id="path80" /><path
         d="M 469.863,1399.81 H 1030.04"
         style="fill:#000000;fill-opacity:1;fill-rule:nonzero;stroke:none"
         id="path82" /><path
         d="M 469.863,1399.81 H 1030.04"
         style="fill:none;stroke:#80d6f7;stroke-width:10;stroke-linecap:butt;stroke-linejoin:miter;stroke-miterlimit:4;stroke-dasharray:none;stroke-opacity:1"
         id="path84" /><path
         d="m 749.949,2302.3 v 0 0 z"
         style="fill:#000000;fill-opacity:1;fill-rule:nonzero;stroke:none"
         id="path86" /><path
         d="m 749.949,2302.3 v 0 0 0"
         style="fill:none;stroke:#000000;stroke-width:7.5;stroke-linecap:butt;stroke-linejoin:miter;stroke-miterlimit:4;stroke-dasharray:none;stroke-opacity:1"
         id="path88" /><g
         id="g90"
         transform="scale(10)"><text
           transform="matrix(1,0,0,-1,177.922,128.127)"
           style="font-variant:normal;font-weight:normal;font-size:7.6px;font-family:Symbol;-inkscape-font-specification:Symbol;writing-mode:lr-tb;fill:#000000;fill-opacity:1;fill-rule:nonzero;stroke:none"
           id="text94"><tspan
             x="0"
             y="0"
             id="tspan92">−</tspan></text><text
           transform="matrix(1,0,0,-1,182.09427,128.127)"
           style="font-variant:normal;font-weight:normal;font-size:7.6px;font-family:'Times New Roman';-inkscape-font-specification:Times-Roman;writing-mode:lr-tb;fill:#000000;fill-opacity:1;fill-rule:nonzero;stroke:none"
           id="text98"><tspan
             x="0"
             y="0"
             id="tspan96">2</tspan></text><text
           transform="matrix(1,0,0,-1,205.05757,128.127)"
           style="font-variant:normal;font-weight:normal;font-size:7.6px;font-family:Symbol;-inkscape-font-specification:Symbol;writing-mode:lr-tb;fill:#000000;fill-opacity:1;fill-rule:nonzero;stroke:none"
           id="text102"><tspan
             x="0 4.1724"
             y="0"
             id="tspan100">− </tspan></text><text
           transform="matrix(1,0,0,-1,211.12984,128.127)"
           style="font-variant:normal;font-weight:normal;font-size:7.6px;font-family:'Times New Roman';-inkscape-font-specification:Times-Roman;writing-mode:lr-tb;fill:#000000;fill-opacity:1;fill-rule:nonzero;stroke:none"
           id="text106"><tspan
             x="0 53.136311 81.220665"
             y="0"
             id="tspan104">112</tspan></text><text
           transform="matrix(1,0,0,-1,319.60184,136.83442)"
           style="font-style:italic;font-variant:normal;font-size:7.6px;font-family:'Times New Roman';-inkscape-font-specification:Times-Italic;writing-mode:lr-tb;fill:#000000;fill-opacity:1;fill-rule:nonzero;stroke:none"
           id="text112"><tspan
             x="0"
             y="0"
             id="tspan108">u</tspan><tspan
             x="-81.366402"
             y="-105.426"
             id="tspan110">v</tspan></text></g><path
         d="m 1697.66,1510.68 58.51,1.41 58.51,1.8 58.51,2.4 58.51,3.26 29.26,2.07 29.27,2.48 29.24,2.99 29.26,3.64 29.26,4.5 29.24,5.63 29.26,7.17 29.26,9.28 29.25,12.31 29.26,16.68 29.26,23.28 14.62,15.18 14.63,18.37 29.27,49.77 14.6,33.51 14.65,40.4 14.61,46.71 14.64,48.73 7.31,22.04 3.65,9.63 3.66,8.35 3.67,6.81 1.82,2.77 1.83,2.28 1.83,1.81 1.83,1.31 1.82,0.78 1.84,0.26 1.83,-0.26 1.82,-0.78 1.84,-1.31 1.82,-1.81 1.83,-2.28 1.83,-2.77 3.66,-6.81 7.31,-17.98 7.31,-22.04 29.25,-95.44 14.64,-40.4 14.62,-33.51 14.64,-27.39 14.62,-22.38 29.25,-33.55 14.63,-12.65 14.63,-10.63"
         style="fill:none;stroke:#bfeafb;stroke-width:6.385;stroke-linecap:butt;stroke-linejoin:miter;stroke-miterlimit:4;stroke-dasharray:none;stroke-opacity:1"
         id="path114" /><path
         d="m 2575.33,1586.3 29.26,-16.68 29.25,-12.31 29.26,-9.28 29.25,-7.17 29.26,-5.63 29.25,-4.5 29.25,-3.64 29.27,-2.99 58.51,-4.55 58.51,-3.26 58.51,-2.4 58.51,-1.8 58.51,-1.41"
         style="fill:none;stroke:#bfeafb;stroke-width:6.385;stroke-linecap:butt;stroke-linejoin:miter;stroke-miterlimit:4;stroke-dasharray:none;stroke-opacity:1"
         id="path116" /><path
         d="m 2809.38,1644.57 58.51,-8.34 58.51,-6.05 58.51,-4.53 58.51,-3.45 58.51,-2.7"
         style="fill:none;stroke:#bfeafb;stroke-width:6.385;stroke-linecap:butt;stroke-linejoin:miter;stroke-miterlimit:4;stroke-dasharray:none;stroke-opacity:1"
         id="path118" /><path
         d="m 3043.42,1947.27 58.51,-5.2"
         style="fill:none;stroke:#bfeafb;stroke-width:6.385;stroke-linecap:butt;stroke-linejoin:miter;stroke-miterlimit:4;stroke-dasharray:none;stroke-opacity:1"
         id="path120" /><path
         d="m 3043.42,2053.44 58.51,-5.53"
         style="fill:none;stroke:#bfeafb;stroke-width:6.385;stroke-linecap:butt;stroke-linejoin:miter;stroke-miterlimit:4;stroke-dasharray:none;stroke-opacity:1"
         id="path122" /><path
         d="m 1696.82,1401.59 h 1405.4"
         style="fill:#000000;fill-opacity:1;fill-rule:nonzero;stroke:none"
         id="path124" /><path
         d="m 1696.82,1401.59 h 1405.4"
         style="fill:none;stroke:#000000;stroke-width:7.5;stroke-linecap:butt;stroke-linejoin:miter;stroke-miterlimit:4;stroke-dasharray:none;stroke-opacity:1"
         id="path126" /><path
         d="m 3096.77,1401.59 -11.7,19.25 0.65,0.44 31.4,-12.47 c 10.94,-2.4 21.88,-4.81 32.81,-7.22 -10.93,-2.41 -21.87,-4.81 -32.81,-7.21 l -31.4,-12.48 -0.65,0.33 11.7,19.36"
         style="fill:#000000;fill-opacity:1;fill-rule:nonzero;stroke:none"
         id="path128" /><path
         d="m 1702.27,1401.59 11.7,-19.25 -0.65,-0.44 -31.39,12.48 c -10.95,2.4 -21.88,4.8 -32.82,7.21 10.94,2.41 21.87,4.82 32.82,7.22 l 31.39,12.47 0.65,-0.33 -11.7,-19.36"
         style="fill:#000000;fill-opacity:1;fill-rule:nonzero;stroke:none"
         id="path130" /><path
         d="m 2399.8,1915.19 v 398.4"
         style="fill:none;stroke:#000000;stroke-width:7.5;stroke-linecap:butt;stroke-linejoin:miter;stroke-miterlimit:4;stroke-dasharray:none;stroke-opacity:1"
         id="path132" /><path
         d="m 2399.8,2308.13 -19.25,-11.7 -0.44,0.65 12.47,31.4 c 2.4,10.93 4.81,21.87 7.22,32.81 2.4,-10.94 4.81,-21.88 7.22,-32.81 l 12.47,-31.4 -0.33,-0.65 -19.36,11.7"
         style="fill:#000000;fill-opacity:1;fill-rule:nonzero;stroke:none"
         id="path134" /><path
         d="m 2399.8,1406.93 v 508.26"
         style="fill:none;stroke:#80d6f7;stroke-width:10;stroke-linecap:butt;stroke-linejoin:miter;stroke-miterlimit:4;stroke-dasharray:none;stroke-opacity:1"
         id="path136" /><path
         d="m 2399.8,2313.59 v 0 0 z"
         style="fill:#000000;fill-opacity:1;fill-rule:nonzero;stroke:none"
         id="path138" /><path
         d="m 976.484,507.59 v 9.152"
         style="fill:none;stroke:#000000;stroke-width:3.085;stroke-linecap:butt;stroke-linejoin:miter;stroke-miterlimit:4;stroke-dasharray:none;stroke-opacity:1"
         id="path140" /><g
         id="g142"
         transform="scale(10)"><text
           transform="matrix(1,0,0,-1,89.8738,39.4313)"
           style="font-variant:normal;font-weight:normal;font-size:7.6px;font-family:Symbol;-inkscape-font-specification:Symbol;writing-mode:lr-tb;fill:#000000;fill-opacity:1;fill-rule:nonzero;stroke:none"
           id="text146"><tspan
             x="0"
             y="0"
             id="tspan144">−</tspan></text><text
           transform="matrix(1,0,0,-1,94.04607,39.4313)"
           style="font-variant:normal;font-weight:normal;font-size:7.6px;font-family:'Times New Roman';-inkscape-font-specification:Times-Roman;writing-mode:lr-tb;fill:#000000;fill-opacity:1;fill-rule:nonzero;stroke:none"
           id="text152"><tspan
             x="0"
             y="0"
             id="tspan148">2</tspan><tspan
             x="108.47"
             y="-3.5027299"
             id="tspan150">2</tspan></text><text
           transform="matrix(1,0,0,-1,237.90397,47.32778)"
           style="font-style:italic;font-variant:normal;font-size:7.6px;font-family:'Times New Roman';-inkscape-font-specification:Times-Italic;writing-mode:lr-tb;fill:#000000;fill-opacity:1;fill-rule:nonzero;stroke:none"
           id="text156"><tspan
             x="0"
             y="0"
             id="tspan154">X</tspan></text><text
           transform="matrix(1,0,0,-1,139.14697,8.19968)"
           style="font-variant:normal;font-weight:normal;font-size:7.6px;font-family:Symbol;-inkscape-font-specification:Symbol;writing-mode:lr-tb;fill:#000000;fill-opacity:1;fill-rule:nonzero;stroke:none"
           id="text160"><tspan
             x="0"
             y="0"
             id="tspan158">−</tspan></text><text
           transform="matrix(1,0,0,-1,143.31924,8.19968)"
           style="font-variant:normal;font-weight:normal;font-size:7.6px;font-family:'Times New Roman';-inkscape-font-specification:Times-Roman;writing-mode:lr-tb;fill:#000000;fill-opacity:1;fill-rule:nonzero;stroke:none"
           id="text166"><tspan
             x="0"
             y="0"
             id="tspan162">3</tspan><tspan
             x="-0.177734"
             y="-78.0187"
             id="tspan164">3</tspan></text><text
           transform="matrix(1,0,0,-1,148.83018,113.62228)"
           style="font-style:italic;font-variant:normal;font-size:7.6px;font-family:'Times New Roman';-inkscape-font-specification:Times-Italic;writing-mode:lr-tb;fill:#000000;fill-opacity:1;fill-rule:nonzero;stroke:none"
           id="text170"><tspan
             x="0"
             y="0"
             id="tspan168">Y</tspan></text></g><path
         d="M 1509.43,54.6914 V 960.469"
         style="fill:none;stroke:#000000;stroke-width:7.5;stroke-linecap:butt;stroke-linejoin:miter;stroke-miterlimit:4;stroke-dasharray:none;stroke-opacity:1"
         id="path172" /><path
         d="m 1460.64,54.6914 -34.69,12.5742"
         style="fill:none;stroke:#bfeafb;stroke-width:6.17;stroke-linecap:butt;stroke-linejoin:miter;stroke-miterlimit:4;stroke-dasharray:none;stroke-opacity:1"
         id="path174" /><path
         d="m 1425.95,67.2656 -150.35,62.9024 -127.22,62.898 -104.1,62.903 -80.96,62.91 -31.797,31.449 -26.019,31.449 -20.238,31.461 -7.961,15.723 -6.504,15.719 -5.059,15.718 -1.992,7.868 -1.633,7.871 -1.254,7.847 -0.504,3.938 -0.402,3.937 -0.312,3.926 -0.133,1.969 -0.098,1.965 -0.078,1.957 -0.059,1.969 -0.027,1.976 -0.012,1.969 0.012,1.961 0.027,1.957 0.059,1.969 0.078,1.957 0.098,1.968 0.133,1.969 0.312,3.942 0.402,3.921 0.504,3.934 1.254,7.871 1.633,7.848 1.992,7.875 5.059,15.726 6.504,15.723 7.961,15.727 20.238,31.453 26.019,31.437 31.797,31.449 80.96,62.911 104.1,62.902 127.22,62.898 150.35,62.903"
         style="fill:none;stroke:#bfeafb;stroke-width:6.17;stroke-linecap:butt;stroke-linejoin:miter;stroke-miterlimit:4;stroke-dasharray:none;stroke-opacity:1"
         id="path176" /><path
         d="m 1460.64,960.469 -34.69,-12.578"
         style="fill:none;stroke:#bfeafb;stroke-width:6.17;stroke-linecap:butt;stroke-linejoin:miter;stroke-miterlimit:4;stroke-dasharray:none;stroke-opacity:1"
         id="path178" /><path
         d="m 2282.19,407.836 -113.09,5.402"
         style="fill:none;stroke:#bfeafb;stroke-width:6.17;stroke-linecap:butt;stroke-linejoin:miter;stroke-miterlimit:4;stroke-dasharray:none;stroke-opacity:1"
         id="path180" /><path
         d="m 2169.1,413.238 -196.6,10.473 -173.49,10.484 -150.35,10.485 -127.23,10.48 -104.09,10.477 -80.95,10.5 -31.81,5.23 -26.03,5.242 -20.23,5.25 -7.95,2.618 -6.5,2.609 -5.06,2.633 -1.99,1.316 -1.63,1.309 -1.26,1.301 -0.5,0.656 -0.41,0.66 -0.32,0.66 -0.12,0.32 -0.1,0.329 -0.08,0.332 -0.06,0.316 -0.04,0.332 v 0.34 0.308 l 0.04,0.34 0.06,0.332 0.08,0.317 0.1,0.324 0.12,0.34 0.32,0.648 0.41,0.653 0.5,0.656 1.26,1.308 1.63,1.321 1.99,1.297 5.06,2.629 6.5,2.621 7.95,2.629 20.23,5.234 26.03,5.238 31.81,5.254 80.95,10.481 104.09,10.476 127.23,10.492 150.35,10.473 173.49,10.484 196.6,10.493"
         style="fill:none;stroke:#bfeafb;stroke-width:6.17;stroke-linecap:butt;stroke-linejoin:miter;stroke-miterlimit:4;stroke-dasharray:none;stroke-opacity:1"
         id="path182" /><path
         d="M 2282.19,607.324 2169.1,601.938"
         style="fill:none;stroke:#bfeafb;stroke-width:6.17;stroke-linecap:butt;stroke-linejoin:miter;stroke-miterlimit:4;stroke-dasharray:none;stroke-opacity:1"
         id="path184" /><path
         d="m 2282.19,305.035 -145.07,13.844"
         style="fill:none;stroke:#bfeafb;stroke-width:6.17;stroke-linecap:butt;stroke-linejoin:miter;stroke-miterlimit:4;stroke-dasharray:none;stroke-opacity:1"
         id="path186" /><path
         d="m 2137.12,318.879 -196.61,20.976 -173.48,20.946 -150.35,20.976 -127.23,20.977 -104.09,20.957 -80.96,20.969 -31.8,10.48 -26.03,10.477 -20.23,10.5 -7.95,5.23 -6.5,5.242 -5.06,5.25 -1.99,2.618 -1.63,2.609 -1.27,2.633 -0.49,1.316 -0.41,1.309 -0.31,1.301 -0.13,0.656 -0.1,0.66 -0.07,0.66 -0.07,0.649 -0.02,0.648 -0.02,0.672 0.02,0.648 0.02,0.649 0.07,0.664 0.07,0.648 0.1,0.653 0.13,0.656 0.31,1.308 0.41,1.321 0.49,1.297 1.27,2.629 1.63,2.621 1.99,2.629 5.06,5.234 6.5,5.238 7.95,5.254 20.23,10.481 26.03,10.476 31.8,10.492 80.96,20.957 104.09,20.977 127.23,20.969 150.35,20.964 173.48,20.965 196.61,20.957"
         style="fill:none;stroke:#bfeafb;stroke-width:6.17;stroke-linecap:butt;stroke-linejoin:miter;stroke-miterlimit:4;stroke-dasharray:none;stroke-opacity:1"
         id="path188" /><path
         d="M 2282.19,710.129 2137.12,696.277"
         style="fill:none;stroke:#bfeafb;stroke-width:6.17;stroke-linecap:butt;stroke-linejoin:miter;stroke-miterlimit:4;stroke-dasharray:none;stroke-opacity:1"
         id="path190" /><path
         d="m 2282.19,196.137 -198.35,28.379"
         style="fill:none;stroke:#bfeafb;stroke-width:6.17;stroke-linecap:butt;stroke-linejoin:miter;stroke-miterlimit:4;stroke-dasharray:none;stroke-opacity:1"
         id="path192" /><path
         d="m 2083.84,224.516 -196.61,31.453 -173.5,31.457 -150.34,31.453 -127.23,31.449 -104.08,31.449 -80.97,31.461 -31.79,15.723 -26.03,15.719 -20.24,15.718 -7.96,7.868 -6.5,7.871 -5.07,7.847 -1.98,3.938 -1.62,3.937 -1.28,3.926 -0.48,1.969 -0.41,1.965 -0.32,1.957 -0.12,0.984 -0.1,0.985 -0.09,0.988 -0.05,0.988 -0.04,0.981 -0.01,0.988 0.01,0.98 0.04,0.981 0.05,0.988 0.09,0.969 0.1,0.988 0.12,0.981 0.32,1.957 0.41,1.968 0.48,1.969 1.28,3.942 1.62,3.921 1.98,3.934 5.07,7.871 6.5,7.848 7.96,7.875 20.24,15.726 26.03,15.723 31.79,15.727 80.97,31.453 104.08,31.437 127.23,31.449 150.34,31.453 173.5,31.458 196.61,31.453"
         style="fill:none;stroke:#bfeafb;stroke-width:6.17;stroke-linecap:butt;stroke-linejoin:miter;stroke-miterlimit:4;stroke-dasharray:none;stroke-opacity:1"
         id="path194" /><path
         d="M 2282.19,819.02 2083.84,790.641"
         style="fill:none;stroke:#bfeafb;stroke-width:6.17;stroke-linecap:butt;stroke-linejoin:miter;stroke-miterlimit:4;stroke-dasharray:none;stroke-opacity:1"
         id="path196" /><path
         d="m 2282.19,79.0469 -53.23,9.1836"
         style="fill:none;stroke:#bfeafb;stroke-width:6.17;stroke-linecap:butt;stroke-linejoin:miter;stroke-miterlimit:4;stroke-dasharray:none;stroke-opacity:1"
         id="path198" /><path
         d="m 2228.96,88.2305 -219.74,41.9375 -196.6,41.941 -173.5,41.934 -150.34,41.926 -127.23,41.941 -104.09,41.945 -80.96,41.922 -31.8,20.977 -26.03,20.957 -20.24,20.969 -7.94,10.48 -6.51,10.477 -5.06,10.5 -1.99,5.23 -1.63,5.242 -1.25,5.25 -0.5,2.618 -0.41,2.609 -0.33,2.633 -0.11,1.316 -0.1,1.309 -0.09,1.301 -0.05,1.316 -0.04,1.309 v 1.32 1.297 l 0.04,1.312 0.05,1.309 0.09,1.308 0.1,1.321 0.11,1.297 0.33,2.629 0.41,2.621 0.5,2.629 1.25,5.234 1.63,5.238 1.99,5.254 5.06,10.481 6.51,10.476 7.94,10.492 20.24,20.957 26.03,20.977 31.8,20.969 80.96,41.929 104.09,41.938 127.23,41.93 150.34,41.941 173.5,41.93 196.6,41.929"
         style="fill:none;stroke:#bfeafb;stroke-width:6.17;stroke-linecap:butt;stroke-linejoin:miter;stroke-miterlimit:4;stroke-dasharray:none;stroke-opacity:1"
         id="path200" /><path
         d="m 2009.22,884.988 219.74,41.938"
         style="fill:none;stroke:#bfeafb;stroke-width:6.17;stroke-linecap:butt;stroke-linejoin:miter;stroke-miterlimit:4;stroke-dasharray:none;stroke-opacity:1"
         id="path202" /><path
         d="m 2282.19,936.109 -53.23,-9.183"
         style="fill:none;stroke:#bfeafb;stroke-width:6.17;stroke-linecap:butt;stroke-linejoin:miter;stroke-miterlimit:4;stroke-dasharray:none;stroke-opacity:1"
         id="path204" /><path
         d="M 1842.51,54.6914 1716.68,88.2305"
         style="fill:none;stroke:#bfeafb;stroke-width:6.17;stroke-linecap:butt;stroke-linejoin:miter;stroke-miterlimit:4;stroke-dasharray:none;stroke-opacity:1"
         id="path206" /><path
         d="m 1716.68,88.2305 -173.49,52.4375 -150.35,52.398 -127.21,52.426 -104.1,52.418 -80.96,52.418 -31.81,26.203 -26.01,26.223 -20.24,26.207 -7.959,13.102 -6.504,13.097 -5.059,13.106 -1.992,6.543 -1.633,6.558 -1.254,6.555 -0.504,3.269 -0.402,3.286 -0.308,3.277 -0.137,1.633 -0.098,1.648 -0.078,1.625 -0.059,1.641 -0.031,1.64 -0.008,1.649 0.008,1.621 0.031,1.641 0.059,1.644 0.078,1.641 0.098,1.64 0.137,1.625 0.308,3.282 0.402,3.277 0.504,3.273 1.254,6.551 1.633,6.559 1.992,6.543 5.059,13.109 6.504,13.094 7.959,13.121 20.24,26.211 26.01,26.195 31.81,26.211 80.96,52.43 104.1,52.414 127.21,52.418 150.35,52.422 173.49,52.414"
         style="fill:none;stroke:#bfeafb;stroke-width:6.17;stroke-linecap:butt;stroke-linejoin:miter;stroke-miterlimit:4;stroke-dasharray:none;stroke-opacity:1"
         id="path208" /><path
         d="M 1842.51,960.469 1716.68,926.926"
         style="fill:none;stroke:#bfeafb;stroke-width:6.17;stroke-linecap:butt;stroke-linejoin:miter;stroke-miterlimit:4;stroke-dasharray:none;stroke-opacity:1"
         id="path210" /><path
         d="m 1236.66,507.59 h 272.77"
         style="fill:none;stroke:#80d6f7;stroke-width:10;stroke-linecap:butt;stroke-linejoin:miter;stroke-miterlimit:4;stroke-dasharray:none;stroke-opacity:1"
         id="path212" /><path
         d="M 1509.43,54.6914 V 1040.31"
         style="fill:#000000;fill-opacity:1;fill-rule:nonzero;stroke:none"
         id="path214" /><path
         d="M 1509.43,54.6914 V 1040.31"
         style="fill:none;stroke:#000000;stroke-width:7.5;stroke-linecap:butt;stroke-linejoin:miter;stroke-miterlimit:4;stroke-dasharray:none;stroke-opacity:1"
         id="path216" /><path
         d="m 1509.43,1034.86 -19.25,-11.71 -0.45,0.65 12.48,31.4 c 2.4,10.94 4.81,21.89 7.22,32.82 2.41,-10.93 4.81,-21.88 7.22,-32.82 l 12.47,-31.4 -0.33,-0.65 -19.36,11.71"
         style="fill:#000000;fill-opacity:1;fill-rule:nonzero;stroke:none"
         id="path218" /><path
         d="m 1509.43,60.1445 19.25,11.7032 0.44,-0.6524 -12.47,-31.3906 c -2.41,-10.9375 -4.81,-21.8828 -7.22,-32.82423 -2.41,10.94143 -4.81,21.88673 -7.22,32.82423 l -12.48,31.3906 0.34,0.6524 19.36,-11.7032"
         style="fill:#000000;fill-opacity:1;fill-rule:nonzero;stroke:none"
         id="path220" /><path
         d="m 2282.19,507.578 v 0 0 z"
         style="fill:#000000;fill-opacity:1;fill-rule:nonzero;stroke:none"
         id="path222" /><path
         d="m 2282.19,507.578 v 0 0 0"
         style="fill:none;stroke:#000000;stroke-width:7.5;stroke-linecap:butt;stroke-linejoin:miter;stroke-miterlimit:4;stroke-dasharray:none;stroke-opacity:1"
         id="path224" /><path
         d="m 1509.43,960.469 v 0 0 z"
         style="fill:#000000;fill-opacity:1;fill-rule:nonzero;stroke:none"
         id="path226" /><path
         d="m 1509.43,960.469 v 0 0 0"
         style="fill:none;stroke:#000000;stroke-width:7.5;stroke-linecap:butt;stroke-linejoin:miter;stroke-miterlimit:4;stroke-dasharray:none;stroke-opacity:1"
         id="path228" /><path
         d="m 1030.04,1375.48 v 28.29"
         style="fill:none;stroke:#000000;stroke-width:5;stroke-linecap:butt;stroke-linejoin:miter;stroke-miterlimit:4;stroke-dasharray:none;stroke-opacity:1"
         id="path230" /><path
         d="m 469.535,1377.86 v 27.49"
         style="fill:none;stroke:#000000;stroke-width:5;stroke-linecap:butt;stroke-linejoin:miter;stroke-miterlimit:4;stroke-dasharray:none;stroke-opacity:1"
         id="path232" /><path
         d="m 189.285,1376.08 v 22.94"
         style="fill:none;stroke:#000000;stroke-width:5;stroke-linecap:butt;stroke-linejoin:miter;stroke-miterlimit:4;stroke-dasharray:none;stroke-opacity:1"
         id="path234" /><path
         d="m 1309.69,1377.27 v 20.17"
         style="fill:none;stroke:#000000;stroke-width:5;stroke-linecap:butt;stroke-linejoin:miter;stroke-miterlimit:4;stroke-dasharray:none;stroke-opacity:1"
         id="path236" /><path
         d="m 2673.54,1375.48 v 21.96"
         style="fill:none;stroke:#000000;stroke-width:5;stroke-linecap:butt;stroke-linejoin:miter;stroke-miterlimit:4;stroke-dasharray:none;stroke-opacity:1"
         id="path238" /><path
         d="m 2113.04,1376.08 v 23.35"
         style="fill:none;stroke:#000000;stroke-width:5;stroke-linecap:butt;stroke-linejoin:miter;stroke-miterlimit:4;stroke-dasharray:none;stroke-opacity:1"
         id="path240" /><path
         d="m 1832.79,1376.08 v 22.94"
         style="fill:none;stroke:#000000;stroke-width:5;stroke-linecap:butt;stroke-linejoin:miter;stroke-miterlimit:4;stroke-dasharray:none;stroke-opacity:1"
         id="path242" /><path
         d="m 2953.19,1377.27 v 20.17"
         style="fill:none;stroke:#000000;stroke-width:5;stroke-linecap:butt;stroke-linejoin:miter;stroke-miterlimit:4;stroke-dasharray:none;stroke-opacity:1"
         id="path244" /><path
         d="m 2042.38,508.313 v 21.195"
         style="fill:none;stroke:#000000;stroke-width:5;stroke-linecap:butt;stroke-linejoin:miter;stroke-miterlimit:4;stroke-dasharray:none;stroke-opacity:1"
         id="path246" /><path
         d="m 1775.79,509.496 v 20.606"
         style="fill:none;stroke:#000000;stroke-width:5;stroke-linecap:butt;stroke-linejoin:miter;stroke-miterlimit:4;stroke-dasharray:none;stroke-opacity:1"
         id="path248" /><path
         d="m 1489.6,633.59 h 15.26"
         style="fill:none;stroke:#000000;stroke-width:5;stroke-linecap:butt;stroke-linejoin:miter;stroke-miterlimit:4;stroke-dasharray:none;stroke-opacity:1"
         id="path250" /><path
         d="m 1489.6,369.172 h 15.26"
         style="fill:none;stroke:#000000;stroke-width:5;stroke-linecap:butt;stroke-linejoin:miter;stroke-miterlimit:4;stroke-dasharray:none;stroke-opacity:1"
         id="path252" /><path
         d="m 1488.78,758.871 h 16.08"
         style="fill:none;stroke:#000000;stroke-width:5;stroke-linecap:butt;stroke-linejoin:miter;stroke-miterlimit:4;stroke-dasharray:none;stroke-opacity:1"
         id="path254" /><path
         d="m 1490.79,884.746 h 14.67"
         style="fill:none;stroke:#000000;stroke-width:5;stroke-linecap:butt;stroke-linejoin:miter;stroke-miterlimit:4;stroke-dasharray:none;stroke-opacity:1"
         id="path256" /><path
         d="m 1489.6,123.559 h 15.26"
         style="fill:none;stroke:#000000;stroke-width:5;stroke-linecap:butt;stroke-linejoin:miter;stroke-miterlimit:4;stroke-dasharray:none;stroke-opacity:1"
         id="path258" /><path
         d="m 1490.79,248.844 h 14.07"
         style="fill:none;stroke:#000000;stroke-width:5;stroke-linecap:butt;stroke-linejoin:miter;stroke-miterlimit:4;stroke-dasharray:none;stroke-opacity:1"
         id="path260" /><g
         id="g262"
         transform="scale(10)"><text
           transform="matrix(1,0,0,-1,150.979,243.531)"
           style="font-style:italic;font-variant:normal;font-size:7.6px;font-family:'Times New Roman';-inkscape-font-specification:Times-Italic;writing-mode:lr-tb;fill:#000000;fill-opacity:1;fill-rule:nonzero;stroke:none"
           id="text266"><tspan
             x="0 5.0692 6.9692001 12.0992 13.9992 16.112 18.011999 20.542801 23.499201"
             y="0"
             id="tspan264">w = f (z)</tspan></text></g><path
         d="m 1510.77,2361.89 c 257.3,0 257.3,0 257.3,0"
         style="fill:#000000;fill-opacity:1;fill-rule:nonzero;stroke:none"
         id="path268" /><path
         d="m 1510.77,2361.89 c 257.3,0 257.3,0 257.3,0"
         style="fill:none;stroke:#000000;stroke-width:7.5;stroke-linecap:butt;stroke-linejoin:miter;stroke-miterlimit:4;stroke-dasharray:none;stroke-opacity:1"
         id="path270" /><path
         d="m 1762.61,2361.89 -11.7,19.25 0.65,0.43 31.4,-12.47 c 10.93,-2.4 21.88,-4.81 32.82,-7.21 -10.94,-2.42 -21.89,-4.82 -32.82,-7.22 l -31.4,-12.48 -0.65,0.33 11.7,19.37"
         style="fill:#000000;fill-opacity:1;fill-rule:nonzero;stroke:none"
         id="path272" /><path
         d="M 708.617,789.355 513.563,1081.93"
         style="fill:#ffffff;fill-opacity:1;fill-rule:nonzero;stroke:none"
         id="path274" /><path
         d="M 708.617,789.355 513.563,1081.93"
         style="fill:none;stroke:#000000;stroke-width:7.5;stroke-linecap:butt;stroke-linejoin:miter;stroke-miterlimit:4;stroke-dasharray:none;stroke-opacity:1"
         id="path276" /><path
         d="m 705.598,793.891 9.523,20.422 0.723,-0.305 7.043,-33.035 c 4.066,-10.442 8.129,-20.875 12.195,-31.317 -8.07,7.77 -16.137,15.543 -24.215,23.309 l -27.781,19.203 -0.094,0.723 22.606,1"
         style="fill:#000000;fill-opacity:1;fill-rule:nonzero;stroke:none"
         id="path278" /><path
         d="m 2589.91,733.082 197.31,295.968"
         style="fill:#ffffff;fill-opacity:1;fill-rule:nonzero;stroke:none"
         id="path280" /><path
         d="m 2589.91,733.082 197.31,295.968"
         style="fill:none;stroke:#000000;stroke-width:7.5;stroke-linecap:butt;stroke-linejoin:miter;stroke-miterlimit:4;stroke-dasharray:none;stroke-opacity:1"
         id="path282" /><path
         d="m 2784.2,1024.51 -22.52,0.94 0.01,0.78 27.79,19.21 c 8.07,7.77 16.14,15.54 24.21,23.31 -4.08,-10.45 -8.14,-20.88 -12.2,-31.32 l -7.04,-33.04 -0.63,-0.36 -9.62,20.48"
         style="fill:#000000;fill-opacity:1;fill-rule:nonzero;stroke:none"
         id="path284" /><g
         id="g286"
         transform="scale(10)"><text
           transform="matrix(1,0,0,-1,273.232,83.5078)"
           style="font-style:italic;font-variant:normal;font-size:7.6px;font-family:'Times New Roman';-inkscape-font-specification:Times-Italic;writing-mode:lr-tb;fill:#000000;fill-opacity:1;fill-rule:nonzero;stroke:none"
           id="text290"><tspan
             x="0 5.0692 6.9692001 12.0992 13.9992"
             y="0"
             id="tspan288">w = Z</tspan></text><text
           transform="matrix(1,0,0,-1,292.3508,89.84022)"
           style="font-variant:normal;font-weight:normal;font-size:6.65px;font-family:'Times New Roman';-inkscape-font-specification:Times-Roman;writing-mode:lr-tb;fill:#000000;fill-opacity:1;fill-rule:nonzero;stroke:none"
           id="text294"><tspan
             x="0"
             y="0"
             id="tspan292"></tspan></text><text
           transform="matrix(1,0,0,-1,71.534797,127.98752)"
           style="font-variant:normal;font-weight:normal;font-size:7.6px;font-family:'Times New Roman';-inkscape-font-specification:Times-Roman;writing-mode:lr-tb;fill:#000000;fill-opacity:1;fill-rule:nonzero;stroke:none"
           id="text300"><tspan
             x="0"
             y="0"
             id="tspan296">0</tspan><tspan
             x="165.181"
             y="-0.17812499"
             id="tspan298">0</tspan></text><text
           transform="matrix(1,0,0,-1,20.589797,83.448045)"
           style="font-style:italic;font-variant:normal;font-size:7.6px;font-family:'Times New Roman';-inkscape-font-specification:Times-Italic;writing-mode:lr-tb;fill:#000000;fill-opacity:1;fill-rule:nonzero;stroke:none"
           id="text304"><tspan
             x="0 4.2255998 6.1255999 11.2556 13.1556"
             y="0"
             id="tspan302">Z = z</tspan></text><text
           transform="matrix(1,0,0,-1,36.701897,85.348045)"
           style="font-variant:normal;font-weight:normal;font-size:5.7px;font-family:'Times New Roman';-inkscape-font-specification:Times-Roman;writing-mode:lr-tb;fill:#000000;fill-opacity:1;fill-rule:nonzero;stroke:none"
           id="text308"><tspan
             x="0"
             y="0"
             id="tspan306">2</tspan></text><text
           transform="matrix(1,0,0,-1,41.286267,83.159765)"
           style="font-variant:normal;font-weight:normal;font-size:7.6px;font-family:Symbol;-inkscape-font-specification:Symbol;writing-mode:lr-tb;fill:#000000;fill-opacity:1;fill-rule:nonzero;stroke:none"
           id="text312"><tspan
             x="0"
             y="0"
             id="tspan310">−</tspan></text><text
           transform="matrix(1,0,0,-1,45.458537,83.159765)"
           style="font-variant:normal;font-weight:normal;font-size:7.6px;font-family:'Times New Roman';-inkscape-font-specification:Times-Roman;writing-mode:lr-tb;fill:#000000;fill-opacity:1;fill-rule:nonzero;stroke:none"
           id="text316"><tspan
             x="0"
             y="0"
             id="tspan314">1</tspan></text></g><g
         id="g318"
         transform="scale(10)"><text
           transform="matrix(1,0,0,-1,29.141,129.65)"
           style="font-variant:normal;font-weight:normal;font-size:7.6px;font-family:Symbol;-inkscape-font-specification:Symbol;writing-mode:lr-tb;fill:#231f20;fill-opacity:1;fill-rule:nonzero;stroke:none"
           id="text324"><tspan
             x="0"
             y="0"
             id="tspan320"></tspan><tspan
             x="282.388"
             y="43.193802"
             id="tspan322"></tspan></text></g><path
         d="m 1239.03,507.59 h 266.11"
         style="fill:none;stroke:#80d6f7;stroke-width:7.5;stroke-linecap:butt;stroke-linejoin:miter;stroke-miterlimit:4;stroke-dasharray:none;stroke-opacity:1"
         id="path326" /><path
         d="m 1509.43,507.59 h 772.76"
         style="fill:none;stroke:#000000;stroke-width:7.5;stroke-linecap:butt;stroke-linejoin:miter;stroke-miterlimit:4;stroke-dasharray:none;stroke-opacity:1"
         id="path328" /><path
         d="M 816.602,507.59 H 1236.66"
         style="fill:none;stroke:#000000;stroke-width:7.5;stroke-linecap:butt;stroke-linejoin:miter;stroke-miterlimit:4;stroke-dasharray:none;stroke-opacity:1"
         id="path330" /><path
         d="m 2276.73,507.59 -11.69,19.246 0.64,0.434 31.4,-12.465 c 10.94,-2.403 21.88,-4.805 32.82,-7.215 -10.94,-2.41 -21.88,-4.82 -32.82,-7.223 l -31.4,-12.469 -0.64,0.325 11.69,19.367"
         style="fill:#000000;fill-opacity:1;fill-rule:nonzero;stroke:none"
         id="path332" /><path
         d="m 822.051,507.59 11.703,-19.254 -0.652,-0.438 -31.391,12.469 c -10.941,2.403 -21.875,4.809 -32.816,7.223 10.941,2.398 21.875,4.812 32.816,7.215 l 31.391,12.465 0.652,-0.321 -11.703,-19.359"
         style="fill:#000000;fill-opacity:1;fill-rule:nonzero;stroke:none"
         id="path334" /><g
         id="g336"
         transform="scale(10)"><text
           transform="matrix(1,0,0,-1,293.575,92.5)"
           style="font-variant:normal;font-weight:normal;font-size:5.7px;font-family:'Times New Roman';-inkscape-font-specification:Times-Roman;writing-mode:lr-tb;fill:#231f20;fill-opacity:1;fill-rule:nonzero;stroke:none"
           id="text342"><tspan
             x="0 2.8499999"
             y="0"
             id="tspan338">1</tspan><tspan
             x="0"
             y="6.6999998"
             id="tspan340">2</tspan></text></g><path
         d="m 2930,910 h 42.5"
         style="fill:none;stroke:#000000;stroke-width:3;stroke-linecap:butt;stroke-linejoin:miter;stroke-miterlimit:4;stroke-dasharray:none;stroke-opacity:1"
         id="path344" /></g></g></svg>
