<?xml version="1.0" encoding="UTF-8" standalone="no"?>
<svg
   xmlns:dc="http://purl.org/dc/elements/1.1/"
   xmlns:cc="http://creativecommons.org/ns#"
   xmlns:rdf="http://www.w3.org/1999/02/22-rdf-syntax-ns#"
   xmlns:svg="http://www.w3.org/2000/svg"
   xmlns="http://www.w3.org/2000/svg"
   version="1.1"
   id="svg2"
   xml:space="preserve"
   width="357.33334"
   height="181.33333"
   viewBox="0 0 357.33334 181.33333"><metadata
     id="metadata8"><rdf:RDF><cc:Work
         rdf:about=""><dc:format>image/svg+xml</dc:format><dc:type
           rdf:resource="http://purl.org/dc/dcmitype/StillImage" /></cc:Work></rdf:RDF></metadata><defs
     id="defs6" /><g
     id="g10"
     transform="matrix(1.3333333,0,0,-1.3333333,0,181.33333)"><g
       id="g12"
       transform="scale(0.1)"><path
         d="m 280.977,291.055 h 713.996 l -294,419.996 V 1215.04 H 280.977 V 291.055"
         style="fill:#cceffc;fill-opacity:1;fill-rule:nonzero;stroke:none"
         id="path14" /><path
         d="M 280.977,291.055 V 81.0547"
         style="fill:none;stroke:#000000;stroke-width:7.5;stroke-linecap:round;stroke-linejoin:round;stroke-miterlimit:4;stroke-dasharray:none;stroke-opacity:1"
         id="path16" /><path
         d="M 700.973,711.051 583.375,879.047"
         style="fill:none;stroke:#000000;stroke-width:7.5;stroke-linecap:round;stroke-linejoin:round;stroke-miterlimit:4;stroke-dasharray:none;stroke-opacity:1"
         id="path18" /><path
         d="M 700.973,1215.04 V 983.125"
         style="fill:none;stroke:#80d6f7;stroke-width:10;stroke-linecap:round;stroke-linejoin:round;stroke-miterlimit:4;stroke-dasharray:none;stroke-opacity:1"
         id="path20" /><path
         d="M 700.973,916.875 V 711.051 L 844.844,505.52"
         style="fill:none;stroke:#80d6f7;stroke-width:10;stroke-linecap:round;stroke-linejoin:round;stroke-miterlimit:4;stroke-dasharray:none;stroke-opacity:1"
         id="path22" /><path
         d="M 882.727,451.406 994.973,291.055"
         style="fill:none;stroke:#80d6f7;stroke-width:10;stroke-linecap:round;stroke-linejoin:round;stroke-miterlimit:4;stroke-dasharray:none;stroke-opacity:1"
         id="path24" /><path
         d="M 986.809,291.055 H 1204.96"
         style="fill:none;stroke:#000000;stroke-width:7.5;stroke-linecap:round;stroke-linejoin:round;stroke-miterlimit:4;stroke-dasharray:none;stroke-opacity:1"
         id="path26" /><path
         d="M 541.875,291.055 H 986.809"
         style="fill:none;stroke:#80d6f7;stroke-width:10;stroke-linecap:round;stroke-linejoin:round;stroke-miterlimit:4;stroke-dasharray:none;stroke-opacity:1"
         id="path28" /><path
         d="M 262.5,291.055 H 476.25"
         style="fill:none;stroke:#80d6f7;stroke-width:10;stroke-linecap:round;stroke-linejoin:round;stroke-miterlimit:4;stroke-dasharray:none;stroke-opacity:1"
         id="path30" /><path
         d="m 280.977,291.055 v 0"
         style="fill:none;stroke:#000000;stroke-width:6;stroke-linecap:round;stroke-linejoin:round;stroke-miterlimit:4;stroke-dasharray:none;stroke-opacity:1"
         id="path32" /><path
         d="M 280.977,1257.05 V 291.055"
         style="fill:none;stroke:#80d6f7;stroke-width:10;stroke-linecap:round;stroke-linejoin:round;stroke-miterlimit:4;stroke-dasharray:none;stroke-opacity:1"
         id="path34" /><path
         d="M 700.973,711.051 H 1204.96"
         style="fill:none;stroke:#000000;stroke-width:5;stroke-linecap:round;stroke-linejoin:round;stroke-miterlimit:4;stroke-dasharray:none;stroke-opacity:1"
         id="path36" /><path
         d="m 280.977,291.055 h 21 l -0.414,4.16 -1.235,3.996 -2.004,3.676 -2.683,3.203 -3.274,2.605 -3.719,1.907 -4.023,1.132 -4.172,0.313 -4.148,-0.52 -3.965,-1.332 -3.625,-2.09 -3.133,-2.769 -2.523,-3.332 -1.813,-3.774 -1.035,-4.05 -0.207,-4.176 20.973,1.051"
         style="fill:#ffffff;fill-opacity:1;fill-rule:nonzero;stroke:none"
         id="path38" /><path
         d="m 280.977,291.055 -20.973,-1.051 0.625,-4.133 1.434,-3.933 2.175,-3.563 2.848,-3.066 3.394,-2.442 3.813,-1.719 4.074,-0.933 4.184,-0.102 4.121,0.727 3.891,1.527 3.507,2.274 2.996,2.918 2.36,3.457 1.621,3.851 0.828,4.102 v 4.179 l -20.898,-2.093"
         style="fill:#ffffff;fill-opacity:1;fill-rule:nonzero;stroke:none"
         id="path40" /><path
         d="m 700.973,711.051 h 21 l -0.414,4.16 -1.239,4 -1.996,3.672 -2.687,3.203 -3.27,2.605 -3.722,1.907 -4.028,1.132 -4.168,0.313 -4.148,-0.52 -3.965,-1.332 -3.625,-2.089 -3.137,-2.77 -2.523,-3.336 -1.813,-3.766 -1.027,-4.05 L 680,710 l 20.973,1.051"
         style="fill:#ffffff;fill-opacity:1;fill-rule:nonzero;stroke:none"
         id="path42" /><path
         d="M 700.973,711.051 680,710 l 0.625,-4.137 1.43,-3.929 2.183,-3.563 2.84,-3.066 3.402,-2.446 3.805,-1.714 4.078,-0.934 4.188,-0.106 4.113,0.731 3.895,1.527 3.511,2.27 2.993,2.922 2.355,3.457 1.621,3.851 0.832,4.102 v 4.18 l -20.898,-2.094"
         style="fill:#ffffff;fill-opacity:1;fill-rule:nonzero;stroke:none"
         id="path44" /><path
         d="m 994.973,291.055 h 20.997 l -0.42,4.16 -1.23,3.996 -2,3.676 -2.69,3.203 -3.27,2.605 -3.72,1.907 -4.027,1.132 -4.172,0.313 -4.144,-0.52 -3.965,-1.332 -3.621,-2.09 -3.137,-2.769 -2.523,-3.332 -1.817,-3.774 -1.031,-4.05 -0.203,-4.176 20.973,1.051"
         style="fill:#ffffff;fill-opacity:1;fill-rule:nonzero;stroke:none"
         id="path46" /><path
         d="M 994.973,291.055 974,290.004 l 0.617,-4.133 1.434,-3.933 2.179,-3.563 2.848,-3.066 3.395,-2.442 3.812,-1.719 4.078,-0.933 4.18,-0.102 4.117,0.727 3.89,1.527 3.52,2.274 2.99,2.918 2.35,3.457 1.63,3.851 0.82,4.102 v 4.179 l -20.887,-2.093"
         style="fill:#ffffff;fill-opacity:1;fill-rule:nonzero;stroke:none"
         id="path48" /><path
         d="m 301.977,291.055 -0.414,4.16 -1.235,3.996 -2.004,3.676 -2.683,3.203 -3.274,2.605 -3.719,1.907 -4.023,1.132 -4.172,0.313 -4.148,-0.52 -3.965,-1.332 -3.625,-2.09 -3.133,-2.769 -2.523,-3.332 -1.813,-3.774 -1.035,-4.05 -0.207,-4.176"
         style="fill:none;stroke:#80d6f7;stroke-width:9;stroke-linecap:round;stroke-linejoin:round;stroke-miterlimit:4;stroke-dasharray:none;stroke-opacity:1"
         id="path50" /><path
         d="m 260.004,290.004 0.625,-4.133 1.434,-3.933 2.175,-3.563 2.848,-3.066 3.394,-2.442 3.813,-1.719 4.074,-0.933 4.184,-0.102 4.121,0.727 3.891,1.527 3.507,2.274 2.996,2.918 2.36,3.457 1.621,3.851 0.828,4.102 v 4.179"
         style="fill:none;stroke:#80d6f7;stroke-width:9;stroke-linecap:round;stroke-linejoin:round;stroke-miterlimit:4;stroke-dasharray:none;stroke-opacity:1"
         id="path52" /><path
         d="m 721.973,711.051 -0.414,4.16 -1.239,4 -1.996,3.672 -2.687,3.203 -3.27,2.605 -3.722,1.907 -4.028,1.132 -4.168,0.313 -4.148,-0.52 -3.965,-1.332 -3.625,-2.089 -3.137,-2.77 -2.523,-3.336 -1.813,-3.766 -1.027,-4.05 L 680,710"
         style="fill:none;stroke:#80d6f7;stroke-width:9;stroke-linecap:round;stroke-linejoin:round;stroke-miterlimit:4;stroke-dasharray:none;stroke-opacity:1"
         id="path54" /><path
         d="m 680,710 0.625,-4.137 1.43,-3.929 2.183,-3.563 2.84,-3.066 3.402,-2.446 3.805,-1.714 4.078,-0.934 4.188,-0.106 4.113,0.731 3.895,1.527 3.511,2.27 2.993,2.922 2.355,3.457 1.621,3.851 0.832,4.102 v 4.18"
         style="fill:none;stroke:#80d6f7;stroke-width:9;stroke-linecap:round;stroke-linejoin:round;stroke-miterlimit:4;stroke-dasharray:none;stroke-opacity:1"
         id="path56" /><path
         d="m 1015.97,291.055 -0.42,4.16 -1.23,3.996 -2,3.676 -2.69,3.203 -3.27,2.605 -3.72,1.907 -4.027,1.132 -4.172,0.313 -4.144,-0.52 -3.965,-1.332 -3.621,-2.09 -3.137,-2.769 -2.523,-3.332 -1.817,-3.774 -1.031,-4.05 -0.203,-4.176"
         style="fill:none;stroke:#80d6f7;stroke-width:9;stroke-linecap:round;stroke-linejoin:round;stroke-miterlimit:4;stroke-dasharray:none;stroke-opacity:1"
         id="path58" /><path
         d="m 974,290.004 0.617,-4.133 1.434,-3.933 2.179,-3.563 2.848,-3.066 3.395,-2.442 3.812,-1.719 4.078,-0.933 4.18,-0.102 4.117,0.727 3.89,1.527 3.52,2.274 2.99,2.918 2.35,3.457 1.63,3.851 0.82,4.102 v 4.179"
         style="fill:none;stroke:#80d6f7;stroke-width:9;stroke-linecap:round;stroke-linejoin:round;stroke-miterlimit:4;stroke-dasharray:none;stroke-opacity:1"
         id="path60" /><path
         d="m 652.426,871.316 -10.801,12.063 0.406,0.394 23.821,-4.671 c 8.043,-0.262 16.086,-0.524 24.132,-0.782 -7.41,-3.14 -14.824,-6.277 -22.23,-9.425 l -20.535,-12.938 -0.508,0.141 5.715,15.218"
         style="fill:#000000;fill-opacity:1;fill-rule:nonzero;stroke:none"
         id="path62" /><path
         d="m 650.469,871.273 -3.051,-0.988 -3.027,-1.051 -3.008,-1.109 -2.988,-1.168 -2.965,-1.227 -2.942,-1.273 -2.914,-1.336 -2.89,-1.391 -2.86,-1.445 -2.832,-1.5 -2.808,-1.555 -2.774,-1.605 -2.742,-1.66 -2.711,-1.707 -2.684,-1.766 -2.64,-1.808"
         style="fill:none;stroke:#000000;stroke-width:6;stroke-linecap:round;stroke-linejoin:round;stroke-miterlimit:4;stroke-dasharray:none;stroke-opacity:1"
         id="path64" /><path
         d="m 280.977,123.059 4.121,0.046 4.121,0.153 4.117,0.254 4.109,0.351 4.098,0.457 4.086,0.555 4.066,0.652 4.055,0.758 4.039,0.856 4.008,0.949 3.988,1.051 3.961,1.148 3.93,1.242 3.898,1.344 3.867,1.438 3.829,1.531 3.789,1.621 3.75,1.719 3.699,1.812 3.664,1.895 3.613,1.992 3.559,2.074 3.511,2.164 3.458,2.246 3.398,2.332 3.344,2.418 3.281,2.496 3.219,2.578 3.152,2.653 3.094,2.734 3.019,2.801 2.95,2.883"
         style="fill:none;stroke:#000000;stroke-width:6;stroke-linecap:round;stroke-linejoin:round;stroke-miterlimit:4;stroke-dasharray:none;stroke-opacity:1"
         id="path66" /><path
         d="m 399.77,172.262 2.882,2.953 2.801,3.015 2.735,3.094 2.652,3.153 2.578,3.218 2.496,3.282 2.414,3.343 2.336,3.399 2.246,3.457 2.164,3.512 2.074,3.558 1.993,3.613 1.898,3.661 1.809,3.703 1.715,3.75 1.625,3.789 1.531,3.828 1.437,3.867 1.344,3.898 1.242,3.93 1.149,3.961 1.05,3.988"
         style="fill:none;stroke:#000000;stroke-width:6;stroke-linecap:round;stroke-linejoin:round;stroke-miterlimit:4;stroke-dasharray:none;stroke-opacity:1"
         id="path68" /><path
         d="m 440.094,237.133 -15.246,-5.457 -0.215,0.527 13.316,20.293 c 3.281,7.352 6.555,14.707 9.828,22.055 0.114,-8.047 0.227,-16.094 0.336,-24.141 l 4.242,-23.902 -0.328,-0.414 -11.933,11.039"
         style="fill:#000000;fill-opacity:1;fill-rule:nonzero;stroke:none"
         id="path70" /><path
         d="m 1162.97,291.055 -0.02,2.863 -0.08,2.863 -0.12,2.86 -0.17,2.859 -0.22,2.852 -0.27,2.851 -0.31,2.848 -0.37,2.836 -0.41,2.836 -0.46,2.824 -0.52,2.816 -0.55,2.813 -0.61,2.797 -0.65,2.789 -0.7,2.773 -0.75,2.766 -0.79,2.754 -0.84,2.734 -0.89,2.723 -0.94,2.707 -0.98,2.687 -1.02,2.672 -1.07,2.656 -1.12,2.637 -1.16,2.617 -1.21,2.598 -1.25,2.578 -1.29,2.555 -1.34,2.527 -1.38,2.512 -1.42,2.484 -1.46,2.461 -1.51,2.434 -1.55,2.41 -1.59,2.383 -1.62,2.351 -1.67,2.324 -1.71,2.301 -1.75,2.274 -1.78,2.234 -3.69,4.387 -3.82,4.258 -3.98,4.121 -4.11,3.984 -4.25,3.84 -4.37,3.695 -2.24,1.793 -2.26,1.754 -2.29,1.715 -2.32,1.676 -2.36,1.633 -2.37,1.597 -2.4,1.555 -2.44,1.512 -2.45,1.468 -2.48,1.434 -2.51,1.387 -2.53,1.34"
         style="fill:none;stroke:#000000;stroke-width:6;stroke-linecap:round;stroke-linejoin:round;stroke-miterlimit:4;stroke-dasharray:none;stroke-opacity:1"
         id="path72" /><path
         d="m 1072.55,440.063 -2.55,1.304 -2.57,1.254 -2.59,1.211 -2.62,1.172 -2.63,1.125 -2.65,1.078 -2.67,1.035 -2.69,0.988 -2.7,0.942 -2.72,0.891 -2.74,0.851 -2.74,0.801 -2.77,0.758 -2.77,0.707 -2.78,0.66 -2.81,0.613 -2.8,0.567 -2.82,0.519 -2.82,0.469 -2.83,0.418 -2.84,0.379 -2.85,0.32 -2.85,0.277 -2.85,0.227 -2.86,0.18 -2.86,0.129 -2.865,0.082 -2.86,0.035 -2.863,-0.024 -2.859,-0.062 -2.864,-0.114 -2.859,-0.164 -2.855,-0.211 -2.852,-0.257 -2.844,-0.309 -2.844,-0.355 -2.835,-0.407 -2.829,-0.453 -2.816,-0.504 -2.809,-0.55 -2.8,-0.594 -2.789,-0.649 -2.778,-0.691 -2.769,-0.738 -2.754,-0.785 -2.738,-0.836 -2.719,-0.883 -2.711,-0.922"
         style="fill:none;stroke:#000000;stroke-width:6;stroke-linecap:round;stroke-linejoin:round;stroke-miterlimit:4;stroke-dasharray:none;stroke-opacity:1"
         id="path74" /><path
         d="m 1645.98,276.055 h 923.99 v 419.996 h -503.99 v 543.989 h -420 V 276.055"
         style="fill:#cceffc;fill-opacity:1;fill-rule:nonzero;stroke:none"
         id="path76" /><path
         d="M 2065.98,1200.04 V 696.051 h 503.99"
         style="fill:none;stroke:#80d6f7;stroke-width:10;stroke-linecap:round;stroke-linejoin:round;stroke-miterlimit:4;stroke-dasharray:none;stroke-opacity:1"
         id="path78" /><path
         d="M 1645.98,1240 V 276.055 h 923.99"
         style="fill:none;stroke:#80d6f7;stroke-width:10;stroke-linecap:round;stroke-linejoin:round;stroke-miterlimit:4;stroke-dasharray:none;stroke-opacity:1"
         id="path80" /><path
         d="m 1645.98,276.055 h 21 l -0.42,4.16 -1.23,3.996 -2.01,3.676 -2.68,3.203 -3.28,2.605 -3.72,1.907 -4.01,1.132 -4.18,0.313 -4.15,-0.524 -3.96,-1.328 -3.63,-2.09 -3.13,-2.769 -2.52,-3.332 -1.81,-3.774 -1.04,-4.05 -0.21,-4.176 20.98,1.051"
         style="fill:#ffffff;fill-opacity:1;fill-rule:nonzero;stroke:none"
         id="path82" /><path
         d="m 1645.98,276.055 -20.98,-1.051 0.63,-4.133 1.43,-3.933 2.18,-3.567 2.85,-3.062 3.39,-2.442 3.81,-1.719 4.08,-0.933 4.18,-0.102 4.12,0.727 3.9,1.527 3.5,2.274 2.99,2.918 2.37,3.457 1.62,3.851 0.83,4.102 v 4.179 l -20.9,-2.093"
         style="fill:#ffffff;fill-opacity:1;fill-rule:nonzero;stroke:none"
         id="path84" /><path
         d="m 2065.98,696.051 h 20.99 l -0.41,4.16 -1.24,4 -2,3.672 -2.68,3.203 -3.28,2.605 -3.72,1.907 -4.02,1.132 -4.17,0.313 -4.15,-0.52 -3.96,-1.332 -3.63,-2.089 -3.14,-2.77 -2.51,-3.336 -1.82,-3.766 -1.03,-4.05 -0.21,-4.18 20.98,1.051"
         style="fill:#ffffff;fill-opacity:1;fill-rule:nonzero;stroke:none"
         id="path86" /><path
         d="M 2065.98,696.051 2045,695 l 0.63,-4.137 1.43,-3.929 2.18,-3.563 2.84,-3.066 3.4,-2.446 3.81,-1.714 4.07,-0.934 4.19,-0.106 4.11,0.731 3.9,1.527 3.51,2.27 2.99,2.922 2.35,3.457 1.63,3.851 0.84,4.102 v 4.18 l -20.9,-2.094"
         style="fill:#ffffff;fill-opacity:1;fill-rule:nonzero;stroke:none"
         id="path88" /><path
         d="m 1666.98,276.055 -0.42,4.16 -1.23,3.996 -2.01,3.676 -2.68,3.203 -3.28,2.605 -3.72,1.907 -4.01,1.132 -4.18,0.313 -4.15,-0.524 -3.96,-1.328 -3.63,-2.09 -3.13,-2.769 -2.52,-3.332 -1.81,-3.774 -1.04,-4.05 -0.21,-4.176"
         style="fill:none;stroke:#80d6f7;stroke-width:9;stroke-linecap:round;stroke-linejoin:round;stroke-miterlimit:4;stroke-dasharray:none;stroke-opacity:1"
         id="path90" /><path
         d="m 1625,275.004 0.63,-4.133 1.43,-3.933 2.18,-3.567 2.85,-3.062 3.39,-2.442 3.81,-1.719 4.08,-0.933 4.18,-0.102 4.12,0.727 3.9,1.527 3.5,2.274 2.99,2.918 2.37,3.457 1.62,3.851 0.83,4.102 v 4.179"
         style="fill:none;stroke:#80d6f7;stroke-width:9;stroke-linecap:round;stroke-linejoin:round;stroke-miterlimit:4;stroke-dasharray:none;stroke-opacity:1"
         id="path92" /><path
         d="m 2086.97,696.051 -0.41,4.16 -1.24,4 -2,3.672 -2.68,3.203 -3.28,2.605 -3.72,1.907 -4.02,1.132 -4.17,0.313 -4.15,-0.52 -3.96,-1.332 -3.63,-2.089 -3.14,-2.77 -2.51,-3.336 -1.82,-3.766 -1.03,-4.05 L 2045,695"
         style="fill:none;stroke:#80d6f7;stroke-width:9;stroke-linecap:round;stroke-linejoin:round;stroke-miterlimit:4;stroke-dasharray:none;stroke-opacity:1"
         id="path94" /><path
         d="m 2045,695 0.63,-4.137 1.43,-3.929 2.18,-3.563 2.84,-3.066 3.4,-2.446 3.81,-1.714 4.07,-0.934 4.19,-0.106 4.11,0.731 3.9,1.527 3.51,2.27 2.99,2.922 2.35,3.457 1.63,3.851 0.84,4.102 v 4.18"
         style="fill:none;stroke:#80d6f7;stroke-width:9;stroke-linecap:round;stroke-linejoin:round;stroke-miterlimit:4;stroke-dasharray:none;stroke-opacity:1"
         id="path96" /><g
         id="g98"
         transform="scale(10)"><text
           transform="matrix(1,0,0,-1,25.6664,128.834)"
           style="font-style:italic;font-variant:normal;font-size:8px;font-family:'Times New Roman';-inkscape-font-specification:Times-Italic;writing-mode:lr-tb;fill:#000000;fill-opacity:1;fill-rule:nonzero;stroke:none"
           id="text104"><tspan
             x="0"
             y="0"
             id="tspan100">v</tspan><tspan
             x="101.834"
             y="101.334"
             id="tspan102">u</tspan></text><text
           transform="matrix(1,0,0,-1,46.0004,7.5)"
           style="font-variant:normal;font-weight:normal;font-size:6px;font-family:'Times New Roman';-inkscape-font-specification:Times-Roman;writing-mode:lr-tb;fill:#000000;fill-opacity:1;fill-rule:nonzero;stroke:none"
           id="text112"><tspan
             x="0"
             y="0"
             id="tspan106">1</tspan><tspan
             x="67.25"
             y="-38.25"
             id="tspan108">2</tspan><tspan
             x="17.9508"
             y="-85.512901"
             id="tspan110">3</tspan></text><text
           transform="matrix(1,0,0,-1,163.0004,128.8336)"
           style="font-style:italic;font-variant:normal;font-size:8px;font-family:'Times New Roman';-inkscape-font-specification:Times-Italic;writing-mode:lr-tb;fill:#000000;fill-opacity:1;fill-rule:nonzero;stroke:none"
           id="text120"><tspan
             x="0"
             y="0"
             id="tspan114">v</tspan><tspan
             x="100.5"
             y="102.834"
             id="tspan116">u</tspan><tspan
             x="-5 0.336"
             y="110.834"
             id="tspan118">w </tspan></text><text
           transform="matrix(1,0,0,-1,167.33634,17.9996)"
           style="font-variant:normal;font-weight:normal;font-size:8px;font-family:'Times New Roman';-inkscape-font-specification:Times-Roman;writing-mode:lr-tb;fill:#000000;fill-opacity:1;fill-rule:nonzero;stroke:none"
           id="text124"><tspan
             x="0"
             y="0"
             id="tspan122">=</tspan></text><text
           transform="matrix(1,0,0,-1,175.84845,17.9996)"
           style="font-variant:normal;font-weight:normal;font-size:8px;font-family:'Times New Roman';-inkscape-font-specification:Times-Roman;writing-mode:lr-tb;fill:#000000;fill-opacity:1;fill-rule:nonzero;stroke:none"
           id="text128"><tspan
             x="0"
             y="0"
             id="tspan126">0</tspan></text><text
           transform="matrix(1,0,0,-1,73.50045,78.9996)"
           style="font-style:italic;font-variant:normal;font-size:8px;font-family:'Times New Roman';-inkscape-font-specification:Times-Italic;writing-mode:lr-tb;fill:#000000;fill-opacity:1;fill-rule:nonzero;stroke:none"
           id="text132"><tspan
             x="0 5.336"
             y="0"
             id="tspan130">w </tspan></text><text
           transform="matrix(1,0,0,-1,82.83639,78.9996)"
           style="font-variant:normal;font-weight:normal;font-size:8px;font-family:'Times New Roman';-inkscape-font-specification:Times-Roman;writing-mode:lr-tb;fill:#000000;fill-opacity:1;fill-rule:nonzero;stroke:none"
           id="text136"><tspan
             x="0"
             y="0"
             id="tspan134">=</tspan></text><text
           transform="matrix(1,0,0,-1,89.3485,78.9996)"
           style="font-variant:normal;font-weight:normal;font-size:8px;font-family:'Times New Roman';-inkscape-font-specification:Times-Roman;writing-mode:lr-tb;fill:#000000;fill-opacity:1;fill-rule:nonzero;stroke:none"
           id="text140"><tspan
             x="0"
             y="0"
             id="tspan138">1</tspan></text><text
           transform="matrix(1,0,0,-1,95.3485,78.9996)"
           style="font-style:italic;font-variant:normal;font-size:8px;font-family:'Times New Roman';-inkscape-font-specification:Times-Italic;writing-mode:lr-tb;fill:#000000;fill-opacity:1;fill-rule:nonzero;stroke:none"
           id="text144"><tspan
             x="0 5.4000001 7.4000001"
             y="0"
             id="tspan142">+ i</tspan></text><text
           transform="matrix(1,0,0,-1,162.4008,14.6492)"
           style="font-variant:normal;font-weight:normal;font-size:6px;font-family:'Times New Roman';-inkscape-font-specification:Times-Roman;writing-mode:lr-tb;fill:#000000;fill-opacity:1;fill-rule:nonzero;stroke:none"
           id="text150"><tspan
             x="0"
             y="0"
             id="tspan146">1</tspan><tspan
             x="-84.087898"
             y="-61.094501"
             id="tspan148">3</tspan></text><text
           transform="matrix(1,0,0,-1,211.6879,79.93706)"
           style="font-style:italic;font-variant:normal;font-size:8px;font-family:'Times New Roman';-inkscape-font-specification:Times-Italic;writing-mode:lr-tb;fill:#000000;fill-opacity:1;fill-rule:nonzero;stroke:none"
           id="text154"><tspan
             x="0 5.336"
             y="0"
             id="tspan152">w </tspan></text><text
           transform="matrix(1,0,0,-1,221.02384,79.93706)"
           style="font-variant:normal;font-weight:normal;font-size:8px;font-family:'Times New Roman';-inkscape-font-specification:Times-Roman;writing-mode:lr-tb;fill:#000000;fill-opacity:1;fill-rule:nonzero;stroke:none"
           id="text158"><tspan
             x="0"
             y="0"
             id="tspan156">=</tspan></text><text
           transform="matrix(1,0,0,-1,227.53595,79.93706)"
           style="font-variant:normal;font-weight:normal;font-size:8px;font-family:'Times New Roman';-inkscape-font-specification:Times-Roman;writing-mode:lr-tb;fill:#000000;fill-opacity:1;fill-rule:nonzero;stroke:none"
           id="text162"><tspan
             x="0"
             y="0"
             id="tspan160">1</tspan></text><text
           transform="matrix(1,0,0,-1,233.53595,79.93706)"
           style="font-style:italic;font-variant:normal;font-size:8px;font-family:'Times New Roman';-inkscape-font-specification:Times-Italic;writing-mode:lr-tb;fill:#000000;fill-opacity:1;fill-rule:nonzero;stroke:none"
           id="text166"><tspan
             x="0 5.4000001 7.4000001"
             y="0"
             id="tspan164">+ i</tspan></text><text
           transform="matrix(1,0,0,-1,216.75045,76.99956)"
           style="font-variant:normal;font-weight:normal;font-size:6px;font-family:'Times New Roman';-inkscape-font-specification:Times-Roman;writing-mode:lr-tb;fill:#000000;fill-opacity:1;fill-rule:nonzero;stroke:none"
           id="text170"><tspan
             x="0"
             y="0"
             id="tspan168">3</tspan></text><text
           transform="matrix(1,0,0,-1,0.35045,26.85036)"
           style="font-style:italic;font-variant:normal;font-size:8px;font-family:'Times New Roman';-inkscape-font-specification:Times-Italic;writing-mode:lr-tb;fill:#000000;fill-opacity:1;fill-rule:nonzero;stroke:none"
           id="text174"><tspan
             x="0 5.336"
             y="0"
             id="tspan172">w </tspan></text><text
           transform="matrix(1,0,0,-1,9.68639,26.85036)"
           style="font-variant:normal;font-weight:normal;font-size:8px;font-family:'Times New Roman';-inkscape-font-specification:Times-Roman;writing-mode:lr-tb;fill:#000000;fill-opacity:1;fill-rule:nonzero;stroke:none"
           id="text178"><tspan
             x="0"
             y="0"
             id="tspan176">=</tspan></text><text
           transform="matrix(1,0,0,-1,18.1985,26.85036)"
           style="font-variant:normal;font-weight:normal;font-size:8px;font-family:'Times New Roman';-inkscape-font-specification:Times-Roman;writing-mode:lr-tb;fill:#000000;fill-opacity:1;fill-rule:nonzero;stroke:none"
           id="text182"><tspan
             x="0"
             y="0"
             id="tspan180">0</tspan></text><text
           transform="matrix(1,0,0,-1,5.7508,22.99958)"
           style="font-variant:normal;font-weight:normal;font-size:7px;font-family:'Times New Roman';-inkscape-font-specification:Times-Roman;writing-mode:lr-tb;fill:#000000;fill-opacity:1;fill-rule:nonzero;stroke:none"
           id="text186"><tspan
             x="0"
             y="0"
             id="tspan184">1</tspan></text><text
           transform="matrix(1,0,0,-1,16.0008,6.99958)"
           style="font-variant:normal;font-weight:bold;font-size:7.2px;font-family:'Times New Roman';-inkscape-font-specification:Times-Bold;writing-mode:lr-tb;fill:#000000;fill-opacity:1;fill-rule:nonzero;stroke:none"
           id="text192"><tspan
             x="0"
             y="0"
             id="tspan188">T</tspan><tspan
             x="29.5"
             y="-77"
             id="tspan190">T</tspan></text><text
           transform="matrix(1,0,0,-1,20.4012,3.14918)"
           style="font-variant:normal;font-weight:normal;font-size:6px;font-family:'Times New Roman';-inkscape-font-specification:Times-Roman;writing-mode:lr-tb;fill:#000000;fill-opacity:1;fill-rule:nonzero;stroke:none"
           id="text198"><tspan
             x="0"
             y="0"
             id="tspan194">1</tspan><tspan
             x="30.3629"
             y="-77.925797"
             id="tspan196">3</tspan></text><text
           transform="matrix(1,0,0,-1,115.1883,18.99958)"
           style="font-variant:normal;font-weight:bold;font-size:7.2px;font-family:'Times New Roman';-inkscape-font-specification:Times-Bold;writing-mode:lr-tb;fill:#000000;fill-opacity:1;fill-rule:nonzero;stroke:none"
           id="text202"><tspan
             x="0"
             y="0"
             id="tspan200">T</tspan></text><text
           transform="matrix(1,0,0,-1,119.0008,15.56208)"
           style="font-variant:normal;font-weight:normal;font-size:6px;font-family:'Times New Roman';-inkscape-font-specification:Times-Roman;writing-mode:lr-tb;fill:#000000;fill-opacity:1;fill-rule:nonzero;stroke:none"
           id="text206"><tspan
             x="0"
             y="0"
             id="tspan204">2</tspan></text><text
           transform="matrix(1,0,0,-1,83.2508,18.18708)"
           style="font-style:italic;font-variant:normal;font-size:8px;font-family:'Times New Roman';-inkscape-font-specification:Times-Italic;writing-mode:lr-tb;fill:#000000;fill-opacity:1;fill-rule:nonzero;stroke:none"
           id="text210"><tspan
             x="0 5.336"
             y="0"
             id="tspan208">w </tspan></text><text
           transform="matrix(1,0,0,-1,92.58674,18.18708)"
           style="font-variant:normal;font-weight:normal;font-size:8px;font-family:'Times New Roman';-inkscape-font-specification:Times-Roman;writing-mode:lr-tb;fill:#000000;fill-opacity:1;fill-rule:nonzero;stroke:none"
           id="text214"><tspan
             x="0"
             y="0"
             id="tspan212">=</tspan></text><text
           transform="matrix(1,0,0,-1,99.09885,18.18708)"
           style="font-style:italic;font-variant:normal;font-size:8px;font-family:'Times New Roman';-inkscape-font-specification:Times-Italic;writing-mode:lr-tb;fill:#000000;fill-opacity:1;fill-rule:nonzero;stroke:none"
           id="text218"><tspan
             x="0"
             y="0"
             id="tspan216">d</tspan></text><text
           transform="matrix(1,0,0,-1,88.0633,14.74958)"
           style="font-variant:normal;font-weight:normal;font-size:6px;font-family:'Times New Roman';-inkscape-font-specification:Times-Roman;writing-mode:lr-tb;fill:#000000;fill-opacity:1;fill-rule:nonzero;stroke:none"
           id="text222"><tspan
             x="0"
             y="0"
             id="tspan220">2</tspan></text><text
           transform="matrix(1,0,0,-1,65.6672,4.08318)"
           style="font-variant:normal;font-weight:normal;font-size:9px;font-family:'Times New Roman';-inkscape-font-specification:Times-Roman;writing-mode:lr-tb;fill:#000000;fill-opacity:1;fill-rule:nonzero;stroke:none"
           id="text228"><tspan
             x="0 2.997 6.993"
             y="0"
             id="tspan224">(a)</tspan><tspan
             x="138.216 141.213 145.713"
             y="1.6402299"
             id="tspan226">(b)</tspan></text></g><path
         d="m 2066.06,1185.01 -20.27,-12.32 -0.45,0.68 13.12,33.05 c 2.52,11.52 5.06,23.03 7.6,34.55 2.53,-11.52 5.06,-23.03 7.6,-34.55 l 13.12,-33.05 -0.35,-0.68 -20.37,12.32"
         style="fill:#80d6f7;fill-opacity:1;fill-rule:nonzero;stroke:none"
         id="path230" /><path
         d="m 2066.06,1028.04 -20.27,-12.32 -0.45,0.68 13.12,33.05 c 2.52,11.52 5.06,23.03 7.6,34.55 2.53,-11.52 5.06,-23.03 7.6,-34.55 l 13.12,-33.05 -0.35,-0.68 -20.37,12.32"
         style="fill:#80d6f7;fill-opacity:1;fill-rule:nonzero;stroke:none"
         id="path232" /><path
         d="m 2066.06,871.074 -20.27,-12.324 -0.45,0.684 13.12,33.046 c 2.52,11.524 5.06,23.04 7.6,34.551 2.53,-11.511 5.06,-23.027 7.6,-34.551 l 13.12,-33.046 -0.35,-0.684 -20.37,12.324"
         style="fill:#80d6f7;fill-opacity:1;fill-rule:nonzero;stroke:none"
         id="path234" /><path
         d="m 1647.89,850.637 20.27,12.324 0.45,-0.688 -13.13,-33.043 c -2.52,-11.523 -5.05,-23.039 -7.59,-34.55 -2.53,11.511 -5.06,23.027 -7.6,34.55 l -13.13,33.043 0.36,0.688 20.37,-12.324"
         style="fill:#80d6f7;fill-opacity:1;fill-rule:nonzero;stroke:none"
         id="path236" /><path
         d="m 1647.89,1020.68 20.27,12.33 0.45,-0.69 -13.13,-33.043 c -2.52,-11.523 -5.05,-23.035 -7.59,-34.55 -2.53,11.515 -5.06,23.027 -7.6,34.55 l -13.13,33.043 0.36,0.69 20.37,-12.33"
         style="fill:#80d6f7;fill-opacity:1;fill-rule:nonzero;stroke:none"
         id="path238" /><path
         d="m 1647.89,490.918 20.27,12.324 0.45,-0.683 -13.13,-33.047 c -2.52,-11.524 -5.05,-23.035 -7.59,-34.551 -2.53,11.516 -5.06,23.027 -7.6,34.551 l -13.13,33.047 0.36,0.683 20.37,-12.324"
         style="fill:#80d6f7;fill-opacity:1;fill-rule:nonzero;stroke:none"
         id="path240" /><path
         d="m 1647.89,664.234 20.27,12.325 0.45,-0.684 -13.13,-33.047 c -2.52,-11.523 -5.05,-23.039 -7.59,-34.551 -2.53,11.512 -5.06,23.028 -7.6,34.551 l -13.13,33.047 0.36,0.684 20.37,-12.325"
         style="fill:#80d6f7;fill-opacity:1;fill-rule:nonzero;stroke:none"
         id="path242" /><path
         d="m 1647.89,1194 20.27,12.33 0.45,-0.69 -13.13,-33.04 c -2.52,-11.53 -5.05,-23.04 -7.59,-34.55 -2.53,11.51 -5.06,23.02 -7.6,34.55 l -13.13,33.04 0.36,0.69 20.37,-12.33"
         style="fill:#80d6f7;fill-opacity:1;fill-rule:nonzero;stroke:none"
         id="path244" /><path
         d="m 2194.91,278.262 -12.32,20.273 0.68,0.449 33.05,-13.125 c 11.52,-2.519 23.04,-5.058 34.55,-7.597 -11.51,-2.532 -23.03,-5.059 -34.55,-7.598 l -33.05,-13.125 -0.68,0.352 12.32,20.371"
         style="fill:#80d6f7;fill-opacity:1;fill-rule:nonzero;stroke:none"
         id="path246" /><path
         d="m 2024.86,278.262 -12.32,20.273 0.68,0.449 33.05,-13.125 c 11.52,-2.519 23.04,-5.058 34.55,-7.597 -11.51,-2.532 -23.03,-5.059 -34.55,-7.598 l -33.05,-13.125 -0.68,0.352 12.32,20.371"
         style="fill:#80d6f7;fill-opacity:1;fill-rule:nonzero;stroke:none"
         id="path248" /><path
         d="m 2554.63,278.262 -12.33,20.273 0.69,0.449 33.05,-13.125 c 11.52,-2.519 23.03,-5.058 34.55,-7.597 -11.52,-2.532 -23.03,-5.059 -34.55,-7.598 l -33.05,-13.125 -0.69,0.352 12.33,20.371"
         style="fill:#80d6f7;fill-opacity:1;fill-rule:nonzero;stroke:none"
         id="path250" /><path
         d="m 2381.31,278.262 -12.32,20.273 0.68,0.449 33.05,-13.125 c 11.52,-2.519 23.04,-5.058 34.55,-7.597 -11.51,-2.532 -23.03,-5.059 -34.55,-7.598 l -33.05,-13.125 -0.68,0.352 12.32,20.371"
         style="fill:#80d6f7;fill-opacity:1;fill-rule:nonzero;stroke:none"
         id="path252" /><path
         d="m 1851.54,278.262 -12.32,20.273 0.68,0.449 33.05,-13.125 c 11.52,-2.519 23.03,-5.058 34.55,-7.597 -11.52,-2.532 -23.03,-5.059 -34.55,-7.598 l -33.05,-13.125 -0.68,0.352 12.32,20.371"
         style="fill:#80d6f7;fill-opacity:1;fill-rule:nonzero;stroke:none"
         id="path254" /><path
         d="m 2247.8,696.68 12.32,-20.274 -0.68,-0.449 -33.05,13.125 c -11.52,2.52 -23.03,5.059 -34.55,7.598 11.52,2.531 23.03,5.058 34.55,7.597 l 33.05,13.125 0.68,-0.351 -12.32,-20.371"
         style="fill:#80d6f7;fill-opacity:1;fill-rule:nonzero;stroke:none"
         id="path256" /><path
         d="m 2404.77,696.68 12.32,-20.274 -0.68,-0.449 -33.05,13.125 c -11.52,2.52 -23.04,5.059 -34.55,7.598 11.51,2.531 23.03,5.058 34.55,7.597 l 33.05,13.125 0.68,-0.351 -12.32,-20.371"
         style="fill:#80d6f7;fill-opacity:1;fill-rule:nonzero;stroke:none"
         id="path258" /><path
         d="m 2561.73,696.68 12.33,-20.274 -0.68,-0.449 -33.05,13.125 c -11.53,2.52 -23.04,5.059 -34.55,7.598 11.51,2.531 23.02,5.058 34.55,7.597 l 33.05,13.125 0.68,-0.351 -12.33,-20.371"
         style="fill:#80d6f7;fill-opacity:1;fill-rule:nonzero;stroke:none"
         id="path260" /><path
         d="m 700.52,1079.09 -20.278,-12.32 -0.445,0.68 13.125,33.05 c 2.516,11.52 5.058,23.04 7.598,34.55 2.527,-11.51 5.054,-23.03 7.593,-34.55 l 13.125,-33.05 -0.347,-0.68 -20.371,12.32"
         style="fill:#80d6f7;fill-opacity:1;fill-rule:nonzero;stroke:none"
         id="path262" /><path
         d="m 700.52,905.461 -20.278,-12.324 -0.445,0.679 13.125,33.051 c 2.516,11.524 5.058,23.035 7.598,34.551 2.527,-11.516 5.054,-23.027 7.593,-34.551 l 13.125,-33.051 -0.347,-0.679 -20.371,12.324"
         style="fill:#80d6f7;fill-opacity:1;fill-rule:nonzero;stroke:none"
         id="path264" /><path
         d="m 282.344,859.719 20.273,12.324 0.449,-0.688 -13.125,-33.042 c -2.519,-11.524 -5.058,-23.04 -7.597,-34.551 -2.531,11.511 -5.059,23.027 -7.598,34.551 l -13.125,33.042 0.352,0.688 20.371,-12.324"
         style="fill:#80d6f7;fill-opacity:1;fill-rule:nonzero;stroke:none"
         id="path266" /><path
         d="m 282.344,1029.77 20.273,12.32 0.449,-0.68 -13.125,-33.05 c -2.519,-11.524 -5.058,-23.036 -7.597,-34.551 -2.531,11.515 -5.059,23.027 -7.598,34.551 l -13.125,33.05 0.352,0.68 20.371,-12.32"
         style="fill:#80d6f7;fill-opacity:1;fill-rule:nonzero;stroke:none"
         id="path268" /><path
         d="m 282.344,500 20.273,12.324 0.449,-0.683 -13.125,-33.047 c -2.519,-11.524 -5.058,-23.035 -7.597,-34.551 -2.531,11.516 -5.059,23.027 -7.598,34.551 l -13.125,33.047 0.352,0.683 L 282.344,500"
         style="fill:#80d6f7;fill-opacity:1;fill-rule:nonzero;stroke:none"
         id="path270" /><path
         d="m 282.344,86.6641 20.273,12.3242 0.449,-0.6836 -13.125,-33.0469 c -2.519,-11.5234 -5.058,-23.0351 -7.597,-34.5508 -2.531,11.5157 -5.059,23.0274 -7.598,34.5508 l -13.125,33.0469 0.352,0.6836 20.371,-12.3242"
         style="fill:#000000;fill-opacity:1;fill-rule:nonzero;stroke:none"
         id="path272" /><path
         d="m 282.344,673.316 20.273,12.325 0.449,-0.684 -13.125,-33.047 c -2.519,-11.523 -5.058,-23.039 -7.597,-34.551 -2.531,11.512 -5.059,23.028 -7.598,34.551 l -13.125,33.047 0.352,0.684 20.371,-12.325"
         style="fill:#80d6f7;fill-opacity:1;fill-rule:nonzero;stroke:none"
         id="path274" /><path
         d="m 282.344,1203.09 20.273,12.32 0.449,-0.68 -13.125,-33.05 c -2.519,-11.52 -5.058,-23.04 -7.597,-34.55 -2.531,11.51 -5.059,23.03 -7.598,34.55 l -13.125,33.05 0.352,0.68 20.371,-12.32"
         style="fill:#80d6f7;fill-opacity:1;fill-rule:nonzero;stroke:none"
         id="path276" /><path
         d="m 822.703,292.344 -12.32,20.273 0.68,0.449 33.046,-13.125 c 11.528,-2.519 23.039,-5.058 34.551,-7.597 -11.512,-2.531 -23.023,-5.059 -34.551,-7.598 l -33.046,-13.125 -0.68,0.352 12.32,20.371"
         style="fill:#80d6f7;fill-opacity:1;fill-rule:nonzero;stroke:none"
         id="path278" /><path
         d="m 652.656,292.344 -12.324,20.273 0.684,0.449 33.047,-13.125 c 11.523,-2.519 23.039,-5.058 34.55,-7.597 -11.511,-2.531 -23.027,-5.059 -34.55,-7.598 l -33.047,-13.125 -0.684,0.352 12.324,20.371"
         style="fill:#80d6f7;fill-opacity:1;fill-rule:nonzero;stroke:none"
         id="path280" /><path
         d="m 1182.42,292.344 -12.32,20.273 0.68,0.449 33.05,-13.125 c 11.52,-2.519 23.03,-5.058 34.55,-7.597 -11.52,-2.531 -23.03,-5.059 -34.55,-7.598 l -33.05,-13.125 -0.68,0.352 12.32,20.371"
         style="fill:#000000;fill-opacity:1;fill-rule:nonzero;stroke:none"
         id="path282" /><path
         d="m 479.336,292.344 -12.324,20.273 0.683,0.449 33.047,-13.125 c 11.524,-2.519 23.035,-5.058 34.551,-7.597 -11.516,-2.531 -23.027,-5.059 -34.551,-7.598 l -33.047,-13.125 -0.683,0.352 12.324,20.371"
         style="fill:#80d6f7;fill-opacity:1;fill-rule:nonzero;stroke:none"
         id="path284" /><path
         d="m 588.676,877.871 -9.781,-21.617 -0.754,0.312 -7.821,34.688 c -4.422,10.934 -8.828,21.871 -13.23,32.809 8.59,-8.079 17.18,-16.153 25.777,-24.235 l 29.488,-19.867 0.09,-0.762 -23.769,-1.328"
         style="fill:#000000;fill-opacity:1;fill-rule:nonzero;stroke:none"
         id="path286" /><path
         d="m 780.609,594.973 -9.781,-21.618 -0.75,0.313 -7.82,34.687 c -4.426,10.934 -8.828,21.872 -13.235,32.809 8.59,-8.078 17.176,-16.152 25.778,-24.234 l 29.484,-19.867 0.102,-0.762 -23.778,-1.328"
         style="fill:#80d6f7;fill-opacity:1;fill-rule:nonzero;stroke:none"
         id="path288" /><path
         d="m 889.215,442.066 -9.781,-21.617 -0.758,0.309 -7.817,34.687 c -4.421,10.938 -8.828,21.875 -13.23,32.813 8.582,-8.078 17.176,-16.156 25.769,-24.235 l 29.493,-19.875 0.093,-0.757 -23.769,-1.325"
         style="fill:#80d6f7;fill-opacity:1;fill-rule:nonzero;stroke:none"
         id="path290" /><g
         id="g292"
         transform="scale(10)"><text
           transform="matrix(0.973935,0,-0.227211,-0.973846,58.066,95.6234)"
           style="font-variant:normal;font-weight:normal;font-size:8.21484px;font-family:Symbol;-inkscape-font-specification:Symbol;writing-mode:lr-tb;fill:#231f20;fill-opacity:1;fill-rule:nonzero;stroke:none"
           id="text298"><tspan
             x="0"
             y="0"
             id="tspan294">α</tspan><tspan
             x="62.08931"
             y="48.266502"
             id="tspan296">α</tspan></text></g><path
         d="m 948.129,453.551 13.351,-8.485 -0.281,-0.464 -23.633,-1.922 c -7.621,-1.887 -15.253,-3.774 -22.886,-5.664 6.14,4.918 12.261,9.832 18.406,14.742 l 15.867,17.605 0.52,0.008 -1.344,-15.82"
         style="fill:#000000;fill-opacity:1;fill-rule:nonzero;stroke:none"
         id="path300" /><g
         id="g302"
         transform="scale(10)"><text
           transform="matrix(0.973935,0,-0.227211,-0.973846,40.566,10.6723)"
           style="font-variant:normal;font-weight:normal;font-size:8.21484px;font-family:Symbol;-inkscape-font-specification:Symbol;writing-mode:lr-tb;fill:#231f20;fill-opacity:1;fill-rule:nonzero;stroke:none"
           id="text306"><tspan
             x="0"
             y="0"
             id="tspan304">α</tspan></text></g></g></g></svg>
