<?xml version="1.0" encoding="UTF-8" standalone="no"?>
<svg
   xmlns:dc="http://purl.org/dc/elements/1.1/"
   xmlns:cc="http://creativecommons.org/ns#"
   xmlns:rdf="http://www.w3.org/1999/02/22-rdf-syntax-ns#"
   xmlns:svg="http://www.w3.org/2000/svg"
   xmlns="http://www.w3.org/2000/svg"
   version="1.1"
   id="svg2"
   xml:space="preserve"
   width="361.33334"
   height="173.33333"
   viewBox="0 0 361.33334 173.33333"><metadata
     id="metadata8"><rdf:RDF><cc:Work
         rdf:about=""><dc:format>image/svg+xml</dc:format><dc:type
           rdf:resource="http://purl.org/dc/dcmitype/StillImage" /></cc:Work></rdf:RDF></metadata><defs
     id="defs6" /><g
     id="g10"
     transform="matrix(1.3333333,0,0,-1.3333333,0,173.33333)"><g
       id="g12"
       transform="scale(0.1)"><path
         d="M 11.6367,124.961 H 1057.34 V 999.238 H 11.6367 V 124.961"
         style="fill:#cceffc;fill-opacity:1;fill-rule:nonzero;stroke:none"
         id="path14" /><path
         d="M 1372.32,169.199 2304.65,428.176 2511.83,738.957 2252.85,997.93 1890.27,635.367 1372.32,1153.32 V 169.199"
         style="fill:#cceffc;fill-opacity:1;fill-rule:nonzero;stroke:none"
         id="path16" /><path
         d="m 1372.32,169.199 932.33,258.977 86.88,130.332"
         style="fill:none;stroke:#80d6f7;stroke-width:10;stroke-linecap:round;stroke-linejoin:round;stroke-miterlimit:4;stroke-dasharray:none;stroke-opacity:1"
         id="path18" /><path
         d="m 2424.59,608.098 87.24,130.859 -110.99,110.981"
         style="fill:none;stroke:#80d6f7;stroke-width:10;stroke-linecap:round;stroke-linejoin:round;stroke-miterlimit:4;stroke-dasharray:none;stroke-opacity:1"
         id="path20" /><path
         d="M 2359.51,891.281 2252.85,997.93 2140.64,885.727"
         style="fill:none;stroke:#80d6f7;stroke-width:10;stroke-linecap:round;stroke-linejoin:round;stroke-miterlimit:4;stroke-dasharray:none;stroke-opacity:1"
         id="path22" /><path
         d="M 2098.73,843.816 1890.27,635.367 1779.24,746.395"
         style="fill:none;stroke:#80d6f7;stroke-width:10;stroke-linecap:round;stroke-linejoin:round;stroke-miterlimit:4;stroke-dasharray:none;stroke-opacity:1"
         id="path24" /><path
         d="M 1737.89,787.746 1372.32,1153.32"
         style="fill:none;stroke:#80d6f7;stroke-width:10;stroke-linecap:round;stroke-linejoin:round;stroke-miterlimit:4;stroke-dasharray:none;stroke-opacity:1"
         id="path26" /><path
         d="m 1300.32,117.414 h 1269"
         style="fill:none;stroke:#000000;stroke-width:7.5;stroke-linecap:round;stroke-linejoin:round;stroke-miterlimit:4;stroke-dasharray:none;stroke-opacity:1"
         id="path28" /><path
         d="M 1475.91,47.6055 V 1161.22"
         style="fill:none;stroke:#000000;stroke-width:7.5;stroke-linecap:round;stroke-linejoin:round;stroke-miterlimit:4;stroke-dasharray:none;stroke-opacity:1"
         id="path30" /><path
         d="m 2511.83,738.957 87.39,131.082"
         style="fill:none;stroke:#000000;stroke-width:10;stroke-linecap:round;stroke-linejoin:round;stroke-miterlimit:4;stroke-dasharray:none;stroke-opacity:1"
         id="path32" /><path
         d="m 2252.85,997.93 -92.2,92.2"
         style="fill:none;stroke:#000000;stroke-width:10;stroke-linecap:round;stroke-linejoin:round;stroke-miterlimit:4;stroke-dasharray:none;stroke-opacity:1"
         id="path34" /><path
         d="m 2160.65,1090.13 -18.56,18.56"
         style="fill:none;stroke:#000000;stroke-width:9;stroke-linecap:round;stroke-linejoin:round;stroke-miterlimit:4;stroke-dasharray:none;stroke-opacity:1"
         id="path36" /><path
         d="M 1890.27,635.367 1779.24,524.316"
         style="fill:none;stroke:#000000;stroke-width:10;stroke-linecap:round;stroke-linejoin:round;stroke-miterlimit:4;stroke-dasharray:none;stroke-opacity:1"
         id="path38" /><path
         d="m 2304.65,428.176 h 15.52 l -0.3,3.074 -0.91,2.961 -1.48,2.715 -1.99,2.371 -2.42,1.926 -2.76,1.414 -2.97,0.84 -3.09,0.222 -3.07,-0.379 -2.93,-0.984 -2.68,-1.555 -2.32,-2.043 -1.86,-2.468 -1.35,-2.786 -0.76,-2.996 -0.15,-3.086 15.52,0.774"
         style="fill:#ffffff;fill-opacity:1;fill-rule:nonzero;stroke:none"
         id="path40" /><path
         d="m 2304.65,428.176 -15.52,-0.774 0.46,-3.062 1.05,-2.902 3.72,-4.915 2.52,-1.8 2.82,-1.278 3.01,-0.679 3.09,-0.078 3.06,0.539 2.87,1.128 4.81,3.836 1.75,2.563 1.19,2.851 0.62,3.028 v 3.094 l -15.45,-1.551"
         style="fill:#ffffff;fill-opacity:1;fill-rule:nonzero;stroke:none"
         id="path42" /><path
         d="m 2511.83,738.957 h 15.54 l -0.31,3.074 -0.92,2.961 -1.48,2.715 -1.98,2.359 -2.42,1.938 -2.75,1.414 -2.98,0.832 -3.08,0.23 -3.08,-0.382 -2.93,-0.981 -2.68,-1.554 -2.31,-2.043 -1.88,-2.469 -1.34,-2.781 -0.75,-3.004 -0.16,-3.09 15.51,0.781"
         style="fill:#ffffff;fill-opacity:1;fill-rule:nonzero;stroke:none"
         id="path44" /><path
         d="m 2511.83,738.957 -15.51,-0.781 0.46,-3.059 1.06,-2.906 3.71,-4.906 2.52,-1.801 2.82,-1.274 3.01,-0.683 3.1,-0.086 3.04,0.543 2.89,1.129 4.8,3.844 1.74,2.546 1.21,2.856 0.61,3.035 v 3.094 l -15.46,-1.551"
         style="fill:#ffffff;fill-opacity:1;fill-rule:nonzero;stroke:none"
         id="path46" /><path
         d="m 2252.85,997.93 h 15.53 l -0.29,3.08 -0.93,2.95 -1.47,2.72 -1.99,2.37 -2.42,1.93 -2.76,1.41 -2.97,0.84 -3.09,0.23 -3.07,-0.39 -2.93,-0.98 -2.67,-1.55 -2.32,-2.04 -1.87,-2.47 -1.35,-2.79 -0.75,-2.99 -0.16,-3.098 15.51,0.778"
         style="fill:#ffffff;fill-opacity:1;fill-rule:nonzero;stroke:none"
         id="path48" /><path
         d="m 2252.85,997.93 -15.51,-0.778 0.46,-3.054 1.06,-2.907 3.72,-4.91 2.5,-1.808 2.82,-1.27 3.03,-0.683 3.09,-0.079 3.04,0.539 2.88,1.129 4.81,3.84 1.75,2.559 1.2,2.851 0.61,3.028 v 3.093 l -15.46,-1.55"
         style="fill:#ffffff;fill-opacity:1;fill-rule:nonzero;stroke:none"
         id="path50" /><path
         d="m 1890.27,635.367 h 15.53 l -0.3,3.074 -0.91,2.954 -1.48,2.722 -1.98,2.367 -2.43,1.93 -2.74,1.41 -2.99,0.84 -3.09,0.227 -3.06,-0.383 -2.94,-0.988 -2.67,-1.547 -2.32,-2.043 -1.88,-2.461 -1.33,-2.793 -0.77,-3 -0.14,-3.086 15.5,0.777"
         style="fill:#ffffff;fill-opacity:1;fill-rule:nonzero;stroke:none"
         id="path52" /><path
         d="m 1890.27,635.367 -15.5,-0.777 0.45,-3.063 1.07,-2.902 3.7,-4.91 2.52,-1.801 2.82,-1.273 3.01,-0.688 3.1,-0.078 3.05,0.539 2.88,1.129 4.81,3.84 1.74,2.555 1.19,2.855 0.62,3.031 v 3.09 l -15.46,-1.547"
         style="fill:#ffffff;fill-opacity:1;fill-rule:nonzero;stroke:none"
         id="path54" /><path
         d="m 2320.17,428.176 -0.3,3.074 -0.91,2.961 -1.48,2.715 -1.99,2.371 -2.42,1.926 -2.76,1.414 -2.97,0.84 -3.09,0.222 -3.07,-0.379 -2.93,-0.984 -2.68,-1.555 -2.32,-2.043 -1.86,-2.468 -1.35,-2.786 -0.76,-2.996 -0.15,-3.086"
         style="fill:none;stroke:#80d6f7;stroke-width:9;stroke-linecap:round;stroke-linejoin:round;stroke-miterlimit:4;stroke-dasharray:none;stroke-opacity:1"
         id="path56" /><path
         d="m 2289.13,427.402 0.46,-3.062 1.05,-2.902 3.72,-4.915 2.52,-1.8 2.82,-1.278 3.01,-0.679 3.09,-0.078 3.06,0.539 2.87,1.128 4.81,3.836 1.75,2.563 1.19,2.851 0.62,3.028 v 3.094"
         style="fill:none;stroke:#80d6f7;stroke-width:9;stroke-linecap:round;stroke-linejoin:round;stroke-miterlimit:4;stroke-dasharray:none;stroke-opacity:1"
         id="path58" /><path
         d="m 2527.37,738.957 -0.31,3.074 -0.92,2.961 -1.48,2.715 -1.98,2.359 -2.42,1.938 -2.75,1.414 -2.98,0.832 -3.08,0.23 -3.08,-0.382 -2.93,-0.981 -2.68,-1.554 -2.31,-2.043 -1.88,-2.469 -1.34,-2.781 -0.75,-3.004 -0.16,-3.09"
         style="fill:none;stroke:#80d6f7;stroke-width:9;stroke-linecap:round;stroke-linejoin:round;stroke-miterlimit:4;stroke-dasharray:none;stroke-opacity:1"
         id="path60" /><path
         d="m 2496.32,738.176 0.46,-3.059 1.06,-2.906 3.71,-4.906 2.52,-1.801 2.82,-1.274 3.01,-0.683 3.1,-0.086 3.04,0.543 2.89,1.129 4.8,3.844 1.74,2.546 1.21,2.856 0.61,3.035 v 3.094"
         style="fill:none;stroke:#80d6f7;stroke-width:9;stroke-linecap:round;stroke-linejoin:round;stroke-miterlimit:4;stroke-dasharray:none;stroke-opacity:1"
         id="path62" /><path
         d="m 2268.38,997.93 -0.29,3.08 -0.93,2.95 -1.47,2.72 -1.99,2.37 -2.42,1.93 -2.76,1.41 -2.97,0.84 -3.09,0.23 -3.07,-0.39 -2.93,-0.98 -2.67,-1.55 -2.32,-2.04 -1.87,-2.47 -1.35,-2.79 -0.75,-2.99 -0.16,-3.098"
         style="fill:none;stroke:#80d6f7;stroke-width:9;stroke-linecap:round;stroke-linejoin:round;stroke-miterlimit:4;stroke-dasharray:none;stroke-opacity:1"
         id="path64" /><path
         d="m 2237.34,997.152 0.46,-3.054 1.06,-2.907 3.72,-4.91 2.5,-1.808 2.82,-1.27 3.03,-0.683 3.09,-0.079 3.04,0.539 2.88,1.129 4.81,3.84 1.75,2.559 1.2,2.851 0.61,3.028 v 3.093"
         style="fill:none;stroke:#80d6f7;stroke-width:9;stroke-linecap:round;stroke-linejoin:round;stroke-miterlimit:4;stroke-dasharray:none;stroke-opacity:1"
         id="path66" /><path
         d="m 1905.8,635.367 -0.3,3.074 -0.91,2.954 -1.48,2.722 -1.98,2.367 -2.43,1.93 -2.74,1.41 -2.99,0.84 -3.09,0.227 -3.06,-0.383 -2.94,-0.988 -2.67,-1.547 -2.32,-2.043 -1.88,-2.461 -1.33,-2.793 -0.77,-3 -0.14,-3.086"
         style="fill:none;stroke:#80d6f7;stroke-width:9;stroke-linecap:round;stroke-linejoin:round;stroke-miterlimit:4;stroke-dasharray:none;stroke-opacity:1"
         id="path68" /><path
         d="m 1874.77,634.59 0.45,-3.063 1.07,-2.902 3.7,-4.91 2.52,-1.801 2.82,-1.273 3.01,-0.688 3.1,-0.078 3.05,0.539 2.88,1.129 4.81,3.84 1.74,2.555 1.19,2.855 0.62,3.031 v 3.09"
         style="fill:none;stroke:#80d6f7;stroke-width:9;stroke-linecap:round;stroke-linejoin:round;stroke-miterlimit:4;stroke-dasharray:none;stroke-opacity:1"
         id="path70" /><path
         d="m 2429.28,463.242 -0.9,3.102 -1,3.074 -1.06,3.047 -1.14,3.019 -1.22,2.993 -1.28,2.961 -1.38,2.921 -1.42,2.899 -1.52,2.847 -1.57,2.817 -1.66,2.777 -1.72,2.735 -1.78,2.691 -1.86,2.645"
         style="fill:none;stroke:#000000;stroke-width:6;stroke-linecap:round;stroke-linejoin:round;stroke-miterlimit:4;stroke-dasharray:none;stroke-opacity:1"
         id="path72" /><path
         d="m 2582.08,847.734 -2.73,1.719 -2.78,1.645 -2.81,1.578 -2.86,1.504 -2.9,1.445 -2.92,1.363 -2.96,1.293 -2.99,1.211 -3.01,1.145 -3.06,1.062 -3.07,0.992 -3.1,0.914 -3.12,0.833 -3.13,0.757 -3.16,0.684 -3.17,0.601 -3.18,0.516 -3.21,0.442 -3.2,0.359 -3.22,0.289 -3.23,0.195 -3.21,0.121 -3.24,0.039 -3.23,-0.039 -3.23,-0.121 -3.22,-0.203 -3.21,-0.281 -3.21,-0.359 -3.2,-0.446 -3.18,-0.515 -3.17,-0.606 -3.16,-0.676 -3.15,-0.761 -3.11,-0.829 -3.09,-0.917 -3.07,-0.989 -3.05,-1.07 -3.02,-1.141 -3,-1.218 -2.96,-1.293"
         style="fill:none;stroke:#000000;stroke-width:6;stroke-linecap:round;stroke-linejoin:round;stroke-miterlimit:4;stroke-dasharray:none;stroke-opacity:1"
         id="path74" /><path
         d="m 2160.21,1088.35 -2.29,-2.35 -4.27,-4.85 -2.04,-2.5 -1.98,-2.54 -1.92,-2.6 -1.85,-2.65 -1.79,-2.68 -1.71,-2.74 -1.66,-2.77 -1.57,-2.83 -1.51,-2.85 -1.44,-2.89 -1.37,-2.92 -1.29,-2.97 -1.21,-2.98 -1.14,-3.02 -1.07,-3.05 -0.99,-3.07 -0.92,-3.1 -0.83,-3.12 -0.75,-3.14 -0.68,-3.16 -0.6,-3.17 -0.52,-3.18 -0.45,-3.2 -0.36,-3.21 -0.28,-3.22 -0.2,-3.22 -0.12,-3.23 -0.04,-3.226 0.05,-3.226 0.11,-3.227"
         style="fill:none;stroke:#000000;stroke-width:6;stroke-linecap:round;stroke-linejoin:round;stroke-miterlimit:4;stroke-dasharray:none;stroke-opacity:1"
         id="path76" /><path
         d="m 2123.52,991.461 0.2,-3.223 0.3,-3.218 0.36,-3.204 0.43,-3.203 0.53,-3.183 0.6,-3.172 0.67,-3.156 0.77,-3.141 0.83,-3.117 0.92,-3.098 0.98,-3.074 1.07,-3.047 1.14,-3.02 1.22,-2.988 1.3,-2.957 1.35,-2.93"
         style="fill:none;stroke:#000000;stroke-width:6;stroke-linecap:round;stroke-linejoin:round;stroke-miterlimit:4;stroke-dasharray:none;stroke-opacity:1"
         id="path78" /><path
         d="m 1773.61,691.535 -1.38,-2.922 -1.28,-2.968 -1.22,-2.989 -1.14,-3.015 -1.07,-3.047 -0.99,-3.078 -0.91,-3.094 -0.83,-3.121 -0.76,-3.141 -0.67,-3.152 -0.61,-3.176 -0.52,-3.184 -0.44,-3.199 -0.36,-3.207 -0.28,-3.219 -0.2,-3.214 -0.12,-3.231 -0.04,-3.226 0.04,-3.231 0.12,-3.23"
         style="fill:none;stroke:#000000;stroke-width:6;stroke-linecap:round;stroke-linejoin:round;stroke-miterlimit:4;stroke-dasharray:none;stroke-opacity:1"
         id="path80" /><path
         d="m 1760.95,628.891 0.2,-3.215 0.28,-3.223 0.37,-3.203 0.43,-3.203 0.52,-3.188 0.61,-3.171 0.67,-3.153 0.77,-3.137 0.83,-3.125 0.91,-3.093 0.99,-3.075 1.08,-3.046 1.14,-3.016 1.22,-2.992 1.29,-2.961 1.36,-2.926 1.43,-2.894 1.51,-2.852 1.58,-2.813 1.66,-2.777 1.72,-2.734 1.78,-2.692 1.85,-2.644 1.92,-2.59 1.97,-2.559 2.05,-2.488 4.28,-4.848 2.31,-2.359"
         style="fill:none;stroke:#000000;stroke-width:6;stroke-linecap:round;stroke-linejoin:round;stroke-miterlimit:4;stroke-dasharray:none;stroke-opacity:1"
         id="path82" /><path
         d="m 2318.51,432.121 137.28,36.934"
         style="fill:none;stroke:#000000;stroke-width:10;stroke-linecap:round;stroke-linejoin:round;stroke-miterlimit:4;stroke-dasharray:none;stroke-opacity:1"
         id="path84" /><path
         d="M 531.289,96.8359 V 959.535"
         style="fill:none;stroke:#000000;stroke-width:7.5;stroke-linecap:round;stroke-linejoin:round;stroke-miterlimit:4;stroke-dasharray:none;stroke-opacity:1"
         id="path86" /><g
         id="g88"
         transform="scale(10)"><text
           transform="matrix(1,0,0,-1,12.2219,4.78828)"
           style="font-style:italic;font-variant:normal;font-size:7.2px;font-family:'Times New Roman';-inkscape-font-specification:Times-Italic;writing-mode:lr-tb;fill:#000000;fill-opacity:1;fill-rule:nonzero;stroke:none"
           id="text98"><tspan
             x="0"
             y="0"
             id="tspan90">x</tspan><tspan
             x="26.066401"
             y="-0.0222656"
             id="tspan92">x</tspan><tspan
             x="52.391399"
             y="0.034375001"
             id="tspan94">x</tspan><tspan
             x="78.603897"
             y="-0.078125"
             id="tspan96">x</tspan></text><text
           transform="matrix(1,0,0,-1,15.5067,1.322655)"
           style="font-variant:normal;font-weight:normal;font-size:5.4px;font-family:'Times New Roman';-inkscape-font-specification:Times-Roman;writing-mode:lr-tb;fill:#000000;fill-opacity:1;fill-rule:nonzero;stroke:none"
           id="text108"><tspan
             x="0"
             y="0"
             id="tspan100">1</tspan><tspan
             x="26.662901"
             y="-0.39414099"
             id="tspan102">2</tspan><tspan
             x="52.875"
             y="-0.225391"
             id="tspan104">3</tspan><tspan
             x="78.412903"
             y="-0.39414099"
             id="tspan106">4</tspan></text><text
           transform="matrix(1,0,0,-1,228.8266,35.278896)"
           style="font-style:italic;font-variant:normal;font-size:7.2px;font-family:'Times New Roman';-inkscape-font-specification:Times-Italic;writing-mode:lr-tb;fill:#000000;fill-opacity:1;fill-rule:nonzero;stroke:none"
           id="text116"><tspan
             x="0"
             y="0"
             id="tspan110">w</tspan><tspan
             x="23.0996"
             y="-31.8004"
             id="tspan112">w</tspan><tspan
             x="-2.1199"
             y="-70.1063"
             id="tspan114">w</tspan></text><text
           transform="matrix(1,0,0,-1,232.56178,31.813696)"
           style="font-variant:normal;font-weight:normal;font-size:5.4px;font-family:'Times New Roman';-inkscape-font-specification:Times-Roman;writing-mode:lr-tb;fill:#000000;fill-opacity:1;fill-rule:nonzero;stroke:none"
           id="text124"><tspan
             x="0"
             y="0"
             id="tspan118">1</tspan><tspan
             x="23.695299"
             y="-32.171902"
             id="tspan120">2</tspan><tspan
             x="-1.6363"
             y="-70.365303"
             id="tspan122">3</tspan></text><text
           transform="matrix(1,0,0,-1,110.62648,10.660296)"
           style="font-style:italic;font-variant:normal;font-size:7.2px;font-family:'Times New Roman';-inkscape-font-specification:Times-Italic;writing-mode:lr-tb;fill:#000000;fill-opacity:1;fill-rule:nonzero;stroke:none"
           id="text132"><tspan
             x="0"
             y="0"
             id="tspan126">x</tspan><tspan
             x="-59.082401"
             y="-92.400002"
             id="tspan128">y</tspan><tspan
             x="73.105598"
             y="-62.2687"
             id="tspan130">w</tspan></text><text
           transform="matrix(1,0,0,-1,187.72583,69.779386)"
           style="font-variant:normal;font-weight:normal;font-size:5.4px;font-family:'Times New Roman';-inkscape-font-specification:Times-Roman;writing-mode:lr-tb;fill:#000000;fill-opacity:1;fill-rule:nonzero;stroke:none"
           id="text136"><tspan
             x="0"
             y="0"
             id="tspan134">4</tspan></text><text
           transform="matrix(1,0,0,-1,247.92583,38.579386)"
           style="font-variant:normal;font-weight:bold;font-size:7.2px;font-family:'Times New Roman';-inkscape-font-specification:Times-Bold;writing-mode:lr-tb;fill:#000000;fill-opacity:1;fill-rule:nonzero;stroke:none"
           id="text142"><tspan
             x="0"
             y="0"
             id="tspan138">T</tspan><tspan
             x="15.3"
             y="-43.799599"
             id="tspan140">T</tspan></text><text
           transform="matrix(1,0,0,-1,251.76133,35.113386)"
           style="font-variant:normal;font-weight:normal;font-size:5.4px;font-family:'Times New Roman';-inkscape-font-specification:Times-Roman;writing-mode:lr-tb;fill:#000000;fill-opacity:1;fill-rule:nonzero;stroke:none"
           id="text148"><tspan
             x="0"
             y="0"
             id="tspan144">1</tspan><tspan
             x="15.8957"
             y="-44.171902"
             id="tspan146">2</tspan></text><text
           transform="matrix(1,0,0,-1,201.12573,116.27899)"
           style="font-variant:normal;font-weight:bold;font-size:7.2px;font-family:'Times New Roman';-inkscape-font-specification:Times-Bold;writing-mode:lr-tb;fill:#000000;fill-opacity:1;fill-rule:nonzero;stroke:none"
           id="text154"><tspan
             x="0"
             y="0"
             id="tspan150">T</tspan><tspan
             x="-18.799601"
             y="69.599602"
             id="tspan152">T</tspan></text><text
           transform="matrix(1,0,0,-1,204.96133,112.81379)"
           style="font-variant:normal;font-weight:normal;font-size:5.4px;font-family:'Times New Roman';-inkscape-font-specification:Times-Roman;writing-mode:lr-tb;fill:#000000;fill-opacity:1;fill-rule:nonzero;stroke:none"
           id="text160"><tspan
             x="0"
             y="0"
             id="tspan156">3</tspan><tspan
             x="-19.2043"
             y="69.228104"
             id="tspan158">4</tspan></text><text
           transform="matrix(1,0,0,-1,146.17653,123.17949)"
           style="font-style:italic;font-variant:normal;font-size:7.2px;font-family:'Times New Roman';-inkscape-font-specification:Times-Italic;writing-mode:lr-tb;fill:#000000;fill-opacity:1;fill-rule:nonzero;stroke:none"
           id="text166"><tspan
             x="0"
             y="0"
             id="tspan162">v</tspan><tspan
             x="117.6"
             y="113.1"
             id="tspan164">u</tspan></text></g><path
         d="m 1103.63,820.617 h 180.94"
         style="fill:none;stroke:#000000;stroke-width:7.5;stroke-linecap:round;stroke-linejoin:round;stroke-miterlimit:4;stroke-dasharray:none;stroke-opacity:1"
         id="path168" /><g
         id="g170"
         transform="scale(10)"><text
           transform="matrix(1,0,0,-1,110.663,87.1602)"
           style="font-style:italic;font-variant:normal;font-size:7.2px;font-family:'Times New Roman';-inkscape-font-specification:Times-Italic;writing-mode:lr-tb;fill:#000000;fill-opacity:1;fill-rule:nonzero;stroke:none"
           id="text174"><tspan
             x="0 4.8024001 6.6023998 11.4624 13.2624 15.264 17.6616 20.4624"
             y="0"
             id="tspan172">w = f(z)</tspan></text><text
           transform="matrix(1,0,0,-1,247.71,50.2637)"
           style="font-variant:normal;font-weight:normal;font-size:5.4px;font-family:'Times New Roman';-inkscape-font-specification:Times-Roman;writing-mode:lr-tb;fill:#000000;fill-opacity:1;fill-rule:nonzero;stroke:none"
           id="text184"><tspan
             x="0"
             y="0"
             id="tspan176">1</tspan><tspan
             x="5.9956999"
             y="-39.071499"
             id="tspan178">2</tspan><tspan
             x="-40.166"
             y="-47.209"
             id="tspan180">3</tspan><tspan
             x="-76.241798"
             y="-9.4659996"
             id="tspan182">4</tspan></text></g><path
         d="M 316.523,122.512 H 517.898"
         style="fill:none;stroke:#80d6f7;stroke-width:10;stroke-linecap:round;stroke-linejoin:round;stroke-miterlimit:4;stroke-dasharray:none;stroke-opacity:1"
         id="path186" /><path
         d="m 577.523,122.512 h 202.5"
         style="fill:none;stroke:#80d6f7;stroke-width:10;stroke-linecap:round;stroke-linejoin:round;stroke-miterlimit:4;stroke-dasharray:none;stroke-opacity:1"
         id="path188" /><path
         d="M 839.086,122.512 H 1055.68"
         style="fill:none;stroke:#80d6f7;stroke-width:10;stroke-linecap:round;stroke-linejoin:round;stroke-miterlimit:4;stroke-dasharray:none;stroke-opacity:1"
         id="path190" /><path
         d="M 9.96484,122.512 H 257.461"
         style="fill:none;stroke:#80d6f7;stroke-width:10;stroke-linecap:round;stroke-linejoin:round;stroke-miterlimit:4;stroke-dasharray:none;stroke-opacity:1"
         id="path192" /><path
         d="m 924.957,122.512 15.961,0.008 -0.309,3.105 -0.921,2.988 -1.497,2.742 -2.007,2.395 -2.45,1.949 -2.777,1.422 -3.004,0.848 -3.109,0.234 -3.114,-0.39 -2.953,-0.997 -2.707,-1.558 -2.34,-2.07 -1.894,-2.489 -1.356,-2.816 -0.773,-3.028 -0.144,-3.121 15.394,0.778"
         style="fill:#ffffff;fill-opacity:1;fill-rule:nonzero;stroke:none"
         id="path194" /><path
         d="m 924.957,122.512 -15.394,-0.778 0.46,-3.089 1.071,-2.938 1.636,-2.668 2.118,-2.285 2.539,-1.828 2.847,-1.281 3.043,-0.692 3.129,-0.082 3.074,0.543 2.915,1.141 2.625,1.699 2.23,2.18 1.758,2.586 1.219,2.875 0.613,3.062 v 3.125 l -15.883,-1.57"
         style="fill:#ffffff;fill-opacity:1;fill-rule:nonzero;stroke:none"
         id="path196" /><path
         d="m 663.535,122.512 15.891,0.008 -0.317,3.105 -0.918,2.988 -1.492,2.742 -2.011,2.395 -2.442,1.949 -2.781,1.422 -3.012,0.848 -3.113,0.234 -3.102,-0.39 -2.965,-0.997 -2.703,-1.558 -2.343,-2.07 -1.883,-2.489 -1.356,-2.816 -0.773,-3.028 -0.152,-3.121 15.472,0.778"
         style="fill:#ffffff;fill-opacity:1;fill-rule:nonzero;stroke:none"
         id="path198" /><path
         d="m 663.535,122.512 -15.472,-0.778 0.46,-3.089 1.071,-2.938 1.633,-2.668 2.125,-2.285 2.539,-1.828 2.843,-1.281 3.043,-0.692 3.125,-0.082 3.078,0.543 2.911,1.141 2.625,1.699 2.238,2.18 1.758,2.586 1.215,2.875 0.613,3.062 v 3.125 l -15.805,-1.57"
         style="fill:#ffffff;fill-opacity:1;fill-rule:nonzero;stroke:none"
         id="path200" /><path
         d="m 402.105,122.512 15.805,0.008 -0.312,3.105 -0.918,2.988 -1.492,2.742 -2.012,2.395 -2.446,1.949 -2.781,1.422 -3.008,0.848 -3.117,0.234 -3.094,-0.39 -2.964,-0.997 -2.707,-1.558 -2.34,-2.07 -1.887,-2.489 -1.359,-2.816 -0.77,-3.028 -0.148,-3.121 15.55,0.778"
         style="fill:#ffffff;fill-opacity:1;fill-rule:nonzero;stroke:none"
         id="path202" /><path
         d="m 402.105,122.512 -15.55,-0.778 0.461,-3.089 1.07,-2.938 1.633,-2.668 2.129,-2.285 2.527,-1.828 2.852,-1.281 3.046,-0.692 3.125,-0.082 3.079,0.543 2.902,1.141 2.625,1.699 2.234,2.18 1.77,2.586 1.211,2.875 0.617,3.062 -0.004,3.125 -15.727,-1.57"
         style="fill:#ffffff;fill-opacity:1;fill-rule:nonzero;stroke:none"
         id="path204" /><path
         d="m 140.684,122.512 15.734,0.008 -0.313,3.105 -0.929,2.988 -1.492,2.742 -2.004,2.395 -2.446,1.949 -2.781,1.422 -3.008,0.848 -3.113,0.234 -3.102,-0.39 -2.96,-0.997 -2.707,-1.558 -2.344,-2.07 -1.883,-2.489 -1.359,-2.816 -0.774,-3.028 -0.152,-3.121 15.633,0.778"
         style="fill:#ffffff;fill-opacity:1;fill-rule:nonzero;stroke:none"
         id="path206" /><path
         d="m 140.684,122.512 -15.633,-0.778 0.469,-3.089 1.074,-2.938 1.625,-2.668 2.125,-2.285 2.539,-1.828 2.847,-1.281 3.043,-0.692 3.125,-0.082 3.079,0.543 2.906,1.141 2.625,1.699 2.234,2.18 1.762,2.586 1.211,2.875 0.625,3.062 v 3.125 l -15.656,-1.57"
         style="fill:#ffffff;fill-opacity:1;fill-rule:nonzero;stroke:none"
         id="path208" /><path
         d="m 940.918,122.52 -0.309,3.105 -0.921,2.988 -1.497,2.742 -2.007,2.395 -2.45,1.949 -2.777,1.422 -3.004,0.848 -3.109,0.234 -3.114,-0.39 -2.953,-0.997 -2.707,-1.558 -2.34,-2.07 -1.894,-2.489 -1.356,-2.816 -0.773,-3.028 -0.144,-3.121"
         style="fill:none;stroke:#80d6f7;stroke-width:9;stroke-linecap:round;stroke-linejoin:round;stroke-miterlimit:4;stroke-dasharray:none;stroke-opacity:1"
         id="path210" /><path
         d="m 909.563,121.734 0.46,-3.089 1.071,-2.938 1.636,-2.668 2.118,-2.285 2.539,-1.828 2.847,-1.281 3.043,-0.692 3.129,-0.082 3.074,0.543 2.915,1.141 2.625,1.699 2.23,2.18 1.758,2.586 1.219,2.875 0.613,3.062 v 3.125"
         style="fill:none;stroke:#80d6f7;stroke-width:9;stroke-linecap:round;stroke-linejoin:round;stroke-miterlimit:4;stroke-dasharray:none;stroke-opacity:1"
         id="path212" /><path
         d="m 679.426,122.52 -0.317,3.105 -0.918,2.988 -1.492,2.742 -2.011,2.395 -2.442,1.949 -2.781,1.422 -3.012,0.848 -3.113,0.234 -3.102,-0.39 -2.965,-0.997 -2.703,-1.558 -2.343,-2.07 -1.883,-2.489 -1.356,-2.816 -0.773,-3.028 -0.152,-3.121"
         style="fill:none;stroke:#80d6f7;stroke-width:9;stroke-linecap:round;stroke-linejoin:round;stroke-miterlimit:4;stroke-dasharray:none;stroke-opacity:1"
         id="path214" /><path
         d="m 648.063,121.734 0.46,-3.089 1.071,-2.938 1.633,-2.668 2.125,-2.285 2.539,-1.828 2.843,-1.281 3.043,-0.692 3.125,-0.082 3.078,0.543 2.911,1.141 2.625,1.699 2.238,2.18 1.758,2.586 1.215,2.875 0.613,3.062 v 3.125"
         style="fill:none;stroke:#80d6f7;stroke-width:9;stroke-linecap:round;stroke-linejoin:round;stroke-miterlimit:4;stroke-dasharray:none;stroke-opacity:1"
         id="path216" /><path
         d="m 417.91,122.52 -0.312,3.105 -0.918,2.988 -1.492,2.742 -2.012,2.395 -2.446,1.949 -2.781,1.422 -3.008,0.848 -3.117,0.234 -3.094,-0.39 -2.964,-0.997 -2.707,-1.558 -2.34,-2.07 -1.887,-2.489 -1.359,-2.816 -0.77,-3.028 -0.148,-3.121"
         style="fill:none;stroke:#80d6f7;stroke-width:9;stroke-linecap:round;stroke-linejoin:round;stroke-miterlimit:4;stroke-dasharray:none;stroke-opacity:1"
         id="path218" /><path
         d="m 386.555,121.734 0.461,-3.089 1.07,-2.938 1.633,-2.668 2.129,-2.285 2.527,-1.828 2.852,-1.281 3.046,-0.692 3.125,-0.082 3.079,0.543 2.902,1.141 2.625,1.699 2.234,2.18 1.77,2.586 1.211,2.875 0.617,3.062 -0.004,3.125"
         style="fill:none;stroke:#80d6f7;stroke-width:9;stroke-linecap:round;stroke-linejoin:round;stroke-miterlimit:4;stroke-dasharray:none;stroke-opacity:1"
         id="path220" /><path
         d="m 156.418,122.52 -0.313,3.105 -0.929,2.988 -1.492,2.742 -2.004,2.395 -2.446,1.949 -2.781,1.422 -3.008,0.848 -3.113,0.234 -3.102,-0.39 -2.96,-0.997 -2.707,-1.558 -2.344,-2.07 -1.883,-2.489 -1.359,-2.816 -0.774,-3.028 -0.152,-3.121"
         style="fill:none;stroke:#80d6f7;stroke-width:9;stroke-linecap:round;stroke-linejoin:round;stroke-miterlimit:4;stroke-dasharray:none;stroke-opacity:1"
         id="path222" /><path
         d="m 125.051,121.734 0.469,-3.089 1.074,-2.938 1.625,-2.668 2.125,-2.285 2.539,-1.828 2.847,-1.281 3.043,-0.692 3.125,-0.082 3.079,0.543 2.906,1.141 2.625,1.699 2.234,2.18 1.762,2.586 1.211,2.875 0.625,3.062 v 3.125"
         style="fill:none;stroke:#80d6f7;stroke-width:9;stroke-linecap:round;stroke-linejoin:round;stroke-miterlimit:4;stroke-dasharray:none;stroke-opacity:1"
         id="path224" /><path
         d="m 8.58594,137.773 0.47656,0.325 22.6953,-9.016 c 7.8985,-1.746 15.8086,-3.484 23.711,-5.227 -7.9024,-1.734 -15.8125,-3.48 -23.711,-5.21 l -22.6953,-9.016 -0.47656,0.234 v 27.91"
         style="fill:#80d6f7;fill-opacity:1;fill-rule:nonzero;stroke:none"
         id="path226" /><path
         d="m 248.512,124.23 -11.09,18.235 0.621,0.426 29.738,-11.817 c 10.364,-2.285 20.727,-4.57 31.09,-6.844 -10.363,-2.277 -20.726,-4.562 -31.09,-6.835 l -29.738,-11.821 -0.621,0.317 11.09,18.339"
         style="fill:#80d6f7;fill-opacity:1;fill-rule:nonzero;stroke:none"
         id="path228" /><path
         d="m 505.652,124.23 -11.089,18.235 0.625,0.426 29.738,-11.817 c 10.363,-2.285 20.726,-4.57 31.09,-6.844 -10.364,-2.277 -20.727,-4.562 -31.09,-6.835 l -29.738,-11.821 -0.625,0.317 11.089,18.339"
         style="fill:#80d6f7;fill-opacity:1;fill-rule:nonzero;stroke:none"
         id="path230" /><path
         d="m 770.172,124.23 -11.09,18.235 0.613,0.426 29.743,-11.817 c 10.371,-2.285 20.722,-4.57 31.093,-6.844 -10.371,-2.277 -20.722,-4.562 -31.093,-6.835 l -29.743,-11.821 -0.613,0.317 11.09,18.339"
         style="fill:#80d6f7;fill-opacity:1;fill-rule:nonzero;stroke:none"
         id="path232" /><path
         d="m 1040.18,124.23 -11.1,18.235 0.62,0.426 29.74,-11.817 c 10.37,-2.285 20.73,-4.57 31.1,-6.844 -10.37,-2.277 -20.73,-4.562 -31.1,-6.835 l -29.74,-11.821 -0.62,0.317 11.1,18.339"
         style="fill:#80d6f7;fill-opacity:1;fill-rule:nonzero;stroke:none"
         id="path234" /><path
         d="m 1369.67,182.18 21.9,-1.641 c 10.58,0.926 21.14,1.84 31.72,2.774 -9.21,-5.282 -18.41,-10.555 -27.63,-15.829 l -16.85,-13.671"
         style="fill:#80d6f7;fill-opacity:1;fill-rule:nonzero;stroke:none"
         id="path236" /><path
         d="m 1605.5,233.492 -15.79,14.352 0.47,0.574 31.86,-2.906 c 10.6,0.75 21.17,1.48 31.77,2.242 -9.31,-5.121 -18.6,-10.242 -27.89,-15.367 l -25.18,-19.75 -0.68,0.117 5.44,20.738"
         style="fill:#80d6f7;fill-opacity:1;fill-rule:nonzero;stroke:none"
         id="path238" /><path
         d="m 1823.01,294.188 -15.79,14.351 0.47,0.578 31.86,-2.906 c 10.59,0.742 21.18,1.484 31.77,2.242 -9.31,-5.121 -18.59,-10.25 -27.89,-15.367 l -25.18,-19.754 -0.68,0.125 5.44,20.731"
         style="fill:#80d6f7;fill-opacity:1;fill-rule:nonzero;stroke:none"
         id="path240" /><path
         d="m 2081.91,366.816 -15.79,14.356 0.46,0.57 31.88,-2.902 c 10.58,0.742 21.17,1.48 31.75,2.246 -9.3,-5.129 -18.58,-10.254 -27.88,-15.371 l -25.18,-19.758 -0.67,0.129 5.43,20.73"
         style="fill:#80d6f7;fill-opacity:1;fill-rule:nonzero;stroke:none"
         id="path242" /><path
         d="m 2386.75,549.773 -21.33,-0.398 -0.06,0.742 25.17,19.758 c 7.2,7.801 14.39,15.598 21.57,23.422 -3.25,-10.113 -6.49,-20.211 -9.74,-30.317 l -4.75,-31.652 -0.58,-0.371 -10.28,18.816"
         style="fill:#80d6f7;fill-opacity:1;fill-rule:nonzero;stroke:none"
         id="path244" /><path
         d="m 2458.75,656.273 -21.33,-0.398 -0.06,0.746 25.17,19.75 c 7.2,7.809 14.39,15.602 21.57,23.426 -3.25,-10.113 -6.48,-20.207 -9.74,-30.317 l -4.75,-31.648 -0.58,-0.371 -10.28,18.812"
         style="fill:#80d6f7;fill-opacity:1;fill-rule:nonzero;stroke:none"
         id="path246" /><path
         d="m 2592.4,859.309 -21.33,-0.403 -0.06,0.742 25.17,19.758 c 7.2,7.805 14.39,15.606 21.57,23.426 -3.26,-10.117 -6.49,-20.215 -9.74,-30.32 l -4.76,-31.653 -0.57,-0.371 -10.28,18.821"
         style="fill:#000000;fill-opacity:1;fill-rule:nonzero;stroke:none"
         id="path248" /><path
         d="m 2406.56,841.371 -6.24,-20.402 -0.73,0.176 -10.96,30.058 c -5.18,9.277 -10.36,18.527 -15.56,27.781 8.6,-6.23 17.2,-12.441 25.8,-18.671 l 28.6,-14.344 0.17,-0.676 -21.08,-3.922"
         style="fill:#80d6f7;fill-opacity:1;fill-rule:nonzero;stroke:none"
         id="path250" /><path
         d="m 2321.06,928.379 -6.24,-20.41 -0.73,0.176 -10.95,30.058 c -5.19,9.277 -10.37,18.531 -15.57,27.781 8.6,-6.226 17.2,-12.437 25.79,-18.671 l 28.61,-14.344 0.17,-0.672 -21.08,-3.918"
         style="fill:#80d6f7;fill-opacity:1;fill-rule:nonzero;stroke:none"
         id="path252" /><path
         d="m 2148.57,1100.88 -6.24,-20.41 -0.73,0.18 -10.96,30.06 c -5.19,9.27 -10.36,18.53 -15.57,27.78 8.61,-6.23 17.2,-12.44 25.8,-18.67 l 28.61,-14.35 0.17,-0.67 -21.08,-3.92"
         style="fill:#000000;fill-opacity:1;fill-rule:nonzero;stroke:none"
         id="path254" /><path
         d="m 2153.54,897.539 20.68,-5.242 -0.15,-0.734 -29.48,-12.415 c -9.02,-5.632 -18.01,-11.25 -26.99,-16.886 5.8,8.89 11.58,17.777 17.39,26.664 l 12.95,29.277 0.65,0.195 4.95,-20.859"
         style="fill:#80d6f7;fill-opacity:1;fill-rule:nonzero;stroke:none"
         id="path256" /><path
         d="m 2011.04,755.039 20.68,-5.25 -0.14,-0.726 -29.49,-12.415 c -9.01,-5.632 -18.01,-11.25 -26.99,-16.89 5.8,8.894 11.58,17.781 17.39,26.668 l 12.95,29.277 0.66,0.192 4.94,-20.856"
         style="fill:#80d6f7;fill-opacity:1;fill-rule:nonzero;stroke:none"
         id="path258" /><path
         d="m 1786.04,530.039 20.68,-5.25 -0.14,-0.726 -29.49,-12.415 c -9.01,-5.632 -18.01,-11.25 -26.99,-16.89 5.8,8.894 11.58,17.781 17.39,26.668 l 12.95,29.277 0.66,0.192 4.94,-20.856"
         style="fill:#000000;fill-opacity:1;fill-rule:nonzero;stroke:none"
         id="path260" /><path
         d="m 1787.12,737.199 -5.24,-20.683 -0.74,0.14 -12.41,29.489 c -5.62,9.007 -11.25,18.003 -16.89,26.992 8.89,-5.801 17.79,-11.582 26.67,-17.395 l 29.28,-12.949 0.19,-0.652 -20.86,-4.942"
         style="fill:#80d6f7;fill-opacity:1;fill-rule:nonzero;stroke:none"
         id="path262" /><path
         d="m 1631.11,894.699 -5.23,-20.683 -0.74,0.14 -12.41,29.489 c -5.63,9.007 -11.25,18.003 -16.89,26.992 8.89,-5.801 17.79,-11.582 26.66,-17.395 l 29.29,-12.949 0.19,-0.652 -20.87,-4.942"
         style="fill:#80d6f7;fill-opacity:1;fill-rule:nonzero;stroke:none"
         id="path264" /><path
         d="m 1505.11,1022.2 -5.23,-20.68 -0.74,0.14 -12.41,29.48 c -5.62,9.01 -11.25,18.01 -16.89,27 8.89,-5.8 17.78,-11.59 26.66,-17.4 l 29.29,-12.95 0.19,-0.66 -20.87,-4.93"
         style="fill:#80d6f7;fill-opacity:1;fill-rule:nonzero;stroke:none"
         id="path266" /><path
         d="m 1379.11,1146.7 -5.24,-20.68 -0.73,0.13 -12.42,29.49 c -5.62,9.01 -11.25,18.01 -16.89,27 8.9,-5.8 17.79,-11.59 26.67,-17.39 l 29.28,-12.95 0.19,-0.66 -20.86,-4.94"
         style="fill:#80d6f7;fill-opacity:1;fill-rule:nonzero;stroke:none"
         id="path268" /><path
         d="m 2445.06,465.078 -15.79,14.356 0.46,0.57 31.87,-2.902 c 10.59,0.742 21.17,1.484 31.76,2.246 -9.3,-5.129 -18.59,-10.254 -27.88,-15.371 l -25.19,-19.758 -0.67,0.129 5.44,20.73"
         style="fill:#000000;fill-opacity:1;fill-rule:nonzero;stroke:none"
         id="path270" /><g
         id="g272"
         transform="scale(10)"><text
           transform="matrix(0.97385254,0,-0.22718103,-0.97371756,166.984,63.4109)"
           style="font-variant:normal;font-weight:normal;font-size:7.39332px;font-family:Symbol;-inkscape-font-specification:Symbol;writing-mode:lr-tb;fill:#000000;fill-opacity:1;fill-rule:nonzero;stroke:none"
           id="text282"><tspan
             x="0"
             y="0"
             id="tspan274">α</tspan><tspan
             x="27.506727"
             y="-38.37616"
             id="tspan276">α</tspan><tspan
             x="76.395279"
             y="-29.458984"
             id="tspan278">α</tspan><tspan
             x="80.108917"
             y="10.350165"
             id="tspan280">α</tspan></text></g><path
         d="m 2135.93,946.813 6.71,12.542 0.47,-0.222 3.28,-21.074 c 2.22,-6.715 4.43,-13.438 6.64,-20.164 -4.84,5.175 -9.65,10.347 -14.47,15.535 l -16.87,13.054 -0.05,0.469 14.29,-0.14"
         style="fill:#000000;fill-opacity:1;fill-rule:nonzero;stroke:none"
         id="path284" /><path
         d="m 1769.52,680.293 -14.22,-0.48 -0.04,0.515 16.6,13.414 c 4.7,5.274 9.41,10.555 14.12,15.832 -2.05,-6.769 -4.12,-13.535 -6.19,-20.301 l -2.86,-21.136 -0.37,-0.285 -7.04,12.441"
         style="fill:#000000;fill-opacity:1;fill-rule:nonzero;stroke:none"
         id="path286" /><path
         d="m 2422.55,507.613 -14.04,-2.621 -4.18,-13.597 -0.49,0.128 -7.3,20.043 c -3.45,6.164 -6.92,12.34 -10.39,18.508 5.75,-4.144 11.48,-8.285 17.2,-12.453"
         style="fill:#000000;fill-opacity:1;fill-rule:nonzero;stroke:none"
         id="path288" /><path
         d="m 2459.79,856.73 12.41,-6.957 -0.23,-0.453 -21.13,-2.894 c -6.76,-2.071 -13.52,-4.16 -20.28,-6.238 5.26,4.734 10.53,9.453 15.8,14.167 l 13.37,16.614 0.48,0.047 -0.42,-14.286"
         style="fill:#000000;fill-opacity:1;fill-rule:nonzero;stroke:none"
         id="path290" /><path
         d="m 1269.79,820.957 -11.16,18.191 0.61,0.434 29.78,-11.699 c 10.38,-2.258 20.75,-4.512 31.12,-6.731 -10.37,-2.324 -20.71,-4.652 -31.07,-6.964 l -29.69,-11.926 -0.63,0.304 11.04,18.391"
         style="fill:#000000;fill-opacity:1;fill-rule:nonzero;stroke:none"
         id="path292" /><path
         d="m 1475.93,1146.88 -18.25,-11.09 -0.41,0.63 11.82,29.73 c 2.27,10.36 4.55,20.73 6.84,31.09 2.26,-10.36 4.55,-20.73 6.84,-31.09 l 11.8,-29.73 -0.31,-0.63 -18.33,11.09"
         style="fill:#000000;fill-opacity:1;fill-rule:nonzero;stroke:none"
         id="path294" /><path
         d="m 531.43,946.137 -18.246,-11.078 -0.403,0.621 11.809,29.742 c 2.269,10.348 4.555,20.723 6.84,31.086 2.269,-10.363 4.554,-20.738 6.84,-31.086 l 11.808,-29.742 -0.312,-0.621 -18.336,11.078"
         style="fill:#000000;fill-opacity:1;fill-rule:nonzero;stroke:none"
         id="path296" /><path
         d="m 2568.03,116.891 -11.09,18.246 0.63,0.402 29.74,-11.809 c 10.36,-2.269 20.73,-4.554 31.09,-6.839 -10.36,-2.27 -20.73,-4.555 -31.09,-6.84 l -29.74,-11.8088 -0.63,0.3125 11.09,18.3363"
         style="fill:#000000;fill-opacity:1;fill-rule:nonzero;stroke:none"
         id="path298" /></g></g></svg>
