<?xml version="1.0" encoding="UTF-8" standalone="no"?>
<svg
   xmlns:dc="http://purl.org/dc/elements/1.1/"
   xmlns:cc="http://creativecommons.org/ns#"
   xmlns:rdf="http://www.w3.org/1999/02/22-rdf-syntax-ns#"
   xmlns:svg="http://www.w3.org/2000/svg"
   xmlns="http://www.w3.org/2000/svg"
   version="1.1"
   id="svg2"
   xml:space="preserve"
   width="161.33333"
   height="161.33333"
   viewBox="0 0 161.33333 161.33333"><metadata
     id="metadata8"><rdf:RDF><cc:Work
         rdf:about=""><dc:format>image/svg+xml</dc:format><dc:type
           rdf:resource="http://purl.org/dc/dcmitype/StillImage" /></cc:Work></rdf:RDF></metadata><defs
     id="defs6" /><g
     id="g10"
     transform="matrix(1.3333333,0,0,-1.3333333,0,161.33333)"><g
       id="g12"
       transform="scale(0.1)"><path
         d="M 8.94922,4.24219 H 1201.05 V 141.789 H 8.94922 V 4.24219"
         style="fill:#cceffc;fill-opacity:1;fill-rule:nonzero;stroke:none"
         id="path14" /><path
         d="M 8.94922,4.24219 H 146.496 V 1196.34 H 8.94922 V 4.24219"
         style="fill:#cceffc;fill-opacity:1;fill-rule:nonzero;stroke:none"
         id="path16" /><path
         d="M 1201.05,1066.24 460.59,413.938"
         style="fill:none;stroke:#80d6f7;stroke-width:5;stroke-linecap:round;stroke-linejoin:round;stroke-miterlimit:4;stroke-dasharray:none;stroke-opacity:1"
         id="path18" /><path
         d="m 460.59,413.938 -84.391,-79.543 -36.453,-39.024 -19.801,-25.644 -6.507,-10.215 -4.946,-9.074 -3.722,-8.168 -2.704,-7.415 -1.031,-3.476 -0.828,-3.332 -0.672,-3.203 -0.504,-3.067 -0.187,-1.488 -0.153,-1.473 -0.121,-1.421 -0.093,-1.411 -0.039,-0.691 -0.024,-0.691 -0.012,-0.332 v -0.348 l -0.011,-0.332 v -0.336 l -0.012,-0.332 v -0.332 l 0.012,-0.332 v -0.324 -0.336 l 0.011,-0.328 0.012,-0.633 0.024,-0.649 0.039,-0.64 0.082,-1.258 0.109,-1.227 0.121,-1.199 0.332,-2.344 0.399,-2.265 1.05,-4.246 1.305,-3.957 3.203,-7.051 3.789,-6.055 4.172,-5.226 4.41,-4.508 4.543,-3.926 4.617,-3.449 4.637,-3.012 4.613,-2.687 4.59,-2.387 4.539,-2.129 4.485,-1.93 4.422,-1.754"
         style="fill:none;stroke:#80d6f7;stroke-width:5;stroke-linecap:round;stroke-linejoin:round;stroke-miterlimit:4;stroke-dasharray:none;stroke-opacity:1"
         id="path20" /><path
         d="m 353.895,148.738 4.367,-1.59 4.297,-1.449"
         style="fill:none;stroke:#80d6f7;stroke-width:5;stroke-linecap:round;stroke-linejoin:round;stroke-miterlimit:4;stroke-dasharray:none;stroke-opacity:1"
         id="path22" /><path
         d="M 1201.05,949.855 611.277,496.25"
         style="fill:none;stroke:#80d6f7;stroke-width:5;stroke-linecap:round;stroke-linejoin:round;stroke-miterlimit:4;stroke-dasharray:none;stroke-opacity:1"
         id="path24" /><path
         d="M 611.277,496.25 483.809,394.824 426.602,346.27 393.355,315.305 371.789,292.59 l -14.734,-18.078 -10.262,-15.121 -7.086,-13.121 -2.605,-5.965 -2.09,-5.625 -1.633,-5.332 -1.231,-5.067 -0.472,-2.433 -0.383,-2.375 -0.313,-2.305 -0.121,-1.133 -0.101,-1.121 -0.082,-1.113 -0.074,-1.094 -0.036,-0.539 -0.023,-0.535 -0.016,-0.539 -0.019,-0.524 v -0.265 l -0.016,-0.27 v -0.262 -0.261 -0.262 l -0.004,-0.262 v -0.254 l 0.004,-0.257 v -0.262 -0.254 -0.262 l 0.016,-0.254 v -0.511 l 0.019,-0.496 0.039,-1.004 0.059,-0.993 0.156,-1.941 0.199,-1.895 0.254,-1.843 0.641,-3.567 0.801,-3.398 2.027,-6.297 2.477,-5.695 2.832,-5.164 3.086,-4.7 3.281,-4.253 3.418,-3.879"
         style="fill:none;stroke:#80d6f7;stroke-width:5;stroke-linecap:round;stroke-linejoin:round;stroke-miterlimit:4;stroke-dasharray:none;stroke-opacity:1"
         id="path26" /><path
         d="m 349.797,161.809 3.516,-3.555 3.585,-3.254 3.641,-2.996 3.66,-2.754"
         style="fill:none;stroke:#80d6f7;stroke-width:5;stroke-linecap:round;stroke-linejoin:round;stroke-miterlimit:4;stroke-dasharray:none;stroke-opacity:1"
         id="path28" /><path
         d="M 1201.05,845.281 737.051,534.742"
         style="fill:none;stroke:#80d6f7;stroke-width:5;stroke-linecap:round;stroke-linejoin:round;stroke-miterlimit:4;stroke-dasharray:none;stroke-opacity:1"
         id="path30" /><path
         d="m 737.051,534.742 -162.742,-111.461 -74.012,-52.945 -43.84,-33.41 -29.269,-24.199 -20.833,-19.032 -15.386,-15.804 -11.598,-13.641 -8.785,-12.082 -6.629,-10.891 -4.887,-9.949 -3.504,-9.172 -1.289,-4.312 -1.035,-4.156 -0.793,-4.008 -0.308,-1.953 -0.246,-1.911 -0.215,-1.878 -0.157,-1.836 -0.058,-0.911 -0.047,-0.91 -0.035,-0.886 -0.028,-0.45 -0.007,-0.437 v -0.442 l -0.016,-0.214 v -0.223 -0.215 -0.219 -0.215 -0.21 -0.215 -0.227 -0.215 -0.207 -0.215 -0.211 l 0.016,-0.429 0.007,-0.422 0.012,-0.418 0.039,-0.84 0.035,-0.836 0.055,-0.805 0.137,-1.625 0.156,-1.597 0.422,-3.086 0.555,-2.996 0.64,-2.875 1.59,-5.434 1.918,-5.054"
         style="fill:none;stroke:#80d6f7;stroke-width:5;stroke-linecap:round;stroke-linejoin:round;stroke-miterlimit:4;stroke-dasharray:none;stroke-opacity:1"
         id="path32" /><path
         d="m 356.914,169.063 2.168,-4.688 2.383,-4.359 2.555,-4.071 2.691,-3.789"
         style="fill:none;stroke:#80d6f7;stroke-width:5;stroke-linecap:round;stroke-linejoin:round;stroke-miterlimit:4;stroke-dasharray:none;stroke-opacity:1"
         id="path34" /><path
         d="M 1201.05,749.605 847.164,545.016"
         style="fill:none;stroke:#80d6f7;stroke-width:5;stroke-linecap:round;stroke-linejoin:round;stroke-miterlimit:4;stroke-dasharray:none;stroke-opacity:1"
         id="path36" /><path
         d="M 847.164,545.016 654.07,431.379 565.551,377.512 512.598,343.707 476.797,319.375 450.875,300.359 431.25,284.656 416.016,271.184 403.965,259.27 l -9.61,-10.739 -7.675,-9.84 -6.117,-9.117 -4.809,-8.511 -3.727,-7.989 -2.777,-7.515 -1.086,-3.606 -0.894,-3.496 -0.727,-3.394 -0.559,-3.301 -0.226,-1.625 -0.192,-1.582 -0.144,-1.575 -0.117,-1.55 -0.094,-1.524 -0.023,-0.761 -0.028,-0.372 v -0.371 l -0.015,-0.382 -0.008,-0.372 v -0.171 -0.2 -0.172 l -0.008,-0.199 v -0.176 -0.187 -0.184 -0.171 -0.192 -0.176 -0.179 l 0.008,-0.2 v -0.347 l 0.008,-0.364 0.015,-0.722 0.028,-0.707 0.031,-0.719 0.086,-1.394 0.105,-1.379 0.289,-2.704 0.387,-2.628"
         style="fill:none;stroke:#80d6f7;stroke-width:5;stroke-linecap:round;stroke-linejoin:round;stroke-miterlimit:4;stroke-dasharray:none;stroke-opacity:1"
         id="path38" /><path
         d="m 366.086,168.477 0.996,-5.032 1.273,-4.746 1.52,-4.48"
         style="fill:none;stroke:#80d6f7;stroke-width:5;stroke-linecap:round;stroke-linejoin:round;stroke-miterlimit:4;stroke-dasharray:none;stroke-opacity:1"
         id="path40" /><path
         d="M 1201.05,660.922 943.594,533.809"
         style="fill:none;stroke:#80d6f7;stroke-width:5;stroke-linecap:round;stroke-linejoin:round;stroke-miterlimit:4;stroke-dasharray:none;stroke-opacity:1"
         id="path42" /><path
         d="M 943.594,533.809 724.551,424.063 623.469,371.992 562.605,339.379 521.145,315.984 490.82,297.781 467.598,282.813 449.27,270.012 l -14.79,-11.289 -12.085,-10.184 -9.993,-9.309 -8.269,-8.656 -6.899,-8.101 -5.691,-7.66 -4.695,-7.247 -3.817,-6.914 -3.066,-6.589 -2.399,-6.309 -1.804,-6.02 -0.703,-2.921 -0.594,-2.844 -0.469,-2.793 -0.359,-2.715 -0.145,-1.352 -0.113,-1.328 -0.098,-1.304 -0.039,-0.645 -0.035,-0.641 -0.023,-0.644 -0.024,-0.645 -0.023,-0.632 v -0.309 l -0.012,-0.324 v -0.153 -0.156 -0.156 -0.152 -0.172 -0.149 -0.156 -0.156 -0.157 -0.156 -0.156 -0.156 l 0.012,-0.301 v -0.316 l 0.011,-0.602 0.028,-0.613 0.047,-1.215"
         style="fill:none;stroke:#80d6f7;stroke-width:5;stroke-linecap:round;stroke-linejoin:round;stroke-miterlimit:4;stroke-dasharray:none;stroke-opacity:1"
         id="path44" /><path
         d="m 373.223,157.715 0.07,-1.192 0.098,-1.179"
         style="fill:none;stroke:#80d6f7;stroke-width:5;stroke-linecap:round;stroke-linejoin:round;stroke-miterlimit:4;stroke-dasharray:none;stroke-opacity:1"
         id="path46" /><path
         d="m 1201.05,577.813 -174.94,-72.54"
         style="fill:none;stroke:#80d6f7;stroke-width:5;stroke-linecap:round;stroke-linejoin:round;stroke-miterlimit:4;stroke-dasharray:none;stroke-opacity:1"
         id="path48" /><path
         d="M 1026.11,505.273 785.793,404.336 674.066,356.27 606.465,326.172 560.168,304.629 526.07,287.891 499.773,274.16 l -20.957,-11.719 -17.105,-10.296 -14.191,-9.278 -11.907,-8.504 -10.093,-7.886 -8.61,-7.407 -7.367,-7.007 -6.289,-6.676 -5.406,-6.391 -4.59,-6.148 -3.899,-5.914 -3.265,-5.7 -2.715,-5.519 -2.231,-5.317 -1.777,-5.132 -1.371,-4.973 -1.027,-4.793"
         style="fill:none;stroke:#80d6f7;stroke-width:5;stroke-linecap:round;stroke-linejoin:round;stroke-miterlimit:4;stroke-dasharray:none;stroke-opacity:1"
         id="path50" /><path
         d="M 1201.05,499.098 1093.41,462.52"
         style="fill:none;stroke:#80d6f7;stroke-width:5;stroke-linecap:round;stroke-linejoin:round;stroke-miterlimit:4;stroke-dasharray:none;stroke-opacity:1"
         id="path52" /><path
         d="M 1093.41,462.52 837.156,374.426 716.941,332.203 643.844,305.715 593.535,286.75 l -37.222,-14.715 -28.864,-12.051 -23.14,-10.261 -19.032,-9.032 -15.929,-8.113 -13.516,-7.433 -11.602,-6.883 -10.042,-6.485 -8.727,-6.136 -7.633,-5.879 -6.699,-5.625 -5.875,-5.449 -5.156,-5.258 -4.528,-5.114 -3.961,-4.972 -3.441,-4.828 -2.992,-4.715 -2.559,-4.59 -2.195,-4.477"
         style="fill:none;stroke:#80d6f7;stroke-width:5;stroke-linecap:round;stroke-linejoin:round;stroke-miterlimit:4;stroke-dasharray:none;stroke-opacity:1"
         id="path54" /><path
         d="m 1201.05,423.816 -58.02,-15.57"
         style="fill:none;stroke:#80d6f7;stroke-width:5;stroke-linecap:round;stroke-linejoin:round;stroke-miterlimit:4;stroke-dasharray:none;stroke-opacity:1"
         id="path56" /><path
         d="M 1143.03,408.246 877.5,336.23 751.355,301.34 l -77.214,-21.985 -53.379,-15.757 -39.637,-12.219 -30.879,-10.016 -24.879,-8.535 -20.562,-7.484 -17.309,-6.735 -14.801,-6.168 -12.797,-5.718 -11.187,-5.375 -9.832,-5.102 -8.703,-4.879 -7.742,-4.707 -6.914,-4.547 -6.196,-4.418 -5.551,-4.304 -4.984,-4.211 -4.473,-4.121 -4.011,-4.043 -3.606,-3.953 -3.215,-3.903"
         style="fill:none;stroke:#80d6f7;stroke-width:5;stroke-linecap:round;stroke-linejoin:round;stroke-miterlimit:4;stroke-dasharray:none;stroke-opacity:1"
         id="path58" /><path
         d="m 1201.05,351.133 -30.68,-6.113"
         style="fill:none;stroke:#80d6f7;stroke-width:5;stroke-linecap:round;stroke-linejoin:round;stroke-miterlimit:4;stroke-dasharray:none;stroke-opacity:1"
         id="path60" /><path
         d="m 1170.37,345.02 -265.628,-53.481 -128.758,-26.418 -79.507,-16.762 -55.282,-12.058 -41.261,-9.383 -32.266,-7.688 -26.109,-6.562 -21.645,-5.754 -18.332,-5.176 -15.73,-4.734 -13.7,-4.399 -12.023,-4.136 -10.664,-3.934 -9.516,-3.765 -8.531,-3.622 -7.719,-3.519 -6.969,-3.434 -6.339,-3.347 -5.782,-3.278 -5.285,-3.226 -4.812,-3.192 -4.422,-3.129 -4.055,-3.089"
         style="fill:none;stroke:#80d6f7;stroke-width:5;stroke-linecap:round;stroke-linejoin:round;stroke-miterlimit:4;stroke-dasharray:none;stroke-opacity:1"
         id="path62" /><path
         d="m 1201.05,280.313 -36.77,-4.844"
         style="fill:none;stroke:#80d6f7;stroke-width:5;stroke-linecap:round;stroke-linejoin:round;stroke-miterlimit:4;stroke-dasharray:none;stroke-opacity:1"
         id="path64" /><path
         d="M 1164.28,275.469 913.867,242.066 787.93,224.949 l -79.082,-11.027 -55.504,-8.016 -41.711,-6.265 -32.817,-5.149 -26.652,-4.402 -22.223,-3.875 -18.855,-3.481 -16.285,-3.191 -14.211,-2.973 -12.551,-2.8 -11.184,-2.657 -10.019,-2.539 -9.066,-2.457 -8.235,-2.394 -7.5,-2.321 -6.89,-2.293 -6.317,-2.246 -5.84,-2.195 -5.406,-2.188 -4.992,-2.167 -4.66,-2.137"
         style="fill:none;stroke:#80d6f7;stroke-width:5;stroke-linecap:round;stroke-linejoin:round;stroke-miterlimit:4;stroke-dasharray:none;stroke-opacity:1"
         id="path66" /><path
         d="m 1201.05,210.723 -117.62,-7.735"
         style="fill:none;stroke:#80d6f7;stroke-width:5;stroke-linecap:round;stroke-linejoin:round;stroke-miterlimit:4;stroke-dasharray:none;stroke-opacity:1"
         id="path68" /><path
         d="m 1083.43,202.988 -198.774,-13.254 -109.617,-7.464 -71.875,-5.012 -51.758,-3.762 -39.558,-2.965 -31.496,-2.48 -25.848,-2.133 -21.711,-1.895 -18.563,-1.71 -16.105,-1.571 -14.148,-1.48 -12.551,-1.379 -11.231,-1.313 -10.132,-1.277 -9.192,-1.215 -8.391,-1.187 -7.691,-1.172 -7.094,-1.149 -6.566,-1.117 -6.09,-1.109 -5.68,-1.098 -5.289,-1.094 -4.961,-1.086"
         style="fill:none;stroke:#80d6f7;stroke-width:5;stroke-linecap:round;stroke-linejoin:round;stroke-miterlimit:4;stroke-dasharray:none;stroke-opacity:1"
         id="path70" /><path
         d="M 1070.94,1196.34 418.645,455.883"
         style="fill:none;stroke:#80d6f7;stroke-width:5;stroke-linecap:round;stroke-linejoin:round;stroke-miterlimit:4;stroke-dasharray:none;stroke-opacity:1"
         id="path72" /><path
         d="m 418.645,455.883 -79.543,-84.387 -39.036,-36.457 -25.632,-19.801 -10.223,-6.508 -9.066,-4.945 -8.172,-3.722 -7.41,-2.704 -3.477,-1.027 -3.332,-0.832 -3.203,-0.672 -3.067,-0.504 -1.488,-0.187 -1.473,-0.153 -1.421,-0.121 -1.414,-0.093 -0.688,-0.04 -0.691,-0.019 -0.332,-0.016 h -0.348 l -0.336,-0.011 h -0.332 l -0.332,-0.012 h -0.332 l -0.34,0.012 h -0.316 -0.336 l -0.328,0.011 -0.633,0.016 -0.649,0.019 -0.64,0.04 -1.258,0.082 -1.227,0.109 -1.203,0.121 -2.34,0.332 -2.265,0.399 -4.258,1.05 -3.945,1.305 -7.051,3.203 -6.059,3.789 -5.219,4.18 -4.523,4.406 -3.914,4.539 -3.449,4.617 -3.02,4.637 -2.679,4.613 -2.387,4.59 -2.129,4.539 -1.934,4.485 -1.754,4.422"
         style="fill:none;stroke:#80d6f7;stroke-width:5;stroke-linecap:round;stroke-linejoin:round;stroke-miterlimit:4;stroke-dasharray:none;stroke-opacity:1"
         id="path74" /><path
         d="m 153.441,349.188 -1.586,4.367 -1.449,4.297"
         style="fill:none;stroke:#80d6f7;stroke-width:5;stroke-linecap:round;stroke-linejoin:round;stroke-miterlimit:4;stroke-dasharray:none;stroke-opacity:1"
         id="path76" /><path
         d="M 954.563,1196.34 500.957,606.578"
         style="fill:none;stroke:#80d6f7;stroke-width:5;stroke-linecap:round;stroke-linejoin:round;stroke-miterlimit:4;stroke-dasharray:none;stroke-opacity:1"
         id="path78" /><path
         d="M 500.957,606.578 399.531,479.102 350.977,421.895 320,388.648 297.297,367.082 279.219,352.348 264.098,342.086 250.977,335 l -5.965,-2.605 -5.625,-2.09 -5.332,-1.633 -5.067,-1.231 -2.433,-0.472 -2.375,-0.383 -2.309,-0.309 -1.133,-0.113 -1.117,-0.113 -1.113,-0.082 -1.094,-0.074 -0.539,-0.036 -0.535,-0.023 -0.539,-0.016 -0.524,-0.019 h -0.265 l -0.278,-0.016 h -0.257 -0.258 -0.262 l -0.266,-0.004 h -0.25 l -0.257,0.004 h -0.262 -0.254 -0.262 l -0.254,0.016 h -0.511 l -0.496,0.019 -1.004,0.039 -0.993,0.059 -1.941,0.156 -1.894,0.203 -1.852,0.25 -3.559,0.645 -3.398,0.797 -6.297,2.027 -5.695,2.484 -5.164,2.825 -4.7,3.086 -4.253,3.281 -3.879,3.418"
         style="fill:none;stroke:#80d6f7;stroke-width:5;stroke-linecap:round;stroke-linejoin:round;stroke-miterlimit:4;stroke-dasharray:none;stroke-opacity:1"
         id="path80" /><path
         d="m 166.516,345.09 -3.555,3.515 -3.254,3.59 -2.996,3.637 -2.754,3.66"
         style="fill:none;stroke:#80d6f7;stroke-width:5;stroke-linecap:round;stroke-linejoin:round;stroke-miterlimit:4;stroke-dasharray:none;stroke-opacity:1"
         id="path82" /><path
         d="M 849.988,1196.34 539.449,732.344"
         style="fill:none;stroke:#80d6f7;stroke-width:5;stroke-linecap:round;stroke-linejoin:round;stroke-miterlimit:4;stroke-dasharray:none;stroke-opacity:1"
         id="path84" /><path
         d="M 539.449,732.344 427.988,569.602 375.043,495.59 l -33.41,-43.84 -24.199,-29.27 -19.032,-20.832 -15.804,-15.386 -13.641,-11.598 -12.082,-8.785 -10.891,-6.629 -9.949,-4.887 -9.172,-3.504 -4.312,-1.289 -4.16,-1.035 -4.004,-0.789 -1.953,-0.312 -1.911,-0.246 -1.878,-0.215 -1.836,-0.157 -0.911,-0.058 -0.91,-0.047 -0.89,-0.035 -0.446,-0.028 -0.437,-0.007 h -0.442 l -0.214,-0.016 h -0.223 -0.215 -0.219 -0.214 -0.211 -0.215 -0.227 -0.215 -0.207 -0.215 -0.21 l -0.43,0.016 -0.422,0.007 -0.418,0.012 -0.844,0.039 -0.832,0.035 -0.804,0.055 -1.625,0.137 -1.598,0.156 -3.086,0.43 -2.996,0.547 -2.875,0.64 -5.434,1.59 -5.054,1.918"
         style="fill:none;stroke:#80d6f7;stroke-width:5;stroke-linecap:round;stroke-linejoin:round;stroke-miterlimit:4;stroke-dasharray:none;stroke-opacity:1"
         id="path86" /><path
         d="m 173.77,352.207 -4.688,2.168 -4.359,2.383 -4.071,2.555 -3.789,2.691"
         style="fill:none;stroke:#80d6f7;stroke-width:5;stroke-linecap:round;stroke-linejoin:round;stroke-miterlimit:4;stroke-dasharray:none;stroke-opacity:1"
         id="path88" /><path
         d="M 754.316,1196.34 549.719,842.457"
         style="fill:none;stroke:#80d6f7;stroke-width:5;stroke-linecap:round;stroke-linejoin:round;stroke-miterlimit:4;stroke-dasharray:none;stroke-opacity:1"
         id="path90" /><path
         d="m 549.719,842.457 -113.645,-193.098 -53.855,-88.515 -33.805,-52.953 -24.332,-35.797 -19.016,-25.926 -15.703,-19.625 -13.48,-15.234 -11.906,-12.051 -10.747,-9.61 -9.832,-7.675 -9.117,-6.118 -8.511,-4.808 -7.993,-3.727 -7.511,-2.777 -3.606,-1.086 -3.496,-0.894 -3.394,-0.727 -3.301,-0.559 -1.625,-0.226 -1.582,-0.192 -1.574,-0.144 -1.551,-0.113 -1.528,-0.098 -0.757,-0.024 -0.372,-0.027 h -0.371 l -0.379,-0.015 -0.375,-0.008 h -0.179 -0.192 -0.171 l -0.2,-0.008 h -0.175 -0.188 -0.184 -0.171 -0.192 -0.183 -0.172 l -0.2,0.008 h -0.347 l -0.363,0.008 -0.723,0.015 -0.711,0.027 -0.715,0.04 -1.394,0.082 -1.379,0.105 -2.703,0.285 -2.629,0.387"
         style="fill:none;stroke:#80d6f7;stroke-width:5;stroke-linecap:round;stroke-linejoin:round;stroke-miterlimit:4;stroke-dasharray:none;stroke-opacity:1"
         id="path92" /><path
         d="m 173.184,361.379 -5.032,0.996 -4.746,1.277 -4.48,1.516"
         style="fill:none;stroke:#80d6f7;stroke-width:5;stroke-linecap:round;stroke-linejoin:round;stroke-miterlimit:4;stroke-dasharray:none;stroke-opacity:1"
         id="path94" /><path
         d="M 665.625,1196.34 538.516,938.887"
         style="fill:none;stroke:#80d6f7;stroke-width:5;stroke-linecap:round;stroke-linejoin:round;stroke-miterlimit:4;stroke-dasharray:none;stroke-opacity:1"
         id="path96" /><path
         d="M 538.516,938.887 428.77,719.855 376.699,618.762 344.086,557.898 320.691,516.445 302.488,486.113 287.52,462.891 l -12.801,-18.328 -11.289,-14.79 -10.188,-12.085 -9.304,-9.989 -8.657,-8.273 -8.101,-6.891 -7.66,-5.699 -7.247,-4.695 -6.914,-3.817 -6.593,-3.066 -6.305,-2.399 -6.02,-1.804 -2.921,-0.703 -2.844,-0.594 -2.793,-0.469 -2.715,-0.351 -1.352,-0.149 -1.328,-0.117 -1.304,-0.098 -0.645,-0.039 -0.644,-0.035 -0.641,-0.023 -0.645,-0.02 -0.629,-0.027 h -0.312 l -0.324,-0.012 h -0.156 -0.153 -0.156 -0.156 -0.168 -0.153 -0.156 -0.152 -0.156 -0.157 -0.156 -0.156 l -0.309,0.012 h -0.305 l -0.605,0.011 -0.613,0.028 -1.215,0.047"
         style="fill:none;stroke:#80d6f7;stroke-width:5;stroke-linecap:round;stroke-linejoin:round;stroke-miterlimit:4;stroke-dasharray:none;stroke-opacity:1"
         id="path98" /><path
         d="m 162.422,368.516 -1.192,0.07 -1.179,0.098"
         style="fill:none;stroke:#80d6f7;stroke-width:5;stroke-linecap:round;stroke-linejoin:round;stroke-miterlimit:4;stroke-dasharray:none;stroke-opacity:1"
         id="path100" /><path
         d="M 582.52,1196.34 509.98,1021.41"
         style="fill:none;stroke:#80d6f7;stroke-width:5;stroke-linecap:round;stroke-linejoin:round;stroke-miterlimit:4;stroke-dasharray:none;stroke-opacity:1"
         id="path102" /><path
         d="M 509.98,1021.41 409.043,781.09 360.977,669.363 l -30.098,-67.605 -21.543,-46.297 -16.738,-34.094 -13.731,-26.301 -11.722,-20.957 -10.297,-17.105 -9.282,-14.188 -8.496,-11.91 -7.886,-10.093 -7.407,-8.606 -7.007,-7.367 -6.676,-6.293 -6.395,-5.402 -6.144,-4.59 -5.914,-3.903 -5.7,-3.265 -5.519,-2.715 -5.317,-2.231 -5.132,-1.777 -4.977,-1.367 -4.789,-1.031"
         style="fill:none;stroke:#80d6f7;stroke-width:5;stroke-linecap:round;stroke-linejoin:round;stroke-miterlimit:4;stroke-dasharray:none;stroke-opacity:1"
         id="path104" /><path
         d="M 503.801,1196.34 467.227,1088.7"
         style="fill:none;stroke:#80d6f7;stroke-width:5;stroke-linecap:round;stroke-linejoin:round;stroke-miterlimit:4;stroke-dasharray:none;stroke-opacity:1"
         id="path106" /><path
         d="M 467.227,1088.7 379.133,832.449 336.91,712.246 310.422,639.133 291.457,588.828 276.742,551.605 264.691,522.75 254.43,499.602 l -9.032,-19.032 -8.113,-15.922 -7.43,-13.523 -6.886,-11.594 -6.485,-10.039 -6.14,-8.738 -5.875,-7.633 -5.629,-6.699 -5.445,-5.875 -5.258,-5.152 -5.117,-4.532 -4.969,-3.961 -4.828,-3.441 -4.723,-2.992 -4.59,-2.559 -4.469,-2.195"
         style="fill:none;stroke:#80d6f7;stroke-width:5;stroke-linecap:round;stroke-linejoin:round;stroke-miterlimit:4;stroke-dasharray:none;stroke-opacity:1"
         id="path108" /><path
         d="m 428.516,1196.34 -15.563,-58.02"
         style="fill:none;stroke:#80d6f7;stroke-width:5;stroke-linecap:round;stroke-linejoin:round;stroke-miterlimit:4;stroke-dasharray:none;stroke-opacity:1"
         id="path110" /><path
         d="M 412.953,1138.32 340.938,872.793 306.047,746.648 284.063,669.434 268.301,616.063 256.086,576.418 246.07,545.543 l -8.535,-24.883 -7.484,-20.562 -6.735,-17.309 -6.168,-14.797 -5.722,-12.801 -5.371,-11.187 -5.11,-9.828 -4.871,-8.703 -4.711,-7.746 -4.543,-6.914 -4.418,-6.192 -4.304,-5.555 -4.211,-4.98 -4.121,-4.465 -4.043,-4.023 -3.953,-3.606 -3.911,-3.215"
         style="fill:none;stroke:#80d6f7;stroke-width:5;stroke-linecap:round;stroke-linejoin:round;stroke-miterlimit:4;stroke-dasharray:none;stroke-opacity:1"
         id="path112" /><path
         d="m 355.84,1196.34 -6.113,-30.66"
         style="fill:none;stroke:#80d6f7;stroke-width:5;stroke-linecap:round;stroke-linejoin:round;stroke-miterlimit:4;stroke-dasharray:none;stroke-opacity:1"
         id="path114" /><path
         d="M 349.727,1165.68 296.246,900.035 269.828,771.289 253.066,691.77 l -12.058,-55.286 -9.387,-41.257 -7.683,-32.266 -6.563,-26.109 -5.754,-21.645 -5.176,-18.332 -4.734,-15.73 -4.398,-13.7 -4.137,-12.023 -3.934,-10.664 -3.762,-9.508 -3.628,-8.535 -3.516,-7.715 -3.434,-6.98 -3.347,-6.336 -3.278,-5.782 -3.234,-5.281 -3.184,-4.816 -3.132,-4.422 -3.086,-4.055"
         style="fill:none;stroke:#80d6f7;stroke-width:5;stroke-linecap:round;stroke-linejoin:round;stroke-miterlimit:4;stroke-dasharray:none;stroke-opacity:1"
         id="path116" /><path
         d="m 285.02,1196.34 -4.844,-36.77"
         style="fill:none;stroke:#80d6f7;stroke-width:5;stroke-linecap:round;stroke-linejoin:round;stroke-miterlimit:4;stroke-dasharray:none;stroke-opacity:1"
         id="path118" /><path
         d="M 280.176,1159.57 246.773,909.164 229.656,783.23 l -11.027,-79.082 -8.016,-55.515 -6.265,-41.707 -5.149,-32.817 -4.402,-26.648 -3.875,-22.215 -3.481,-18.867 -3.191,-16.281 -2.973,-14.215 -2.8,-12.551 -2.657,-11.184 -2.539,-10.019 -2.457,-9.063 -2.394,-8.238 -2.325,-7.5 -2.292,-6.89 -2.243,-6.317 -2.207,-5.84 -2.175,-5.398 -2.168,-4.992 -2.137,-4.668"
         style="fill:none;stroke:#80d6f7;stroke-width:5;stroke-linecap:round;stroke-linejoin:round;stroke-miterlimit:4;stroke-dasharray:none;stroke-opacity:1"
         id="path120" /><path
         d="m 215.43,1196.34 -7.735,-117.62"
         style="fill:none;stroke:#80d6f7;stroke-width:5;stroke-linecap:round;stroke-linejoin:round;stroke-miterlimit:4;stroke-dasharray:none;stroke-opacity:1"
         id="path122" /><path
         d="m 207.695,1078.72 -13.254,-198.771 -7.464,-109.613 -5.012,-71.867 -3.762,-51.77 -2.965,-39.558 -2.484,-31.496 -2.129,-25.848 -1.895,-21.711 -1.71,-18.555 -1.571,-16.109 -1.48,-14.152 -1.379,-12.551 -1.313,-11.231 -1.277,-10.129 -1.215,-9.195 -1.191,-8.391 -1.168,-7.691 -1.149,-7.094 -1.117,-6.566 -1.113,-6.09 -1.094,-5.676 -1.094,-5.293 -1.086,-4.961"
         style="fill:none;stroke:#80d6f7;stroke-width:5;stroke-linecap:round;stroke-linejoin:round;stroke-miterlimit:4;stroke-dasharray:none;stroke-opacity:1"
         id="path124" /><path
         d="M 146.496,141.789 1201.05,1196.34"
         style="fill:none;stroke:#80d6f7;stroke-width:7.5;stroke-linecap:round;stroke-linejoin:round;stroke-miterlimit:4;stroke-dasharray:none;stroke-opacity:1"
         id="path126" /><path
         d="M 146.27,141.563 H 1201.05"
         style="fill:none;stroke:#40c1f3;stroke-width:10;stroke-linecap:round;stroke-linejoin:round;stroke-miterlimit:4;stroke-dasharray:none;stroke-opacity:1"
         id="path128" /><path
         d="M 146.27,141.563 V 1196.34"
         style="fill:none;stroke:#40c1f3;stroke-width:10;stroke-linecap:round;stroke-linejoin:round;stroke-miterlimit:4;stroke-dasharray:none;stroke-opacity:1"
         id="path130" /><g
         id="g132"
         transform="scale(10)"><text
           transform="matrix(1,0,0,-1,35.7551,6.40938)"
           style="font-variant:normal;font-weight:normal;font-size:7.28px;font-family:'Times New Roman';-inkscape-font-specification:Times-Roman;writing-mode:lr-tb;fill:#000000;fill-opacity:1;fill-rule:nonzero;stroke:none"
           id="text136"><tspan
             x="0"
             y="0"
             id="tspan134">1</tspan></text><text
           transform="matrix(1,0,0,-1,9.0528,34.82928)"
           style="font-style:italic;font-variant:normal;font-size:7.28px;font-family:'Times New Roman';-inkscape-font-specification:Times-Italic;writing-mode:lr-tb;fill:#000000;fill-opacity:1;fill-rule:nonzero;stroke:none"
           id="text140"><tspan
             x="0"
             y="0"
             id="tspan138">i</tspan></text></g><path
         d="m 150.066,383.047 c 5.715,0 10.332,-5.527 10.332,-12.344 0,-6.816 -4.617,-12.332 -10.332,-12.332"
         style="fill:none;stroke:#000000;stroke-width:5;stroke-linecap:butt;stroke-linejoin:miter;stroke-miterlimit:4;stroke-dasharray:none;stroke-opacity:1"
         id="path142" /><path
         d="m 363.34,144.496 c 0,5.711 5.527,10.332 12.344,10.332 6.816,0 12.339,-4.621 12.339,-10.332"
         style="fill:none;stroke:#000000;stroke-width:5;stroke-linecap:butt;stroke-linejoin:miter;stroke-miterlimit:4;stroke-dasharray:none;stroke-opacity:1"
         id="path144" /></g></g></svg>
