<?xml version="1.0" encoding="UTF-8" standalone="no"?>
<svg
   xmlns:dc="http://purl.org/dc/elements/1.1/"
   xmlns:cc="http://creativecommons.org/ns#"
   xmlns:rdf="http://www.w3.org/1999/02/22-rdf-syntax-ns#"
   xmlns:svg="http://www.w3.org/2000/svg"
   xmlns="http://www.w3.org/2000/svg"
   version="1.1"
   id="svg2"
   xml:space="preserve"
   width="180"
   height="178.66667"
   viewBox="0 0 180 178.66667"><metadata
     id="metadata8"><rdf:RDF><cc:Work
         rdf:about=""><dc:format>image/svg+xml</dc:format><dc:type
           rdf:resource="http://purl.org/dc/dcmitype/StillImage" /></cc:Work></rdf:RDF></metadata><defs
     id="defs6" /><g
     id="g10"
     transform="matrix(1.3333333,0,0,-1.3333333,0,178.66667)"><g
       id="g12"
       transform="scale(0.1)"><path
         d="m 431.133,705 30.93,4.656 34.554,4.875 38.399,5.364 42.691,6.253 47.742,7.907 26.11,4.988 27.855,6.125 29.766,7.824 31.726,10.5 33.11,14.547 32.586,19.82 29.336,24.211 25.07,25.821 41.199,49.711 35.398,45.445 32.875,42.172 31.57,39.891 30.85,38.28 30.4,37.08 30.1,36.19 29.91,35.47 29.76,34.89 29.64,34.46 29.56,34.06 29.5,33.76"
         style="fill:none;stroke:#80d6f7;stroke-width:5.279;stroke-linecap:round;stroke-linejoin:round;stroke-miterlimit:4;stroke-dasharray:none;stroke-opacity:1"
         id="path14" /><path
         d="m 1257.93,1327.67 -16.16,-18.37"
         style="fill:none;stroke:#80d6f7;stroke-width:5.279;stroke-linecap:round;stroke-linejoin:round;stroke-miterlimit:4;stroke-dasharray:none;stroke-opacity:1"
         id="path16" /><path
         d="m 423.461,742.344 30.773,9 34.028,9.359 37.398,10.176 40.942,11.578 44.711,13.898 48.472,17.665 51.371,23.546 51.551,31.286 47.691,37.937 42.207,40.723 37.844,40.613 35.051,39.535 33.289,38.36 32.188,37.32 31.423,36.44 30.93,35.73 30.56,35.17 30.27,34.66 30.11,34.29 29.92,33.93"
         style="fill:none;stroke:#80d6f7;stroke-width:5.279;stroke-linecap:round;stroke-linejoin:round;stroke-miterlimit:4;stroke-dasharray:none;stroke-opacity:1"
         id="path18" /><path
         d="m 1186.69,1327.67 -12.5,-14.11"
         style="fill:none;stroke:#80d6f7;stroke-width:5.279;stroke-linecap:round;stroke-linejoin:round;stroke-miterlimit:4;stroke-dasharray:none;stroke-opacity:1"
         id="path20" /><path
         d="m 411.199,779.672 30.543,12.844 33.332,13.265 36.117,14.164 38.872,15.657 41.515,17.871 43.758,21.015 45.102,25.043 44.972,29.489 43.242,33.355 40.598,35.801 37.918,36.794 35.762,36.9 34.14,36.56 33.008,36.09 32.141,35.59 31.531,35.11 31.07,34.7 30.74,34.32 30.46,34.02"
         style="fill:none;stroke:#80d6f7;stroke-width:5.279;stroke-linecap:round;stroke-linejoin:round;stroke-miterlimit:4;stroke-dasharray:none;stroke-opacity:1"
         id="path22" /><path
         d="m 1114.47,1327.67 -8.45,-9.41"
         style="fill:none;stroke:#80d6f7;stroke-width:5.279;stroke-linecap:round;stroke-linejoin:round;stroke-miterlimit:4;stroke-dasharray:none;stroke-opacity:1"
         id="path24" /><path
         d="m 394.949,817.016 30.324,16.074 32.602,16.492 34.82,17.328 36.95,18.664 38.824,20.531 40.281,22.915 41.078,25.699 41.055,28.594 40.18,31.177 38.773,33.08 37.144,34.25 35.665,34.81 34.375,34.94 33.339,34.88 32.551,34.66 31.934,34.41 31.426,34.17 31.05,33.92"
         style="fill:none;stroke:#80d6f7;stroke-width:5.279;stroke-linecap:round;stroke-linejoin:round;stroke-miterlimit:4;stroke-dasharray:none;stroke-opacity:1"
         id="path26" /><path
         d="m 1041.05,1327.67 -3.73,-4.06"
         style="fill:none;stroke:#80d6f7;stroke-width:5.279;stroke-linecap:round;stroke-linejoin:round;stroke-miterlimit:4;stroke-dasharray:none;stroke-opacity:1"
         id="path28" /><path
         d="m 375.398,854.348 30.102,18.726 31.941,19.09 33.704,19.813 35.32,20.921 36.711,22.375 37.754,24.168 38.343,26.169 38.399,28.18 37.973,30.02 37.187,31.54 36.184,32.59 35.164,33.28 34.218,33.64 33.391,33.81 32.691,33.81 32.122,33.72"
         style="fill:none;stroke:#80d6f7;stroke-width:5.279;stroke-linecap:round;stroke-linejoin:round;stroke-miterlimit:4;stroke-dasharray:none;stroke-opacity:1"
         id="path30" /><path
         d="M 966.23,1327.67 936.602,1296.2"
         style="fill:none;stroke:#80d6f7;stroke-width:5.279;stroke-linecap:round;stroke-linejoin:round;stroke-miterlimit:4;stroke-dasharray:none;stroke-opacity:1"
         id="path32" /><path
         d="m 353.145,891.688 29.914,20.855 31.39,21.156 32.778,21.762 34.039,22.621 35.086,23.758 35.906,25.11 36.367,26.56 36.508,28.05 36.305,29.42 35.863,30.6 35.238,31.53 34.563,32.21 33.882,32.66 33.227,32.92 32.664,33.05"
         style="fill:none;stroke:#80d6f7;stroke-width:5.279;stroke-linecap:round;stroke-linejoin:round;stroke-miterlimit:4;stroke-dasharray:none;stroke-opacity:1"
         id="path34" /><path
         d="m 889.914,1327.67 -23.039,-23.72"
         style="fill:none;stroke:#80d6f7;stroke-width:5.279;stroke-linecap:round;stroke-linejoin:round;stroke-miterlimit:4;stroke-dasharray:none;stroke-opacity:1"
         id="path36" /><path
         d="m 328.727,929.02 29.765,22.566 30.942,22.812 32.035,23.274 33.043,23.958 33.859,24.83 34.5,25.84 34.918,26.94 35.082,28.06 35.035,29.13 34.782,30.05 34.398,30.84 33.937,31.47 33.457,31.91 32.981,32.24"
         style="fill:none;stroke:#80d6f7;stroke-width:5.279;stroke-linecap:round;stroke-linejoin:round;stroke-miterlimit:4;stroke-dasharray:none;stroke-opacity:1"
         id="path38" /><path
         d="m 812.227,1327.67 -14.766,-14.73"
         style="fill:none;stroke:#80d6f7;stroke-width:5.279;stroke-linecap:round;stroke-linejoin:round;stroke-miterlimit:4;stroke-dasharray:none;stroke-opacity:1"
         id="path40" /><path
         d="m 302.594,966.348 29.633,23.945 30.582,24.117 31.468,24.48 32.246,25.02 32.934,25.68 33.453,26.46 33.82,27.31 33.989,28.16 34.011,28.98 33.903,29.74 33.672,30.42 33.371,30.94 33.015,31.37"
         style="fill:none;stroke:#80d6f7;stroke-width:5.279;stroke-linecap:round;stroke-linejoin:round;stroke-miterlimit:4;stroke-dasharray:none;stroke-opacity:1"
         id="path42" /><path
         d="m 733.523,1327.67 -4.832,-4.7"
         style="fill:none;stroke:#80d6f7;stroke-width:5.279;stroke-linecap:round;stroke-linejoin:round;stroke-miterlimit:4;stroke-dasharray:none;stroke-opacity:1"
         id="path44" /><path
         d="m 275.055,1003.69 29.554,25.02 30.293,25.18 31.02,25.45 31.656,25.87 32.207,26.39 32.649,26.98 32.957,27.64 33.144,28.3 33.215,28.96 33.168,29.58 33.043,30.12"
         style="fill:none;stroke:#80d6f7;stroke-width:5.279;stroke-linecap:round;stroke-linejoin:round;stroke-miterlimit:4;stroke-dasharray:none;stroke-opacity:1"
         id="path46" /><path
         d="m 654.238,1327.67 -26.277,-24.49"
         style="fill:none;stroke:#80d6f7;stroke-width:5.279;stroke-linecap:round;stroke-linejoin:round;stroke-miterlimit:4;stroke-dasharray:none;stroke-opacity:1"
         id="path48" /><path
         d="m 246.41,1041.02 29.481,25.91 30.089,26.02 30.665,26.24 31.191,26.56 31.641,26.96 32.011,27.45 32.301,27.95 32.473,28.46 32.566,29.01 32.574,29.5"
         style="fill:none;stroke:#80d6f7;stroke-width:5.279;stroke-linecap:round;stroke-linejoin:round;stroke-miterlimit:4;stroke-dasharray:none;stroke-opacity:1"
         id="path50" /><path
         d="m 575.063,1327.67 -13.661,-12.59"
         style="fill:none;stroke:#80d6f7;stroke-width:5.279;stroke-linecap:round;stroke-linejoin:round;stroke-miterlimit:4;stroke-dasharray:none;stroke-opacity:1"
         id="path52" /><path
         d="m 216.871,1078.36 29.422,26.62 29.922,26.71 30.387,26.89 30.824,27.14 31.207,27.46 31.519,27.8 31.774,28.24 31.929,28.65 32.047,29.07"
         style="fill:none;stroke:#80d6f7;stroke-width:5.279;stroke-linecap:round;stroke-linejoin:round;stroke-miterlimit:4;stroke-dasharray:none;stroke-opacity:1"
         id="path54" /><path
         d="m 496.699,1327.67 -0.797,-0.73"
         style="fill:none;stroke:#80d6f7;stroke-width:5.279;stroke-linecap:round;stroke-linejoin:round;stroke-miterlimit:4;stroke-dasharray:none;stroke-opacity:1"
         id="path56" /><path
         d="m 186.586,1115.69 29.387,27.2 29.781,27.29 30.184,27.42 30.531,27.61 30.867,27.87 31.121,28.17 31.352,28.47"
         style="fill:none;stroke:#80d6f7;stroke-width:5.279;stroke-linecap:round;stroke-linejoin:round;stroke-miterlimit:4;stroke-dasharray:none;stroke-opacity:1"
         id="path58" /><path
         d="m 419.426,1327.67 -19.617,-17.95"
         style="fill:none;stroke:#80d6f7;stroke-width:5.279;stroke-linecap:round;stroke-linejoin:round;stroke-miterlimit:4;stroke-dasharray:none;stroke-opacity:1"
         id="path60" /><path
         d="M 433.73,667.672 H 387.637"
         style="fill:none;stroke:#000000;stroke-width:5.279;stroke-linecap:round;stroke-linejoin:round;stroke-miterlimit:4;stroke-dasharray:none;stroke-opacity:1"
         id="path62" /><path
         d="M 387.637,667.672 H 352.445"
         style="fill:none;stroke:#000000;stroke-width:5.279;stroke-linecap:round;stroke-linejoin:round;stroke-miterlimit:4;stroke-dasharray:none;stroke-opacity:1"
         id="path64" /><path
         d="m 358.031,667.672 h 75.699 l -0.91,-22.02 -0.91,-9.156 -1.82,-12.996 -3.645,-18.543 -7.3,-26.652 -14.571,-38.91 L 375.398,480.996 346.23,432.773 317.063,389.391 287.898,348.863 258.73,310.215 229.555,272.898 200.395,236.559 171.227,200.984 142.051,165.992 112.895,131.484 83.7227,97.3633 54.5508,63.5742 25.375,30.043"
         style="fill:none;stroke:#000000;stroke-width:5.279;stroke-linecap:round;stroke-linejoin:round;stroke-miterlimit:4;stroke-dasharray:none;stroke-opacity:1"
         id="path66" /><path
         d="M 7.08594,9.16016 25.375,30.043"
         style="fill:none;stroke:#000000;stroke-width:5.279;stroke-linecap:round;stroke-linejoin:round;stroke-miterlimit:4;stroke-dasharray:none;stroke-opacity:1"
         id="path68" /><path
         d="m 431.133,705 -27.403,-4.648 -23.789,-4.868 -10.464,-2.589 -9.477,-2.774 -8.398,-2.98 -7.231,-3.274 -3.172,-1.781 -2.82,-1.898 -2.5,-2.036 -2.109,-2.191 -0.922,-1.16 -0.821,-1.215 -0.714,-1.281 -0.606,-1.332 -0.5,-1.41 -0.195,-0.747 -0.188,-0.75 -0.144,-0.765 -0.133,-0.793 -0.055,-0.41 -0.039,-0.41 -0.023,-0.418 -0.043,-0.426 -0.012,-0.434 -0.016,-0.433 v -0.454 -0.449 l 0.016,-0.457 0.012,-0.465 0.027,-0.472 0.039,-0.489 0.078,-0.992 0.133,-1.027 0.332,-2.156 1.039,-4.828 1.52,-5.665 1.875,-6.664 2.058,-7.882 1.016,-4.45 0.937,-4.789 0.821,-5.136 0.359,-2.688 0.285,-2.766 0.25,-2.835 0.11,-1.438 0.078,-1.465 0.078,-1.476 0.051,-1.481 0.047,-1.504"
         style="fill:none;stroke:#80d6f7;stroke-width:5.279;stroke-linecap:round;stroke-linejoin:round;stroke-miterlimit:4;stroke-dasharray:none;stroke-opacity:1"
         id="path70" /><path
         d="m 340.52,601.949 0.007,-1.519 0.016,-1.535 -0.016,-1.528 -0.023,-1.554 -0.055,-1.559 -0.066,-1.574 -0.078,-1.571 -0.227,-3.164 -0.277,-3.211 -0.352,-3.207 -0.914,-6.468 -2.562,-12.934 -3.391,-12.816 -4.082,-12.579 -9.648,-24.316 -22.938,-45.449 -25.488,-42.176 -26.758,-39.887 -27.484,-38.281 -27.93,-37.078 -28.227,-36.184 -28.441,-35.468 -28.578,-34.899 -28.6877,-34.453 -28.7734,-34.07 -28.8438,-33.75"
         style="fill:none;stroke:#80d6f7;stroke-width:5.279;stroke-linecap:round;stroke-linejoin:round;stroke-miterlimit:4;stroke-dasharray:none;stroke-opacity:1"
         id="path72" /><path
         d="M 7.08594,89.5508 16.7031,100.719"
         style="fill:none;stroke:#80d6f7;stroke-width:5.279;stroke-linecap:round;stroke-linejoin:round;stroke-miterlimit:4;stroke-dasharray:none;stroke-opacity:1"
         id="path74" /><path
         d="m 423.461,742.344 -27.563,-9.004 -24.312,-9.371 -20.934,-10.164 -9.156,-5.575 -8.23,-6.011 -7.297,-6.578 -6.336,-7.309 -5.383,-8.254 -4.488,-9.41 -3.727,-10.895 -3.23,-12.652 L 296.016,615.82 285.375,577.887 269.25,537.172 248.762,496.559 225.465,457.012 200.426,418.652 174.258,381.348 147.359,344.902 119.941,309.16 92.168,274.008 64.1211,239.332 35.8672,205.063 7.46484,171.129"
         style="fill:none;stroke:#80d6f7;stroke-width:5.279;stroke-linecap:round;stroke-linejoin:round;stroke-miterlimit:4;stroke-dasharray:none;stroke-opacity:1"
         id="path76" /><path
         d="m 7.08594,170.68 0.3789,0.449"
         style="fill:none;stroke:#80d6f7;stroke-width:5.279;stroke-linecap:round;stroke-linejoin:round;stroke-miterlimit:4;stroke-dasharray:none;stroke-opacity:1"
         id="path78" /><path
         d="m 411.199,779.672 -27.785,-12.832 -25.016,-13.266 -22.226,-14.16 -19.457,-15.66 -16.817,-17.883 -14.585,-21.004 -13.227,-25.039 -13.356,-29.484 -15.085,-33.371 -17.77,-35.785 -20.41,-36.801 -22.574,-36.91 -24.18,-36.563 L 133.367,414.84 107.18,379.254 80.3828,344.125 53.1094,309.434 25.5078,275.102"
         style="fill:none;stroke:#80d6f7;stroke-width:5.279;stroke-linecap:round;stroke-linejoin:round;stroke-miterlimit:4;stroke-dasharray:none;stroke-opacity:1"
         id="path80" /><path
         d="M 7.08594,252.621 25.5078,275.102"
         style="fill:none;stroke:#80d6f7;stroke-width:5.279;stroke-linecap:round;stroke-linejoin:round;stroke-miterlimit:4;stroke-dasharray:none;stroke-opacity:1"
         id="path82" /><path
         d="M 394.949,817.016 366.938,800.938 341.199,784.453 317.691,767.105 296.293,748.441 276.781,727.914 258.73,705 241.477,679.301 224.195,650.707 206.047,619.531 186.469,586.449 165.281,552.195 142.605,517.402 118.637,482.445 93.6484,447.59 67.8711,412.91 41.4531,378.496 14.5508,344.336"
         style="fill:none;stroke:#80d6f7;stroke-width:5.279;stroke-linecap:round;stroke-linejoin:round;stroke-miterlimit:4;stroke-dasharray:none;stroke-opacity:1"
         id="path84" /><path
         d="m 7.08594,335.043 7.46486,9.293"
         style="fill:none;stroke:#80d6f7;stroke-width:5.279;stroke-linecap:round;stroke-linejoin:round;stroke-miterlimit:4;stroke-dasharray:none;stroke-opacity:1"
         id="path86" /><path
         d="m 375.398,854.348 -28.23,-18.735 -26.402,-19.09 -24.629,-19.808 -23.008,-20.91 L 251.496,753.418 230.914,729.25 210.918,703.086 190.984,674.902 170.629,644.875 149.473,613.352 127.324,580.746 104.141,547.473 80.0234,513.824 55.0781,480.035 29.4414,446.227"
         style="fill:none;stroke:#80d6f7;stroke-width:5.279;stroke-linecap:round;stroke-linejoin:round;stroke-miterlimit:4;stroke-dasharray:none;stroke-opacity:1"
         id="path88" /><path
         d="M 7.08594,417.449 29.4414,446.227"
         style="fill:none;stroke:#80d6f7;stroke-width:5.279;stroke-linecap:round;stroke-linejoin:round;stroke-miterlimit:4;stroke-dasharray:none;stroke-opacity:1"
         id="path90" /><path
         d="M 353.145,891.688 324.727,870.82 297.773,849.656 272.219,827.906 247.914,805.277 224.672,781.52 202.23,756.418 180.27,729.855 158.434,701.809 136.418,672.383 113.938,641.789 90.8516,610.25 67.0625,578.043 42.6016,545.387 17.5,512.465"
         style="fill:none;stroke:#80d6f7;stroke-width:5.279;stroke-linecap:round;stroke-linejoin:round;stroke-miterlimit:4;stroke-dasharray:none;stroke-opacity:1"
         id="path92" /><path
         d="M 7.08594,499.055 17.5,512.465"
         style="fill:none;stroke:#80d6f7;stroke-width:5.279;stroke-linecap:round;stroke-linejoin:round;stroke-miterlimit:4;stroke-dasharray:none;stroke-opacity:1"
         id="path94" /><path
         d="M 328.727,929.02 300.16,906.445 272.758,883.637 246.465,860.367 221.164,836.406 196.688,811.578 172.859,785.73 149.441,758.789 126.188,730.727 102.875,701.605 79.3242,671.555 55.3828,640.719 30.9844,609.25"
         style="fill:none;stroke:#80d6f7;stroke-width:5.279;stroke-linecap:round;stroke-linejoin:round;stroke-miterlimit:4;stroke-dasharray:none;stroke-opacity:1"
         id="path96" /><path
         d="M 7.08594,578.586 30.9844,609.25"
         style="fill:none;stroke:#80d6f7;stroke-width:5.279;stroke-linecap:round;stroke-linejoin:round;stroke-miterlimit:4;stroke-dasharray:none;stroke-opacity:1"
         id="path98" /><path
         d="M 302.594,966.348 273.895,942.418 246.133,918.301 219.258,893.813 193.188,868.801 167.777,843.109 142.895,816.66 118.375,789.348 94.0313,761.191 69.7031,732.207 45.2695,702.449 20.6016,672.051"
         style="fill:none;stroke:#80d6f7;stroke-width:5.279;stroke-linecap:round;stroke-linejoin:round;stroke-miterlimit:4;stroke-dasharray:none;stroke-opacity:1"
         id="path100" /><path
         d="M 7.08594,655.305 20.6016,672.051"
         style="fill:none;stroke:#80d6f7;stroke-width:5.279;stroke-linecap:round;stroke-linejoin:round;stroke-miterlimit:4;stroke-dasharray:none;stroke-opacity:1"
         id="path102" /><path
         d="M 275.055,1003.69 246.266,978.664 218.242,953.492 190.918,928.043 164.242,902.168 138.105,875.781 112.418,848.801 87.0352,821.164 61.8516,792.848 36.7148,763.887 11.5586,734.316"
         style="fill:none;stroke:#80d6f7;stroke-width:5.279;stroke-linecap:round;stroke-linejoin:round;stroke-miterlimit:4;stroke-dasharray:none;stroke-opacity:1"
         id="path104" /><path
         d="m 7.08594,728.984 4.47266,5.332"
         style="fill:none;stroke:#80d6f7;stroke-width:5.279;stroke-linecap:round;stroke-linejoin:round;stroke-miterlimit:4;stroke-dasharray:none;stroke-opacity:1"
         id="path106" /><path
         d="m 246.41,1041.02 -28.851,-25.9 -28.25,-26.026 L 161.641,962.852 134.488,936.289 107.797,909.32 81.4805,881.895 55.4336,853.949 29.5742,825.465"
         style="fill:none;stroke:#80d6f7;stroke-width:5.279;stroke-linecap:round;stroke-linejoin:round;stroke-miterlimit:4;stroke-dasharray:none;stroke-opacity:1"
         id="path108" /><path
         d="M 7.08594,800.16 29.5742,825.465"
         style="fill:none;stroke:#80d6f7;stroke-width:5.279;stroke-linecap:round;stroke-linejoin:round;stroke-miterlimit:4;stroke-dasharray:none;stroke-opacity:1"
         id="path110" /><path
         d="M 216.871,1078.36 187.965,1051.74 159.543,1025.02 131.598,998.137 104.086,971.008 76.9492,943.551 50.1406,915.723 23.5703,887.488"
         style="fill:none;stroke:#80d6f7;stroke-width:5.279;stroke-linecap:round;stroke-linejoin:round;stroke-miterlimit:4;stroke-dasharray:none;stroke-opacity:1"
         id="path112" /><path
         d="M 7.08594,869.605 23.5703,887.488"
         style="fill:none;stroke:#80d6f7;stroke-width:5.279;stroke-linecap:round;stroke-linejoin:round;stroke-miterlimit:4;stroke-dasharray:none;stroke-opacity:1"
         id="path114" /><path
         d="m 186.586,1115.69 -28.945,-27.21 -28.547,-27.28 -28.172,-27.41 -27.8009,-27.62 -27.4688,-27.865 -27.207,-28.153"
         style="fill:none;stroke:#80d6f7;stroke-width:5.279;stroke-linecap:round;stroke-linejoin:round;stroke-miterlimit:4;stroke-dasharray:none;stroke-opacity:1"
         id="path116" /><path
         d="M 7.08594,938.164 18.4453,950.152"
         style="fill:none;stroke:#80d6f7;stroke-width:5.279;stroke-linecap:round;stroke-linejoin:round;stroke-miterlimit:4;stroke-dasharray:none;stroke-opacity:1"
         id="path118" /><path
         d="m 903.027,630.344 -30.925,-4.66 -34.551,-4.871 -38.403,-5.364 -42.683,-6.254 -47.75,-7.906 -26.11,-4.988 -27.847,-6.129 -29.774,-7.828 L 593.258,571.852 560.145,557.305 527.559,537.48 498.227,513.27 473.16,487.449 431.953,437.738 396.563,392.289 363.691,350.117 332.121,310.23 301.27,271.949 270.875,234.867 240.762,198.688 210.852,163.219 181.098,128.32 151.449,93.8672 121.895,59.7969 92.3945,26.0469"
         style="fill:none;stroke:#80d6f7;stroke-width:5.279;stroke-linecap:round;stroke-linejoin:round;stroke-miterlimit:4;stroke-dasharray:none;stroke-opacity:1"
         id="path120" /><path
         d="M 76.2344,7.67188 92.3945,26.0469"
         style="fill:none;stroke:#80d6f7;stroke-width:5.279;stroke-linecap:round;stroke-linejoin:round;stroke-miterlimit:4;stroke-dasharray:none;stroke-opacity:1"
         id="path122" /><path
         d="m 910.703,593 -30.769,-9.004 -34.036,-9.363 -37.39,-10.176 -40.949,-11.574 -44.707,-13.899 -48.473,-17.66 L 623.008,497.773 571.461,466.488 523.77,428.555 481.559,387.832 443.711,347.211 408.668,307.68 375.375,269.32 343.191,232.004 311.77,195.559 280.84,159.828 250.277,124.664 220,90 189.902,55.7188 159.98,21.7813"
         style="fill:none;stroke:#80d6f7;stroke-width:5.279;stroke-linecap:round;stroke-linejoin:round;stroke-miterlimit:4;stroke-dasharray:none;stroke-opacity:1"
         id="path124" /><path
         d="m 147.48,7.67188 12.5,14.10942"
         style="fill:none;stroke:#80d6f7;stroke-width:5.279;stroke-linecap:round;stroke-linejoin:round;stroke-miterlimit:4;stroke-dasharray:none;stroke-opacity:1"
         id="path126" /><path
         d="M 922.969,555.668 892.422,542.828 859.094,529.563 822.98,515.395 784.102,499.742 742.59,481.863 698.828,460.855 653.727,435.813 608.75,406.324 565.508,372.969 524.918,337.168 486.992,300.367 451.234,263.473 417.09,226.91 384.086,190.82 351.949,155.234 320.41,120.121 289.336,85.4219 258.609,51.0977 228.145,17.082"
         style="fill:none;stroke:#80d6f7;stroke-width:5.279;stroke-linecap:round;stroke-linejoin:round;stroke-miterlimit:4;stroke-dasharray:none;stroke-opacity:1"
         id="path128" /><path
         d="m 219.695,7.67188 8.45,9.41012"
         style="fill:none;stroke:#80d6f7;stroke-width:5.279;stroke-linecap:round;stroke-linejoin:round;stroke-miterlimit:4;stroke-dasharray:none;stroke-opacity:1"
         id="path130" /><path
         d="M 939.219,518.324 908.895,502.246 876.289,485.762 841.477,468.43 804.52,449.766 765.691,429.238 725.41,406.324 684.336,380.625 643.281,352.031 603.102,320.855 564.336,287.773 527.18,253.52 491.523,218.711 457.148,183.77 423.809,148.895 391.254,114.234 359.324,79.8242 327.895,45.6445 296.836,11.7383"
         style="fill:none;stroke:#80d6f7;stroke-width:5.279;stroke-linecap:round;stroke-linejoin:round;stroke-miterlimit:4;stroke-dasharray:none;stroke-opacity:1"
         id="path132" /><path
         d="m 293.113,7.67188 3.723,4.06642"
         style="fill:none;stroke:#80d6f7;stroke-width:5.279;stroke-linecap:round;stroke-linejoin:round;stroke-miterlimit:4;stroke-dasharray:none;stroke-opacity:1"
         id="path134" /><path
         d="M 958.77,480.996 928.672,462.266 896.73,443.18 863.02,423.363 827.695,402.441 790.984,380.066 753.23,355.898 714.895,329.734 676.496,301.555 638.516,271.523 601.332,239.988 565.152,207.398 529.988,174.121 495.77,140.48 462.379,106.672 429.684,72.8672 397.563,39.1406"
         style="fill:none;stroke:#80d6f7;stroke-width:5.279;stroke-linecap:round;stroke-linejoin:round;stroke-miterlimit:4;stroke-dasharray:none;stroke-opacity:1"
         id="path136" /><path
         d="M 367.93,7.67188 397.563,39.1406"
         style="fill:none;stroke:#80d6f7;stroke-width:5.279;stroke-linecap:round;stroke-linejoin:round;stroke-miterlimit:4;stroke-dasharray:none;stroke-opacity:1"
         id="path138" /><path
         d="M 981.016,443.652 951.105,422.797 919.719,401.637 886.941,379.883 852.898,357.262 817.813,333.5 781.902,308.395 745.547,281.836 709.031,253.785 672.734,224.359 636.863,193.766 601.625,162.227 567.066,130.02 533.184,97.3633 499.957,64.4414 467.289,31.3906"
         style="fill:none;stroke:#80d6f7;stroke-width:5.279;stroke-linecap:round;stroke-linejoin:round;stroke-miterlimit:4;stroke-dasharray:none;stroke-opacity:1"
         id="path140" /><path
         d="M 444.254,7.67188 467.289,31.3906"
         style="fill:none;stroke:#80d6f7;stroke-width:5.279;stroke-linecap:round;stroke-linejoin:round;stroke-miterlimit:4;stroke-dasharray:none;stroke-opacity:1"
         id="path142" /><path
         d="M 1005.44,406.324 975.676,383.75 944.727,360.941 912.695,337.672 879.656,313.711 845.801,288.883 811.289,263.039 776.379,236.094 741.289,208.031 706.262,178.918 671.48,148.855 637.082,118.023 603.145,86.5547 569.68,54.6328 536.703,22.4023"
         style="fill:none;stroke:#80d6f7;stroke-width:5.279;stroke-linecap:round;stroke-linejoin:round;stroke-miterlimit:4;stroke-dasharray:none;stroke-opacity:1"
         id="path144" /><path
         d="M 521.934,7.67188 536.703,22.4023"
         style="fill:none;stroke:#80d6f7;stroke-width:5.279;stroke-linecap:round;stroke-linejoin:round;stroke-miterlimit:4;stroke-dasharray:none;stroke-opacity:1"
         id="path146" /><path
         d="m 1031.57,368.996 -29.64,-23.945 -30.575,-24.117 -31.46,-24.489 -32.25,-25.007 L 874.707,245.746 841.25,219.293 807.441,191.98 773.445,163.828 739.434,134.84 705.531,105.098 671.859,74.6875 638.492,43.7461 605.48,12.3672"
         style="fill:none;stroke:#80d6f7;stroke-width:5.279;stroke-linecap:round;stroke-linejoin:round;stroke-miterlimit:4;stroke-dasharray:none;stroke-opacity:1"
         id="path148" /><path
         d="m 600.637,7.67188 4.843,4.69532"
         style="fill:none;stroke:#80d6f7;stroke-width:5.279;stroke-linecap:round;stroke-linejoin:round;stroke-miterlimit:4;stroke-dasharray:none;stroke-opacity:1"
         id="path150" /><path
         d="M 1059.11,331.648 1029.56,306.621 999.27,281.449 968.242,256 936.582,230.133 904.375,203.746 871.73,176.762 838.77,149.121 805.625,120.82 772.422,91.8594 739.25,62.2813 706.207,32.1563"
         style="fill:none;stroke:#80d6f7;stroke-width:5.279;stroke-linecap:round;stroke-linejoin:round;stroke-miterlimit:4;stroke-dasharray:none;stroke-opacity:1"
         id="path152" /><path
         d="M 679.926,7.67188 706.207,32.1563"
         style="fill:none;stroke:#80d6f7;stroke-width:5.279;stroke-linecap:round;stroke-linejoin:round;stroke-miterlimit:4;stroke-dasharray:none;stroke-opacity:1"
         id="path154" /><path
         d="m 1087.75,294.32 -29.48,-25.914 -30.09,-26.011 -30.66,-26.243 -31.192,-26.558 -31.64,-26.965 -32.012,-27.449 -32.305,-27.946 -32.473,-28.4684 -32.566,-29 -32.566,-29.5"
         style="fill:none;stroke:#80d6f7;stroke-width:5.279;stroke-linecap:round;stroke-linejoin:round;stroke-miterlimit:4;stroke-dasharray:none;stroke-opacity:1"
         id="path156" /><path
         d="M 759.102,7.67188 772.766,20.2656"
         style="fill:none;stroke:#80d6f7;stroke-width:5.279;stroke-linecap:round;stroke-linejoin:round;stroke-miterlimit:4;stroke-dasharray:none;stroke-opacity:1"
         id="path158" /><path
         d="m 1117.3,256.977 -29.43,-26.622 -29.92,-26.703 -30.39,-26.89 L 996.738,149.625 965.527,122.168 934.016,94.3555 902.234,66.1172 870.313,37.4766 838.262,8.39844"
         style="fill:none;stroke:#80d6f7;stroke-width:5.279;stroke-linecap:round;stroke-linejoin:round;stroke-miterlimit:4;stroke-dasharray:none;stroke-opacity:1"
         id="path160" /><path
         d="m 837.473,7.67188 0.789,0.72656"
         style="fill:none;stroke:#80d6f7;stroke-width:5.279;stroke-linecap:round;stroke-linejoin:round;stroke-miterlimit:4;stroke-dasharray:none;stroke-opacity:1"
         id="path162" /><path
         d="m 900.43,667.672 h 46.093"
         style="fill:none;stroke:#000000;stroke-width:5.279;stroke-linecap:round;stroke-linejoin:round;stroke-miterlimit:4;stroke-dasharray:none;stroke-opacity:1"
         id="path164" /><path
         d="m 946.523,667.672 h 35.196"
         style="fill:none;stroke:#000000;stroke-width:5.279;stroke-linecap:round;stroke-linejoin:round;stroke-miterlimit:4;stroke-dasharray:none;stroke-opacity:1"
         id="path166" /><path
         d="M 976.133,667.672 H 900.43 l 0.918,22.016 0.91,9.16 1.824,12.988 3.645,18.551 7.293,26.648 14.57,38.91 29.18,58.403 29.168,48.215 29.172,43.39 29.16,40.524 29.17,38.653 29.17,37.31 29.16,36.35 29.17,35.57 29.17,34.99 29.16,34.5 29.17,34.13 29.17,33.79 29.18,33.53"
         style="fill:none;stroke:#000000;stroke-width:5.279;stroke-linecap:round;stroke-linejoin:round;stroke-miterlimit:4;stroke-dasharray:none;stroke-opacity:1"
         id="path168" /><path
         d="m 1327.09,1326.18 -18.3,-20.88"
         style="fill:none;stroke:#000000;stroke-width:5.279;stroke-linecap:round;stroke-linejoin:round;stroke-miterlimit:4;stroke-dasharray:none;stroke-opacity:1"
         id="path170" /><path
         d="m 903.027,630.344 27.411,4.64 23.792,4.875 10.458,2.586 9.472,2.77 8.399,2.988 7.238,3.274 3.172,1.781 2.824,1.898 2.488,2.032 2.119,2.191 0.92,1.164 0.82,1.215 0.71,1.281 0.61,1.332 0.5,1.41 0.2,0.742 0.19,0.75 0.13,0.77 0.14,0.789 0.05,0.41 0.04,0.406 0.02,0.426 0.04,0.418 0.02,0.442 0.01,0.433 v 0.449 0.45 l -0.01,0.461 -0.02,0.461 -0.02,0.476 -0.04,0.484 -0.07,0.993 -0.14,1.031 -0.33,2.152 -1.04,4.828 -1.52,5.664 -1.876,6.668 -2.058,7.879 -1.016,4.45 -0.937,4.789 -0.821,5.136 -0.351,2.692 -0.293,2.758 -0.242,2.835 -0.121,1.442 -0.079,1.465 -0.066,1.48 -0.059,1.481 -0.039,1.504"
         style="fill:none;stroke:#80d6f7;stroke-width:5.279;stroke-linecap:round;stroke-linejoin:round;stroke-miterlimit:4;stroke-dasharray:none;stroke-opacity:1"
         id="path172" /><path
         d="m 993.652,733.395 -0.007,1.519 -0.02,1.527 0.02,1.532 0.019,1.558 0.059,1.559 0.054,1.57 0.078,1.57 0.227,3.168 0.281,3.207 0.364,3.208 0.898,6.468 2.566,12.938 3.389,12.816 4.08,12.578 9.65,24.317 22.94,45.449 25.49,42.172 26.76,39.887 27.48,38.285 27.94,37.077 28.22,36.18 28.44,35.47 28.57,34.9 28.69,34.45 28.77,34.07 28.85,33.76"
         style="fill:none;stroke:#80d6f7;stroke-width:5.279;stroke-linecap:round;stroke-linejoin:round;stroke-miterlimit:4;stroke-dasharray:none;stroke-opacity:1"
         id="path174" /><path
         d="m 1327.09,1245.79 -9.63,-11.16"
         style="fill:none;stroke:#80d6f7;stroke-width:5.279;stroke-linecap:round;stroke-linejoin:round;stroke-miterlimit:4;stroke-dasharray:none;stroke-opacity:1"
         id="path176" /><path
         d="m 910.703,593 27.559,9.004 24.316,9.367 20.938,10.168 9.16,5.566 8.224,6.02 7.29,6.578 6.34,7.309 5.39,8.254 4.48,9.406 3.73,10.894 3.23,12.657 6.78,31.297 10.65,37.937 16.13,40.707 20.48,40.621 23.3,39.547 25.04,38.356 26.16,37.308 26.91,36.442 27.42,35.742 27.76,35.15 28.05,34.68 28.26,34.27 28.4,33.93"
         style="fill:none;stroke:#80d6f7;stroke-width:5.279;stroke-linecap:round;stroke-linejoin:round;stroke-miterlimit:4;stroke-dasharray:none;stroke-opacity:1"
         id="path178" /><path
         d="m 1327.09,1164.66 -0.39,-0.45"
         style="fill:none;stroke:#80d6f7;stroke-width:5.279;stroke-linecap:round;stroke-linejoin:round;stroke-miterlimit:4;stroke-dasharray:none;stroke-opacity:1"
         id="path180" /><path
         d="m 922.969,555.668 27.785,12.832 25.008,13.27 22.226,14.16 19.462,15.652 16.82,17.887 14.59,21 13.22,25.043 13.36,29.488 15.09,33.371 17.76,35.785 20.41,36.801 22.57,36.91 24.18,36.563 25.35,36.074 26.18,35.586 26.8,35.125 27.27,34.685 27.6,34.34"
         style="fill:none;stroke:#80d6f7;stroke-width:5.279;stroke-linecap:round;stroke-linejoin:round;stroke-miterlimit:4;stroke-dasharray:none;stroke-opacity:1"
         id="path182" /><path
         d="m 1327.09,1082.72 -18.44,-22.48"
         style="fill:none;stroke:#80d6f7;stroke-width:5.279;stroke-linecap:round;stroke-linejoin:round;stroke-miterlimit:4;stroke-dasharray:none;stroke-opacity:1"
         id="path184" /><path
         d="m 939.219,518.324 28.008,16.078 25.742,16.489 23.511,17.339 21.39,18.668 19.51,20.528 18.06,22.918 17.25,25.695 17.28,28.594 18.16,31.18 19.57,33.078 21.19,34.254 22.67,34.793 23.97,34.953 24.99,34.863 25.77,34.68 26.42,34.406 26.9,34.168"
         style="fill:none;stroke:#80d6f7;stroke-width:5.279;stroke-linecap:round;stroke-linejoin:round;stroke-miterlimit:4;stroke-dasharray:none;stroke-opacity:1"
         id="path186" /><path
         d="m 1327.09,1000.3 -7.48,-9.292"
         style="fill:none;stroke:#80d6f7;stroke-width:5.279;stroke-linecap:round;stroke-linejoin:round;stroke-miterlimit:4;stroke-dasharray:none;stroke-opacity:1"
         id="path188" /><path
         d="m 958.77,480.996 28.222,18.731 26.408,19.086 24.63,19.816 23.01,20.906 21.64,22.391 20.57,24.168 19.99,26.164 19.94,28.18 20.36,30.031 21.15,31.519 22.16,32.602 23.17,33.281 24.12,33.649 24.94,33.789 25.65,33.808"
         style="fill:none;stroke:#80d6f7;stroke-width:5.279;stroke-linecap:round;stroke-linejoin:round;stroke-miterlimit:4;stroke-dasharray:none;stroke-opacity:1"
         id="path190" /><path
         d="m 1327.09,917.891 -22.36,-28.774"
         style="fill:none;stroke:#80d6f7;stroke-width:5.279;stroke-linecap:round;stroke-linejoin:round;stroke-miterlimit:4;stroke-dasharray:none;stroke-opacity:1"
         id="path192" /><path
         d="m 981.016,443.652 28.414,20.868 26.96,21.164 25.55,21.754 24.31,22.621 23.24,23.757 22.44,25.11 21.96,26.558 21.84,28.051 22.02,29.426 22.48,30.594 23.08,31.535 23.79,32.211 24.46,32.656 25.1,32.918"
         style="fill:none;stroke:#80d6f7;stroke-width:5.279;stroke-linecap:round;stroke-linejoin:round;stroke-miterlimit:4;stroke-dasharray:none;stroke-opacity:1"
         id="path194" /><path
         d="m 1327.09,836.289 -10.43,-13.414"
         style="fill:none;stroke:#80d6f7;stroke-width:5.279;stroke-linecap:round;stroke-linejoin:round;stroke-miterlimit:4;stroke-dasharray:none;stroke-opacity:1"
         id="path196" /><path
         d="m 1005.44,406.324 28.56,22.571 27.41,22.808 26.29,23.274 25.31,23.961 24.47,24.828 23.83,25.843 23.42,26.938 23.25,28.066 23.31,29.117 23.55,30.059 23.94,30.836 24.4,31.469"
         style="fill:none;stroke:#80d6f7;stroke-width:5.279;stroke-linecap:round;stroke-linejoin:round;stroke-miterlimit:4;stroke-dasharray:none;stroke-opacity:1"
         id="path198" /><path
         d="m 1327.09,756.758 -23.91,-30.664"
         style="fill:none;stroke:#80d6f7;stroke-width:5.279;stroke-linecap:round;stroke-linejoin:round;stroke-miterlimit:4;stroke-dasharray:none;stroke-opacity:1"
         id="path200" /><path
         d="m 1031.57,368.996 28.7,23.93 27.76,24.117 26.87,24.484 26.08,25.016 25.41,25.684 24.88,26.457 24.52,27.308 24.35,28.156 24.32,28.989 24.43,29.75 24.67,30.398"
         style="fill:none;stroke:#80d6f7;stroke-width:5.279;stroke-linecap:round;stroke-linejoin:round;stroke-miterlimit:4;stroke-dasharray:none;stroke-opacity:1"
         id="path202" /><path
         d="m 1327.09,680.039 -13.53,-16.754"
         style="fill:none;stroke:#80d6f7;stroke-width:5.279;stroke-linecap:round;stroke-linejoin:round;stroke-miterlimit:4;stroke-dasharray:none;stroke-opacity:1"
         id="path204" /><path
         d="m 1059.11,331.648 28.79,25.032 28.02,25.172 27.32,25.449 26.68,25.875 26.14,26.387 25.69,26.976 25.38,27.641 25.18,28.316 25.14,28.961 25.16,29.566"
         style="fill:none;stroke:#80d6f7;stroke-width:5.279;stroke-linecap:round;stroke-linejoin:round;stroke-miterlimit:4;stroke-dasharray:none;stroke-opacity:1"
         id="path206" /><path
         d="m 1327.09,606.355 -4.48,-5.332"
         style="fill:none;stroke:#80d6f7;stroke-width:5.279;stroke-linecap:round;stroke-linejoin:round;stroke-miterlimit:4;stroke-dasharray:none;stroke-opacity:1"
         id="path208" /><path
         d="m 1087.75,294.32 28.85,25.899 28.26,26.031 27.66,26.238 27.16,26.567 26.69,26.961 26.32,27.429 26.04,27.946 25.86,28.488"
         style="fill:none;stroke:#80d6f7;stroke-width:5.279;stroke-linecap:round;stroke-linejoin:round;stroke-miterlimit:4;stroke-dasharray:none;stroke-opacity:1"
         id="path210" /><path
         d="m 1327.09,535.18 -22.5,-25.301"
         style="fill:none;stroke:#80d6f7;stroke-width:5.279;stroke-linecap:round;stroke-linejoin:round;stroke-miterlimit:4;stroke-dasharray:none;stroke-opacity:1"
         id="path212" /><path
         d="m 1117.3,256.977 28.9,26.628 28.43,26.715 27.94,26.887 27.51,27.129 27.14,27.457 26.8,27.82 26.58,28.239"
         style="fill:none;stroke:#80d6f7;stroke-width:5.279;stroke-linecap:round;stroke-linejoin:round;stroke-miterlimit:4;stroke-dasharray:none;stroke-opacity:1"
         id="path214" /><path
         d="M 1327.09,465.738 1310.6,447.852"
         style="fill:none;stroke:#80d6f7;stroke-width:5.279;stroke-linecap:round;stroke-linejoin:round;stroke-miterlimit:4;stroke-dasharray:none;stroke-opacity:1"
         id="path216" /><path
         d="M 345.332,667.672 H 988.828"
         style="fill:none;stroke:#40c1f3;stroke-width:10.56;stroke-linecap:round;stroke-linejoin:round;stroke-miterlimit:4;stroke-dasharray:none;stroke-opacity:1"
         id="path218" /><path
         d="m 1079.59,7.67188 h 247.5"
         style="fill:none;stroke:#000000;stroke-width:5.279;stroke-linecap:round;stroke-linejoin:round;stroke-miterlimit:4;stroke-dasharray:none;stroke-opacity:1"
         id="path220" /><path
         d="M 1079.59,7.67188 1327.09,271.672"
         style="fill:none;stroke:#000000;stroke-width:7.5;stroke-linecap:round;stroke-linejoin:round;stroke-miterlimit:4;stroke-dasharray:none;stroke-opacity:1"
         id="path222" /><path
         d="m 1324.47,268.879 -15.47,3.25 0.09,0.543 21.45,10.086 c 6.48,4.449 12.97,8.89 19.45,13.336 -4.02,-6.754 -8.04,-13.512 -12.06,-20.262 l -8.68,-22.062 -0.48,-0.176 -4.3,15.285"
         style="fill:#000000;fill-opacity:1;fill-rule:nonzero;stroke:none"
         id="path224" /><path
         d="m 1310.59,7.67188 -0.03,3.69532 -0.08,3.6914 -0.13,3.6953 -0.18,3.6914 -0.24,3.6875 -0.28,3.6797 -0.33,3.6797 -0.39,3.6719"
         style="fill:none;stroke:#000000;stroke-width:5.279;stroke-linecap:round;stroke-linejoin:round;stroke-miterlimit:4;stroke-dasharray:none;stroke-opacity:1"
         id="path226" /><path
         d="m 1308.93,37.1641 -0.45,3.6679 -0.49,3.6602 -0.55,3.6484 -0.58,3.6407 -0.65,3.6289 -0.7,3.6211 -0.74,3.6093"
         style="fill:none;stroke:#000000;stroke-width:5.279;stroke-linecap:round;stroke-linejoin:round;stroke-miterlimit:4;stroke-dasharray:none;stroke-opacity:1"
         id="path228" /><path
         d="m 1274.41,140.027 -1.02,1.731 -1.91,3.086 -1.96,3.054 -1.99,3.024 -2.03,2.988 -2.08,2.961 -2.11,2.926"
         style="fill:none;stroke:#000000;stroke-width:5.279;stroke-linecap:round;stroke-linejoin:round;stroke-miterlimit:4;stroke-dasharray:none;stroke-opacity:1"
         id="path230" /><path
         d="m 1261.31,159.797 -2.16,2.891 -2.21,2.855 -2.23,2.816 -2.28,2.786 -2.32,2.746 -2.36,2.711 -2.4,2.671 -2.42,2.629"
         style="fill:none;stroke:#000000;stroke-width:5.279;stroke-linecap:round;stroke-linejoin:round;stroke-miterlimit:4;stroke-dasharray:none;stroke-opacity:1"
         id="path232" /><g
         id="g234"
         transform="scale(10)"><text
           transform="matrix(1,0,0,-1,114.666,15.6664)"
           style="font-variant:normal;font-weight:bold;font-size:8px;font-family:'Times New Roman';-inkscape-font-specification:Times-Bold;writing-mode:lr-tb;fill:#000000;fill-opacity:1;fill-rule:nonzero;stroke:none"
           id="text238"><tspan
             x="0"
             y="0"
             id="tspan236">V</tspan></text><text
           transform="matrix(1,0,0,-1,126.334,7.99999)"
           style="font-variant:normal;font-weight:normal;font-size:9px;font-family:Symbol;-inkscape-font-specification:SymbolObliquePlain;writing-mode:lr-tb;fill:#000000;fill-opacity:1;fill-rule:nonzero;stroke:none"
           id="text242"><tspan
             x="0"
             y="0"
             id="tspan240">α</tspan></text></g></g></g></svg>
