<?xml version="1.0" encoding="UTF-8" standalone="no"?>
<svg
   xmlns:dc="http://purl.org/dc/elements/1.1/"
   xmlns:cc="http://creativecommons.org/ns#"
   xmlns:rdf="http://www.w3.org/1999/02/22-rdf-syntax-ns#"
   xmlns:svg="http://www.w3.org/2000/svg"
   xmlns="http://www.w3.org/2000/svg"
   version="1.1"
   id="svg2"
   xml:space="preserve"
   width="324"
   height="220"
   viewBox="0 0 324 220"><metadata
     id="metadata8"><rdf:RDF><cc:Work
         rdf:about=""><dc:format>image/svg+xml</dc:format><dc:type
           rdf:resource="http://purl.org/dc/dcmitype/StillImage" /></cc:Work></rdf:RDF></metadata><defs
     id="defs6" /><g
     id="g10"
     transform="matrix(1.3333333,0,0,-1.3333333,0,220)"><g
       id="g12"
       transform="scale(0.1)"><path
         d="M 528.637,1285.4 11.0781,361.395 H 1559.89 l 517.56,924.005 z"
         style="fill:none;stroke:#80d6f7;stroke-width:10;stroke-linecap:butt;stroke-linejoin:miter;stroke-miterlimit:4;stroke-dasharray:none;stroke-opacity:1"
         id="path14" /><path
         d="m 960,1645 c 0,-810 0,-810 0,-810"
         style="fill:none;stroke:#000000;stroke-width:10;stroke-linecap:butt;stroke-linejoin:miter;stroke-miterlimit:4;stroke-dasharray:none;stroke-opacity:1"
         id="path16" /><path
         d="m 961.25,803.75 c 0,-185.559 0,-425 0,-425"
         style="fill:none;stroke:#000000;stroke-width:10;stroke-linecap:butt;stroke-linejoin:miter;stroke-miterlimit:4;stroke-dasharray:20, 30;stroke-dashoffset:0;stroke-opacity:1"
         id="path18" /><path
         d="m 961.25,360 c 0,-360 0,-360 0,-360"
         style="fill:none;stroke:#000000;stroke-width:10;stroke-linecap:butt;stroke-linejoin:miter;stroke-miterlimit:4;stroke-dasharray:none;stroke-opacity:1"
         id="path20" /><path
         d="m 961.25,135 c 0,-44.2383 0,-45 0,-45"
         style="fill:none;stroke:#000000;stroke-width:30;stroke-linecap:butt;stroke-linejoin:miter;stroke-miterlimit:4;stroke-dasharray:none;stroke-opacity:1"
         id="path22" /><path
         d="m 960,1570 c 0,-45 0,-45 0,-45"
         style="fill:none;stroke:#000000;stroke-width:30;stroke-linecap:butt;stroke-linejoin:miter;stroke-miterlimit:4;stroke-dasharray:none;stroke-opacity:1"
         id="path24" /><g
         id="g26"
         transform="scale(10)"><text
           transform="matrix(1,0,0,-1,61.875,8.125)"
           style="font-variant:normal;font-weight:normal;font-size:8px;font-family:'Times New Roman';-inkscape-font-specification:Times-Roman;writing-mode:lr-tb;fill:#000000;fill-opacity:1;fill-rule:nonzero;stroke:none"
           id="text30"><tspan
             x="0 2.664 6.664 8.6639996 10.664 14.664 16.664"
             y="0"
             id="tspan28">(0, 0, </tspan></text></g><g
         id="g32"
         transform="scale(10)"><text
           transform="matrix(1,0,0,-1,80.5391,8.125)"
           style="font-variant:normal;font-weight:normal;font-size:8px;font-family:Symbol;-inkscape-font-specification:Symbol;writing-mode:lr-tb;fill:#231f20;fill-opacity:1;fill-rule:nonzero;stroke:none"
           id="text36"><tspan
             x="0"
             y="0"
             id="tspan34">−</tspan></text></g><g
         id="g38"
         transform="scale(10)"><text
           transform="matrix(1,0,0,-1,84.9313,8.125)"
           style="font-style:italic;font-variant:normal;font-size:8px;font-family:'Times New Roman';-inkscape-font-specification:Times-Italic;writing-mode:lr-tb;fill:#000000;fill-opacity:1;fill-rule:nonzero;stroke:none"
           id="text42"><tspan
             x="0"
             y="0"
             id="tspan40">h</tspan></text><text
           transform="matrix(1,0,0,-1,88.9313,8.125)"
           style="font-variant:normal;font-weight:normal;font-size:8px;font-family:'Times New Roman';-inkscape-font-specification:Times-Roman;writing-mode:lr-tb;fill:#000000;fill-opacity:1;fill-rule:nonzero;stroke:none"
           id="text48"><tspan
             x="0"
             y="0"
             id="tspan44">)</tspan><tspan
             x="-22.664101 -20.000099 -16.000099 -14.0001 -12.0001 -8.0001001 -6.0001001"
             y="-145.166"
             id="tspan46">(0, 0, </tspan></text><text
           transform="matrix(1,0,0,-1,84.9313,153.291)"
           style="font-style:italic;font-variant:normal;font-size:8px;font-family:'Times New Roman';-inkscape-font-specification:Times-Italic;writing-mode:lr-tb;fill:#000000;fill-opacity:1;fill-rule:nonzero;stroke:none"
           id="text52"><tspan
             x="0"
             y="0"
             id="tspan50">h</tspan></text><text
           transform="matrix(1,0,0,-1,88.9313,153.291)"
           style="font-variant:normal;font-weight:normal;font-size:8px;font-family:'Times New Roman';-inkscape-font-specification:Times-Roman;writing-mode:lr-tb;fill:#000000;fill-opacity:1;fill-rule:nonzero;stroke:none"
           id="text56"><tspan
             x="0"
             y="0"
             id="tspan54">)</tspan></text></g><path
         d="M 996.25,1511.25 C 1780.94,1039.84 1812.5,1017.5 1812.5,1017.5"
         style="fill:none;stroke:#000000;stroke-width:10;stroke-linecap:butt;stroke-linejoin:miter;stroke-miterlimit:4;stroke-dasharray:20, 30;stroke-dashoffset:0;stroke-opacity:1"
         id="path58" /><path
         d="M 990.625,150 C 1788.13,970 1812.5,997.5 1812.5,997.5"
         style="fill:none;stroke:#000000;stroke-width:10;stroke-linecap:butt;stroke-linejoin:miter;stroke-miterlimit:4;stroke-dasharray:20, 30;stroke-dashoffset:0;stroke-opacity:1"
         id="path60" /><path
         d="m 982.5,825 c 805,177.5 805,177.5 805,177.5"
         style="fill:none;stroke:#000000;stroke-width:10;stroke-linecap:butt;stroke-linejoin:miter;stroke-miterlimit:4;stroke-dasharray:20, 30;stroke-dashoffset:0;stroke-opacity:1"
         id="path62" /><path
         d="M 1827.5,1010 C 1975,917.5 1975,917.5 1975,917.5"
         style="fill:none;stroke:#000000;stroke-width:10;stroke-linecap:butt;stroke-linejoin:miter;stroke-miterlimit:4;stroke-dasharray:none;stroke-opacity:1"
         id="path64" /><path
         d="m 1828.75,1011.25 c 167.5,37.5 292.5,67.5 292.5,67.5"
         style="fill:none;stroke:#000000;stroke-width:10;stroke-linecap:butt;stroke-linejoin:miter;stroke-miterlimit:4;stroke-dasharray:none;stroke-opacity:1"
         id="path66" /><path
         d="m 1827.5,1012.5 c 122.5,120 122.5,120 122.5,120"
         style="fill:none;stroke:#000000;stroke-width:10;stroke-linecap:butt;stroke-linejoin:miter;stroke-miterlimit:4;stroke-dasharray:none;stroke-opacity:1"
         id="path68" /><g
         id="g70"
         transform="scale(10)"><text
           transform="matrix(1,0,0,-1,143.5,104)"
           style="font-style:italic;font-variant:normal;font-size:8px;font-family:'Times New Roman';-inkscape-font-specification:Times-Italic;writing-mode:lr-tb;fill:#000000;fill-opacity:1;fill-rule:nonzero;stroke:none"
           id="text78"><tspan
             x="0"
             y="0"
             id="tspan72">t</tspan><tspan
             x="36.388699"
             y="-2.1660199"
             id="tspan74">z</tspan><tspan
             x="-8.1113005"
             y="19.333981"
             id="tspan76">r</tspan></text></g><path
         d="m 1495,1188.12 c -20.61,-19.8 -37.36,-50.62 -42.5,-78.12"
         style="fill:none;stroke:#000000;stroke-width:5;stroke-linecap:butt;stroke-linejoin:miter;stroke-miterlimit:4;stroke-dasharray:none;stroke-opacity:1"
         id="path80" /><path
         d="m 1443.13,1003.75 c 0.33,-19.562 10.43,-58.062 16.87,-73.75"
         style="fill:none;stroke:#000000;stroke-width:5;stroke-linecap:butt;stroke-linejoin:miter;stroke-miterlimit:4;stroke-dasharray:none;stroke-opacity:1"
         id="path82" /><g
         id="g84"
         transform="scale(10)"><text
           transform="matrix(1,0,0,-1,217.563,104.937)"
           style="font-variant:normal;font-weight:bold;font-size:8px;font-family:'Times New Roman';-inkscape-font-specification:Times-Bold;writing-mode:lr-tb;fill:#000000;fill-opacity:1;fill-rule:nonzero;stroke:none"
           id="text88"><tspan
             x="0"
             y="0"
             id="tspan86">E</tspan></text><text
           transform="matrix(1,0,0,-1,226.89894,104.937)"
           style="font-style:italic;font-variant:normal;font-weight:bold;font-size:8px;font-family:'Times New Roman';-inkscape-font-specification:Times-BoldItalic;writing-mode:lr-tb;fill:#000000;fill-opacity:1;fill-rule:nonzero;stroke:none"
           id="text92"><tspan
             x="0 4.5599999"
             y="0"
             id="tspan90">+ </tspan></text><text
           transform="matrix(1,0,0,-1,233.45914,104.937)"
           style="font-variant:normal;font-weight:bold;font-size:8px;font-family:'Times New Roman';-inkscape-font-specification:Times-Bold;writing-mode:lr-tb;fill:#000000;fill-opacity:1;fill-rule:nonzero;stroke:none"
           id="text100"><tspan
             x="0"
             y="0"
             id="tspan94">E</tspan><tspan
             x="-39.708599"
             y="23.937099"
             id="tspan96">E</tspan><tspan
             x="-42.68985"
             y="-16.103901"
             id="tspan98">E</tspan></text><text
           transform="matrix(1,0,0,-1,222.75049,102.312)"
           style="font-variant:normal;font-weight:normal;font-size:6px;font-family:'Times New Roman';-inkscape-font-specification:Times-Roman;writing-mode:lr-tb;fill:#000000;fill-opacity:1;fill-rule:nonzero;stroke:none"
           id="text110"><tspan
             x="0"
             y="0"
             id="tspan102">1</tspan><tspan
             x="-26.917999"
             y="-16.25"
             id="tspan104">1</tspan><tspan
             x="17.082001"
             y="0"
             id="tspan106">2</tspan><tspan
             x="-23.667999"
             y="23.874599"
             id="tspan108">2</tspan></text><text
           transform="matrix(1,0,0,-1,101.19189,153.9159)"
           style="font-style:italic;font-variant:normal;font-size:8px;font-family:'Times New Roman';-inkscape-font-specification:Times-Italic;writing-mode:lr-tb;fill:#000000;fill-opacity:1;fill-rule:nonzero;stroke:none"
           id="text114"><tspan
             x="0"
             y="0"
             id="tspan112">q</tspan></text><text
           transform="matrix(1,0,0,-1,105.19189,153.9159)"
           style="font-variant:normal;font-weight:normal;font-size:8px;font-family:'Times New Roman';-inkscape-font-specification:Times-Roman;writing-mode:lr-tb;fill:#000000;fill-opacity:1;fill-rule:nonzero;stroke:none"
           id="text118"><tspan
             x="0 2.224"
             y="0"
             id="tspan116">/2</tspan></text><text
           transform="matrix(1,0,0,-1,113.41572,153.9159)"
           style="font-variant:normal;font-weight:normal;font-size:8px;font-family:Symbol;-inkscape-font-specification:Symbol;writing-mode:lr-tb;fill:#000000;fill-opacity:1;fill-rule:nonzero;stroke:none"
           id="text122"><tspan
             x="0"
             y="0"
             id="tspan120">∆</tspan></text><text
           transform="matrix(1,0,0,-1,118.31181,153.9159)"
           style="font-style:italic;font-variant:normal;font-size:8px;font-family:'Times New Roman';-inkscape-font-specification:Times-Italic;writing-mode:lr-tb;fill:#000000;fill-opacity:1;fill-rule:nonzero;stroke:none"
           id="text126"><tspan
             x="0"
             y="0"
             id="tspan124">h</tspan></text><text
           transform="matrix(1,0,0,-1,87.50051,110.9999)"
           style="font-style:italic;font-variant:normal;font-size:10px;font-family:'Times New Roman';-inkscape-font-specification:Times-Italic;writing-mode:lr-tb;fill:#000000;fill-opacity:1;fill-rule:nonzero;stroke:none"
           id="text130"><tspan
             x="0"
             y="0"
             id="tspan128">L</tspan></text><text
           transform="matrix(1,0,0,-1,101.19191,9.1329)"
           style="font-style:italic;font-variant:normal;font-size:8px;font-family:'Times New Roman';-inkscape-font-specification:Times-Italic;writing-mode:lr-tb;fill:#000000;fill-opacity:1;fill-rule:nonzero;stroke:none"
           id="text134"><tspan
             x="0"
             y="0"
             id="tspan132">q</tspan></text><text
           transform="matrix(1,0,0,-1,105.19191,9.1329)"
           style="font-variant:normal;font-weight:normal;font-size:8px;font-family:'Times New Roman';-inkscape-font-specification:Times-Roman;writing-mode:lr-tb;fill:#000000;fill-opacity:1;fill-rule:nonzero;stroke:none"
           id="text138"><tspan
             x="0 2.224"
             y="0"
             id="tspan136">/2</tspan></text><text
           transform="matrix(1,0,0,-1,113.41574,9.1329)"
           style="font-variant:normal;font-weight:normal;font-size:8px;font-family:Symbol;-inkscape-font-specification:Symbol;writing-mode:lr-tb;fill:#000000;fill-opacity:1;fill-rule:nonzero;stroke:none"
           id="text142"><tspan
             x="0"
             y="0"
             id="tspan140">∆</tspan></text><text
           transform="matrix(1,0,0,-1,118.31183,9.1329)"
           style="font-style:italic;font-variant:normal;font-size:8px;font-family:'Times New Roman';-inkscape-font-specification:Times-Italic;writing-mode:lr-tb;fill:#000000;fill-opacity:1;fill-rule:nonzero;stroke:none"
           id="text146"><tspan
             x="0"
             y="0"
             id="tspan144">h</tspan></text></g><path
         d="m 1931.05,1114.21 -22.86,6.31 0.19,0.81 33.06,13.1 c 10.1,6.05 20.23,12.11 30.34,18.16 -6.64,-9.73 -13.29,-19.48 -19.92,-29.22 l -15.05,-32.22 -0.75,-0.22 -5.01,23.28"
         style="fill:#000000;fill-opacity:1;fill-rule:nonzero;stroke:none"
         id="path148" /><path
         d="m 1956.99,929.418 2.13,23.621 0.83,-0.047 18.79,-30.187 c 7.76,-8.864 15.52,-17.75 23.28,-26.621 -10.76,4.8 -21.54,9.609 -32.3,14.39 l -34.39,9.059 -0.35,0.699 22.01,9.086"
         style="fill:#000000;fill-opacity:1;fill-rule:nonzero;stroke:none"
         id="path150" /><path
         d="m 2093.98,1071.35 -16.69,16.84 0.57,0.61 35.19,-5.08 c 11.78,0.23 23.58,0.44 35.36,0.66 -10.61,-5.14 -21.23,-10.29 -31.82,-15.43 l -29.07,-20.47 -0.77,0.18 7.23,22.69"
         style="fill:#000000;fill-opacity:1;fill-rule:nonzero;stroke:none"
         id="path152" /><path
         d="m 1481.54,1171.4 -15.74,1.4 0.02,0.56 20.11,12.55 c 5.9,5.18 11.82,10.37 17.72,15.57 -3.19,-7.2 -6.37,-14.38 -9.56,-21.56 l -6,-22.93 -0.46,-0.26 -6.09,14.67"
         style="fill:#000000;fill-opacity:1;fill-rule:nonzero;stroke:none"
         id="path154" /></g></g></svg>
