<?xml version="1.0" encoding="UTF-8" standalone="no"?>
<svg
   xmlns:dc="http://purl.org/dc/elements/1.1/"
   xmlns:cc="http://creativecommons.org/ns#"
   xmlns:rdf="http://www.w3.org/1999/02/22-rdf-syntax-ns#"
   xmlns:svg="http://www.w3.org/2000/svg"
   xmlns="http://www.w3.org/2000/svg"
   version="1.1"
   id="svg2"
   xml:space="preserve"
   width="205.33333"
   height="120"
   viewBox="0 0 205.33333 120"><metadata
     id="metadata8"><rdf:RDF><cc:Work
         rdf:about=""><dc:format>image/svg+xml</dc:format><dc:type
           rdf:resource="http://purl.org/dc/dcmitype/StillImage" /></cc:Work></rdf:RDF></metadata><defs
     id="defs6" /><g
     id="g10"
     transform="matrix(1.3333333,0,0,-1.3333333,0,120)"><g
       id="g12"
       transform="scale(0.1)"><path
         d="m 5.57422,160.215 63.69918,0.777 63.7106,1.02 63.696,1.351 63.711,1.828 31.843,1.176 31.848,1.403 31.852,1.699 31.863,2.086 31.848,2.586 31.843,3.261 31.852,4.18 31.848,5.488 31.863,7.379 15.914,4.688 15.93,5.566 31.851,14.848 15.934,10.07 15.914,12.637 15.929,16.219 15.918,21.304 15.93,28.844 7.969,18.41 7.965,21.973 15.918,58.433 7.965,38.723 7.964,46.277 7.965,53.098 7.949,55.106 3.993,24.855 1.984,10.84 1.992,9.398 1.988,7.66 2,5.68 1.989,3.496 1.988,1.176 1.988,-1.176 1.989,-3.496 3.988,-13.34 1.984,-9.398 1.992,-10.84 3.993,-24.855 15.914,-108.204 7.965,-46.277 7.96,-38.723 7.969,-31.988 7.949,-26.445 15.938,-40.383 15.93,-28.844 15.918,-21.304"
         style="fill:none;stroke:#80d6f7;stroke-width:5;stroke-linecap:round;stroke-linejoin:round;stroke-miterlimit:4;stroke-dasharray:none;stroke-opacity:1"
         id="path14" /><path
         d="m 881.477,258.477 15.925,-16.219 15.918,-12.637 15.938,-10.07 15.93,-8.156 15.917,-6.692 31.844,-10.254 31.861,-7.379 31.85,-5.488 31.86,-4.18 31.83,-3.261 31.86,-2.586 31.85,-2.086 31.86,-1.699 63.69,-2.579 63.71,-1.828 63.7,-1.351 63.71,-1.02 63.7,-0.777"
         style="fill:none;stroke:#80d6f7;stroke-width:5;stroke-linecap:round;stroke-linejoin:round;stroke-miterlimit:4;stroke-dasharray:none;stroke-opacity:1"
         id="path16" /><path
         d="m 5.57422,220.602 63.69918,1.554 63.7106,2.008 63.696,2.656 63.711,3.594 31.843,2.305 31.848,2.734 31.852,3.32 31.863,4.024 31.848,4.996 31.843,6.23 31.852,7.934 31.848,10.289 31.863,13.629 31.844,18.473 31.851,25.789 15.934,16.82 15.914,20.34 31.847,55.141 15.93,37.109 15.934,44.746 15.918,51.719 15.929,53.984 7.965,24.402 3.977,10.668 3.972,9.254 3.993,7.539 1.984,3.067 1.992,2.531 1.988,2 2,1.449 1.989,0.875 1.988,0.285 1.988,-0.285 1.989,-0.875 2,-1.449 1.988,-2 1.984,-2.531 1.992,-3.067 3.993,-7.539 7.949,-19.922 7.965,-24.402 31.843,-105.703 15.938,-44.746 15.93,-37.109 15.918,-30.352 15.925,-24.789 31.856,-37.16 15.93,-14.024 15.917,-11.765"
         style="fill:none;stroke:#80d6f7;stroke-width:5;stroke-linecap:round;stroke-linejoin:round;stroke-miterlimit:4;stroke-dasharray:none;stroke-opacity:1"
         id="path18" /><path
         d="m 961.105,304.348 31.844,-18.473 31.861,-13.629 31.85,-10.289 31.86,-7.934 31.83,-6.23 31.86,-4.996 31.85,-4.024 31.86,-3.32 63.69,-5.039 63.71,-3.594 63.7,-2.656 63.71,-2.008 63.7,-1.554"
         style="fill:none;stroke:#80d6f7;stroke-width:5;stroke-linecap:round;stroke-linejoin:round;stroke-miterlimit:4;stroke-dasharray:none;stroke-opacity:1"
         id="path20" /><path
         d="m 5.57422,280.93 63.69918,2.289 63.7106,2.937 63.696,3.899 63.711,5.226 31.843,3.344 31.848,3.957 31.852,4.738 31.863,5.754 31.848,7.028 31.843,8.714 31.852,10.957 31.848,13.915 31.863,17.996 31.844,23.582 31.851,31.304 31.848,41.805 31.847,54.93 31.864,67.179 15.918,34.711 15.929,30.797 7.965,12.34 3.977,5.121 3.972,4.293 3.993,3.418 1.984,1.363 1.992,1.118 1.988,0.886 2,0.621 1.989,0.387 1.988,0.125 1.988,-0.125 1.989,-0.387 2,-0.621 1.988,-0.886 1.984,-1.118 1.992,-1.363 3.993,-3.418 7.949,-9.414 7.965,-12.34 31.843,-65.508 31.868,-67.179 31.843,-54.93 31.856,-41.805 31.847,-31.304 31.844,-23.582 31.861,-17.996 31.85,-13.915 31.86,-10.957 31.83,-8.714"
         style="fill:none;stroke:#80d6f7;stroke-width:5;stroke-linecap:round;stroke-linejoin:round;stroke-miterlimit:4;stroke-dasharray:none;stroke-opacity:1"
         id="path22" /><path
         d="m 1120.35,320.102 31.86,-7.028 31.85,-5.754 31.86,-4.738 63.69,-7.301 63.71,-5.226 63.7,-3.899 63.71,-2.937 63.7,-2.289"
         style="fill:none;stroke:#80d6f7;stroke-width:5;stroke-linecap:round;stroke-linejoin:round;stroke-miterlimit:4;stroke-dasharray:none;stroke-opacity:1"
         id="path24" /><path
         d="m 5.57422,341.125 63.69918,2.984 63.7106,3.821 63.696,5.023 63.711,6.711 63.691,9.223 31.852,5.949 31.863,7.152 31.848,8.633 31.843,10.57 31.852,13.043 31.848,16.231 31.863,20.355 31.844,25.645 63.699,72.109 31.847,47.125 31.864,50.071 15.918,22.878 7.965,10.036 7.964,8.73 7.965,7.117 3.977,2.895 3.972,2.402 3.993,1.891 1.984,0.746 1.992,0.621 1.988,0.477 2,0.332 1.989,0.21 1.988,0.079 1.988,-0.079 1.989,-0.21 2,-0.332 1.988,-0.477 1.984,-0.621 1.992,-0.746 3.993,-1.891 7.949,-5.297 7.965,-7.117 15.925,-18.766 15.918,-22.878 63.711,-97.196 31.856,-39.863 31.847,-32.246 63.705,-46 31.85,-16.231 31.86,-13.043 31.83,-10.57 31.86,-8.633 63.71,-13.101"
         style="fill:none;stroke:#80d6f7;stroke-width:5;stroke-linecap:round;stroke-linejoin:round;stroke-miterlimit:4;stroke-dasharray:none;stroke-opacity:1"
         id="path26" /><path
         d="m 1215.92,368.887 63.69,-9.223 63.71,-6.711 63.7,-5.023 63.71,-3.821 63.7,-2.984"
         style="fill:none;stroke:#80d6f7;stroke-width:5;stroke-linecap:round;stroke-linejoin:round;stroke-miterlimit:4;stroke-dasharray:none;stroke-opacity:1"
         id="path28" /><path
         d="m 5.57422,401.176 63.69918,3.629 63.7106,4.609 63.696,6.012 63.711,7.98 63.691,10.813 31.852,6.898 31.863,8.176 31.848,9.793 31.843,11.766 31.852,14.246 31.848,17.285 63.707,46.41 63.699,65.367 31.847,38.047 31.864,36.68 15.918,15.566 7.965,6.586 7.964,5.625 7.965,4.52 3.977,1.808 3.972,1.496 3.993,1.176 1.984,0.465 1.992,0.379 1.988,0.305 2,0.203 1.989,0.129 1.988,0.046 1.988,-0.046 1.989,-0.129 2,-0.203 1.988,-0.305 1.984,-0.379 1.992,-0.465 3.993,-1.176 7.949,-3.304 7.965,-4.52 15.925,-12.211 15.918,-15.566 63.711,-74.727 63.703,-65.367 63.705,-46.41 31.85,-17.285 31.86,-14.246 31.83,-11.766 31.86,-9.793 63.71,-15.074 63.69,-10.813 63.71,-7.98"
         style="fill:none;stroke:#80d6f7;stroke-width:5;stroke-linecap:round;stroke-linejoin:round;stroke-miterlimit:4;stroke-dasharray:none;stroke-opacity:1"
         id="path30" /><path
         d="m 1343.32,415.426 63.7,-6.012 63.71,-4.609 63.7,-3.629"
         style="fill:none;stroke:#80d6f7;stroke-width:5;stroke-linecap:round;stroke-linejoin:round;stroke-miterlimit:4;stroke-dasharray:none;stroke-opacity:1"
         id="path32" /><path
         d="m 5.57422,461.059 63.69918,4.195 63.7106,5.312 63.696,6.872 63.711,9 63.691,12.035 63.715,16.441 63.691,22.844 63.7,32.008 63.707,44.218 63.699,56.602 31.847,30.102 31.864,27.109 15.918,10.953 7.965,4.551 7.964,3.828 7.965,3.059 3.977,1.218 3.972,1 3.993,0.797 1.984,0.305 1.992,0.254 1.988,0.187 2,0.149 1.989,0.09 1.988,0.015 1.988,-0.015 1.989,-0.09 2,-0.149 1.988,-0.187 1.984,-0.254 1.992,-0.305 3.993,-0.797 7.949,-2.218 7.965,-3.059 15.925,-8.379 15.918,-10.953 63.711,-57.211 63.703,-56.602 63.705,-44.218 63.71,-32.008 63.69,-22.844 63.71,-16.441 63.69,-12.035 63.71,-9 63.7,-6.872 63.71,-5.312 63.7,-4.195"
         style="fill:none;stroke:#80d6f7;stroke-width:5;stroke-linecap:round;stroke-linejoin:round;stroke-miterlimit:4;stroke-dasharray:none;stroke-opacity:1"
         id="path34" /><path
         d="m 5.57422,520.73 63.69918,4.708 63.7106,5.914 63.696,7.554 63.711,9.793 63.691,12.895 63.715,17.234 63.691,23.215 63.7,31.195 63.707,40.594 63.699,47.906 31.847,23.707 15.93,10.797 15.934,9.574 15.918,7.965 7.965,3.274 7.964,2.718 7.965,2.18 3.977,0.86 3.972,0.699 3.993,0.554 1.984,0.223 1.992,0.176 1.988,0.144 2,0.094 1.989,0.063 1.988,0.019 1.988,-0.019 1.989,-0.063 2,-0.094 1.988,-0.144 1.984,-0.176 1.992,-0.223 3.993,-0.554 7.949,-1.559 7.965,-2.18 15.925,-5.992 15.918,-7.965 63.711,-44.078 63.703,-47.906 63.705,-40.594 63.71,-31.195 63.69,-23.215 63.71,-17.234 63.69,-12.895 63.71,-9.793 63.7,-7.554 63.71,-5.914 63.7,-4.708"
         style="fill:none;stroke:#80d6f7;stroke-width:5;stroke-linecap:round;stroke-linejoin:round;stroke-miterlimit:4;stroke-dasharray:none;stroke-opacity:1"
         id="path36" /><path
         d="m 5.57422,580.195 63.69918,5.121 63.7106,6.407 63.696,8.09 63.711,10.375 63.691,13.417 63.715,17.52 63.691,22.914 63.7,29.524 63.707,36.378 63.699,40.102 31.847,18.773 15.93,8.305 15.934,7.266 15.918,5.945 7.965,2.418 7.964,2.02 7.965,1.585 3.977,0.641 3.972,0.508 3.993,0.418 1.984,0.156 1.992,0.125 1.988,0.098 2,0.078 1.989,0.035 1.988,0.016 1.988,-0.016 1.989,-0.035 2,-0.078 1.988,-0.098 1.984,-0.125 1.992,-0.156 3.993,-0.418 7.949,-1.149 7.965,-1.585 15.925,-4.438 15.918,-5.945 31.868,-15.571 31.843,-18.773 63.703,-40.102 63.705,-36.378 63.71,-29.524 63.69,-22.914 63.71,-17.52 63.69,-13.417 63.71,-10.375 63.7,-8.09 63.71,-6.407 63.7,-5.121"
         style="fill:none;stroke:#80d6f7;stroke-width:5;stroke-linecap:round;stroke-linejoin:round;stroke-miterlimit:4;stroke-dasharray:none;stroke-opacity:1"
         id="path38" /><path
         d="m 5.57422,639.426 63.69918,5.488 63.7106,6.785 63.696,8.477 63.711,10.73 63.691,13.625 63.715,17.41 63.691,22.086 63.7,27.399 63.707,32.113 63.699,33.473 31.847,14.961 15.93,6.504 15.934,5.597 15.918,4.563 7.965,1.843 7.964,1.512 7.965,1.207 3.977,0.477 3.972,0.383 3.993,0.316 1.984,0.113 1.992,0.098 1.988,0.078 2,0.047 1.989,0.047 h 1.988 1.988 l 1.989,-0.047 2,-0.047 1.988,-0.078 1.984,-0.098 1.992,-0.113 3.993,-0.316 3.972,-0.383 3.977,-0.477 7.965,-1.207 15.925,-3.355 15.918,-4.563 31.868,-12.101 31.843,-14.961 63.703,-33.473 63.705,-32.113 63.71,-27.399 63.69,-22.086 63.71,-17.41 63.69,-13.625 63.71,-10.73 63.7,-8.477 63.71,-6.785"
         style="fill:none;stroke:#80d6f7;stroke-width:5;stroke-linecap:round;stroke-linejoin:round;stroke-miterlimit:4;stroke-dasharray:none;stroke-opacity:1"
         id="path40" /><path
         d="m 1470.73,644.914 63.7,-5.488"
         style="fill:none;stroke:#80d6f7;stroke-width:5;stroke-linecap:round;stroke-linejoin:round;stroke-miterlimit:4;stroke-dasharray:none;stroke-opacity:1"
         id="path42" /><path
         d="m 5.57422,698.398 63.69918,5.774 63.7106,7.074 63.696,8.742 63.711,10.875 63.691,13.61 63.715,16.984 63.691,20.926 63.7,25.039 63.707,28.144 63.699,27.918 31.847,12.059 15.93,5.148 15.934,4.407 15.918,3.558 7.965,1.434 7.964,1.176 7.965,0.922 3.977,0.378 3.972,0.286 3.993,0.238 1.984,0.098 1.992,0.078 1.988,0.05 2,0.047 1.989,0.032 h 1.988 1.988 l 1.989,-0.032 2,-0.047 1.988,-0.05 1.984,-0.078 1.992,-0.098 3.993,-0.238 3.972,-0.286 3.977,-0.378 7.965,-0.922 15.925,-2.61 15.918,-3.558 31.868,-9.555 31.843,-12.059 63.703,-27.918 63.705,-28.144 63.71,-25.039 63.69,-20.926 63.71,-16.984 63.69,-13.61 63.71,-10.875 63.7,-8.742 63.71,-7.074"
         style="fill:none;stroke:#80d6f7;stroke-width:5;stroke-linecap:round;stroke-linejoin:round;stroke-miterlimit:4;stroke-dasharray:none;stroke-opacity:1"
         id="path44" /><path
         d="m 1470.73,704.172 63.7,-5.774"
         style="fill:none;stroke:#80d6f7;stroke-width:5;stroke-linecap:round;stroke-linejoin:round;stroke-miterlimit:4;stroke-dasharray:none;stroke-opacity:1"
         id="path46" /><path
         d="M 770,101.918 V 638.5"
         style="fill:none;stroke:#40c1f3;stroke-width:10;stroke-linecap:round;stroke-linejoin:round;stroke-miterlimit:4;stroke-dasharray:none;stroke-opacity:1"
         id="path48" /><path
         d="M 5.57422,15.6055 H 1534.43 V 99.7813 H 5.57422 V 15.6055"
         style="fill:#d9f3fd;fill-opacity:1;fill-rule:nonzero;stroke:none"
         id="path50" /><path
         d="M 5.57422,99.7813 H 1534.43"
         style="fill:none;stroke:#000000;stroke-width:7.5;stroke-linecap:round;stroke-linejoin:round;stroke-miterlimit:4;stroke-dasharray:none;stroke-opacity:1"
         id="path52" /><g
         id="g54"
         transform="scale(10)"><text
           transform="matrix(1,0,0,-1,75,2.36523)"
           style="font-variant:normal;font-weight:normal;font-size:8px;font-family:'Times New Roman';-inkscape-font-specification:Times-Roman;writing-mode:lr-tb;fill:#000000;fill-opacity:1;fill-rule:nonzero;stroke:none"
           id="text58"><tspan
             x="0"
             y="0"
             id="tspan56">0</tspan></text></g></g></g></svg>
