<?xml version="1.0" encoding="UTF-8" standalone="no"?>
<svg
   xmlns:dc="http://purl.org/dc/elements/1.1/"
   xmlns:cc="http://creativecommons.org/ns#"
   xmlns:rdf="http://www.w3.org/1999/02/22-rdf-syntax-ns#"
   xmlns:svg="http://www.w3.org/2000/svg"
   xmlns="http://www.w3.org/2000/svg"
   version="1.1"
   id="svg2"
   xml:space="preserve"
   width="348"
   height="184"
   viewBox="0 0 348 184"><metadata
     id="metadata8"><rdf:RDF><cc:Work
         rdf:about=""><dc:format>image/svg+xml</dc:format><dc:type
           rdf:resource="http://purl.org/dc/dcmitype/StillImage" /></cc:Work></rdf:RDF></metadata><defs
     id="defs6" /><g
     id="g10"
     transform="matrix(1.3333333,0,0,-1.3333333,0,184)"><g
       id="g12"
       transform="scale(0.1)"><path
         d="m 600.219,796.641 v 0"
         style="fill:none;stroke:#000000;stroke-width:5;stroke-linecap:round;stroke-linejoin:round;stroke-miterlimit:4;stroke-dasharray:none;stroke-opacity:1"
         id="path14" /><path
         d="M 1165.48,1030.79 600.219,796.641"
         style="fill:none;stroke:#80d6f7;stroke-width:5;stroke-linecap:round;stroke-linejoin:round;stroke-miterlimit:4;stroke-dasharray:none;stroke-opacity:1"
         id="path16" /><path
         d="m 596.762,801.816 v 0"
         style="fill:none;stroke:#000000;stroke-width:5;stroke-linecap:round;stroke-linejoin:round;stroke-miterlimit:4;stroke-dasharray:none;stroke-opacity:1"
         id="path18" /><path
         d="M 1165.48,1370.54 596.762,801.816"
         style="fill:none;stroke:#80d6f7;stroke-width:5;stroke-linecap:round;stroke-linejoin:round;stroke-miterlimit:4;stroke-dasharray:none;stroke-opacity:1"
         id="path20" /><path
         d="m 591.586,805.273 v 0"
         style="fill:none;stroke:#000000;stroke-width:5;stroke-linecap:round;stroke-linejoin:round;stroke-miterlimit:4;stroke-dasharray:none;stroke-opacity:1"
         id="path22" /><path
         d="M 825.73,1370.54 591.586,805.273"
         style="fill:none;stroke:#80d6f7;stroke-width:5;stroke-linecap:round;stroke-linejoin:round;stroke-miterlimit:4;stroke-dasharray:none;stroke-opacity:1"
         id="path24" /><path
         d="m 585.488,806.488 v 0"
         style="fill:none;stroke:#000000;stroke-width:5;stroke-linecap:round;stroke-linejoin:round;stroke-miterlimit:4;stroke-dasharray:none;stroke-opacity:1"
         id="path26" /><path
         d="M 585.488,1370.54 V 806.488"
         style="fill:none;stroke:#80d6f7;stroke-width:5;stroke-linecap:round;stroke-linejoin:round;stroke-miterlimit:4;stroke-dasharray:none;stroke-opacity:1"
         id="path28" /><path
         d="m 579.387,805.273 v 0"
         style="fill:none;stroke:#000000;stroke-width:5;stroke-linecap:round;stroke-linejoin:round;stroke-miterlimit:4;stroke-dasharray:none;stroke-opacity:1"
         id="path30" /><path
         d="M 345.238,1370.54 579.387,805.273"
         style="fill:none;stroke:#80d6f7;stroke-width:5;stroke-linecap:round;stroke-linejoin:round;stroke-miterlimit:4;stroke-dasharray:none;stroke-opacity:1"
         id="path32" /><path
         d="m 574.215,801.816 v 0"
         style="fill:none;stroke:#000000;stroke-width:5;stroke-linecap:round;stroke-linejoin:round;stroke-miterlimit:4;stroke-dasharray:none;stroke-opacity:1"
         id="path34" /><path
         d="M 5.49219,1370.54 574.215,801.816"
         style="fill:none;stroke:#80d6f7;stroke-width:5;stroke-linecap:round;stroke-linejoin:round;stroke-miterlimit:4;stroke-dasharray:none;stroke-opacity:1"
         id="path36" /><path
         d="m 570.758,796.641 v 0"
         style="fill:none;stroke:#000000;stroke-width:5;stroke-linecap:round;stroke-linejoin:round;stroke-miterlimit:4;stroke-dasharray:none;stroke-opacity:1"
         id="path38" /><path
         d="M 5.49219,1030.79 570.758,796.641"
         style="fill:none;stroke:#80d6f7;stroke-width:5;stroke-linecap:round;stroke-linejoin:round;stroke-miterlimit:4;stroke-dasharray:none;stroke-opacity:1"
         id="path40" /><path
         d="m 569.535,790.543 v 0"
         style="fill:none;stroke:#000000;stroke-width:5;stroke-linecap:round;stroke-linejoin:round;stroke-miterlimit:4;stroke-dasharray:none;stroke-opacity:1"
         id="path42" /><path
         d="M 5.49219,790.543 H 569.535"
         style="fill:none;stroke:#80d6f7;stroke-width:5;stroke-linecap:round;stroke-linejoin:round;stroke-miterlimit:4;stroke-dasharray:none;stroke-opacity:1"
         id="path44" /><path
         d="m 570.758,784.438 v 0"
         style="fill:none;stroke:#000000;stroke-width:5;stroke-linecap:round;stroke-linejoin:round;stroke-miterlimit:4;stroke-dasharray:none;stroke-opacity:1"
         id="path46" /><path
         d="M 5.49219,550.297 570.758,784.438"
         style="fill:none;stroke:#80d6f7;stroke-width:5;stroke-linecap:round;stroke-linejoin:round;stroke-miterlimit:4;stroke-dasharray:none;stroke-opacity:1"
         id="path48" /><path
         d="m 574.215,779.27 v 0"
         style="fill:none;stroke:#000000;stroke-width:5;stroke-linecap:round;stroke-linejoin:round;stroke-miterlimit:4;stroke-dasharray:none;stroke-opacity:1"
         id="path50" /><path
         d="M 5.49219,210.547 574.215,779.27"
         style="fill:none;stroke:#80d6f7;stroke-width:5;stroke-linecap:round;stroke-linejoin:round;stroke-miterlimit:4;stroke-dasharray:none;stroke-opacity:1"
         id="path52" /><path
         d="m 579.387,775.813 v 0"
         style="fill:none;stroke:#000000;stroke-width:5;stroke-linecap:round;stroke-linejoin:round;stroke-miterlimit:4;stroke-dasharray:none;stroke-opacity:1"
         id="path54" /><path
         d="M 345.238,210.547 579.387,775.813"
         style="fill:none;stroke:#80d6f7;stroke-width:5;stroke-linecap:round;stroke-linejoin:round;stroke-miterlimit:4;stroke-dasharray:none;stroke-opacity:1"
         id="path56" /><path
         d="m 585.488,774.59 v 0"
         style="fill:none;stroke:#000000;stroke-width:5;stroke-linecap:round;stroke-linejoin:round;stroke-miterlimit:4;stroke-dasharray:none;stroke-opacity:1"
         id="path58" /><path
         d="M 585.488,210.547 V 774.59"
         style="fill:none;stroke:#80d6f7;stroke-width:5;stroke-linecap:round;stroke-linejoin:round;stroke-miterlimit:4;stroke-dasharray:none;stroke-opacity:1"
         id="path60" /><path
         d="m 591.586,775.813 v 0"
         style="fill:none;stroke:#000000;stroke-width:5;stroke-linecap:round;stroke-linejoin:round;stroke-miterlimit:4;stroke-dasharray:none;stroke-opacity:1"
         id="path62" /><path
         d="M 825.73,210.547 591.586,775.813"
         style="fill:none;stroke:#80d6f7;stroke-width:5;stroke-linecap:round;stroke-linejoin:round;stroke-miterlimit:4;stroke-dasharray:none;stroke-opacity:1"
         id="path64" /><path
         d="m 596.762,779.27 v 0"
         style="fill:none;stroke:#000000;stroke-width:5;stroke-linecap:round;stroke-linejoin:round;stroke-miterlimit:4;stroke-dasharray:none;stroke-opacity:1"
         id="path66" /><path
         d="M 1165.48,210.547 596.762,779.27"
         style="fill:none;stroke:#80d6f7;stroke-width:5;stroke-linecap:round;stroke-linejoin:round;stroke-miterlimit:4;stroke-dasharray:none;stroke-opacity:1"
         id="path68" /><path
         d="m 600.219,784.438 v 0"
         style="fill:none;stroke:#000000;stroke-width:5;stroke-linecap:round;stroke-linejoin:round;stroke-miterlimit:4;stroke-dasharray:none;stroke-opacity:1"
         id="path70" /><path
         d="M 1165.48,550.297 600.219,784.438"
         style="fill:none;stroke:#80d6f7;stroke-width:5;stroke-linecap:round;stroke-linejoin:round;stroke-miterlimit:4;stroke-dasharray:none;stroke-opacity:1"
         id="path72" /><path
         d="m 601.438,790.543 v 0"
         style="fill:none;stroke:#000000;stroke-width:5;stroke-linecap:round;stroke-linejoin:round;stroke-miterlimit:4;stroke-dasharray:none;stroke-opacity:1"
         id="path74" /><path
         d="M 1165.48,790.543 H 601.438"
         style="fill:none;stroke:#80d6f7;stroke-width:5;stroke-linecap:round;stroke-linejoin:round;stroke-miterlimit:4;stroke-dasharray:none;stroke-opacity:1"
         id="path76" /><path
         d="m 2038.78,796.105 v 0"
         style="fill:none;stroke:#000000;stroke-width:5;stroke-linecap:round;stroke-linejoin:round;stroke-miterlimit:4;stroke-dasharray:none;stroke-opacity:1"
         id="path78" /><path
         d="M 2604.04,1030.25 2038.78,796.105"
         style="fill:none;stroke:#80d6f7;stroke-width:5;stroke-linecap:round;stroke-linejoin:round;stroke-miterlimit:4;stroke-dasharray:none;stroke-opacity:1"
         id="path80" /><path
         d="m 2035.33,801.273 v 0"
         style="fill:none;stroke:#000000;stroke-width:5;stroke-linecap:round;stroke-linejoin:round;stroke-miterlimit:4;stroke-dasharray:none;stroke-opacity:1"
         id="path82" /><path
         d="M 2604.04,1370 2035.33,801.273"
         style="fill:none;stroke:#80d6f7;stroke-width:5;stroke-linecap:round;stroke-linejoin:round;stroke-miterlimit:4;stroke-dasharray:none;stroke-opacity:1"
         id="path84" /><path
         d="m 2030.14,804.73 v 0"
         style="fill:none;stroke:#000000;stroke-width:5;stroke-linecap:round;stroke-linejoin:round;stroke-miterlimit:4;stroke-dasharray:none;stroke-opacity:1"
         id="path86" /><path
         d="M 2264.3,1370 2030.14,804.73"
         style="fill:none;stroke:#80d6f7;stroke-width:5;stroke-linecap:round;stroke-linejoin:round;stroke-miterlimit:4;stroke-dasharray:none;stroke-opacity:1"
         id="path88" /><path
         d="m 2024.05,805.945 v 0"
         style="fill:none;stroke:#000000;stroke-width:5;stroke-linecap:round;stroke-linejoin:round;stroke-miterlimit:4;stroke-dasharray:none;stroke-opacity:1"
         id="path90" /><path
         d="M 2024.05,1370 V 805.945"
         style="fill:none;stroke:#80d6f7;stroke-width:5;stroke-linecap:round;stroke-linejoin:round;stroke-miterlimit:4;stroke-dasharray:none;stroke-opacity:1"
         id="path92" /><path
         d="m 2017.95,804.73 v 0"
         style="fill:none;stroke:#000000;stroke-width:5;stroke-linecap:round;stroke-linejoin:round;stroke-miterlimit:4;stroke-dasharray:none;stroke-opacity:1"
         id="path94" /><path
         d="M 1783.81,1370 2017.95,804.73"
         style="fill:none;stroke:#80d6f7;stroke-width:5;stroke-linecap:round;stroke-linejoin:round;stroke-miterlimit:4;stroke-dasharray:none;stroke-opacity:1"
         id="path96" /><path
         d="m 2012.77,801.273 v 0"
         style="fill:none;stroke:#000000;stroke-width:5;stroke-linecap:round;stroke-linejoin:round;stroke-miterlimit:4;stroke-dasharray:none;stroke-opacity:1"
         id="path98" /><path
         d="M 1444.06,1370 2012.77,801.273"
         style="fill:none;stroke:#80d6f7;stroke-width:5;stroke-linecap:round;stroke-linejoin:round;stroke-miterlimit:4;stroke-dasharray:none;stroke-opacity:1"
         id="path100" /><path
         d="m 2009.32,796.105 v 0"
         style="fill:none;stroke:#000000;stroke-width:5;stroke-linecap:round;stroke-linejoin:round;stroke-miterlimit:4;stroke-dasharray:none;stroke-opacity:1"
         id="path102" /><path
         d="M 1444.06,1030.25 2009.32,796.105"
         style="fill:none;stroke:#80d6f7;stroke-width:5;stroke-linecap:round;stroke-linejoin:round;stroke-miterlimit:4;stroke-dasharray:none;stroke-opacity:1"
         id="path104" /><path
         d="m 2008.11,790 v 0"
         style="fill:none;stroke:#000000;stroke-width:5;stroke-linecap:round;stroke-linejoin:round;stroke-miterlimit:4;stroke-dasharray:none;stroke-opacity:1"
         id="path106" /><path
         d="m 1444.06,790 h 564.05"
         style="fill:none;stroke:#80d6f7;stroke-width:5;stroke-linecap:round;stroke-linejoin:round;stroke-miterlimit:4;stroke-dasharray:none;stroke-opacity:1"
         id="path108" /><path
         d="m 2009.32,783.895 v 0"
         style="fill:none;stroke:#000000;stroke-width:5;stroke-linecap:round;stroke-linejoin:round;stroke-miterlimit:4;stroke-dasharray:none;stroke-opacity:1"
         id="path110" /><path
         d="m 1444.06,549.758 565.26,234.137"
         style="fill:none;stroke:#80d6f7;stroke-width:5;stroke-linecap:round;stroke-linejoin:round;stroke-miterlimit:4;stroke-dasharray:none;stroke-opacity:1"
         id="path112" /><path
         d="m 2012.77,778.727 v 0"
         style="fill:none;stroke:#000000;stroke-width:5;stroke-linecap:round;stroke-linejoin:round;stroke-miterlimit:4;stroke-dasharray:none;stroke-opacity:1"
         id="path114" /><path
         d="m 1444.06,210.004 568.71,568.723"
         style="fill:none;stroke:#80d6f7;stroke-width:5;stroke-linecap:round;stroke-linejoin:round;stroke-miterlimit:4;stroke-dasharray:none;stroke-opacity:1"
         id="path116" /><path
         d="m 2017.95,775.27 v 0"
         style="fill:none;stroke:#000000;stroke-width:5;stroke-linecap:round;stroke-linejoin:round;stroke-miterlimit:4;stroke-dasharray:none;stroke-opacity:1"
         id="path118" /><path
         d="M 1783.81,210.004 2017.95,775.27"
         style="fill:none;stroke:#80d6f7;stroke-width:5;stroke-linecap:round;stroke-linejoin:round;stroke-miterlimit:4;stroke-dasharray:none;stroke-opacity:1"
         id="path120" /><path
         d="m 2024.05,774.047 v 0"
         style="fill:none;stroke:#000000;stroke-width:5;stroke-linecap:round;stroke-linejoin:round;stroke-miterlimit:4;stroke-dasharray:none;stroke-opacity:1"
         id="path122" /><path
         d="M 2024.05,210.004 V 774.047"
         style="fill:none;stroke:#80d6f7;stroke-width:5;stroke-linecap:round;stroke-linejoin:round;stroke-miterlimit:4;stroke-dasharray:none;stroke-opacity:1"
         id="path124" /><path
         d="m 2030.14,775.27 v 0"
         style="fill:none;stroke:#000000;stroke-width:5;stroke-linecap:round;stroke-linejoin:round;stroke-miterlimit:4;stroke-dasharray:none;stroke-opacity:1"
         id="path126" /><path
         d="M 2264.3,210.004 2030.14,775.27"
         style="fill:none;stroke:#80d6f7;stroke-width:5;stroke-linecap:round;stroke-linejoin:round;stroke-miterlimit:4;stroke-dasharray:none;stroke-opacity:1"
         id="path128" /><path
         d="m 2035.33,778.727 v 0"
         style="fill:none;stroke:#000000;stroke-width:5;stroke-linecap:round;stroke-linejoin:round;stroke-miterlimit:4;stroke-dasharray:none;stroke-opacity:1"
         id="path130" /><path
         d="M 2604.04,210.004 2035.33,778.727"
         style="fill:none;stroke:#80d6f7;stroke-width:5;stroke-linecap:round;stroke-linejoin:round;stroke-miterlimit:4;stroke-dasharray:none;stroke-opacity:1"
         id="path132" /><path
         d="m 2038.78,783.895 v 0"
         style="fill:none;stroke:#000000;stroke-width:5;stroke-linecap:round;stroke-linejoin:round;stroke-miterlimit:4;stroke-dasharray:none;stroke-opacity:1"
         id="path134" /><path
         d="M 2604.04,549.758 2038.78,783.895"
         style="fill:none;stroke:#80d6f7;stroke-width:5;stroke-linecap:round;stroke-linejoin:round;stroke-miterlimit:4;stroke-dasharray:none;stroke-opacity:1"
         id="path136" /><path
         d="m 2040,790 v 0"
         style="fill:none;stroke:#000000;stroke-width:5;stroke-linecap:round;stroke-linejoin:round;stroke-miterlimit:4;stroke-dasharray:none;stroke-opacity:1"
         id="path138" /><path
         d="M 2604.04,790 H 2040"
         style="fill:none;stroke:#80d6f7;stroke-width:5;stroke-linecap:round;stroke-linejoin:round;stroke-miterlimit:4;stroke-dasharray:none;stroke-opacity:1"
         id="path140" /><g
         id="g142"
         transform="scale(10)"><text
           transform="matrix(1,0,0,-1,14.4555,2.72188)"
           style="font-variant:normal;font-weight:normal;font-size:8px;font-family:'Times New Roman';-inkscape-font-specification:Times-Roman;writing-mode:lr-tb;fill:#000000;fill-opacity:1;fill-rule:nonzero;stroke:none"
           id="text146"><tspan
             x="0 2.664 6.2160001 8.8800001 10.88 16.656 18.656 21.768 25.768 29.768 32.431999 35.984001 39.535999 41.535999 45.088001 47.312 49.312 51.535999 55.535999 59.088001 61.088001 65.087997 67.751999 69.975998 73.975998 76.199997 80.199997 150.334 152.998 156.998 159.662 161.662 167.438 169.438 172.55 174.774 178.774 182.774 184.774 188.326 190.55 192.55 194.774 198.774 202.326 204.326 208.326 210.99001 213.214 217.214 219.438 223.438"
             y="0"
             id="tspan144">(a) A source at the origin.(b) A sink at the origin.</tspan></text></g><path
         d="m 1110.21,1008.13 -35.44,-35.099 2.91,21.617 -17.34,13.232 49.87,0.25"
         style="fill:#40c1f3;fill-opacity:1;fill-rule:nonzero;stroke:none"
         id="path148" /><path
         d="m 986.813,1191.61 -19.313,-45.98 -5.59,21.08 -21.078,5.59 45.981,19.31"
         style="fill:#40c1f3;fill-opacity:1;fill-rule:nonzero;stroke:none"
         id="path150" /><path
         d="m 802.535,1315.29 -0.246,-49.88 -13.226,17.34 -21.618,-2.89 35.09,35.43"
         style="fill:#40c1f3;fill-opacity:1;fill-rule:nonzero;stroke:none"
         id="path152" /><path
         d="m 585.52,1358.46 18.855,-46.17 -18.855,10.96 -18.864,-10.96 18.864,46.17"
         style="fill:#40c1f3;fill-opacity:1;fill-rule:nonzero;stroke:none"
         id="path154" /><path
         d="m 367.844,1315.29 35.086,-35.43 -21.614,2.9 -13.23,-17.34 -0.242,49.87"
         style="fill:#40c1f3;fill-opacity:1;fill-rule:nonzero;stroke:none"
         id="path156" /><path
         d="m 184.063,1192.81 45.976,-19.3 -21.078,-5.6 -5.594,-21.07 -19.304,45.97"
         style="fill:#40c1f3;fill-opacity:1;fill-rule:nonzero;stroke:none"
         id="path158" /><path
         d="m 61.2227,1008.06 49.8673,-0.25 -17.34,-13.224 2.9063,-21.617 -35.4336,35.091"
         style="fill:#40c1f3;fill-opacity:1;fill-rule:nonzero;stroke:none"
         id="path160" /><path
         d="m 17.0781,790.414 46.168,18.863 -10.957,-18.863 10.957,-18.855 -46.168,18.855"
         style="fill:#40c1f3;fill-opacity:1;fill-rule:nonzero;stroke:none"
         id="path162" /><path
         d="m 61.2227,573.191 35.4336,35.09 -2.9063,-21.617 17.34,-13.226 -49.8673,-0.247"
         style="fill:#40c1f3;fill-opacity:1;fill-rule:nonzero;stroke:none"
         id="path164" /><path
         d="m 184.063,388.645 19.304,45.98 5.594,-21.086 21.078,-5.586 -45.976,-19.308"
         style="fill:#40c1f3;fill-opacity:1;fill-rule:nonzero;stroke:none"
         id="path166" /><path
         d="m 368.398,266.012 0.247,49.867 13.23,-17.34 21.617,2.906 -35.094,-35.433"
         style="fill:#40c1f3;fill-opacity:1;fill-rule:nonzero;stroke:none"
         id="path168" /><path
         d="m 585.277,223.203 -18.855,46.168 18.855,-10.957 18.86,10.957 -18.86,-46.168"
         style="fill:#40c1f3;fill-opacity:1;fill-rule:nonzero;stroke:none"
         id="path170" /><path
         d="m 802.852,265.598 -35.094,35.433 21.617,-2.906 13.23,17.34 0.247,-49.867"
         style="fill:#40c1f3;fill-opacity:1;fill-rule:nonzero;stroke:none"
         id="path172" /><path
         d="m 987.086,389.164 -45.981,19.313 21.083,5.586 5.585,21.082 19.313,-45.981"
         style="fill:#40c1f3;fill-opacity:1;fill-rule:nonzero;stroke:none"
         id="path174" /><path
         d="m 1109.38,573.125 -49.87,0.246 17.34,13.231 -2.91,21.617 35.44,-35.094"
         style="fill:#40c1f3;fill-opacity:1;fill-rule:nonzero;stroke:none"
         id="path176" /><path
         d="m 1153.4,789.52 -46.17,-18.856 10.96,18.856 -10.96,18.863 46.17,-18.863"
         style="fill:#40c1f3;fill-opacity:1;fill-rule:nonzero;stroke:none"
         id="path178" /><path
         d="m 1654.94,420.145 -19.31,-45.981 -5.6,21.086 -21.07,5.59 45.98,19.305"
         style="fill:#40c1f3;fill-opacity:1;fill-rule:nonzero;stroke:none"
         id="path180" /><path
         d="m 1541.89,589.883 -35.43,-35.094 2.9,21.617 -17.34,13.235 49.87,0.242"
         style="fill:#40c1f3;fill-opacity:1;fill-rule:nonzero;stroke:none"
         id="path182" /><path
         d="m 1501.66,789.375 -46.16,-18.855 10.96,18.855 -10.96,18.855 46.16,-18.855"
         style="fill:#40c1f3;fill-opacity:1;fill-rule:nonzero;stroke:none"
         id="path184" /><path
         d="m 1541.33,989.965 -49.87,0.246 17.34,13.229 -2.9,21.61 35.43,-35.085"
         style="fill:#40c1f3;fill-opacity:1;fill-rule:nonzero;stroke:none"
         id="path186" /><path
         d="m 1655.21,1159.16 -45.98,19.32 21.08,5.58 5.59,21.08 19.31,-45.98"
         style="fill:#40c1f3;fill-opacity:1;fill-rule:nonzero;stroke:none"
         id="path188" /><path
         d="m 1824.73,1272.26 -35.09,35.44 21.61,-2.91 13.23,17.34 0.25,-49.87"
         style="fill:#40c1f3;fill-opacity:1;fill-rule:nonzero;stroke:none"
         id="path190" /><path
         d="m 2024.06,1311.75 -18.85,46.16 18.85,-10.95 18.87,10.95 -18.87,-46.16"
         style="fill:#40c1f3;fill-opacity:1;fill-rule:nonzero;stroke:none"
         id="path192" /><path
         d="m 2223.82,1272.47 0.24,49.87 13.23,-17.34 21.62,2.91 -35.09,-35.44"
         style="fill:#40c1f3;fill-opacity:1;fill-rule:nonzero;stroke:none"
         id="path194" /><path
         d="m 2393.54,1159.38 19.31,45.98 5.59,-21.09 21.08,-5.59 -45.98,-19.3"
         style="fill:#40c1f3;fill-opacity:1;fill-rule:nonzero;stroke:none"
         id="path196" /><path
         d="m 2505.76,989.758 35.43,35.092 -2.91,-21.62 17.35,-13.23 -49.87,-0.242"
         style="fill:#40c1f3;fill-opacity:1;fill-rule:nonzero;stroke:none"
         id="path198" /><path
         d="m 2546.66,789.789 46.17,18.863 -10.95,-18.863 10.95,-18.855 -46.17,18.855"
         style="fill:#40c1f3;fill-opacity:1;fill-rule:nonzero;stroke:none"
         id="path200" /><path
         d="m 2505.96,590.246 49.88,-0.246 -17.34,-13.23 2.89,-21.618 -35.43,35.094"
         style="fill:#40c1f3;fill-opacity:1;fill-rule:nonzero;stroke:none"
         id="path202" /><path
         d="m 2392.56,420.977 45.98,-19.313 -21.08,-5.586 -5.58,-21.082 -19.32,45.981"
         style="fill:#40c1f3;fill-opacity:1;fill-rule:nonzero;stroke:none"
         id="path204" /><path
         d="m 2224.96,306.391 35.08,-35.434 -21.61,2.906 -13.23,-17.34 -0.24,49.868"
         style="fill:#40c1f3;fill-opacity:1;fill-rule:nonzero;stroke:none"
         id="path206" /><path
         d="m 2024.27,266.582 18.86,-46.168 -18.86,10.957 -18.87,-10.957 18.87,46.168"
         style="fill:#40c1f3;fill-opacity:1;fill-rule:nonzero;stroke:none"
         id="path208" /><path
         d="m 1824.82,307.992 -0.23,-49.867 -13.23,17.34 -21.63,-2.906 35.09,35.433"
         style="fill:#40c1f3;fill-opacity:1;fill-rule:nonzero;stroke:none"
         id="path210" /><path
         d="m 383.281,874.516 49.867,-0.243 -17.335,-13.234 2.902,-21.613 -35.434,35.09"
         style="fill:#40c1f3;fill-opacity:1;fill-rule:nonzero;stroke:none"
         id="path212" /><path
         d="M 366.43,790 412.598,808.855 401.645,790 412.598,771.145 366.43,790"
         style="fill:#40c1f3;fill-opacity:1;fill-rule:nonzero;stroke:none"
         id="path214" /><path
         d="m 382.5,706.664 35.434,35.094 -2.907,-21.617 17.34,-13.227 -49.867,-0.25"
         style="fill:#40c1f3;fill-opacity:1;fill-rule:nonzero;stroke:none"
         id="path216" /><path
         d="m 585.676,1009.67 18.855,-46.17 -18.855,10.953 -18.863,-10.953 18.863,46.17"
         style="fill:#40c1f3;fill-opacity:1;fill-rule:nonzero;stroke:none"
         id="path218" /><path
         d="m 501.125,993.375 35.09,-35.437 -21.613,2.902 -13.235,-17.34 -0.242,49.875"
         style="fill:#40c1f3;fill-opacity:1;fill-rule:nonzero;stroke:none"
         id="path220" /><path
         d="m 430.727,945.523 45.984,-19.312 -21.086,-5.586 -5.586,-21.082 -19.312,45.98"
         style="fill:#40c1f3;fill-opacity:1;fill-rule:nonzero;stroke:none"
         id="path222" /><path
         d="m 788.418,874.008 -35.438,-35.086 2.903,21.617 -17.336,13.227 49.871,0.242"
         style="fill:#40c1f3;fill-opacity:1;fill-rule:nonzero;stroke:none"
         id="path224" /><path
         d="m 740.691,945.469 -19.308,-45.981 -5.59,21.078 -21.082,5.59 45.98,19.313"
         style="fill:#40c1f3;fill-opacity:1;fill-rule:nonzero;stroke:none"
         id="path226" /><path
         d="m 669.543,993.52 -0.246,-49.868 -13.227,17.34 -21.617,-2.906 35.09,35.434"
         style="fill:#40c1f3;fill-opacity:1;fill-rule:nonzero;stroke:none"
         id="path228" /><path
         d="m 740.875,636.016 -45.98,19.312 21.082,5.586 5.586,21.082 19.312,-45.98"
         style="fill:#40c1f3;fill-opacity:1;fill-rule:nonzero;stroke:none"
         id="path230" /><path
         d="m 787.961,706.438 -49.875,0.238 17.34,13.23 -2.906,21.617 35.441,-35.085"
         style="fill:#40c1f3;fill-opacity:1;fill-rule:nonzero;stroke:none"
         id="path232" /><path
         d="m 804.898,790.332 -46.168,-18.855 10.958,18.855 -10.958,18.856 46.168,-18.856"
         style="fill:#40c1f3;fill-opacity:1;fill-rule:nonzero;stroke:none"
         id="path234" /><path
         d="m 430.313,634.895 19.304,45.98 5.594,-21.086 21.078,-5.586 -45.976,-19.308"
         style="fill:#40c1f3;fill-opacity:1;fill-rule:nonzero;stroke:none"
         id="path236" /><path
         d="m 502.445,587.836 0.246,49.871 13.227,-17.34 21.617,2.903 -35.09,-35.434"
         style="fill:#40c1f3;fill-opacity:1;fill-rule:nonzero;stroke:none"
         id="path238" /><path
         d="m 585.781,572.109 -18.855,46.168 18.855,-10.957 18.864,10.957 -18.864,-46.168"
         style="fill:#40c1f3;fill-opacity:1;fill-rule:nonzero;stroke:none"
         id="path240" /><path
         d="m 669.188,588.254 -35.09,35.434 21.617,-2.907 13.23,17.34 0.243,-49.867"
         style="fill:#40c1f3;fill-opacity:1;fill-rule:nonzero;stroke:none"
         id="path242" /><path
         d="m 2184.48,723.629 49.88,-0.246 -17.34,-13.227 2.9,-21.617 -35.44,35.09"
         style="fill:#40c1f3;fill-opacity:1;fill-rule:nonzero;stroke:none"
         id="path244" /><path
         d="m 2198.06,790.359 46.17,18.864 -10.96,-18.864 10.96,-18.855 -46.17,18.855"
         style="fill:#40c1f3;fill-opacity:1;fill-rule:nonzero;stroke:none"
         id="path246" /><path
         d="m 2184.96,856.82 35.44,35.094 -2.91,-21.617 17.33,-13.231 -49.86,-0.246"
         style="fill:#40c1f3;fill-opacity:1;fill-rule:nonzero;stroke:none"
         id="path248" /><path
         d="m 2024.27,615.332 18.86,-46.168 -18.86,10.957 -18.87,-10.957 18.87,46.168"
         style="fill:#40c1f3;fill-opacity:1;fill-rule:nonzero;stroke:none"
         id="path250" /><path
         d="m 2091.09,629.148 35.08,-35.433 -21.61,2.906 -13.23,-17.34 -0.24,49.867"
         style="fill:#40c1f3;fill-opacity:1;fill-rule:nonzero;stroke:none"
         id="path252" /><path
         d="m 2146.93,666.305 45.98,-19.313 -21.07,-5.586 -5.59,-21.086 -19.32,45.985"
         style="fill:#40c1f3;fill-opacity:1;fill-rule:nonzero;stroke:none"
         id="path254" /><path
         d="M 1865.44,725.094 1830,690 l 2.9,21.617 -17.33,13.231 49.87,0.246"
         style="fill:#40c1f3;fill-opacity:1;fill-rule:nonzero;stroke:none"
         id="path256" /><path
         d="m 1900.57,666.395 -19.32,-45.981 -5.6,21.086 -21.07,5.59 45.99,19.305"
         style="fill:#40c1f3;fill-opacity:1;fill-rule:nonzero;stroke:none"
         id="path258" /><path
         d="m 1957.53,629.039 -0.24,-49.875 -13.23,17.34 -21.62,-2.899 35.09,35.434"
         style="fill:#40c1f3;fill-opacity:1;fill-rule:nonzero;stroke:none"
         id="path260" /><path
         d="m 1901.66,913.047 -45.98,19.308 21.09,5.59 5.59,21.078 19.3,-45.976"
         style="fill:#40c1f3;fill-opacity:1;fill-rule:nonzero;stroke:none"
         id="path262" /><path
         d="m 1864.38,856.586 -49.88,0.246 17.35,13.231 -2.91,21.617 35.44,-35.094"
         style="fill:#40c1f3;fill-opacity:1;fill-rule:nonzero;stroke:none"
         id="path264" /><path
         d="M 1850.07,789.863 1803.89,771 l 10.97,18.863 -10.97,18.86 46.18,-18.86"
         style="fill:#40c1f3;fill-opacity:1;fill-rule:nonzero;stroke:none"
         id="path266" /><path
         d="m 2147.19,913.02 19.31,45.98 5.59,-21.086 21.07,-5.586 -45.97,-19.308"
         style="fill:#40c1f3;fill-opacity:1;fill-rule:nonzero;stroke:none"
         id="path268" /><path
         d="m 2090.69,950.387 0.25,49.863 13.22,-17.336 21.62,2.906 -35.09,-35.433"
         style="fill:#40c1f3;fill-opacity:1;fill-rule:nonzero;stroke:none"
         id="path270" /><path
         d="m 2024,964.57 -18.86,46.17 18.86,-10.959 18.86,10.959 -18.86,-46.17"
         style="fill:#40c1f3;fill-opacity:1;fill-rule:nonzero;stroke:none"
         id="path272" /><path
         d="m 1958.11,950.277 -35.09,35.438 21.61,-2.902 13.23,17.337 0.25,-49.873"
         style="fill:#40c1f3;fill-opacity:1;fill-rule:nonzero;stroke:none"
         id="path274" /><path
         d="m 1676,789.703 -46.16,-18.859 10.94,18.859 -10.94,18.86 46.16,-18.86"
         style="fill:#40c1f3;fill-opacity:1;fill-rule:nonzero;stroke:none"
         id="path276" /><path
         d="m 1702.95,923.629 -49.86,0.242 17.33,13.231 -2.9,21.613 35.43,-35.086"
         style="fill:#40c1f3;fill-opacity:1;fill-rule:nonzero;stroke:none"
         id="path278" /><path
         d="m 1778.09,1035.75 -45.99,19.3 21.08,5.59 5.59,21.09 19.32,-45.98"
         style="fill:#40c1f3;fill-opacity:1;fill-rule:nonzero;stroke:none"
         id="path280" /><path
         d="m 1891.62,1111.16 -35.09,35.44 21.61,-2.91 13.25,17.34 0.23,-49.87"
         style="fill:#40c1f3;fill-opacity:1;fill-rule:nonzero;stroke:none"
         id="path282" /><path
         d="m 2023.94,1137 -18.87,46.17 18.87,-10.95 18.85,10.95 -18.85,-46.17"
         style="fill:#40c1f3;fill-opacity:1;fill-rule:nonzero;stroke:none"
         id="path284" /><path
         d="m 2156.91,1111.21 0.25,49.88 13.23,-17.34 21.62,2.9 -35.1,-35.44"
         style="fill:#40c1f3;fill-opacity:1;fill-rule:nonzero;stroke:none"
         id="path286" /><path
         d="m 2271.11,1036.5 19.32,45.98 5.59,-21.08 21.08,-5.58 -45.99,-19.32"
         style="fill:#40c1f3;fill-opacity:1;fill-rule:nonzero;stroke:none"
         id="path288" /><path
         d="m 2345.27,923.496 35.42,35.094 -2.9,-21.617 17.35,-13.235 -49.87,-0.242"
         style="fill:#40c1f3;fill-opacity:1;fill-rule:nonzero;stroke:none"
         id="path290" /><path
         d="m 2371.29,789.547 46.17,18.859 -10.96,-18.859 10.96,-18.859 -46.17,18.859"
         style="fill:#40c1f3;fill-opacity:1;fill-rule:nonzero;stroke:none"
         id="path292" /><path
         d="m 2346.02,656.809 49.86,-0.246 -17.34,-13.227 2.91,-21.617 -35.43,35.09"
         style="fill:#40c1f3;fill-opacity:1;fill-rule:nonzero;stroke:none"
         id="path294" /><path
         d="m 2270.31,542.816 45.98,-19.308 -21.08,-5.594 -5.59,-21.078 -19.31,45.98"
         style="fill:#40c1f3;fill-opacity:1;fill-rule:nonzero;stroke:none"
         id="path296" /><path
         d="m 2157.91,468.23 35.1,-35.433 -21.62,2.906 -13.24,-17.34 -0.24,49.867"
         style="fill:#40c1f3;fill-opacity:1;fill-rule:nonzero;stroke:none"
         id="path298" /><path
         d="m 1778.4,544.063 -19.31,-45.981 -5.59,21.078 -21.08,5.59 45.98,19.313"
         style="fill:#40c1f3;fill-opacity:1;fill-rule:nonzero;stroke:none"
         id="path300" /><path
         d="m 1702.44,656.504 -35.43,-35.094 2.9,21.617 -17.34,13.235 49.87,0.242"
         style="fill:#40c1f3;fill-opacity:1;fill-rule:nonzero;stroke:none"
         id="path302" /><path
         d="m 2023.77,441.75 18.87,-46.168 -18.87,10.949 -18.85,-10.949 18.85,46.168"
         style="fill:#40c1f3;fill-opacity:1;fill-rule:nonzero;stroke:none"
         id="path304" /><path
         d="m 1891.29,468.203 -0.25,-49.867 -13.23,17.34 -21.62,-2.906 35.1,35.433"
         style="fill:#40c1f3;fill-opacity:1;fill-rule:nonzero;stroke:none"
         id="path306" /><path
         d="m 434.648,1154.2 35.094,-35.43 -21.617,2.89 -13.23,-17.34 -0.247,49.88"
         style="fill:#40c1f3;fill-opacity:1;fill-rule:nonzero;stroke:none"
         id="path308" /><path
         d="m 306.977,1069.06 45.984,-19.3 -21.086,-5.6 -5.586,-21.07 -19.312,45.97"
         style="fill:#40c1f3;fill-opacity:1;fill-rule:nonzero;stroke:none"
         id="path310" /><path
         d="m 221.848,941.602 49.867,-0.247 -17.34,-13.23 2.906,-21.617 -35.433,35.094"
         style="fill:#40c1f3;fill-opacity:1;fill-rule:nonzero;stroke:none"
         id="path312" /><path
         d="m 192.301,789.902 46.168,18.86 -10.957,-18.86 10.957,-18.863 -46.168,18.863"
         style="fill:#40c1f3;fill-opacity:1;fill-rule:nonzero;stroke:none"
         id="path314" /><path
         d="m 949.199,941.184 -35.437,-35.09 2.902,21.617 -17.34,13.227 49.875,0.246"
         style="fill:#40c1f3;fill-opacity:1;fill-rule:nonzero;stroke:none"
         id="path316" /><path
         d="m 863.793,1068.57 -19.313,-45.98 -5.585,21.08 -21.082,5.59 45.98,19.31"
         style="fill:#40c1f3;fill-opacity:1;fill-rule:nonzero;stroke:none"
         id="path318" /><path
         d="m 735.77,1153.71 -0.243,-49.87 -13.23,17.34 -21.617,-2.91 35.09,35.44"
         style="fill:#40c1f3;fill-opacity:1;fill-rule:nonzero;stroke:none"
         id="path320" /><path
         d="M 585,1183.55 603.863,1137.38 585,1148.34 566.137,1137.38 585,1183.55"
         style="fill:#40c1f3;fill-opacity:1;fill-rule:nonzero;stroke:none"
         id="path322" /><path
         d="m 736.184,427.262 -35.09,35.433 21.617,-2.906 13.227,17.34 0.246,-49.867"
         style="fill:#40c1f3;fill-opacity:1;fill-rule:nonzero;stroke:none"
         id="path324" /><path
         d="m 864.004,512.281 -45.981,19.313 21.082,5.586 5.586,21.082 19.313,-45.981"
         style="fill:#40c1f3;fill-opacity:1;fill-rule:nonzero;stroke:none"
         id="path326" /><path
         d="m 949.004,639.988 -49.867,0.246 17.34,13.235 -2.907,21.613 35.434,-35.094"
         style="fill:#40c1f3;fill-opacity:1;fill-rule:nonzero;stroke:none"
         id="path328" /><path
         d="m 979.277,790.348 -46.168,-18.86 10.957,18.86 -10.957,18.863 46.168,-18.863"
         style="fill:#40c1f3;fill-opacity:1;fill-rule:nonzero;stroke:none"
         id="path330" /><path
         d="m 222.602,639.945 35.433,35.094 -2.902,-21.617 17.34,-13.227 -49.871,-0.25"
         style="fill:#40c1f3;fill-opacity:1;fill-rule:nonzero;stroke:none"
         id="path332" /><path
         d="m 306.695,512.484 19.313,45.985 5.586,-21.086 21.082,-5.59 -45.981,-19.309"
         style="fill:#40c1f3;fill-opacity:1;fill-rule:nonzero;stroke:none"
         id="path334" /><path
         d="m 434.586,427.289 0.242,49.875 13.231,-17.34 21.613,2.903 -35.086,-35.438"
         style="fill:#40c1f3;fill-opacity:1;fill-rule:nonzero;stroke:none"
         id="path336" /><path
         d="m 585.41,396.625 -18.855,46.168 18.855,-10.957 18.863,10.957 -18.863,-46.168"
         style="fill:#40c1f3;fill-opacity:1;fill-rule:nonzero;stroke:none"
         id="path338" /><path
         d="m 597.699,790.438 c 0,-7.489 -5.527,-13.559 -12.351,-13.559 -6.817,0 -12.348,6.07 -12.348,13.559 0,7.492 5.531,13.566 12.348,13.566 6.824,0 12.351,-6.074 12.351,-13.566 z"
         style="fill:none;stroke:#000000;stroke-width:5;stroke-linecap:butt;stroke-linejoin:miter;stroke-miterlimit:4;stroke-dasharray:none;stroke-opacity:1"
         id="path340" /><path
         d="m 2036.5,789.27 c 0,-7.493 -5.53,-13.563 -12.36,-13.563 -6.81,0 -12.34,6.07 -12.34,13.563 0,7.488 5.53,13.562 12.34,13.562 6.83,0 12.36,-6.074 12.36,-13.562 z"
         style="fill:none;stroke:#000000;stroke-width:5;stroke-linecap:butt;stroke-linejoin:miter;stroke-miterlimit:4;stroke-dasharray:none;stroke-opacity:1"
         id="path342" /></g></g></svg>
