<?xml version="1.0" encoding="UTF-8" standalone="no"?>
<svg
   xmlns:dc="http://purl.org/dc/elements/1.1/"
   xmlns:cc="http://creativecommons.org/ns#"
   xmlns:rdf="http://www.w3.org/1999/02/22-rdf-syntax-ns#"
   xmlns:svg="http://www.w3.org/2000/svg"
   xmlns="http://www.w3.org/2000/svg"
   version="1.1"
   id="svg2"
   xml:space="preserve"
   width="109.33333"
   height="204"
   viewBox="0 0 109.33333 204"><metadata
     id="metadata8"><rdf:RDF><cc:Work
         rdf:about=""><dc:format>image/svg+xml</dc:format><dc:type
           rdf:resource="http://purl.org/dc/dcmitype/StillImage" /></cc:Work></rdf:RDF></metadata><defs
     id="defs6" /><g
     id="g10"
     transform="matrix(1.3333333,0,0,-1.3333333,0,204)"><g
       id="g12"
       transform="scale(0.1)"><path
         d="M 365,50.7227 V 1369.28"
         style="fill:none;stroke:#000000;stroke-width:7.5;stroke-linecap:round;stroke-linejoin:round;stroke-miterlimit:4;stroke-dasharray:none;stroke-opacity:1"
         id="path14" /><path
         d="M 10,710 H 720"
         style="fill:none;stroke:#000000;stroke-width:7.5;stroke-linecap:round;stroke-linejoin:round;stroke-miterlimit:4;stroke-dasharray:none;stroke-opacity:1"
         id="path16" /><path
         d="m 466.438,811.43 -0.043,2.531 -0.086,2.527 -0.164,2.52 -0.215,2.523 -0.285,2.512 -0.352,2.504 -0.398,2.496 -0.481,2.484 -0.527,2.477 -0.594,2.457 -0.656,2.441 -0.711,2.426 -0.781,2.406 -0.832,2.391 -0.899,2.367 -0.957,2.34 -1.008,2.316 -1.062,2.29 -1.121,2.269 -1.184,2.234 -1.238,2.207 -1.301,2.172 -1.336,2.145 -1.398,2.105 -1.454,2.075 -1.503,2.031 -1.555,1.996 -1.602,1.961 -1.64,1.918 -1.7,1.875 -1.75,1.832 -1.785,1.785 -1.836,1.742 -1.875,1.699 -1.914,1.649 -1.965,1.597 -1.992,1.555 -2.039,1.504 -2.058,1.449 -2.114,1.399 -2.136,1.347 -2.176,1.289 -2.207,1.239 -2.238,1.183 -2.266,1.121 -2.289,1.071 -2.32,1.011 -2.344,0.954 -2.363,0.898 -2.387,0.832 -2.406,0.773 -2.43,0.715 -2.442,0.657 -2.46,0.593 -2.469,0.532 -2.489,0.472 -2.492,0.406 -2.508,0.344 -2.511,0.285 -2.52,0.219 -2.523,0.156 -2.531,0.098 -2.524,0.027 -2.531,-0.027"
         style="fill:none;stroke:#80d6f7;stroke-width:6;stroke-linecap:round;stroke-linejoin:round;stroke-miterlimit:4;stroke-dasharray:none;stroke-opacity:1"
         id="path18" /><path
         d="m 362.465,912.832 -2.527,-0.098 -2.524,-0.156 -2.519,-0.219 -2.516,-0.285 -2.504,-0.344 -2.496,-0.414 -2.484,-0.464 -2.473,-0.536 -2.461,-0.593 -2.441,-0.657 -2.426,-0.714 -2.406,-0.774 -2.383,-0.836 -2.371,-0.898 -2.344,-0.949 -2.313,-1.012 -2.297,-1.07 -2.265,-1.125 -2.231,-1.184 -2.207,-1.234 -2.175,-1.297 -2.141,-1.34 -2.109,-1.403 -2.071,-1.453 -2.031,-1.496 -1.996,-1.554 -1.957,-1.602 -1.922,-1.648 -1.875,-1.7 -1.828,-1.746 -1.789,-1.785 -1.742,-1.832 -1.7,-1.875 -1.652,-1.918 -1.598,-1.957 -1.55,-1.996 -1.504,-2.039 -1.449,-2.07 -1.399,-2.11 -1.348,-2.136 -1.289,-2.18 -1.238,-2.199 -1.18,-2.239 -1.125,-2.265 -1.07,-2.293 -1.012,-2.317 -0.953,-2.343 -0.89,-2.368 -0.836,-2.386 -0.778,-2.407 -0.715,-2.425 -0.652,-2.446 -0.594,-2.457 -0.535,-2.468 -0.469,-2.489 -0.402,-2.5 -0.348,-2.504 -0.285,-2.507 -0.218,-2.52 -0.161,-2.523 -0.093,-2.532 -0.028,-2.527 0.035,-2.531 0.09,-2.524"
         style="fill:none;stroke:#80d6f7;stroke-width:6;stroke-linecap:round;stroke-linejoin:round;stroke-miterlimit:4;stroke-dasharray:none;stroke-opacity:1"
         id="path20" /><path
         d="m 263.695,806.363 0.157,-2.523 0.218,-2.524 0.285,-2.511 0.348,-2.504 0.41,-2.496 0.469,-2.489 0.531,-2.472 0.598,-2.457 0.652,-2.442 0.719,-2.425 0.773,-2.411 0.836,-2.386 0.895,-2.364 0.953,-2.343 1.016,-2.321 1.07,-2.289 1.121,-2.265 1.184,-2.235 1.238,-2.203 1.289,-2.18 1.348,-2.136 1.394,-2.11 1.457,-2.07 1.5,-2.031 1.551,-2 1.602,-1.953 1.652,-1.922 1.699,-1.875 1.742,-1.828 1.786,-1.789 1.832,-1.743 1.875,-1.699 1.918,-1.644 1.96,-1.602 1.997,-1.555 2.035,-1.503 2.07,-1.45 2.105,-1.398 2.145,-1.34 2.176,-1.297 2.203,-1.234 2.234,-1.18 2.27,-1.125 2.293,-1.07 2.312,-1.008 2.348,-0.953 2.367,-0.899 2.387,-0.836 2.406,-0.769 2.422,-0.719 2.445,-0.656 2.457,-0.59 2.477,-0.531 2.484,-0.469 2.496,-0.41 2.504,-0.344 2.516,-0.281 2.519,-0.223 2.52,-0.152 2.527,-0.094 2.532,-0.035 2.531,0.035 2.527,0.094 2.52,0.16 2.523,0.219 2.512,0.285 2.504,0.344 2.496,0.406 2.484,0.473 2.477,0.535 2.457,0.594 2.437,0.656 2.43,0.711 2.406,0.777 2.387,0.836 2.363,0.895 2.344,0.953 2.32,1.011 2.289,1.071 2.266,1.129 2.238,1.179 2.199,1.242 2.18,1.29 2.141,1.343 2.105,1.399 2.074,1.449 2.032,1.504 2,1.555 1.953,1.601 1.926,1.649 1.875,1.699 1.824,1.746 1.789,1.785 1.746,1.832 1.688,1.879 1.652,1.914 1.601,1.957 1.555,2 1.492,2.035 1.453,2.071 1.411,2.109 1.336,2.141 1.289,2.175 1.242,2.207 1.179,2.235 1.122,2.261 1.078,2.293 1.004,2.321 0.957,2.343 0.886,2.364 0.832,2.386 0.782,2.411 0.711,2.425 0.656,2.442 0.594,2.461 0.531,2.468 0.469,2.489 0.41,2.496 0.34,2.504 0.285,2.511 0.215,2.524 0.164,2.523 0.086,2.528 0.043,2.531 -0.043,2.527 -0.086,2.528 -0.164,2.523 -0.227,2.52"
         style="fill:none;stroke:#80d6f7;stroke-width:6;stroke-linecap:round;stroke-linejoin:round;stroke-miterlimit:4;stroke-dasharray:none;stroke-opacity:1"
         id="path22" /><path
         d="m 567.852,912.859 -0.02,2.532 -0.039,2.531 -0.078,2.527 -0.11,2.524 -0.144,2.527 -0.176,2.523 -0.203,2.52 -0.234,2.52 -0.266,2.511 -0.305,2.512 -0.332,2.512 -0.359,2.5 -0.391,2.5 -0.422,2.488 -0.457,2.488 -0.488,2.485 -0.515,2.472 -0.54,2.473 -0.585,2.461 -0.606,2.457 -0.644,2.445 -0.665,2.438 -0.703,2.429 -0.73,2.422 -0.754,2.41 -0.801,2.407 -0.808,2.39 -0.852,2.383 -0.891,2.367 -0.906,2.36 -0.937,2.347 -0.965,2.34 -0.996,2.324 -1.028,2.309 -1.054,2.301 -1.082,2.286 -1.118,2.27 -1.128,2.26 -1.172,2.24 -1.203,2.23 -1.219,2.21 -1.25,2.2 -1.281,2.19 -1.297,2.16 -1.34,2.15 -1.36,2.14 -1.382,2.11 -1.411,2.1 -1.433,2.08 -1.465,2.06 -1.492,2.04 -1.516,2.03 -1.543,2.01 -1.562,1.98 -1.582,1.97 -1.621,1.95 -1.641,1.93 -1.66,1.9 -1.692,1.89 -1.707,1.86 -1.718,1.85 -1.758,1.82 -1.777,1.79 -1.797,1.78 -1.828,1.76 -1.844,1.73 -1.864,1.71 -1.886,1.68 -1.906,1.67 -1.922,1.63 -1.953,1.62 -1.961,1.58 -1.997,1.57 -2,1.54 -2.031,1.52 -2.043,1.48 -2.058,1.46 -2.078,1.44 -2.102,1.42 -2.117,1.38 -2.141,1.36 -2.14,1.33 -2.165,1.31 -2.187,1.27 -2.199,1.26 -2.207,1.22 -2.239,1.19 -2.246,1.17 -2.254,1.14 -2.265,1.11 -2.285,1.08 -2.305,1.06 -2.313,1.02 -2.328,1 -2.332,0.97 -2.343,0.94 -2.364,0.91 -2.363,0.87 -2.395,0.86 -2.378,0.82 -2.414,0.79 -2.415,0.75 -2.418,0.74 -2.421,0.7 -2.446,0.67 -2.449,0.63 -2.449,0.61 -2.461,0.58 -2.473,0.55 -2.476,0.52 -2.481,0.48 -2.484,0.46 -2.496,0.42 -2.5,0.39 -2.5,0.36 -2.508,0.33 -2.512,0.3 -2.511,0.27 -2.52,0.24 -2.523,0.19 -2.524,0.18 -2.523,0.14 -2.524,0.11 -2.531,0.08 -2.527,0.05 -2.532,0.01 -2.527,-0.01"
         style="fill:none;stroke:#80d6f7;stroke-width:6;stroke-linecap:round;stroke-linejoin:round;stroke-miterlimit:4;stroke-dasharray:none;stroke-opacity:1"
         id="path24" /><path
         d="m 362.457,1115.7 -2.531,-0.05 -2.524,-0.08 -2.527,-0.11 -2.527,-0.14 -2.524,-0.18 -2.519,-0.2 -2.52,-0.23 -2.512,-0.27 -2.511,-0.3 -2.504,-0.33 -2.508,-0.36 -2.5,-0.39 -2.488,-0.43 -2.492,-0.45 -2.481,-0.49 -2.476,-0.52 -2.469,-0.54 -2.461,-0.58 -2.457,-0.61 -2.446,-0.64 -2.437,-0.67 -2.43,-0.7 -2.422,-0.73 -2.414,-0.76 -2.402,-0.8 -2.391,-0.82 -2.379,-0.84 -2.375,-0.88 -2.355,-0.91 -2.352,-0.94 -2.335,-0.97 -2.325,-0.99 -2.308,-1.03 -2.301,-1.06 -2.285,-1.08 -2.274,-1.11 -2.254,-1.14 -2.246,-1.17 -2.226,-1.19 -2.211,-1.23 -2.203,-1.25 -2.176,-1.28 -2.168,-1.3 -2.148,-1.34 -2.137,-1.36 -2.113,-1.38 -2.098,-1.41 -2.082,-1.44 -2.067,-1.47 -2.039,-1.49 -2.027,-1.51 -2.008,-1.54 -1.984,-1.56 -1.969,-1.59 -1.949,-1.62 -1.922,-1.63 -1.91,-1.67 -1.887,-1.68 -1.863,-1.71 -1.84,-1.73 -1.824,-1.76 -1.797,-1.77 -1.781,-1.8 -1.754,-1.82 -1.727,-1.85 -1.711,-1.86 -1.683,-1.89 -1.661,-1.9 -1.64,-1.93 -1.61,-1.95 -1.593,-1.97 -1.563,-1.98 -1.539,-2.01 -1.512,-2.03 -1.492,-2.04 -1.465,-2.06 -1.433,-2.09 -1.41,-2.09 -1.387,-2.12 -1.359,-2.13 -1.332,-2.15 -1.305,-2.17 -1.277,-2.18 -1.25,-2.2 -1.227,-2.21 -1.191,-2.23 -1.172,-2.24 -1.137,-2.26 -1.109,-2.27 -1.082,-2.29 -1.055,-2.3 -1.027,-2.309 -0.997,-2.324 -0.972,-2.34 -0.938,-2.348 -0.906,-2.359 -0.879,-2.371 -0.851,-2.383 -0.821,-2.395 -0.789,-2.398 -0.758,-2.41 -0.73,-2.422 -0.699,-2.434 -0.668,-2.441 -0.641,-2.445 -0.609,-2.453 -0.578,-2.465 -0.547,-2.465 -0.516,-2.477 -0.484,-2.484 -0.453,-2.484 -0.426,-2.497 -0.391,-2.496 -0.363,-2.504 -0.332,-2.507 -0.297,-2.512 -0.27,-2.516 -0.234,-2.511 -0.203,-2.528 -0.172,-2.523 -0.141,-2.524 -0.113,-2.523 -0.078,-2.531 -0.043,-2.532 -0.016,-2.527 0.016,-2.527 0.043,-2.532 0.082,-2.523 0.109,-2.531"
         style="fill:none;stroke:#80d6f7;stroke-width:6;stroke-linecap:round;stroke-linejoin:round;stroke-miterlimit:4;stroke-dasharray:none;stroke-opacity:1"
         id="path26" /><path
         d="m 162.398,902.719 0.141,-2.52 0.176,-2.523 0.207,-2.524 0.23,-2.515 0.27,-2.516 0.301,-2.516 0.332,-2.503 0.359,-2.504 0.395,-2.496 0.425,-2.497 0.454,-2.484 0.484,-2.484 0.516,-2.477 0.546,-2.465 0.582,-2.465 0.606,-2.453 0.641,-2.445 0.671,-2.441 0.7,-2.43 0.734,-2.418 0.762,-2.414 0.789,-2.402 0.82,-2.391 0.852,-2.383 0.879,-2.367 0.906,-2.363 0.945,-2.352 0.965,-2.332 0.996,-2.324 1.023,-2.317 1.063,-2.293 1.078,-2.285 1.113,-2.269 1.145,-2.262 1.164,-2.242 1.195,-2.227 1.223,-2.215 1.25,-2.199 1.277,-2.183 1.313,-2.16 1.332,-2.157 1.355,-2.129 1.387,-2.117 1.414,-2.097 1.434,-2.079 1.465,-2.066 1.488,-2.039 1.519,-2.027 1.539,-2.008 1.563,-1.989 1.59,-1.964 1.613,-1.95 1.641,-1.921 1.66,-1.911 1.683,-1.886 1.707,-1.86 1.735,-1.843 1.754,-1.825 1.777,-1.8 1.801,-1.774 1.824,-1.75 1.844,-1.734 1.859,-1.711 1.891,-1.684 1.906,-1.66 1.926,-1.641 1.949,-1.609 1.969,-1.59 1.988,-1.566 2.004,-1.539 2.027,-1.512 2.039,-1.488 2.067,-1.465 2.082,-1.438 2.097,-1.41 2.118,-1.383 2.132,-1.363 2.149,-1.332 2.168,-1.305 2.183,-1.273 2.196,-1.25 2.219,-1.227 2.226,-1.195 2.242,-1.168 2.258,-1.137 2.27,-1.113 2.285,-1.078 2.301,-1.055 2.316,-1.027 2.32,-0.996 2.336,-0.965 2.348,-0.941 2.363,-0.911 2.367,-0.878 2.387,-0.848 2.391,-0.82 2.402,-0.793 2.414,-0.758 2.422,-0.731 2.43,-0.699 2.437,-0.668 2.445,-0.64 2.458,-0.606 2.46,-0.582 2.469,-0.547 2.477,-0.512 2.48,-0.488 2.489,-0.453 2.492,-0.422 2.5,-0.394 2.504,-0.364 2.504,-0.324 2.515,-0.301 2.516,-0.265 2.515,-0.235 2.52,-0.207 2.523,-0.172 2.524,-0.14 2.531,-0.113 2.523,-0.079 2.532,-0.043 2.527,-0.011 2.527,0.011 2.532,0.051 2.531,0.078 2.523,0.114 2.524,0.14 2.523,0.168 2.52,0.207 2.519,0.239 2.516,0.269 2.512,0.297 2.507,0.332 2.5,0.363 2.5,0.391 2.497,0.426 2.484,0.453 2.48,0.488 2.477,0.516 2.469,0.547 2.461,0.582 2.457,0.605 2.441,0.641 2.441,0.672 2.434,0.699 2.422,0.73 2.41,0.766 2.402,0.789 2.395,0.82 2.371,0.852 2.383,0.879 2.351,0.91 2.356,0.937 2.336,0.969 2.324,0.996 2.313,1.031 2.293,1.051 2.289,1.086 2.273,1.113 2.246,1.137 2.246,1.168 2.239,1.195 2.207,1.227 2.195,1.25 2.18,1.277 2.168,1.305 2.156,1.336 2.129,1.359 2.109,1.383 2.102,1.414 2.086,1.438 2.062,1.465 2.043,1.488 2.02,1.516 2,1.542 1.996,1.563 1.961,1.59 1.953,1.613 1.925,1.641 1.903,1.66 1.887,1.683 1.863,1.708 1.847,1.734 1.825,1.754 1.797,1.777 1.777,1.801 1.75,1.82 1.726,1.848 1.708,1.867 1.691,1.883 1.66,1.91 1.641,1.922 1.613,1.949 1.59,1.969 1.555,1.984 1.542,2.008 1.512,2.027 1.485,2.047 1.464,2.059 1.446,2.082 1.406,2.101 1.387,2.118 1.359,2.132 1.336,2.149 1.301,2.168 1.277,2.183 1.25,2.196 1.223,2.215 1.199,2.23 1.164,2.238 1.141,2.262 1.113,2.274 1.074,2.285 1.055,2.297 1.023,2.312 0.996,2.32 0.969,2.34 0.938,2.352 0.918,2.355 0.879,2.375 0.839,2.383 0.821,2.391 0.793,2.402 0.757,2.414 0.735,2.422 0.703,2.426 0.664,2.441 0.637,2.445 0.613,2.458 0.566,2.46 0.547,2.473 0.528,2.473 0.476,2.48 0.449,2.489 0.434,2.492 0.391,2.5 0.359,2.508 0.32,2.503 0.305,2.516 0.273,2.508 0.235,2.519 0.195,2.52 0.176,2.523 0.144,2.528 0.11,2.527 0.078,2.523 0.039,2.532 0.02,2.527 -0.02,2.531 -0.039,2.528 -0.078,2.531 -0.117,2.523 -0.137,2.524 -0.188,2.523 -0.203,2.524 -0.222,2.515"
         style="fill:none;stroke:#80d6f7;stroke-width:6;stroke-linecap:round;stroke-linejoin:round;stroke-miterlimit:4;stroke-dasharray:none;stroke-opacity:1"
         id="path28" /><path
         d="m 669.277,1014.29 v 1.89 l -0.019,1.89 -0.028,1.91 -0.042,1.89 -0.047,1.9 -0.071,1.89 -0.074,1.9 -0.09,1.89 -0.097,1.9 -0.118,1.89 -0.128,1.89 -0.125,1.9 -0.157,1.89 -0.156,1.88 -0.176,1.9 -0.176,1.89 -0.195,1.88 -0.215,1.89 -0.215,1.88 -0.222,1.89 -0.246,1.87 -0.254,1.88 -0.262,1.88 -0.273,1.88 -0.293,1.88 -0.305,1.86 -0.313,1.87 -0.312,1.88 -0.344,1.87 -0.347,1.86 -0.352,1.86 -0.371,1.86 -0.383,1.86 -0.391,1.85 -0.41,1.85 -0.422,1.86 -0.418,1.84 -0.449,1.85 -0.449,1.85 -0.457,1.83 -0.48,1.84 -0.477,1.83 -0.5,1.84 -0.508,1.82 -0.515,1.82 -0.54,1.83 -0.539,1.81 -0.554,1.82 -0.567,1.81 -0.566,1.81 -0.586,1.8 -0.605,1.8 -0.606,1.8 -0.625,1.79 -0.625,1.79 -0.644,1.78 -0.665,1.78 -0.664,1.78 -0.671,1.77 -0.696,1.77 -0.691,1.76 -0.703,1.76 -0.735,1.75 -0.722,1.75 -0.743,1.75 -0.753,1.74 -0.77,1.74 -0.77,1.73 -0.792,1.73 -0.793,1.72 -0.797,1.72 -0.825,1.7 -0.828,1.71 -0.84,1.7 -0.847,1.7 -0.863,1.69 -1.747,3.37 -1.796,3.33 -1.836,3.33 -1.875,3.3 -1.914,3.27 -1.961,3.24 -1.996,3.23 -2.04,3.2 -2.082,3.17 -2.117,3.15 -2.156,3.12 -2.187,3.09 -2.25,3.07 -2.262,3.04 -2.317,3.01 -2.343,2.98 -2.383,2.95 -2.41,2.92 -2.461,2.89 -2.492,2.87 -2.532,2.82 -2.566,2.8 -2.598,2.76 -2.629,2.73 -2.664,2.7 -2.695,2.67 -2.734,2.63 -2.774,2.6 -2.793,2.56 -2.832,2.53 -2.851,2.49 -2.891,2.46 -2.93,2.41 -2.949,2.39 -2.977,2.35 -3.007,2.31 -3.039,2.27 -3.079,2.23 -3.085,2.2 -3.125,2.15 -3.141,2.12 -3.176,2.08 -3.203,2.04 -3.223,2 -3.254,1.95 -3.269,1.92 -3.301,1.88 -3.308,1.83 -3.352,1.8 -3.359,1.75 -1.7,0.86 -1.687,0.85 -1.699,0.83 -1.711,0.83 -1.719,0.82 -1.707,0.81 -1.731,0.79 -1.718,0.79 -1.739,0.77 -1.738,0.77 -1.726,0.75 -1.75,0.74 -1.746,0.73 -1.77,0.72 -1.758,0.72 -1.758,0.69 -1.765,0.69 -1.782,0.68 -1.765,0.66 -1.777,0.66 -1.79,0.64 -1.793,0.63 -1.789,0.62 -1.796,0.61 -1.797,0.6 -1.805,0.59 -1.809,0.57 -1.816,0.57 -1.809,0.55 -1.824,0.54 -1.816,0.53 -1.824,0.52 -1.829,0.51 -1.828,0.49 -1.836,0.49 -1.836,0.47 -1.836,0.47 -1.843,0.45 -1.844,0.44 -1.855,0.43 -1.848,0.41 -1.856,0.41 -1.843,0.39 -1.868,0.38 -1.855,0.37 -1.863,0.36 -1.867,0.34 -1.868,0.34 -1.863,0.32 -1.875,0.32 -1.875,0.29 -1.875,0.3 -1.875,0.27 -1.879,0.26 -1.883,0.26 -1.879,0.24 -1.882,0.23 -1.887,0.22 -1.883,0.21 -1.887,0.19 -1.886,0.18 -1.891,0.17 -1.891,0.16 -1.89,0.15 -1.895,0.14 -1.886,0.12 -1.895,0.11 -1.898,0.1 -1.891,0.09 -1.899,0.08 -1.89,0.06 -1.899,0.06 -1.898,0.04 -1.898,0.03 -1.895,0.01 -1.895,0.01 -1.898,-0.01 -1.894,-0.01"
         style="fill:none;stroke:#80d6f7;stroke-width:6;stroke-linecap:round;stroke-linejoin:round;stroke-miterlimit:4;stroke-dasharray:none;stroke-opacity:1"
         id="path30" /><path
         d="m 361.188,1318.55 -1.899,-0.03 -1.894,-0.04 -1.895,-0.06 -1.895,-0.06 -1.902,-0.08 -1.894,-0.09 -1.895,-0.1 -1.891,-0.11 -1.89,-0.13 -1.891,-0.14 -1.894,-0.14 -1.891,-0.16 -1.891,-0.18 -1.882,-0.18 -1.891,-0.19 -1.887,-0.2 -1.883,-0.22 -1.882,-0.23 -1.883,-0.25 -1.879,-0.25 -1.875,-0.26 -1.879,-0.28 -1.875,-0.29 -1.871,-0.3 -1.871,-0.31 -1.867,-0.32 -1.868,-0.34 -1.867,-0.35 -1.863,-0.36 -1.859,-0.37 -1.856,-0.38 -1.855,-0.39 -1.856,-0.41 -1.851,-0.41 -1.844,-0.43 -1.848,-0.44 -1.84,-0.46 -1.839,-0.45 -1.836,-0.48 -1.836,-0.49 -1.832,-0.49 -1.828,-0.51 -1.821,-0.52 -1.824,-0.53 -1.816,-0.54 -1.813,-0.56 -1.812,-0.56 -1.805,-0.58 -1.809,-0.58 -1.797,-0.61 -1.796,-0.6 -1.793,-0.63 -1.786,-0.62 -1.789,-0.65 -1.777,-0.66 -1.777,-0.66 -1.774,-0.68 -1.765,-0.69 -1.762,-0.69 -1.758,-0.71 -1.758,-0.73 -1.75,-0.72 -1.746,-0.74 -1.738,-0.76 -1.738,-0.76 -1.731,-0.78 -1.726,-0.79 -1.723,-0.79 -1.715,-0.81 -1.711,-0.82 -1.707,-0.82 -1.699,-0.84 -1.699,-0.85 -1.692,-0.86 -3.363,-1.75 -3.344,-1.8 -3.32,-1.84 -3.297,-1.87 -3.269,-1.91 -3.254,-1.96 -3.223,-2.01 -3.199,-2.03 -3.172,-2.08 -3.152,-2.12 -3.118,-2.16 -3.09,-2.19 -3.066,-2.24 -3.039,-2.27 -3.012,-2.31 -2.98,-2.34 -2.949,-2.39 -2.922,-2.42 -2.891,-2.45 -2.859,-2.5 -2.824,-2.53 -2.801,-2.56 -2.762,-2.6 -2.734,-2.63 -2.703,-2.66 -2.665,-2.71 -2.628,-2.72 -2.594,-2.77 -2.567,-2.8 -2.527,-2.83 -2.492,-2.85 -2.453,-2.9 -2.422,-2.92 -2.383,-2.95 -2.348,-2.98 -2.308,-3.01 -2.27,-3.04 -2.234,-3.06 -2.199,-3.1 -2.153,-3.12 -2.121,-3.15 -2.074,-3.17 -2.039,-3.21 -2,-3.22 -1.957,-3.25 -1.914,-3.28 -1.8752,-3.29 -1.8359,-3.32 -1.793,-3.34 -1.75,-3.37 -0.8593,-1.69 -0.8516,-1.69 -0.8398,-1.71 -0.8243,-1.7 -0.8203,-1.71 -0.8047,-1.72 -0.7968,-1.72 -0.7852,-1.73 -0.7734,-1.73 -0.7657,-1.74 -0.7539,-1.74 -0.7421,-1.74 -0.7305,-1.75 -0.7188,-1.76 -0.7109,-1.76 -0.6953,-1.76 -0.6875,-1.77 -0.6797,-1.77 -0.6641,-1.78 -0.6523,-1.78 -0.6484,-1.78 -0.629,-1.79 -0.621,-1.79 -0.6094,-1.8 -0.5938,-1.8 -0.5937,-1.8 -0.5742,-1.81 -0.5625,-1.81 -0.5547,-1.81 -0.543,-1.82 -0.5273,-1.83 -0.5157,-1.82 -0.5117,-1.82 -0.4961,-1.84 -0.4844,-1.83 -0.4726,-1.84 -0.4649,-1.83 -0.4492,-1.85 -0.4414,-1.85 -0.4258,-1.84 -0.414,-1.85 -0.4063,-1.86 -0.3906,-1.86 -0.3867,-1.85 -0.3672,-1.86 -0.3594,-1.86 -0.3476,-1.87 -0.3321,-1.86 -0.3281,-1.88 -0.3086,-1.87 -0.3008,-1.87 -0.289,-1.88 -0.2735,-1.87 -0.2695,-1.88 -0.25,-1.88 -0.2422,-1.88 -0.2265,-1.88 -0.2227,-1.88 -0.2031,-1.89 -0.1953,-1.89 -0.1797,-1.88 -0.1719,-1.89 -0.1602,-1.89 -0.1484,-1.9 -0.1367,-1.89 -0.1211,-1.89 -0.1133,-1.89 -0.1016,-1.9 -0.0898,-1.89 -0.0703,-1.9 -0.0664,-1.89 -0.0508,-1.9 -0.0469,-1.9 -0.0273,-1.89 -0.0156,-1.9 -0.0079,-1.9 0.0079,-1.89 0.0156,-1.9 0.0312,-1.9 0.043,-1.89 0.0508,-1.9 0.0664,-1.89 0.0781,-1.9 0.086,-1.892"
         style="fill:none;stroke:#80d6f7;stroke-width:6;stroke-linecap:round;stroke-linejoin:round;stroke-miterlimit:4;stroke-dasharray:none;stroke-opacity:1"
         id="path32" /><path
         d="m 61.0938,999.078 0.1015,-1.894 0.1133,-1.895 0.1289,-1.891 0.1289,-1.894 0.1524,-1.891 0.1562,-1.894 0.1719,-1.883 0.1836,-1.891 0.1953,-1.882 0.207,-1.887 0.2188,-1.883 0.2304,-1.887 0.2422,-1.879 0.2539,-1.882 0.2657,-1.879 0.2773,-1.875 0.2891,-1.875 0.2968,-1.875 0.3125,-1.871 0.3282,-1.864 0.332,-1.871 0.3437,-1.863 0.3633,-1.859 0.3711,-1.864 0.3828,-1.859 0.3946,-1.856 0.4023,-1.851 0.418,-1.852 0.4218,-1.847 0.4415,-1.848 0.4531,-1.84 0.4648,-1.84 0.4727,-1.836 0.4844,-1.832 0.5,-1.832 0.5078,-1.824 0.5195,-1.828 0.5273,-1.82 0.543,-1.817 0.5586,-1.816 0.5625,-1.805 0.5742,-1.808 0.5899,-1.805 0.5937,-1.805 0.6133,-1.789 0.6211,-1.793 0.6328,-1.793 0.6445,-1.781 0.6524,-1.781 0.664,-1.774 0.6797,-1.773 0.6914,-1.77 0.6953,-1.765 0.711,-1.758 0.7187,-1.754 0.7305,-1.75 0.7461,-1.746 0.7539,-1.742 0.7617,-1.735 0.7735,-1.73 0.7851,-1.727 0.7969,-1.722 0.8086,-1.715 0.8203,-1.711 0.8281,-1.707 0.8399,-1.703 0.8437,-1.696 0.8672,-1.687 1.75,-3.363 1.793,-3.348 1.8359,-3.317 1.8751,-3.296 1.918,-3.274 1.961,-3.246 1.996,-3.227 2.039,-3.199 2.082,-3.176 2.113,-3.144 2.157,-3.125 2.199,-3.09 2.23,-3.066 2.278,-3.035 2.308,-3.016 2.344,-2.977 2.387,-2.949 2.418,-2.922 2.461,-2.89 2.492,-2.86 2.527,-2.828 2.563,-2.797 2.597,-2.765 2.633,-2.727 2.668,-2.703 2.699,-2.664 2.735,-2.633 2.761,-2.598 2.801,-2.562 2.824,-2.524 2.864,-2.492 2.89,-2.457 2.926,-2.422 2.945,-2.382 2.981,-2.348 3.012,-2.305 3.039,-2.273 3.066,-2.235 3.094,-2.191 3.121,-2.156 3.148,-2.117 3.176,-2.079 3.195,-2.039 3.231,-1.996 3.246,-1.957 3.277,-1.914 3.293,-1.879 3.321,-1.832 3.347,-1.797 3.363,-1.75 1.692,-0.855 1.699,-0.852 1.695,-0.839 1.711,-0.833 1.707,-0.812 1.723,-0.809 1.719,-0.793 1.726,-0.789 1.735,-0.773 1.734,-0.762 1.742,-0.754 1.742,-0.742 1.754,-0.73 1.75,-0.719 1.762,-0.707 1.766,-0.699 1.765,-0.688 1.77,-0.68 1.777,-0.664 1.781,-0.652 1.786,-0.644 1.789,-0.633 1.793,-0.617 1.797,-0.614 1.796,-0.594 1.809,-0.585 1.805,-0.579 1.812,-0.566 1.813,-0.551 1.82,-0.543 1.82,-0.531 1.821,-0.52 1.828,-0.503 1.832,-0.5 1.836,-0.485 1.836,-0.472 1.84,-0.457 1.839,-0.458 1.848,-0.437 1.848,-0.426 1.851,-0.414 1.852,-0.406 1.855,-0.395 1.86,-0.382 1.859,-0.368 1.859,-0.359 1.868,-0.348 1.871,-0.332 1.863,-0.32 1.871,-0.313 1.875,-0.304 1.875,-0.285 1.875,-0.278 1.879,-0.261 1.883,-0.254 1.879,-0.243 1.882,-0.23 1.887,-0.215 1.883,-0.211 1.887,-0.195 1.886,-0.18 1.891,-0.172 1.891,-0.156 1.89,-0.152 1.895,-0.129 1.89,-0.129 1.895,-0.106 1.895,-0.105 1.894,-0.086 1.895,-0.078 1.898,-0.066 1.895,-0.051 1.894,-0.039 1.899,-0.032 1.894,-0.019 1.895,-0.004 1.898,0.004 1.895,0.019 1.902,0.032 1.891,0.043 1.898,0.054 1.898,0.063 1.895,0.078 1.894,0.09 1.895,0.101 1.895,0.114 1.886,0.121 1.899,0.136 1.886,0.153 1.891,0.156 1.891,0.168 1.886,0.188 1.887,0.195 1.887,0.203 1.883,0.223 1.882,0.226 1.883,0.246 1.879,0.254 1.875,0.262 1.879,0.277 1.875,0.289 1.871,0.305 1.863,0.313 1.875,0.32 1.868,0.34 1.867,0.343 1.863,0.36 1.856,0.371 1.855,0.379 1.856,0.394 1.855,0.407 1.855,0.414 1.848,0.429 1.844,0.442 1.848,0.449 1.832,0.465 1.835,0.472 1.836,0.489 1.829,0.496 1.835,0.508 1.817,0.519 1.816,0.531 1.825,0.543 1.808,0.555 1.817,0.563 1.808,0.578 1.805,0.59 1.797,0.593 1.797,0.614 1.796,0.617 1.789,0.636 1.778,0.645 1.785,0.652 1.77,0.664 1.777,0.68 1.765,0.688 1.758,0.699 1.758,0.707 1.758,0.723 1.758,0.734 1.738,0.742 1.738,0.75 1.739,0.77 1.738,0.769 1.719,0.785 1.718,0.797 1.719,0.813 1.719,0.82 1.699,0.824 1.699,0.84 1.7,0.848 1.691,0.859 3.355,1.754 3.352,1.797 3.32,1.832 3.301,1.879 3.273,1.918 3.243,1.961 3.218,1.996 3.204,2.039 3.175,2.082 3.145,2.113 3.125,2.156 3.098,2.2 3.054,2.23 3.035,2.277 3.02,2.309 2.976,2.348 2.954,2.383 2.918,2.421 2.89,2.457 2.86,2.497 2.824,2.523 2.801,2.566 2.753,2.602 2.747,2.629 2.695,2.668 2.656,2.699 2.637,2.73 2.597,2.77 2.559,2.797 2.527,2.828 2.493,2.859 2.461,2.891 2.421,2.922 2.372,2.953 2.355,2.98 2.305,3.008 2.265,3.039 2.239,3.067 2.195,3.094 2.16,3.125 2.106,3.148 2.082,3.172 2.043,3.203 2,3.223 1.953,3.254 1.914,3.269 1.875,3.297 1.836,3.32 1.797,3.344 1.75,3.363 0.859,1.696 0.848,1.695 0.832,1.703 0.836,1.703 0.812,1.715 0.813,1.715 0.789,1.722 0.793,1.723 0.769,1.735 0.762,1.738 0.754,1.738 0.742,1.75 0.73,1.746 0.723,1.758 0.703,1.758 0.692,1.762 0.695,1.769 0.676,1.773 0.672,1.778 0.644,1.781 0.645,1.781 0.632,1.785 0.618,1.797 0.605,1.793 0.606,1.805 0.585,1.801 0.579,1.808 0.566,1.809 0.555,1.816 0.539,1.817 0.527,1.82 0.516,1.828 0.508,1.824 0.5,1.832 0.476,1.836 0.481,1.836 0.457,1.84 0.461,1.844 0.437,1.844 0.43,1.843 0.41,1.852 0.41,1.855 0.391,1.856 0.379,1.859 0.375,1.86 0.351,1.863 0.352,1.863 0.32,1.867 0.332,1.872 0.313,1.871 0.292,1.875 0.293,1.875 0.274,1.875 0.266,1.879 0.25,1.878 0.246,1.879 0.234,1.887 0.215,1.883 0.207,1.887 0.183,1.882 0.196,1.891 0.168,1.891 0.156,1.886 0.145,1.891 0.136,1.895 0.117,1.89 0.118,1.895 0.097,1.894 0.098,1.891 0.066,1.9 0.071,1.89 0.047,1.9 0.042,1.9 0.04,1.89 0.007,1.9 v 1.89 1.91 l -0.019,1.89 -0.028,1.9 -0.042,1.89 -0.055,1.9 -0.07,1.9 -0.079,1.89 -0.089,1.9 -0.094,1.89 -0.11,1.89 -0.128,1.89 -0.133,1.9 -0.149,1.89 -0.156,1.89 -0.176,1.89 -0.183,1.88"
         style="fill:none;stroke:#80d6f7;stroke-width:6;stroke-linecap:round;stroke-linejoin:round;stroke-miterlimit:4;stroke-dasharray:none;stroke-opacity:1"
         id="path34" /><path
         d="m 466.438,608.57 -0.043,2.528 -0.086,2.531 -0.164,2.523 -0.215,2.516 -0.285,2.516 -0.352,2.504 -0.398,2.496 -0.481,2.484 -0.527,2.477 -0.594,2.453 -0.656,2.441 -0.711,2.43 -0.781,2.406 -0.832,2.387 -0.899,2.367 -0.957,2.34 -1.008,2.32 -1.062,2.293 -1.121,2.262 -1.184,2.238 -1.238,2.207 -1.301,2.172 -1.336,2.144 -1.398,2.102 -1.454,2.074 -1.503,2.032 -1.555,2 -1.602,1.957 -1.64,1.918 -1.7,1.875 -1.75,1.832 -1.785,1.789 -1.836,1.742 -1.875,1.699 -1.914,1.645 -1.965,1.601 -1.992,1.555 -2.039,1.504 -2.058,1.449 -2.114,1.394 -2.136,1.348 -2.176,1.289 -2.207,1.242 -2.238,1.18 -2.266,1.125 -2.289,1.066 -2.32,1.012 -2.344,0.957 -2.363,0.895 -2.387,0.836 -2.406,0.769 -2.43,0.719 -2.442,0.652 -2.46,0.594 -2.469,0.531 -2.489,0.473 -2.492,0.406 -2.508,0.348 -2.511,0.281 -2.52,0.223 -2.523,0.156 -2.531,0.09 -2.524,0.035 -2.531,-0.035 -2.527,-0.09 -2.524,-0.156 -2.519,-0.223 -2.516,-0.281 -2.504,-0.348 -2.496,-0.41 -2.484,-0.469 -2.473,-0.531 -2.461,-0.598 -2.441,-0.652 -2.426,-0.715 -2.406,-0.773 -2.383,-0.836 -2.371,-0.895 -2.344,-0.957 -2.313,-1.011 -2.297,-1.071 -2.265,-1.125 -2.231,-1.183 -2.207,-1.235 -2.175,-1.293 -2.141,-1.343 -2.109,-1.403 -2.071,-1.449 -2.031,-1.5 -1.996,-1.551 -1.957,-1.601 -1.922,-1.653 -1.875,-1.699 -1.828,-1.742 -1.789,-1.785 -1.742,-1.832 -1.7,-1.875 -1.652,-1.918 -1.598,-1.961 -1.55,-1.996 -1.504,-2.035 -1.449,-2.071 -1.399,-2.109 -1.348,-2.141 -1.289,-2.176 -1.238,-2.203 -1.18,-2.234 -1.125,-2.27 -1.07,-2.293 -1.012,-2.312 -0.953,-2.348 -0.89,-2.367 -0.836,-2.383 -0.778,-2.41 -0.715,-2.422 -0.652,-2.445 -0.594,-2.457 -0.535,-2.473 -0.469,-2.484 -0.402,-2.5 -0.348,-2.504 -0.285,-2.512 -0.218,-2.519 -0.161,-2.524 -0.093,-2.527 -0.028,-2.531 0.035,-2.532 0.09,-2.523"
         style="fill:none;stroke:#80d6f7;stroke-width:6;stroke-linecap:round;stroke-linejoin:round;stroke-miterlimit:4;stroke-dasharray:none;stroke-opacity:1"
         id="path36" /><path
         d="m 263.695,603.5 0.157,-2.523 0.218,-2.52 0.285,-2.516 0.348,-2.503 0.41,-2.497 0.469,-2.484 0.531,-2.473 0.598,-2.461 0.652,-2.437 0.719,-2.43 0.773,-2.406 0.836,-2.387 0.895,-2.363 0.953,-2.344 1.016,-2.32 1.07,-2.289 1.121,-2.266 1.184,-2.238 1.238,-2.199 1.289,-2.18 1.348,-2.141 1.394,-2.105 1.457,-2.07 1.5,-2.035 1.551,-1.997 1.602,-1.957 1.652,-1.918 1.699,-1.875 1.742,-1.832 1.786,-1.789 1.832,-1.742 1.875,-1.699 1.918,-1.645 1.96,-1.601 1.997,-1.551 2.035,-1.5 2.07,-1.449 2.105,-1.403 2.145,-1.343 2.176,-1.293 2.203,-1.239 2.234,-1.179 2.27,-1.129 2.293,-1.063 2.312,-1.011 2.348,-0.953 2.367,-0.899 2.387,-0.828 2.406,-0.777 2.422,-0.719 2.445,-0.649 2.457,-0.593 2.477,-0.535 2.484,-0.469 2.496,-0.406 2.504,-0.344 2.516,-0.285 2.519,-0.219 2.52,-0.156 2.527,-0.098 2.532,-0.027 2.531,0.031 2.527,0.094 2.52,0.156 2.523,0.223 2.512,0.285 2.504,0.347 2.496,0.407 2.484,0.472 2.477,0.532 2.457,0.593 2.437,0.657 2.43,0.71 2.406,0.778 2.387,0.836 2.363,0.898 2.344,0.953 2.32,1.012 2.289,1.066 2.266,1.129 2.238,1.184 2.199,1.238 2.18,1.289 2.141,1.348 2.105,1.394 2.074,1.457 2.032,1.5 2,1.551 1.953,1.602 1.926,1.652 1.875,1.699 1.824,1.743 1.789,1.789 1.746,1.828 1.688,1.883 1.652,1.914 1.601,1.957 1.555,1.996 1.492,2.035 1.453,2.07 1.411,2.11 1.336,2.144 1.289,2.172 1.242,2.207 1.179,2.238 1.122,2.266 1.078,2.289 1.004,2.32 0.957,2.344 0.886,2.363 0.832,2.387 0.782,2.406 0.711,2.43 0.656,2.438 0.594,2.46 0.531,2.473 0.469,2.484 0.41,2.497 0.34,2.507 0.285,2.512 0.215,2.52 0.164,2.523 0.086,2.531 0.043,2.524 -0.043,2.535 -0.086,2.523 -0.164,2.524 -0.227,2.519"
         style="fill:none;stroke:#80d6f7;stroke-width:6;stroke-linecap:round;stroke-linejoin:round;stroke-miterlimit:4;stroke-dasharray:none;stroke-opacity:1"
         id="path38" /><path
         d="m 567.852,507.148 -0.02,2.524 -0.039,2.531 -0.078,2.527 -0.11,2.528 -0.144,2.523 -0.176,2.524 -0.203,2.523 -0.234,2.516 -0.266,2.515 -0.305,2.516 -0.332,2.504 -0.359,2.504 -0.391,2.496 -0.422,2.496 -0.457,2.484 -0.488,2.485 -0.515,2.476 -0.54,2.465 -0.585,2.465 -0.606,2.453 -0.644,2.445 -0.665,2.442 -0.703,2.43 -0.73,2.421 -0.754,2.411 -0.801,2.402 -0.808,2.391 -0.852,2.382 -0.891,2.375 -0.906,2.36 -0.937,2.347 -0.965,2.336 -0.996,2.325 -1.028,2.312 -1.054,2.301 -1.082,2.285 -1.118,2.27 -1.128,2.253 -1.172,2.247 -1.203,2.226 -1.219,2.215 -1.25,2.199 -1.281,2.184 -1.297,2.164 -1.34,2.148 -1.36,2.133 -1.382,2.113 -1.411,2.102 -1.433,2.078 -1.465,2.066 -1.492,2.039 -1.516,2.028 -1.543,2.008 -1.562,1.988 -1.582,1.969 -1.621,1.945 -1.641,1.926 -1.66,1.91 -1.692,1.883 -1.707,1.867 -1.718,1.84 -1.758,1.82 -1.777,1.801 -1.797,1.777 -1.828,1.754 -1.844,1.734 -1.864,1.708 -1.886,1.687 -1.906,1.656 -1.922,1.637 -1.953,1.617 -1.961,1.586 -1.997,1.567 -2,1.539 -2.031,1.515 -2.043,1.488 -2.058,1.465 -2.078,1.438 -2.102,1.41 -2.117,1.387 -2.141,1.355 -2.14,1.336 -2.165,1.301 -2.187,1.281 -2.199,1.25 -2.207,1.227 -2.239,1.195 -2.246,1.168 -2.254,1.137 -2.265,1.113 -2.285,1.082 -2.305,1.051 -2.313,1.031 -2.328,0.996 -2.332,0.965 -2.343,0.937 -2.364,0.911 -2.363,0.879 -2.395,0.847 -2.378,0.821 -2.414,0.792 -2.415,0.762 -2.418,0.731 -2.421,0.699 -2.446,0.668 -2.449,0.64 -2.449,0.61 -2.461,0.578 -2.473,0.547 -2.476,0.515 -2.481,0.485 -2.484,0.453 -2.496,0.426 -2.5,0.39 -2.5,0.364 -2.508,0.332 -2.512,0.297 -2.511,0.269 -2.52,0.234 -2.523,0.204 -2.524,0.171 -2.523,0.141 -2.524,0.113 -2.531,0.079 -2.527,0.046 -2.532,0.016 -2.527,-0.016 -2.531,-0.046 -2.524,-0.079 -2.527,-0.113 -2.527,-0.141 -2.524,-0.171 -2.519,-0.204 -2.52,-0.242 -2.512,-0.265 -2.511,-0.301 -2.504,-0.332 -2.508,-0.356 -2.5,-0.394 -2.488,-0.426 -2.492,-0.453 -2.481,-0.484 -2.476,-0.516 -2.469,-0.547 -2.461,-0.582 -2.457,-0.605 -2.446,-0.641 -2.437,-0.672 -2.43,-0.699 -2.422,-0.735 -2.414,-0.753 -2.402,-0.793 -2.391,-0.821 -2.379,-0.855 -2.375,-0.879 -2.355,-0.906 -2.352,-0.938 -2.335,-0.972 -2.325,-0.997 -2.308,-1.023 -2.301,-1.059 -2.285,-1.082 -2.274,-1.113 -2.254,-1.137 -2.246,-1.168 -2.226,-1.195 -2.211,-1.226 -2.203,-1.25 -2.176,-1.274 -2.168,-1.309 -2.148,-1.335 -2.137,-1.356 -2.113,-1.387 -2.098,-1.41 -2.082,-1.437 -2.067,-1.465 -2.039,-1.488 -2.027,-1.512 -2.008,-1.543 -1.984,-1.567 -1.969,-1.589 -1.949,-1.614 -1.922,-1.636 -1.91,-1.661 -1.887,-1.687 -1.863,-1.707 -1.84,-1.734 -1.824,-1.754 -1.797,-1.778 -1.781,-1.8 -1.754,-1.821 -1.727,-1.844 -1.711,-1.863 -1.683,-1.887 -1.661,-1.906 -1.64,-1.929 -1.61,-1.946 -1.593,-1.965 -1.563,-1.988 -1.539,-2.008 -1.512,-2.023 -1.492,-2.047 -1.465,-2.063 -1.433,-2.078 -1.41,-2.101 -1.387,-2.113 -1.359,-2.133 -1.332,-2.157 -1.305,-2.16 -1.277,-2.183 -1.25,-2.2 -1.227,-2.214 -1.191,-2.227 -1.172,-2.246 -1.137,-2.254 -1.109,-2.273 -1.082,-2.286 -1.055,-2.296 -1.027,-2.317 -0.997,-2.324 -0.972,-2.332 -0.938,-2.352 -0.906,-2.363 -0.879,-2.367 -0.851,-2.383 -0.821,-2.391 -0.789,-2.406 -0.758,-2.41 -0.73,-2.422 -0.699,-2.429 -0.668,-2.438 -0.641,-2.445 -0.609,-2.457 -0.578,-2.461 -0.547,-2.473 -0.516,-2.476 -0.484,-2.477 -0.453,-2.492 -0.426,-2.489 -0.391,-2.5 -0.363,-2.5 -0.332,-2.511 -0.297,-2.508 -0.27,-2.523 -0.234,-2.512 -0.203,-2.52 -0.172,-2.523 -0.141,-2.528 -0.113,-2.527 -0.078,-2.523 -0.043,-2.532 -0.016,-2.527 0.016,-2.531 0.043,-2.527 0.082,-2.532 0.109,-2.523"
         style="fill:none;stroke:#80d6f7;stroke-width:6;stroke-linecap:round;stroke-linejoin:round;stroke-miterlimit:4;stroke-dasharray:none;stroke-opacity:1"
         id="path40" /><path
         d="m 162.398,497.008 0.141,-2.528 0.176,-2.523 0.207,-2.519 0.23,-2.52 0.27,-2.516 0.301,-2.507 0.332,-2.508 0.359,-2.5 0.395,-2.5 0.425,-2.492 0.454,-2.493 0.484,-2.476 0.516,-2.477 0.546,-2.472 0.582,-2.461 0.606,-2.453 0.641,-2.45 0.671,-2.433 0.7,-2.434 0.734,-2.422 0.762,-2.41 0.789,-2.402 0.82,-2.395 0.852,-2.379 0.879,-2.371 0.906,-2.359 0.945,-2.348 0.965,-2.34 0.996,-2.324 1.023,-2.308 1.063,-2.301 1.078,-2.285 1.113,-2.27 1.145,-2.258 1.164,-2.246 1.195,-2.226 1.223,-2.211 1.25,-2.2 1.277,-2.179 1.313,-2.168 1.332,-2.149 1.355,-2.132 1.387,-2.118 1.414,-2.097 1.434,-2.082 1.465,-2.059 1.488,-2.047 1.519,-2.027 1.539,-2 1.563,-1.988 1.59,-1.969 1.613,-1.946 1.641,-1.929 1.66,-1.906 1.683,-1.883 1.707,-1.867 1.735,-1.844 1.754,-1.821 1.777,-1.796 1.801,-1.782 1.824,-1.75 1.844,-1.734 1.859,-1.703 1.891,-1.688 1.906,-1.664 1.926,-1.633 1.949,-1.613 1.969,-1.594 1.988,-1.558 2.004,-1.539 2.027,-1.516 2.039,-1.488 2.067,-1.465 2.082,-1.437 2.097,-1.415 2.118,-1.382 2.132,-1.356 2.149,-1.336 2.168,-1.301 2.183,-1.281 2.196,-1.25 2.219,-1.222 2.226,-1.196 2.242,-1.164 2.258,-1.137 2.27,-1.117 2.285,-1.082 2.301,-1.054 2.316,-1.028 2.32,-0.992 2.336,-0.969 2.348,-0.937 2.363,-0.906 2.367,-0.879 2.387,-0.852 2.391,-0.82 2.402,-0.789 2.414,-0.762 2.422,-0.73 2.43,-0.7 2.437,-0.672 2.445,-0.632 2.458,-0.614 2.46,-0.574 2.469,-0.547 2.477,-0.519 2.48,-0.485 2.489,-0.453 2.492,-0.426 2.5,-0.386 2.504,-0.364 2.504,-0.332 2.515,-0.296 2.516,-0.266 2.515,-0.238 2.52,-0.204 2.523,-0.171 2.524,-0.141 2.531,-0.109 2.523,-0.079 2.532,-0.046 2.527,-0.016 2.527,0.016 2.532,0.046 2.531,0.079 2.523,0.113 2.524,0.141 2.523,0.175 2.52,0.203 2.519,0.239 2.516,0.265 2.512,0.301 2.507,0.328 2.5,0.364 2.5,0.394 2.497,0.426 2.484,0.453 2.48,0.484 2.477,0.52 2.469,0.547 2.461,0.578 2.457,0.609 2.441,0.641 2.441,0.672 2.434,0.703 2.422,0.726 2.41,0.762 2.402,0.789 2.395,0.821 2.371,0.851 2.383,0.883 2.351,0.91 2.356,0.938 2.336,0.968 2.324,0.996 2.313,1.028 2.293,1.054 2.289,1.082 2.273,1.114 2.246,1.136 2.246,1.172 2.239,1.196 2.207,1.222 2.195,1.258 2.18,1.277 2.168,1.305 2.156,1.332 2.129,1.36 2.109,1.382 2.102,1.414 2.086,1.442 2.062,1.457 2.043,1.496 2.02,1.512 2,1.539 1.996,1.566 1.961,1.59 1.953,1.613 1.925,1.637 1.903,1.664 1.887,1.688 1.863,1.707 1.847,1.734 1.825,1.754 1.797,1.773 1.777,1.805 1.75,1.82 1.726,1.84 1.708,1.867 1.691,1.891 1.66,1.902 1.641,1.93 1.613,1.945 1.59,1.969 1.555,1.988 1.542,2.008 1.512,2.027 1.485,2.04 1.464,2.066 1.446,2.078 1.406,2.102 1.387,2.113 1.359,2.133 1.336,2.156 1.301,2.16 1.277,2.184 1.25,2.199 1.223,2.215 1.199,2.226 1.164,2.246 1.141,2.254 1.113,2.274 1.074,2.289 1.055,2.297 1.023,2.312 0.996,2.324 0.969,2.332 0.938,2.352 0.918,2.363 0.879,2.368 0.839,2.382 0.821,2.395 0.793,2.398 0.757,2.414 0.735,2.422 0.703,2.434 0.664,2.433 0.637,2.45 0.613,2.453 0.566,2.469 0.547,2.464 0.528,2.477 0.476,2.476 0.449,2.493 0.434,2.496 0.391,2.496 0.359,2.504 0.32,2.508 0.305,2.511 0.273,2.516 0.235,2.516 0.195,2.523 0.176,2.523 0.144,2.524 0.11,2.523 0.078,2.532 0.039,2.527 0.02,2.531 -0.02,2.524 -0.039,2.535 -0.078,2.523 -0.117,2.528 -0.137,2.527 -0.188,2.523 -0.203,2.52 -0.222,2.515"
         style="fill:none;stroke:#80d6f7;stroke-width:6;stroke-linecap:round;stroke-linejoin:round;stroke-miterlimit:4;stroke-dasharray:none;stroke-opacity:1"
         id="path42" /><path
         d="m 669.277,405.715 v 1.898 l -0.019,1.895 -0.028,1.898 -0.042,1.895 -0.047,1.898 -0.071,1.895 -0.074,1.894 -0.09,1.895 -0.097,1.894 -0.118,1.895 -0.128,1.891 -0.125,1.894 -0.157,1.891 -0.156,1.886 -0.176,1.891 -0.176,1.891 -0.195,1.882 -0.215,1.887 -0.215,1.887 -0.222,1.883 -0.246,1.879 -0.254,1.879 -0.262,1.875 -0.273,1.882 -0.293,1.875 -0.305,1.868 -0.313,1.875 -0.312,1.867 -0.344,1.871 -0.347,1.863 -0.352,1.859 -0.371,1.864 -0.383,1.855 -0.391,1.86 -0.41,1.851 -0.422,1.852 -0.418,1.843 -0.449,1.848 -0.449,1.844 -0.457,1.836 -0.48,1.84 -0.477,1.832 -0.5,1.832 -0.508,1.824 -0.515,1.828 -0.54,1.82 -0.539,1.817 -0.554,1.816 -0.567,1.809 -0.566,1.804 -0.586,1.809 -0.605,1.801 -0.606,1.793 -0.625,1.789 -0.625,1.793 -0.644,1.781 -0.665,1.781 -0.664,1.782 -0.671,1.769 -0.696,1.766 -0.691,1.765 -0.703,1.758 -0.735,1.754 -0.722,1.754 -0.743,1.742 -0.753,1.742 -0.77,1.735 -0.77,1.734 -0.792,1.723 -0.793,1.722 -0.797,1.719 -0.825,1.711 -0.828,1.707 -0.84,1.699 -0.847,1.696 -0.863,1.695 -1.747,3.363 -1.796,3.34 -1.836,3.32 -1.875,3.293 -1.914,3.278 -1.961,3.25 -1.996,3.226 -2.04,3.2 -2.082,3.171 -2.117,3.145 -2.156,3.125 -2.187,3.09 -2.25,3.066 -2.262,3.039 -2.317,3.012 -2.343,2.977 -2.383,2.953 -2.41,2.922 -2.461,2.89 -2.492,2.86 -2.532,2.832 -2.566,2.796 -2.598,2.762 -2.629,2.731 -2.664,2.699 -2.695,2.668 -2.734,2.633 -2.774,2.593 -2.793,2.567 -2.832,2.527 -2.851,2.492 -2.891,2.453 -2.93,2.422 -2.949,2.387 -2.977,2.344 -3.007,2.308 -3.039,2.274 -3.079,2.23 -3.085,2.199 -3.125,2.153 -3.141,2.121 -3.176,2.074 -3.203,2.043 -3.223,1.996 -3.254,1.957 -3.269,1.914 -3.301,1.879 -3.308,1.836 -3.352,1.793 -3.359,1.75 -1.7,0.859 -1.687,0.848 -1.699,0.84 -1.711,0.832 -1.719,0.816 -1.707,0.809 -1.731,0.797 -1.718,0.785 -1.739,0.77 -1.738,0.769 -1.726,0.75 -1.75,0.742 -1.746,0.735 -1.77,0.715 -1.758,0.707 -1.758,0.699 -1.765,0.687 -1.782,0.68 -1.765,0.664 -1.777,0.656 -1.79,0.645 -1.793,0.629 -1.789,0.621 -1.796,0.609 -1.797,0.602 -1.805,0.586 -1.809,0.574 -1.816,0.562 -1.809,0.559 -1.824,0.539 -1.816,0.527 -1.824,0.524 -1.829,0.508 -1.828,0.492 -1.836,0.488 -1.836,0.477 -1.836,0.461 -1.843,0.449 -1.844,0.441 -1.855,0.426 -1.848,0.418 -1.856,0.406 -1.843,0.391 -1.868,0.379 -1.855,0.371 -1.863,0.355 -1.867,0.348 -1.868,0.34 -1.863,0.32 -1.875,0.313 -1.875,0.3 -1.875,0.286 -1.875,0.277 -1.879,0.269 -1.883,0.25 -1.879,0.243 -1.882,0.23 -1.887,0.219 -1.883,0.207 -1.887,0.195 -1.886,0.18 -1.891,0.172 -1.891,0.16 -1.89,0.144 -1.895,0.141 -1.886,0.121 -1.895,0.11 -1.898,0.105 -1.891,0.086 -1.899,0.078 -1.89,0.066 -1.899,0.051 -1.898,0.039 -1.898,0.032 -1.895,0.019 -1.895,0.004 -1.898,-0.004 -1.894,-0.019 -1.899,-0.032 -1.894,-0.043 -1.895,-0.047 -1.895,-0.07 -1.902,-0.078 -1.894,-0.086 -1.895,-0.101 -1.891,-0.11 -1.89,-0.129 -1.891,-0.136 -1.894,-0.145 -1.891,-0.16 -1.891,-0.172 -1.882,-0.184 -1.891,-0.191 -1.887,-0.207 -1.883,-0.219 -1.882,-0.23 -1.883,-0.242 -1.879,-0.254 -1.875,-0.266 -1.879,-0.277 -1.875,-0.289 -1.871,-0.297 -1.871,-0.313 -1.867,-0.328 -1.868,-0.332 -1.867,-0.348 -1.863,-0.359 -1.859,-0.371 -1.856,-0.383 -1.855,-0.39 -1.856,-0.407 -1.851,-0.414 -1.844,-0.429 -1.848,-0.438 -1.84,-0.449 -1.839,-0.465 -1.836,-0.473 -1.836,-0.488 -1.832,-0.5 -1.828,-0.508 -1.821,-0.515 -1.824,-0.536 -1.816,-0.539 -1.813,-0.55 -1.812,-0.571 -1.805,-0.574 -1.809,-0.586 -1.797,-0.601 -1.796,-0.606 -1.793,-0.625 -1.786,-0.629 -1.789,-0.644 -1.777,-0.657 -1.777,-0.664 -1.774,-0.675 -1.765,-0.688 -1.762,-0.699 -1.758,-0.707 -1.758,-0.727 -1.75,-0.73 -1.746,-0.742 -1.738,-0.75 -1.738,-0.762 -1.731,-0.777 -1.726,-0.79 -1.723,-0.793 -1.715,-0.804 -1.711,-0.821 -1.707,-0.832 -1.699,-0.835 -1.699,-0.848 -1.692,-0.863 -3.363,-1.75 -3.344,-1.797 -3.32,-1.832 -3.297,-1.879 -3.269,-1.918 -3.254,-1.957 -3.223,-2 -3.199,-2.035 -3.172,-2.079 -3.152,-2.121 -3.118,-2.152 -3.09,-2.199 -3.066,-2.231 -3.039,-2.273 -3.012,-2.313 -2.98,-2.343 -2.949,-2.387 -2.922,-2.418 -2.891,-2.461 -2.859,-2.488 -2.824,-2.531 -2.801,-2.563 -2.762,-2.598 -2.734,-2.632 -2.703,-2.665 -2.665,-2.703 -2.628,-2.726 -2.594,-2.766 -2.567,-2.797 -2.527,-2.832 -2.492,-2.859 -2.453,-2.887 -2.422,-2.926 -2.383,-2.949 -2.348,-2.984 -2.308,-3.008 -2.27,-3.039 -2.234,-3.066 -2.199,-3.094 -2.153,-3.125 -2.121,-3.145 -2.074,-3.172 -2.039,-3.199 -2,-3.226 -1.957,-3.247 -1.914,-3.277 -1.8752,-3.297 -1.8359,-3.32 -1.793,-3.344 -1.75,-3.363 -0.8593,-1.691 -0.8516,-1.696 -0.8398,-1.703 -0.8243,-1.703 -0.8203,-1.715 -0.8047,-1.715 -0.7968,-1.722 -0.7852,-1.727 -0.7734,-1.73 -0.7657,-1.739 -0.7539,-1.738 -0.7421,-1.746 -0.7305,-1.75 -0.7188,-1.758 -0.7109,-1.758 -0.6953,-1.761 -0.6875,-1.77 -0.6797,-1.769 -0.6641,-1.782 -0.6523,-1.781 -0.6484,-1.781 -0.629,-1.793 -0.621,-1.789 -0.6094,-1.793 -0.5938,-1.801 -0.5937,-1.805 -0.5742,-1.808 -0.5625,-1.809 -0.5547,-1.816 -0.543,-1.817 -0.5273,-1.82 -0.5157,-1.828 -0.5117,-1.824 -0.4961,-1.832 -0.4844,-1.836 -0.4726,-1.836 -0.4649,-1.84 -0.4492,-1.84 -0.4414,-1.848 -0.4258,-1.843 -0.414,-1.852 -0.4063,-1.855 -0.3906,-1.856 -0.3867,-1.855 -0.3672,-1.864 -0.3594,-1.863 -0.3476,-1.863 -0.3321,-1.867 -0.3281,-1.871 -0.3086,-1.872 -0.3008,-1.867 -0.289,-1.875 -0.2735,-1.883 -0.2695,-1.875 -0.25,-1.882 -0.2422,-1.879 -0.2265,-1.879 -0.2227,-1.887 -0.2031,-1.887 -0.1953,-1.886 -0.1797,-1.887 -0.1719,-1.891 -0.1602,-1.886 -0.1484,-1.895 -0.1367,-1.891 -0.1211,-1.894 -0.1133,-1.891 -0.1016,-1.894 -0.0898,-1.899 -0.0703,-1.894 -0.0664,-1.895 -0.0508,-1.894 -0.0469,-1.895 -0.0273,-1.898 -0.0156,-1.895 -0.0079,-1.898 0.0079,-1.899 0.0156,-1.898 0.0312,-1.895 0.043,-1.898 0.0508,-1.895 0.0664,-1.894 0.0781,-1.895 0.086,-1.894"
         style="fill:none;stroke:#80d6f7;stroke-width:6;stroke-linecap:round;stroke-linejoin:round;stroke-miterlimit:4;stroke-dasharray:none;stroke-opacity:1"
         id="path44" /><path
         d="m 61.0938,390.508 0.1015,-1.895 0.1133,-1.894 0.1289,-1.895 0.1289,-1.89 0.1524,-1.887 0.1562,-1.891 0.1719,-1.89 0.1836,-1.891 0.1953,-1.883 0.207,-1.89 0.2188,-1.883 0.2304,-1.883 0.2422,-1.879 0.2539,-1.879 0.2657,-1.883 0.2773,-1.875 0.2891,-1.875 0.2968,-1.875 0.3125,-1.867 0.3282,-1.871 0.332,-1.863 0.3437,-1.867 0.3633,-1.86 0.3711,-1.859 0.3828,-1.863 0.3946,-1.856 0.4023,-1.851 0.418,-1.848 0.4218,-1.852 0.4415,-1.843 0.4531,-1.844 0.4648,-1.84 0.4727,-1.836 0.4844,-1.832 0.5,-1.828 0.5078,-1.828 0.5195,-1.824 0.5273,-1.825 0.543,-1.816 0.5586,-1.817 0.5625,-1.808 0.5742,-1.809 0.5899,-1.8 0.5937,-1.801 0.6133,-1.793 0.6211,-1.793 0.6328,-1.793 0.6445,-1.781 0.6524,-1.782 0.664,-1.777 0.6797,-1.77 0.6914,-1.765 0.6953,-1.762 0.711,-1.766 0.7187,-1.75 0.7305,-1.75 0.7461,-1.75 0.7539,-1.734 0.7617,-1.738 0.7735,-1.731 0.7851,-1.726 0.7969,-1.727 0.8086,-1.715 0.8203,-1.711 0.8281,-1.707 0.8399,-1.695 0.8437,-1.699 0.8672,-1.692 1.75,-3.363 1.793,-3.347 1.8359,-3.321 1.8751,-3.293 1.918,-3.273 1.961,-3.25 1.996,-3.223 2.039,-3.199 2.082,-3.172 2.113,-3.144 2.157,-3.125 2.199,-3.094 2.23,-3.067 2.278,-3.035 2.308,-3.011 2.344,-2.981 2.387,-2.949 2.418,-2.918 2.461,-2.895 2.492,-2.859 2.527,-2.828 2.563,-2.797 2.597,-2.766 2.633,-2.726 2.668,-2.699 2.699,-2.668 2.735,-2.633 2.761,-2.598 2.801,-2.558 2.824,-2.528 2.864,-2.492 2.89,-2.453 2.926,-2.422 2.945,-2.387 2.981,-2.343 3.012,-2.309 3.039,-2.27 3.066,-2.234 3.094,-2.195 3.121,-2.157 3.148,-2.117 3.176,-2.078 3.195,-2.035 3.231,-1.996 3.246,-1.961 3.277,-1.918 3.293,-1.875 3.321,-1.836 3.347,-1.793 3.363,-1.746 1.692,-0.859 1.699,-0.852 1.695,-0.84 1.711,-0.828 1.707,-0.816 1.723,-0.805 1.719,-0.797 1.726,-0.785 1.735,-0.777 1.734,-0.762 1.742,-0.75 1.742,-0.742 1.754,-0.735 1.75,-0.718 1.762,-0.707 1.766,-0.704 1.765,-0.683 1.77,-0.68 1.777,-0.664 1.781,-0.652 1.786,-0.645 1.789,-0.633 1.793,-0.617 1.797,-0.609 1.796,-0.598 1.809,-0.586 1.805,-0.574 1.812,-0.566 1.813,-0.555 1.82,-0.539 1.82,-0.535 1.821,-0.516 1.828,-0.508 1.832,-0.5 1.836,-0.48 1.836,-0.477 1.84,-0.457 1.839,-0.453 1.848,-0.441 1.848,-0.426 1.851,-0.418 1.852,-0.402 1.855,-0.395 1.86,-0.383 1.859,-0.367 1.859,-0.359 1.868,-0.344 1.871,-0.332 1.863,-0.328 1.871,-0.309 1.875,-0.305 1.875,-0.292 1.875,-0.262 1.879,-0.274 1.883,-0.254 1.879,-0.246 1.882,-0.222 1.887,-0.215 1.883,-0.215 1.887,-0.187 1.886,-0.184 1.891,-0.176 1.891,-0.144 1.89,-0.161 1.895,-0.125 1.89,-0.128 1.895,-0.118 1.895,-0.093 1.894,-0.09 1.895,-0.078 1.898,-0.059 1.895,-0.059 1.894,-0.039 1.899,-0.027 1.894,-0.019 h 1.895 1.898 l 1.895,0.019 1.902,0.027 1.891,0.039 1.898,0.059 1.898,0.066 1.895,0.082 1.894,0.086 1.895,0.098 1.895,0.106 1.886,0.128 1.899,0.137 1.886,0.149 1.891,0.164 1.891,0.168 1.886,0.183 1.887,0.196 1.887,0.207 1.883,0.211 1.882,0.238 1.883,0.242 1.879,0.254 1.875,0.266 1.879,0.281 1.875,0.285 1.871,0.301 1.863,0.312 1.875,0.321 1.868,0.339 1.867,0.348 1.863,0.355 1.856,0.372 1.855,0.378 1.856,0.399 1.855,0.402 1.855,0.414 1.848,0.434 1.844,0.437 1.848,0.454 1.832,0.46 1.835,0.477 1.836,0.484 1.829,0.497 1.835,0.507 1.817,0.52 1.816,0.531 1.825,0.543 1.808,0.559 1.817,0.558 1.808,0.578 1.805,0.59 1.797,0.598 1.797,0.609 1.796,0.625 1.789,0.629 1.778,0.645 1.785,0.656 1.77,0.664 1.777,0.676 1.765,0.687 1.758,0.7 1.758,0.707 1.758,0.726 1.758,0.731 1.738,0.742 1.738,0.754 1.739,0.757 1.738,0.778 1.719,0.789 1.718,0.793 1.719,0.812 1.719,0.817 1.699,0.828 1.699,0.84 1.7,0.847 1.691,0.864 3.355,1.75 3.352,1.793 3.32,1.839 3.301,1.875 3.273,1.918 3.243,1.961 3.218,1.996 3.204,2.04 3.175,2.082 3.145,2.113 3.125,2.16 3.098,2.195 3.054,2.239 3.035,2.269 3.02,2.309 2.976,2.347 2.954,2.387 2.918,2.422 2.89,2.453 2.86,2.496 2.824,2.528 2.801,2.566 2.753,2.598 2.747,2.629 2.695,2.667 2.656,2.7 2.637,2.73 2.597,2.77 2.559,2.797 2.527,2.828 2.493,2.859 2.461,2.891 2.421,2.925 2.372,2.95 2.355,2.976 2.305,3.016 2.265,3.035 2.239,3.066 2.195,3.098 2.16,3.117 2.106,3.153 2.082,3.172 2.043,3.203 2,3.222 1.953,3.254 1.914,3.27 1.875,3.297 1.836,3.324 1.797,3.34 1.75,3.367 0.859,1.691 0.848,1.696 0.832,1.703 0.836,1.707 0.812,1.711 0.813,1.715 0.789,1.722 0.793,1.727 0.769,1.73 0.762,1.738 0.754,1.739 0.742,1.75 0.73,1.746 0.723,1.758 0.703,1.757 0.692,1.766 0.695,1.766 0.676,1.773 0.672,1.778 0.644,1.781 0.645,1.781 0.632,1.789 0.618,1.793 0.605,1.797 0.606,1.801 0.585,1.8 0.579,1.813 0.566,1.812 0.555,1.809 0.539,1.816 0.527,1.825 0.516,1.824 0.508,1.828 0.5,1.828 0.476,1.836 0.481,1.836 0.457,1.844 0.461,1.84 0.437,1.843 0.43,1.848 0.41,1.852 0.41,1.855 0.391,1.856 0.379,1.855 0.375,1.863 0.351,1.86 0.352,1.867 0.32,1.863 0.332,1.871 0.313,1.871 0.292,1.875 0.293,1.875 0.274,1.875 0.266,1.879 0.25,1.879 0.246,1.883 0.234,1.883 0.215,1.886 0.207,1.883 0.183,1.887 0.196,1.887 0.168,1.89 0.156,1.891 0.145,1.891 0.136,1.89 0.117,1.891 0.118,1.894 0.097,1.895 0.098,1.894 0.066,1.895 0.071,1.895 0.047,1.902 0.042,1.89 0.04,1.899 0.007,1.898 v 1.895 1.898 l -0.019,1.895 -0.028,1.898 -0.042,1.895 -0.055,1.894 -0.07,1.895 -0.079,1.898 -0.089,1.899 -0.094,1.89 -0.11,1.891 -0.128,1.895 -0.133,1.89 -0.149,1.895 -0.156,1.89 -0.176,1.891 -0.183,1.883"
         style="fill:none;stroke:#80d6f7;stroke-width:6;stroke-linecap:round;stroke-linejoin:round;stroke-miterlimit:4;stroke-dasharray:none;stroke-opacity:1"
         id="path46" /><g
         id="g48"
         transform="scale(10)"><text
           transform="matrix(1,0,0,-1,78.4027,69)"
           style="font-style:italic;font-variant:normal;font-size:8px;font-family:'Times New Roman';-inkscape-font-specification:Times-Italic;writing-mode:lr-tb;fill:#000000;fill-opacity:1;fill-rule:nonzero;stroke:none"
           id="text54"><tspan
             x="0"
             y="0"
             id="tspan50">x</tspan><tspan
             x="-43.5121"
             y="-76.5"
             id="tspan52">y</tspan></text></g><path
         d="m 363.723,1362.5 -20.278,-12.32 -0.445,0.68 13.125,33.05 c 2.52,11.52 5.059,23.04 7.598,34.55 2.527,-11.51 5.054,-23.03 7.593,-34.55 l 13.125,-33.05 -0.347,-0.68 -20.371,12.32"
         style="fill:#000000;fill-opacity:1;fill-rule:nonzero;stroke:none"
         id="path56" /><path
         d="M 363.723,57.4961 343.445,69.8203 343,69.1367 356.125,36.0898 c 2.52,-11.5234 5.059,-23.039 7.598,-34.55074 2.527,11.51174 5.054,23.02734 7.593,34.55074 l 13.125,33.0469 -0.347,0.6836 -20.371,-12.3242"
         style="fill:#000000;fill-opacity:1;fill-rule:nonzero;stroke:none"
         id="path58" /><path
         d="m 706.426,709.84 -12.594,20.105 0.684,0.461 33.214,-12.695 c 11.551,-2.367 23.106,-4.762 34.649,-7.145 -11.481,-2.679 -22.961,-5.359 -34.449,-8.05 l -32.875,-13.547 -0.692,0.344 12.063,20.527"
         style="fill:#000000;fill-opacity:1;fill-rule:nonzero;stroke:none"
         id="path60" /><path
         d="m 303.551,1313.81 -13.039,19.82 0.676,0.48 33.484,-11.96 c 11.601,-2.11 23.203,-4.24 34.797,-6.37 -11.418,-2.93 -22.832,-5.87 -34.258,-8.81 l -32.57,-14.28 -0.692,0.33 11.602,20.79"
         style="fill:#80d6f7;fill-opacity:1;fill-rule:nonzero;stroke:none"
         id="path62" /><path
         d="m 311.438,1107.91 -14.688,18.64 0.629,0.53 34.391,-9.04 c 11.738,-1.11 23.48,-2.24 35.21,-3.36 -11.121,-3.91 -22.246,-7.81 -33.375,-11.72 l -31.226,-17.02 -0.719,0.27 9.778,21.7"
         style="fill:#80d6f7;fill-opacity:1;fill-rule:nonzero;stroke:none"
         id="path64" /><path
         d="m 307.129,892.707 -18.867,14.383 0.476,0.668 35.555,-0.176 c 11.645,1.856 23.301,3.688 34.941,5.523 -9.8,-6.55 -19.593,-13.105 -29.398,-19.675 l -25.992,-24.266 -0.77,0.078 4.055,23.465"
         style="fill:#80d6f7;fill-opacity:1;fill-rule:nonzero;stroke:none"
         id="path66" /><path
         d="m 609.309,1198.69 11.445,20.79 0.73,-0.38 5.063,-35.19 c 3.547,-11.25 7.078,-22.5 10.605,-33.75 -7.922,8.73 -15.847,17.45 -23.781,26.18 l -27.832,22.14 -0.035,0.77 23.805,-0.56"
         style="fill:#80d6f7;fill-opacity:1;fill-rule:nonzero;stroke:none"
         id="path68" /><path
         d="m 514.844,1048.96 9.683,21.67 0.754,-0.32 7.973,-34.66 c 4.461,-10.9 8.914,-21.83 13.367,-32.74 -8.621,8.04 -17.246,16.07 -25.875,24.12 l -29.574,19.75 -0.098,0.76 23.77,1.42"
         style="fill:#80d6f7;fill-opacity:1;fill-rule:nonzero;stroke:none"
         id="path70" /><path
         d="m 439.469,879.746 11.445,20.785 0.731,-0.375 5.066,-35.195 c 3.543,-11.246 7.074,-22.5 10.602,-33.746 -7.922,8.726 -15.848,17.453 -23.782,26.183 l -27.832,22.137 -0.035,0.77 23.805,-0.559"
         style="fill:#80d6f7;fill-opacity:1;fill-rule:nonzero;stroke:none"
         id="path72" /><path
         d="m 95.8398,1154.5 11.4452,-20.79 0.735,0.38 5.062,35.19 c 3.543,11.25 7.074,22.5 10.606,33.75 -7.926,-8.73 -15.852,-17.46 -23.7857,-26.18 l -27.832,-22.14 -0.0351,-0.77 23.8046,0.56"
         style="fill:#80d6f7;fill-opacity:1;fill-rule:nonzero;stroke:none"
         id="path74" /><path
         d="m 180.84,991.996 11.445,-20.785 0.735,0.375 5.062,35.194 c 3.543,11.25 7.074,22.5 10.606,33.75 -7.926,-8.73 -15.852,-17.46 -23.786,-26.18 l -27.832,-22.143 -0.035,-0.766 23.805,0.555"
         style="fill:#80d6f7;fill-opacity:1;fill-rule:nonzero;stroke:none"
         id="path76" /><path
         d="m 265.113,792.617 19.422,-13.629 0.492,0.66 -10.941,33.832 c -1.762,11.661 -3.547,23.321 -5.324,34.973 -3.278,-11.324 -6.555,-22.648 -9.836,-33.98 l -15.25,-32.129 0.308,-0.703 21.129,10.976"
         style="fill:#80d6f7;fill-opacity:1;fill-rule:nonzero;stroke:none"
         id="path78" /><path
         d="m 302.668,104.418 -13.039,-19.8242 0.676,-0.4727 33.484,11.9531 c 11.602,2.1094 23.203,4.2418 34.797,6.3708 -11.418,2.938 -22.832,5.871 -34.262,8.817 l -32.566,14.277 -0.695,-0.328 11.605,-20.793"
         style="fill:#80d6f7;fill-opacity:1;fill-rule:nonzero;stroke:none"
         id="path80" /><path
         d="m 311.438,312.086 -14.688,-18.641 0.629,-0.523 34.391,9.035 c 11.738,1.109 23.48,2.242 35.21,3.363 -11.121,3.91 -22.246,7.809 -33.375,11.723 l -31.226,17.02 -0.719,-0.274 9.778,-21.703"
         style="fill:#80d6f7;fill-opacity:1;fill-rule:nonzero;stroke:none"
         id="path82" /><path
         d="m 307.129,526.406 -18.867,-14.386 0.476,-0.668 35.555,0.175 c 11.645,-1.855 23.301,-3.683 34.941,-5.519 -9.8,6.551 -19.593,13.101 -29.398,19.676 l -25.992,24.261 -0.77,-0.078 4.055,-23.461"
         style="fill:#80d6f7;fill-opacity:1;fill-rule:nonzero;stroke:none"
         id="path84" /><path
         d="m 611.969,220.422 11.445,-20.789 0.731,0.379 5.066,35.195 c 3.543,11.242 7.074,22.5 10.602,33.742 -7.922,-8.722 -15.848,-17.449 -23.782,-26.179 l -27.832,-22.141 -0.035,-0.766 23.805,0.559"
         style="fill:#80d6f7;fill-opacity:1;fill-rule:nonzero;stroke:none"
         id="path86" /><path
         d="m 516.969,370.422 11.445,-20.789 0.731,0.379 5.066,35.195 c 3.543,11.242 7.074,22.5 10.602,33.742 -7.922,-8.722 -15.848,-17.449 -23.782,-26.179 l -27.832,-22.141 -0.035,-0.766 23.805,0.559"
         style="fill:#80d6f7;fill-opacity:1;fill-rule:nonzero;stroke:none"
         id="path88" /><path
         d="m 438.586,539.371 11.441,-20.785 0.735,0.375 5.062,35.195 c 3.547,11.242 7.074,22.5 10.606,33.742 -7.922,-8.722 -15.848,-17.449 -23.785,-26.179 l -27.832,-22.137 -0.032,-0.769 23.805,0.558"
         style="fill:#80d6f7;fill-opacity:1;fill-rule:nonzero;stroke:none"
         id="path90" /><path
         d="m 95.8398,265.504 11.4452,20.785 0.735,-0.375 5.062,-35.195 c 3.543,-11.246 7.074,-22.5 10.606,-33.746 -7.926,8.726 -15.852,17.453 -23.7857,26.179 l -27.832,22.141 -0.0351,0.766 23.8046,-0.555"
         style="fill:#80d6f7;fill-opacity:1;fill-rule:nonzero;stroke:none"
         id="path92" /><path
         d="m 179.066,427.121 11.446,20.785 0.734,-0.379 5.063,-35.191 c 3.546,-11.246 7.074,-22.5 10.605,-33.746 -7.926,8.723 -15.851,17.449 -23.785,26.18 l -27.832,22.14 -0.031,0.766 23.8,-0.555"
         style="fill:#80d6f7;fill-opacity:1;fill-rule:nonzero;stroke:none"
         id="path94" /><path
         d="m 265.113,626.496 19.422,13.625 0.492,-0.656 -10.941,-33.836 c -1.762,-11.66 -3.547,-23.32 -5.324,-34.969 -3.278,11.32 -6.555,22.645 -9.836,33.981 l -15.25,32.129 0.308,0.703 21.129,-10.977"
         style="fill:#80d6f7;fill-opacity:1;fill-rule:nonzero;stroke:none"
         id="path96" /></g></g></svg>
