<?xml version="1.0" encoding="UTF-8" standalone="no"?>
<svg
   xmlns:dc="http://purl.org/dc/elements/1.1/"
   xmlns:cc="http://creativecommons.org/ns#"
   xmlns:rdf="http://www.w3.org/1999/02/22-rdf-syntax-ns#"
   xmlns:svg="http://www.w3.org/2000/svg"
   xmlns="http://www.w3.org/2000/svg"
   version="1.1"
   id="svg2"
   xml:space="preserve"
   width="222.66667"
   height="152"
   viewBox="0 0 222.66667 152"><metadata
     id="metadata8"><rdf:RDF><cc:Work
         rdf:about=""><dc:format>image/svg+xml</dc:format><dc:type
           rdf:resource="http://purl.org/dc/dcmitype/StillImage" /></cc:Work></rdf:RDF></metadata><defs
     id="defs6" /><g
     id="g10"
     transform="matrix(1.3333333,0,0,-1.3333333,0,152)"><g
       id="g12"
       transform="scale(0.1)"><path
         d="m 801.813,232.727 h 684.017 l -0.02,4.043 -0.04,4.05 -0.06,4.043 -0.08,4.043 -0.12,4.043 -0.15,4.043 -0.16,4.043 -0.2,4.043 -0.21,4.043 -0.25,4.043 -0.27,4.043 -0.29,4.031 -0.33,4.035 -0.34,4.036 -0.37,4.031 -0.41,4.023 -0.42,4.024 -0.45,4.023 -0.47,4.024 -0.51,4.011 -0.52,4.016 -0.56,4.016 -0.58,4.003 -0.6,4 -0.63,4.004 -0.64,3.996 -0.69,3.997 -0.7,3.992 -0.73,3.972 -0.76,3.989 -0.79,3.972 -0.79,3.977 -0.83,3.965 -0.86,3.965 -0.88,3.953 -0.91,3.945 -0.94,3.945 -0.96,3.946 -0.97,3.925 -1.01,3.926 -1.03,3.926 -1.06,3.918 -1.08,3.914 -1.11,3.898 -1.13,3.895 -1.16,3.895 -1.18,3.878 -1.21,3.875 -1.23,3.872 -1.25,3.855 -1.28,3.855 -1.3,3.84 -1.33,3.848 -1.35,3.828 -1.38,3.817 -1.4,3.82 -1.44,3.805 -1.44,3.792 -1.47,3.79 -1.5,3.781 -1.52,3.773 -1.55,3.758 -1.58,3.75 -1.59,3.746 -1.61,3.731 -1.64,3.726 -1.68,3.715 -1.68,3.699 -1.71,3.699 -1.75,3.68 -1.76,3.68 -1.77,3.66 -1.81,3.652 -1.83,3.645 -1.85,3.625 -1.88,3.621 -1.89,3.609 -1.92,3.598 -1.96,3.586 -1.96,3.574 -1.99,3.563 -2.01,3.55 -2.04,3.539 -2.06,3.524 -2.08,3.516 -2.1,3.5 -2.13,3.492 -2.13,3.476 -2.17,3.469 -2.2,3.445 -2.22,3.442 -2.22,3.426 -2.27,3.41 -2.26,3.398 -2.31,3.387 -2.31,3.367 -2.36,3.359 -2.35,3.344 -2.39,3.324 -2.41,3.317 -2.42,3.301 -2.45,3.289 -2.47,3.273 -2.49,3.258 -2.51,3.242 -2.53,3.227 -2.55,3.214 -2.58,3.192 -2.59,3.183 -2.61,3.168 -2.64,3.153 -2.65,3.133 -2.67,3.121 -2.69,3.105 -2.72,3.086 -2.73,3.074 -2.75,3.055 -2.77,3.043 -2.79,3.02 -2.81,3.003 -2.83,2.993 -2.84,2.972 -2.87,2.957 -2.88,2.938 -2.91,2.926 -2.92,2.902 -2.94,2.891 -2.96,2.863 -2.98,2.855 -2.99,2.832 -3.01,2.821 -3.03,2.797 -3.05,2.785 -3.06,2.761 -3.09,2.746 -3.1,2.723 -3.12,2.711 -3.14,2.684 -3.15,2.672 -3.17,2.656 -3.18,2.633 -3.21,2.613 -3.22,2.598 -3.23,2.578 -3.25,2.55 -3.28,2.54 -3.28,2.519 -3.3,2.5 -3.32,2.477 -3.33,2.461 -3.35,2.441 -3.36,2.422 -3.38,2.398 -3.4,2.383 -3.4,2.356 -3.43,2.339 -3.44,2.321 -3.45,2.3 -3.47,2.282 -3.49,2.254 -3.49,2.242 -3.51,2.215 -3.53,2.195 -3.54,2.176 -3.55,2.152 -3.56,2.137 -3.59,2.113 -3.59,2.09 -3.6,2.07 -3.63,2.043 -3.62,2.028 -3.65,2.007 -3.66,1.985 -3.67,1.961 -3.68,1.937 -3.7,1.922 -3.71,1.895 -3.72,1.875 -3.73,1.847 -3.74,1.836 -3.75,1.809 -3.77,1.781 -3.78,1.77 -3.79,1.738 -3.8,1.719 -3.8,1.699 -3.83,1.668 -3.83,1.656 -3.84,1.625 -3.86,1.606 -3.86,1.582 -3.87,1.558 -3.88,1.539 -3.89,1.512 -3.91,1.496 -3.91,1.465 -3.92,1.445 -3.93,1.422 -3.94,1.395 -3.94,1.378 -3.96,1.352 -3.97,1.328 -3.97,1.305 -3.98,1.277 -3.99,1.262 -4,1.226 -4,1.211 -4.01,1.188 -4.022,1.164 -4.028,1.141 -4.035,1.113 -4.043,1.09 -4.047,1.07 -4.058,1.043 -4.055,1.02 -4.074,0.992 -4.07,0.972 -4.083,0.95 -4.089,0.921 -4.09,0.899 -4.098,0.875 -4.101,0.848 -4.114,0.824 -4.109,0.804 -4.121,0.778 -4.125,0.754 -4.125,0.726 -4.137,0.703 -4.137,0.68 -4.14,0.656 -4.145,0.633 -4.152,0.606 -4.152,0.582 -4.157,0.554 -4.16,0.532 -4.164,0.507 -4.168,0.485 -4.168,0.453 -4.176,0.434 -4.175,0.414 -4.18,0.382 -4.18,0.36 -4.183,0.336 -4.184,0.312 -4.187,0.281 -4.188,0.258 -4.187,0.242 -4.192,0.207 -4.195,0.188 -4.196,0.16 -4.191,0.137 -4.195,0.113 -4.199,0.09 -4.196,0.059 -4.199,0.039 -4.191,0.007 0.004,-659.421"
         style="fill:#e5f7fd;fill-opacity:1;fill-rule:nonzero;stroke:none"
         id="path14" /><path
         d="m 801.813,232.727 -0.004,659.421 -4.204,-0.007 -4.191,-0.039 -4.199,-0.059 -4.195,-0.09 -4.196,-0.113 -4.199,-0.137 -4.187,-0.16 -4.196,-0.188 -4.187,-0.207 -4.196,-0.242 -4.183,-0.258 -4.192,-0.281 -4.183,-0.312 -4.18,-0.336 -4.183,-0.36 -4.176,-0.382 -4.176,-0.414 -4.176,-0.434 -4.168,-0.453 -4.172,-0.485 -4.16,-0.507 -4.164,-0.532 -4.156,-0.554 -4.149,-0.582 -4.152,-0.606 -4.144,-0.633 -4.145,-0.656 -4.137,-0.68 -4.133,-0.703 -4.128,-0.726 -4.122,-0.754 -4.121,-0.778 -4.117,-0.804 -4.105,-0.824 -4.102,-0.848 -4.101,-0.875 -4.09,-0.899 -4.09,-0.921 -4.082,-0.95 -4.07,-0.972 -4.071,-0.992 -4.058,-1.02 -4.055,-1.043 -4.055,-1.07 -4.035,-1.09 -4.035,-1.113 -4.027,-1.141 -4.024,-1.164 -4.012,-1.188 -4.003,-1.211 -3.997,-1.226 -3.988,-1.262 -3.984,-1.277 -3.973,-1.305 -3.965,-1.328 -3.953,-1.352 -3.949,-1.378 -3.941,-1.395 -3.926,-1.422 -3.922,-1.445 -3.91,-1.465 -3.906,-1.496 -3.887,-1.512 -3.887,-1.539 -3.871,-1.558 -3.863,-1.582 -3.852,-1.606 -3.844,-1.625 -3.828,-1.656 -3.824,-1.668 -3.809,-1.699 -3.8,-1.719 -3.789,-1.738 -3.778,-1.77 -3.769,-1.781 -3.75,-1.809 -3.742,-1.836 -3.735,-1.847 -3.719,-1.875 -3.707,-1.895 -3.695,-1.922 -3.684,-1.937 -3.667,-1.961 -3.661,-1.985 -3.644,-2.007 -3.633,-2.028 -3.621,-2.043 -3.609,-2.07 -3.59,-2.09 -3.582,-2.113 -3.563,-2.137 -3.555,-2.152 -3.542,-2.176 -3.524,-2.195 -3.512,-2.215 -3.496,-2.242 -3.48,-2.254 -3.465,-2.282 -3.457,-2.3 -3.441,-2.321 -3.422,-2.339 -3.411,-2.356 -3.394,-2.383 -3.379,-2.398 -3.359,-2.422 -3.352,-2.441 -3.336,-2.461 -3.312,-2.477 -3.301,-2.5 -3.285,-2.519 -3.27,-2.54 -3.25,-2.55 -3.238,-2.578 -3.219,-2.598 -3.203,-2.613 -3.187,-2.633 -3.168,-2.656 -3.157,-2.672 -3.132,-2.684 -3.118,-2.711 -3.105,-2.723 -3.078,-2.746 -3.071,-2.761 -3.046,-2.785 -3.032,-2.797 -3.011,-2.821 -2.997,-2.832 -2.976,-2.855 -2.957,-2.863 -2.945,-2.891 -2.918,-2.902 -2.907,-2.926 -2.882,-2.938 -2.868,-2.957 -2.847,-2.972 -2.825,-2.993 -2.812,-3.003 -2.789,-3.02 -2.774,-3.043 -2.75,-3.055 -2.726,-3.074 -2.715,-3.086 -2.691,-3.105 -2.676,-3.121 -2.652,-3.133 -2.629,-3.153 -2.614,-3.168 -2.593,-3.183 -2.575,-3.192 -2.55,-3.214 -2.532,-3.227 -2.507,-3.242 -2.493,-3.258 -2.468,-3.273 -2.45,-3.289 -2.425,-3.301 -2.407,-3.317 -2.382,-3.324 -2.364,-3.344 -2.343,-3.359 -2.321,-3.367 -2.304,-3.387 -2.278,-3.398 -2.254,-3.41 -2.234,-3.426 -2.215,-3.442 -2.191,-3.445 -2.168,-3.469 -2.145,-3.476 -2.125,-3.492 -2.101,-3.5 -2.082,-3.516 -2.055,-3.524 -2.035,-3.539 -2.012,-3.55 -1.992,-3.563 -1.969,-3.574 -1.941,-3.586 -1.922,-3.598 -1.899,-3.609 -1.875,-3.621 -1.855,-3.625 -1.824,-3.645 -1.809,-3.652 -1.781,-3.66 -1.766,-3.68 -1.73,-3.68 -1.715,-3.699 -1.692,-3.699 -1.664,-3.715 -1.64,-3.726 -1.621,-3.731 -1.59,-3.746 -1.574,-3.75 -1.547,-3.758 -1.52,-3.773 -1.5,-3.781 -1.472,-3.79 -1.45,-3.792 -1.425,-3.805 -1.403,-3.82 -1.379,-3.817 -1.355,-3.828 -1.328,-3.848 -1.305,-3.84 -1.277,-3.855 -1.254,-3.855 -1.235,-3.872 -1.203,-3.875 -1.183,-3.878 -1.157,-3.895 -1.132,-3.895 -1.106,-3.898 -1.082,-3.914 -1.058,-3.918 -1.032,-3.926 -1.008,-3.926 -0.98,-3.925 -0.957,-3.946 -0.934,-3.945 -0.906,-3.945 -0.883,-3.953 -0.855,-3.965 -0.828,-3.965 -0.809,-3.977 -0.785,-3.972 -0.75,-3.989 -0.734,-3.972 -0.704,-3.992 -0.679,-3.997 -0.653,-3.996 -0.628,-4.004 -0.61,-4 -0.574,-4.003 -0.551,-4.016 -0.527,-4.016 -0.5,-4.011 -0.477,-4.024 -0.449,-4.023 -0.426,-4.024 -0.394,-4.023 -0.375,-4.031 -0.348,-4.036 -0.324,-4.035 -0.293,-4.031 -0.274,-4.043 -0.242,-4.043 -0.219,-4.043 -0.191,-4.043 -0.168,-4.043 -0.141,-4.043 -0.117,-4.043 -0.09,-4.043 -0.066,-4.043 -0.039,-4.05 -0.012,-4.043 h 684.032"
         style="fill:#e5f7fd;fill-opacity:1;fill-rule:nonzero;stroke:none"
         id="path16" /><path
         d="m 596.797,232.727 v 0.769 l 0.016,0.391 0.011,0.39 0.031,0.774 0.047,0.769 0.063,0.782 0.086,0.781 0.179,1.543 0.254,1.543 0.297,1.543 0.774,3.086 0.988,3.054 1.187,3.059 3.059,6.035 3.891,5.938 4.726,5.8 11.852,11.114 14.914,10.312 17.68,9.317 20.156,8.171 22.305,6.875 11.82,2.934 12.226,2.547 12.555,2.187 12.836,1.797 13.074,1.414 6.59,0.559 6.649,0.449 6.667,0.352 3.336,0.144 3.34,0.11 3.356,0.089 1.672,0.04 1.683,0.019 1.668,0.027 0.836,0.02 h 0.836 0.852 l 0.832,0.012 h 0.836 0.836 0.847 0.836 l 0.836,-0.012 h 0.836 l 1.684,-0.02 1.668,-0.027 1.683,-0.019"
         style="fill:none;stroke:#cceffc;stroke-width:5.963;stroke-linecap:round;stroke-linejoin:round;stroke-miterlimit:4;stroke-dasharray:none;stroke-opacity:1"
         id="path18" /><path
         d="m 810.203,327.395 1.672,-0.04 3.355,-0.089 3.34,-0.11 3.34,-0.144 6.664,-0.352 6.645,-0.449 6.594,-0.559 13.074,-1.414 12.84,-1.797 12.55,-2.187 24.047,-5.481 22.309,-6.875 20.156,-8.171 17.68,-9.317 14.906,-10.312 6.324,-5.457 5.531,-5.657 4.727,-5.8 3.887,-5.938 3.066,-6.035 1.19,-3.059 0.98,-3.054 0.78,-3.086 0.29,-1.543 0.26,-1.543 0.18,-1.543 0.09,-0.781 0.05,-0.782 0.05,-0.769 0.01,-0.383 0.02,-0.391 0.01,-0.39 0.02,-0.391 v -0.383 -0.386"
         style="fill:none;stroke:#cceffc;stroke-width:5.963;stroke-linecap:round;stroke-linejoin:round;stroke-miterlimit:4;stroke-dasharray:none;stroke-opacity:1"
         id="path20" /><path
         d="m 521.254,232.727 0.016,0.878 v 0.868 l 0.015,0.879 0.016,0.878 0.043,1.75 0.074,1.739 0.074,1.746 0.106,1.738 0.265,3.485 0.328,3.5 0.422,3.484 1.043,6.953 1.356,6.914 1.636,6.863 4.176,13.618 5.324,13.386 6.469,13.098 16.235,25.059 20.382,23.25 24.2,20.996 27.597,18.425 30.5,15.539 16.196,6.59 16.726,5.774 17.188,4.922 17.562,4.05 17.875,3.176 9.035,1.25 9.082,1.028 9.125,0.808 4.575,0.313 4.578,0.254 4.578,0.207 2.297,0.078 2.293,0.054 2.297,0.051 1.148,0.027 1.148,0.012 1.149,0.02 h 1.148 l 1.149,0.008 h 1.133 1.148 l 1.144,-0.008 h 1.149 l 1.148,-0.02 2.297,-0.039 2.297,-0.051 2.297,-0.054"
         style="fill:none;stroke:#99def9;stroke-width:5.963;stroke-linecap:round;stroke-linejoin:round;stroke-miterlimit:4;stroke-dasharray:none;stroke-opacity:1"
         id="path22" /><path
         d="m 813.293,446.223 2.293,-0.078 4.582,-0.207 4.574,-0.254 4.574,-0.313 9.125,-0.808 9.079,-1.028 9.039,-1.25 17.875,-3.176 17.562,-4.05 17.188,-4.922 32.921,-12.364 30.5,-15.539 27.605,-18.425 24.19,-20.996 20.38,-23.25 8.67,-12.336 7.57,-12.723 6.47,-13.098 5.32,-13.386 4.17,-13.618 1.65,-6.863 1.35,-6.914 1.04,-6.953 0.43,-3.484 0.32,-3.5 0.27,-3.485 0.1,-1.738 0.08,-1.746 0.08,-1.739 0.02,-0.878 0.02,-0.872 0.02,-0.878 0.01,-0.879 v -0.868 l 0.01,-0.878"
         style="fill:none;stroke:#99def9;stroke-width:5.963;stroke-linecap:round;stroke-linejoin:round;stroke-miterlimit:4;stroke-dasharray:none;stroke-opacity:1"
         id="path24" /><path
         d="m 374.117,232.727 v 1.582 l 0.016,1.582 0.012,1.589 0.015,1.583 0.078,3.164 0.102,3.171 0.133,3.165 0.152,3.156 0.402,6.328 0.52,6.308 0.629,6.309 1.594,12.59 2.058,12.539 2.508,12.461 6.348,24.676 8.125,24.238 9.855,23.711 24.746,45.41 31.09,42.117 36.879,38.063 42.062,33.394 46.528,28.137 24.676,11.941 25.496,10.45 26.195,8.929 26.793,7.352 27.25,5.754 13.766,2.265 13.847,1.868 13.91,1.445 6.961,0.566 6.981,0.461 6.992,0.371 3.484,0.133 3.508,0.121 3.485,0.09 1.761,0.027 1.746,0.032 1.743,0.031 1.757,0.019 1.746,0.012 h 1.747 1.757 l 1.743,-0.012 1.761,-0.019 1.742,-0.031 3.508,-0.059 3.489,-0.09 3.503,-0.121"
         style="fill:none;stroke:#66cef5;stroke-width:5.963;stroke-linecap:round;stroke-linejoin:round;stroke-miterlimit:4;stroke-dasharray:none;stroke-opacity:1"
         id="path26" /><path
         d="m 819.316,619.535 3.489,-0.133 6.992,-0.371 6.976,-0.461 6.961,-0.566 13.911,-1.445 13.851,-1.868 13.758,-2.265 27.258,-5.754 26.789,-7.352 26.199,-8.929 50.16,-22.391 46.54,-28.137 42.05,-33.394 36.89,-38.063 31.09,-42.117 13.19,-22.332 11.55,-23.078 9.85,-23.711 8.13,-24.238 6.35,-24.676 2.51,-12.461 2.06,-12.539 1.59,-12.59 0.63,-6.309 0.52,-6.308 0.41,-6.328 0.14,-3.156 0.14,-3.165 0.1,-3.171 0.03,-1.582 0.04,-1.582 0.02,-1.583 0.01,-1.589 0.02,-1.582 v -1.582"
         style="fill:none;stroke:#66cef5;stroke-width:5.963;stroke-linecap:round;stroke-linejoin:round;stroke-miterlimit:4;stroke-dasharray:none;stroke-opacity:1"
         id="path28" /><path
         d="m 117.789,232.727 v 2.703 l 0.027,2.695 0.032,2.695 0.027,2.703 0.125,5.395 0.16,5.379 0.195,5.398 0.254,5.383 0.641,10.781 0.832,10.762 1.004,10.734 2.562,21.434 3.282,21.356 4.008,21.234 10.152,42.019 13.004,41.29 15.754,40.386 39.586,77.364 49.707,71.726 58.996,64.84 67.269,56.875 74.395,47.922 39.476,20.347 40.778,17.805 41.894,15.203 42.832,12.524 43.594,9.797 22.02,3.863 22.14,3.176 22.231,2.461 11.152,0.964 11.168,0.789 11.168,0.625 5.59,0.243 5.59,0.195 5.605,0.16 2.789,0.063 2.801,0.047 2.789,0.042 2.805,0.028 2.8,0.015 h 2.79 2.8 l 2.805,-0.015 2.801,-0.028 2.789,-0.042 5.59,-0.11 5.605,-0.16 5.594,-0.195"
         style="fill:none;stroke:#33bdf2;stroke-width:5.963;stroke-linecap:round;stroke-linejoin:round;stroke-miterlimit:4;stroke-dasharray:none;stroke-opacity:1"
         id="path30" /><path
         d="m 829.797,891.598 5.59,-0.243 11.168,-0.625 11.164,-0.789 11.152,-0.964 22.234,-2.461 22.137,-3.176 22.016,-3.863 43.594,-9.797 42.838,-12.524 41.9,-15.203 80.25,-38.152 74.39,-47.922 67.27,-56.875 59,-64.84 49.7,-71.726 21.09,-38.063 18.48,-39.301 15.78,-40.386 13,-41.29 10.15,-42.019 4.01,-21.234 3.28,-21.356 2.57,-21.434 0.99,-10.734 0.84,-10.762 0.64,-10.781 0.25,-5.383 0.2,-5.398 0.16,-5.379 0.05,-2.695 0.07,-2.7 0.03,-2.703 0.03,-2.695 0.03,-2.695 v -2.703"
         style="fill:none;stroke:#33bdf2;stroke-width:5.963;stroke-linecap:round;stroke-linejoin:round;stroke-miterlimit:4;stroke-dasharray:none;stroke-opacity:1"
         id="path32" /><path
         d="m 1485.85,232.727 13.3,0.027 -1.01,4.941 -2.83,4.18 -4.25,2.734 -4.95,0.871 -4.93,-1.125 -4.09,-2.937 -2.64,-4.309 -0.75,-4.988 12.15,0.606"
         style="fill:#ffffff;fill-opacity:1;fill-rule:nonzero;stroke:none"
         id="path34" /><path
         d="m 1485.85,232.727 -12.15,-0.606 1.24,-4.894 3.05,-4.024 4.37,-2.519 5.02,-0.625 4.85,1.367 3.94,3.144 2.42,4.434 0.49,5.019 -13.23,-1.296"
         style="fill:#ffffff;fill-opacity:1;fill-rule:nonzero;stroke:none"
         id="path36" /><path
         d="m 117.789,232.727 12.746,0.027 -1,4.941 -2.84,4.18 -4.238,2.734 -4.973,0.871 -4.918,-1.125 -4.093,-2.937 -2.633,-4.309 -0.75,-4.988 12.699,0.606"
         style="fill:#ffffff;fill-opacity:1;fill-rule:nonzero;stroke:none"
         id="path38" /><path
         d="m 117.789,232.727 -12.699,-0.606 1.242,-4.894 3.047,-4.024 4.371,-2.519 5.012,-0.625 4.855,1.367 3.942,3.144 2.414,4.434 0.5,5.019 -12.684,-1.296"
         style="fill:#ffffff;fill-opacity:1;fill-rule:nonzero;stroke:none"
         id="path40" /><path
         d="m 983.645,232.727 13.093,0.027 -1,4.941 -2.843,4.18 -4.239,2.734 -4.968,0.871 -4.922,-1.125 -4.098,-2.937 -2.625,-4.309 -0.754,-4.988 12.356,0.606"
         style="fill:#ffffff;fill-opacity:1;fill-rule:nonzero;stroke:none"
         id="path42" /><path
         d="m 983.645,232.727 -12.356,-0.606 1.246,-4.894 3.047,-4.024 4.367,-2.519 5.008,-0.625 4.856,1.367 3.949,3.144 2.41,4.434 0.5,5.019 -13.027,-1.296"
         style="fill:#ffffff;fill-opacity:1;fill-rule:nonzero;stroke:none"
         id="path44" /><path
         d="m 619.996,232.727 12.953,0.027 -1,4.941 -2.847,4.18 -4.239,2.734 -4.968,0.871 -4.918,-1.125 -4.098,-2.937 -2.633,-4.309 -0.746,-4.988 12.496,0.606"
         style="fill:#ffffff;fill-opacity:1;fill-rule:nonzero;stroke:none"
         id="path46" /><path
         d="m 619.996,232.727 -12.496,-0.606 1.246,-4.894 3.047,-4.024 4.367,-2.519 5.008,-0.625 4.855,1.367 3.95,3.144 2.41,4.434 0.5,5.019 -12.887,-1.296"
         style="fill:#ffffff;fill-opacity:1;fill-rule:nonzero;stroke:none"
         id="path48" /><path
         d="m 1025.49,220 v 25.461"
         style="fill:none;stroke:#000000;stroke-width:11.927;stroke-linecap:round;stroke-linejoin:round;stroke-miterlimit:4;stroke-dasharray:none;stroke-opacity:1"
         id="path50" /><path
         d="m 1067.34,220 v 25.461"
         style="fill:none;stroke:#000000;stroke-width:11.927;stroke-linecap:round;stroke-linejoin:round;stroke-miterlimit:4;stroke-dasharray:none;stroke-opacity:1"
         id="path52" /><path
         d="m 1109.19,220 v 25.461"
         style="fill:none;stroke:#000000;stroke-width:11.927;stroke-linecap:round;stroke-linejoin:round;stroke-miterlimit:4;stroke-dasharray:none;stroke-opacity:1"
         id="path54" /><path
         d="m 1151.04,220 v 25.461"
         style="fill:none;stroke:#000000;stroke-width:11.927;stroke-linecap:round;stroke-linejoin:round;stroke-miterlimit:4;stroke-dasharray:none;stroke-opacity:1"
         id="path56" /><path
         d="m 1192.89,220 v 25.461"
         style="fill:none;stroke:#000000;stroke-width:11.927;stroke-linecap:round;stroke-linejoin:round;stroke-miterlimit:4;stroke-dasharray:none;stroke-opacity:1"
         id="path58" /><path
         d="m 1234.73,220 v 25.461"
         style="fill:none;stroke:#000000;stroke-width:11.927;stroke-linecap:round;stroke-linejoin:round;stroke-miterlimit:4;stroke-dasharray:none;stroke-opacity:1"
         id="path60" /><path
         d="m 1276.59,220 v 25.461"
         style="fill:none;stroke:#000000;stroke-width:11.927;stroke-linecap:round;stroke-linejoin:round;stroke-miterlimit:4;stroke-dasharray:none;stroke-opacity:1"
         id="path62" /><path
         d="m 1318.44,220 v 25.461"
         style="fill:none;stroke:#000000;stroke-width:11.927;stroke-linecap:round;stroke-linejoin:round;stroke-miterlimit:4;stroke-dasharray:none;stroke-opacity:1"
         id="path64" /><path
         d="m 1360.3,220 v 25.461"
         style="fill:none;stroke:#000000;stroke-width:11.927;stroke-linecap:round;stroke-linejoin:round;stroke-miterlimit:4;stroke-dasharray:none;stroke-opacity:1"
         id="path66" /><path
         d="m 1402.15,220 v 25.461"
         style="fill:none;stroke:#000000;stroke-width:11.927;stroke-linecap:round;stroke-linejoin:round;stroke-miterlimit:4;stroke-dasharray:none;stroke-opacity:1"
         id="path68" /><path
         d="m 1444,220 v 25.461"
         style="fill:none;stroke:#000000;stroke-width:11.927;stroke-linecap:round;stroke-linejoin:round;stroke-miterlimit:4;stroke-dasharray:none;stroke-opacity:1"
         id="path70" /><path
         d="m 578.145,220 v 25.461"
         style="fill:none;stroke:#000000;stroke-width:11.927;stroke-linecap:round;stroke-linejoin:round;stroke-miterlimit:4;stroke-dasharray:none;stroke-opacity:1"
         id="path72" /><path
         d="m 536.301,220 v 25.461"
         style="fill:none;stroke:#000000;stroke-width:11.927;stroke-linecap:round;stroke-linejoin:round;stroke-miterlimit:4;stroke-dasharray:none;stroke-opacity:1"
         id="path74" /><path
         d="m 494.449,220 v 25.461"
         style="fill:none;stroke:#000000;stroke-width:11.927;stroke-linecap:round;stroke-linejoin:round;stroke-miterlimit:4;stroke-dasharray:none;stroke-opacity:1"
         id="path76" /><path
         d="m 452.598,220 v 25.461"
         style="fill:none;stroke:#000000;stroke-width:11.927;stroke-linecap:round;stroke-linejoin:round;stroke-miterlimit:4;stroke-dasharray:none;stroke-opacity:1"
         id="path78" /><path
         d="m 410.746,220 v 25.461"
         style="fill:none;stroke:#000000;stroke-width:11.927;stroke-linecap:round;stroke-linejoin:round;stroke-miterlimit:4;stroke-dasharray:none;stroke-opacity:1"
         id="path80" /><path
         d="m 368.895,220 v 25.461"
         style="fill:none;stroke:#000000;stroke-width:11.927;stroke-linecap:round;stroke-linejoin:round;stroke-miterlimit:4;stroke-dasharray:none;stroke-opacity:1"
         id="path82" /><path
         d="m 327.051,220 v 25.461"
         style="fill:none;stroke:#000000;stroke-width:11.927;stroke-linecap:round;stroke-linejoin:round;stroke-miterlimit:4;stroke-dasharray:none;stroke-opacity:1"
         id="path84" /><path
         d="m 285.188,220 v 25.461"
         style="fill:none;stroke:#000000;stroke-width:11.927;stroke-linecap:round;stroke-linejoin:round;stroke-miterlimit:4;stroke-dasharray:none;stroke-opacity:1"
         id="path86" /><path
         d="m 243.336,220 v 25.461"
         style="fill:none;stroke:#000000;stroke-width:11.927;stroke-linecap:round;stroke-linejoin:round;stroke-miterlimit:4;stroke-dasharray:none;stroke-opacity:1"
         id="path88" /><path
         d="m 201.488,220 v 25.461"
         style="fill:none;stroke:#000000;stroke-width:11.927;stroke-linecap:round;stroke-linejoin:round;stroke-miterlimit:4;stroke-dasharray:none;stroke-opacity:1"
         id="path90" /><path
         d="m 159.641,220 v 25.461"
         style="fill:none;stroke:#000000;stroke-width:11.927;stroke-linecap:round;stroke-linejoin:round;stroke-miterlimit:4;stroke-dasharray:none;stroke-opacity:1"
         id="path92" /><path
         d="M 632.73,232.727 H 970.906"
         style="fill:none;stroke:#000000;stroke-width:7.5;stroke-linecap:round;stroke-linejoin:round;stroke-miterlimit:4;stroke-dasharray:none;stroke-opacity:1"
         id="path94" /><path
         d="M 801.813,220 V 990"
         style="fill:none;stroke:#000000;stroke-width:7.5;stroke-linecap:round;stroke-linejoin:round;stroke-miterlimit:4;stroke-dasharray:none;stroke-opacity:1"
         id="path96" /><path
         d="m 801.813,984.262 -20.27,-12.321 -0.457,0.692 13.129,33.047 c 2.527,11.51 5.062,23.03 7.598,34.54 2.535,-11.51 5.062,-23.03 7.597,-34.54 l 13.129,-33.047 -0.348,-0.692 -20.378,12.321"
         style="fill:#000000;fill-opacity:1;fill-rule:nonzero;stroke:none"
         id="path98" /><path
         d="m 1498.57,232.727 h 66.88"
         style="fill:none;stroke:#000000;stroke-width:7.5;stroke-linecap:round;stroke-linejoin:round;stroke-miterlimit:4;stroke-dasharray:none;stroke-opacity:1"
         id="path100" /><path
         d="m 1559.71,232.727 -12.32,20.265 0.69,0.461 33.05,-13.133 c 11.51,-2.527 23.03,-5.062 34.54,-7.593 -11.51,-2.536 -23.03,-5.067 -34.54,-7.598 l -33.05,-13.133 -0.69,0.348 12.32,20.383"
         style="fill:#000000;fill-opacity:1;fill-rule:nonzero;stroke:none"
         id="path102" /><path
         d="m 105.055,232.727 v 0"
         style="fill:none;stroke:#000000;stroke-width:5.963;stroke-linecap:round;stroke-linejoin:round;stroke-miterlimit:4;stroke-dasharray:none;stroke-opacity:1"
         id="path104" /><path
         d="M 60.2891,232.727 H 105.055"
         style="fill:none;stroke:#000000;stroke-width:7.5;stroke-linecap:round;stroke-linejoin:round;stroke-miterlimit:4;stroke-dasharray:none;stroke-opacity:1"
         id="path106" /><path
         d="m 60.2891,232.727 12.3164,-20.266 -0.6875,-0.457 -33.0469,13.125 c -11.5117,2.527 -23.0273,5.059 -34.53907,7.598 11.51177,2.527 23.02737,5.066 34.53907,7.593 l 33.0469,13.125 0.6875,-0.34 -12.3164,-20.378"
         style="fill:#000000;fill-opacity:1;fill-rule:nonzero;stroke:none"
         id="path108" /><g
         id="g110"
         transform="scale(10)"><text
           transform="matrix(1,0,0,-1,54.0211,91.5836)"
           style="font-style:italic;font-variant:normal;font-size:8px;font-family:'Times New Roman';-inkscape-font-specification:Times-Italic;writing-mode:lr-tb;fill:#000000;fill-opacity:1;fill-rule:nonzero;stroke:none"
           id="text114"><tspan
             x="0"
             y="0"
             id="tspan112">T</tspan></text><text
           transform="matrix(1,0,0,-1,62.35391,91.750006)"
           style="font-variant:normal;font-weight:normal;font-size:8px;font-family:'Times New Roman';-inkscape-font-specification:Times-Roman;writing-mode:lr-tb;fill:#000000;fill-opacity:1;fill-rule:nonzero;stroke:none"
           id="text118"><tspan
             x="0 4.5120001 6.5120001 10.512"
             y="0"
             id="tspan116">= 80</tspan></text><text
           transform="matrix(1,0,0,-1,70.0043,12.835206)"
           style="font-style:italic;font-variant:normal;font-size:8px;font-family:'Times New Roman';-inkscape-font-specification:Times-Italic;writing-mode:lr-tb;fill:#000000;fill-opacity:1;fill-rule:nonzero;stroke:none"
           id="text122"><tspan
             x="0"
             y="0"
             id="tspan120">T</tspan></text><text
           transform="matrix(1,0,0,-1,78.3375,13.002003)"
           style="font-variant:normal;font-weight:normal;font-size:8px;font-family:'Times New Roman';-inkscape-font-specification:Times-Roman;writing-mode:lr-tb;fill:#000000;fill-opacity:1;fill-rule:nonzero;stroke:none"
           id="text126"><tspan
             x="0 4.5120001 6.5120001 10.512"
             y="0"
             id="tspan124">= 40</tspan></text><text
           transform="matrix(1,0,0,-1,54.8125,10.896533)"
           style="font-variant:normal;font-weight:normal;font-size:8px;font-family:Symbol;-inkscape-font-specification:Symbol;writing-mode:lr-tb;fill:#000000;fill-opacity:1;fill-rule:nonzero;stroke:none"
           id="text130"><tspan
             x="0"
             y="0"
             id="tspan128">−</tspan></text><text
           transform="matrix(1,0,0,-1,59.20469,10.896533)"
           style="font-variant:normal;font-weight:normal;font-size:8px;font-family:'Times New Roman';-inkscape-font-specification:Times-Roman;writing-mode:lr-tb;fill:#000000;fill-opacity:1;fill-rule:nonzero;stroke:none"
           id="text136"><tspan
             x="0"
             y="0"
             id="tspan132">1</tspan><tspan
             x="40.2328"
             y="-0.1875"
             id="tspan134">1</tspan></text><text
           transform="matrix(1,0,0,-1,19.37499,13.375053)"
           style="font-variant:normal;font-weight:normal;font-size:8px;font-family:Symbol;-inkscape-font-specification:SymbolObliquePlain;writing-mode:lr-tb;fill:#000000;fill-opacity:1;fill-rule:nonzero;stroke:none"
           id="text142"><tspan
             x="0 3.9519999"
             y="0"
             id="tspan138">∂</tspan><tspan
             x="0 3.9519999"
             y="10"
             id="tspan140">∂</tspan></text><text
           transform="matrix(1,0,0,-1,24.70858,13.125053)"
           style="font-style:italic;font-variant:normal;font-size:8px;font-family:'Times New Roman';-inkscape-font-specification:Times-Italic;writing-mode:lr-tb;fill:#000000;fill-opacity:1;fill-rule:nonzero;stroke:none"
           id="text148"><tspan
             x="0"
             y="0"
             id="tspan144">T</tspan><tspan
             x="0.20781299"
             y="9.6464796"
             id="tspan146">n</tspan></text><text
           transform="matrix(1,0,0,-1,33.374983,8.041073)"
           style="font-variant:normal;font-weight:normal;font-size:8px;font-family:'Times New Roman';-inkscape-font-specification:Times-Roman;writing-mode:lr-tb;fill:#000000;fill-opacity:1;fill-rule:nonzero;stroke:none"
           id="text152"><tspan
             x="0 4.5120001 6.5120001"
             y="0"
             id="tspan150">= 0</tspan></text><text
           transform="matrix(1,0,0,-1,116.02108,13.291073)"
           style="font-variant:normal;font-weight:normal;font-size:8px;font-family:Symbol;-inkscape-font-specification:SymbolObliquePlain;writing-mode:lr-tb;fill:#000000;fill-opacity:1;fill-rule:nonzero;stroke:none"
           id="text158"><tspan
             x="0 3.9519999"
             y="0"
             id="tspan154">∂</tspan><tspan
             x="0 3.9519999"
             y="10"
             id="tspan156">∂</tspan></text><text
           transform="matrix(1,0,0,-1,121.35389,13.041073)"
           style="font-style:italic;font-variant:normal;font-size:8px;font-family:'Times New Roman';-inkscape-font-specification:Times-Italic;writing-mode:lr-tb;fill:#000000;fill-opacity:1;fill-rule:nonzero;stroke:none"
           id="text164"><tspan
             x="0"
             y="0"
             id="tspan160">T</tspan><tspan
             x="0.20859399"
             y="9.6445303"
             id="tspan162">n</tspan></text><text
           transform="matrix(1,0,0,-1,130.02108,7.959043)"
           style="font-variant:normal;font-weight:normal;font-size:8px;font-family:'Times New Roman';-inkscape-font-specification:Times-Roman;writing-mode:lr-tb;fill:#000000;fill-opacity:1;fill-rule:nonzero;stroke:none"
           id="text174"><tspan
             x="0 4.5120001 6.5120001"
             y="0"
             id="tspan166">= 0</tspan><tspan
             x="-61.402 -57.402"
             y="-56.0742"
             id="tspan168">70</tspan><tspan
             x="-61.479733 -57.479733"
             y="-26.769501"
             id="tspan170">50</tspan><tspan
             x="-61.375046 -57.375046"
             y="-39.187099"
             id="tspan172">60</tspan></text><text
           transform="matrix(1,0,0,-1,162.49993,21.500043)"
           style="font-style:italic;font-variant:normal;font-size:8px;font-family:'Times New Roman';-inkscape-font-specification:Times-Italic;writing-mode:lr-tb;fill:#000000;fill-opacity:1;fill-rule:nonzero;stroke:none"
           id="text180"><tspan
             x="0"
             y="0"
             id="tspan176">x</tspan><tspan
             x="-83.5"
             y="-85"
             id="tspan178">y</tspan></text></g><path
         d="m 1000.9,231.898 -0.33,3.614 -1.015,3.465 -1.629,3.191 -2.199,2.777 -2.668,2.266 -3.043,1.66 -3.293,0.977 -3.407,0.273 -3.39,-0.453 -3.238,-1.156 -2.958,-1.813 -2.562,-2.398 -2.066,-2.895 -1.481,-3.277 -0.844,-3.516 -0.172,-3.629"
         style="fill:#000000;fill-opacity:1;fill-rule:nonzero;stroke:none"
         id="path182" /><path
         d="m 966.605,232.383 0.516,-3.379 1.164,-3.211 1.789,-2.918 2.321,-2.504 2.777,-1.992 3.113,-1.406 3.332,-0.758 3.418,-0.086 3.363,0.594 3.18,1.25 2.871,1.851 2.446,2.395 1.921,2.82 1.324,3.149 0.68,3.351 v 3.41"
         style="fill:#000000;fill-opacity:1;fill-rule:nonzero;stroke:none"
         id="path184" /><path
         d="m 1502.15,231.07 -0.34,3.614 -1.01,3.461 -1.63,3.195 -2.2,2.777 -2.67,2.266 -3.04,1.66 -3.29,0.977 -3.41,0.273 -3.39,-0.453 -3.24,-1.16 -2.95,-1.809 -2.57,-2.398 -2.06,-2.899 -1.48,-3.273 -0.85,-3.516 -0.17,-3.629"
         style="fill:#000000;fill-opacity:1;fill-rule:nonzero;stroke:none"
         id="path186" /><path
         d="m 1467.85,231.555 0.51,-3.379 1.17,-3.215 1.79,-2.914 2.32,-2.504 2.78,-1.992 3.11,-1.406 3.33,-0.758 3.42,-0.09 3.36,0.598 3.18,1.25 2.87,1.851 2.45,2.391 1.92,2.824 1.33,3.148 0.68,3.348 v 3.414"
         style="fill:#000000;fill-opacity:1;fill-rule:nonzero;stroke:none"
         id="path188" /><path
         d="m 188.473,110.398 h 88.328"
         style="fill:#ffffff;fill-opacity:1;fill-rule:nonzero;stroke:none"
         id="path190" /><path
         d="m 188.473,110.398 h 88.328"
         style="fill:none;stroke:#000000;stroke-width:2.5;stroke-linecap:butt;stroke-linejoin:miter;stroke-miterlimit:4;stroke-dasharray:none;stroke-opacity:1"
         id="path192" /><path
         d="m 1004.4,234.438 c 0,-9.891 -8.416,-17.911 -18.802,-17.911 -10.387,0 -18.809,8.02 -18.809,17.911 0,9.894 8.422,17.91 18.809,17.91 10.386,0 18.802,-8.016 18.802,-17.91"
         style="fill:#ffffff;fill-opacity:1;fill-rule:nonzero;stroke:none"
         id="path194" /><path
         d="m 1004.4,234.438 c 0,-9.891 -8.416,-17.911 -18.802,-17.911 -10.387,0 -18.809,8.02 -18.809,17.911 0,9.894 8.422,17.91 18.809,17.91 10.386,0 18.802,-8.016 18.802,-17.91 z"
         style="fill:none;stroke:#000000;stroke-width:9;stroke-linecap:butt;stroke-linejoin:miter;stroke-miterlimit:4;stroke-dasharray:none;stroke-opacity:1"
         id="path196" /><path
         d="m 1163.47,110.398 h 88.33"
         style="fill:#ffffff;fill-opacity:1;fill-rule:nonzero;stroke:none"
         id="path198" /><path
         d="m 1163.47,110.398 h 88.33"
         style="fill:none;stroke:#000000;stroke-width:2.5;stroke-linecap:butt;stroke-linejoin:miter;stroke-miterlimit:4;stroke-dasharray:none;stroke-opacity:1"
         id="path200" /><path
         d="m 1504.4,231.938 c 0,-9.891 -8.42,-17.911 -18.8,-17.911 -10.39,0 -18.81,8.02 -18.81,17.911 0,9.894 8.42,17.91 18.81,17.91 10.38,0 18.8,-8.016 18.8,-17.91"
         style="fill:#ffffff;fill-opacity:1;fill-rule:nonzero;stroke:none"
         id="path202" /><path
         d="m 1504.4,231.938 c 0,-9.891 -8.42,-17.911 -18.8,-17.911 -10.39,0 -18.81,8.02 -18.81,17.911 0,9.894 8.42,17.91 18.81,17.91 10.38,0 18.8,-8.016 18.8,-17.91 z"
         style="fill:none;stroke:#000000;stroke-width:9;stroke-linecap:butt;stroke-linejoin:miter;stroke-miterlimit:4;stroke-dasharray:none;stroke-opacity:1"
         id="path204" /><path
         d="m 638.809,233.75 c 0,-9.895 -8.418,-17.91 -18.809,-17.91 -10.387,0 -18.809,8.015 -18.809,17.91 0,9.895 8.422,17.91 18.809,17.91 10.391,0 18.809,-8.015 18.809,-17.91"
         style="fill:#ffffff;fill-opacity:1;fill-rule:nonzero;stroke:none"
         id="path206" /><path
         d="m 638.809,233.75 c 0,-9.895 -8.418,-17.91 -18.809,-17.91 -10.387,0 -18.809,8.015 -18.809,17.91 0,9.895 8.422,17.91 18.809,17.91 10.391,0 18.809,-8.015 18.809,-17.91 z"
         style="fill:none;stroke:#000000;stroke-width:9;stroke-linecap:butt;stroke-linejoin:miter;stroke-miterlimit:4;stroke-dasharray:none;stroke-opacity:1"
         id="path208" /><path
         d="m 136.309,236.25 c 0,-9.895 -8.418,-17.91 -18.809,-17.91 -10.387,0 -18.8086,8.015 -18.8086,17.91 0,9.895 8.4216,17.91 18.8086,17.91 10.391,0 18.809,-8.015 18.809,-17.91"
         style="fill:#ffffff;fill-opacity:1;fill-rule:nonzero;stroke:none"
         id="path210" /><path
         d="m 136.309,236.25 c 0,-9.895 -8.418,-17.91 -18.809,-17.91 -10.387,0 -18.8086,8.015 -18.8086,17.91 0,9.895 8.4216,17.91 18.8086,17.91 10.391,0 18.809,-8.015 18.809,-17.91 z"
         style="fill:none;stroke:#000000;stroke-width:9;stroke-linecap:butt;stroke-linejoin:miter;stroke-miterlimit:4;stroke-dasharray:none;stroke-opacity:1"
         id="path212" /></g></g></svg>
