<?xml version="1.0" encoding="UTF-8" standalone="no"?>
<svg
   xmlns:dc="http://purl.org/dc/elements/1.1/"
   xmlns:cc="http://creativecommons.org/ns#"
   xmlns:rdf="http://www.w3.org/1999/02/22-rdf-syntax-ns#"
   xmlns:svg="http://www.w3.org/2000/svg"
   xmlns="http://www.w3.org/2000/svg"
   version="1.1"
   id="svg2"
   xml:space="preserve"
   width="340"
   height="190.66667"
   viewBox="0 0 340 190.66667"><metadata
     id="metadata8"><rdf:RDF><cc:Work
         rdf:about=""><dc:format>image/svg+xml</dc:format><dc:type
           rdf:resource="http://purl.org/dc/dcmitype/StillImage" /></cc:Work></rdf:RDF></metadata><defs
     id="defs6" /><g
     id="g10"
     transform="matrix(1.3333333,0,0,-1.3333333,0,190.66667)"><g
       id="g12"
       transform="scale(0.1)"><path
         d="m 2264.52,145 c 0,571.012 -462.9,1033.91 -1033.91,1033.91 C 659.594,1178.91 196.695,716.012 196.695,145 l -1.699,-1.602 H 260 l 5,1.602 c 0,53.563 35.098,98.93 83.551,114.359 11.492,3.664 23.738,5.641 36.449,5.641 66.273,0 120,-53.727 120,-120 v -1.602 H 640 V 145 c 0,66.273 53.727,120 120,120 66.273,0 120,-53.727 120,-120 l -5.004,-1.602 H 1420 l 5,1.602 c 0,66.273 53.73,120 120,120 66.27,0 120,-53.727 120,-120 l -5,-1.602 h 260 V 145 c 0,66.273 53.73,120 120,120 66.27,0 120,-53.727 120,-120 v -1.602 h 110 l -5.48,1.602"
         style="fill:#cceffc;fill-opacity:1;fill-rule:nonzero;stroke:none"
         id="path14" /><path
         d="m 2264.52,145 c 0,571.012 -462.9,1033.91 -1033.91,1033.91 C 659.594,1178.91 196.695,716.012 196.695,145 l -1.699,-1.602 H 260 l 5,1.602 c 0,53.563 35.098,98.93 83.551,114.359 11.492,3.664 23.738,5.641 36.449,5.641 66.273,0 120,-53.727 120,-120 v -1.602 H 640 V 145 c 0,66.273 53.727,120 120,120 66.273,0 120,-53.727 120,-120 l -5.004,-1.602 H 1420 l 5,1.602 c 0,66.273 53.73,120 120,120 66.27,0 120,-53.727 120,-120 l -5,-1.602 h 260 V 145 c 0,66.273 53.73,120 120,120 66.27,0 120,-53.727 120,-120 v -1.602 h 110 z"
         style="fill:none;stroke:#80d6f7;stroke-width:10;stroke-linecap:butt;stroke-linejoin:miter;stroke-miterlimit:4;stroke-dasharray:none;stroke-opacity:1"
         id="path16" /><path
         d="M 1230.46,1265.14 V 30"
         style="fill:none;stroke:#000000;stroke-width:7.5;stroke-linecap:butt;stroke-linejoin:miter;stroke-miterlimit:4;stroke-dasharray:none;stroke-opacity:1"
         id="path18" /><path
         d="m 1230.46,1259.41 -20.27,-12.32 -0.46,0.69 13.13,33.04 c 2.53,11.52 5.07,23.03 7.6,34.55 2.53,-11.52 5.06,-23.03 7.6,-34.55 l 13.13,-33.04 -0.35,-0.69 -20.38,12.32"
         style="fill:#000000;fill-opacity:1;fill-rule:nonzero;stroke:none"
         id="path20" /><path
         d="m 2270,143.398 h 139.59"
         style="fill:none;stroke:#000000;stroke-width:7.5;stroke-linecap:butt;stroke-linejoin:miter;stroke-miterlimit:4;stroke-dasharray:none;stroke-opacity:1"
         id="path22" /><path
         d="M 60,143.398 H 194.996"
         style="fill:none;stroke:#000000;stroke-width:7.5;stroke-linecap:butt;stroke-linejoin:miter;stroke-miterlimit:4;stroke-dasharray:none;stroke-opacity:1"
         id="path24" /><path
         d="m 2403.85,143.398 -12.32,20.266 0.69,0.457 33.05,-13.125 c 11.51,-2.527 23.03,-5.066 34.54,-7.598 -11.51,-2.539 -23.03,-5.066 -34.54,-7.597 l -33.05,-13.133 -0.69,0.352 12.32,20.378"
         style="fill:#000000;fill-opacity:1;fill-rule:nonzero;stroke:none"
         id="path26" /><path
         d="M 62.6797,143.391 75,123.125 74.3125,122.668 41.2656,135.793 C 29.75,138.32 18.2383,140.859 6.72266,143.391 18.2383,145.93 29.75,148.457 41.2656,150.984 L 74.3125,164.121 75,163.77 62.6797,143.391"
         style="fill:#000000;fill-opacity:1;fill-rule:nonzero;stroke:none"
         id="path28" /><path
         d="m 558.852,143.398 -12.321,20.266 0.692,0.457 33.047,-13.125 c 11.511,-2.527 23.027,-5.066 34.539,-7.598 -11.512,-2.539 -23.028,-5.066 -34.539,-7.597 l -33.047,-13.133 -0.692,0.352 12.321,20.378"
         style="fill:#80d6f7;fill-opacity:1;fill-rule:nonzero;stroke:none"
         id="path30" /><path
         d="m 928.852,143.398 -12.321,20.266 0.692,0.457 33.047,-13.125 c 11.511,-2.527 23.027,-5.066 34.539,-7.598 -11.512,-2.539 -23.028,-5.066 -34.539,-7.597 l -33.047,-13.133 -0.692,0.352 12.321,20.378"
         style="fill:#80d6f7;fill-opacity:1;fill-rule:nonzero;stroke:none"
         id="path32" /><path
         d="m 1303.85,143.398 -12.32,20.266 0.69,0.457 33.05,-13.125 c 11.51,-2.527 23.03,-5.066 34.54,-7.598 -11.51,-2.539 -23.03,-5.066 -34.54,-7.597 l -33.05,-13.133 -0.69,0.352 12.32,20.378"
         style="fill:#80d6f7;fill-opacity:1;fill-rule:nonzero;stroke:none"
         id="path34" /><path
         d="m 1773.85,143.398 -12.32,20.266 0.69,0.457 33.05,-13.125 c 11.51,-2.527 23.03,-5.066 34.54,-7.598 -11.51,-2.539 -23.03,-5.066 -34.54,-7.597 l -33.05,-13.133 -0.69,0.352 12.32,20.378"
         style="fill:#80d6f7;fill-opacity:1;fill-rule:nonzero;stroke:none"
         id="path36" /><path
         d="m 2247.2,310.945 -18.26,-15.132 -0.56,0.613 8.19,34.605 c 0.83,11.758 1.67,23.52 2.5,35.278 4.19,-11.028 8.36,-22.047 12.54,-33.071 l 17.79,-30.789 -0.25,-0.73 -21.95,9.226"
         style="fill:#80d6f7;fill-opacity:1;fill-rule:nonzero;stroke:none"
         id="path38" /><path
         d="m 2006.18,822.305 -7.57,-22.481 -0.8,0.235 -11.23,33.742 c -5.47,10.437 -10.95,20.883 -16.43,31.316 9.36,-7.172 18.71,-14.355 28.05,-21.531 l 31.33,-16.832 0.17,-0.758 -23.52,-3.691"
         style="fill:#80d6f7;fill-opacity:1;fill-rule:nonzero;stroke:none"
         id="path40" /><path
         d="m 1532.28,1130.53 5.38,-23.11 -0.8,-0.21 -27.29,22.79 c -10.15,6 -20.3,12.01 -30.44,18 11.73,-1.18 23.46,-2.37 35.18,-3.57 l 35.5,2.16 0.54,-0.55 -18.07,-15.51"
         style="fill:#80d6f7;fill-opacity:1;fill-rule:nonzero;stroke:none"
         id="path42" /><path
         d="m 967.121,1143.52 16.727,-16.83 -0.567,-0.6 -35.207,5.03 c -11.781,-0.24 -23.57,-0.46 -35.347,-0.69 10.593,5.17 21.199,10.31 31.793,15.46 l 29.058,20.5 0.758,-0.18 -7.215,-22.69"
         style="fill:#80d6f7;fill-opacity:1;fill-rule:nonzero;stroke:none"
         id="path44" /><path
         d="m 479.566,857.383 23.075,-5.512 -0.164,-0.808 -32.59,-14.235 c -9.899,-6.398 -19.813,-12.781 -29.707,-19.183 6.297,9.972 12.609,19.929 18.918,29.886 l 13.929,32.715 0.746,0.238 5.793,-23.101"
         style="fill:#80d6f7;fill-opacity:1;fill-rule:nonzero;stroke:none"
         id="path46" /><path
         d="m 220.309,357.637 22.527,7.445 0.285,-0.773 -20.23,-29.246 c -5.059,-10.649 -10.137,-21.29 -15.188,-31.938 0.113,11.793 0.246,23.586 0.379,35.367 l -5.352,35.153 0.508,0.593 17.071,-16.601"
         style="fill:#80d6f7;fill-opacity:1;fill-rule:nonzero;stroke:none"
         id="path48" /><path
         d="m 2023.85,263.398 -12.32,20.266 0.69,0.457 33.05,-13.125 c 11.51,-2.527 23.03,-5.066 34.54,-7.598 -11.51,-2.539 -23.03,-5.066 -34.54,-7.597 l -33.05,-13.133 -0.69,0.352 12.32,20.378"
         style="fill:#80d6f7;fill-opacity:1;fill-rule:nonzero;stroke:none"
         id="path50" /><path
         d="m 1528.85,263.398 -12.32,20.266 0.69,0.457 33.05,-13.125 c 11.51,-2.527 23.03,-5.066 34.54,-7.598 -11.51,-2.539 -23.03,-5.066 -34.54,-7.597 l -33.05,-13.133 -0.69,0.352 12.32,20.378"
         style="fill:#80d6f7;fill-opacity:1;fill-rule:nonzero;stroke:none"
         id="path52" /><path
         d="m 743.852,263.398 -12.321,20.266 0.692,0.457 33.047,-13.125 c 11.511,-2.527 23.027,-5.066 34.539,-7.598 -11.512,-2.539 -23.028,-5.066 -34.539,-7.597 l -33.047,-13.133 -0.692,0.352 12.321,20.378"
         style="fill:#80d6f7;fill-opacity:1;fill-rule:nonzero;stroke:none"
         id="path54" /><path
         d="m 363.852,263.398 -12.321,20.266 0.692,0.457 33.047,-13.125 c 11.511,-2.527 23.027,-5.066 34.539,-7.598 -11.512,-2.539 -23.028,-5.066 -34.539,-7.597 l -33.047,-13.133 -0.692,0.352 12.321,20.378"
         style="fill:#80d6f7;fill-opacity:1;fill-rule:nonzero;stroke:none"
         id="path56" /><g
         id="g58"
         transform="scale(10)"><text
           transform="matrix(1,0,0,-1,250.793,11.6758)"
           style="font-style:italic;font-variant:normal;font-size:8px;font-family:'Times New Roman';-inkscape-font-specification:Times-Italic;writing-mode:lr-tb;fill:#231f20;fill-opacity:1;fill-rule:nonzero;stroke:none"
           id="text64"><tspan
             x="0"
             y="0"
             id="tspan60">x</tspan><tspan
             x="-130.746"
             y="-124.172"
             id="tspan62">y</tspan></text></g><g
         id="g66"
         transform="scale(10)"><text
           transform="matrix(1,0,0,-1,147.5,5)"
           style="font-style:italic;font-variant:normal;font-size:8px;font-family:'Times New Roman';-inkscape-font-specification:Times-Italic;writing-mode:lr-tb;fill:#000000;fill-opacity:1;fill-rule:nonzero;stroke:none"
           id="text70"><tspan
             x="0"
             y="0"
             id="tspan68">t</tspan></text><text
           transform="matrix(1,0,0,-1,149.72383,3)"
           style="font-style:italic;font-variant:normal;font-size:6px;font-family:'Times New Roman';-inkscape-font-specification:Times-Italic;writing-mode:lr-tb;fill:#000000;fill-opacity:1;fill-rule:nonzero;stroke:none"
           id="text74"><tspan
             x="0"
             y="0"
             id="tspan72">l</tspan></text><text
           transform="matrix(1,0,0,-1,152.8918,3)"
           style="font-variant:normal;font-weight:normal;font-size:6px;font-family:'Times New Roman';-inkscape-font-specification:Times-Roman;writing-mode:lr-tb;fill:#000000;fill-opacity:1;fill-rule:nonzero;stroke:none"
           id="text78"><tspan
             x="0 3 4.5"
             y="0"
             id="tspan76">– 1</tspan></text><text
           transform="matrix(1,0,0,-1,142.75742,31.7301)"
           style="font-style:italic;font-variant:normal;font-size:8px;font-family:'Times New Roman';-inkscape-font-specification:Times-Italic;writing-mode:lr-tb;fill:#000000;fill-opacity:1;fill-rule:nonzero;stroke:none"
           id="text82"><tspan
             x="0 4"
             y="0"
             id="tspan80">–C</tspan></text><text
           transform="matrix(1,0,0,-1,152.09336,29.7301)"
           style="font-style:italic;font-variant:normal;font-size:6px;font-family:'Times New Roman';-inkscape-font-specification:Times-Italic;writing-mode:lr-tb;fill:#000000;fill-opacity:1;fill-rule:nonzero;stroke:none"
           id="text86"><tspan
             x="0"
             y="0"
             id="tspan84">l</tspan></text><text
           transform="matrix(1,0,0,-1,155.26133,29.7301)"
           style="font-variant:normal;font-weight:normal;font-size:6px;font-family:'Times New Roman';-inkscape-font-specification:Times-Roman;writing-mode:lr-tb;fill:#000000;fill-opacity:1;fill-rule:nonzero;stroke:none"
           id="text90"><tspan
             x="0 3 4.5"
             y="0"
             id="tspan88">– 1</tspan></text><text
           transform="matrix(1,0,0,-1,197.94183,31.7301)"
           style="font-style:italic;font-variant:normal;font-size:8px;font-family:'Times New Roman';-inkscape-font-specification:Times-Italic;writing-mode:lr-tb;fill:#000000;fill-opacity:1;fill-rule:nonzero;stroke:none"
           id="text94"><tspan
             x="0 4"
             y="0"
             id="tspan92">–C</tspan></text><text
           transform="matrix(1,0,0,-1,207.27777,29.7301)"
           style="font-style:italic;font-variant:normal;font-size:6px;font-family:'Times New Roman';-inkscape-font-specification:Times-Italic;writing-mode:lr-tb;fill:#000000;fill-opacity:1;fill-rule:nonzero;stroke:none"
           id="text98"><tspan
             x="0"
             y="0"
             id="tspan96">l</tspan></text><text
           transform="matrix(1,0,0,-1,68.01677,31.7301)"
           style="font-style:italic;font-variant:normal;font-size:8px;font-family:'Times New Roman';-inkscape-font-specification:Times-Italic;writing-mode:lr-tb;fill:#000000;fill-opacity:1;fill-rule:nonzero;stroke:none"
           id="text102"><tspan
             x="0 4"
             y="0"
             id="tspan100">–C</tspan></text><text
           transform="matrix(1,0,0,-1,77.35271,29.7301)"
           style="font-variant:normal;font-weight:normal;font-size:6px;font-family:'Times New Roman';-inkscape-font-specification:Times-Roman;writing-mode:lr-tb;fill:#000000;fill-opacity:1;fill-rule:nonzero;stroke:none"
           id="text106"><tspan
             x="0"
             y="0"
             id="tspan104">2</tspan></text><text
           transform="matrix(1,0,0,-1,30.50891,31.7301)"
           style="font-style:italic;font-variant:normal;font-size:8px;font-family:'Times New Roman';-inkscape-font-specification:Times-Italic;writing-mode:lr-tb;fill:#000000;fill-opacity:1;fill-rule:nonzero;stroke:none"
           id="text110"><tspan
             x="0 4"
             y="0"
             id="tspan108">–C</tspan></text><text
           transform="matrix(1,0,0,-1,39.84485,29.7301)"
           style="font-variant:normal;font-weight:normal;font-size:6px;font-family:'Times New Roman';-inkscape-font-specification:Times-Roman;writing-mode:lr-tb;fill:#000000;fill-opacity:1;fill-rule:nonzero;stroke:none"
           id="text114"><tspan
             x="0"
             y="0"
             id="tspan112">1</tspan></text><text
           transform="matrix(1,0,0,-1,62.99915,76.1356)"
           style="font-style:italic;font-variant:normal;font-size:8px;font-family:'Times New Roman';-inkscape-font-specification:Times-Italic;writing-mode:lr-tb;fill:#000000;fill-opacity:1;fill-rule:nonzero;stroke:none"
           id="text118"><tspan
             x="0"
             y="0"
             id="tspan116">z</tspan></text><text
           transform="matrix(1,0,0,-1,66.11126,74.1356)"
           style="font-style:italic;font-variant:normal;font-size:6px;font-family:'Times New Roman';-inkscape-font-specification:Times-Italic;writing-mode:lr-tb;fill:#000000;fill-opacity:1;fill-rule:nonzero;stroke:none"
           id="text122"><tspan
             x="0"
             y="0"
             id="tspan120">k</tspan></text><text
           transform="matrix(1,0,0,-1,70.27532,74.1356)"
           style="font-variant:normal;font-weight:normal;font-size:6px;font-family:'Times New Roman';-inkscape-font-specification:Times-Roman;writing-mode:lr-tb;fill:#000000;fill-opacity:1;fill-rule:nonzero;stroke:none"
           id="text126"><tspan
             x="0 3 4.5"
             y="0"
             id="tspan124">– 1</tspan></text><text
           transform="matrix(1,0,0,-1,94.90232,44.2325)"
           style="font-style:italic;font-variant:normal;font-size:8px;font-family:'Times New Roman';-inkscape-font-specification:Times-Italic;writing-mode:lr-tb;fill:#000000;fill-opacity:1;fill-rule:nonzero;stroke:none"
           id="text130"><tspan
             x="0"
             y="0"
             id="tspan128">z</tspan></text><text
           transform="matrix(1,0,0,-1,98.01443,42.2325)"
           style="font-style:italic;font-variant:normal;font-size:6px;font-family:'Times New Roman';-inkscape-font-specification:Times-Italic;writing-mode:lr-tb;fill:#000000;fill-opacity:1;fill-rule:nonzero;stroke:none"
           id="text134"><tspan
             x="0"
             y="0"
             id="tspan132">k</tspan></text><text
           transform="matrix(1,0,0,-1,185.43903,48.11297)"
           style="font-style:italic;font-variant:normal;font-size:8px;font-family:'Times New Roman';-inkscape-font-specification:Times-Italic;writing-mode:lr-tb;fill:#000000;fill-opacity:1;fill-rule:nonzero;stroke:none"
           id="text138"><tspan
             x="0"
             y="0"
             id="tspan136">z</tspan></text><text
           transform="matrix(1,0,0,-1,188.55114,46.11297)"
           style="font-variant:normal;font-weight:normal;font-size:6px;font-family:'Times New Roman';-inkscape-font-specification:Times-Roman;writing-mode:lr-tb;fill:#000000;fill-opacity:1;fill-rule:nonzero;stroke:none"
           id="text142"><tspan
             x="0"
             y="0"
             id="tspan140">1</tspan></text><text
           transform="matrix(1,0,0,-1,181.98981,82.17157)"
           style="font-style:italic;font-variant:normal;font-size:8px;font-family:'Times New Roman';-inkscape-font-specification:Times-Italic;writing-mode:lr-tb;fill:#000000;fill-opacity:1;fill-rule:nonzero;stroke:none"
           id="text146"><tspan
             x="0"
             y="0"
             id="tspan144">z</tspan></text><text
           transform="matrix(1,0,0,-1,185.10192,80.17157)"
           style="font-variant:normal;font-weight:normal;font-size:6px;font-family:'Times New Roman';-inkscape-font-specification:Times-Roman;writing-mode:lr-tb;fill:#000000;fill-opacity:1;fill-rule:nonzero;stroke:none"
           id="text150"><tspan
             x="0"
             y="0"
             id="tspan148">2</tspan></text><text
           transform="matrix(1,0,0,-1,145.34412,77.42938)"
           style="font-style:italic;font-variant:normal;font-size:8px;font-family:'Times New Roman';-inkscape-font-specification:Times-Italic;writing-mode:lr-tb;fill:#000000;fill-opacity:1;fill-rule:nonzero;stroke:none"
           id="text154"><tspan
             x="0"
             y="0"
             id="tspan152">z</tspan></text><text
           transform="matrix(1,0,0,-1,148.45623,75.42938)"
           style="font-variant:normal;font-weight:normal;font-size:6px;font-family:'Times New Roman';-inkscape-font-specification:Times-Roman;writing-mode:lr-tb;fill:#000000;fill-opacity:1;fill-rule:nonzero;stroke:none"
           id="text158"><tspan
             x="0"
             y="0"
             id="tspan156">3</tspan></text><text
           transform="matrix(1,0,0,-1,72.49963,4.50008)"
           style="font-style:italic;font-variant:normal;font-size:8px;font-family:'Times New Roman';-inkscape-font-specification:Times-Italic;writing-mode:lr-tb;fill:#000000;fill-opacity:1;fill-rule:nonzero;stroke:none"
           id="text162"><tspan
             x="0"
             y="0"
             id="tspan160">t</tspan></text><text
           transform="matrix(1,0,0,-1,74.72346,2.50008)"
           style="font-variant:normal;font-weight:normal;font-size:6px;font-family:'Times New Roman';-inkscape-font-specification:Times-Roman;writing-mode:lr-tb;fill:#000000;fill-opacity:1;fill-rule:nonzero;stroke:none"
           id="text166"><tspan
             x="0"
             y="0"
             id="tspan164">2</tspan></text><text
           transform="matrix(1,0,0,-1,81.12229,100.64108)"
           style="font-style:italic;font-variant:normal;font-size:8px;font-family:'Times New Roman';-inkscape-font-specification:Times-Italic;writing-mode:lr-tb;fill:#000000;fill-opacity:1;fill-rule:nonzero;stroke:none"
           id="text170"><tspan
             x="0"
             y="0"
             id="tspan168">C</tspan></text><text
           transform="matrix(1,0,0,-1,86.45823,98.64108)"
           style="font-style:italic;font-variant:normal;font-size:6px;font-family:'Times New Roman';-inkscape-font-specification:Times-Italic;writing-mode:lr-tb;fill:#000000;fill-opacity:1;fill-rule:nonzero;stroke:none"
           id="text174"><tspan
             x="0"
             y="0"
             id="tspan172">R</tspan></text><text
           transform="matrix(1,0,0,-1,188.47223,98.054361)"
           style="font-style:italic;font-variant:normal;font-size:8px;font-family:'Times New Roman';-inkscape-font-specification:Times-Italic;writing-mode:lr-tb;fill:#000000;fill-opacity:1;fill-rule:nonzero;stroke:none"
           id="text180"><tspan
             x="0"
             y="0"
             id="tspan176">C</tspan><tspan
             x="-152.47301"
             y="93.554298"
             id="tspan178">t</tspan></text><text
           transform="matrix(1,0,0,-1,38.22306,2.500061)"
           style="font-variant:normal;font-weight:normal;font-size:6px;font-family:'Times New Roman';-inkscape-font-specification:Times-Roman;writing-mode:lr-tb;fill:#000000;fill-opacity:1;fill-rule:nonzero;stroke:none"
           id="text184"><tspan
             x="0"
             y="0"
             id="tspan182">1</tspan></text><text
           transform="matrix(1,0,0,-1,201.49906,5.000061)"
           style="font-style:italic;font-variant:normal;font-size:8px;font-family:'Times New Roman';-inkscape-font-specification:Times-Italic;writing-mode:lr-tb;fill:#000000;fill-opacity:1;fill-rule:nonzero;stroke:none"
           id="text188"><tspan
             x="0"
             y="0"
             id="tspan186">t</tspan></text><text
           transform="matrix(1,0,0,-1,203.72289,3.000061)"
           style="font-style:italic;font-variant:normal;font-size:6px;font-family:'Times New Roman';-inkscape-font-specification:Times-Italic;writing-mode:lr-tb;fill:#000000;fill-opacity:1;fill-rule:nonzero;stroke:none"
           id="text192"><tspan
             x="0"
             y="0"
             id="tspan190">l</tspan></text><text
           transform="matrix(1,0,0,-1,12.49889,5.000061)"
           style="font-style:italic;font-variant:normal;font-size:8px;font-family:'Times New Roman';-inkscape-font-specification:Times-Italic;writing-mode:lr-tb;fill:#000000;fill-opacity:1;fill-rule:nonzero;stroke:none"
           id="text196"><tspan
             x="0 4"
             y="0"
             id="tspan194">–R</tspan></text></g><path
         d="m 406.75,144.547 c 0,-11.055 -8.957,-20 -20,-20 -11.047,0 -20,8.945 -20,20 0,11.035 8.953,20 20,20 11.043,0 20,-8.965 20,-20"
         style="fill:#80d6f7;fill-opacity:1;fill-rule:nonzero;stroke:none"
         id="path198" /><path
         d="m 781.75,144.547 c 0,-11.055 -8.957,-20 -20,-20 -11.047,0 -20,8.945 -20,20 0,11.035 8.953,20 20,20 11.043,0 20,-8.965 20,-20"
         style="fill:#80d6f7;fill-opacity:1;fill-rule:nonzero;stroke:none"
         id="path200" /><path
         d="m 1566.75,144.547 c 0,-11.055 -8.96,-20 -20,-20 -11.05,0 -20,8.945 -20,20 0,11.035 8.95,20 20,20 11.04,0 20,-8.965 20,-20"
         style="fill:#80d6f7;fill-opacity:1;fill-rule:nonzero;stroke:none"
         id="path202" /><path
         d="m 1186.75,144.547 c 0,-11.055 -8.96,-20 -20,-20 -11.05,0 -20,8.945 -20,20 0,11.035 8.95,20 20,20 11.04,0 20,-8.965 20,-20"
         style="fill:#231f20;fill-opacity:1;fill-rule:nonzero;stroke:none"
         id="path204" /><path
         d="m 1126.75,144.547 c 0,-11.055 -8.96,-20 -20,-20 -11.05,0 -20,8.945 -20,20 0,11.035 8.95,20 20,20 11.04,0 20,-8.965 20,-20"
         style="fill:#231f20;fill-opacity:1;fill-rule:nonzero;stroke:none"
         id="path206" /><path
         d="m 1066.75,144.547 c 0,-11.055 -8.96,-20 -20,-20 -11.05,0 -20,8.945 -20,20 0,11.035 8.95,20 20,20 11.04,0 20,-8.965 20,-20"
         style="fill:#231f20;fill-opacity:1;fill-rule:nonzero;stroke:none"
         id="path208" /><path
         d="m 1507.76,909.332 c 0,-11.055 -8.96,-20 -20,-20 -11.05,0 -20,8.945 -20,20 0,11.035 8.95,20 20,20 11.04,0 20,-8.965 20,-20"
         style="fill:#80d6f7;fill-opacity:1;fill-rule:nonzero;stroke:none"
         id="path210" /><path
         d="m 1432.48,795.551 c 0,-11.055 -8.95,-20 -20,-20 -11.04,0 -20,8.945 -20,20 0,11.035 8.96,20 20,20 11.05,0 20,-8.965 20,-20"
         style="fill:#80d6f7;fill-opacity:1;fill-rule:nonzero;stroke:none"
         id="path212" /><path
         d="m 1798.95,842.973 c 0,-11.055 -8.96,-20 -20,-20 -11.05,0 -20,8.945 -20,20 0,11.035 8.95,20 20,20 11.04,0 20,-8.965 20,-20"
         style="fill:#80d6f7;fill-opacity:1;fill-rule:nonzero;stroke:none"
         id="path214" /><path
         d="m 1829.12,502.383 c 0,-11.055 -8.95,-20 -20,-20 -11.05,0 -20,8.945 -20,20 0,11.035 8.95,20 20,20 11.05,0 20,-8.965 20,-20"
         style="fill:#80d6f7;fill-opacity:1;fill-rule:nonzero;stroke:none"
         id="path216" /><path
         d="m 919.449,459.27 c 0,-11.055 -8.957,-20 -20,-20 -11.047,0 -20,8.945 -20,20 0,11.035 8.953,20 20,20 11.043,0 20,-8.965 20,-20"
         style="fill:#80d6f7;fill-opacity:1;fill-rule:nonzero;stroke:none"
         id="path218" /><path
         d="m 742.688,842.969 c 0,-11.055 -8.958,-20 -20,-20 -11.047,0 -20,8.945 -20,20 0,11.035 8.953,20 20,20 11.042,0 20,-8.965 20,-20"
         style="fill:#80d6f7;fill-opacity:1;fill-rule:nonzero;stroke:none"
         id="path220" /><path
         d="m 1186.75,144.547 c 0,-11.055 -8.96,-20 -20,-20 -11.05,0 -20,8.945 -20,20 0,11.035 8.95,20 20,20 11.04,0 20,-8.965 20,-20"
         style="fill:#80d6f7;fill-opacity:1;fill-rule:nonzero;stroke:none"
         id="path222" /><path
         d="m 1126.75,144.547 c 0,-11.055 -8.96,-20 -20,-20 -11.05,0 -20,8.945 -20,20 0,11.035 8.95,20 20,20 11.04,0 20,-8.965 20,-20"
         style="fill:#80d6f7;fill-opacity:1;fill-rule:nonzero;stroke:none"
         id="path224" /><path
         d="m 1066.75,144.547 c 0,-11.055 -8.96,-20 -20,-20 -11.05,0 -20,8.945 -20,20 0,11.035 8.95,20 20,20 11.04,0 20,-8.965 20,-20"
         style="fill:#80d6f7;fill-opacity:1;fill-rule:nonzero;stroke:none"
         id="path226" /><path
         d="m 1251.77,980.934 c 0,-11.055 -8.95,-20 -20,-20 -11.04,0 -20,8.945 -20,20 0,11.035 8.96,19.996 20,19.996 11.05,0 20,-8.961 20,-19.996"
         style="fill:#80d6f7;fill-opacity:1;fill-rule:nonzero;stroke:none"
         id="path228" /><path
         d="m 956.879,933.734 c 0,-11.054 -8.953,-20 -20,-20 -11.043,0 -20,8.946 -20,20 0,11.036 8.957,20 20,20 11.047,0 20,-8.964 20,-20"
         style="fill:#80d6f7;fill-opacity:1;fill-rule:nonzero;stroke:none"
         id="path230" /><path
         d="m 2061.75,144.547 c 0,-11.055 -8.96,-20 -20,-20 -11.05,0 -20,8.945 -20,20 0,11.035 8.95,20 20,20 11.04,0 20,-8.965 20,-20"
         style="fill:#80d6f7;fill-opacity:1;fill-rule:nonzero;stroke:none"
         id="path232" /><g
         id="g234"
         transform="scale(10)"><text
           transform="matrix(1,0,0,-1,224.5,5.16719)"
           style="font-style:italic;font-variant:normal;font-size:8px;font-family:'Times New Roman';-inkscape-font-specification:Times-Italic;writing-mode:lr-tb;fill:#231f20;fill-opacity:1;fill-rule:nonzero;stroke:none"
           id="text238"><tspan
             x="0"
             y="0"
             id="tspan236">R</tspan></text></g></g></g></svg>
