<?xml version="1.0" encoding="UTF-8" standalone="no"?>
<svg
   xmlns:dc="http://purl.org/dc/elements/1.1/"
   xmlns:cc="http://creativecommons.org/ns#"
   xmlns:rdf="http://www.w3.org/1999/02/22-rdf-syntax-ns#"
   xmlns:svg="http://www.w3.org/2000/svg"
   xmlns="http://www.w3.org/2000/svg"
   version="1.1"
   id="svg2"
   xml:space="preserve"
   width="274.66666"
   height="254.66667"
   viewBox="0 0 274.66666 254.66667"><metadata
     id="metadata8"><rdf:RDF><cc:Work
         rdf:about=""><dc:format>image/svg+xml</dc:format><dc:type
           rdf:resource="http://purl.org/dc/dcmitype/StillImage" /></cc:Work></rdf:RDF></metadata><defs
     id="defs6" /><g
     id="g10"
     transform="matrix(1.3333333,0,0,-1.3333333,0,254.66667)"><g
       id="g12"
       transform="scale(0.1)"><path
         d="M 1711.3,829.355 C 1673.32,442.363 1346.98,140 950,140 527.5,140 185,482.5 185,905 c 0,422.5 342.5,765 765,765 396.09,0 721.88,-304.93 761.05,-690.687"
         style="fill:#cceffc;fill-opacity:1;fill-rule:nonzero;stroke:none"
         id="path14" /><path
         d="M 1711.3,829.355 C 1673.32,442.363 1346.98,140 950,140 527.5,140 185,482.5 185,905 c 0,422.5 342.5,765 765,765 396.09,0 721.88,-304.93 761.05,-690.687"
         style="fill:none;stroke:#80d6f7;stroke-width:10;stroke-linecap:butt;stroke-linejoin:miter;stroke-miterlimit:4;stroke-dasharray:none;stroke-opacity:1"
         id="path16" /><path
         d="M 1715.69,975 H 955 c -38.66,0 -70,-31.336 -70,-70 0,-38.66 31.34,-70 70,-70 h 130.43 367.07 263.19"
         style="fill:#ffffff;fill-opacity:1;fill-rule:nonzero;stroke:none"
         id="path18" /><path
         d="M 1715.69,975 H 955 c -38.66,0 -70,-31.336 -70,-70 0,-38.66 31.34,-70 70,-70 h 130.43 367.07 263.19"
         style="fill:none;stroke:#80d6f7;stroke-width:10;stroke-linecap:butt;stroke-linejoin:miter;stroke-miterlimit:4;stroke-dasharray:none;stroke-opacity:1"
         id="path20" /><path
         d="M 1905,975 H 1730"
         style="fill:#ffffff;fill-opacity:1;fill-rule:nonzero;stroke:none"
         id="path22" /><path
         d="M 1905,975 H 1730"
         style="fill:none;stroke:#000000;stroke-width:5;stroke-linecap:butt;stroke-linejoin:miter;stroke-miterlimit:4;stroke-dasharray:none;stroke-opacity:1"
         id="path24" /><path
         d="M 955.461,1745.14 V 65"
         style="fill:none;stroke:#000000;stroke-width:7.5;stroke-linecap:butt;stroke-linejoin:miter;stroke-miterlimit:4;stroke-dasharray:none;stroke-opacity:1"
         id="path26" /><path
         d="m 955.461,1739.41 -20.27,-12.32 -0.461,0.69 13.129,33.04 c 2.532,11.52 5.067,23.03 7.602,34.55 2.531,-11.52 5.062,-23.03 7.598,-34.55 l 13.129,-33.04 -0.348,-0.69 -20.379,12.32"
         style="fill:#000000;fill-opacity:1;fill-rule:nonzero;stroke:none"
         id="path28" /><path
         d="m 955.461,63.4453 20.266,12.3203 0.461,-0.6875 -13.129,-33.0468 C 960.527,30.5195 957.992,19.0039 955.461,7.48828 952.926,19.0039 950.395,30.5195 947.859,42.0313 l -13.129,33.0468 0.348,0.6875 20.383,-12.3203"
         style="fill:#000000;fill-opacity:1;fill-rule:nonzero;stroke:none"
         id="path30" /><path
         d="M 879.996,898.398 H 1939.59"
         style="fill:none;stroke:#000000;stroke-width:7.5;stroke-linecap:butt;stroke-linejoin:miter;stroke-miterlimit:4;stroke-dasharray:45, 15;stroke-dashoffset:0;stroke-opacity:1"
         id="path32" /><path
         d="M 55,898.398 H 879.996"
         style="fill:none;stroke:#000000;stroke-width:7.5;stroke-linecap:butt;stroke-linejoin:miter;stroke-miterlimit:4;stroke-dasharray:none;stroke-opacity:1"
         id="path34" /><path
         d="m 1933.85,898.398 -12.32,20.266 0.69,0.457 33.05,-13.125 c 11.51,-2.527 23.03,-5.066 34.54,-7.598 -11.51,-2.539 -23.03,-5.066 -34.54,-7.597 l -33.05,-13.133 -0.69,0.352 12.32,20.378"
         style="fill:#000000;fill-opacity:1;fill-rule:nonzero;stroke:none"
         id="path36" /><path
         d="m 58.375,898.391 12.3164,-20.266 -0.6875,-0.457 -33.0469,13.125 c -11.5117,2.527 -23.0273,5.066 -34.53903,7.598 11.51173,2.539 23.02733,5.066 34.53903,7.593 l 33.0469,13.137 0.6875,-0.351 -12.3164,-20.379"
         style="fill:#000000;fill-opacity:1;fill-rule:nonzero;stroke:none"
         id="path38" /><path
         d="m 1848.96,1014.06 13.48,8.2 0.31,-0.46 -8.73,-21.976 c -1.68,-7.656 -3.38,-15.312 -5.06,-22.969 -1.69,7.657 -3.37,15.313 -5.05,22.969 l -8.73,21.976 0.23,0.46 13.55,-8.2"
         style="fill:#000000;fill-opacity:1;fill-rule:nonzero;stroke:none"
         id="path40" /><path
         d="m 1224.08,188.984 -18.96,14.243 0.47,0.679 35.56,0.078 c 11.63,1.922 23.26,3.836 34.89,5.762 -9.75,-6.633 -19.5,-13.25 -29.25,-19.871 l -25.82,-24.465 -0.77,0.078 3.88,23.496"
         style="fill:#80d6f7;fill-opacity:1;fill-rule:nonzero;stroke:none"
         id="path42" /><path
         d="m 1584.81,474.223 -23.7,0.711 v 0.824 l 29,20.566 c 8.39,8.278 16.79,16.547 25.18,24.824 -4.14,-11.043 -8.29,-22.07 -12.44,-33.101 l -6.99,-34.871 -0.67,-0.383 -10.38,21.43"
         style="fill:#80d6f7;fill-opacity:1;fill-rule:nonzero;stroke:none"
         id="path44" /><path
         d="m 1666.02,1179.08 -14.25,-18.96 -0.68,0.47 -0.07,35.56 c -1.93,11.63 -3.84,23.26 -5.77,34.89 6.64,-9.75 13.26,-19.5 19.88,-29.25 l 24.46,-25.82 -0.08,-0.77 -23.49,3.88"
         style="fill:#80d6f7;fill-opacity:1;fill-rule:nonzero;stroke:none"
         id="path46" /><path
         d="m 1380.78,1539.81 -0.71,-23.7 h -0.83 l -20.56,29 c -8.28,8.39 -16.55,16.79 -24.83,25.18 11.04,-4.14 22.07,-8.29 33.1,-12.44 l 34.87,-6.99 0.39,-0.67 -21.43,-10.38"
         style="fill:#80d6f7;fill-opacity:1;fill-rule:nonzero;stroke:none"
         id="path48" /><path
         d="m 675.922,1621.02 18.961,-14.25 -0.473,-0.68 -35.558,-0.07 c -11.629,-1.93 -23.262,-3.84 -34.891,-5.77 9.75,6.64 19.5,13.26 29.254,19.88 l 25.812,24.46 0.774,-0.08 -3.879,-23.49"
         style="fill:#80d6f7;fill-opacity:1;fill-rule:nonzero;stroke:none"
         id="path50" /><path
         d="m 315.191,1335.78 23.7,-0.71 0.004,-0.83 -29,-20.56 c -8.395,-8.28 -16.793,-16.55 -25.188,-24.83 4.145,11.04 8.293,22.07 12.441,33.1 l 6.989,34.88 0.672,0.38 10.382,-21.43"
         style="fill:#80d6f7;fill-opacity:1;fill-rule:nonzero;stroke:none"
         id="path52" /><path
         d="m 233.984,630.922 14.243,18.961 0.679,-0.473 0.078,-35.558 c 1.922,-11.629 3.836,-23.262 5.762,-34.891 -6.633,9.75 -13.254,19.5 -19.871,29.254 l -24.465,25.812 0.078,0.774 23.496,-3.879"
         style="fill:#80d6f7;fill-opacity:1;fill-rule:nonzero;stroke:none"
         id="path54" /><path
         d="m 519.223,270.191 0.711,23.7 0.824,0.004 20.566,-29 c 8.278,-8.395 16.547,-16.793 24.824,-25.188 -11.043,4.145 -22.07,8.293 -33.101,12.441 l -34.871,6.989 -0.383,0.672 21.43,10.382"
         style="fill:#80d6f7;fill-opacity:1;fill-rule:nonzero;stroke:none"
         id="path56" /><g
         id="g58"
         transform="scale(10)"><text
           transform="matrix(1,0,0,-1,202.293,87.6758)"
           style="font-style:italic;font-variant:normal;font-size:8px;font-family:'Times New Roman';-inkscape-font-specification:Times-Italic;writing-mode:lr-tb;fill:#231f20;fill-opacity:1;fill-rule:nonzero;stroke:none"
           id="text64"><tspan
             x="0"
             y="0"
             id="tspan60">x</tspan><tspan
             x="-109.746"
             y="-96.172302"
             id="tspan62">y</tspan></text></g><g
         id="g66"
         transform="scale(10)"><text
           transform="matrix(1,0,0,-1,36.9996,76.6355)"
           style="font-style:italic;font-variant:normal;font-size:8px;font-family:'Times New Roman';-inkscape-font-specification:Times-Italic;writing-mode:lr-tb;fill:#000000;fill-opacity:1;fill-rule:nonzero;stroke:none"
           id="text70"><tspan
             x="0"
             y="0"
             id="tspan68">z</tspan></text><text
           transform="matrix(1,0,0,-1,40.11171,74.6355)"
           style="font-style:italic;font-variant:normal;font-size:6px;font-family:'Times New Roman';-inkscape-font-specification:Times-Italic;writing-mode:lr-tb;fill:#000000;fill-opacity:1;fill-rule:nonzero;stroke:none"
           id="text74"><tspan
             x="0"
             y="0"
             id="tspan72">k</tspan></text><text
           transform="matrix(1,0,0,-1,44.27577,74.6355)"
           style="font-variant:normal;font-weight:normal;font-size:6px;font-family:'Times New Roman';-inkscape-font-specification:Times-Roman;writing-mode:lr-tb;fill:#000000;fill-opacity:1;fill-rule:nonzero;stroke:none"
           id="text78"><tspan
             x="0 3 4.5"
             y="0"
             id="tspan76">– 2</tspan></text><text
           transform="matrix(1,0,0,-1,139.40277,70.23237)"
           style="font-style:italic;font-variant:normal;font-size:8px;font-family:'Times New Roman';-inkscape-font-specification:Times-Italic;writing-mode:lr-tb;fill:#000000;fill-opacity:1;fill-rule:nonzero;stroke:none"
           id="text82"><tspan
             x="0"
             y="0"
             id="tspan80">z</tspan></text><text
           transform="matrix(1,0,0,-1,142.51488,68.23237)"
           style="font-style:italic;font-variant:normal;font-size:6px;font-family:'Times New Roman';-inkscape-font-specification:Times-Italic;writing-mode:lr-tb;fill:#000000;fill-opacity:1;fill-rule:nonzero;stroke:none"
           id="text86"><tspan
             x="0"
             y="0"
             id="tspan84">k</tspan></text><text
           transform="matrix(1,0,0,-1,159.93948,103.61287)"
           style="font-style:italic;font-variant:normal;font-size:8px;font-family:'Times New Roman';-inkscape-font-specification:Times-Italic;writing-mode:lr-tb;fill:#000000;fill-opacity:1;fill-rule:nonzero;stroke:none"
           id="text90"><tspan
             x="0"
             y="0"
             id="tspan88">z</tspan></text><text
           transform="matrix(1,0,0,-1,163.05159,101.61287)"
           style="font-variant:normal;font-weight:normal;font-size:6px;font-family:'Times New Roman';-inkscape-font-specification:Times-Roman;writing-mode:lr-tb;fill:#000000;fill-opacity:1;fill-rule:nonzero;stroke:none"
           id="text94"><tspan
             x="0"
             y="0"
             id="tspan92">1</tspan></text><text
           transform="matrix(1,0,0,-1,121.49029,116.67147)"
           style="font-style:italic;font-variant:normal;font-size:8px;font-family:'Times New Roman';-inkscape-font-specification:Times-Italic;writing-mode:lr-tb;fill:#000000;fill-opacity:1;fill-rule:nonzero;stroke:none"
           id="text98"><tspan
             x="0"
             y="0"
             id="tspan96">z</tspan></text><text
           transform="matrix(1,0,0,-1,124.6024,114.67147)"
           style="font-variant:normal;font-weight:normal;font-size:6px;font-family:'Times New Roman';-inkscape-font-specification:Times-Roman;writing-mode:lr-tb;fill:#000000;fill-opacity:1;fill-rule:nonzero;stroke:none"
           id="text102"><tspan
             x="0"
             y="0"
             id="tspan100">2</tspan></text><text
           transform="matrix(1,0,0,-1,64.8446,124.92927)"
           style="font-style:italic;font-variant:normal;font-size:8px;font-family:'Times New Roman';-inkscape-font-specification:Times-Italic;writing-mode:lr-tb;fill:#000000;fill-opacity:1;fill-rule:nonzero;stroke:none"
           id="text106"><tspan
             x="0"
             y="0"
             id="tspan104">z</tspan></text><text
           transform="matrix(1,0,0,-1,67.95671,122.92927)"
           style="font-variant:normal;font-weight:normal;font-size:6px;font-family:'Times New Roman';-inkscape-font-specification:Times-Roman;writing-mode:lr-tb;fill:#000000;fill-opacity:1;fill-rule:nonzero;stroke:none"
           id="text110"><tspan
             x="0"
             y="0"
             id="tspan108">3</tspan></text><text
           transform="matrix(1,0,0,-1,158.47271,138.55427)"
           style="font-style:italic;font-variant:normal;font-size:8px;font-family:'Times New Roman';-inkscape-font-specification:Times-Italic;writing-mode:lr-tb;fill:#000000;fill-opacity:1;fill-rule:nonzero;stroke:none"
           id="text118"><tspan
             x="0"
             y="0"
             id="tspan112">C</tspan><tspan
             x="-152.47301 -148.47301 16.027"
             y="56.054298"
             id="tspan114">–RR</tspan><tspan
             x="24.527"
             y="46.554298"
             id="tspan116">r</tspan></text></g><path
         d="m 509.625,1211.51 c 9.125,-6.24 11.461,-18.68 5.223,-27.8 -6.231,-9.12 -18.672,-11.46 -27.797,-5.23 -9.113,6.23 -11.453,18.69 -5.227,27.8 6.239,9.12 18.696,11.45 27.801,5.23"
         style="fill:#80d6f7;fill-opacity:1;fill-rule:nonzero;stroke:none"
         id="path120" /><path
         d="m 627.484,1270.55 c 0,-11.05 -8.953,-20 -20,-20 -11.043,0 -20,8.95 -20,20 0,11.04 8.957,20 20,20 11.047,0 20,-8.96 20,-20"
         style="fill:#80d6f7;fill-opacity:1;fill-rule:nonzero;stroke:none"
         id="path122" /><path
         d="m 1193.95,1187.97 c 0,-11.05 -8.96,-20 -20,-20 -11.05,0 -20,8.95 -20,20 0,11.04 8.95,20 20,20 11.04,0 20,-8.96 20,-20"
         style="fill:#80d6f7;fill-opacity:1;fill-rule:nonzero;stroke:none"
         id="path124" /><path
         d="m 1574.12,1057.38 c 0,-11.05 -8.95,-20 -20,-20 -11.05,0 -20,8.95 -20,20 0,11.04 8.95,20 20,20 11.05,0 20,-8.96 20,-20"
         style="fill:#80d6f7;fill-opacity:1;fill-rule:nonzero;stroke:none"
         id="path126" /><path
         d="m 1364.45,719.27 c 0,-11.055 -8.96,-20 -20,-20 -11.05,0 -20,8.945 -20,20 0,11.035 8.95,20 20,20 11.04,0 20,-8.965 20,-20"
         style="fill:#80d6f7;fill-opacity:1;fill-rule:nonzero;stroke:none"
         id="path128" /><path
         d="m 322.688,782.969 c 0,-11.055 -8.958,-20 -20,-20 -11.047,0 -20,8.945 -20,20 0,11.035 8.953,20 20,20 11.042,0 20,-8.965 20,-20"
         style="fill:#80d6f7;fill-opacity:1;fill-rule:nonzero;stroke:none"
         id="path130" /><g
         id="g132"
         transform="scale(10)"><text
           transform="matrix(1,0,0,-1,77.4996,35.1355)"
           style="font-style:italic;font-variant:normal;font-size:8px;font-family:'Times New Roman';-inkscape-font-specification:Times-Italic;writing-mode:lr-tb;fill:#000000;fill-opacity:1;fill-rule:nonzero;stroke:none"
           id="text136"><tspan
             x="0"
             y="0"
             id="tspan134">z</tspan></text><text
           transform="matrix(1,0,0,-1,80.61171,33.1355)"
           style="font-style:italic;font-variant:normal;font-size:6px;font-family:'Times New Roman';-inkscape-font-specification:Times-Italic;writing-mode:lr-tb;fill:#000000;fill-opacity:1;fill-rule:nonzero;stroke:none"
           id="text140"><tspan
             x="0"
             y="0"
             id="tspan138">k</tspan></text><text
           transform="matrix(1,0,0,-1,84.77577,33.1355)"
           style="font-variant:normal;font-weight:normal;font-size:6px;font-family:'Times New Roman';-inkscape-font-specification:Times-Roman;writing-mode:lr-tb;fill:#000000;fill-opacity:1;fill-rule:nonzero;stroke:none"
           id="text144"><tspan
             x="0 3 4.5"
             y="0"
             id="tspan142">– 1</tspan></text></g><path
         d="m 727.688,367.969 c 0,-11.055 -8.958,-20 -20,-20 -11.047,0 -20,8.945 -20,20 0,11.035 8.953,20 20,20 11.042,0 20,-8.965 20,-20"
         style="fill:#80d6f7;fill-opacity:1;fill-rule:nonzero;stroke:none"
         id="path146" /><path
         d="m 426.289,1101.51 c 9.125,-6.24 11.461,-18.67 5.227,-27.8 -6.235,-9.12 -18.672,-11.46 -27.801,-5.22 -9.11,6.23 -11.457,18.68 -5.231,27.8 6.239,9.12 18.696,11.45 27.805,5.22"
         style="fill:#80d6f7;fill-opacity:1;fill-rule:nonzero;stroke:none"
         id="path148" /><path
         d="m 362.949,998.176 c 9.125,-6.242 11.461,-18.684 5.227,-27.801 -6.235,-9.113 -18.668,-11.457 -27.793,-5.219 -9.113,6.227 -11.461,18.672 -5.231,27.793 6.235,9.121 18.688,11.441 27.797,5.227"
         style="fill:#80d6f7;fill-opacity:1;fill-rule:nonzero;stroke:none"
         id="path150" /><path
         d="M 1848.96,1014.06 V 1135"
         style="fill:#ffffff;fill-opacity:1;fill-rule:nonzero;stroke:none"
         id="path152" /><path
         d="M 1848.96,1014.06 V 1135"
         style="fill:none;stroke:#000000;stroke-width:5;stroke-linecap:butt;stroke-linejoin:miter;stroke-miterlimit:4;stroke-dasharray:none;stroke-opacity:1"
         id="path154" /><path
         d="m 1848.96,855.938 13.48,-8.192 0.31,0.457 -8.73,21.973 c -1.68,7.656 -3.38,15.312 -5.06,22.969 -1.69,-7.657 -3.37,-15.313 -5.05,-22.969 l -8.73,-21.973 0.23,-0.457 13.55,8.192"
         style="fill:#000000;fill-opacity:1;fill-rule:nonzero;stroke:none"
         id="path156" /><path
         d="M 1848.96,855.938 V 735"
         style="fill:#ffffff;fill-opacity:1;fill-rule:nonzero;stroke:none"
         id="path158" /><path
         d="M 1848.96,855.938 V 735"
         style="fill:none;stroke:#000000;stroke-width:5;stroke-linecap:butt;stroke-linejoin:miter;stroke-miterlimit:4;stroke-dasharray:none;stroke-opacity:1"
         id="path160" /><g
         id="g162"
         transform="scale(10)"><text
           transform="matrix(1,0,0,-1,78.1246,82.5074)"
           style="font-variant:normal;font-weight:normal;font-size:8px;font-family:'Times New Roman';-inkscape-font-specification:Times-Roman;writing-mode:lr-tb;fill:#231f20;fill-opacity:1;fill-rule:nonzero;stroke:none"
           id="text166"><tspan
             x="0"
             y="0"
             id="tspan164">–</tspan></text><text
           transform="matrix(1,0,0,-1,82.1246,82.5074)"
           style="font-style:italic;font-variant:normal;font-size:8px;font-family:'Times New Roman';-inkscape-font-specification:Times-Italic;writing-mode:lr-tb;fill:#231f20;fill-opacity:1;fill-rule:nonzero;stroke:none"
           id="text170"><tspan
             x="0"
             y="0"
             id="tspan168">r</tspan></text></g><path
         d="m 1498.34,835 13.1,-19.766 -0.67,-0.484 -33.54,11.816 c -11.6,2.079 -23.21,4.164 -34.81,6.243 11.41,2.988 22.81,5.964 34.22,8.945 l 32.5,14.418 0.71,-0.332 -11.51,-20.84"
         style="fill:#80d6f7;fill-opacity:1;fill-rule:nonzero;stroke:none"
         id="path172" /><path
         d="m 1145,838.336 13.11,-19.766 -0.68,-0.484 -33.54,11.816 c -11.6,2.075 -23.2,4.164 -34.8,6.243 11.4,2.988 22.81,5.964 34.21,8.945 l 32.51,14.418 0.71,-0.332 -11.52,-20.84"
         style="fill:#80d6f7;fill-opacity:1;fill-rule:nonzero;stroke:none"
         id="path174" /><path
         d="m 1503.51,975.73 -12.5,20.149 0.68,0.465 33.17,-12.813 c 11.53,-2.418 23.07,-4.855 34.61,-7.281 -11.5,-2.645 -22.99,-5.277 -34.47,-7.914 l -32.93,-13.441 -0.69,0.355 12.13,20.48"
         style="fill:#80d6f7;fill-opacity:1;fill-rule:nonzero;stroke:none"
         id="path176" /><path
         d="m 1181.6,975.117 -12.5,20.149 0.68,0.461 33.17,-12.813 c 11.54,-2.414 23.07,-4.851 34.61,-7.277 -11.5,-2.649 -22.99,-5.282 -34.47,-7.918 l -32.93,-13.442 -0.69,0.356 12.13,20.484"
         style="fill:#80d6f7;fill-opacity:1;fill-rule:nonzero;stroke:none"
         id="path178" /></g></g></svg>
