<?xml version="1.0" encoding="UTF-8" standalone="no"?>
<svg
   xmlns:dc="http://purl.org/dc/elements/1.1/"
   xmlns:cc="http://creativecommons.org/ns#"
   xmlns:rdf="http://www.w3.org/1999/02/22-rdf-syntax-ns#"
   xmlns:svg="http://www.w3.org/2000/svg"
   xmlns="http://www.w3.org/2000/svg"
   version="1.1"
   id="svg2"
   xml:space="preserve"
   width="238.66667"
   height="168"
   viewBox="0 0 238.66667 168"><metadata
     id="metadata8"><rdf:RDF><cc:Work
         rdf:about=""><dc:format>image/svg+xml</dc:format><dc:type
           rdf:resource="http://purl.org/dc/dcmitype/StillImage" /></cc:Work></rdf:RDF></metadata><defs
     id="defs6" /><g
     id="g10"
     transform="matrix(1.3333333,0,0,-1.3333333,0,168)"><g
       id="g12"
       transform="scale(0.1)"><path
         d="m 95.1602,238.438 c 0,0 434.4688,26.214 570.0348,199.765 135.571,173.559 182.328,299.805 255.532,176.656 73.199,-123.156 83.843,-538.9645 82.823,-608.41759 0,0 20.75,471.03859 44.33,526.66759 23.57,55.625 -11.32,244.786 652.17,311.918"
         style="fill:none;stroke:#80d6f7;stroke-width:10;stroke-linecap:butt;stroke-linejoin:miter;stroke-miterlimit:4;stroke-dasharray:none;stroke-opacity:1"
         id="path14" /><path
         d="m 1694.98,844.516 -12.71,16.824 0.56,0.469 30.4,-8.657 c 10.41,-1.211 20.82,-2.422 31.23,-3.632 -9.95,-3.266 -19.91,-6.536 -29.87,-9.809 l -28.05,-14.566 -0.64,0.246 9.08,19.125"
         style="fill:#80d6f7;fill-opacity:1;fill-rule:nonzero;stroke:none"
         id="path16" /><path
         d="m 100.254,238.746 12.016,-17.324 -0.59,-0.445 -30.0198,9.878 c -10.3516,1.629 -20.7071,3.262 -31.0586,4.891 10.082,2.867 20.1601,5.731 30.2422,8.594 l 28.6212,13.418 0.629,-0.274 -9.84,-18.738"
         style="fill:#80d6f7;fill-opacity:1;fill-rule:nonzero;stroke:none"
         id="path18" /><path
         d="M 863.711,1086.42 V 46.2695"
         style="fill:none;stroke:#000000;stroke-width:7.5;stroke-linecap:butt;stroke-linejoin:miter;stroke-miterlimit:4;stroke-dasharray:none;stroke-opacity:1"
         id="path20" /><path
         d="m 863.711,1080.68 -20.27,-12.32 -0.457,0.69 13.129,33.04 c 2.532,11.52 5.063,23.03 7.598,34.55 2.535,-11.52 5.062,-23.03 7.598,-34.55 l 13.129,-33.04 -0.344,-0.69 -20.383,12.32"
         style="fill:#000000;fill-opacity:1;fill-rule:nonzero;stroke:none"
         id="path22" /><path
         d="M 863.711,63.9492 883.98,76.2695 884.438,75.582 871.309,42.5352 C 868.777,31.0195 866.246,19.5078 863.711,7.99219 861.176,19.5078 858.648,31.0195 856.113,42.5352 l -13.129,33.0468 0.348,0.6875 20.379,-12.3203"
         style="fill:#000000;fill-opacity:1;fill-rule:nonzero;stroke:none"
         id="path24" /><path
         d="M 56.0625,579.668 H 1662.84"
         style="fill:none;stroke:#000000;stroke-width:7.5;stroke-linecap:butt;stroke-linejoin:miter;stroke-miterlimit:4;stroke-dasharray:none;stroke-opacity:1"
         id="path26" /><path
         d="m 1657.11,579.668 -12.32,20.266 0.68,0.457 33.05,-13.125 c 11.52,-2.532 23.03,-5.071 34.54,-7.598 -11.51,-2.539 -23.02,-5.066 -34.54,-7.598 l -33.05,-13.132 -0.68,0.351 12.32,20.379"
         style="fill:#000000;fill-opacity:1;fill-rule:nonzero;stroke:none"
         id="path28" /><path
         d="m 61.6211,579.656 12.3203,-20.261 -0.6875,-0.457 -33.0508,13.125 c -11.5117,2.527 -23.0234,5.066 -34.53904,7.593 11.51564,2.539 23.02734,5.071 34.53904,7.602 l 33.0508,13.133 0.6875,-0.352 -12.3203,-20.383"
         style="fill:#000000;fill-opacity:1;fill-rule:nonzero;stroke:none"
         id="path30" /><g
         id="g32"
         transform="scale(10)"><text
           transform="matrix(1,0,0,-1,176.118,55.3027)"
           style="font-style:italic;font-variant:normal;font-size:8px;font-family:'Times New Roman';-inkscape-font-specification:Times-Italic;writing-mode:lr-tb;fill:#231f20;fill-opacity:1;fill-rule:nonzero;stroke:none"
           id="text38"><tspan
             x="0"
             y="0"
             id="tspan34">t</tspan><tspan
             x="-92.746498"
             y="-62.672298"
             id="tspan36">s</tspan></text></g><g
         id="g40"
         transform="scale(10)"><text
           transform="matrix(1,0,0,-1,72.1582,99.6273)"
           style="font-variant:normal;font-weight:normal;font-size:8px;font-family:'Times New Roman';-inkscape-font-specification:Times-Roman;writing-mode:lr-tb;fill:#000000;fill-opacity:1;fill-rule:nonzero;stroke:none"
           id="text50"><tspan
             x="0 4 6"
             y="0"
             id="tspan42">0.5</tspan><tspan
             x="-4 0 4 6"
             y="88.333603"
             id="tspan44">–0.5</tspan><tspan
             x="-66.332802 -62.332802 -58.332802"
             y="53.333599"
             id="tspan46">–10</tspan><tspan
             x="-27.666401 -23.666401 48.333599 81.333603 85.333603"
             y="55.000011"
             id="tspan48">–5510</tspan></text></g><path
         d="m 832.004,1023.77 h 30"
         style="fill:none;stroke:#000000;stroke-width:5;stroke-linecap:butt;stroke-linejoin:miter;stroke-miterlimit:4;stroke-dasharray:none;stroke-opacity:1"
         id="path52" /><path
         d="m 832.004,136.27 h 30"
         style="fill:none;stroke:#000000;stroke-width:5;stroke-linecap:butt;stroke-linejoin:miter;stroke-miterlimit:4;stroke-dasharray:none;stroke-opacity:1"
         id="path54" /><path
         d="m 1224.06,574.605 v -30"
         style="fill:none;stroke:#000000;stroke-width:5;stroke-linecap:butt;stroke-linejoin:miter;stroke-miterlimit:4;stroke-dasharray:none;stroke-opacity:1"
         id="path56" /><path
         d="m 1583.91,574.605 v -30"
         style="fill:none;stroke:#000000;stroke-width:5;stroke-linecap:butt;stroke-linejoin:miter;stroke-miterlimit:4;stroke-dasharray:none;stroke-opacity:1"
         id="path58" /><path
         d="m 147.055,574.605 v -30"
         style="fill:none;stroke:#000000;stroke-width:5;stroke-linecap:butt;stroke-linejoin:miter;stroke-miterlimit:4;stroke-dasharray:none;stroke-opacity:1"
         id="path60" /><path
         d="m 506.91,574.605 v -30"
         style="fill:none;stroke:#000000;stroke-width:5;stroke-linecap:butt;stroke-linejoin:miter;stroke-miterlimit:4;stroke-dasharray:none;stroke-opacity:1"
         id="path62" /><g
         id="g64"
         transform="scale(10)"><text
           transform="matrix(1,0,0,-1,111.067,94.4945)"
           style="font-style:italic;font-variant:normal;font-size:8px;font-family:'Times New Roman';-inkscape-font-specification:Times-Italic;writing-mode:lr-tb;fill:#231f20;fill-opacity:1;fill-rule:nonzero;stroke:none"
           id="text68"><tspan
             x="0 3.112"
             y="0"
             id="tspan66">s </tspan></text><text
           transform="matrix(1,0,0,-1,116.17911,94.4945)"
           style="font-variant:normal;font-weight:normal;font-size:8px;font-family:Symbol;-inkscape-font-specification:Symbol;writing-mode:lr-tb;fill:#231f20;fill-opacity:1;fill-rule:nonzero;stroke:none"
           id="text72"><tspan
             x="0 4.3920002"
             y="0"
             id="tspan70">= </tspan></text><text
           transform="matrix(1,0,0,-1,122.5713,94.4945)"
           style="font-style:italic;font-variant:normal;font-size:8px;font-family:'Times New Roman';-inkscape-font-specification:Times-Italic;writing-mode:lr-tb;fill:#231f20;fill-opacity:1;fill-rule:nonzero;stroke:none"
           id="text76"><tspan
             x="0 4 6.664 8.8879995"
             y="0"
             id="tspan74">g(t)</tspan></text></g></g></g></svg>
