<?xml version="1.0" encoding="UTF-8" standalone="no"?>
<svg
   xmlns:dc="http://purl.org/dc/elements/1.1/"
   xmlns:cc="http://creativecommons.org/ns#"
   xmlns:rdf="http://www.w3.org/1999/02/22-rdf-syntax-ns#"
   xmlns:svg="http://www.w3.org/2000/svg"
   xmlns="http://www.w3.org/2000/svg"
   version="1.1"
   id="svg2"
   xml:space="preserve"
   width="342.66666"
   height="318.66666"
   viewBox="0 0 342.66666 318.66666"><metadata
     id="metadata8"><rdf:RDF><cc:Work
         rdf:about=""><dc:format>image/svg+xml</dc:format><dc:type
           rdf:resource="http://purl.org/dc/dcmitype/StillImage" /></cc:Work></rdf:RDF></metadata><defs
     id="defs6" /><g
     id="g10"
     transform="matrix(1.3333333,0,0,-1.3333333,0,318.66667)"><g
       id="g12"
       transform="scale(0.1)"><path
         d="m 232.301,1102.61 c 146.664,456.67 566.664,463.34 660,463.34 306.659,0 513.329,-236.9 513.329,-463.34 0,-226.434 -206.67,-436.665 -500.001,-436.665 -106.664,0 -586.664,-13.332 -673.328,436.665"
         style="fill:none;stroke:#80d6f7;stroke-width:10;stroke-linecap:butt;stroke-linejoin:miter;stroke-miterlimit:4;stroke-dasharray:none;stroke-opacity:1"
         id="path14" /><path
         d="m 232.301,1102.61 c -100,643.34 486.664,950 893.329,950 700,0 1075.61,-464.57 1075.61,-950 0,-485.419 -382.28,-949.997 -1075.61,-949.997 -413.329,0 -993.329,306.668 -893.329,949.997"
         style="fill:none;stroke:#80d6f7;stroke-width:10;stroke-linecap:butt;stroke-linejoin:miter;stroke-miterlimit:4;stroke-dasharray:none;stroke-opacity:1"
         id="path16" /><path
         d="m 1014.2,2210.8 -20.274,-12.31 -0.457,0.69 13.131,33.04 c 2.53,11.51 5.06,23.03 7.6,34.55 2.53,-11.52 5.06,-23.04 7.59,-34.55 l 13.13,-33.04 -0.35,-0.69 -20.37,12.31"
         style="fill:#000000;fill-opacity:1;fill-rule:nonzero;stroke:none"
         id="path18" /><path
         d="M 1014.2,2216.55 V 9.28125"
         style="fill:none;stroke:#000000;stroke-width:7.5;stroke-linecap:butt;stroke-linejoin:miter;stroke-miterlimit:4;stroke-dasharray:none;stroke-opacity:1"
         id="path20" /><path
         d="M 2438.97,1100.9 H 5.62891"
         style="fill:none;stroke:#000000;stroke-width:7.5;stroke-linecap:round;stroke-linejoin:round;stroke-miterlimit:4;stroke-dasharray:none;stroke-opacity:1"
         id="path22" /><path
         d="m 2427.82,1100.91 -12.32,20.26 0.69,0.46 33.05,-13.12 c 11.51,-2.53 23.03,-5.07 34.54,-7.6 -11.51,-2.54 -23.03,-5.07 -34.54,-7.6 l -33.05,-13.13 -0.69,0.35 12.32,20.38"
         style="fill:#000000;fill-opacity:1;fill-rule:nonzero;stroke:none"
         id="path24" /><g
         id="g26"
         transform="scale(10)"><text
           transform="matrix(1,0,0,-1,252.189,108.104)"
           style="font-style:italic;font-variant:normal;font-size:8px;font-family:'Times New Roman';-inkscape-font-specification:Times-Italic;writing-mode:lr-tb;fill:#231f20;fill-opacity:1;fill-rule:nonzero;stroke:none"
           id="text32"><tspan
             x="0"
             y="0"
             id="tspan28">u</tspan><tspan
             x="-153.77"
             y="-122.884"
             id="tspan30">v</tspan></text></g><path
         d="M 984.301,1298.86 H 1044.3"
         style="fill:none;stroke:#000000;stroke-width:5;stroke-linecap:butt;stroke-linejoin:miter;stroke-miterlimit:4;stroke-dasharray:none;stroke-opacity:1"
         id="path34" /><path
         d="M 984.301,1496.06 H 1044.3"
         style="fill:none;stroke:#000000;stroke-width:5;stroke-linecap:butt;stroke-linejoin:miter;stroke-miterlimit:4;stroke-dasharray:none;stroke-opacity:1"
         id="path36" /><path
         d="M 984.301,1693.26 H 1044.3"
         style="fill:none;stroke:#000000;stroke-width:5;stroke-linecap:butt;stroke-linejoin:miter;stroke-miterlimit:4;stroke-dasharray:none;stroke-opacity:1"
         id="path38" /><path
         d="M 984.301,1890.46 H 1044.3"
         style="fill:none;stroke:#000000;stroke-width:5;stroke-linecap:butt;stroke-linejoin:miter;stroke-miterlimit:4;stroke-dasharray:none;stroke-opacity:1"
         id="path40" /><path
         d="M 984.301,2087.66 H 1044.3"
         style="fill:none;stroke:#000000;stroke-width:5;stroke-linecap:butt;stroke-linejoin:miter;stroke-miterlimit:4;stroke-dasharray:none;stroke-opacity:1"
         id="path42" /><path
         d="M 984.301,913.039 H 1044.3"
         style="fill:none;stroke:#000000;stroke-width:5;stroke-linecap:butt;stroke-linejoin:miter;stroke-miterlimit:4;stroke-dasharray:none;stroke-opacity:1"
         id="path44" /><path
         d="M 984.301,715.836 H 1044.3"
         style="fill:none;stroke:#000000;stroke-width:5;stroke-linecap:butt;stroke-linejoin:miter;stroke-miterlimit:4;stroke-dasharray:none;stroke-opacity:1"
         id="path46" /><path
         d="M 984.301,518.637 H 1044.3"
         style="fill:none;stroke:#000000;stroke-width:5;stroke-linecap:butt;stroke-linejoin:miter;stroke-miterlimit:4;stroke-dasharray:none;stroke-opacity:1"
         id="path48" /><path
         d="M 984.301,321.438 H 1044.3"
         style="fill:none;stroke:#000000;stroke-width:5;stroke-linecap:butt;stroke-linejoin:miter;stroke-miterlimit:4;stroke-dasharray:none;stroke-opacity:1"
         id="path50" /><path
         d="M 984.301,124.238 H 1044.3"
         style="fill:none;stroke:#000000;stroke-width:5;stroke-linecap:butt;stroke-linejoin:miter;stroke-miterlimit:4;stroke-dasharray:none;stroke-opacity:1"
         id="path52" /><path
         d="m 1205.22,1133.95 v -60"
         style="fill:none;stroke:#000000;stroke-width:5;stroke-linecap:butt;stroke-linejoin:miter;stroke-miterlimit:4;stroke-dasharray:none;stroke-opacity:1"
         id="path54" /><path
         d="m 1402.42,1133.95 v -60"
         style="fill:none;stroke:#000000;stroke-width:5;stroke-linecap:butt;stroke-linejoin:miter;stroke-miterlimit:4;stroke-dasharray:none;stroke-opacity:1"
         id="path56" /><path
         d="m 1599.62,1133.95 v -60"
         style="fill:none;stroke:#000000;stroke-width:5;stroke-linecap:butt;stroke-linejoin:miter;stroke-miterlimit:4;stroke-dasharray:none;stroke-opacity:1"
         id="path58" /><path
         d="m 1796.82,1133.95 v -60"
         style="fill:none;stroke:#000000;stroke-width:5;stroke-linecap:butt;stroke-linejoin:miter;stroke-miterlimit:4;stroke-dasharray:none;stroke-opacity:1"
         id="path60" /><path
         d="m 1994.02,1133.95 v -60"
         style="fill:none;stroke:#000000;stroke-width:5;stroke-linecap:butt;stroke-linejoin:miter;stroke-miterlimit:4;stroke-dasharray:none;stroke-opacity:1"
         id="path62" /><path
         d="m 2194.02,1133.95 v -60"
         style="fill:none;stroke:#000000;stroke-width:5;stroke-linecap:butt;stroke-linejoin:miter;stroke-miterlimit:4;stroke-dasharray:none;stroke-opacity:1"
         id="path64" /><path
         d="m 819.395,1133.95 v -60"
         style="fill:none;stroke:#000000;stroke-width:5;stroke-linecap:butt;stroke-linejoin:miter;stroke-miterlimit:4;stroke-dasharray:none;stroke-opacity:1"
         id="path66" /><path
         d="m 622.191,1133.95 v -60"
         style="fill:none;stroke:#000000;stroke-width:5;stroke-linecap:butt;stroke-linejoin:miter;stroke-miterlimit:4;stroke-dasharray:none;stroke-opacity:1"
         id="path68" /><path
         d="m 424.996,1133.95 v -60"
         style="fill:none;stroke:#000000;stroke-width:5;stroke-linecap:butt;stroke-linejoin:miter;stroke-miterlimit:4;stroke-dasharray:none;stroke-opacity:1"
         id="path70" /><path
         d="m 227.793,1133.95 v -60"
         style="fill:none;stroke:#000000;stroke-width:5;stroke-linecap:butt;stroke-linejoin:miter;stroke-miterlimit:4;stroke-dasharray:none;stroke-opacity:1"
         id="path72" /><g
         id="g74"
         transform="scale(10)"><text
           transform="matrix(1,0,0,-1,90.8965,205.928)"
           style="font-variant:normal;font-weight:normal;font-size:8px;font-family:'Times New Roman';-inkscape-font-specification:Times-Roman;writing-mode:lr-tb;fill:#000000;fill-opacity:1;fill-rule:nonzero;stroke:none"
           id="text98"><tspan
             x="0 4"
             y="0"
             id="tspan76">5</tspan><tspan
             x="0 4"
             y="20"
             id="tspan78">4</tspan><tspan
             x="0 4"
             y="40"
             id="tspan80">3</tspan><tspan
             x="0 4"
             y="60"
             id="tspan82">2</tspan><tspan
             x="0"
             y="80"
             id="tspan84">1</tspan><tspan
             x="-4 0 4"
             y="116.3336"
             id="tspan86">–1</tspan><tspan
             x="-4 0 4"
             y="136.3336"
             id="tspan88">–2</tspan><tspan
             x="-4 0 4"
             y="156.3336"
             id="tspan90">–3</tspan><tspan
             x="-4 0 4"
             y="176.3336"
             id="tspan92">–4</tspan><tspan
             x="-4 0"
             y="196.3336"
             id="tspan94">–5</tspan><tspan
             x="-78.166397 -74.166397 -54.333599 -50.333599 -35.000401 -31.000401 -15.6676 -11.6676 27.92264 50.666401 66.999603 86.832397 106.8324 130.1656"
             y="107.6668"
             id="tspan96">–4–3–2–1123456</tspan></text></g></g></g></svg>
