<?xml version="1.0" encoding="UTF-8" standalone="no"?>
<svg
   xmlns:dc="http://purl.org/dc/elements/1.1/"
   xmlns:cc="http://creativecommons.org/ns#"
   xmlns:rdf="http://www.w3.org/1999/02/22-rdf-syntax-ns#"
   xmlns:svg="http://www.w3.org/2000/svg"
   xmlns="http://www.w3.org/2000/svg"
   version="1.1"
   id="svg2"
   xml:space="preserve"
   width="316"
   height="110.66667"
   viewBox="0 0 316 110.66667"><metadata
     id="metadata8"><rdf:RDF><cc:Work
         rdf:about=""><dc:format>image/svg+xml</dc:format><dc:type
           rdf:resource="http://purl.org/dc/dcmitype/StillImage" /></cc:Work></rdf:RDF></metadata><defs
     id="defs6" /><g
     id="g10"
     transform="matrix(1.3333333,0,0,-1.3333333,0,110.66667)"><g
       id="g12"
       transform="scale(0.1)"><path
         d="m 1796.82,250.941 c 35.16,33.262 90.89,80.907 47.04,129.934 -28.23,31.566 -90.94,36.832 -128.92,52.809 -92.28,38.828 -73.24,146.613 8.81,179.113 154.82,61.324 356.8,-34.852 414.38,-174.324 26.05,-63.106 -4.87,-138.926 -38.36,-197.145 -37.59,-65.367 -77.14,-59.43 -134.63,-110.605 -61.25,-54.5316 -238.35,-135.41441 -231.08,-33.7816 6.03,84.2696 23.56,91.5156 62.76,153.9996"
         style="fill:#cceffc;fill-opacity:1;fill-rule:nonzero;stroke:none"
         id="path14" /><path
         d="m 1796.82,250.941 c 35.16,33.262 90.89,80.907 47.04,129.934 -28.23,31.566 -90.94,36.832 -128.92,52.809 -92.28,38.828 -73.24,146.613 8.81,179.113 154.82,61.324 356.8,-34.852 414.38,-174.324 26.05,-63.106 -4.87,-138.926 -38.36,-197.145 -37.59,-65.367 -77.14,-59.43 -134.63,-110.605 -61.25,-54.5316 -238.35,-135.41441 -231.08,-33.7816 6.03,84.2696 23.56,91.5156 62.76,153.9996"
         style="fill:none;stroke:#80d6f7;stroke-width:10;stroke-linecap:butt;stroke-linejoin:miter;stroke-miterlimit:4;stroke-dasharray:none;stroke-opacity:1"
         id="path16" /><path
         d="M 152.207,438.484 C 110.895,369.082 -12.1055,327.48 17.5742,227.148 33.375,173.734 60.4297,121.324 99.3086,82.6367 166.598,15.6875 292.871,14.2148 373.414,63.3984 c 67.488,41.2146 76.777,81.0426 148.934,115.5506 35.027,16.75 77.824,20.946 114.215,42.891 59.074,35.633 90.285,97.39 122.597,156.367 35.254,64.344 44.922,93.352 8.547,161.035 C 742.258,586.598 693.73,662.355 642.816,684.922 525.879,736.75 503.254,746.254 373.414,698.164 322.906,679.457 219.613,624.633 214.723,573.137 211.938,543.789 167.109,437.195 142.59,428.871"
         style="fill:#cceffc;fill-opacity:1;fill-rule:nonzero;stroke:none"
         id="path18" /><path
         d="M 152.207,438.484 C 110.895,369.082 -12.1055,327.48 17.5742,227.148 33.375,173.734 60.4297,121.324 99.3086,82.6367 166.598,15.6875 292.871,14.2148 373.414,63.3984 c 67.488,41.2146 76.777,81.0426 148.934,115.5506 35.027,16.75 77.824,20.946 114.215,42.891 59.074,35.633 90.285,97.39 122.597,156.367 35.254,64.344 44.922,93.352 8.547,161.035 C 742.258,586.598 693.73,662.355 642.816,684.922 525.879,736.75 503.254,746.254 373.414,698.164 322.906,679.457 219.613,624.633 214.723,573.137 211.938,543.789 167.109,437.195 142.59,428.871"
         style="fill:none;stroke:#80d6f7;stroke-width:10;stroke-linecap:butt;stroke-linejoin:miter;stroke-miterlimit:4;stroke-dasharray:none;stroke-opacity:1"
         id="path20" /><path
         d="M 24.1836,101.91 H 801.316"
         style="fill:none;stroke:#231f20;stroke-width:7.5;stroke-linecap:butt;stroke-linejoin:miter;stroke-miterlimit:4;stroke-dasharray:none;stroke-opacity:1"
         id="path22" /><g
         id="g24"
         transform="scale(10)"><text
           transform="matrix(1,0,0,-1,10.7008,75.4254)"
           style="font-style:italic;font-variant:normal;font-size:8px;font-family:'Times New Roman';-inkscape-font-specification:Times-Italic;writing-mode:lr-tb;fill:#231f20;fill-opacity:1;fill-rule:nonzero;stroke:none"
           id="text28"><tspan
             x="0"
             y="0"
             id="tspan26">y</tspan></text></g><path
         d="M 124.766,675.355 V 3.20313"
         style="fill:none;stroke:#231f20;stroke-width:7.5;stroke-linecap:butt;stroke-linejoin:miter;stroke-miterlimit:4;stroke-dasharray:none;stroke-opacity:1"
         id="path30" /><path
         d="m 124.609,726.281 c 0,0 1.621,-35.297 17.637,-70 0.449,-0.968 -17.637,11.121 -17.637,11.121 0,0 -17.418,-11.297 -17.32,-11.121 16.598,34.703 17.32,70 17.32,70"
         style="fill:#231f20;fill-opacity:1;fill-rule:nonzero;stroke:none"
         id="path32" /><g
         id="g34"
         transform="scale(10)"><text
           transform="matrix(1,0,0,-1,87.4148,7.91797)"
           style="font-style:italic;font-variant:normal;font-size:8px;font-family:'Times New Roman';-inkscape-font-specification:Times-Italic;writing-mode:lr-tb;fill:#231f20;fill-opacity:1;fill-rule:nonzero;stroke:none"
           id="text38"><tspan
             x="0"
             y="0"
             id="tspan36">x</tspan></text></g><path
         d="m 848.352,102.359 c 0,0 -35.293,-1.613 -70,-17.6363 -0.977,-0.4493 11.113,17.6403 11.113,17.6403 0,0 -11.289,17.41 -11.113,17.325 34.707,-16.606 70,-17.329 70,-17.329"
         style="fill:#231f20;fill-opacity:1;fill-rule:nonzero;stroke:none"
         id="path40" /><path
         d="m 1003.37,501.988 h 329.81"
         style="fill:none;stroke:#231f20;stroke-width:5;stroke-linecap:butt;stroke-linejoin:miter;stroke-miterlimit:4;stroke-dasharray:none;stroke-opacity:1"
         id="path42" /><path
         d="m 1370.81,502.348 c 0,0 -28.23,-1.289 -56,-14.11 -0.78,-0.355 8.89,14.117 8.89,14.117 0,0 -9.03,13.93 -8.89,13.856 27.77,-13.285 56,-13.863 56,-13.863"
         style="fill:#231f20;fill-opacity:1;fill-rule:nonzero;stroke:none"
         id="path44" /><path
         d="m 1471.64,101.91 h 777.14"
         style="fill:none;stroke:#231f20;stroke-width:7.5;stroke-linecap:butt;stroke-linejoin:miter;stroke-miterlimit:4;stroke-dasharray:none;stroke-opacity:1"
         id="path46" /><g
         id="g48"
         transform="scale(10)"><text
           transform="matrix(1,0,0,-1,155.447,75.4254)"
           style="font-style:italic;font-variant:normal;font-size:8px;font-family:'Times New Roman';-inkscape-font-specification:Times-Italic;writing-mode:lr-tb;fill:#231f20;fill-opacity:1;fill-rule:nonzero;stroke:none"
           id="text52"><tspan
             x="0"
             y="0"
             id="tspan50">v</tspan></text></g><path
         d="M 1572.23,675.355 V 3.20313"
         style="fill:none;stroke:#231f20;stroke-width:7.5;stroke-linecap:butt;stroke-linejoin:miter;stroke-miterlimit:4;stroke-dasharray:none;stroke-opacity:1"
         id="path54" /><path
         d="m 1572.07,726.281 c 0,0 1.62,-35.297 17.64,-70 0.45,-0.968 -17.64,11.121 -17.64,11.121 0,0 -17.42,-11.297 -17.32,-11.121 16.6,34.703 17.32,70 17.32,70"
         style="fill:#231f20;fill-opacity:1;fill-rule:nonzero;stroke:none"
         id="path56" /><g
         id="g58"
         transform="scale(10)"><text
           transform="matrix(1,0,0,-1,232.161,7.91797)"
           style="font-style:italic;font-variant:normal;font-size:8px;font-family:'Times New Roman';-inkscape-font-specification:Times-Italic;writing-mode:lr-tb;fill:#231f20;fill-opacity:1;fill-rule:nonzero;stroke:none"
           id="text62"><tspan
             x="0"
             y="0"
             id="tspan60">u</tspan></text></g><path
         d="m 2295.81,102.359 c 0,0 -35.29,-1.613 -70,-17.6363 -0.97,-0.4493 11.12,17.6403 11.12,17.6403 0,0 -11.29,17.41 -11.12,17.325 34.71,-16.606 70,-17.329 70,-17.329"
         style="fill:#231f20;fill-opacity:1;fill-rule:nonzero;stroke:none"
         id="path64" /><g
         id="g66"
         transform="scale(10)"><text
           transform="matrix(1,0,0,-1,85.9391,53.4691)"
           style="font-style:italic;font-variant:normal;font-size:8px;font-family:'Times New Roman';-inkscape-font-specification:Times-Italic;writing-mode:lr-tb;fill:#231f20;fill-opacity:1;fill-rule:nonzero;stroke:none"
           id="text70"><tspan
             x="0"
             y="0"
             id="tspan68">w</tspan></text><text
           transform="matrix(1,0,0,-1,93.27504,53.4691)"
           style="font-variant:normal;font-weight:normal;font-size:8px;font-family:'Times New Roman';-inkscape-font-specification:Times-Roman;writing-mode:lr-tb;fill:#231f20;fill-opacity:1;fill-rule:nonzero;stroke:none"
           id="text74"><tspan
             x="0 4.5120001"
             y="0"
             id="tspan72">= </tspan></text><text
           transform="matrix(1,0,0,-1,99.78715,53.4691)"
           style="font-style:italic;font-variant:normal;font-size:8px;font-family:'Times New Roman';-inkscape-font-specification:Times-Italic;writing-mode:lr-tb;fill:#231f20;fill-opacity:1;fill-rule:nonzero;stroke:none"
           id="text78"><tspan
             x="0"
             y="0"
             id="tspan76">f</tspan></text><text
           transform="matrix(1,0,0,-1,102.81098,53.4691)"
           style="font-variant:normal;font-weight:normal;font-size:8px;font-family:'Times New Roman';-inkscape-font-specification:Times-Roman;writing-mode:lr-tb;fill:#231f20;fill-opacity:1;fill-rule:nonzero;stroke:none"
           id="text82"><tspan
             x="0"
             y="0"
             id="tspan80">(</tspan></text><text
           transform="matrix(1,0,0,-1,105.47504,53.4691)"
           style="font-style:italic;font-variant:normal;font-size:8px;font-family:'Times New Roman';-inkscape-font-specification:Times-Italic;writing-mode:lr-tb;fill:#231f20;fill-opacity:1;fill-rule:nonzero;stroke:none"
           id="text86"><tspan
             x="0"
             y="0"
             id="tspan84">z</tspan></text><text
           transform="matrix(1,0,0,-1,108.58715,53.4691)"
           style="font-variant:normal;font-weight:normal;font-size:8px;font-family:'Times New Roman';-inkscape-font-specification:Times-Roman;writing-mode:lr-tb;fill:#231f20;fill-opacity:1;fill-rule:nonzero;stroke:none"
           id="text90"><tspan
             x="0 2.664 4.664 9.1759996"
             y="0"
             id="tspan88">) = </tspan></text><text
           transform="matrix(1,0,0,-1,119.76335,53.4691)"
           style="font-style:italic;font-variant:normal;font-size:8px;font-family:'Times New Roman';-inkscape-font-specification:Times-Italic;writing-mode:lr-tb;fill:#231f20;fill-opacity:1;fill-rule:nonzero;stroke:none"
           id="text94"><tspan
             x="0"
             y="0"
             id="tspan92">u</tspan></text><text
           transform="matrix(1,0,0,-1,125.76335,53.4691)"
           style="font-variant:normal;font-weight:normal;font-size:8px;font-family:'Times New Roman';-inkscape-font-specification:Times-Roman;writing-mode:lr-tb;fill:#231f20;fill-opacity:1;fill-rule:nonzero;stroke:none"
           id="text98"><tspan
             x="0 4.5120001"
             y="0"
             id="tspan96">+ </tspan></text><text
           transform="matrix(1,0,0,-1,132.27546,53.4691)"
           style="font-style:italic;font-variant:normal;font-size:8px;font-family:'Times New Roman';-inkscape-font-specification:Times-Italic;writing-mode:lr-tb;fill:#231f20;fill-opacity:1;fill-rule:nonzero;stroke:none"
           id="text104"><tspan
             x="0 2.224"
             y="0"
             id="tspan100">iv</tspan><tspan
             x="-29.4004"
             y="12.375"
             id="tspan102">u</tspan></text><text
           transform="matrix(1,0,0,-1,108.87506,41.0941)"
           style="font-variant:normal;font-weight:normal;font-size:8px;font-family:'Times New Roman';-inkscape-font-specification:Times-Roman;writing-mode:lr-tb;fill:#231f20;fill-opacity:1;fill-rule:nonzero;stroke:none"
           id="text108"><tspan
             x="0 4.5120001"
             y="0"
             id="tspan106">= </tspan></text><text
           transform="matrix(1,0,0,-1,115.38717,41.0941)"
           style="font-style:italic;font-variant:normal;font-size:8px;font-family:'Times New Roman';-inkscape-font-specification:Times-Italic;writing-mode:lr-tb;fill:#231f20;fill-opacity:1;fill-rule:nonzero;stroke:none"
           id="text112"><tspan
             x="0"
             y="0"
             id="tspan110">u</tspan></text><text
           transform="matrix(1,0,0,-1,119.38717,41.0941)"
           style="font-variant:normal;font-weight:normal;font-size:8px;font-family:'Times New Roman';-inkscape-font-specification:Times-Roman;writing-mode:lr-tb;fill:#231f20;fill-opacity:1;fill-rule:nonzero;stroke:none"
           id="text116"><tspan
             x="0"
             y="0"
             id="tspan114">(</tspan></text><text
           transform="matrix(1,0,0,-1,122.05123,41.0941)"
           style="font-style:italic;font-variant:normal;font-size:8px;font-family:'Times New Roman';-inkscape-font-specification:Times-Italic;writing-mode:lr-tb;fill:#231f20;fill-opacity:1;fill-rule:nonzero;stroke:none"
           id="text120"><tspan
             x="0"
             y="0"
             id="tspan118">x</tspan></text><text
           transform="matrix(1,0,0,-1,125.60318,41.0941)"
           style="font-variant:normal;font-weight:normal;font-size:8px;font-family:'Times New Roman';-inkscape-font-specification:Times-Roman;writing-mode:lr-tb;fill:#231f20;fill-opacity:1;fill-rule:nonzero;stroke:none"
           id="text124"><tspan
             x="0 2"
             y="0"
             id="tspan122">, </tspan></text><text
           transform="matrix(1,0,0,-1,129.60318,41.0941)"
           style="font-style:italic;font-variant:normal;font-size:8px;font-family:'Times New Roman';-inkscape-font-specification:Times-Italic;writing-mode:lr-tb;fill:#231f20;fill-opacity:1;fill-rule:nonzero;stroke:none"
           id="text128"><tspan
             x="0"
             y="0"
             id="tspan126">y</tspan></text><text
           transform="matrix(1,0,0,-1,133.15513,41.0941)"
           style="font-variant:normal;font-weight:normal;font-size:8px;font-family:'Times New Roman';-inkscape-font-specification:Times-Roman;writing-mode:lr-tb;fill:#231f20;fill-opacity:1;fill-rule:nonzero;stroke:none"
           id="text132"><tspan
             x="0 2.664"
             y="0"
             id="tspan130">) </tspan></text><text
           transform="matrix(1,0,0,-1,102.87503,32.2191)"
           style="font-style:italic;font-variant:normal;font-size:8px;font-family:'Times New Roman';-inkscape-font-specification:Times-Italic;writing-mode:lr-tb;fill:#231f20;fill-opacity:1;fill-rule:nonzero;stroke:none"
           id="text136"><tspan
             x="0"
             y="0"
             id="tspan134">v</tspan></text><text
           transform="matrix(1,0,0,-1,108.42698,32.2191)"
           style="font-variant:normal;font-weight:normal;font-size:8px;font-family:'Times New Roman';-inkscape-font-specification:Times-Roman;writing-mode:lr-tb;fill:#231f20;fill-opacity:1;fill-rule:nonzero;stroke:none"
           id="text140"><tspan
             x="0 4.5120001"
             y="0"
             id="tspan138">= </tspan></text><text
           transform="matrix(1,0,0,-1,114.93909,32.2191)"
           style="font-style:italic;font-variant:normal;font-size:8px;font-family:'Times New Roman';-inkscape-font-specification:Times-Italic;writing-mode:lr-tb;fill:#231f20;fill-opacity:1;fill-rule:nonzero;stroke:none"
           id="text144"><tspan
             x="0"
             y="0"
             id="tspan142">v</tspan></text><text
           transform="matrix(1,0,0,-1,118.49104,32.2191)"
           style="font-variant:normal;font-weight:normal;font-size:8px;font-family:'Times New Roman';-inkscape-font-specification:Times-Roman;writing-mode:lr-tb;fill:#231f20;fill-opacity:1;fill-rule:nonzero;stroke:none"
           id="text148"><tspan
             x="0"
             y="0"
             id="tspan146">(</tspan></text><text
           transform="matrix(1,0,0,-1,121.1551,32.2191)"
           style="font-style:italic;font-variant:normal;font-size:8px;font-family:'Times New Roman';-inkscape-font-specification:Times-Italic;writing-mode:lr-tb;fill:#231f20;fill-opacity:1;fill-rule:nonzero;stroke:none"
           id="text152"><tspan
             x="0"
             y="0"
             id="tspan150">x</tspan></text><text
           transform="matrix(1,0,0,-1,124.70705,32.2191)"
           style="font-variant:normal;font-weight:normal;font-size:8px;font-family:'Times New Roman';-inkscape-font-specification:Times-Roman;writing-mode:lr-tb;fill:#231f20;fill-opacity:1;fill-rule:nonzero;stroke:none"
           id="text156"><tspan
             x="0 2"
             y="0"
             id="tspan154">, </tspan></text><text
           transform="matrix(1,0,0,-1,128.70705,32.2191)"
           style="font-style:italic;font-variant:normal;font-size:8px;font-family:'Times New Roman';-inkscape-font-specification:Times-Italic;writing-mode:lr-tb;fill:#231f20;fill-opacity:1;fill-rule:nonzero;stroke:none"
           id="text160"><tspan
             x="0"
             y="0"
             id="tspan158">y</tspan></text><text
           transform="matrix(1,0,0,-1,132.259,32.2191)"
           style="font-variant:normal;font-weight:normal;font-size:8px;font-family:'Times New Roman';-inkscape-font-specification:Times-Roman;writing-mode:lr-tb;fill:#231f20;fill-opacity:1;fill-rule:nonzero;stroke:none"
           id="text166"><tspan
             x="0"
             y="0"
             id="tspan162">)</tspan><tspan
             x="-99.527702 -93.751701 -89.751701 -83.527702 -79.9757 -77.751701"
             y="-6.4570298"
             id="tspan164">Domain</tspan></text><text
           transform="matrix(1,0,0,-1,58.5075,38.67613)"
           style="font-style:italic;font-variant:normal;font-size:8px;font-family:'Times New Roman';-inkscape-font-specification:Times-Italic;writing-mode:lr-tb;fill:#231f20;fill-opacity:1;fill-rule:nonzero;stroke:none"
           id="text172"><tspan
             x="0"
             y="0"
             id="tspan168"></tspan><tspan
             x="-25.776199"
             y="9.5"
             id="tspan170">D</tspan></text><text
           transform="matrix(1,0,0,-1,188.9153,41.49993)"
           style="font-variant:normal;font-weight:normal;font-size:8px;font-family:'Times New Roman';-inkscape-font-specification:Times-Roman;writing-mode:lr-tb;fill:#231f20;fill-opacity:1;fill-rule:nonzero;stroke:none"
           id="text176"><tspan
             x="0 5.336 8.8879995 12.888 16.888 20.440001"
             y="0"
             id="tspan174">Range</tspan></text><text
           transform="matrix(1,0,0,-1,188.9153,31.99993)"
           style="font-style:italic;font-variant:normal;font-size:8px;font-family:'Times New Roman';-inkscape-font-specification:Times-Italic;writing-mode:lr-tb;fill:#231f20;fill-opacity:1;fill-rule:nonzero;stroke:none"
           id="text180"><tspan
             x="0"
             y="0"
             id="tspan178">R</tspan></text></g></g></g></svg>
