<?xml version="1.0" encoding="UTF-8" standalone="no"?>
<svg
   xmlns:dc="http://purl.org/dc/elements/1.1/"
   xmlns:cc="http://creativecommons.org/ns#"
   xmlns:rdf="http://www.w3.org/1999/02/22-rdf-syntax-ns#"
   xmlns:svg="http://www.w3.org/2000/svg"
   xmlns="http://www.w3.org/2000/svg"
   version="1.1"
   id="svg2"
   xml:space="preserve"
   width="356"
   height="161.33333"
   viewBox="0 0 356 161.33333"><metadata
     id="metadata8"><rdf:RDF><cc:Work
         rdf:about=""><dc:format>image/svg+xml</dc:format><dc:type
           rdf:resource="http://purl.org/dc/dcmitype/StillImage" /></cc:Work></rdf:RDF></metadata><defs
     id="defs6" /><g
     id="g10"
     transform="matrix(1.3333333,0,0,-1.3333333,0,161.33333)"><g
       id="g12"
       transform="scale(0.1)"><path
         d="m 1583.28,562.414 c 0,256.621 208.02,464.646 464.65,464.646 256.61,0 464.64,-208.025 464.64,-464.646 0,-256.617 -208.03,-464.6445 -464.64,-464.6445 -256.63,0 -464.65,208.0275 -464.65,464.6445"
         style="fill:#cceffc;fill-opacity:1;fill-rule:nonzero;stroke:none"
         id="path14" /><path
         d="m 1583.28,562.414 c 0,256.621 208.02,464.646 464.65,464.646 256.61,0 464.64,-208.025 464.64,-464.646 0,-256.617 -208.03,-464.6445 -464.64,-464.6445 -256.63,0 -464.65,208.0275 -464.65,464.6445 z"
         style="fill:none;stroke:#80d6f7;stroke-width:10;stroke-linecap:butt;stroke-linejoin:miter;stroke-miterlimit:4;stroke-dasharray:40, 20;stroke-dashoffset:0;stroke-opacity:1"
         id="path16" /><path
         d="M 2140.43,59.3477 V 1058.08"
         style="fill:none;stroke:#000000;stroke-width:7.5;stroke-linecap:butt;stroke-linejoin:miter;stroke-miterlimit:4;stroke-dasharray:none;stroke-opacity:1"
         id="path18" /><path
         d="m 2140.43,1057.7 -20.26,-12.32 -0.46,0.69 13.13,33.05 c 2.53,11.51 5.06,23.03 7.59,34.54 2.54,-11.51 5.07,-23.03 7.6,-34.54 l 13.13,-33.05 -0.34,-0.69 -20.39,12.32"
         style="fill:#000000;fill-opacity:1;fill-rule:nonzero;stroke:none"
         id="path20" /><path
         d="M 2547.52,278.57 H 1450.25"
         style="fill:none;stroke:#000000;stroke-width:7.5;stroke-linecap:butt;stroke-linejoin:miter;stroke-miterlimit:4;stroke-dasharray:none;stroke-opacity:1"
         id="path22" /><path
         d="m 2547.14,278.57 -12.32,20.262 0.68,0.469 33.05,-13.125 c 11.51,-2.539 23.04,-5.067 34.55,-7.606 -11.51,-2.531 -23.04,-5.058 -34.55,-7.597 l -33.05,-13.125 -0.68,0.34 12.32,20.382"
         style="fill:#000000;fill-opacity:1;fill-rule:nonzero;stroke:none"
         id="path24" /><path
         d="m 2141.31,370.605 h 25"
         style="fill:none;stroke:#000000;stroke-width:5;stroke-linecap:butt;stroke-linejoin:miter;stroke-miterlimit:4;stroke-dasharray:none;stroke-opacity:1"
         id="path26" /><path
         d="m 2141.31,183.941 h 25"
         style="fill:none;stroke:#000000;stroke-width:5;stroke-linecap:butt;stroke-linejoin:miter;stroke-miterlimit:4;stroke-dasharray:none;stroke-opacity:1"
         id="path28" /><path
         d="m 2141.31,463.555 h 25"
         style="fill:none;stroke:#000000;stroke-width:5;stroke-linecap:butt;stroke-linejoin:miter;stroke-miterlimit:4;stroke-dasharray:none;stroke-opacity:1"
         id="path30" /><path
         d="m 2141.31,556.496 h 25"
         style="fill:none;stroke:#000000;stroke-width:5;stroke-linecap:butt;stroke-linejoin:miter;stroke-miterlimit:4;stroke-dasharray:none;stroke-opacity:1"
         id="path32" /><path
         d="m 2141.31,649.441 h 25"
         style="fill:none;stroke:#000000;stroke-width:5;stroke-linecap:butt;stroke-linejoin:miter;stroke-miterlimit:4;stroke-dasharray:none;stroke-opacity:1"
         id="path34" /><path
         d="m 2141.31,742.383 h 25"
         style="fill:none;stroke:#000000;stroke-width:5;stroke-linecap:butt;stroke-linejoin:miter;stroke-miterlimit:4;stroke-dasharray:none;stroke-opacity:1"
         id="path36" /><path
         d="m 2141.31,835.332 h 25"
         style="fill:none;stroke:#000000;stroke-width:5;stroke-linecap:butt;stroke-linejoin:miter;stroke-miterlimit:4;stroke-dasharray:none;stroke-opacity:1"
         id="path38" /><path
         d="m 2141.31,928.273 h 25"
         style="fill:none;stroke:#000000;stroke-width:5;stroke-linecap:butt;stroke-linejoin:miter;stroke-miterlimit:4;stroke-dasharray:none;stroke-opacity:1"
         id="path40" /><path
         d="m 2232.3,282.512 v 25"
         style="fill:none;stroke:#000000;stroke-width:5;stroke-linecap:butt;stroke-linejoin:miter;stroke-miterlimit:4;stroke-dasharray:none;stroke-opacity:1"
         id="path42" /><path
         d="m 2048.96,282.512 v 25"
         style="fill:none;stroke:#000000;stroke-width:5;stroke-linecap:butt;stroke-linejoin:miter;stroke-miterlimit:4;stroke-dasharray:none;stroke-opacity:1"
         id="path44" /><path
         d="m 1957.3,282.512 v 25"
         style="fill:none;stroke:#000000;stroke-width:5;stroke-linecap:butt;stroke-linejoin:miter;stroke-miterlimit:4;stroke-dasharray:none;stroke-opacity:1"
         id="path46" /><path
         d="m 1865.64,282.512 v 25"
         style="fill:none;stroke:#000000;stroke-width:5;stroke-linecap:butt;stroke-linejoin:miter;stroke-miterlimit:4;stroke-dasharray:none;stroke-opacity:1"
         id="path48" /><path
         d="m 1773.97,282.512 v 25"
         style="fill:none;stroke:#000000;stroke-width:5;stroke-linecap:butt;stroke-linejoin:miter;stroke-miterlimit:4;stroke-dasharray:none;stroke-opacity:1"
         id="path50" /><path
         d="m 1682.3,282.512 v 25"
         style="fill:none;stroke:#000000;stroke-width:5;stroke-linecap:butt;stroke-linejoin:miter;stroke-miterlimit:4;stroke-dasharray:none;stroke-opacity:1"
         id="path52" /><path
         d="m 1590.64,282.512 v 25"
         style="fill:none;stroke:#000000;stroke-width:5;stroke-linecap:butt;stroke-linejoin:miter;stroke-miterlimit:4;stroke-dasharray:none;stroke-opacity:1"
         id="path54" /><path
         d="m 1498.98,282.512 v 25"
         style="fill:none;stroke:#000000;stroke-width:5;stroke-linecap:butt;stroke-linejoin:miter;stroke-miterlimit:4;stroke-dasharray:none;stroke-opacity:1"
         id="path56" /><path
         d="m 2323.55,282.512 v 25"
         style="fill:none;stroke:#000000;stroke-width:5;stroke-linecap:butt;stroke-linejoin:miter;stroke-miterlimit:4;stroke-dasharray:none;stroke-opacity:1"
         id="path58" /><path
         d="m 2414.8,282.512 v 25"
         style="fill:none;stroke:#000000;stroke-width:5;stroke-linecap:butt;stroke-linejoin:miter;stroke-miterlimit:4;stroke-dasharray:none;stroke-opacity:1"
         id="path60" /><path
         d="m 2506.05,282.512 v 25"
         style="fill:none;stroke:#000000;stroke-width:5;stroke-linecap:butt;stroke-linejoin:miter;stroke-miterlimit:4;stroke-dasharray:none;stroke-opacity:1"
         id="path62" /><path
         d="m 292.691,184.414 c 0,49.254 39.926,89.18 89.18,89.18 49.254,0 89.18,-39.926 89.18,-89.18 0,-49.254 -39.926,-89.1796 -89.18,-89.1796 -49.254,0 -89.18,39.9256 -89.18,89.1796"
         style="fill:#cceffc;fill-opacity:1;fill-rule:nonzero;stroke:none"
         id="path64" /><path
         d="m 292.691,184.414 c 0,49.254 39.926,89.18 89.18,89.18 49.254,0 89.18,-39.926 89.18,-89.18 0,-49.254 -39.926,-89.1796 -89.18,-89.1796 -49.254,0 -89.18,39.9256 -89.18,89.1796 z"
         style="fill:none;stroke:#80d6f7;stroke-width:10;stroke-linecap:butt;stroke-linejoin:miter;stroke-miterlimit:4;stroke-dasharray:40, 20;stroke-dashoffset:0;stroke-opacity:1"
         id="path66" /><path
         d="m 2065.56,562.145 c 0,-11.047 -8.95,-20 -20,-20 -11.04,0 -20,8.953 -20,20 0,11.043 8.96,20 20,20 11.05,0 20,-8.957 20,-20"
         style="fill:#80d6f7;fill-opacity:1;fill-rule:nonzero;stroke:none"
         id="path68" /><path
         d="m 400.473,182.559 c 0,-11.043 -8.953,-20 -20,-20 -11.043,0 -20,8.957 -20,20 0,11.046 8.957,20 20,20 11.047,0 20,-8.954 20,-20"
         style="fill:#80d6f7;fill-opacity:1;fill-rule:nonzero;stroke:none"
         id="path70" /><g
         id="g72"
         transform="scale(10)"><text
           transform="matrix(1,0,0,-1,212.702,113.935)"
           style="font-style:italic;font-variant:normal;font-size:8px;font-family:'Times New Roman';-inkscape-font-specification:Times-Italic;writing-mode:lr-tb;fill:#231f20;fill-opacity:1;fill-rule:nonzero;stroke:none"
           id="text78"><tspan
             x="0"
             y="0"
             id="tspan74">v</tspan><tspan
             x="50"
             y="87.667198"
             id="tspan76">u</tspan></text></g><path
         d="M 473.77,59.3477 V 1058.08"
         style="fill:none;stroke:#000000;stroke-width:7.5;stroke-linecap:butt;stroke-linejoin:miter;stroke-miterlimit:4;stroke-dasharray:none;stroke-opacity:1"
         id="path80" /><path
         d="m 473.77,1057.7 -20.262,-12.32 -0.465,0.69 13.129,33.05 c 2.527,11.51 5.062,23.03 7.598,34.54 2.535,-11.51 5.062,-23.03 7.597,-34.54 l 13.129,-33.05 -0.348,-0.69 -20.378,12.32"
         style="fill:#000000;fill-opacity:1;fill-rule:nonzero;stroke:none"
         id="path82" /><path
         d="m 473.766,61.5078 20.261,12.3203 0.465,-0.6875 -13.129,-33.0468 C 478.832,28.5781 476.301,17.0625 473.766,5.54688 471.23,17.0625 468.699,28.5781 466.168,40.0938 l -13.133,33.0468 0.348,0.6875 20.383,-12.3203"
         style="fill:#000000;fill-opacity:1;fill-rule:nonzero;stroke:none"
         id="path84" /><path
         d="m 2140.43,61.5078 20.26,12.3203 0.47,-0.6875 -13.13,-33.0468 c -2.53,-11.5157 -5.07,-23.0313 -7.6,-34.54692 -2.54,11.51562 -5.06,23.03122 -7.6,34.54692 l -13.13,33.0468 0.35,0.6875 20.38,-12.3203"
         style="fill:#000000;fill-opacity:1;fill-rule:nonzero;stroke:none"
         id="path86" /><path
         d="M 880.852,278.57 H 62.1836"
         style="fill:none;stroke:#000000;stroke-width:7.5;stroke-linecap:butt;stroke-linejoin:miter;stroke-miterlimit:4;stroke-dasharray:none;stroke-opacity:1"
         id="path88" /><path
         d="m 880.48,278.57 -12.328,20.262 0.688,0.469 33.047,-13.125 c 11.511,-2.539 23.035,-5.067 34.551,-7.606 -11.516,-2.531 -23.04,-5.058 -34.551,-7.597 l -33.047,-13.125 -0.688,0.34 12.328,20.382"
         style="fill:#000000;fill-opacity:1;fill-rule:nonzero;stroke:none"
         id="path90" /><path
         d="m 60.5234,278.578 12.3243,-20.262 -0.6836,-0.468 -33.0469,13.125 c -11.5156,2.539 -23.0391,5.066 -34.55079,7.605 11.51169,2.531 23.03519,5.059 34.55079,7.598 l 33.0469,13.125 0.6836,-0.34 -12.3243,-20.383"
         style="fill:#000000;fill-opacity:1;fill-rule:nonzero;stroke:none"
         id="path92" /><path
         d="m 1447.3,278.578 12.33,-20.262 -0.68,-0.468 -33.05,13.125 c -11.51,2.539 -23.04,5.066 -34.55,7.605 11.51,2.531 23.04,5.059 34.55,7.598 l 33.05,13.125 0.68,-0.34 -12.33,-20.383"
         style="fill:#000000;fill-opacity:1;fill-rule:nonzero;stroke:none"
         id="path94" /><path
         d="m 474.648,370.605 h 25"
         style="fill:none;stroke:#000000;stroke-width:5;stroke-linecap:butt;stroke-linejoin:miter;stroke-miterlimit:4;stroke-dasharray:none;stroke-opacity:1"
         id="path96" /><path
         d="m 474.648,183.941 h 25"
         style="fill:none;stroke:#000000;stroke-width:5;stroke-linecap:butt;stroke-linejoin:miter;stroke-miterlimit:4;stroke-dasharray:none;stroke-opacity:1"
         id="path98" /><path
         d="m 474.648,463.555 h 25"
         style="fill:none;stroke:#000000;stroke-width:5;stroke-linecap:butt;stroke-linejoin:miter;stroke-miterlimit:4;stroke-dasharray:none;stroke-opacity:1"
         id="path100" /><path
         d="m 474.648,556.496 h 25"
         style="fill:none;stroke:#000000;stroke-width:5;stroke-linecap:butt;stroke-linejoin:miter;stroke-miterlimit:4;stroke-dasharray:none;stroke-opacity:1"
         id="path102" /><path
         d="m 474.648,649.441 h 25"
         style="fill:none;stroke:#000000;stroke-width:5;stroke-linecap:butt;stroke-linejoin:miter;stroke-miterlimit:4;stroke-dasharray:none;stroke-opacity:1"
         id="path104" /><path
         d="m 474.648,742.383 h 25"
         style="fill:none;stroke:#000000;stroke-width:5;stroke-linecap:butt;stroke-linejoin:miter;stroke-miterlimit:4;stroke-dasharray:none;stroke-opacity:1"
         id="path106" /><path
         d="m 474.648,835.332 h 25"
         style="fill:none;stroke:#000000;stroke-width:5;stroke-linecap:butt;stroke-linejoin:miter;stroke-miterlimit:4;stroke-dasharray:none;stroke-opacity:1"
         id="path108" /><path
         d="m 474.648,928.273 h 25"
         style="fill:none;stroke:#000000;stroke-width:5;stroke-linecap:butt;stroke-linejoin:miter;stroke-miterlimit:4;stroke-dasharray:none;stroke-opacity:1"
         id="path110" /><path
         d="m 565.637,282.512 v 25"
         style="fill:none;stroke:#000000;stroke-width:5;stroke-linecap:butt;stroke-linejoin:miter;stroke-miterlimit:4;stroke-dasharray:none;stroke-opacity:1"
         id="path112" /><path
         d="m 382.301,282.512 v 25"
         style="fill:none;stroke:#000000;stroke-width:5;stroke-linecap:butt;stroke-linejoin:miter;stroke-miterlimit:4;stroke-dasharray:none;stroke-opacity:1"
         id="path114" /><path
         d="m 290.637,282.512 v 25"
         style="fill:none;stroke:#000000;stroke-width:5;stroke-linecap:butt;stroke-linejoin:miter;stroke-miterlimit:4;stroke-dasharray:none;stroke-opacity:1"
         id="path116" /><path
         d="m 198.969,282.512 v 25"
         style="fill:none;stroke:#000000;stroke-width:5;stroke-linecap:butt;stroke-linejoin:miter;stroke-miterlimit:4;stroke-dasharray:none;stroke-opacity:1"
         id="path118" /><path
         d="m 107.305,282.512 v 25"
         style="fill:none;stroke:#000000;stroke-width:5;stroke-linecap:butt;stroke-linejoin:miter;stroke-miterlimit:4;stroke-dasharray:none;stroke-opacity:1"
         id="path120" /><path
         d="m 656.887,282.512 v 25"
         style="fill:none;stroke:#000000;stroke-width:5;stroke-linecap:butt;stroke-linejoin:miter;stroke-miterlimit:4;stroke-dasharray:none;stroke-opacity:1"
         id="path122" /><path
         d="m 748.137,282.512 v 25"
         style="fill:none;stroke:#000000;stroke-width:5;stroke-linecap:butt;stroke-linejoin:miter;stroke-miterlimit:4;stroke-dasharray:none;stroke-opacity:1"
         id="path124" /><path
         d="m 839.387,282.512 v 25"
         style="fill:none;stroke:#000000;stroke-width:5;stroke-linecap:butt;stroke-linejoin:miter;stroke-miterlimit:4;stroke-dasharray:none;stroke-opacity:1"
         id="path126" /><g
         id="g128"
         transform="scale(10)"><text
           transform="matrix(1,0,0,-1,46.0355,113.935)"
           style="font-style:italic;font-variant:normal;font-size:8px;font-family:'Times New Roman';-inkscape-font-specification:Times-Italic;writing-mode:lr-tb;fill:#231f20;fill-opacity:1;fill-rule:nonzero;stroke:none"
           id="text136"><tspan
             x="0"
             y="0"
             id="tspan130">y</tspan><tspan
             x="50"
             y="87.667198"
             id="tspan132">x</tspan><tspan
             x="64.849998"
             y="52.993"
             id="tspan134">w</tspan></text><text
           transform="matrix(1,0,0,-1,118.22144,60.942)"
           style="font-variant:normal;font-weight:normal;font-size:8px;font-family:'Times New Roman';-inkscape-font-specification:Times-Roman;writing-mode:lr-tb;fill:#231f20;fill-opacity:1;fill-rule:nonzero;stroke:none"
           id="text140"><tspan
             x="0 4.5120001"
             y="0"
             id="tspan138">= </tspan></text><text
           transform="matrix(1,0,0,-1,124.73355,60.942)"
           style="font-style:italic;font-variant:normal;font-size:8px;font-family:'Times New Roman';-inkscape-font-specification:Times-Italic;writing-mode:lr-tb;fill:#231f20;fill-opacity:1;fill-rule:nonzero;stroke:none"
           id="text144"><tspan
             x="0"
             y="0"
             id="tspan142">S</tspan></text><text
           transform="matrix(1,0,0,-1,128.73355,60.942)"
           style="font-variant:normal;font-weight:normal;font-size:8px;font-family:'Times New Roman';-inkscape-font-specification:Times-Roman;writing-mode:lr-tb;fill:#231f20;fill-opacity:1;fill-rule:nonzero;stroke:none"
           id="text148"><tspan
             x="0"
             y="0"
             id="tspan146">(</tspan></text><text
           transform="matrix(1,0,0,-1,131.39761,60.942)"
           style="font-style:italic;font-variant:normal;font-size:8px;font-family:'Times New Roman';-inkscape-font-specification:Times-Italic;writing-mode:lr-tb;fill:#231f20;fill-opacity:1;fill-rule:nonzero;stroke:none"
           id="text152"><tspan
             x="0"
             y="0"
             id="tspan150">z</tspan></text><text
           transform="matrix(1,0,0,-1,134.50972,60.942)"
           style="font-variant:normal;font-weight:normal;font-size:8px;font-family:'Times New Roman';-inkscape-font-specification:Times-Roman;writing-mode:lr-tb;fill:#231f20;fill-opacity:1;fill-rule:nonzero;stroke:none"
           id="text156"><tspan
             x="0"
             y="0"
             id="tspan154">)</tspan></text></g><path
         d="m 1117.23,563.352 h 205.74"
         style="fill:none;stroke:#231f20;stroke-width:5;stroke-linecap:butt;stroke-linejoin:miter;stroke-miterlimit:4;stroke-dasharray:none;stroke-opacity:1"
         id="path158" /><path
         d="m 1317.87,563.352 -10.96,18.015 0.62,0.41 29.37,-11.672 c 10.24,-2.25 20.48,-4.5 30.71,-6.753 -10.23,-2.247 -20.47,-4.504 -30.71,-6.754 l -29.37,-11.664 -0.62,0.3 10.96,18.118"
         style="fill:#231f20;fill-opacity:1;fill-rule:nonzero;stroke:none"
         id="path160" /></g></g></svg>
