<?xml version="1.0" encoding="UTF-8" standalone="no"?>
<svg
   xmlns:dc="http://purl.org/dc/elements/1.1/"
   xmlns:cc="http://creativecommons.org/ns#"
   xmlns:rdf="http://www.w3.org/1999/02/22-rdf-syntax-ns#"
   xmlns:svg="http://www.w3.org/2000/svg"
   xmlns="http://www.w3.org/2000/svg"
   version="1.1"
   id="svg2"
   xml:space="preserve"
   width="318.66666"
   height="133.33333"
   viewBox="0 0 318.66666 133.33333"><metadata
     id="metadata8"><rdf:RDF><cc:Work
         rdf:about=""><dc:format>image/svg+xml</dc:format><dc:type
           rdf:resource="http://purl.org/dc/dcmitype/StillImage" /></cc:Work></rdf:RDF></metadata><defs
     id="defs6" /><g
     id="g10"
     transform="matrix(1.3333333,0,0,-1.3333333,0,133.33333)"><g
       id="g12"
       transform="scale(0.1)"><g
         id="g14"
         transform="scale(10)"><text
           transform="matrix(1,0,0,-1,85.2809,40.4801)"
           style="font-style:italic;font-variant:normal;font-size:8px;font-family:'Times New Roman';-inkscape-font-specification:Times-Italic;writing-mode:lr-tb;fill:#231f20;fill-opacity:1;fill-rule:nonzero;stroke:none"
           id="text24"><tspan
             x="0"
             y="0"
             id="tspan16">x</tspan><tspan
             x="-49.680099"
             y="-49.320301"
             id="tspan18">y</tspan><tspan
             x="149.3999"
             y="0.59960002"
             id="tspan20">u</tspan><tspan
             x="102.8401"
             y="-50.279701"
             id="tspan22">v</tspan></text></g><path
         d="m 1883.61,822.402 20.39,41.996 21.61,-41.996 z m 42,-708.004 -21.61,-41.9957 -20.39,41.9957 z m -25.2,-7.199 v 723.602 h 1.2 l 1.2,1.203 h 3.6 v -1.203 h 1.21 V 106 l -1.21,-1.199 v -1.203 h -3.6 l -2.4,2.402 v 1.199"
         style="fill:#231f20;fill-opacity:1;fill-rule:nonzero;stroke:none"
         id="path26" /><path
         d="m 1883.61,822.402 20.39,41.996 21.61,-41.996 z m 42,-708.004 -21.61,-41.9957 -20.39,41.9957 z m -25.2,-7.199 v 723.602 h 1.2 l 1.2,1.203 h 3.6 v -1.203 h 1.21 V 106 l -1.21,-1.199 v -1.203 h -3.6 l -2.4,2.402 z"
         style="fill:none;stroke:#231f20;stroke-width:2.16;stroke-linecap:butt;stroke-linejoin:miter;stroke-miterlimit:10;stroke-dasharray:none;stroke-opacity:1"
         id="path28" /><path
         d="m 1390.31,884.398 42,-21.601 -42,-20.395 z M 753.109,866.402 h 645.601 l 1.2,-1.203 v -4.801 l -1.2,-1.199 H 750.707 l -1.195,1.199 v 4.801 l 1.195,1.203 h 2.402"
         style="fill:#231f20;fill-opacity:1;fill-rule:nonzero;stroke:none"
         id="path30" /><path
         d="m 1390.31,884.398 42,-21.601 -42,-20.395 z M 753.109,866.402 h 645.601 l 1.2,-1.203 v -4.801 l -1.2,-1.199 H 750.707 l -1.195,1.199 v 4.801 l 1.195,1.203 z"
         style="fill:none;stroke:#231f20;stroke-width:2.16;stroke-linecap:butt;stroke-linejoin:miter;stroke-miterlimit:10;stroke-dasharray:none;stroke-opacity:1"
         id="path32" /><g
         id="g34"
         transform="scale(10)"><text
           transform="matrix(1,0,0,-1,93.5113,89.973)"
           style="font-style:italic;font-variant:normal;font-size:8px;font-family:'Times New Roman';-inkscape-font-specification:Times-Italic;writing-mode:lr-tb;fill:#231f20;fill-opacity:1;fill-rule:nonzero;stroke:none"
           id="text38"><tspan
             x="0 2.224"
             y="0"
             id="tspan36">f </tspan></text><text
           transform="matrix(1,0,0,-1,97.73513,89.973)"
           style="font-variant:normal;font-weight:normal;font-size:8px;font-family:'Times New Roman';-inkscape-font-specification:Times-Roman;writing-mode:lr-tb;fill:#231f20;fill-opacity:1;fill-rule:nonzero;stroke:none"
           id="text42"><tspan
             x="0"
             y="0"
             id="tspan40">(</tspan></text><text
           transform="matrix(1,0,0,-1,100.39919,89.973)"
           style="font-style:italic;font-variant:normal;font-size:8px;font-family:'Times New Roman';-inkscape-font-specification:Times-Italic;writing-mode:lr-tb;fill:#231f20;fill-opacity:1;fill-rule:nonzero;stroke:none"
           id="text46"><tspan
             x="0"
             y="0"
             id="tspan44">z</tspan></text><text
           transform="matrix(1,0,0,-1,103.5113,89.973)"
           style="font-variant:normal;font-weight:normal;font-size:8px;font-family:'Times New Roman';-inkscape-font-specification:Times-Roman;writing-mode:lr-tb;fill:#231f20;fill-opacity:1;fill-rule:nonzero;stroke:none"
           id="text50"><tspan
             x="0 2.664 4.664"
             y="0"
             id="tspan48">) =</tspan></text><text
           transform="matrix(1,0,0,-1,114.68747,89.973)"
           style="font-style:italic;font-variant:normal;font-size:8px;font-family:'Times New Roman';-inkscape-font-specification:Times-Italic;writing-mode:lr-tb;fill:#231f20;fill-opacity:1;fill-rule:nonzero;stroke:none"
           id="text54"><tspan
             x="0"
             y="0"
             id="tspan52">z</tspan></text><text
           transform="matrix(1,0,0,-1,117.79958,91.973)"
           style="font-variant:normal;font-weight:normal;font-size:6px;font-family:'Times New Roman';-inkscape-font-specification:Times-Roman;writing-mode:lr-tb;fill:#231f20;fill-opacity:1;fill-rule:nonzero;stroke:none"
           id="text58"><tspan
             x="0"
             y="0"
             id="tspan56">2</tspan></text></g><path
         d="m 2259.21,439.602 42,-21.602 -42,-20.402 z m -715.2,-42.004 -42,20.402 42,21.602 z m -7.2,24.004 h 730.8 l 1.2,-1.204 v -1.199 l 1.2,-1.199 -1.2,-1.199 v -1.199 h -1.2 l -1.2,-1.204 h -729.6 l -1.2,1.204 h -1.2 v 1.199 l -1.2,1.199 1.2,1.199 v 1.199 l 1.2,1.204 h 1.2"
         style="fill:#231f20;fill-opacity:1;fill-rule:nonzero;stroke:none"
         id="path60" /><path
         d="m 2259.21,439.602 42,-21.602 -42,-20.402 z m -715.2,-42.004 -42,20.402 42,21.602 z m -7.2,24.004 h 730.8 l 1.2,-1.204 v -1.199 l 1.2,-1.199 -1.2,-1.199 v -1.199 h -1.2 l -1.2,-1.204 h -729.6 l -1.2,1.204 h -1.2 v 1.199 l -1.2,1.199 1.2,1.199 v 1.199 l 1.2,1.204 z"
         style="fill:none;stroke:#231f20;stroke-width:2.16;stroke-linecap:butt;stroke-linejoin:miter;stroke-miterlimit:10;stroke-dasharray:none;stroke-opacity:1"
         id="path62" /><path
         d="m 358.406,822.402 20.403,41.996 21.601,-41.996 z M 400.41,114.398 378.809,72.4023 358.406,114.398 Z m -25.199,-7.199 v 723.602 h 1.199 l 1.203,1.203 h 3.598 v -1.203 h 1.199 V 106 l -1.199,-1.199 v -1.203 h -3.598 L 375.211,106 v 1.199"
         style="fill:#231f20;fill-opacity:1;fill-rule:nonzero;stroke:none"
         id="path64" /><path
         d="m 358.406,822.402 20.403,41.996 21.601,-41.996 z M 400.41,114.398 378.809,72.4023 358.406,114.398 Z m -25.199,-7.199 v 723.602 h 1.199 l 1.203,1.203 h 3.598 v -1.203 h 1.199 V 106 l -1.199,-1.199 v -1.203 h -3.598 L 375.211,106 Z"
         style="fill:none;stroke:#231f20;stroke-width:2.16;stroke-linecap:butt;stroke-linejoin:miter;stroke-miterlimit:10;stroke-dasharray:none;stroke-opacity:1"
         id="path66" /><path
         d="m 760.41,444.398 42,-20.398 -42,-21.598 z M 45.2109,402.402 3.20703,424 45.2109,444.398 Z m -7.2031,24 H 770.012 v -1.203 l 1.199,-1.199 -1.199,-2.398 v -1.204 H 35.6094 l -1.1992,1.204 v 3.597 l 1.1992,1.203 h 2.3984"
         style="fill:#231f20;fill-opacity:1;fill-rule:nonzero;stroke:none"
         id="path68" /><path
         d="m 760.41,444.398 42,-20.398 -42,-21.598 z M 45.2109,402.402 3.20703,424 45.2109,444.398 Z m -7.2031,24 H 770.012 v -1.203 l 1.199,-1.199 -1.199,-2.398 v -1.204 H 35.6094 l -1.1992,1.204 v 3.597 l 1.1992,1.203 z"
         style="fill:none;stroke:#231f20;stroke-width:2.16;stroke-linecap:butt;stroke-linejoin:miter;stroke-miterlimit:10;stroke-dasharray:none;stroke-opacity:1"
         id="path70" /><path
         d="m 1707.21,432.402 h -2.4 l -2.4,-1.199 -1.2,-2.402 h -2.4 l -3.6,-7.199 v -4.801 l 3.6,-7.199 h 2.4 l 1.2,-2.403 h 10.8 l 1.2,2.403 h 2.4 l 3.6,7.199 v 4.801 l -3.6,7.199 h -2.4 l -1.2,2.402 -2.4,1.199 h -3.6"
         style="fill:#231f20;fill-opacity:1;fill-rule:evenodd;stroke:none"
         id="path72" /><path
         d="m 1707.21,432.402 h -2.4 l -2.4,-1.199 -1.2,-2.402 h -2.4 l -3.6,-7.199 v -4.801 l 3.6,-7.199 h 2.4 l 1.2,-2.403 h 10.8 l 1.2,2.403 h 2.4 l 3.6,7.199 v 4.801 l -3.6,7.199 h -2.4 l -1.2,2.402 -2.4,1.199 h -3.6"
         style="fill:none;stroke:#231f20;stroke-width:5;stroke-linecap:round;stroke-linejoin:round;stroke-miterlimit:10;stroke-dasharray:none;stroke-opacity:1"
         id="path74" /><path
         d="M 1699.81,371.711 C 1651.66,150 1372.04,13.0977 1008.75,13.0977 c -268.754,0 -503.363,81.2734 -628.637,202.0193"
         style="fill:none;stroke:#00adef;stroke-width:7.5;stroke-linecap:butt;stroke-linejoin:miter;stroke-miterlimit:4;stroke-dasharray:20, 15;stroke-dashoffset:0;stroke-opacity:1"
         id="path76" /><path
         d="m 1718.69,358.949 -12.54,39.176 -27.65,-30.449 z"
         style="fill:#00adef;fill-opacity:1;fill-rule:nonzero;stroke:none"
         id="path78" /><path
         d="m 380.113,617.387 c 125.278,120.754 359.883,202.027 628.637,202.027 363.35,0 650.41,-166.914 696.09,-358.551"
         style="fill:none;stroke:#00adef;stroke-width:7.5;stroke-linecap:butt;stroke-linejoin:miter;stroke-miterlimit:4;stroke-dasharray:20, 15;stroke-dashoffset:0;stroke-opacity:1"
         id="path80" /><path
         d="m 1679.21,472.77 28.27,-29.883 11.74,39.422 z"
         style="fill:#00adef;fill-opacity:1;fill-rule:nonzero;stroke:none"
         id="path82" /><path
         d="m 393.34,618.336 c 0,-8.285 -6.719,-15.004 -15.004,-15.004 -8.281,0 -15,6.719 -15,15.004 0,8.281 6.719,15 15,15 8.285,0 15.004,-6.719 15.004,-15"
         style="fill:#231f20;fill-opacity:1;fill-rule:nonzero;stroke:none"
         id="path84" /><path
         d="m 393.34,618.336 c 0,-8.285 -6.719,-15.004 -15.004,-15.004 -8.281,0 -15,6.719 -15,15.004 0,8.281 6.719,15 15,15 8.285,0 15.004,-6.719 15.004,-15 z"
         style="fill:none;stroke:#231f20;stroke-width:2.5;stroke-linecap:butt;stroke-linejoin:miter;stroke-miterlimit:4;stroke-dasharray:none;stroke-opacity:1"
         id="path86" /><path
         d="m 393.34,213.336 c 0,-8.285 -6.719,-15.004 -15.004,-15.004 -8.281,0 -15,6.719 -15,15.004 0,8.281 6.719,15 15,15 8.285,0 15.004,-6.719 15.004,-15"
         style="fill:#231f20;fill-opacity:1;fill-rule:nonzero;stroke:none"
         id="path88" /><path
         d="m 393.34,213.336 c 0,-8.285 -6.719,-15.004 -15.004,-15.004 -8.281,0 -15,6.719 -15,15.004 0,8.281 6.719,15 15,15 8.285,0 15.004,-6.719 15.004,-15 z"
         style="fill:none;stroke:#231f20;stroke-width:2.5;stroke-linecap:butt;stroke-linejoin:miter;stroke-miterlimit:4;stroke-dasharray:none;stroke-opacity:1"
         id="path90" /></g></g></svg>
