<?xml version="1.0" encoding="UTF-8" standalone="no"?>
<svg
   xmlns:dc="http://purl.org/dc/elements/1.1/"
   xmlns:cc="http://creativecommons.org/ns#"
   xmlns:rdf="http://www.w3.org/1999/02/22-rdf-syntax-ns#"
   xmlns:svg="http://www.w3.org/2000/svg"
   xmlns="http://www.w3.org/2000/svg"
   version="1.1"
   id="svg2"
   xml:space="preserve"
   width="178.66667"
   height="125.33333"
   viewBox="0 0 178.66667 125.33333"><metadata
     id="metadata8"><rdf:RDF><cc:Work
         rdf:about=""><dc:format>image/svg+xml</dc:format><dc:type
           rdf:resource="http://purl.org/dc/dcmitype/StillImage" /></cc:Work></rdf:RDF></metadata><defs
     id="defs6" /><g
     id="g10"
     transform="matrix(1.3333333,0,0,-1.3333333,0,125.33333)"><g
       id="g12"
       transform="scale(0.1)"><path
         d="m 181.664,318.336 c -65.402,119.156 97.184,154.336 182.645,167.352 140.863,21.46 251.722,-31.036 393.105,55.171 38.731,23.618 87.586,84.141 187.93,66.797 56.316,-9.32 90.826,-37.465 127.246,-71.816 43.71,-41.238 25.46,-89.793 3.24,-140.84 C 1043.79,321.379 984.789,266.938 911.57,235.84 832.125,202.09 767.168,207.707 685,220.172 583.996,235.5 480.289,246.852 374.918,251.664 c -67.66,3.094 -144.84,20.594 -196.582,66.672"
         style="fill:#cceffc;fill-opacity:1;fill-rule:nonzero;stroke:none"
         id="path14" /><path
         d="m 225.234,371.84 c 0,-11.055 -8.957,-20 -20,-20 -11.046,0 -20,8.945 -20,20 0,11.035 8.954,20 20,20 11.043,0 20,-8.965 20,-20"
         style="fill:#80d6f7;fill-opacity:1;fill-rule:nonzero;stroke:none"
         id="path16" /><path
         d="m 1098.57,491.84 c 0,-11.055 -8.96,-20 -20,-20 -11.05,0 -20,8.945 -20,20 0,11.035 8.95,20 20,20 11.04,0 20,-8.965 20,-20"
         style="fill:#80d6f7;fill-opacity:1;fill-rule:nonzero;stroke:none"
         id="path18" /><path
         d="m 911.898,578.512 c 0,-11.055 -8.953,-20 -20,-20 -11.043,0 -20,8.945 -20,20 0,11.035 8.957,20 20,20 11.047,0 20,-8.965 20,-20"
         style="fill:#80d6f7;fill-opacity:1;fill-rule:nonzero;stroke:none"
         id="path20" /><path
         d="M 70.918,772.121 V 4.67188"
         style="fill:none;stroke:#000000;stroke-width:7.5;stroke-linecap:butt;stroke-linejoin:miter;stroke-miterlimit:4;stroke-dasharray:none;stroke-opacity:1"
         id="path22" /><path
         d="m 70.918,766.383 -20.2696,-12.32 -0.457,0.687 13.1289,33.047 c 2.5313,11.516 5.0625,23.027 7.5977,34.543 2.5351,-11.516 5.0625,-23.027 7.5976,-34.543 l 13.1289,-33.047 -0.3437,-0.687 -20.3828,12.32"
         style="fill:#000000;fill-opacity:1;fill-rule:nonzero;stroke:none"
         id="path24" /><path
         d="M 3.58984,94.5859 H 1212.25"
         style="fill:none;stroke:#000000;stroke-width:7.5;stroke-linecap:butt;stroke-linejoin:miter;stroke-miterlimit:4;stroke-dasharray:none;stroke-opacity:1"
         id="path26" /><path
         d="m 1206.51,94.5859 -12.32,20.2691 0.69,0.458 33.05,-13.129 c 11.51,-2.5317 23.02,-5.0629 34.53,-7.5981 -11.51,-2.5351 -23.02,-5.0664 -34.53,-7.5976 l -33.05,-13.1328 -0.69,0.3476 12.32,20.3828"
         style="fill:#000000;fill-opacity:1;fill-rule:nonzero;stroke:none"
         id="path28" /><path
         d="m 397.195,440.793 -10.007,21.508 0.738,0.379 31.39,-16.7 c 11.168,-3.781 22.332,-7.578 33.497,-11.367 -11.727,-1.242 -23.45,-2.484 -35.172,-3.734 l -34.289,-9.399 -0.653,0.418 14.496,18.895"
         style="fill:#80d6f7;fill-opacity:1;fill-rule:nonzero;stroke:none"
         id="path30" /><path
         d="m 743.844,443.676 -18.707,14.586 0.484,0.676 35.555,-0.567 c 11.66,1.719 23.328,3.426 34.992,5.141 -9.867,-6.449 -19.738,-12.895 -29.605,-19.352 l -26.25,-23.984 -0.766,0.078 4.297,23.422"
         style="fill:#80d6f7;fill-opacity:1;fill-rule:nonzero;stroke:none"
         id="path32" /><path
         d="m 384.395,358.629 -2.508,23.582 0.82,0.125 24.301,-25.957 c 9.34,-7.199 18.676,-14.399 28.012,-21.594 -11.497,2.613 -22.989,5.231 -34.489,7.844 l -35.492,2.207 -0.473,0.602 19.829,13.191"
         style="fill:#80d6f7;fill-opacity:1;fill-rule:nonzero;stroke:none"
         id="path34" /><path
         d="m 740.59,243.516 -12.953,19.863 0.676,0.484 33.445,-12.074 c 11.586,-2.168 23.176,-4.332 34.765,-6.5 -11.429,-2.902 -22.855,-5.797 -34.289,-8.687 l -32.609,-14.176 -0.699,0.328 11.664,20.762"
         style="fill:#80d6f7;fill-opacity:1;fill-rule:nonzero;stroke:none"
         id="path36" /><path
         d="m 994.281,382.441 -23.273,4.575 0.125,0.816 31.977,15.543 c 9.64,6.801 19.27,13.594 28.91,20.387 -5.89,-10.211 -11.79,-20.422 -17.68,-30.633 l -12.6,-33.254 -0.72,-0.273 -6.739,22.839"
         style="fill:#80d6f7;fill-opacity:1;fill-rule:nonzero;stroke:none"
         id="path38" /><path
         d="m 972.738,538.906 -3.449,23.469 0.813,0.16 25.324,-24.976 c 9.614,-6.813 19.234,-13.629 28.844,-20.45 -11.58,2.153 -23.17,4.313 -34.762,6.461 l -35.551,0.778 -0.504,0.586 19.285,13.972"
         style="fill:#80d6f7;fill-opacity:1;fill-rule:nonzero;stroke:none"
         id="path40" /><g
         id="g42"
         transform="scale(10)"><text
           transform="matrix(1,0,0,-1,128.558,7.45859)"
           style="font-style:italic;font-variant:normal;font-size:8px;font-family:'Times New Roman';-inkscape-font-specification:Times-Italic;writing-mode:lr-tb;fill:#231f20;fill-opacity:1;fill-rule:nonzero;stroke:none"
           id="text50"><tspan
             x="0"
             y="0"
             id="tspan44">x</tspan><tspan
             x="-123.466"
             y="-79.0867"
             id="tspan46">y</tspan><tspan
             x="-16.224001"
             y="-40.1656"
             id="tspan48">z</tspan></text><text
           transform="matrix(1,0,0,-1,116.94611,47.62419)"
           style="font-style:italic;font-variant:normal;font-size:8px;font-family:'Times New Roman';-inkscape-font-specification:Times-Italic;writing-mode:lr-tb;fill:#231f20;fill-opacity:1;fill-rule:nonzero;stroke:none"
           id="text54"><tspan
             x="0 5.4000001"
             y="0"
             id="tspan52">+ </tspan></text><text
           transform="matrix(1,0,0,-1,124.34611,47.62419)"
           style="font-variant:normal;font-weight:normal;font-size:8px;font-family:Symbol;-inkscape-font-specification:Symbol;writing-mode:lr-tb;fill:#231f20;fill-opacity:1;fill-rule:nonzero;stroke:none"
           id="text58"><tspan
             x="0"
             y="0"
             id="tspan56">∆</tspan></text><text
           transform="matrix(1,0,0,-1,129.96213,47.62419)"
           style="font-style:italic;font-variant:normal;font-size:8px;font-family:'Times New Roman';-inkscape-font-specification:Times-Italic;writing-mode:lr-tb;fill:#231f20;fill-opacity:1;fill-rule:nonzero;stroke:none"
           id="text64"><tspan
             x="0"
             y="0"
             id="tspan60">z</tspan><tspan
             x="-120.905"
             y="11.741"
             id="tspan62">z</tspan></text><text
           transform="matrix(1,0,0,-1,12.16924,33.88319)"
           style="font-variant:normal;font-weight:normal;font-size:6px;font-family:'Times New Roman';-inkscape-font-specification:Times-Roman;writing-mode:lr-tb;fill:#231f20;fill-opacity:1;fill-rule:nonzero;stroke:none"
           id="text68"><tspan
             x="0"
             y="0"
             id="tspan66">0</tspan></text><text
           transform="matrix(1,0,0,-1,87.72354,62.88319)"
           style="font-style:italic;font-variant:normal;font-size:8px;font-family:'Times New Roman';-inkscape-font-specification:Times-Italic;writing-mode:lr-tb;fill:#231f20;fill-opacity:1;fill-rule:nonzero;stroke:none"
           id="text72"><tspan
             x="0"
             y="0"
             id="tspan70">z</tspan></text><text
           transform="matrix(1,0,0,-1,100.85754,61.34999)"
           style="font-variant:normal;font-weight:normal;font-size:8px;font-family:Symbol;-inkscape-font-specification:Symbol;writing-mode:lr-tb;fill:#231f20;fill-opacity:1;fill-rule:nonzero;stroke:none"
           id="text78"><tspan
             x="0"
             y="0"
             id="tspan74">Γ</tspan><tspan
             x="-44.943001"
             y="7.9535198"
             id="tspan76">Γ</tspan></text><text
           transform="matrix(1,0,0,-1,60.73837,51.39647)"
           style="font-variant:normal;font-weight:normal;font-size:6px;font-family:'Times New Roman';-inkscape-font-specification:Times-Roman;writing-mode:lr-tb;fill:#231f20;fill-opacity:1;fill-rule:nonzero;stroke:none"
           id="text82"><tspan
             x="0"
             y="0"
             id="tspan80">1</tspan></text><text
           transform="matrix(1,0,0,-1,48.22507,16.02887)"
           style="font-variant:normal;font-weight:normal;font-size:8px;font-family:Symbol;-inkscape-font-specification:Symbol;writing-mode:lr-tb;fill:#231f20;fill-opacity:1;fill-rule:nonzero;stroke:none"
           id="text86"><tspan
             x="0"
             y="0"
             id="tspan84">Γ</tspan></text><text
           transform="matrix(1,0,0,-1,53.0489,14.02887)"
           style="font-variant:normal;font-weight:normal;font-size:6px;font-family:'Times New Roman';-inkscape-font-specification:Times-Roman;writing-mode:lr-tb;fill:#231f20;fill-opacity:1;fill-rule:nonzero;stroke:none"
           id="text90"><tspan
             x="0"
             y="0"
             id="tspan88">2</tspan></text></g><path
         d="m 205,368.332 c 41.422,22.434 72.691,51.594 120.172,64.066 53.133,13.95 112.465,4.122 165.68,-0.656 151.296,-13.586 347.484,-13.41 401.644,146.074 19.102,-15.218 189.294,-83.933 192.504,-86.152 3.85,-2.656 -105.922,-131.152 -126.664,-150 C 882.258,272.531 814.836,234.449 708.336,245 608.445,254.898 538.332,265 455,325 416.625,352.633 374.855,361.895 328.336,371.664 293.434,378.996 234.211,370.766 205,375"
         style="fill:none;stroke:#80d6f7;stroke-width:10;stroke-linecap:butt;stroke-linejoin:miter;stroke-miterlimit:4;stroke-dasharray:none;stroke-opacity:1"
         id="path92" /></g></g></svg>
