<?xml version="1.0" encoding="UTF-8" standalone="no"?>
<svg
   xmlns:dc="http://purl.org/dc/elements/1.1/"
   xmlns:cc="http://creativecommons.org/ns#"
   xmlns:rdf="http://www.w3.org/1999/02/22-rdf-syntax-ns#"
   xmlns:svg="http://www.w3.org/2000/svg"
   xmlns="http://www.w3.org/2000/svg"
   version="1.1"
   id="svg2"
   xml:space="preserve"
   width="162.66667"
   height="89.333336"
   viewBox="0 0 162.66667 89.333336"><metadata
     id="metadata8"><rdf:RDF><cc:Work
         rdf:about=""><dc:format>image/svg+xml</dc:format><dc:type
           rdf:resource="http://purl.org/dc/dcmitype/StillImage" /></cc:Work></rdf:RDF></metadata><defs
     id="defs6" /><g
     id="g10"
     transform="matrix(1.3333333,0,0,-1.3333333,0,89.333333)"><g
       id="g12"
       transform="scale(0.1)"><path
         d="M 56.1719,128.262 H 1111.66"
         style="fill:none;stroke:#000000;stroke-width:7.5;stroke-linecap:butt;stroke-linejoin:miter;stroke-miterlimit:4;stroke-dasharray:none;stroke-opacity:1"
         id="path14" /><path
         d="m 1111.29,128.262 -12.33,20.261 0.7,0.465 33.05,-13.129 c 11.51,-2.527 23.02,-5.062 34.54,-7.597 -11.52,-2.535 -23.03,-5.063 -34.54,-7.598 l -33.05,-13.129 -0.7,0.348 12.33,20.379"
         style="fill:#000000;fill-opacity:1;fill-rule:nonzero;stroke:none"
         id="path16" /><path
         d="M 56.1719,128.262 68.4961,108 67.8047,107.535 34.7578,120.664 c -11.5156,2.527 -23.0273,5.063 -34.542956,7.598 11.515656,2.535 23.027356,5.062 34.542956,7.597 l 33.0469,13.129 0.6914,-0.343 -12.3242,-20.383"
         style="fill:#000000;fill-opacity:1;fill-rule:nonzero;stroke:none"
         id="path18" /><path
         d="M 558.336,508.262 V 71.5938"
         style="fill:none;stroke:#000000;stroke-width:7.5;stroke-linecap:butt;stroke-linejoin:miter;stroke-miterlimit:4;stroke-dasharray:none;stroke-opacity:1"
         id="path20" /><path
         d="m 558.336,507.887 -20.266,-12.321 -0.457,0.688 13.125,33.047 c 2.528,11.515 5.063,23.035 7.598,34.547 2.535,-11.512 5.062,-23.032 7.602,-34.547 l 13.125,-33.047 -0.348,-0.688 -20.379,12.321"
         style="fill:#000000;fill-opacity:1;fill-rule:nonzero;stroke:none"
         id="path22" /><path
         d="m 242.5,128.262 315.836,303.332 c 0,0 303.328,-3.336 303.328,-300"
         style="fill:none;stroke:#80d6f7;stroke-width:10;stroke-linecap:butt;stroke-linejoin:miter;stroke-miterlimit:4;stroke-dasharray:none;stroke-opacity:1"
         id="path24" /><path
         d="m 715,157.426 v -25"
         style="fill:none;stroke:#000000;stroke-width:5;stroke-linecap:butt;stroke-linejoin:miter;stroke-miterlimit:4;stroke-dasharray:none;stroke-opacity:1"
         id="path26" /><path
         d="m 557.5,287.426 h 25"
         style="fill:none;stroke:#000000;stroke-width:5;stroke-linecap:butt;stroke-linejoin:miter;stroke-miterlimit:4;stroke-dasharray:none;stroke-opacity:1"
         id="path28" /><path
         d="m 557.5,444.926 h 25"
         style="fill:none;stroke:#000000;stroke-width:5;stroke-linecap:butt;stroke-linejoin:miter;stroke-miterlimit:4;stroke-dasharray:none;stroke-opacity:1"
         id="path30" /><path
         d="m 872.5,157.426 v -25"
         style="fill:none;stroke:#000000;stroke-width:10;stroke-linecap:butt;stroke-linejoin:miter;stroke-miterlimit:4;stroke-dasharray:none;stroke-opacity:1"
         id="path32" /><path
         d="m 1030,157.426 v -25"
         style="fill:none;stroke:#000000;stroke-width:5;stroke-linecap:butt;stroke-linejoin:miter;stroke-miterlimit:4;stroke-dasharray:none;stroke-opacity:1"
         id="path34" /><path
         d="m 400,157.426 v -25"
         style="fill:none;stroke:#000000;stroke-width:5;stroke-linecap:butt;stroke-linejoin:miter;stroke-miterlimit:4;stroke-dasharray:none;stroke-opacity:1"
         id="path36" /><path
         d="m 242.5,157.426 v -25"
         style="fill:none;stroke:#000000;stroke-width:5;stroke-linecap:butt;stroke-linejoin:miter;stroke-miterlimit:4;stroke-dasharray:none;stroke-opacity:1"
         id="path38" /><path
         d="m 85,157.426 v -25"
         style="fill:none;stroke:#000000;stroke-width:5;stroke-linecap:butt;stroke-linejoin:miter;stroke-miterlimit:4;stroke-dasharray:none;stroke-opacity:1"
         id="path40" /><path
         d="m 261.039,125.996 c 0,-11.035 -8.953,-20 -20,-20 -11.043,0 -20,8.965 -20,20 0,11.055 8.957,20 20,20 11.047,0 20,-8.945 20,-20"
         style="fill:#80d6f7;fill-opacity:1;fill-rule:nonzero;stroke:none"
         id="path42" /><path
         d="m 885,125.996 c 0,-11.035 -8.953,-20 -20,-20 -11.043,0 -20,8.965 -20,20 0,11.055 8.957,20 20,20 11.047,0 20,-8.945 20,-20"
         style="fill:#80d6f7;fill-opacity:1;fill-rule:nonzero;stroke:none"
         id="path44" /><g
         id="g46"
         transform="scale(10)"><text
           transform="matrix(1,0,0,-1,53.5,59.7426)"
           style="font-style:italic;font-variant:normal;font-size:8px;font-family:'Times New Roman';-inkscape-font-specification:Times-Italic;writing-mode:lr-tb;fill:#231f20;fill-opacity:1;fill-rule:nonzero;stroke:none"
           id="text52"><tspan
             x="0"
             y="0"
             id="tspan48">y</tspan><tspan
             x="64.425797"
             y="48.6082"
             id="tspan50">x</tspan></text><text
           transform="matrix(1,0,0,-1,69.5,2.7426)"
           style="font-variant:normal;font-weight:normal;font-size:8px;font-family:'Times New Roman';-inkscape-font-specification:Times-Roman;writing-mode:lr-tb;fill:#231f20;fill-opacity:1;fill-rule:nonzero;stroke:none"
           id="text56"><tspan
             x="0"
             y="0"
             id="tspan54">1</tspan></text><text
           transform="matrix(1,0,0,-1,36.4152,2.7426)"
           style="font-variant:normal;font-weight:normal;font-size:8px;font-family:Symbol;-inkscape-font-specification:Symbol;writing-mode:lr-tb;fill:#231f20;fill-opacity:1;fill-rule:nonzero;stroke:none"
           id="text60"><tspan
             x="0"
             y="0"
             id="tspan58">−</tspan></text><text
           transform="matrix(1,0,0,-1,40.80739,2.7426)"
           style="font-variant:normal;font-weight:normal;font-size:8px;font-family:'Times New Roman';-inkscape-font-specification:Times-Roman;writing-mode:lr-tb;fill:#231f20;fill-opacity:1;fill-rule:nonzero;stroke:none"
           id="text64"><tspan
             x="0"
             y="0"
             id="tspan62">1</tspan></text><text
           transform="matrix(1,0,0,-1,20.16519,2.7426)"
           style="font-variant:normal;font-weight:normal;font-size:8px;font-family:Symbol;-inkscape-font-specification:Symbol;writing-mode:lr-tb;fill:#231f20;fill-opacity:1;fill-rule:nonzero;stroke:none"
           id="text68"><tspan
             x="0"
             y="0"
             id="tspan66">−</tspan></text><text
           transform="matrix(1,0,0,-1,24.55738,2.7426)"
           style="font-variant:normal;font-weight:normal;font-size:8px;font-family:'Times New Roman';-inkscape-font-specification:Times-Roman;writing-mode:lr-tb;fill:#231f20;fill-opacity:1;fill-rule:nonzero;stroke:none"
           id="text72"><tspan
             x="0"
             y="0"
             id="tspan70">2</tspan></text><text
           transform="matrix(1,0,0,-1,3.91518,2.7426)"
           style="font-variant:normal;font-weight:normal;font-size:8px;font-family:Symbol;-inkscape-font-specification:Symbol;writing-mode:lr-tb;fill:#231f20;fill-opacity:1;fill-rule:nonzero;stroke:none"
           id="text76"><tspan
             x="0"
             y="0"
             id="tspan74">−</tspan></text><text
           transform="matrix(1,0,0,-1,8.30737,2.7426)"
           style="font-variant:normal;font-weight:normal;font-size:8px;font-family:'Times New Roman';-inkscape-font-specification:Times-Roman;writing-mode:lr-tb;fill:#231f20;fill-opacity:1;fill-rule:nonzero;stroke:none"
           id="text80"><tspan
             x="0 76.479683 92.692558"
             y="0"
             id="tspan78">323</tspan></text><text
           transform="matrix(1,0,0,-1,50.63787,26.4926)"
           style="font-style:italic;font-variant:normal;font-size:8px;font-family:'Times New Roman';-inkscape-font-specification:Times-Italic;writing-mode:lr-tb;fill:#231f20;fill-opacity:1;fill-rule:nonzero;stroke:none"
           id="text86"><tspan
             x="0"
             y="0"
             id="tspan82">i</tspan><tspan
             x="-24.305901"
             y="-2"
             id="tspan84">C</tspan></text><text
           transform="matrix(1,0,0,-1,31.66791,26.4926)"
           style="font-variant:normal;font-weight:normal;font-size:6px;font-family:'Times New Roman';-inkscape-font-specification:Times-Roman;writing-mode:lr-tb;fill:#231f20;fill-opacity:1;fill-rule:nonzero;stroke:none"
           id="text90"><tspan
             x="0"
             y="0"
             id="tspan88">2</tspan></text><text
           transform="matrix(1,0,0,-1,79.33201,35.2426)"
           style="font-style:italic;font-variant:normal;font-size:8px;font-family:'Times New Roman';-inkscape-font-specification:Times-Italic;writing-mode:lr-tb;fill:#231f20;fill-opacity:1;fill-rule:nonzero;stroke:none"
           id="text94"><tspan
             x="0"
             y="0"
             id="tspan92">C</tspan></text><text
           transform="matrix(1,0,0,-1,84.66795,33.2426)"
           style="font-variant:normal;font-weight:normal;font-size:6px;font-family:'Times New Roman';-inkscape-font-specification:Times-Roman;writing-mode:lr-tb;fill:#231f20;fill-opacity:1;fill-rule:nonzero;stroke:none"
           id="text98"><tspan
             x="0"
             y="0"
             id="tspan96">1</tspan></text><text
           transform="matrix(1,0,0,-1,45.38785,41.7426)"
           style="font-variant:normal;font-weight:normal;font-size:8px;font-family:'Times New Roman';-inkscape-font-specification:Times-Roman;writing-mode:lr-tb;fill:#231f20;fill-opacity:1;fill-rule:nonzero;stroke:none"
           id="text102"><tspan
             x="0"
             y="0"
             id="tspan100">2</tspan></text><text
           transform="matrix(1,0,0,-1,49.38785,41.7426)"
           style="font-style:italic;font-variant:normal;font-size:8px;font-family:'Times New Roman';-inkscape-font-specification:Times-Italic;writing-mode:lr-tb;fill:#231f20;fill-opacity:1;fill-rule:nonzero;stroke:none"
           id="text106"><tspan
             x="0"
             y="0"
             id="tspan104">i</tspan></text></g><path
         d="m 404.867,285.469 20.555,-4.703 -0.141,-0.727 -28.84,-12.93 c -8.742,-5.769 -17.496,-11.539 -26.242,-17.308 5.52,8.906 11.039,17.816 16.559,26.722 l 12.105,29.2 0.649,0.222 5.355,-20.476"
         style="fill:#80d6f7;fill-opacity:1;fill-rule:nonzero;stroke:none"
         id="path108" /><path
         d="m 730.281,380.879 1.438,-21.031 -0.735,-0.078 -20.714,23.875 c -8.051,6.699 -16.098,13.41 -24.157,20.117 10.121,-2.707 20.254,-5.422 30.371,-8.125 l 31.454,-3.153 0.402,-0.554 -18.059,-11.051"
         style="fill:#80d6f7;fill-opacity:1;fill-rule:nonzero;stroke:none"
         id="path110" /><path
         d="m 839.23,254.758 -11.652,-17.57 -0.629,0.386 -1.929,31.547 c -2.313,10.215 -4.622,20.442 -6.938,30.664 6.391,-8.305 12.781,-16.621 19.168,-24.922 l 23.055,-21.633 -0.024,-0.679 -21.051,2.207"
         style="fill:#80d6f7;fill-opacity:1;fill-rule:nonzero;stroke:none"
         id="path112" /></g></g></svg>
