<?xml version="1.0" encoding="UTF-8" standalone="no"?>
<svg
   xmlns:dc="http://purl.org/dc/elements/1.1/"
   xmlns:cc="http://creativecommons.org/ns#"
   xmlns:rdf="http://www.w3.org/1999/02/22-rdf-syntax-ns#"
   xmlns:svg="http://www.w3.org/2000/svg"
   xmlns="http://www.w3.org/2000/svg"
   version="1.1"
   id="svg2"
   xml:space="preserve"
   width="182.66667"
   height="124"
   viewBox="0 0 182.66667 124"><metadata
     id="metadata8"><rdf:RDF><cc:Work
         rdf:about=""><dc:format>image/svg+xml</dc:format><dc:type
           rdf:resource="http://purl.org/dc/dcmitype/StillImage" /></cc:Work></rdf:RDF></metadata><defs
     id="defs6" /><g
     id="g10"
     transform="matrix(1.3333333,0,0,-1.3333333,0,124)"><g
       id="g12"
       transform="scale(0.1)"><g
         id="g14"
         transform="scale(10)"><text
           transform="matrix(1,0,0,-1,134.35,38.425)"
           style="font-style:italic;font-variant:normal;font-size:7.36px;font-family:'Times New Roman';-inkscape-font-specification:Times-Italic;writing-mode:lr-tb;fill:#000000;fill-opacity:1;fill-rule:nonzero;stroke:none"
           id="text18"><tspan
             x="0"
             y="0"
             id="tspan16">t</tspan></text></g><path
         d="M 60.1133,404.977 H 1271.36"
         style="fill:none;stroke:#000000;stroke-width:7.5;stroke-linecap:butt;stroke-linejoin:miter;stroke-miterlimit:4;stroke-dasharray:none;stroke-opacity:1"
         id="path20" /><g
         id="g22"
         transform="scale(10)"><text
           transform="matrix(1,0,0,-1,63.5742,86.0922)"
           style="font-style:italic;font-variant:normal;font-size:7.36px;font-family:'Times New Roman';-inkscape-font-specification:Times-Italic;writing-mode:lr-tb;fill:#000000;fill-opacity:1;fill-rule:nonzero;stroke:none"
           id="text26"><tspan
             x="0"
             y="0"
             id="tspan24">s</tspan></text></g><path
         d="M 648.594,48.0664 V 796.648"
         style="fill:none;stroke:#000000;stroke-width:7.5;stroke-linecap:butt;stroke-linejoin:miter;stroke-miterlimit:4;stroke-dasharray:none;stroke-opacity:1"
         id="path28" /><path
         d="M 924.336,716.879 H 1200.07"
         style="fill:none;stroke:#80d6f7;stroke-width:10;stroke-linecap:butt;stroke-linejoin:miter;stroke-miterlimit:4;stroke-dasharray:none;stroke-opacity:1"
         id="path30" /><path
         d="M 372.859,404.977 H 924.336"
         style="fill:none;stroke:#80d6f7;stroke-width:10;stroke-linecap:butt;stroke-linejoin:miter;stroke-miterlimit:4;stroke-dasharray:none;stroke-opacity:1"
         id="path32" /><path
         d="M 97.125,93.0586 H 372.859"
         style="fill:none;stroke:#80d6f7;stroke-width:10;stroke-linecap:butt;stroke-linejoin:miter;stroke-miterlimit:4;stroke-dasharray:none;stroke-opacity:1"
         id="path34" /><g
         id="g36"
         transform="scale(10)"><text
           transform="matrix(1,0,0,-1,89.516,79.7676)"
           style="font-style:italic;font-variant:normal;font-size:7.36px;font-family:'Times New Roman';-inkscape-font-specification:Times-Italic;writing-mode:lr-tb;fill:#000000;fill-opacity:1;fill-rule:nonzero;stroke:none"
           id="text40"><tspan
             x="0 2.86304 4.7030401 9.6710396 11.51104 16.824961 19.275841 21.32192"
             y="0"
             id="tspan38">s = U(t)</tspan></text><text
           transform="matrix(1,0,0,-1,57.1923,69.043)"
           style="font-variant:normal;font-weight:normal;font-size:7.36px;font-family:'Times New Roman';-inkscape-font-specification:Times-Roman;writing-mode:lr-tb;fill:#000000;fill-opacity:1;fill-rule:nonzero;stroke:none"
           id="text44"><tspan
             x="0"
             y="0"
             id="tspan42">1</tspan></text><text
           transform="matrix(1,0,0,-1,53.15191,6.627)"
           style="font-variant:normal;font-weight:normal;font-size:7.36px;font-family:Symbol;-inkscape-font-specification:Symbol;writing-mode:lr-tb;fill:#000000;fill-opacity:1;fill-rule:nonzero;stroke:none"
           id="text48"><tspan
             x="0"
             y="0"
             id="tspan46">−</tspan></text><text
           transform="matrix(1,0,0,-1,57.19254,6.627)"
           style="font-variant:normal;font-weight:normal;font-size:7.36px;font-family:'Times New Roman';-inkscape-font-specification:Times-Roman;writing-mode:lr-tb;fill:#000000;fill-opacity:1;fill-rule:nonzero;stroke:none"
           id="text52"><tspan
             x="0"
             y="0"
             id="tspan50">1</tspan></text></g><path
         d="m 924.336,370.977 v 31.195"
         style="fill:none;stroke:#000000;stroke-width:5;stroke-linecap:butt;stroke-linejoin:miter;stroke-miterlimit:4;stroke-dasharray:none;stroke-opacity:1"
         id="path54" /><path
         d="m 1200.07,370.977 v 31.195"
         style="fill:none;stroke:#000000;stroke-width:5;stroke-linecap:butt;stroke-linejoin:miter;stroke-miterlimit:4;stroke-dasharray:none;stroke-opacity:1"
         id="path56" /><path
         d="m 372.859,408.344 v 31.203"
         style="fill:none;stroke:#000000;stroke-width:5;stroke-linecap:butt;stroke-linejoin:miter;stroke-miterlimit:4;stroke-dasharray:none;stroke-opacity:1"
         id="path58" /><path
         d="m 97.125,408.344 v 31.203"
         style="fill:none;stroke:#000000;stroke-width:5;stroke-linecap:butt;stroke-linejoin:miter;stroke-miterlimit:4;stroke-dasharray:none;stroke-opacity:1"
         id="path60" /><path
         d="m 628.32,716.879 h 17.559"
         style="fill:none;stroke:#000000;stroke-width:5;stroke-linecap:butt;stroke-linejoin:miter;stroke-miterlimit:4;stroke-dasharray:none;stroke-opacity:1"
         id="path62" /><path
         d="m 627.629,94.4531 h 17.547"
         style="fill:none;stroke:#000000;stroke-width:5;stroke-linecap:butt;stroke-linejoin:miter;stroke-miterlimit:4;stroke-dasharray:none;stroke-opacity:1"
         id="path64" /><g
         id="g66"
         transform="scale(10)"><text
           transform="matrix(1,0,0,-1,117.803,30.1504)"
           style="font-variant:normal;font-weight:normal;font-size:7.36px;font-family:Symbol;-inkscape-font-specification:Symbol;writing-mode:lr-tb;fill:#000000;fill-opacity:1;fill-rule:nonzero;stroke:none"
           id="text72"><tspan
             x="0"
             y="0"
             id="tspan68">π</tspan><tspan
             x="-113.433 -109.39236"
             y="-16.6387"
             id="tspan70">−π</tspan></text></g><path
         d="m 1269.14,404.594 -11.33,18.648 0.64,0.422 30.4,-12.078 c 10.6,-2.328 21.19,-4.66 31.78,-6.992 -10.59,-2.328 -21.18,-4.656 -31.78,-6.992 l -30.4,-12.075 -0.64,0.325 11.33,18.742"
         style="fill:#000000;fill-opacity:1;fill-rule:nonzero;stroke:none"
         id="path74" /><path
         d="m 58.7148,404.594 11.3399,18.648 -0.6289,0.422 -30.4063,-12.078 C 28.418,409.258 17.8359,406.926 7.23438,404.594 17.8359,402.266 28.418,399.938 39.0195,397.602 l 30.4063,-12.075 0.6289,0.325 -11.3399,18.742"
         style="fill:#000000;fill-opacity:1;fill-rule:nonzero;stroke:none"
         id="path76" /><path
         d="m 647.676,785.23 -18.653,-11.339 -0.429,0.629 12.082,30.402 c 2.324,10.605 4.656,21.187 7,31.789 2.324,-10.602 4.648,-21.184 6.972,-31.789 l 12.082,-30.402 -0.324,-0.629 -18.73,11.339"
         style="fill:#000000;fill-opacity:1;fill-rule:nonzero;stroke:none"
         id="path78" /><path
         d="m 647.676,56.7891 -18.653,11.3359 -0.429,-0.6445 12.082,-30.3907 c 2.324,-10.6054 4.656,-21.1835 7,-31.7773 2.324,10.5938 4.648,21.1719 6.972,31.7773 l 12.082,30.3907 -0.324,0.6445 -18.73,-11.3359"
         style="fill:#000000;fill-opacity:1;fill-rule:nonzero;stroke:none"
         id="path80" /><path
         d="m 938.406,404.582 -0.281,2.777 -0.82,2.664 -3.125,4.59 -2.188,1.739 -2.488,1.281 -2.68,0.75 -2.793,0.211 -2.761,-0.348 -2.645,-0.891 -4.523,-3.246 -1.68,-2.218 -1.211,-2.516 -0.684,-2.711 -0.136,-2.785"
         style="fill:#ffffff;fill-opacity:1;fill-rule:nonzero;stroke:none"
         id="path82" /><path
         d="m 938.406,404.582 -0.281,2.777 -0.82,2.664 -3.125,4.59 -2.188,1.739 -2.488,1.281 -2.68,0.75 -2.793,0.211 -2.761,-0.348 -2.645,-0.891 -4.523,-3.246 -1.68,-2.218 -1.211,-2.516 -0.684,-2.711 -0.136,-2.785"
         style="fill:none;stroke:#80d6f7;stroke-width:9;stroke-linecap:round;stroke-linejoin:round;stroke-miterlimit:4;stroke-dasharray:none;stroke-opacity:1"
         id="path84" /><path
         d="m 910.391,403.879 0.41,-2.762 0.957,-2.625 3.347,-4.429 2.27,-1.629 2.547,-1.145 2.723,-0.621 2.793,-0.07 2.746,0.48 2.597,1.024 4.356,3.464 1.574,2.305 1.082,2.578 0.547,2.739 v 2.789"
         style="fill:#ffffff;fill-opacity:1;fill-rule:nonzero;stroke:none"
         id="path86" /><path
         d="m 910.391,403.879 0.41,-2.762 0.957,-2.625 3.347,-4.429 2.27,-1.629 2.547,-1.145 2.723,-0.621 2.793,-0.07 2.746,0.48 2.597,1.024 4.356,3.464 1.574,2.305 1.082,2.578 0.547,2.739 v 2.789"
         style="fill:none;stroke:#80d6f7;stroke-width:9;stroke-linecap:round;stroke-linejoin:round;stroke-miterlimit:4;stroke-dasharray:none;stroke-opacity:1"
         id="path88" /><path
         d="m 938.406,715.852 -0.281,2.773 -0.82,2.668 -3.125,4.59 -2.188,1.738 -2.488,1.274 -2.68,0.757 -2.793,0.211 -2.761,-0.351 -2.645,-0.887 -4.523,-3.242 -1.68,-2.223 -1.211,-2.519 -0.684,-2.707 -0.136,-2.789"
         style="fill:#ffffff;fill-opacity:1;fill-rule:nonzero;stroke:none"
         id="path90" /><path
         d="m 938.406,715.852 -0.281,2.773 -0.82,2.668 -3.125,4.59 -2.188,1.738 -2.488,1.274 -2.68,0.757 -2.793,0.211 -2.761,-0.351 -2.645,-0.887 -4.523,-3.242 -1.68,-2.223 -1.211,-2.519 -0.684,-2.707 -0.136,-2.789"
         style="fill:none;stroke:#80d6f7;stroke-width:9;stroke-linecap:round;stroke-linejoin:round;stroke-miterlimit:4;stroke-dasharray:none;stroke-opacity:1"
         id="path92" /><path
         d="m 910.391,715.145 0.41,-2.762 0.957,-2.621 3.347,-4.43 2.27,-1.633 2.547,-1.144 2.723,-0.621 2.793,-0.071 2.746,0.485 2.597,1.023 4.356,3.465 1.574,2.305 1.082,2.574 0.547,2.742 v 2.789"
         style="fill:#ffffff;fill-opacity:1;fill-rule:nonzero;stroke:none"
         id="path94" /><path
         d="m 910.391,715.145 0.41,-2.762 0.957,-2.621 3.347,-4.43 2.27,-1.633 2.547,-1.144 2.723,-0.621 2.793,-0.071 2.746,0.485 2.597,1.023 4.356,3.465 1.574,2.305 1.082,2.574 0.547,2.742 v 2.789"
         style="fill:none;stroke:#80d6f7;stroke-width:9;stroke-linecap:round;stroke-linejoin:round;stroke-miterlimit:4;stroke-dasharray:none;stroke-opacity:1"
         id="path96" /><path
         d="m 1214.4,715.852 -0.28,2.773 -0.82,2.668 -3.12,4.59 -2.19,1.738 -2.48,1.274 -2.68,0.757 -2.8,0.211 -2.76,-0.351 -2.64,-0.887 -4.53,-3.242 -1.68,-2.223 -1.21,-2.519 -0.69,-2.707 -0.13,-2.789"
         style="fill:#ffffff;fill-opacity:1;fill-rule:nonzero;stroke:none"
         id="path98" /><path
         d="m 1214.4,715.852 -0.28,2.773 -0.82,2.668 -3.12,4.59 -2.19,1.738 -2.48,1.274 -2.68,0.757 -2.8,0.211 -2.76,-0.351 -2.64,-0.887 -4.53,-3.242 -1.68,-2.223 -1.21,-2.519 -0.69,-2.707 -0.13,-2.789"
         style="fill:none;stroke:#80d6f7;stroke-width:9;stroke-linecap:round;stroke-linejoin:round;stroke-miterlimit:4;stroke-dasharray:none;stroke-opacity:1"
         id="path100" /><path
         d="m 1186.39,715.145 0.41,-2.762 0.95,-2.621 3.36,-4.43 2.27,-1.633 2.54,-1.144 2.73,-0.621 2.8,-0.071 2.74,0.485 2.59,1.023 4.35,3.465 1.58,2.305 1.08,2.574 0.55,2.742 v 2.789"
         style="fill:#ffffff;fill-opacity:1;fill-rule:nonzero;stroke:none"
         id="path102" /><path
         d="m 1186.39,715.145 0.41,-2.762 0.95,-2.621 3.36,-4.43 2.27,-1.633 2.54,-1.144 2.73,-0.621 2.8,-0.071 2.74,0.485 2.59,1.023 4.35,3.465 1.58,2.305 1.08,2.574 0.55,2.742 v 2.789"
         style="fill:none;stroke:#80d6f7;stroke-width:9;stroke-linecap:round;stroke-linejoin:round;stroke-miterlimit:4;stroke-dasharray:none;stroke-opacity:1"
         id="path104" /><path
         d="m 384.867,404.582 -0.277,2.777 -0.82,2.664 -3.129,4.59 -2.184,1.739 -2.484,1.281 -2.688,0.75 -2.785,0.211 -2.77,-0.348 -2.648,-0.891 -4.512,-3.246 -1.683,-2.218 -1.211,-2.516 -0.688,-2.711 -0.14,-2.785"
         style="fill:#ffffff;fill-opacity:1;fill-rule:nonzero;stroke:none"
         id="path106" /><path
         d="m 384.867,404.582 -0.277,2.777 -0.82,2.664 -3.129,4.59 -2.184,1.739 -2.484,1.281 -2.688,0.75 -2.785,0.211 -2.77,-0.348 -2.648,-0.891 -4.512,-3.246 -1.683,-2.218 -1.211,-2.516 -0.688,-2.711 -0.14,-2.785"
         style="fill:none;stroke:#80d6f7;stroke-width:9;stroke-linecap:round;stroke-linejoin:round;stroke-miterlimit:4;stroke-dasharray:none;stroke-opacity:1"
         id="path108" /><path
         d="m 356.848,403.879 0.418,-2.762 0.953,-2.625 3.351,-4.429 2.274,-1.629 2.543,-1.145 2.722,-0.621 2.789,-0.07 2.75,0.48 2.598,1.024 4.352,3.464 1.57,2.305 1.082,2.578 0.555,2.739 v 2.789"
         style="fill:#ffffff;fill-opacity:1;fill-rule:nonzero;stroke:none"
         id="path110" /><path
         d="m 356.848,403.879 0.418,-2.762 0.953,-2.625 3.351,-4.429 2.274,-1.629 2.543,-1.145 2.722,-0.621 2.789,-0.07 2.75,0.48 2.598,1.024 4.352,3.464 1.57,2.305 1.082,2.578 0.555,2.739 v 2.789"
         style="fill:none;stroke:#80d6f7;stroke-width:9;stroke-linecap:round;stroke-linejoin:round;stroke-miterlimit:4;stroke-dasharray:none;stroke-opacity:1"
         id="path112" /><path
         d="m 111.938,91.7773 -0.278,2.7735 -0.824,2.6758 -3.133,4.5894 -2.18,1.739 -2.488,1.269 -2.683,0.762 -2.7856,0.215 -2.7695,-0.352 -2.6485,-0.898 -4.5078,-3.242 -1.6836,-2.227 -1.2148,-2.5 -0.6875,-2.7148 -0.1367,-2.793"
         style="fill:#ffffff;fill-opacity:1;fill-rule:nonzero;stroke:none"
         id="path114" /><path
         d="m 111.938,91.7773 -0.278,2.7735 -0.824,2.6758 -3.133,4.5894 -2.18,1.739 -2.488,1.269 -2.683,0.762 -2.7856,0.215 -2.7695,-0.352 -2.6485,-0.898 -4.5078,-3.242 -1.6836,-2.227 -1.2148,-2.5 -0.6875,-2.7148 -0.1367,-2.793"
         style="fill:none;stroke:#80d6f7;stroke-width:9;stroke-linecap:round;stroke-linejoin:round;stroke-miterlimit:4;stroke-dasharray:none;stroke-opacity:1"
         id="path116" /><path
         d="m 83.918,91.0742 0.414,-2.7539 0.9571,-2.6367 3.3554,-4.4219 2.2618,-1.6328 2.5507,-1.1523 2.7266,-0.6055 2.7852,-0.0781 2.7502,0.4883 2.597,1.0156 4.344,3.4765 1.574,2.3047 1.082,2.5664 0.555,2.7461 v 2.7852"
         style="fill:#ffffff;fill-opacity:1;fill-rule:nonzero;stroke:none"
         id="path118" /><path
         d="m 83.918,91.0742 0.414,-2.7539 0.9571,-2.6367 3.3554,-4.4219 2.2618,-1.6328 2.5507,-1.1523 2.7266,-0.6055 2.7852,-0.0781 2.7502,0.4883 2.597,1.0156 4.344,3.4765 1.574,2.3047 1.082,2.5664 0.555,2.7461 v 2.7852"
         style="fill:none;stroke:#80d6f7;stroke-width:9;stroke-linecap:round;stroke-linejoin:round;stroke-miterlimit:4;stroke-dasharray:none;stroke-opacity:1"
         id="path120" /><path
         d="m 384.867,91.7773 -0.277,2.7735 -0.82,2.6758 -3.129,4.5894 -2.184,1.739 -2.484,1.269 -2.688,0.762 -2.785,0.215 -2.77,-0.352 -2.648,-0.898 -4.512,-3.242 -1.683,-2.227 -1.211,-2.5 -0.688,-2.7148 -0.14,-2.793"
         style="fill:#ffffff;fill-opacity:1;fill-rule:nonzero;stroke:none"
         id="path122" /><path
         d="m 384.867,91.7773 -0.277,2.7735 -0.82,2.6758 -3.129,4.5894 -2.184,1.739 -2.484,1.269 -2.688,0.762 -2.785,0.215 -2.77,-0.352 -2.648,-0.898 -4.512,-3.242 -1.683,-2.227 -1.211,-2.5 -0.688,-2.7148 -0.14,-2.793"
         style="fill:none;stroke:#80d6f7;stroke-width:9;stroke-linecap:round;stroke-linejoin:round;stroke-miterlimit:4;stroke-dasharray:none;stroke-opacity:1"
         id="path124" /><path
         d="m 356.848,91.0742 0.418,-2.7539 0.953,-2.6367 3.351,-4.4219 2.274,-1.6328 2.543,-1.1523 2.722,-0.6055 2.789,-0.0781 2.75,0.4883 2.598,1.0156 4.352,3.4765 1.57,2.3047 1.082,2.5664 0.555,2.7461 v 2.7852"
         style="fill:#ffffff;fill-opacity:1;fill-rule:nonzero;stroke:none"
         id="path126" /><path
         d="m 356.848,91.0742 0.418,-2.7539 0.953,-2.6367 3.351,-4.4219 2.274,-1.6328 2.543,-1.1523 2.722,-0.6055 2.789,-0.0781 2.75,0.4883 2.598,1.0156 4.352,3.4765 1.57,2.3047 1.082,2.5664 0.555,2.7461 v 2.7852"
         style="fill:none;stroke:#80d6f7;stroke-width:9;stroke-linecap:round;stroke-linejoin:round;stroke-miterlimit:4;stroke-dasharray:none;stroke-opacity:1"
         id="path128" /><g
         id="g130"
         transform="scale(10)"><text
           transform="matrix(1,0,0,-1,29.9398,49.9297)"
           style="font-variant:normal;font-weight:normal;font-size:7.36px;font-family:'Times New Roman';-inkscape-font-specification:Times-Roman;writing-mode:lr-tb;fill:#000000;fill-opacity:1;fill-rule:nonzero;stroke:none"
           id="text134"><tspan
             x="0"
             y="0"
             id="tspan132">–</tspan></text><text
           transform="matrix(1,0,0,-1,35.09175,52.68986)"
           style="font-variant:normal;font-weight:normal;font-size:7.36px;font-family:Symbol;-inkscape-font-specification:SymbolObliquePlain;writing-mode:lr-tb;fill:#000000;fill-opacity:1;fill-rule:nonzero;stroke:none"
           id="text138"><tspan
             x="0 4.0406399"
             y="0"
             id="tspan136">π</tspan></text><text
           transform="matrix(1,0,0,-1,35.452297,45.3297)"
           style="font-variant:normal;font-weight:normal;font-size:7.36px;font-family:Symbol;-inkscape-font-specification:Symbol;writing-mode:lr-tb;fill:#000000;fill-opacity:1;fill-rule:nonzero;stroke:none"
           id="text142"><tspan
             x="0"
             y="0"
             id="tspan140">2</tspan></text></g><path
         d="m 349.148,516.82 h 47.918"
         style="fill:none;stroke:#000000;stroke-width:3.5;stroke-linecap:butt;stroke-linejoin:miter;stroke-miterlimit:4;stroke-dasharray:none;stroke-opacity:1"
         id="path144" /><g
         id="g146"
         transform="scale(10)"><text
           transform="matrix(1,0,0,-1,90.007,31.9902)"
           style="font-variant:normal;font-weight:normal;font-size:7.36px;font-family:Symbol;-inkscape-font-specification:SymbolObliquePlain;writing-mode:lr-tb;fill:#000000;fill-opacity:1;fill-rule:nonzero;stroke:none"
           id="text150"><tspan
             x="0 4.0406399"
             y="0"
             id="tspan148">π</tspan></text><text
           transform="matrix(1,0,0,-1,90.187469,24.63004)"
           style="font-variant:normal;font-weight:normal;font-size:7.36px;font-family:Symbol;-inkscape-font-specification:Symbol;writing-mode:lr-tb;fill:#000000;fill-opacity:1;fill-rule:nonzero;stroke:none"
           id="text154"><tspan
             x="0"
             y="0"
             id="tspan152">2</tspan></text></g><path
         d="m 895.41,309.824 h 50.606"
         style="fill:none;stroke:#000000;stroke-width:3.5;stroke-linecap:butt;stroke-linejoin:miter;stroke-miterlimit:4;stroke-dasharray:none;stroke-opacity:1"
         id="path156" /></g></g></svg>
