<?xml version="1.0" encoding="UTF-8" standalone="no"?>
<svg
   xmlns:dc="http://purl.org/dc/elements/1.1/"
   xmlns:cc="http://creativecommons.org/ns#"
   xmlns:rdf="http://www.w3.org/1999/02/22-rdf-syntax-ns#"
   xmlns:svg="http://www.w3.org/2000/svg"
   xmlns="http://www.w3.org/2000/svg"
   version="1.1"
   id="svg2"
   xml:space="preserve"
   width="197.33333"
   height="142.66667"
   viewBox="0 0 197.33333 142.66667"><metadata
     id="metadata8"><rdf:RDF><cc:Work
         rdf:about=""><dc:format>image/svg+xml</dc:format><dc:type
           rdf:resource="http://purl.org/dc/dcmitype/StillImage" /></cc:Work></rdf:RDF></metadata><defs
     id="defs6" /><g
     id="g10"
     transform="matrix(1.3333333,0,0,-1.3333333,0,142.66667)"><g
       id="g12"
       transform="scale(0.1)"><path
         d="m 98.75,195 c 0,-25 0,-25 0,-25"
         style="fill:#000000;fill-opacity:1;fill-rule:nonzero;stroke:none"
         id="path14" /><path
         d="m 98.75,195 c 0,-25 0,-25 0,-25"
         style="fill:none;stroke:#000000;stroke-width:5;stroke-linecap:butt;stroke-linejoin:miter;stroke-miterlimit:4;stroke-dasharray:none;stroke-opacity:1"
         id="path16" /><path
         d="m 398.75,195 c 0,-25 0,-25 0,-25"
         style="fill:#000000;fill-opacity:1;fill-rule:nonzero;stroke:none"
         id="path18" /><path
         d="m 398.75,195 c 0,-25 0,-25 0,-25"
         style="fill:none;stroke:#000000;stroke-width:5;stroke-linecap:butt;stroke-linejoin:miter;stroke-miterlimit:4;stroke-dasharray:none;stroke-opacity:1"
         id="path20" /><path
         d="m 996.875,195 c 0,-25 0,-25 0,-25"
         style="fill:#000000;fill-opacity:1;fill-rule:nonzero;stroke:none"
         id="path22" /><path
         d="m 996.875,195 c 0,-25 0,-25 0,-25"
         style="fill:none;stroke:#000000;stroke-width:5;stroke-linecap:butt;stroke-linejoin:miter;stroke-miterlimit:4;stroke-dasharray:none;stroke-opacity:1"
         id="path24" /><path
         d="M 58.1406,198.242 H 1374.71"
         style="fill:none;stroke:#000000;stroke-width:7.5;stroke-linecap:butt;stroke-linejoin:miter;stroke-miterlimit:4;stroke-dasharray:none;stroke-opacity:1"
         id="path26" /><g
         id="g28"
         transform="scale(10)"><text
           transform="matrix(1,0,0,-1,68.2863,99.4309)"
           style="font-style:italic;font-variant:normal;font-size:8px;font-family:'Times New Roman';-inkscape-font-specification:Times-Italic;writing-mode:lr-tb;fill:#000000;fill-opacity:1;fill-rule:nonzero;stroke:none"
           id="text32"><tspan
             x="0"
             y="0"
             id="tspan30">s</tspan></text></g><path
         d="M 697.797,108.551 V 922.223"
         style="fill:none;stroke:#000000;stroke-width:7.5;stroke-linecap:butt;stroke-linejoin:miter;stroke-miterlimit:4;stroke-dasharray:none;stroke-opacity:1"
         id="path34" /><path
         d="M 993.988,198.242 H 1297.23"
         style="fill:none;stroke:#80d6f7;stroke-width:10;stroke-linecap:butt;stroke-linejoin:miter;stroke-miterlimit:4;stroke-dasharray:none;stroke-opacity:1"
         id="path36" /><path
         d="m 697.797,837.305 12.496,-26.621 12.48,-26.629 12.497,-26.621 12.48,-26.637 12.496,-26.621 12.481,-26.633 12.5,-26.621 12.488,-26.633 12.48,-26.621 12.493,-26.637 12.488,-26.621 12.492,-26.633 12.477,-26.621 12.5,-26.621 12.472,-26.637 12.5,-26.621 12.481,-26.632 12.492,-26.618 12.476,-26.636 12.493,-26.621 12.48,-26.633 12.5,-26.621 12.488,-26.633 13.547,-27.676"
         style="fill:none;stroke:#80d6f7;stroke-width:10;stroke-linecap:butt;stroke-linejoin:miter;stroke-miterlimit:4;stroke-dasharray:none;stroke-opacity:1"
         id="path38" /><path
         d="m 396.496,196.672 14.078,28.211 12.489,26.633 12.488,26.621 12.488,26.633 12.488,26.621 12.481,26.636 12.496,26.618 12.48,26.632 12.496,26.621 12.481,26.637 12.492,26.621 12.496,26.621 12.481,26.633 12.496,26.621 12.48,26.637 12.492,26.621 12.485,26.633 12.492,26.621 12.48,26.633 12.497,26.621 12.48,26.637 12.496,26.621 12.481,26.629 12.488,26.621"
         style="fill:none;stroke:#80d6f7;stroke-width:10;stroke-linecap:butt;stroke-linejoin:miter;stroke-miterlimit:4;stroke-dasharray:none;stroke-opacity:1"
         id="path40" /><path
         d="M 95.9297,198.242 H 401.313"
         style="fill:none;stroke:#80d6f7;stroke-width:10;stroke-linecap:butt;stroke-linejoin:miter;stroke-miterlimit:4;stroke-dasharray:none;stroke-opacity:1"
         id="path42" /><g
         id="g44"
         transform="scale(10)"><text
           transform="matrix(1,0,0,-1,86.2762,61.0094)"
           style="font-style:italic;font-variant:normal;font-size:8px;font-family:'Times New Roman';-inkscape-font-specification:Times-Italic;writing-mode:lr-tb;fill:#000000;fill-opacity:1;fill-rule:nonzero;stroke:none"
           id="text50"><tspan
             x="0 3.112 5.112 10.512 12.512 17.4 20.063999 22.288"
             y="0"
             id="tspan46">s = F(t)</tspan><tspan
             x="59.174198"
             y="43.134399"
             id="tspan48">t</tspan></text><text
           transform="matrix(1,0,0,-1,127.3684,8.98555)"
           style="font-variant:normal;font-weight:normal;font-size:8px;font-family:Symbol;-inkscape-font-specification:Symbol;writing-mode:lr-tb;fill:#000000;fill-opacity:1;fill-rule:nonzero;stroke:none"
           id="text56"><tspan
             x="0"
             y="0"
             id="tspan52">π</tspan><tspan
             x="-124.021 -119.629"
             y="-0.084765598"
             id="tspan54">−π</tspan></text></g><path
         d="m 673.75,841.25 c 20.625,0 20.625,0 20.625,0"
         style="fill:#000000;fill-opacity:1;fill-rule:nonzero;stroke:none"
         id="path58" /><path
         d="m 673.75,841.25 c 20.625,0 20.625,0 20.625,0"
         style="fill:none;stroke:#000000;stroke-width:5;stroke-linecap:butt;stroke-linejoin:miter;stroke-miterlimit:4;stroke-dasharray:none;stroke-opacity:1"
         id="path60" /><path
         d="m 1296.88,195 c 0,-25 0,-25 0,-25"
         style="fill:#000000;fill-opacity:1;fill-rule:nonzero;stroke:none"
         id="path62" /><path
         d="m 1296.88,195 c 0,-25 0,-25 0,-25"
         style="fill:none;stroke:#000000;stroke-width:5;stroke-linecap:butt;stroke-linejoin:miter;stroke-miterlimit:4;stroke-dasharray:none;stroke-opacity:1"
         id="path64" /><path
         d="m 1368.58,199.164 -12.33,20.27 0.69,0.461 33.04,-13.125 c 11.53,-2.536 23.03,-5.071 34.56,-7.606 -11.53,-2.527 -23.03,-5.062 -34.56,-7.598 l -33.04,-13.125 -0.69,0.348 12.33,20.375"
         style="fill:#000000;fill-opacity:1;fill-rule:nonzero;stroke:none"
         id="path66" /><path
         d="m 698.246,908.773 -20.266,-12.324 -0.46,0.684 13.125,33.047 c 2.535,11.523 5.07,23.027 7.601,34.55 2.531,-11.523 5.067,-23.027 7.598,-34.55 l 13.125,-33.047 -0.344,-0.684 -20.379,12.324"
         style="fill:#000000;fill-opacity:1;fill-rule:nonzero;stroke:none"
         id="path68" /><path
         d="m 58.0898,199.164 12.3243,20.27 -0.6836,0.461 L 36.6836,206.77 C 25.1602,204.234 13.6563,201.699 2.13281,199.164 13.6563,196.637 25.1602,194.102 36.6836,191.566 l 33.0469,-13.125 0.6836,0.348 -12.3243,20.375"
         style="fill:#000000;fill-opacity:1;fill-rule:nonzero;stroke:none"
         id="path70" /><g
         id="g72"
         transform="scale(10)"><text
           transform="matrix(1,0,0,-1,59.1281,85.0059)"
           style="font-variant:normal;font-weight:normal;font-size:8px;font-family:Symbol;-inkscape-font-specification:SymbolObliquePlain;writing-mode:lr-tb;fill:#000000;fill-opacity:1;fill-rule:nonzero;stroke:none"
           id="text76"><tspan
             x="0 4.3920002"
             y="0"
             id="tspan74">π</tspan></text><text
           transform="matrix(1,0,0,-1,59.324194,77.0059)"
           style="font-variant:normal;font-weight:normal;font-size:8px;font-family:Symbol;-inkscape-font-specification:Symbol;writing-mode:lr-tb;fill:#000000;fill-opacity:1;fill-rule:nonzero;stroke:none"
           id="text80"><tspan
             x="0"
             y="0"
             id="tspan78">2</tspan></text></g><path
         d="m 586.223,839.109 h 55"
         style="fill:none;stroke:#000000;stroke-width:3.5;stroke-linecap:butt;stroke-linejoin:miter;stroke-miterlimit:4;stroke-dasharray:none;stroke-opacity:1"
         id="path82" /><g
         id="g84"
         transform="scale(10)"><text
           transform="matrix(1,0,0,-1,96.7953,11.0059)"
           style="font-variant:normal;font-weight:normal;font-size:8px;font-family:Symbol;-inkscape-font-specification:SymbolObliquePlain;writing-mode:lr-tb;fill:#000000;fill-opacity:1;fill-rule:nonzero;stroke:none"
           id="text88"><tspan
             x="0 4.3920002"
             y="0"
             id="tspan86">π</tspan></text><text
           transform="matrix(1,0,0,-1,96.991394,3.0059)"
           style="font-variant:normal;font-weight:normal;font-size:8px;font-family:Symbol;-inkscape-font-specification:Symbol;writing-mode:lr-tb;fill:#000000;fill-opacity:1;fill-rule:nonzero;stroke:none"
           id="text92"><tspan
             x="0"
             y="0"
             id="tspan90">2</tspan></text></g><path
         d="m 962.891,99.1094 h 54.999"
         style="fill:none;stroke:#000000;stroke-width:3.5;stroke-linecap:butt;stroke-linejoin:miter;stroke-miterlimit:4;stroke-dasharray:none;stroke-opacity:1"
         id="path94" /><g
         id="g96"
         transform="scale(10)"><text
           transform="matrix(1,0,0,-1,31.4797,8.3375)"
           style="font-variant:normal;font-weight:normal;font-size:8px;font-family:'Times New Roman';-inkscape-font-specification:Times-Roman;writing-mode:lr-tb;fill:#000000;fill-opacity:1;fill-rule:nonzero;stroke:none"
           id="text100"><tspan
             x="0"
             y="0"
             id="tspan98">–</tspan></text><text
           transform="matrix(1,0,0,-1,37.0797,11.3375)"
           style="font-variant:normal;font-weight:normal;font-size:8px;font-family:Symbol;-inkscape-font-specification:SymbolObliquePlain;writing-mode:lr-tb;fill:#000000;fill-opacity:1;fill-rule:nonzero;stroke:none"
           id="text104"><tspan
             x="0 4.3920002"
             y="0"
             id="tspan102">π</tspan></text><text
           transform="matrix(1,0,0,-1,37.471888,3.3375)"
           style="font-variant:normal;font-weight:normal;font-size:8px;font-family:Symbol;-inkscape-font-specification:Symbol;writing-mode:lr-tb;fill:#000000;fill-opacity:1;fill-rule:nonzero;stroke:none"
           id="text108"><tspan
             x="0"
             y="0"
             id="tspan106">2</tspan></text></g><path
         d="m 368.871,99.918 h 52.074"
         style="fill:none;stroke:#000000;stroke-width:3.5;stroke-linecap:butt;stroke-linejoin:miter;stroke-miterlimit:4;stroke-dasharray:none;stroke-opacity:1"
         id="path110" /></g></g></svg>
