<?xml version="1.0" encoding="UTF-8" standalone="no"?>
<svg
   xmlns:dc="http://purl.org/dc/elements/1.1/"
   xmlns:cc="http://creativecommons.org/ns#"
   xmlns:rdf="http://www.w3.org/1999/02/22-rdf-syntax-ns#"
   xmlns:svg="http://www.w3.org/2000/svg"
   xmlns="http://www.w3.org/2000/svg"
   version="1.1"
   id="svg2"
   xml:space="preserve"
   width="201.33333"
   height="133.33333"
   viewBox="0 0 201.33333 133.33333"><metadata
     id="metadata8"><rdf:RDF><cc:Work
         rdf:about=""><dc:format>image/svg+xml</dc:format><dc:type
           rdf:resource="http://purl.org/dc/dcmitype/StillImage" /></cc:Work></rdf:RDF></metadata><defs
     id="defs6" /><g
     id="g10"
     transform="matrix(1.3333333,0,0,-1.3333333,0,133.33333)"><g
       id="g12"
       transform="scale(0.1)"><path
         d="m 1037.52,802.711 12.49,-14.797 12.48,-14.801 12.49,-14.781 12.5,-14.801 12.48,-14.785 12.5,-14.797 12.48,-14.801 12.49,-14.785 12.48,-14.797 12.49,-14.781 12.49,-14.801 12.49,-14.796 12.48,-14.79 12.5,-14.793 12.48,-14.785 12.48,-14.8 12.5,-14.797 12.48,-14.785 12.5,-14.801 12.47,-14.782 12.5,-14.8 12.49,-14.797 12.49,-14.785 12.48,-14.797"
         style="fill:none;stroke:#80d6f7;stroke-width:10;stroke-linecap:butt;stroke-linejoin:miter;stroke-miterlimit:4;stroke-dasharray:none;stroke-opacity:1"
         id="path14" /><path
         d="m 138.367,447.676 12.485,-14.805 12.492,-14.773 12.496,-14.805 12.48,-14.797 12.493,-14.785 12.484,-14.805 12.496,-14.785 12.477,-14.797 12.492,-14.793 12.484,-14.785 12.492,-14.805 12.481,-14.785 12.496,-14.797 12.484,-14.793 12.489,-14.785 12.48,-14.804 12.496,-14.786 12.496,-14.796 12.481,-14.793 12.496,-14.786 12.476,-14.796 12.496,-14.793 12.481,-14.786 12.496,-14.8043"
         style="fill:none;stroke:#80d6f7;stroke-width:10;stroke-linecap:butt;stroke-linejoin:miter;stroke-miterlimit:4;stroke-dasharray:none;stroke-opacity:1"
         id="path16" /><g
         id="g18"
         transform="scale(10)"><text
           transform="matrix(1,0,0,-1,148.75,42.9375)"
           style="font-style:italic;font-variant:normal;font-size:8px;font-family:'Times New Roman';-inkscape-font-specification:Times-Italic;writing-mode:lr-tb;fill:#000000;fill-opacity:1;fill-rule:nonzero;stroke:none"
           id="text22"><tspan
             x="0"
             y="0"
             id="tspan20">t</tspan></text></g><path
         d="M 55.5859,447.676 H 1423.34"
         style="fill:none;stroke:#000000;stroke-width:7.5;stroke-linecap:butt;stroke-linejoin:miter;stroke-miterlimit:4;stroke-dasharray:none;stroke-opacity:1"
         id="path24" /><g
         id="g26"
         transform="scale(10)"><text
           transform="matrix(1,0,0,-1,72.2566,92.6875)"
           style="font-style:italic;font-variant:normal;font-size:8px;font-family:'Times New Roman';-inkscape-font-specification:Times-Italic;writing-mode:lr-tb;fill:#000000;fill-opacity:1;fill-rule:nonzero;stroke:none"
           id="text30"><tspan
             x="0"
             y="0"
             id="tspan28">s</tspan></text></g><path
         d="M 737.797,58.4375 V 872.109"
         style="fill:none;stroke:#000000;stroke-width:7.5;stroke-linecap:butt;stroke-linejoin:miter;stroke-miterlimit:4;stroke-dasharray:none;stroke-opacity:1"
         id="path32" /><path
         d="m 438.086,92.6367 24.977,29.5903 24.976,29.589 24.969,29.579 24.976,29.582 24.977,29.589 24.988,29.59 24.977,29.59 24.972,29.578 24.977,29.582 24.977,29.59 24.976,29.602 24.969,29.578 24.976,29.582 24.977,29.582 24.977,29.598 24.968,29.582 24.993,29.585 24.98,29.583 24.977,29.582 24.972,29.593 24.973,29.586 24.969,29.582 24.981,29.582 24.98,29.598"
         style="fill:none;stroke:#80d6f7;stroke-width:10;stroke-linecap:butt;stroke-linejoin:miter;stroke-miterlimit:4;stroke-dasharray:none;stroke-opacity:1"
         id="path34" /><g
         id="g36"
         transform="scale(10)"><text
           transform="matrix(1,0,0,-1,99.0242,83.5)"
           style="font-style:italic;font-variant:normal;font-size:8px;font-family:'Times New Roman';-inkscape-font-specification:Times-Italic;writing-mode:lr-tb;fill:#000000;fill-opacity:1;fill-rule:nonzero;stroke:none"
           id="text40"><tspan
             x="0 3.112 5.112 10.512 12.512 17.4 20.063999 22.288"
             y="0"
             id="tspan38">s = F(t)</tspan></text></g><path
         d="m 1037.52,422.629 v 22.598"
         style="fill:none;stroke:#000000;stroke-width:5;stroke-linecap:butt;stroke-linejoin:miter;stroke-miterlimit:4;stroke-dasharray:none;stroke-opacity:1"
         id="path42" /><path
         d="m 1337.23,422.629 v 22.598"
         style="fill:none;stroke:#000000;stroke-width:5;stroke-linecap:butt;stroke-linejoin:miter;stroke-miterlimit:4;stroke-dasharray:none;stroke-opacity:1"
         id="path44" /><path
         d="m 438.086,449.504 v 22.598"
         style="fill:none;stroke:#000000;stroke-width:5;stroke-linecap:butt;stroke-linejoin:miter;stroke-miterlimit:4;stroke-dasharray:none;stroke-opacity:1"
         id="path46" /><path
         d="m 138.367,449.504 v 22.598"
         style="fill:none;stroke:#000000;stroke-width:5;stroke-linecap:butt;stroke-linejoin:miter;stroke-miterlimit:4;stroke-dasharray:none;stroke-opacity:1"
         id="path48" /><path
         d="m 716.383,802.711 h 19.086"
         style="fill:none;stroke:#000000;stroke-width:5;stroke-linecap:butt;stroke-linejoin:miter;stroke-miterlimit:4;stroke-dasharray:none;stroke-opacity:1"
         id="path50" /><path
         d="m 740.758,92.6367 h 19.086"
         style="fill:none;stroke:#000000;stroke-width:5;stroke-linecap:butt;stroke-linejoin:miter;stroke-miterlimit:4;stroke-dasharray:none;stroke-opacity:1"
         id="path52" /><g
         id="g54"
         transform="scale(10)"><text
           transform="matrix(1,0,0,-1,131.125,34.625)"
           style="font-variant:normal;font-weight:normal;font-size:8px;font-family:Symbol;-inkscape-font-specification:Symbol;writing-mode:lr-tb;fill:#000000;fill-opacity:1;fill-rule:nonzero;stroke:none"
           id="text60"><tspan
             x="0"
             y="0"
             id="tspan56">π</tspan><tspan
             x="-120.938 -116.546"
             y="-15.9375"
             id="tspan58">−π</tspan></text></g><path
         d="m 1412.36,448.414 -12.32,20.27 0.68,0.457 33.05,-13.125 c 11.52,-2.536 23.03,-5.071 34.55,-7.602 -11.52,-2.531 -23.03,-5.062 -34.55,-7.598 l -33.05,-13.125 -0.68,0.348 12.32,20.375"
         style="fill:#000000;fill-opacity:1;fill-rule:nonzero;stroke:none"
         id="path62" /><path
         d="m 737.891,854.863 -20.27,-12.324 -0.457,0.684 13.125,33.047 c 2.531,11.523 5.066,23.027 7.602,34.55 2.531,-11.523 5.062,-23.027 7.597,-34.55 l 13.125,-33.047 -0.347,-0.684 -20.375,12.324"
         style="fill:#000000;fill-opacity:1;fill-rule:nonzero;stroke:none"
         id="path64" /><path
         d="m 737.598,60.1367 -20.27,12.3242 -0.457,-0.6836 13.125,-33.0468 c 2.531,-11.5235 5.067,-23.0274 7.602,-34.55081 2.531,11.52341 5.062,23.02731 7.597,34.55081 l 13.125,33.0468 -0.347,0.6836 -20.375,-12.3242"
         style="fill:#000000;fill-opacity:1;fill-rule:nonzero;stroke:none"
         id="path66" /><path
         d="m 56.5078,447.48 12.3242,20.27 -0.6836,0.457 -33.0468,-13.125 C 23.5781,452.551 12.0742,450.016 0.550781,447.48 12.0742,444.949 23.5781,442.418 35.1016,439.883 l 33.0468,-13.125 0.6836,0.347 -12.3242,20.375"
         style="fill:#000000;fill-opacity:1;fill-rule:nonzero;stroke:none"
         id="path68" /><g
         id="g70"
         transform="scale(10)"><text
           transform="matrix(1,0,0,-1,64.7113,81.1309)"
           style="font-variant:normal;font-weight:normal;font-size:8px;font-family:Symbol;-inkscape-font-specification:SymbolObliquePlain;writing-mode:lr-tb;fill:#000000;fill-opacity:1;fill-rule:nonzero;stroke:none"
           id="text74"><tspan
             x="0 4.3920002"
             y="0"
             id="tspan72">π</tspan></text><text
           transform="matrix(1,0,0,-1,64.907003,73.1309)"
           style="font-variant:normal;font-weight:normal;font-size:8px;font-family:Symbol;-inkscape-font-specification:Symbol;writing-mode:lr-tb;fill:#000000;fill-opacity:1;fill-rule:nonzero;stroke:none"
           id="text78"><tspan
             x="0"
             y="0"
             id="tspan76">2</tspan></text></g><path
         d="m 642.051,800.359 h 55"
         style="fill:none;stroke:#000000;stroke-width:3.5;stroke-linecap:butt;stroke-linejoin:miter;stroke-miterlimit:4;stroke-dasharray:none;stroke-opacity:1"
         id="path80" /><g
         id="g82"
         transform="scale(10)"><text
           transform="matrix(1,0,0,-1,100.961,36.8809)"
           style="font-variant:normal;font-weight:normal;font-size:8px;font-family:Symbol;-inkscape-font-specification:SymbolObliquePlain;writing-mode:lr-tb;fill:#000000;fill-opacity:1;fill-rule:nonzero;stroke:none"
           id="text86"><tspan
             x="0 4.3920002"
             y="0"
             id="tspan84">π</tspan></text><text
           transform="matrix(1,0,0,-1,101.1567,28.8809)"
           style="font-variant:normal;font-weight:normal;font-size:8px;font-family:Symbol;-inkscape-font-specification:Symbol;writing-mode:lr-tb;fill:#000000;fill-opacity:1;fill-rule:nonzero;stroke:none"
           id="text90"><tspan
             x="0"
             y="0"
             id="tspan88">2</tspan></text></g><path
         d="m 1004.55,357.859 h 55"
         style="fill:none;stroke:#000000;stroke-width:3.5;stroke-linecap:butt;stroke-linejoin:miter;stroke-miterlimit:4;stroke-dasharray:none;stroke-opacity:1"
         id="path92" /><g
         id="g94"
         transform="scale(10)"><text
           transform="matrix(1,0,0,-1,35.8961,53.4629)"
           style="font-variant:normal;font-weight:normal;font-size:8px;font-family:'Times New Roman';-inkscape-font-specification:Times-Roman;writing-mode:lr-tb;fill:#000000;fill-opacity:1;fill-rule:nonzero;stroke:none"
           id="text98"><tspan
             x="0"
             y="0"
             id="tspan96">–</tspan></text><text
           transform="matrix(1,0,0,-1,41.4961,56.4629)"
           style="font-variant:normal;font-weight:normal;font-size:8px;font-family:Symbol;-inkscape-font-specification:SymbolObliquePlain;writing-mode:lr-tb;fill:#000000;fill-opacity:1;fill-rule:nonzero;stroke:none"
           id="text102"><tspan
             x="0 4.3920002"
             y="0"
             id="tspan100">π</tspan></text><text
           transform="matrix(1,0,0,-1,41.888288,48.4629)"
           style="font-variant:normal;font-weight:normal;font-size:8px;font-family:Symbol;-inkscape-font-specification:Symbol;writing-mode:lr-tb;fill:#000000;fill-opacity:1;fill-rule:nonzero;stroke:none"
           id="text106"><tspan
             x="0"
             y="0"
             id="tspan104">2</tspan></text></g><path
         d="m 413.039,551.172 h 52.074"
         style="fill:none;stroke:#000000;stroke-width:3.5;stroke-linecap:butt;stroke-linejoin:miter;stroke-miterlimit:4;stroke-dasharray:none;stroke-opacity:1"
         id="path108" /><g
         id="g110"
         transform="scale(10)"><text
           transform="matrix(1,0,0,-1,78.1461,7.71289)"
           style="font-variant:normal;font-weight:normal;font-size:8px;font-family:'Times New Roman';-inkscape-font-specification:Times-Roman;writing-mode:lr-tb;fill:#000000;fill-opacity:1;fill-rule:nonzero;stroke:none"
           id="text114"><tspan
             x="0"
             y="0"
             id="tspan112">–</tspan></text><text
           transform="matrix(1,0,0,-1,83.7461,10.71289)"
           style="font-variant:normal;font-weight:normal;font-size:8px;font-family:Symbol;-inkscape-font-specification:SymbolObliquePlain;writing-mode:lr-tb;fill:#000000;fill-opacity:1;fill-rule:nonzero;stroke:none"
           id="text118"><tspan
             x="0 4.3920002"
             y="0"
             id="tspan116">π</tspan></text><text
           transform="matrix(1,0,0,-1,84.138288,2.71289)"
           style="font-variant:normal;font-weight:normal;font-size:8px;font-family:Symbol;-inkscape-font-specification:Symbol;writing-mode:lr-tb;fill:#000000;fill-opacity:1;fill-rule:nonzero;stroke:none"
           id="text122"><tspan
             x="0"
             y="0"
             id="tspan120">2</tspan></text></g><path
         d="m 835.539,93.6719 h 52.074"
         style="fill:none;stroke:#000000;stroke-width:3.5;stroke-linecap:butt;stroke-linejoin:miter;stroke-miterlimit:4;stroke-dasharray:none;stroke-opacity:1"
         id="path124" /></g></g></svg>
