<?xml version="1.0" encoding="UTF-8" standalone="no"?>
<svg
   xmlns:dc="http://purl.org/dc/elements/1.1/"
   xmlns:cc="http://creativecommons.org/ns#"
   xmlns:rdf="http://www.w3.org/1999/02/22-rdf-syntax-ns#"
   xmlns:svg="http://www.w3.org/2000/svg"
   xmlns="http://www.w3.org/2000/svg"
   version="1.1"
   id="svg2"
   xml:space="preserve"
   width="456.06934"
   height="252.70132"
   viewBox="0 0 456.06934 252.70132"><metadata
     id="metadata8"><rdf:RDF><cc:Work
         rdf:about=""><dc:format>image/svg+xml</dc:format><dc:type
           rdf:resource="http://purl.org/dc/dcmitype/StillImage" /></cc:Work></rdf:RDF></metadata><defs
     id="defs6"><linearGradient
       x1="0"
       y1="0"
       x2="1"
       y2="0"
       gradientUnits="userSpaceOnUse"
       gradientTransform="matrix(0,62.714,132.404,0,10.92,55.634)"
       spreadMethod="pad"
       id="linearGradient28"><stop
         style="stop-opacity:1;stop-color:#99def9"
         offset="0"
         id="stop24" /><stop
         style="stop-opacity:1;stop-color:#e5f7fd"
         offset="1"
         id="stop26" /></linearGradient><linearGradient
       x1="0"
       y1="0"
       x2="1"
       y2="0"
       gradientUnits="userSpaceOnUse"
       gradientTransform="matrix(0,141.621,94.969,0,223.359,14.805)"
       spreadMethod="pad"
       id="linearGradient48"><stop
         style="stop-opacity:1;stop-color:#99def9"
         offset="0"
         id="stop44" /><stop
         style="stop-opacity:1;stop-color:#e5f7fd"
         offset="1"
         id="stop46" /></linearGradient></defs><g
     id="g10"
     transform="matrix(1.3333333,0,0,-1.3333333,0,252.70133)"><g
       id="g12"><g
         id="g14"><g
           id="g20"><g
             id="g22"><path
               d="M 141.324,55.419 H 12.92 v 73.152 H 141.324 V 55.419"
               style="fill:url(#linearGradient28);stroke:none"
               id="path30" /></g></g></g></g><path
       d="M 141.324,55.419 H 12.92 v 73.152 h 128.404 z"
       style="fill:none;stroke:#4dc6f4;stroke-width:0.5;stroke-linecap:butt;stroke-linejoin:miter;stroke-miterlimit:4;stroke-dasharray:none;stroke-opacity:1"
       id="path32" /><g
       id="g34"><g
         id="g36"><g
           id="g42"><path
             d="m 316.32,86.575 c -0.044,8.806 -1.22,17.342 -3.39,25.474 -2.27,8.5 -5.623,16.555 -9.908,24.01 -4.408,7.671 -9.792,14.71 -15.995,20.935 l -61.668,-60.29 c 1.149,-1.034 2.139,-2.239 2.925,-3.58 0.681,-1.164 1.206,-2.429 1.555,-3.767 0.235,-0.897 0.391,-1.826 0.455,-2.782 0.022,-0.33 0.034,-0.664 0.034,-1 0,-1.169 -0.149,-2.301 -0.404,-3.392 -0.269,-1.153 -0.661,-2.256 -1.18,-3.289 -0.563,-1.126 -1.26,-2.175 -2.076,-3.119 l 60.013,-60.97 c 6.654,6.616 12.383,14.161 16.986,22.419 3.887,6.972 6.966,14.455 9.114,22.323 2.308,8.452 3.547,17.345 3.547,26.528 0,0.168 -0.008,0.333 -0.008,0.5"
             style="fill:url(#linearGradient48);stroke:none"
             id="path50" /></g></g></g><path
       d="m 12.92,118.668 h 128.404 v 9.903 H 12.92 Z"
       style="fill:#ffffff;fill-opacity:1;fill-rule:nonzero;stroke:none"
       id="path52" /><g
       id="g54"
       transform="translate(77.122,141.232)"><path
         d="m 0,0 -2.026,-1.232 -0.047,0.069 1.313,3.305 C -0.507,3.293 -0.253,4.444 0,5.596 0.254,4.444 0.507,3.293 0.76,2.142 L 2.073,-1.163 2.038,-1.232 0,0"
         style="fill:#000000;fill-opacity:1;fill-rule:nonzero;stroke:none"
         id="path56" /></g><g
       id="g58"
       transform="translate(77.122,44.693)"><path
         d="M 0,0 2.026,1.232 2.073,1.163 0.76,-2.142 C 0.507,-3.293 0.254,-4.444 0,-5.596 c -0.253,1.152 -0.507,2.303 -0.76,3.454 L -2.073,1.163 -2.038,1.232 0,0"
         style="fill:#000000;fill-opacity:1;fill-rule:nonzero;stroke:none"
         id="path60" /></g><g
       id="g62"
       transform="translate(216.328,14.022)"><path
         d="M 0,0 2.026,1.232 2.073,1.163 0.76,-2.142 C 0.507,-3.293 0.253,-4.444 0,-5.596 c -0.253,1.152 -0.507,2.303 -0.76,3.454 L -2.073,1.163 -2.038,1.232 0,0"
         style="fill:#000000;fill-opacity:1;fill-rule:nonzero;stroke:none"
         id="path64" /></g><g
       id="g66"
       transform="translate(216.328,175.078)"><path
         d="M 0,0 V -161.5"
         style="fill:none;stroke:#000000;stroke-width:0.75;stroke-linecap:butt;stroke-linejoin:miter;stroke-miterlimit:4;stroke-dasharray:none;stroke-opacity:1"
         id="path68" /></g><g
       id="g70"
       transform="translate(216.328,175.04)"><path
         d="m 0,0 -2.026,-1.233 -0.047,0.07 1.313,3.305 C -0.507,3.293 -0.253,4.444 0,5.596 0.253,4.444 0.506,3.293 0.76,2.142 L 2.073,-1.163 2.038,-1.233 0,0"
         style="fill:#000000;fill-opacity:1;fill-rule:nonzero;stroke:none"
         id="path72" /></g><g
       id="g74"
       transform="translate(141.324,86.909)"><path
         d="M 0,0 H 11.612"
         style="fill:none;stroke:#000000;stroke-width:0.75;stroke-linecap:butt;stroke-linejoin:miter;stroke-miterlimit:4;stroke-dasharray:none;stroke-opacity:1"
         id="path76" /></g><g
       id="g78"
       transform="translate(12.92,86.909)"><path
         d="M 0,0 H 128.403"
         style="fill:none;stroke:#4dc6f4;stroke-width:0.75;stroke-linecap:butt;stroke-linejoin:miter;stroke-miterlimit:4;stroke-dasharray:none;stroke-opacity:1"
         id="path80" /></g><g
       id="g82"
       transform="translate(5.0659,86.909)"><path
         d="M 0,0 H 7.855"
         style="fill:none;stroke:#000000;stroke-width:0.75;stroke-linecap:butt;stroke-linejoin:miter;stroke-miterlimit:4;stroke-dasharray:none;stroke-opacity:1"
         id="path84" /></g><g
       id="g86"
       transform="translate(152.898,86.909)"><path
         d="M 0,0 -1.232,2.026 -1.163,2.072 2.142,0.76 C 3.293,0.507 4.445,0.253 5.596,0 4.445,-0.253 3.293,-0.506 2.142,-0.76 L -1.163,-2.073 -1.232,-2.038 0,0"
         style="fill:#000000;fill-opacity:1;fill-rule:nonzero;stroke:none"
         id="path88" /></g><g
       id="g90"
       transform="translate(5.5962,86.908)"><path
         d="M 0,0 1.232,-2.026 1.163,-2.072 -2.142,-0.76 c -1.151,0.253 -2.303,0.507 -3.454,0.76 1.151,0.254 2.303,0.506 3.454,0.76 L 1.163,2.073 1.232,2.038 0,0"
         style="fill:#000000;fill-opacity:1;fill-rule:nonzero;stroke:none"
         id="path92" /></g><g
       id="g94"
       transform="translate(157.986,149.972)"><path
         d="M 0,0 H 36.593"
         style="fill:none;stroke:#000000;stroke-width:0.75;stroke-linecap:butt;stroke-linejoin:miter;stroke-miterlimit:4;stroke-dasharray:none;stroke-opacity:1"
         id="path96" /></g><g
       id="g98"
       transform="translate(194.541,149.972)"><path
         d="M 0,0 -1.232,2.027 -1.163,2.073 2.142,0.76 C 3.293,0.507 4.445,0.253 5.597,0 4.445,-0.253 3.293,-0.506 2.142,-0.76 L -1.163,-2.072 -1.232,-2.038 0,0"
         style="fill:#000000;fill-opacity:1;fill-rule:nonzero;stroke:none"
         id="path100" /></g><text
       transform="matrix(1,0,0,-1,143.8281,90.0778)"
       style="font-variant:normal;font-weight:normal;font-stretch:normal;font-size:8px;font-family:Times;-inkscape-font-specification:Times-Roman;writing-mode:lr-tb;fill:#231f20;fill-opacity:1;fill-rule:nonzero;stroke:none"
       id="text104"><tspan
         x="0"
         y="0"
         id="tspan102">1</tspan></text><text
       transform="matrix(1,0,0,-1,2.3321,90.0778)"
       style="font-variant:normal;font-weight:normal;font-stretch:normal;font-size:8px;font-family:Symbol;-inkscape-font-specification:Symbol;writing-mode:lr-tb;fill:#231f20;fill-opacity:1;fill-rule:nonzero;stroke:none"
       id="text108"><tspan
         x="0"
         y="0"
         id="tspan106">−</tspan></text><text
       transform="matrix(1,0,0,-1,6.7241,90.0778)"
       style="font-variant:normal;font-weight:normal;font-stretch:normal;font-size:8px;font-family:Times;-inkscape-font-specification:Times-Roman;writing-mode:lr-tb;fill:#231f20;fill-opacity:1;fill-rule:nonzero;stroke:none"
       id="text112"><tspan
         x="0"
         y="0"
         id="tspan110">1</tspan></text><text
       transform="matrix(1,0,0,-1,160.1961,85.1258)"
       style="font-style:italic;font-variant:normal;font-weight:normal;font-stretch:normal;font-size:8px;font-family:Times;-inkscape-font-specification:Times-Italic;writing-mode:lr-tb;fill:#231f20;fill-opacity:1;fill-rule:nonzero;stroke:none"
       id="text122"><tspan
         x="0"
         y="0"
         id="tspan114">x</tspan><tspan
         x="-84.863998"
         y="-64.543999"
         id="tspan116">y</tspan><tspan
         x="54.632"
         y="-97.335999"
         id="tspan118">v</tspan><tspan
         x="-99.087997"
         y="-49.928001"
         id="tspan120">i</tspan></text><text
       transform="matrix(1,0,0,-1,217.8361,88.5738)"
       style="font-variant:normal;font-weight:normal;font-stretch:normal;font-size:8px;font-family:Times;-inkscape-font-specification:Times-Roman;writing-mode:lr-tb;fill:#231f20;fill-opacity:1;fill-rule:nonzero;stroke:none"
       id="text126"><tspan
         x="0 4"
         y="0"
         id="tspan124">1/</tspan></text><text
       transform="matrix(1,0,0,-1,224.0601,88.5738)"
       style="font-style:italic;font-variant:normal;font-weight:normal;font-stretch:normal;font-size:8px;font-family:Times;-inkscape-font-specification:Times-Italic;writing-mode:lr-tb;fill:#231f20;fill-opacity:1;fill-rule:nonzero;stroke:none"
       id="text130"><tspan
         x="0"
         y="0"
         id="tspan128">e</tspan></text><text
       transform="matrix(1,0,0,-1,222.328,120.718)"
       style="font-style:italic;font-variant:normal;font-weight:normal;font-stretch:normal;font-size:8px;font-family:Times;-inkscape-font-specification:Times-Italic;writing-mode:lr-tb;fill:#231f20;fill-opacity:1;fill-rule:nonzero;stroke:none"
       id="text134"><tspan
         x="0"
         y="0"
         id="tspan132">e</tspan></text><text
       transform="matrix(1,0,0,-1,225.879,122.72)"
       style="font-style:italic;font-variant:normal;font-weight:normal;font-stretch:normal;font-size:6px;font-family:Times;-inkscape-font-specification:Times-Italic;writing-mode:lr-tb;fill:#231f20;fill-opacity:1;fill-rule:nonzero;stroke:none"
       id="text138"><tspan
         x="0"
         y="0"
         id="tspan136">i</tspan></text><text
       transform="matrix(1,0,0,-1,227.547,122.72)"
       style="font-variant:normal;font-weight:normal;font-stretch:normal;font-size:6px;font-family:'Courier New';-inkscape-font-specification:Courier;writing-mode:lr-tb;fill:#231f20;fill-opacity:1;fill-rule:nonzero;stroke:none"
       id="text142"><tspan
         x="0"
         y="0"
         id="tspan140">π</tspan></text><text
       transform="matrix(1,0,0,-1,230.841,122.72)"
       style="font-variant:normal;font-weight:normal;font-stretch:normal;font-size:6px;font-family:Times;-inkscape-font-specification:Times-Roman;writing-mode:lr-tb;fill:#231f20;fill-opacity:1;fill-rule:nonzero;stroke:none"
       id="text146"><tspan
         x="0 1.668"
         y="0"
         id="tspan144">/3</tspan></text><text
       transform="matrix(1,0,0,-1,218.828,58.388)"
       style="font-style:italic;font-variant:normal;font-weight:normal;font-stretch:normal;font-size:8px;font-family:Times;-inkscape-font-specification:Times-Italic;writing-mode:lr-tb;fill:#231f20;fill-opacity:1;fill-rule:nonzero;stroke:none"
       id="text150"><tspan
         x="0"
         y="0"
         id="tspan148">e</tspan></text><text
       transform="matrix(1,0,0,-1,222.379,60.388)"
       style="font-variant:normal;font-weight:normal;font-stretch:normal;font-size:6px;font-family:Symbol;-inkscape-font-specification:Symbol;writing-mode:lr-tb;fill:#231f20;fill-opacity:1;fill-rule:nonzero;stroke:none"
       id="text154"><tspan
         x="0"
         y="0"
         id="tspan152">−</tspan></text><text
       transform="matrix(1,0,0,-1,225.673,60.388)"
       style="font-style:italic;font-variant:normal;font-weight:normal;font-stretch:normal;font-size:6px;font-family:Times;-inkscape-font-specification:Times-Italic;writing-mode:lr-tb;fill:#231f20;fill-opacity:1;fill-rule:nonzero;stroke:none"
       id="text158"><tspan
         x="0"
         y="0"
         id="tspan156">i</tspan></text><text
       transform="matrix(1,0,0,-1,227.341,60.388)"
       style="font-variant:normal;font-weight:normal;font-stretch:normal;font-size:6px;font-family:'Courier New';-inkscape-font-specification:Courier;writing-mode:lr-tb;fill:#231f20;fill-opacity:1;fill-rule:nonzero;stroke:none"
       id="text162"><tspan
         x="0"
         y="0"
         id="tspan160">π</tspan></text><text
       transform="matrix(1,0,0,-1,230.635,60.388)"
       style="font-variant:normal;font-weight:normal;font-stretch:normal;font-size:6px;font-family:Times;-inkscape-font-specification:Times-Roman;writing-mode:lr-tb;fill:#231f20;fill-opacity:1;fill-rule:nonzero;stroke:none"
       id="text166"><tspan
         x="0 1.668"
         y="0"
         id="tspan164">/4</tspan></text><text
       transform="matrix(1,0,0,-1,230.4423,1.7442)"
       style="font-variant:normal;font-weight:normal;font-stretch:normal;font-size:8px;font-family:Times;-inkscape-font-specification:Times-Roman;writing-mode:lr-tb;fill:#231f20;fill-opacity:1;fill-rule:nonzero;stroke:none"
       id="text170"><tspan
         x="0 4.888 8.8879995 12.44"
         y="0"
         id="tspan168">The </tspan></text><text
       transform="matrix(1,0,0,-1,244.8823,1.7442)"
       style="font-style:italic;font-variant:normal;font-weight:normal;font-stretch:normal;font-size:8px;font-family:Times;-inkscape-font-specification:Times-Italic;writing-mode:lr-tb;fill:#231f20;fill-opacity:1;fill-rule:nonzero;stroke:none"
       id="text174"><tspan
         x="0"
         y="0"
         id="tspan172">w</tspan></text><text
       transform="matrix(1,0,0,-1,252.2183,1.7442)"
       style="font-variant:normal;font-weight:normal;font-stretch:normal;font-size:8px;font-family:Times;-inkscape-font-specification:Times-Roman;writing-mode:lr-tb;fill:#231f20;fill-opacity:1;fill-rule:nonzero;stroke:none"
       id="text178"><tspan
         x="0 4 6.224 9.776 13.776 17.327999 -194.664 -189.776 -185.776 -182.224"
         y="0"
         id="tspan176">plane.The </tspan></text><text
       transform="matrix(1,0,0,-1,71.9943,1.7442)"
       style="font-style:italic;font-variant:normal;font-weight:normal;font-stretch:normal;font-size:8px;font-family:Times;-inkscape-font-specification:Times-Italic;writing-mode:lr-tb;fill:#231f20;fill-opacity:1;fill-rule:nonzero;stroke:none"
       id="text182"><tspan
         x="0"
         y="0"
         id="tspan180">z</tspan></text><text
       transform="matrix(1,0,0,-1,77.1063,1.7442)"
       style="font-variant:normal;font-weight:normal;font-stretch:normal;font-size:8px;font-family:Times;-inkscape-font-specification:Times-Roman;writing-mode:lr-tb;fill:#231f20;fill-opacity:1;fill-rule:nonzero;stroke:none"
       id="text186"><tspan
         x="0 4 6.224 9.776 13.776 17.327999"
         y="0"
         id="tspan184">plane.</tspan></text><g
       id="g188"
       transform="translate(316.32,86.575)"><path
         d="M 0,0 H 13.481"
         style="fill:none;stroke:#000000;stroke-width:0.75;stroke-linecap:butt;stroke-linejoin:miter;stroke-miterlimit:4;stroke-dasharray:none;stroke-opacity:1"
         id="path190" /></g><g
       id="g192"
       transform="translate(230.293,86.575)"><path
         d="M 0,0 H 86.027"
         style="fill:none;stroke:#4dc6f4;stroke-width:0.75;stroke-linecap:butt;stroke-linejoin:miter;stroke-miterlimit:4;stroke-dasharray:none;stroke-opacity:1"
         id="path194" /></g><g
       id="g196"
       transform="translate(210.328,86.575)"><path
         d="M 0,0 H 19.965"
         style="fill:none;stroke:#000000;stroke-width:0.75;stroke-linecap:butt;stroke-linejoin:miter;stroke-miterlimit:4;stroke-dasharray:none;stroke-opacity:1"
         id="path198" /></g><g
       id="g200"
       transform="translate(329.764,86.575)"><path
         d="M 0,0 -1.231,2.026 -1.163,2.073 2.142,0.76 C 3.293,0.507 4.445,0.253 5.597,0 4.445,-0.253 3.293,-0.507 2.142,-0.76 L -1.163,-2.073 -1.231,-2.038 0,0"
         style="fill:#000000;fill-opacity:1;fill-rule:nonzero;stroke:none"
         id="path202" /></g><text
       transform="matrix(1,0,0,-1,319.3281,89.3278)"
       style="font-style:italic;font-variant:normal;font-weight:normal;font-stretch:normal;font-size:8px;font-family:Times;-inkscape-font-specification:Times-Italic;writing-mode:lr-tb;fill:#231f20;fill-opacity:1;fill-rule:nonzero;stroke:none"
       id="text210"><tspan
         x="0"
         y="0"
         id="tspan204">e</tspan><tspan
         x="18.728001"
         y="4.2480001"
         id="tspan206">u</tspan><tspan
         x="-161.51199 -156.17599 -154.17599 -148.776"
         y="-68.199997"
         id="tspan208">w = </tspan></text><text
       transform="matrix(1,0,0,-1,172.5521,157.5278)"
       style="font-variant:normal;font-weight:normal;font-stretch:normal;font-size:8px;font-family:Times;-inkscape-font-specification:Times-Roman;writing-mode:lr-tb;fill:#231f20;fill-opacity:1;fill-rule:nonzero;stroke:none"
       id="text214"><tspan
         x="0 3.552 7.552"
         y="0"
         id="tspan212">exp</tspan></text><text
       transform="matrix(1,0,0,-1,184.1041,157.5278)"
       style="font-style:italic;font-variant:normal;font-weight:normal;font-stretch:normal;font-size:8px;font-family:Times;-inkscape-font-specification:Times-Italic;writing-mode:lr-tb;fill:#231f20;fill-opacity:1;fill-rule:nonzero;stroke:none"
       id="text218"><tspan
         x="0 2.664 5.776"
         y="0"
         id="tspan216">(z)</tspan></text><g
       id="g220"
       transform="translate(143.276,86.616)"><path
         d="m 0,0 c 0,-1.104 -0.896,-2 -2,-2 -1.105,0 -2,0.896 -2,2 0,1.104 0.895,2 2,2 1.104,0 2,-0.896 2,-2"
         style="fill:#4dc6f4;fill-opacity:1;fill-rule:nonzero;stroke:none"
         id="path222" /></g><g
       id="g224"
       transform="translate(14.872,86.616)"><path
         d="m 0,0 c 0,-1.104 -0.896,-2 -2,-2 -1.104,0 -2,0.896 -2,2 0,1.104 0.896,2 2,2 1.104,0 2,-0.896 2,-2"
         style="fill:#4dc6f4;fill-opacity:1;fill-rule:nonzero;stroke:none"
         id="path226" /></g><g
       id="g228"
       transform="translate(12.92,65.852)"><path
         d="M 0,0 H 128.404"
         style="fill:none;stroke:#4dc6f4;stroke-width:0.5;stroke-linecap:butt;stroke-linejoin:miter;stroke-miterlimit:4;stroke-dasharray:none;stroke-opacity:1"
         id="path230" /></g><g
       id="g232"
       transform="translate(12.92,76.426)"><path
         d="M 0,0 H 128.404"
         style="fill:none;stroke:#4dc6f4;stroke-width:0.5;stroke-linecap:butt;stroke-linejoin:miter;stroke-miterlimit:4;stroke-dasharray:none;stroke-opacity:1"
         id="path234" /></g><g
       id="g236"
       transform="translate(12.92,97.926)"><path
         d="M 0,0 H 128.404"
         style="fill:none;stroke:#4dc6f4;stroke-width:0.5;stroke-linecap:butt;stroke-linejoin:miter;stroke-miterlimit:4;stroke-dasharray:none;stroke-opacity:1"
         id="path238" /></g><g
       id="g240"
       transform="translate(12.92,108.426)"><path
         d="M 0,0 H 128.404"
         style="fill:none;stroke:#4dc6f4;stroke-width:0.5;stroke-linecap:butt;stroke-linejoin:miter;stroke-miterlimit:4;stroke-dasharray:none;stroke-opacity:1"
         id="path242" /></g><g
       id="g244"
       transform="translate(12.92,118.852)"><path
         d="M 0,0 H 128.404"
         style="fill:none;stroke:#4dc6f4;stroke-width:0.5;stroke-linecap:butt;stroke-linejoin:miter;stroke-miterlimit:4;stroke-dasharray:none;stroke-opacity:1"
         id="path246" /></g><g
       id="g248"
       transform="translate(141.324,55.419)"><path
         d="M 0,0 H -128.404 V 73.152 H 0 Z"
         style="fill:none;stroke:#4dc6f4;stroke-width:0.5;stroke-linecap:butt;stroke-linejoin:miter;stroke-miterlimit:4;stroke-dasharray:none;stroke-opacity:1"
         id="path250" /></g><g
       id="g252"
       transform="translate(303.197,37.415)"><path
         d="M 0,0 -73.646,43.054"
         style="fill:none;stroke:#4dc6f4;stroke-width:0.5;stroke-linecap:butt;stroke-linejoin:miter;stroke-miterlimit:4;stroke-dasharray:none;stroke-opacity:1"
         id="path254" /></g><g
       id="g256"
       transform="translate(313.104,61.425)"><path
         d="M 0,0 -82.854,23.158"
         style="fill:none;stroke:#4dc6f4;stroke-width:0.5;stroke-linecap:butt;stroke-linejoin:miter;stroke-miterlimit:4;stroke-dasharray:none;stroke-opacity:1"
         id="path258" /></g><g
       id="g260"
       transform="translate(316.495,86.574)"><path
         d="m 0,0 c -0.044,8.806 -1.22,17.342 -3.391,25.474 -2.268,8.5 -5.622,16.555 -9.907,24.01 -4.408,7.671 -9.792,14.709 -15.994,20.935 -6.024,6.047 -12.815,11.331 -20.211,15.696 L -93.539,12.006 c 0.928,-0.533 1.789,-1.166 2.578,-1.878 1.15,-1.033 2.14,-2.238 2.925,-3.579 0.682,-1.164 1.207,-2.429 1.556,-3.767 0.234,-0.898 0.391,-1.826 0.454,-2.782 0.022,-0.331 0.035,-0.664 0.035,-1 0,-1.169 -0.15,-2.301 -0.404,-3.393 -0.269,-1.152 -0.662,-2.255 -1.18,-3.288 -0.565,-1.126 -1.261,-2.175 -2.077,-3.119 l 60.012,-60.971 c 6.656,6.617 12.383,14.162 16.988,22.42 3.886,6.972 6.966,14.454 9.113,22.323 2.307,8.451 3.548,17.344 3.548,26.528 0,0.167 -0.008,0.333 -0.009,0.5 z"
         style="fill:none;stroke:#4dc6f4;stroke-width:0.5;stroke-linecap:butt;stroke-linejoin:miter;stroke-miterlimit:4;stroke-dasharray:none;stroke-opacity:1"
         id="path262" /></g><g
       id="g264"
       transform="translate(286.916,157.28)"><path
         d="M 0,0 -61.382,-60.578"
         style="fill:none;stroke:#4dc6f4;stroke-width:0.5;stroke-linecap:butt;stroke-linejoin:miter;stroke-miterlimit:4;stroke-dasharray:none;stroke-opacity:1"
         id="path266" /></g><g
       id="g268"
       transform="translate(303.197,136.058)"><path
         d="M 0,0 -74.436,-43.557"
         style="fill:none;stroke:#4dc6f4;stroke-width:0.5;stroke-linecap:butt;stroke-linejoin:miter;stroke-miterlimit:4;stroke-dasharray:none;stroke-opacity:1"
         id="path270" /></g><g
       id="g272"
       transform="translate(313.104,112.048)"><path
         d="M 0,0 -82.854,-23.158"
         style="fill:none;stroke:#4dc6f4;stroke-width:0.5;stroke-linecap:butt;stroke-linejoin:miter;stroke-miterlimit:4;stroke-dasharray:none;stroke-opacity:1"
         id="path274" /></g><g
       id="g276"
       transform="translate(232.372,86.616)"><path
         d="m 0,0 c 0,-1.104 -0.896,-2 -2,-2 -1.104,0 -2,0.896 -2,2 0,1.104 0.896,2 2,2 1.104,0 2,-0.896 2,-2"
         style="fill:#4dc6f4;fill-opacity:1;fill-rule:nonzero;stroke:none"
         id="path278" /></g><g
       id="g280"
       transform="translate(237.372,119.616)"><path
         d="m 0,0 c 0,-1.104 -0.896,-2 -2,-2 -1.104,0 -2,0.896 -2,2 0,1.104 0.896,2 2,2 1.104,0 2,-0.896 2,-2"
         style="fill:#4dc6f4;fill-opacity:1;fill-rule:nonzero;stroke:none"
         id="path282" /></g><g
       id="g284"
       transform="translate(237.372,67.078)"><path
         d="m 0,0 c 0,-1.104 -0.896,-2 -2,-2 -1.104,0 -2,0.896 -2,2 0,1.104 0.896,2 2,2 1.104,0 2,-0.896 2,-2"
         style="fill:#4dc6f4;fill-opacity:1;fill-rule:nonzero;stroke:none"
         id="path286" /></g><g
       id="g288"
       transform="translate(318.328,86.616)"><path
         d="m 0,0 c 0,-1.104 -0.896,-2 -2,-2 -1.104,0 -2,0.896 -2,2 0,1.104 0.896,2 2,2 1.104,0 2,-0.896 2,-2"
         style="fill:#4dc6f4;fill-opacity:1;fill-rule:nonzero;stroke:none"
         id="path290" /></g><g
       id="g292"
       transform="translate(77.122,44.078)"><path
         d="M 0,0 V 97.192"
         style="fill:none;stroke:#000000;stroke-width:0.75;stroke-linecap:butt;stroke-linejoin:miter;stroke-miterlimit:4;stroke-dasharray:none;stroke-opacity:1"
         id="path294" /></g><g
       id="g296"
       transform="translate(79.122,55.1)"><path
         d="m 0,0 c 0,-1.104 -0.896,-2 -2,-2 -1.104,0 -2,0.896 -2,2 0,1.105 0.896,2 2,2 1.104,0 2,-0.895 2,-2"
         style="fill:#4dc6f4;fill-opacity:1;fill-rule:nonzero;stroke:none"
         id="path298" /></g><g
       id="g300"
       transform="translate(79.122,128.523)"><path
         d="m 0,0 c 0,-1.104 -0.896,-2 -2,-2 -1.104,0 -2,0.896 -2,2 0,1.104 0.896,2 2,2 1.104,0 2,-0.896 2,-2"
         style="fill:#4dc6f4;fill-opacity:1;fill-rule:nonzero;stroke:none"
         id="path302" /></g><text
       transform="matrix(1,0,0,-1,65.941,138.11)"
       style="font-variant:normal;font-weight:normal;font-stretch:normal;font-size:8px;font-family:'Courier New';-inkscape-font-specification:Courier;writing-mode:lr-tb;fill:#231f20;fill-opacity:1;fill-rule:nonzero;stroke:none"
       id="text306"><tspan
         x="0"
         y="0"
         id="tspan304">π</tspan></text><text
       transform="matrix(1,0,0,-1,65.9414,130.1099)"
       style="font-variant:normal;font-weight:normal;font-stretch:normal;font-size:8px;font-family:Symbol;-inkscape-font-specification:Symbol;writing-mode:lr-tb;fill:#231f20;fill-opacity:1;fill-rule:nonzero;stroke:none"
       id="text310"><tspan
         x="0"
         y="0"
         id="tspan308">3</tspan></text><g
       id="g312"
       transform="translate(64.975,136.95)"><path
         d="M 0,0 H 5.994"
         style="fill:none;stroke:#231f20;stroke-width:0.5;stroke-linecap:butt;stroke-linejoin:miter;stroke-miterlimit:4;stroke-dasharray:none;stroke-opacity:1"
         id="path314" /></g><text
       transform="matrix(1,0,0,-1,62.083,47.285)"
       style="font-style:italic;font-variant:normal;font-weight:normal;font-stretch:normal;font-size:8px;font-family:'Times New Roman';-inkscape-font-specification:Times-Italic;writing-mode:lr-tb;fill:#231f20;fill-opacity:1;fill-rule:nonzero;stroke:none"
       id="text318"><tspan
         x="0"
         y="0"
         id="tspan316">-</tspan></text><text
       transform="matrix(1,0,0,-1,64.7473,47.285)"
       style="font-style:italic;font-variant:normal;font-weight:normal;font-stretch:normal;font-size:8px;font-family:Times;-inkscape-font-specification:Times-Italic;writing-mode:lr-tb;fill:#231f20;fill-opacity:1;fill-rule:nonzero;stroke:none"
       id="text322"><tspan
         x="0"
         y="0"
         id="tspan320">i</tspan></text><text
       transform="matrix(1,0,0,-1,68.867,50.097)"
       style="font-variant:normal;font-weight:normal;font-stretch:normal;font-size:8px;font-family:'Courier New';-inkscape-font-specification:Courier;writing-mode:lr-tb;fill:#231f20;fill-opacity:1;fill-rule:nonzero;stroke:none"
       id="text326"><tspan
         x="0"
         y="0"
         id="tspan324">π</tspan></text><text
       transform="matrix(1,0,0,-1,68.867,41.505)"
       style="font-variant:normal;font-weight:normal;font-stretch:normal;font-size:8px;font-family:Symbol;-inkscape-font-specification:Symbol;writing-mode:lr-tb;fill:#231f20;fill-opacity:1;fill-rule:nonzero;stroke:none"
       id="text330"><tspan
         x="0"
         y="0"
         id="tspan328">4</tspan></text><g
       id="g332"
       transform="translate(67.90062,48.937363)"><path
         d="M 0,0 H 5.994"
         style="fill:none;stroke:#231f20;stroke-width:0.5;stroke-linecap:butt;stroke-linejoin:miter;stroke-miterlimit:4;stroke-dasharray:none;stroke-opacity:1"
         id="path334" /></g></g></svg>
