<?xml version="1.0" encoding="UTF-8" standalone="no"?>
<svg
   xmlns:dc="http://purl.org/dc/elements/1.1/"
   xmlns:cc="http://creativecommons.org/ns#"
   xmlns:rdf="http://www.w3.org/1999/02/22-rdf-syntax-ns#"
   xmlns:svg="http://www.w3.org/2000/svg"
   xmlns="http://www.w3.org/2000/svg"
   version="1.1"
   id="svg2"
   xml:space="preserve"
   width="453.33334"
   height="230.66667"
   viewBox="0 0 453.33334 230.66667"><metadata
     id="metadata8"><rdf:RDF><cc:Work
         rdf:about=""><dc:format>image/svg+xml</dc:format><dc:type
           rdf:resource="http://purl.org/dc/dcmitype/StillImage" /></cc:Work></rdf:RDF></metadata><defs
     id="defs6" /><g
     id="g10"
     transform="matrix(1.3333333,0,0,-1.3333333,0,230.66667)"><g
       id="g12"
       transform="scale(0.1)"><path
         d="M 713.625,1594.3 V 175.914"
         style="fill:none;stroke:#000000;stroke-width:7.5;stroke-linecap:butt;stroke-linejoin:miter;stroke-miterlimit:4;stroke-dasharray:none;stroke-opacity:1"
         id="path14" /><path
         d="m 713.625,1594 -15.805,-9.61 -0.359,0.53 10.238,25.78 c 1.973,8.98 3.949,17.97 5.926,26.95 1.98,-8.98 3.953,-17.97 5.926,-26.95 l 10.246,-25.78 -0.277,-0.53 -15.895,9.61"
         style="fill:#000000;fill-opacity:1;fill-rule:nonzero;stroke:none"
         id="path16" /><path
         d="m 713.625,180.281 15.809,9.614 0.363,-0.54 -10.246,-25.777 c -1.973,-8.976 -3.946,-17.969 -5.926,-26.945 -1.977,8.976 -3.945,17.969 -5.926,26.945 l -10.238,25.777 0.269,0.54 15.895,-9.614"
         style="fill:#000000;fill-opacity:1;fill-rule:nonzero;stroke:none"
         id="path18" /><path
         d="M 610.527,1374.39 V 237.938"
         style="fill:none;stroke:#80d6f7;stroke-width:5;stroke-linecap:butt;stroke-linejoin:miter;stroke-miterlimit:4;stroke-dasharray:none;stroke-opacity:1"
         id="path20" /><path
         d="M 810.105,1374.39 V 237.938"
         style="fill:none;stroke:#80d6f7;stroke-width:5;stroke-linecap:butt;stroke-linejoin:miter;stroke-miterlimit:4;stroke-dasharray:none;stroke-opacity:1"
         id="path22" /><path
         d="M 909.902,1374.39 V 237.938"
         style="fill:none;stroke:#80d6f7;stroke-width:5;stroke-linecap:butt;stroke-linejoin:miter;stroke-miterlimit:4;stroke-dasharray:none;stroke-opacity:1"
         id="path24" /><path
         d="M 1009.7,1374.39 V 237.938"
         style="fill:none;stroke:#80d6f7;stroke-width:5;stroke-linecap:butt;stroke-linejoin:miter;stroke-miterlimit:4;stroke-dasharray:none;stroke-opacity:1"
         id="path26" /><path
         d="M 1109.49,1374.39 V 237.938"
         style="fill:none;stroke:#80d6f7;stroke-width:5;stroke-linecap:butt;stroke-linejoin:miter;stroke-miterlimit:4;stroke-dasharray:none;stroke-opacity:1"
         id="path28" /><path
         d="M 1209.28,1374.39 V 237.938"
         style="fill:none;stroke:#80d6f7;stroke-width:5;stroke-linecap:butt;stroke-linejoin:miter;stroke-miterlimit:4;stroke-dasharray:none;stroke-opacity:1"
         id="path30" /><path
         d="M 1309.07,1374.39 V 237.938"
         style="fill:none;stroke:#80d6f7;stroke-width:5;stroke-linecap:butt;stroke-linejoin:miter;stroke-miterlimit:4;stroke-dasharray:none;stroke-opacity:1"
         id="path32" /><path
         d="M 510.727,1374.39 V 237.938"
         style="fill:none;stroke:#80d6f7;stroke-width:5;stroke-linecap:butt;stroke-linejoin:miter;stroke-miterlimit:4;stroke-dasharray:none;stroke-opacity:1"
         id="path34" /><path
         d="M 410.93,1374.39 V 237.938"
         style="fill:none;stroke:#80d6f7;stroke-width:5;stroke-linecap:butt;stroke-linejoin:miter;stroke-miterlimit:4;stroke-dasharray:none;stroke-opacity:1"
         id="path36" /><path
         d="M 311.133,1374.39 V 237.938"
         style="fill:none;stroke:#80d6f7;stroke-width:5;stroke-linecap:butt;stroke-linejoin:miter;stroke-miterlimit:4;stroke-dasharray:none;stroke-opacity:1"
         id="path38" /><path
         d="M 211.34,1374.39 V 237.938"
         style="fill:none;stroke:#80d6f7;stroke-width:5;stroke-linecap:butt;stroke-linejoin:miter;stroke-miterlimit:4;stroke-dasharray:none;stroke-opacity:1"
         id="path40" /><path
         d="M 111.543,1374.39 V 237.938"
         style="fill:none;stroke:#80d6f7;stroke-width:5;stroke-linecap:butt;stroke-linejoin:miter;stroke-miterlimit:4;stroke-dasharray:none;stroke-opacity:1"
         id="path42" /><path
         d="M 64.9414,802.434 H 1417.76"
         style="fill:none;stroke:#000000;stroke-width:7.5;stroke-linecap:butt;stroke-linejoin:miter;stroke-miterlimit:4;stroke-dasharray:none;stroke-opacity:1"
         id="path44" /><path
         d="m 1417.46,802.434 -9.6,15.808 0.53,0.363 25.78,-10.246 c 8.98,-1.972 17.97,-3.949 26.94,-5.925 -8.97,-1.973 -17.96,-3.95 -26.94,-5.93 l -25.78,-10.234 -0.53,0.261 9.6,15.903"
         style="fill:#000000;fill-opacity:1;fill-rule:nonzero;stroke:none"
         id="path46" /><path
         d="m 67.2656,802.434 9.6094,-15.801 -0.5352,-0.363 -25.7812,10.234 c -8.9805,1.976 -17.9648,3.957 -26.9453,5.93 8.9805,1.976 17.9648,3.953 26.9453,5.925 l 25.7812,10.246 0.5352,-0.273 -9.6094,-15.898"
         style="fill:#000000;fill-opacity:1;fill-rule:nonzero;stroke:none"
         id="path48" /><path
         d="m 716.57,989.977 h 19.504"
         style="fill:none;stroke:#000000;stroke-width:5;stroke-linecap:butt;stroke-linejoin:miter;stroke-miterlimit:4;stroke-dasharray:none;stroke-opacity:1"
         id="path50" /><path
         d="m 716.57,1182.38 h 19.504"
         style="fill:none;stroke:#000000;stroke-width:5;stroke-linecap:butt;stroke-linejoin:miter;stroke-miterlimit:4;stroke-dasharray:none;stroke-opacity:1"
         id="path52" /><path
         d="m 716.57,1374.77 h 19.504"
         style="fill:none;stroke:#000000;stroke-width:5;stroke-linecap:butt;stroke-linejoin:miter;stroke-miterlimit:4;stroke-dasharray:none;stroke-opacity:1"
         id="path54" /><path
         d="m 716.57,234.289 h 19.504"
         style="fill:none;stroke:#000000;stroke-width:5;stroke-linecap:butt;stroke-linejoin:miter;stroke-miterlimit:4;stroke-dasharray:none;stroke-opacity:1"
         id="path56" /><path
         d="m 716.57,426.684 h 19.504"
         style="fill:none;stroke:#000000;stroke-width:5;stroke-linecap:butt;stroke-linejoin:miter;stroke-miterlimit:4;stroke-dasharray:none;stroke-opacity:1"
         id="path58" /><path
         d="m 716.57,619.086 h 19.504"
         style="fill:none;stroke:#000000;stroke-width:5;stroke-linecap:butt;stroke-linejoin:miter;stroke-miterlimit:4;stroke-dasharray:none;stroke-opacity:1"
         id="path60" /><path
         d="m 1747.32,780.293 v 19.496"
         style="fill:none;stroke:#000000;stroke-width:5;stroke-linecap:butt;stroke-linejoin:miter;stroke-miterlimit:4;stroke-dasharray:none;stroke-opacity:1"
         id="path62" /><path
         d="m 2127.12,780.293 v 19.496"
         style="fill:none;stroke:#000000;stroke-width:5;stroke-linecap:butt;stroke-linejoin:miter;stroke-miterlimit:4;stroke-dasharray:none;stroke-opacity:1"
         id="path64" /><path
         d="m 2870.33,780.293 v 19.496"
         style="fill:none;stroke:#000000;stroke-width:5;stroke-linecap:butt;stroke-linejoin:miter;stroke-miterlimit:4;stroke-dasharray:none;stroke-opacity:1"
         id="path66" /><path
         d="m 3250.13,780.293 v 19.496"
         style="fill:none;stroke:#000000;stroke-width:5;stroke-linecap:butt;stroke-linejoin:miter;stroke-miterlimit:4;stroke-dasharray:none;stroke-opacity:1"
         id="path68" /><path
         d="m 2522.21,89.1758 h -19.5"
         style="fill:none;stroke:#000000;stroke-width:5;stroke-linecap:butt;stroke-linejoin:miter;stroke-miterlimit:4;stroke-dasharray:none;stroke-opacity:1"
         id="path70" /><path
         d="m 2522.21,468.965 h -19.5"
         style="fill:none;stroke:#000000;stroke-width:5;stroke-linecap:butt;stroke-linejoin:miter;stroke-miterlimit:4;stroke-dasharray:none;stroke-opacity:1"
         id="path72" /><path
         d="m 2522.21,1135 h -19.5"
         style="fill:none;stroke:#000000;stroke-width:5;stroke-linecap:butt;stroke-linejoin:miter;stroke-miterlimit:4;stroke-dasharray:none;stroke-opacity:1"
         id="path74" /><path
         d="m 2522.21,1514.79 h -19.5"
         style="fill:none;stroke:#000000;stroke-width:5;stroke-linecap:butt;stroke-linejoin:miter;stroke-miterlimit:4;stroke-dasharray:none;stroke-opacity:1"
         id="path76" /><path
         d="m 3221.52,975.293 c 0,0 -643.49,-143.785 -643.49,-173.289 0,-29.516 639.6,-177.715 639.6,-177.715"
         style="fill:none;stroke:#80d6f7;stroke-width:5;stroke-linecap:butt;stroke-linejoin:miter;stroke-miterlimit:4;stroke-dasharray:none;stroke-opacity:1"
         id="path78" /><path
         d="m 1778.52,975.293 c 0,0 643.5,-156.004 643.5,-171.602 0,-15.601 -639.6,-179.402 -639.6,-179.402"
         style="fill:none;stroke:#80d6f7;stroke-width:5;stroke-linecap:butt;stroke-linejoin:miter;stroke-miterlimit:4;stroke-dasharray:none;stroke-opacity:1"
         id="path80" /><path
         d="m 1852.63,1135.19 c 0,0 569.39,-280.92 569.39,-333.51 0,-52.586 -573.3,-333.387 -573.3,-333.387"
         style="fill:none;stroke:#80d6f7;stroke-width:5;stroke-linecap:butt;stroke-linejoin:miter;stroke-miterlimit:4;stroke-dasharray:none;stroke-opacity:1"
         id="path82" /><path
         d="m 3151.32,1131.29 c 0,0 -582.69,-277.02 -582.69,-329.61 0,-52.586 574.89,-333.387 574.89,-333.387"
         style="fill:none;stroke:#80d6f7;stroke-width:5;stroke-linecap:butt;stroke-linejoin:miter;stroke-miterlimit:4;stroke-dasharray:none;stroke-opacity:1"
         id="path84" /><path
         d="m 3026.52,1267.79 c 0,0 -475.8,-401.696 -475.8,-464.099 0,-62.402 483.6,-475.8 483.6,-475.8"
         style="fill:none;stroke:#80d6f7;stroke-width:5;stroke-linecap:butt;stroke-linejoin:miter;stroke-miterlimit:4;stroke-dasharray:none;stroke-opacity:1"
         id="path86" /><path
         d="m 1971.79,1267.79 c 0,0 475.8,-401.696 475.8,-464.099 0,-62.402 -483.61,-475.8 -483.61,-475.8"
         style="fill:none;stroke:#80d6f7;stroke-width:5;stroke-linecap:butt;stroke-linejoin:miter;stroke-miterlimit:4;stroke-dasharray:none;stroke-opacity:1"
         id="path88" /><path
         d="m 2121.72,1376.99 c 0,0 339.3,-494.869 339.3,-575.037 0,-80.164 -335.39,-579.363 -335.39,-579.363"
         style="fill:none;stroke:#80d6f7;stroke-width:5;stroke-linecap:butt;stroke-linejoin:miter;stroke-miterlimit:4;stroke-dasharray:none;stroke-opacity:1"
         id="path90" /><path
         d="m 2874.43,1376.99 c 0,0 -339.3,-494.869 -339.3,-575.037 0,-80.164 335.4,-579.363 335.4,-579.363"
         style="fill:none;stroke:#80d6f7;stroke-width:5;stroke-linecap:butt;stroke-linejoin:miter;stroke-miterlimit:4;stroke-dasharray:none;stroke-opacity:1"
         id="path92" /><path
         d="m 2301.13,1443.29 c 0,0 171.6,-538.2 171.6,-639.599 0,-101.402 -171.6,-643.5 -171.6,-643.5"
         style="fill:none;stroke:#80d6f7;stroke-width:5;stroke-linecap:butt;stroke-linejoin:miter;stroke-miterlimit:4;stroke-dasharray:none;stroke-opacity:1"
         id="path94" /><path
         d="m 2691.13,1443.29 c 0,0 -171.61,-538.2 -171.61,-639.599 0,-101.402 171.61,-643.5 171.61,-643.5"
         style="fill:none;stroke:#80d6f7;stroke-width:5;stroke-linecap:butt;stroke-linejoin:miter;stroke-miterlimit:4;stroke-dasharray:none;stroke-opacity:1"
         id="path96" /><path
         d="M 1716.13,803.691 H 3311.22"
         style="fill:none;stroke:#000000;stroke-width:7.5;stroke-linecap:butt;stroke-linejoin:miter;stroke-miterlimit:4;stroke-dasharray:none;stroke-opacity:1"
         id="path98" /><path
         d="m 3310.93,803.691 -9.61,15.805 0.54,0.363 25.78,-10.238 c 8.98,-1.976 17.96,-3.957 26.94,-5.93 -8.98,-1.976 -17.96,-3.957 -26.94,-5.925 l -25.78,-10.246 -0.54,0.273 9.61,15.898"
         style="fill:#000000;fill-opacity:1;fill-rule:nonzero;stroke:none"
         id="path100" /><path
         d="m 1721.77,803.691 9.61,-15.804 -0.54,-0.367 -25.78,10.246 c -8.98,1.968 -17.97,3.949 -26.95,5.925 8.98,1.973 17.97,3.954 26.95,5.93 l 25.78,10.238 0.54,-0.269 -9.61,-15.899"
         style="fill:#000000;fill-opacity:1;fill-rule:nonzero;stroke:none"
         id="path102" /><path
         d="m 1451.78,1453.69 h 264.35"
         style="fill:none;stroke:#000000;stroke-width:7.5;stroke-linecap:butt;stroke-linejoin:miter;stroke-miterlimit:4;stroke-dasharray:none;stroke-opacity:1"
         id="path104" /><path
         d="m 1715.83,1453.69 -9.61,15.81 0.54,0.36 25.78,-10.24 c 8.98,-1.98 17.96,-3.95 26.94,-5.93 -8.98,-1.98 -17.96,-3.95 -26.94,-5.92 l -25.78,-10.25 -0.54,0.27 9.61,15.9"
         style="fill:#000000;fill-opacity:1;fill-rule:nonzero;stroke:none"
         id="path106" /><path
         d="M 2498.07,48.3203 V 1591.93"
         style="fill:none;stroke:#000000;stroke-width:7.5;stroke-linecap:butt;stroke-linejoin:miter;stroke-miterlimit:4;stroke-dasharray:none;stroke-opacity:1"
         id="path108" /><path
         d="m 2498.07,1591.64 -15.8,-9.61 -0.37,0.54 10.25,25.78 c 1.97,8.98 3.95,17.96 5.92,26.94 1.98,-8.98 3.95,-17.96 5.93,-26.94 l 10.24,-25.78 -0.26,-0.54 -15.91,9.61"
         style="fill:#000000;fill-opacity:1;fill-rule:nonzero;stroke:none"
         id="path110" /><path
         d="m 2498.07,50.4805 15.81,9.6133 0.36,-0.543 L 2504,33.7773 c -1.97,-8.9804 -3.95,-17.9609 -5.93,-26.94136 -1.97,8.98046 -3.94,17.96096 -5.92,26.94136 l -10.25,25.7735 0.28,0.543 15.89,-9.6133"
         style="fill:#000000;fill-opacity:1;fill-rule:nonzero;stroke:none"
         id="path112" /><g
         id="g114"
         transform="scale(10)"><text
           transform="matrix(1,0,0,-1,240.773,149.399)"
           style="font-variant:normal;font-weight:normal;font-size:6.24px;font-family:'Times New Roman';-inkscape-font-specification:Times-Roman;writing-mode:lr-tb;fill:#231f20;fill-opacity:1;fill-rule:nonzero;stroke:none"
           id="text120"><tspan
             x="0 3.1199999"
             y="0"
             id="tspan116">10</tspan><tspan
             x="3.11992"
             y="37.4398"
             id="tspan118">5</tspan></text><text
           transform="matrix(1,0,0,-1,240.46753,44.8791)"
           style="font-variant:normal;font-weight:normal;font-size:6.24px;font-family:Symbol;-inkscape-font-specification:Symbol;writing-mode:lr-tb;fill:#231f20;fill-opacity:1;fill-rule:nonzero;stroke:none"
           id="text124"><tspan
             x="0"
             y="0"
             id="tspan122">−</tspan></text><text
           transform="matrix(1,0,0,-1,243.89331,44.8791)"
           style="font-variant:normal;font-weight:normal;font-size:6.24px;font-family:'Times New Roman';-inkscape-font-specification:Times-Roman;writing-mode:lr-tb;fill:#231f20;fill-opacity:1;fill-rule:nonzero;stroke:none"
           id="text128"><tspan
             x="0"
             y="0"
             id="tspan126">5</tspan></text><text
           transform="matrix(1,0,0,-1,237.34722,7.4393)"
           style="font-variant:normal;font-weight:normal;font-size:6.24px;font-family:Symbol;-inkscape-font-specification:Symbol;writing-mode:lr-tb;fill:#231f20;fill-opacity:1;fill-rule:nonzero;stroke:none"
           id="text132"><tspan
             x="0"
             y="0"
             id="tspan130">−</tspan></text><text
           transform="matrix(1,0,0,-1,240.773,7.4393)"
           style="font-variant:normal;font-weight:normal;font-size:6.24px;font-family:'Times New Roman';-inkscape-font-specification:Times-Roman;writing-mode:lr-tb;fill:#231f20;fill-opacity:1;fill-rule:nonzero;stroke:none"
           id="text136"><tspan
             x="0 3.1199999"
             y="0"
             id="tspan134">10</tspan></text><text
           transform="matrix(1,0,0,-1,169.7621,71.919)"
           style="font-variant:normal;font-weight:normal;font-size:6.24px;font-family:Symbol;-inkscape-font-specification:Symbol;writing-mode:lr-tb;fill:#231f20;fill-opacity:1;fill-rule:nonzero;stroke:none"
           id="text140"><tspan
             x="0"
             y="0"
             id="tspan138">−</tspan></text><text
           transform="matrix(1,0,0,-1,173.18788,71.919)"
           style="font-variant:normal;font-weight:normal;font-size:6.24px;font-family:'Times New Roman';-inkscape-font-specification:Times-Roman;writing-mode:lr-tb;fill:#231f20;fill-opacity:1;fill-rule:nonzero;stroke:none"
           id="text144"><tspan
             x="0 3.1199999"
             y="0"
             id="tspan142">10</tspan></text><text
           transform="matrix(1,0,0,-1,207.72268,71.919)"
           style="font-variant:normal;font-weight:normal;font-size:6.24px;font-family:Symbol;-inkscape-font-specification:Symbol;writing-mode:lr-tb;fill:#231f20;fill-opacity:1;fill-rule:nonzero;stroke:none"
           id="text148"><tspan
             x="0"
             y="0"
             id="tspan146">−</tspan></text><text
           transform="matrix(1,0,0,-1,211.14846,71.919)"
           style="font-variant:normal;font-weight:normal;font-size:6.24px;font-family:'Times New Roman';-inkscape-font-specification:Times-Roman;writing-mode:lr-tb;fill:#231f20;fill-opacity:1;fill-rule:nonzero;stroke:none"
           id="text154"><tspan
             x="0 111.26419 114.38419 74.865021"
             y="0"
             id="tspan150">5105</tspan><tspan
             x="-145.61501"
             y="-63.440601"
             id="tspan152">3</tspan></text><text
           transform="matrix(1,0,0,-1,62.53229,21.4796)"
           style="font-variant:normal;font-weight:normal;font-size:6.24px;font-family:Symbol;-inkscape-font-specification:Symbol;writing-mode:lr-tb;fill:#231f20;fill-opacity:1;fill-rule:nonzero;stroke:none"
           id="text158"><tspan
             x="0"
             y="0"
             id="tspan156">−</tspan></text><text
           transform="matrix(1,0,0,-1,65.95807,21.4796)"
           style="font-variant:normal;font-weight:normal;font-size:6.24px;font-family:'Times New Roman';-inkscape-font-specification:Times-Roman;writing-mode:lr-tb;fill:#231f20;fill-opacity:1;fill-rule:nonzero;stroke:none"
           id="text162"><tspan
             x="0"
             y="0"
             id="tspan160">3</tspan></text><text
           transform="matrix(1,0,0,-1,62.53229,40.7198)"
           style="font-variant:normal;font-weight:normal;font-size:6.24px;font-family:Symbol;-inkscape-font-specification:Symbol;writing-mode:lr-tb;fill:#231f20;fill-opacity:1;fill-rule:nonzero;stroke:none"
           id="text166"><tspan
             x="0"
             y="0"
             id="tspan164">−</tspan></text><text
           transform="matrix(1,0,0,-1,65.95807,40.7198)"
           style="font-variant:normal;font-weight:normal;font-size:6.24px;font-family:'Times New Roman';-inkscape-font-specification:Times-Roman;writing-mode:lr-tb;fill:#231f20;fill-opacity:1;fill-rule:nonzero;stroke:none"
           id="text170"><tspan
             x="0"
             y="0"
             id="tspan168">2</tspan></text><text
           transform="matrix(1,0,0,-1,62.53229,59.4401)"
           style="font-variant:normal;font-weight:normal;font-size:6.24px;font-family:Symbol;-inkscape-font-specification:Symbol;writing-mode:lr-tb;fill:#231f20;fill-opacity:1;fill-rule:nonzero;stroke:none"
           id="text174"><tspan
             x="0"
             y="0"
             id="tspan172">−</tspan></text><text
           transform="matrix(1,0,0,-1,65.95807,59.4401)"
           style="font-variant:normal;font-weight:normal;font-size:6.24px;font-family:'Times New Roman';-inkscape-font-specification:Times-Roman;writing-mode:lr-tb;fill:#231f20;fill-opacity:1;fill-rule:nonzero;stroke:none"
           id="text178"><tspan
             x="0"
             y="0"
             id="tspan176">1</tspan></text><text
           transform="matrix(1,0,0,-1,0.67717,74.1569)"
           style="font-variant:normal;font-weight:normal;font-size:6.24px;font-family:Symbol;-inkscape-font-specification:Symbol;writing-mode:lr-tb;fill:#231f20;fill-opacity:1;fill-rule:nonzero;stroke:none"
           id="text182"><tspan
             x="0"
             y="0"
             id="tspan180">−</tspan></text><text
           transform="matrix(1,0,0,-1,4.10295,74.1569)"
           style="font-variant:normal;font-weight:normal;font-size:6.24px;font-family:Arial;-inkscape-font-specification:Arial;writing-mode:lr-tb;fill:#231f20;fill-opacity:1;fill-rule:nonzero;stroke:none"
           id="text186"><tspan
             x="0 3.46944"
             y="0"
             id="tspan184">p</tspan></text><text
           transform="matrix(1,0,0,-1,4.12451,67.91706)"
           style="font-variant:normal;font-weight:normal;font-size:6.24px;font-family:'Times New Roman';-inkscape-font-specification:Times-Roman;writing-mode:lr-tb;fill:#231f20;fill-opacity:1;fill-rule:nonzero;stroke:none"
           id="text190"><tspan
             x="0"
             y="0"
             id="tspan188">2</tspan></text><text
           transform="matrix(1,0,0,-1,144.99051,149.39946)"
           style="font-style:italic;font-variant:normal;font-size:6.24px;font-family:'Times New Roman';-inkscape-font-specification:Times-Italic;writing-mode:lr-tb;fill:#231f20;fill-opacity:1;fill-rule:nonzero;stroke:none"
           id="text194"><tspan
             x="0 4.1620798 5.7220802 9.9340801"
             y="0"
             id="tspan192">w = </tspan></text><text
           transform="matrix(1,0,0,-1,156.48501,149.39946)"
           style="font-variant:normal;font-weight:normal;font-size:6.24px;font-family:'Times New Roman';-inkscape-font-specification:Times-Roman;writing-mode:lr-tb;fill:#231f20;fill-opacity:1;fill-rule:nonzero;stroke:none"
           id="text198"><tspan
             x="0 2.4273601 4.1620798"
             y="0"
             id="tspan196">sin</tspan></text><text
           transform="matrix(1,0,0,-1,165.32704,149.39946)"
           style="font-style:italic;font-variant:normal;font-size:6.24px;font-family:'Times New Roman';-inkscape-font-specification:Times-Italic;writing-mode:lr-tb;fill:#231f20;fill-opacity:1;fill-rule:nonzero;stroke:none"
           id="text208"><tspan
             x="0"
             y="0"
             id="tspan200">z</tspan><tspan
             x="-17.187 171.37082"
             y="70.537498"
             id="tspan202">xu</tspan><tspan
             x="-95.2593"
             y="-18.002701"
             id="tspan204">y</tspan><tspan
             x="82.944702"
             y="-16.77692"
             id="tspan206">v</tspan></text><text
           transform="matrix(1,0,0,-1,65.53374,116.11978)"
           style="font-variant:normal;font-weight:normal;font-size:6.24px;font-family:'Times New Roman';-inkscape-font-specification:Times-Roman;writing-mode:lr-tb;fill:#231f20;fill-opacity:1;fill-rule:nonzero;stroke:none"
           id="text214"><tspan
             x="0"
             y="0"
             id="tspan210">2</tspan><tspan
             x="0"
             y="19.239799"
             id="tspan212">1</tspan></text></g><path
         d="M 22.2031,732.727 H 85.5273"
         style="fill:none;stroke:#231f20;stroke-width:5;stroke-linecap:butt;stroke-linejoin:miter;stroke-miterlimit:4;stroke-dasharray:none;stroke-opacity:1"
         id="path216" /><g
         id="g218"
         transform="scale(10)"><text
           transform="matrix(1,0,0,-1,137.384,74.1563)"
           style="font-variant:normal;font-weight:normal;font-size:6.24px;font-family:Arial;-inkscape-font-specification:Arial;writing-mode:lr-tb;fill:#231f20;fill-opacity:1;fill-rule:nonzero;stroke:none"
           id="text222"><tspan
             x="0 3.46944"
             y="0"
             id="tspan220">p</tspan></text><text
           transform="matrix(1,0,0,-1,137.55861,67.91646)"
           style="font-variant:normal;font-weight:normal;font-size:6.24px;font-family:'Times New Roman';-inkscape-font-specification:Times-Roman;writing-mode:lr-tb;fill:#231f20;fill-opacity:1;fill-rule:nonzero;stroke:none"
           id="text226"><tspan
             x="0"
             y="0"
             id="tspan224">2</tspan></text></g><path
         d="m 1359.47,732.727 h 63.33"
         style="fill:none;stroke:#231f20;stroke-width:5;stroke-linecap:butt;stroke-linejoin:miter;stroke-miterlimit:4;stroke-dasharray:none;stroke-opacity:1"
         id="path228" /></g></g></svg>
